{
  "header": {
    "formatType": 1,
    "trackCount": 10,
    "ticksPerBeat": 120
  },
  "tracks": [
    [
      {
        "deltaTime": 0,
        "type": "meta",
        "subtype": "copyrightNotice",
        "text": "Ê¹ÓÃ WIDI 3.0 ´´½¨"
      },
      {
        "deltaTime": 0,
        "type": "meta",
        "subtype": "timeSignature",
        "numerator": 4,
        "denominator": 4,
        "metronome": 24,
        "thirtyseconds": 8
      },
      {
        "deltaTime": 0,
        "type": "meta",
        "subtype": "keySignature",
        "key": 0,
        "scale": 0
      },
      {
        "deltaTime": 0,
        "type": "meta",
        "subtype": "setTempo",
        "microsecondsPerBeat": 500000
      },
      {
        "deltaTime": 0,
        "type": "meta",
        "subtype": "endOfTrack"
      }
    ],
    [
      {
        "deltaTime": 184,
        "channel": 0,
        "type": "channel",
        "subtype": "programChange",
        "programNumber": 0
      },
      {
        "deltaTime": 0,
        "channel": 0,
        "type": "channel",
        "noteNumber": 83,
        "velocity": 39,
        "subtype": "noteOn"
      },
      {
        "deltaTime": 36,
        "channel": 0,
        "type": "channel",
        "subtype": "noteOff",
        "noteNumber": 83,
        "velocity": 0
      },
      {
        "deltaTime": 123,
        "channel": 0,
        "type": "channel",
        "noteNumber": 95,
        "velocity": 53,
        "subtype": "noteOn"
      },
      {
        "deltaTime": 67,
        "channel": 0,
        "type": "channel",
        "subtype": "noteOff",
        "noteNumber": 95,
        "velocity": 0
      },
      {
        "deltaTime": 93,
        "channel": 0,
        "type": "channel",
        "noteNumber": 93,
        "velocity": 49,
        "subtype": "noteOn"
      },
      {
        "deltaTime": 101,
        "channel": 0,
        "type": "channel",
        "subtype": "noteOff",
        "noteNumber": 93,
        "velocity": 0
      },
      {
        "deltaTime": 60,
        "channel": 0,
        "type": "channel",
        "noteNumber": 90,
        "velocity": 51,
        "subtype": "noteOn"
      },
      {
        "deltaTime": 137,
        "channel": 0,
        "type": "channel",
        "subtype": "noteOff",
        "noteNumber": 90,
        "velocity": 0
      },
      {
        "deltaTime": 343,
        "channel": 0,
        "type": "channel",
        "noteNumber": 88,
        "velocity": 39,
        "subtype": "noteOn"
      },
      {
        "deltaTime": 115,
        "channel": 0,
        "type": "channel",
        "subtype": "noteOff",
        "noteNumber": 88,
        "velocity": 0
      },
      {
        "deltaTime": 46,
        "channel": 0,
        "type": "channel",
        "noteNumber": 90,
        "velocity": 51,
        "subtype": "noteOn"
      },
      {
        "deltaTime": 134,
        "channel": 0,
        "type": "channel",
        "subtype": "noteOff",
        "noteNumber": 90,
        "velocity": 0
      },
      {
        "deltaTime": 346,
        "channel": 0,
        "type": "channel",
        "noteNumber": 88,
        "velocity": 32,
        "subtype": "noteOn"
      },
      {
        "deltaTime": 60,
        "channel": 0,
        "type": "channel",
        "subtype": "noteOff",
        "noteNumber": 88,
        "velocity": 0
      },
      {
        "deltaTime": 101,
        "channel": 0,
        "type": "channel",
        "noteNumber": 90,
        "velocity": 50,
        "subtype": "noteOn"
      },
      {
        "deltaTime": 204,
        "channel": 0,
        "type": "channel",
        "subtype": "noteOff",
        "noteNumber": 90,
        "velocity": 0
      },
      {
        "deltaTime": 595,
        "channel": 0,
        "type": "channel",
        "noteNumber": 83,
        "velocity": 37,
        "subtype": "noteOn"
      },
      {
        "deltaTime": 144,
        "channel": 0,
        "type": "channel",
        "subtype": "noteOff",
        "noteNumber": 83,
        "velocity": 0
      },
      {
        "deltaTime": 14,
        "channel": 0,
        "type": "channel",
        "noteNumber": 95,
        "velocity": 53,
        "subtype": "noteOn"
      },
      {
        "deltaTime": 70,
        "channel": 0,
        "type": "channel",
        "subtype": "noteOff",
        "noteNumber": 95,
        "velocity": 0
      },
      {
        "deltaTime": 91,
        "channel": 0,
        "type": "channel",
        "noteNumber": 93,
        "velocity": 49,
        "subtype": "noteOn"
      },
      {
        "deltaTime": 99,
        "channel": 0,
        "type": "channel",
        "subtype": "noteOff",
        "noteNumber": 93,
        "velocity": 0
      },
      {
        "deltaTime": 60,
        "channel": 0,
        "type": "channel",
        "noteNumber": 90,
        "velocity": 51,
        "subtype": "noteOn"
      },
      {
        "deltaTime": 136,
        "channel": 0,
        "type": "channel",
        "subtype": "noteOff",
        "noteNumber": 90,
        "velocity": 0
      },
      {
        "deltaTime": 346,
        "channel": 0,
        "type": "channel",
        "noteNumber": 88,
        "velocity": 37,
        "subtype": "noteOn"
      },
      {
        "deltaTime": 115,
        "channel": 0,
        "type": "channel",
        "subtype": "noteOff",
        "noteNumber": 88,
        "velocity": 0
      },
      {
        "deltaTime": 46,
        "channel": 0,
        "type": "channel",
        "noteNumber": 90,
        "velocity": 50,
        "subtype": "noteOn"
      },
      {
        "deltaTime": 137,
        "channel": 0,
        "type": "channel",
        "subtype": "noteOff",
        "noteNumber": 90,
        "velocity": 0
      },
      {
        "deltaTime": 340,
        "channel": 0,
        "type": "channel",
        "noteNumber": 91,
        "velocity": 52,
        "subtype": "noteOn"
      },
      {
        "deltaTime": 156,
        "channel": 0,
        "type": "channel",
        "subtype": "noteOff",
        "noteNumber": 91,
        "velocity": 0
      },
      {
        "deltaTime": 5,
        "channel": 0,
        "type": "channel",
        "noteNumber": 90,
        "velocity": 51,
        "subtype": "noteOn"
      },
      {
        "deltaTime": 156,
        "channel": 0,
        "type": "channel",
        "subtype": "noteOff",
        "noteNumber": 90,
        "velocity": 0
      },
      {
        "deltaTime": 651,
        "channel": 0,
        "type": "channel",
        "noteNumber": 61,
        "velocity": 37,
        "subtype": "noteOn"
      },
      {
        "deltaTime": 98,
        "channel": 0,
        "type": "channel",
        "subtype": "noteOff",
        "noteNumber": 61,
        "velocity": 0
      },
      {
        "deltaTime": 53,
        "channel": 0,
        "type": "channel",
        "noteNumber": 95,
        "velocity": 54,
        "subtype": "noteOn"
      },
      {
        "deltaTime": 69,
        "channel": 0,
        "type": "channel",
        "subtype": "noteOff",
        "noteNumber": 95,
        "velocity": 0
      },
      {
        "deltaTime": 92,
        "channel": 0,
        "type": "channel",
        "noteNumber": 93,
        "velocity": 49,
        "subtype": "noteOn"
      },
      {
        "deltaTime": 100,
        "channel": 0,
        "type": "channel",
        "subtype": "noteOff",
        "noteNumber": 93,
        "velocity": 0
      },
      {
        "deltaTime": 63,
        "channel": 0,
        "type": "channel",
        "noteNumber": 90,
        "velocity": 51,
        "subtype": "noteOn"
      },
      {
        "deltaTime": 134,
        "channel": 0,
        "type": "channel",
        "subtype": "noteOff",
        "noteNumber": 90,
        "velocity": 0
      },
      {
        "deltaTime": 423,
        "channel": 0,
        "type": "channel",
        "noteNumber": 90,
        "velocity": 50,
        "subtype": "noteOn"
      },
      {
        "deltaTime": 168,
        "channel": 0,
        "type": "channel",
        "subtype": "noteOff",
        "noteNumber": 90,
        "velocity": 0
      },
      {
        "deltaTime": 396,
        "channel": 0,
        "type": "channel",
        "noteNumber": 85,
        "velocity": 34,
        "subtype": "noteOn"
      },
      {
        "deltaTime": 129,
        "channel": 0,
        "type": "channel",
        "subtype": "noteOff",
        "noteNumber": 85,
        "velocity": 0
      },
      {
        "deltaTime": 29,
        "channel": 0,
        "type": "channel",
        "noteNumber": 86,
        "velocity": 40,
        "subtype": "noteOn"
      },
      {
        "deltaTime": 77,
        "channel": 0,
        "type": "channel",
        "subtype": "noteOff",
        "noteNumber": 86,
        "velocity": 0
      },
      {
        "deltaTime": 403,
        "channel": 0,
        "type": "channel",
        "noteNumber": 81,
        "velocity": 95,
        "subtype": "noteOn"
      },
      {
        "deltaTime": 77,
        "channel": 0,
        "type": "channel",
        "subtype": "noteOff",
        "noteNumber": 81,
        "velocity": 0
      },
      {
        "deltaTime": 57,
        "channel": 0,
        "type": "channel",
        "noteNumber": 81,
        "velocity": 20,
        "subtype": "noteOn"
      },
      {
        "deltaTime": 27,
        "channel": 0,
        "type": "channel",
        "subtype": "noteOff",
        "noteNumber": 81,
        "velocity": 0
      },
      {
        "deltaTime": 0,
        "channel": 0,
        "type": "channel",
        "noteNumber": 78,
        "velocity": 70,
        "subtype": "noteOn"
      },
      {
        "deltaTime": 41,
        "channel": 0,
        "type": "channel",
        "subtype": "noteOff",
        "noteNumber": 78,
        "velocity": 0
      },
      {
        "deltaTime": 271,
        "channel": 0,
        "type": "channel",
        "noteNumber": 78,
        "velocity": 70,
        "subtype": "noteOn"
      },
      {
        "deltaTime": 146,
        "channel": 0,
        "type": "channel",
        "subtype": "noteOff",
        "noteNumber": 78,
        "velocity": 0
      },
      {
        "deltaTime": 22,
        "channel": 0,
        "type": "channel",
        "noteNumber": 85,
        "velocity": 35,
        "subtype": "noteOn"
      },
      {
        "deltaTime": 36,
        "channel": 0,
        "type": "channel",
        "subtype": "noteOff",
        "noteNumber": 85,
        "velocity": 0
      },
      {
        "deltaTime": 125,
        "channel": 0,
        "type": "channel",
        "noteNumber": 86,
        "velocity": 37,
        "subtype": "noteOn"
      },
      {
        "deltaTime": 24,
        "channel": 0,
        "type": "channel",
        "subtype": "noteOff",
        "noteNumber": 86,
        "velocity": 0
      },
      {
        "deltaTime": 453,
        "channel": 0,
        "type": "channel",
        "noteNumber": 90,
        "velocity": 50,
        "subtype": "noteOn"
      },
      {
        "deltaTime": 147,
        "channel": 0,
        "type": "channel",
        "subtype": "noteOff",
        "noteNumber": 90,
        "velocity": 0
      },
      {
        "deltaTime": 14,
        "channel": 0,
        "type": "channel",
        "noteNumber": 88,
        "velocity": 41,
        "subtype": "noteOn"
      },
      {
        "deltaTime": 79,
        "channel": 0,
        "type": "channel",
        "subtype": "noteOff",
        "noteNumber": 88,
        "velocity": 0
      },
      {
        "deltaTime": 161,
        "channel": 0,
        "type": "channel",
        "noteNumber": 90,
        "velocity": 52,
        "subtype": "noteOn"
      },
      {
        "deltaTime": 187,
        "channel": 0,
        "type": "channel",
        "subtype": "noteOff",
        "noteNumber": 90,
        "velocity": 0
      },
      {
        "deltaTime": 55,
        "channel": 0,
        "type": "channel",
        "noteNumber": 81,
        "velocity": 97,
        "subtype": "noteOn"
      },
      {
        "deltaTime": 72,
        "channel": 0,
        "type": "channel",
        "subtype": "noteOff",
        "noteNumber": 81,
        "velocity": 0
      },
      {
        "deltaTime": 58,
        "channel": 0,
        "type": "channel",
        "noteNumber": 81,
        "velocity": 15,
        "subtype": "noteOn"
      },
      {
        "deltaTime": 22,
        "channel": 0,
        "type": "channel",
        "subtype": "noteOff",
        "noteNumber": 81,
        "velocity": 0
      },
      {
        "deltaTime": 12,
        "channel": 0,
        "type": "channel",
        "noteNumber": 59,
        "velocity": 37,
        "subtype": "noteOn"
      },
      {
        "deltaTime": 597,
        "channel": 0,
        "type": "channel",
        "subtype": "noteOff",
        "noteNumber": 59,
        "velocity": 0
      },
      {
        "deltaTime": 204,
        "channel": 0,
        "type": "channel",
        "noteNumber": 61,
        "velocity": 39,
        "subtype": "noteOn"
      },
      {
        "deltaTime": 99,
        "channel": 0,
        "type": "channel",
        "subtype": "noteOff",
        "noteNumber": 61,
        "velocity": 0
      },
      {
        "deltaTime": 729,
        "channel": 0,
        "type": "channel",
        "noteNumber": 36,
        "velocity": 14,
        "subtype": "noteOn"
      },
      {
        "deltaTime": 22,
        "channel": 0,
        "type": "channel",
        "subtype": "noteOff",
        "noteNumber": 36,
        "velocity": 0
      },
      {
        "deltaTime": 24,
        "channel": 0,
        "type": "channel",
        "noteNumber": 83,
        "velocity": 36,
        "subtype": "noteOn"
      },
      {
        "deltaTime": 36,
        "channel": 0,
        "type": "channel",
        "subtype": "noteOff",
        "noteNumber": 83,
        "velocity": 0
      },
      {
        "deltaTime": 9,
        "channel": 0,
        "type": "channel",
        "noteNumber": 97,
        "velocity": 42,
        "subtype": "noteOn"
      },
      {
        "deltaTime": 29,
        "channel": 0,
        "type": "channel",
        "subtype": "noteOff",
        "noteNumber": 97,
        "velocity": 0
      },
      {
        "deltaTime": 5,
        "channel": 0,
        "type": "channel",
        "noteNumber": 95,
        "velocity": 58,
        "subtype": "noteOn"
      },
      {
        "deltaTime": 74,
        "channel": 0,
        "type": "channel",
        "subtype": "noteOff",
        "noteNumber": 95,
        "velocity": 0
      },
      {
        "deltaTime": 5,
        "channel": 0,
        "type": "channel",
        "noteNumber": 93,
        "velocity": 55,
        "subtype": "noteOn"
      },
      {
        "deltaTime": 77,
        "channel": 0,
        "type": "channel",
        "subtype": "noteOff",
        "noteNumber": 93,
        "velocity": 0
      },
      {
        "deltaTime": 34,
        "channel": 0,
        "type": "channel",
        "noteNumber": 43,
        "velocity": 59,
        "subtype": "noteOn"
      },
      {
        "deltaTime": 38,
        "channel": 0,
        "type": "channel",
        "subtype": "noteOff",
        "noteNumber": 43,
        "velocity": 0
      },
      {
        "deltaTime": 46,
        "channel": 0,
        "type": "channel",
        "noteNumber": 43,
        "velocity": 67,
        "subtype": "noteOn"
      },
      {
        "deltaTime": 208,
        "channel": 0,
        "type": "channel",
        "subtype": "noteOff",
        "noteNumber": 43,
        "velocity": 0
      },
      {
        "deltaTime": 15,
        "channel": 0,
        "type": "channel",
        "noteNumber": 45,
        "velocity": 63,
        "subtype": "noteOn"
      },
      {
        "deltaTime": 103,
        "channel": 0,
        "type": "channel",
        "subtype": "noteOff",
        "noteNumber": 45,
        "velocity": 0
      },
      {
        "deltaTime": 34,
        "channel": 0,
        "type": "channel",
        "noteNumber": 45,
        "velocity": 59,
        "subtype": "noteOn"
      },
      {
        "deltaTime": 136,
        "channel": 0,
        "type": "channel",
        "subtype": "noteOff",
        "noteNumber": 45,
        "velocity": 0
      },
      {
        "deltaTime": 51,
        "channel": 0,
        "type": "channel",
        "noteNumber": 47,
        "velocity": 67,
        "subtype": "noteOn"
      },
      {
        "deltaTime": 257,
        "channel": 0,
        "type": "channel",
        "subtype": "noteOff",
        "noteNumber": 47,
        "velocity": 0
      },
      {
        "deltaTime": 38,
        "channel": 0,
        "type": "channel",
        "noteNumber": 47,
        "velocity": 52,
        "subtype": "noteOn"
      },
      {
        "deltaTime": 43,
        "channel": 0,
        "type": "channel",
        "subtype": "noteOff",
        "noteNumber": 47,
        "velocity": 0
      },
      {
        "deltaTime": 29,
        "channel": 0,
        "type": "channel",
        "noteNumber": 47,
        "velocity": 35,
        "subtype": "noteOn"
      },
      {
        "deltaTime": 48,
        "channel": 0,
        "type": "channel",
        "subtype": "noteOff",
        "noteNumber": 47,
        "velocity": 0
      },
      {
        "deltaTime": 24,
        "channel": 0,
        "type": "channel",
        "noteNumber": 62,
        "velocity": 15,
        "subtype": "noteOn"
      },
      {
        "deltaTime": 17,
        "channel": 0,
        "type": "channel",
        "subtype": "noteOff",
        "noteNumber": 62,
        "velocity": 0
      },
      {
        "deltaTime": 2,
        "channel": 0,
        "type": "channel",
        "noteNumber": 95,
        "velocity": 52,
        "subtype": "noteOn"
      },
      {
        "deltaTime": 72,
        "channel": 0,
        "type": "channel",
        "subtype": "noteOff",
        "noteNumber": 95,
        "velocity": 0
      },
      {
        "deltaTime": 7,
        "channel": 0,
        "type": "channel",
        "noteNumber": 93,
        "velocity": 42,
        "subtype": "noteOn"
      },
      {
        "deltaTime": 75,
        "channel": 0,
        "type": "channel",
        "subtype": "noteOff",
        "noteNumber": 93,
        "velocity": 0
      },
      {
        "deltaTime": 41,
        "channel": 0,
        "type": "channel",
        "noteNumber": 43,
        "velocity": 64,
        "subtype": "noteOn"
      },
      {
        "deltaTime": 290,
        "channel": 0,
        "type": "channel",
        "subtype": "noteOff",
        "noteNumber": 43,
        "velocity": 0
      },
      {
        "deltaTime": 12,
        "channel": 0,
        "type": "channel",
        "noteNumber": 45,
        "velocity": 65,
        "subtype": "noteOn"
      },
      {
        "deltaTime": 127,
        "channel": 0,
        "type": "channel",
        "subtype": "noteOff",
        "noteNumber": 45,
        "velocity": 0
      },
      {
        "deltaTime": 10,
        "channel": 0,
        "type": "channel",
        "noteNumber": 90,
        "velocity": 60,
        "subtype": "noteOn"
      },
      {
        "deltaTime": 17,
        "channel": 0,
        "type": "channel",
        "subtype": "noteOff",
        "noteNumber": 90,
        "velocity": 0
      },
      {
        "deltaTime": 69,
        "channel": 0,
        "type": "channel",
        "noteNumber": 91,
        "velocity": 53,
        "subtype": "noteOn"
      },
      {
        "deltaTime": 77,
        "channel": 0,
        "type": "channel",
        "subtype": "noteOff",
        "noteNumber": 91,
        "velocity": 0
      },
      {
        "deltaTime": 26,
        "channel": 0,
        "type": "channel",
        "noteNumber": 47,
        "velocity": 59,
        "subtype": "noteOn"
      },
      {
        "deltaTime": 257,
        "channel": 0,
        "type": "channel",
        "subtype": "noteOff",
        "noteNumber": 47,
        "velocity": 0
      },
      {
        "deltaTime": 12,
        "channel": 0,
        "type": "channel",
        "noteNumber": 47,
        "velocity": 48,
        "subtype": "noteOn"
      },
      {
        "deltaTime": 29,
        "channel": 0,
        "type": "channel",
        "subtype": "noteOff",
        "noteNumber": 47,
        "velocity": 0
      },
      {
        "deltaTime": 24,
        "channel": 0,
        "type": "channel",
        "noteNumber": 47,
        "velocity": 45,
        "subtype": "noteOn"
      },
      {
        "deltaTime": 94,
        "channel": 0,
        "type": "channel",
        "subtype": "noteOff",
        "noteNumber": 47,
        "velocity": 0
      },
      {
        "deltaTime": 19,
        "channel": 0,
        "type": "channel",
        "noteNumber": 83,
        "velocity": 34,
        "subtype": "noteOn"
      },
      {
        "deltaTime": 19,
        "channel": 0,
        "type": "channel",
        "subtype": "noteOff",
        "noteNumber": 83,
        "velocity": 0
      },
      {
        "deltaTime": 187,
        "channel": 0,
        "type": "channel",
        "noteNumber": 43,
        "velocity": 71,
        "subtype": "noteOn"
      },
      {
        "deltaTime": 295,
        "channel": 0,
        "type": "channel",
        "subtype": "noteOff",
        "noteNumber": 43,
        "velocity": 0
      },
      {
        "deltaTime": 156,
        "channel": 0,
        "type": "channel",
        "noteNumber": 45,
        "velocity": 48,
        "subtype": "noteOn"
      },
      {
        "deltaTime": 84,
        "channel": 0,
        "type": "channel",
        "subtype": "noteOff",
        "noteNumber": 45,
        "velocity": 0
      },
      {
        "deltaTime": 3,
        "channel": 0,
        "type": "channel",
        "noteNumber": 85,
        "velocity": 35,
        "subtype": "noteOn"
      },
      {
        "deltaTime": 74,
        "channel": 0,
        "type": "channel",
        "subtype": "noteOff",
        "noteNumber": 85,
        "velocity": 0
      },
      {
        "deltaTime": 24,
        "channel": 0,
        "type": "channel",
        "noteNumber": 47,
        "velocity": 60,
        "subtype": "noteOn"
      },
      {
        "deltaTime": 183,
        "channel": 0,
        "type": "channel",
        "subtype": "noteOff",
        "noteNumber": 47,
        "velocity": 0
      },
      {
        "deltaTime": 14,
        "channel": 0,
        "type": "channel",
        "noteNumber": 47,
        "velocity": 27,
        "subtype": "noteOn"
      },
      {
        "deltaTime": 22,
        "channel": 0,
        "type": "channel",
        "subtype": "noteOff",
        "noteNumber": 47,
        "velocity": 0
      },
      {
        "deltaTime": 2,
        "channel": 0,
        "type": "channel",
        "noteNumber": 81,
        "velocity": 90,
        "subtype": "noteOn"
      },
      {
        "deltaTime": 74,
        "channel": 0,
        "type": "channel",
        "subtype": "noteOff",
        "noteNumber": 81,
        "velocity": 0
      },
      {
        "deltaTime": 34,
        "channel": 0,
        "type": "channel",
        "noteNumber": 47,
        "velocity": 31,
        "subtype": "noteOn"
      },
      {
        "deltaTime": 89,
        "channel": 0,
        "type": "channel",
        "subtype": "noteOff",
        "noteNumber": 47,
        "velocity": 0
      },
      {
        "deltaTime": 43,
        "channel": 0,
        "type": "channel",
        "noteNumber": 83,
        "velocity": 49,
        "subtype": "noteOn"
      },
      {
        "deltaTime": 34,
        "channel": 0,
        "type": "channel",
        "subtype": "noteOff",
        "noteNumber": 83,
        "velocity": 0
      },
      {
        "deltaTime": 48,
        "channel": 0,
        "type": "channel",
        "noteNumber": 85,
        "velocity": 25,
        "subtype": "noteOn"
      },
      {
        "deltaTime": 28,
        "channel": 0,
        "type": "channel",
        "subtype": "noteOff",
        "noteNumber": 85,
        "velocity": 0
      },
      {
        "deltaTime": 75,
        "channel": 0,
        "type": "channel",
        "noteNumber": 43,
        "velocity": 75,
        "subtype": "noteOn"
      },
      {
        "deltaTime": 293,
        "channel": 0,
        "type": "channel",
        "subtype": "noteOff",
        "noteNumber": 43,
        "velocity": 0
      },
      {
        "deltaTime": 28,
        "channel": 0,
        "type": "channel",
        "noteNumber": 45,
        "velocity": 61,
        "subtype": "noteOn"
      },
      {
        "deltaTime": 106,
        "channel": 0,
        "type": "channel",
        "subtype": "noteOff",
        "noteNumber": 45,
        "velocity": 0
      },
      {
        "deltaTime": 7,
        "channel": 0,
        "type": "channel",
        "noteNumber": 45,
        "velocity": 54,
        "subtype": "noteOn"
      },
      {
        "deltaTime": 103,
        "channel": 0,
        "type": "channel",
        "subtype": "noteOff",
        "noteNumber": 45,
        "velocity": 0
      },
      {
        "deltaTime": 94,
        "channel": 0,
        "type": "channel",
        "noteNumber": 47,
        "velocity": 67,
        "subtype": "noteOn"
      },
      {
        "deltaTime": 101,
        "channel": 0,
        "type": "channel",
        "subtype": "noteOff",
        "noteNumber": 47,
        "velocity": 0
      },
      {
        "deltaTime": 26,
        "channel": 0,
        "type": "channel",
        "noteNumber": 35,
        "velocity": 56,
        "subtype": "noteOn"
      },
      {
        "deltaTime": 190,
        "channel": 0,
        "type": "channel",
        "subtype": "noteOff",
        "noteNumber": 35,
        "velocity": 0
      },
      {
        "deltaTime": 24,
        "channel": 0,
        "type": "channel",
        "noteNumber": 47,
        "velocity": 44,
        "subtype": "noteOn"
      },
      {
        "deltaTime": 81,
        "channel": 0,
        "type": "channel",
        "subtype": "noteOff",
        "noteNumber": 47,
        "velocity": 0
      },
      {
        "deltaTime": 27,
        "channel": 0,
        "type": "channel",
        "noteNumber": 83,
        "velocity": 40,
        "subtype": "noteOn"
      },
      {
        "deltaTime": 12,
        "channel": 0,
        "type": "channel",
        "subtype": "noteOff",
        "noteNumber": 83,
        "velocity": 0
      },
      {
        "deltaTime": 2,
        "channel": 0,
        "type": "channel",
        "noteNumber": 95,
        "velocity": 63,
        "subtype": "noteOn"
      },
      {
        "deltaTime": 51,
        "channel": 0,
        "type": "channel",
        "subtype": "noteOff",
        "noteNumber": 95,
        "velocity": 0
      },
      {
        "deltaTime": 28,
        "channel": 0,
        "type": "channel",
        "noteNumber": 93,
        "velocity": 47,
        "subtype": "noteOn"
      },
      {
        "deltaTime": 77,
        "channel": 0,
        "type": "channel",
        "subtype": "noteOff",
        "noteNumber": 93,
        "velocity": 0
      },
      {
        "deltaTime": 39,
        "channel": 0,
        "type": "channel",
        "noteNumber": 43,
        "velocity": 70,
        "subtype": "noteOn"
      },
      {
        "deltaTime": 254,
        "channel": 0,
        "type": "channel",
        "subtype": "noteOff",
        "noteNumber": 43,
        "velocity": 0
      },
      {
        "deltaTime": 50,
        "channel": 0,
        "type": "channel",
        "noteNumber": 45,
        "velocity": 56,
        "subtype": "noteOn"
      },
      {
        "deltaTime": 27,
        "channel": 0,
        "type": "channel",
        "subtype": "noteOff",
        "noteNumber": 45,
        "velocity": 0
      },
      {
        "deltaTime": 295,
        "channel": 0,
        "type": "channel",
        "noteNumber": 47,
        "velocity": 61,
        "subtype": "noteOn"
      },
      {
        "deltaTime": 259,
        "channel": 0,
        "type": "channel",
        "subtype": "noteOff",
        "noteNumber": 47,
        "velocity": 0
      },
      {
        "deltaTime": 43,
        "channel": 0,
        "type": "channel",
        "noteNumber": 47,
        "velocity": 55,
        "subtype": "noteOn"
      },
      {
        "deltaTime": 39,
        "channel": 0,
        "type": "channel",
        "subtype": "noteOff",
        "noteNumber": 47,
        "velocity": 0
      },
      {
        "deltaTime": 41,
        "channel": 0,
        "type": "channel",
        "noteNumber": 83,
        "velocity": 31,
        "subtype": "noteOn"
      },
      {
        "deltaTime": 31,
        "channel": 0,
        "type": "channel",
        "subtype": "noteOff",
        "noteNumber": 83,
        "velocity": 0
      },
      {
        "deltaTime": 45,
        "channel": 0,
        "type": "channel",
        "noteNumber": 95,
        "velocity": 61,
        "subtype": "noteOn"
      },
      {
        "deltaTime": 75,
        "channel": 0,
        "type": "channel",
        "subtype": "noteOff",
        "noteNumber": 95,
        "velocity": 0
      },
      {
        "deltaTime": 7,
        "channel": 0,
        "type": "channel",
        "noteNumber": 93,
        "velocity": 39,
        "subtype": "noteOn"
      },
      {
        "deltaTime": 74,
        "channel": 0,
        "type": "channel",
        "subtype": "noteOff",
        "noteNumber": 93,
        "velocity": 0
      },
      {
        "deltaTime": 29,
        "channel": 0,
        "type": "channel",
        "noteNumber": 43,
        "velocity": 68,
        "subtype": "noteOn"
      },
      {
        "deltaTime": 300,
        "channel": 0,
        "type": "channel",
        "subtype": "noteOff",
        "noteNumber": 43,
        "velocity": 0
      },
      {
        "deltaTime": 15,
        "channel": 0,
        "type": "channel",
        "noteNumber": 45,
        "velocity": 69,
        "subtype": "noteOn"
      },
      {
        "deltaTime": 184,
        "channel": 0,
        "type": "channel",
        "subtype": "noteOff",
        "noteNumber": 45,
        "velocity": 0
      },
      {
        "deltaTime": 36,
        "channel": 0,
        "type": "channel",
        "noteNumber": 93,
        "velocity": 50,
        "subtype": "noteOn"
      },
      {
        "deltaTime": 77,
        "channel": 0,
        "type": "channel",
        "subtype": "noteOff",
        "noteNumber": 93,
        "velocity": 0
      },
      {
        "deltaTime": 48,
        "channel": 0,
        "type": "channel",
        "noteNumber": 35,
        "velocity": 58,
        "subtype": "noteOn"
      },
      {
        "deltaTime": 322,
        "channel": 0,
        "type": "channel",
        "subtype": "noteOff",
        "noteNumber": 35,
        "velocity": 0
      },
      {
        "deltaTime": 84,
        "channel": 0,
        "type": "channel",
        "noteNumber": 62,
        "velocity": 38,
        "subtype": "noteOn"
      },
      {
        "deltaTime": 26,
        "channel": 0,
        "type": "channel",
        "subtype": "noteOff",
        "noteNumber": 62,
        "velocity": 0
      },
      {
        "deltaTime": 197,
        "channel": 0,
        "type": "channel",
        "noteNumber": 43,
        "velocity": 63,
        "subtype": "noteOn"
      },
      {
        "deltaTime": 252,
        "channel": 0,
        "type": "channel",
        "subtype": "noteOff",
        "noteNumber": 43,
        "velocity": 0
      },
      {
        "deltaTime": 53,
        "channel": 0,
        "type": "channel",
        "noteNumber": 45,
        "velocity": 62,
        "subtype": "noteOn"
      },
      {
        "deltaTime": 194,
        "channel": 0,
        "type": "channel",
        "subtype": "noteOff",
        "noteNumber": 45,
        "velocity": 0
      },
      {
        "deltaTime": 29,
        "channel": 0,
        "type": "channel",
        "noteNumber": 85,
        "velocity": 36,
        "subtype": "noteOn"
      },
      {
        "deltaTime": 41,
        "channel": 0,
        "type": "channel",
        "subtype": "noteOff",
        "noteNumber": 85,
        "velocity": 0
      },
      {
        "deltaTime": 2,
        "channel": 0,
        "type": "channel",
        "noteNumber": 85,
        "velocity": 13,
        "subtype": "noteOn"
      },
      {
        "deltaTime": 34,
        "channel": 0,
        "type": "channel",
        "subtype": "noteOff",
        "noteNumber": 85,
        "velocity": 0
      },
      {
        "deltaTime": 24,
        "channel": 0,
        "type": "channel",
        "noteNumber": 47,
        "velocity": 62,
        "subtype": "noteOn"
      },
      {
        "deltaTime": 216,
        "channel": 0,
        "type": "channel",
        "subtype": "noteOff",
        "noteNumber": 47,
        "velocity": 0
      },
      {
        "deltaTime": 2,
        "channel": 0,
        "type": "channel",
        "noteNumber": 81,
        "velocity": 93,
        "subtype": "noteOn"
      },
      {
        "deltaTime": 77,
        "channel": 0,
        "type": "channel",
        "subtype": "noteOff",
        "noteNumber": 81,
        "velocity": 0
      },
      {
        "deltaTime": 5,
        "channel": 0,
        "type": "channel",
        "noteNumber": 78,
        "velocity": 67,
        "subtype": "noteOn"
      },
      {
        "deltaTime": 41,
        "channel": 0,
        "type": "channel",
        "subtype": "noteOff",
        "noteNumber": 78,
        "velocity": 0
      },
      {
        "deltaTime": 88,
        "channel": 0,
        "type": "channel",
        "noteNumber": 66,
        "velocity": 42,
        "subtype": "noteOn"
      },
      {
        "deltaTime": 24,
        "channel": 0,
        "type": "channel",
        "subtype": "noteOff",
        "noteNumber": 66,
        "velocity": 0
      },
      {
        "deltaTime": 8,
        "channel": 0,
        "type": "channel",
        "noteNumber": 78,
        "velocity": 77,
        "subtype": "noteOn"
      },
      {
        "deltaTime": 36,
        "channel": 0,
        "type": "channel",
        "subtype": "noteOff",
        "noteNumber": 78,
        "velocity": 0
      },
      {
        "deltaTime": 153,
        "channel": 0,
        "type": "channel",
        "noteNumber": 43,
        "velocity": 64,
        "subtype": "noteOn"
      },
      {
        "deltaTime": 269,
        "channel": 0,
        "type": "channel",
        "subtype": "noteOff",
        "noteNumber": 43,
        "velocity": 0
      },
      {
        "deltaTime": 34,
        "channel": 0,
        "type": "channel",
        "noteNumber": 45,
        "velocity": 61,
        "subtype": "noteOn"
      },
      {
        "deltaTime": 117,
        "channel": 0,
        "type": "channel",
        "subtype": "noteOff",
        "noteNumber": 45,
        "velocity": 0
      },
      {
        "deltaTime": 27,
        "channel": 0,
        "type": "channel",
        "noteNumber": 90,
        "velocity": 59,
        "subtype": "noteOn"
      },
      {
        "deltaTime": 74,
        "channel": 0,
        "type": "channel",
        "subtype": "noteOff",
        "noteNumber": 90,
        "velocity": 0
      },
      {
        "deltaTime": 10,
        "channel": 0,
        "type": "channel",
        "noteNumber": 81,
        "velocity": 94,
        "subtype": "noteOn"
      },
      {
        "deltaTime": 72,
        "channel": 0,
        "type": "channel",
        "subtype": "noteOff",
        "noteNumber": 81,
        "velocity": 0
      },
      {
        "deltaTime": 7,
        "channel": 0,
        "type": "channel",
        "noteNumber": 83,
        "velocity": 21,
        "subtype": "noteOn"
      },
      {
        "deltaTime": 17,
        "channel": 0,
        "type": "channel",
        "subtype": "noteOff",
        "noteNumber": 83,
        "velocity": 0
      },
      {
        "deltaTime": 4,
        "channel": 0,
        "type": "channel",
        "noteNumber": 47,
        "velocity": 61,
        "subtype": "noteOn"
      },
      {
        "deltaTime": 296,
        "channel": 0,
        "type": "channel",
        "subtype": "noteOff",
        "noteNumber": 47,
        "velocity": 0
      },
      {
        "deltaTime": 336,
        "channel": 0,
        "type": "channel",
        "noteNumber": 55,
        "velocity": 27,
        "subtype": "noteOn"
      },
      {
        "deltaTime": 12,
        "channel": 0,
        "type": "channel",
        "subtype": "noteOff",
        "noteNumber": 55,
        "velocity": 0
      },
      {
        "deltaTime": 7,
        "channel": 0,
        "type": "channel",
        "noteNumber": 43,
        "velocity": 65,
        "subtype": "noteOn"
      },
      {
        "deltaTime": 252,
        "channel": 0,
        "type": "channel",
        "subtype": "noteOff",
        "noteNumber": 43,
        "velocity": 0
      },
      {
        "deltaTime": 50,
        "channel": 0,
        "type": "channel",
        "noteNumber": 45,
        "velocity": 67,
        "subtype": "noteOn"
      },
      {
        "deltaTime": 190,
        "channel": 0,
        "type": "channel",
        "subtype": "noteOff",
        "noteNumber": 45,
        "velocity": 0
      },
      {
        "deltaTime": 31,
        "channel": 0,
        "type": "channel",
        "noteNumber": 64,
        "velocity": 16,
        "subtype": "noteOn"
      },
      {
        "deltaTime": 79,
        "channel": 0,
        "type": "channel",
        "subtype": "noteOff",
        "noteNumber": 64,
        "velocity": 0
      },
      {
        "deltaTime": 27,
        "channel": 0,
        "type": "channel",
        "noteNumber": 47,
        "velocity": 56,
        "subtype": "noteOn"
      },
      {
        "deltaTime": 278,
        "channel": 0,
        "type": "channel",
        "subtype": "noteOff",
        "noteNumber": 47,
        "velocity": 0
      },
      {
        "deltaTime": 113,
        "channel": 0,
        "type": "channel",
        "noteNumber": 66,
        "velocity": 39,
        "subtype": "noteOn"
      },
      {
        "deltaTime": 65,
        "channel": 0,
        "type": "channel",
        "subtype": "noteOff",
        "noteNumber": 66,
        "velocity": 0
      },
      {
        "deltaTime": 196,
        "channel": 0,
        "type": "channel",
        "noteNumber": 43,
        "velocity": 65,
        "subtype": "noteOn"
      },
      {
        "deltaTime": 260,
        "channel": 0,
        "type": "channel",
        "subtype": "noteOff",
        "noteNumber": 43,
        "velocity": 0
      },
      {
        "deltaTime": 43,
        "channel": 0,
        "type": "channel",
        "noteNumber": 45,
        "velocity": 65,
        "subtype": "noteOn"
      },
      {
        "deltaTime": 197,
        "channel": 0,
        "type": "channel",
        "subtype": "noteOff",
        "noteNumber": 45,
        "velocity": 0
      },
      {
        "deltaTime": 127,
        "channel": 0,
        "type": "channel",
        "noteNumber": 47,
        "velocity": 62,
        "subtype": "noteOn"
      },
      {
        "deltaTime": 254,
        "channel": 0,
        "type": "channel",
        "subtype": "noteOff",
        "noteNumber": 47,
        "velocity": 0
      },
      {
        "deltaTime": 46,
        "channel": 0,
        "type": "channel",
        "noteNumber": 90,
        "velocity": 51,
        "subtype": "noteOn"
      },
      {
        "deltaTime": 74,
        "channel": 0,
        "type": "channel",
        "subtype": "noteOff",
        "noteNumber": 90,
        "velocity": 0
      },
      {
        "deltaTime": 39,
        "channel": 0,
        "type": "channel",
        "noteNumber": 54,
        "velocity": 38,
        "subtype": "noteOn"
      },
      {
        "deltaTime": 43,
        "channel": 0,
        "type": "channel",
        "subtype": "noteOff",
        "noteNumber": 54,
        "velocity": 0
      },
      {
        "deltaTime": 194,
        "channel": 0,
        "type": "channel",
        "noteNumber": 43,
        "velocity": 69,
        "subtype": "noteOn"
      },
      {
        "deltaTime": 286,
        "channel": 0,
        "type": "channel",
        "subtype": "noteOff",
        "noteNumber": 43,
        "velocity": 0
      },
      {
        "deltaTime": 19,
        "channel": 0,
        "type": "channel",
        "noteNumber": 45,
        "velocity": 62,
        "subtype": "noteOn"
      },
      {
        "deltaTime": 106,
        "channel": 0,
        "type": "channel",
        "subtype": "noteOff",
        "noteNumber": 45,
        "velocity": 0
      },
      {
        "deltaTime": 33,
        "channel": 0,
        "type": "channel",
        "noteNumber": 45,
        "velocity": 55,
        "subtype": "noteOn"
      },
      {
        "deltaTime": 151,
        "channel": 0,
        "type": "channel",
        "subtype": "noteOff",
        "noteNumber": 45,
        "velocity": 0
      },
      {
        "deltaTime": 39,
        "channel": 0,
        "type": "channel",
        "noteNumber": 47,
        "velocity": 64,
        "subtype": "noteOn"
      },
      {
        "deltaTime": 278,
        "channel": 0,
        "type": "channel",
        "subtype": "noteOff",
        "noteNumber": 47,
        "velocity": 0
      },
      {
        "deltaTime": 190,
        "channel": 0,
        "type": "channel",
        "noteNumber": 66,
        "velocity": 40,
        "subtype": "noteOn"
      },
      {
        "deltaTime": 93,
        "channel": 0,
        "type": "channel",
        "subtype": "noteOff",
        "noteNumber": 66,
        "velocity": 0
      },
      {
        "deltaTime": 3,
        "channel": 0,
        "type": "channel",
        "noteNumber": 66,
        "velocity": 34,
        "subtype": "noteOn"
      },
      {
        "deltaTime": 53,
        "channel": 0,
        "type": "channel",
        "subtype": "noteOff",
        "noteNumber": 66,
        "velocity": 0
      },
      {
        "deltaTime": 9,
        "channel": 0,
        "type": "channel",
        "noteNumber": 55,
        "velocity": 42,
        "subtype": "noteOn"
      },
      {
        "deltaTime": 17,
        "channel": 0,
        "type": "channel",
        "subtype": "noteOff",
        "noteNumber": 55,
        "velocity": 0
      },
      {
        "deltaTime": 2,
        "channel": 0,
        "type": "channel",
        "noteNumber": 43,
        "velocity": 68,
        "subtype": "noteOn"
      },
      {
        "deltaTime": 288,
        "channel": 0,
        "type": "channel",
        "subtype": "noteOff",
        "noteNumber": 43,
        "velocity": 0
      },
      {
        "deltaTime": 20,
        "channel": 0,
        "type": "channel",
        "noteNumber": 45,
        "velocity": 69,
        "subtype": "noteOn"
      },
      {
        "deltaTime": 103,
        "channel": 0,
        "type": "channel",
        "subtype": "noteOff",
        "noteNumber": 45,
        "velocity": 0
      },
      {
        "deltaTime": 33,
        "channel": 0,
        "type": "channel",
        "noteNumber": 45,
        "velocity": 64,
        "subtype": "noteOn"
      },
      {
        "deltaTime": 60,
        "channel": 0,
        "type": "channel",
        "subtype": "noteOff",
        "noteNumber": 45,
        "velocity": 0
      },
      {
        "deltaTime": 12,
        "channel": 0,
        "type": "channel",
        "noteNumber": 33,
        "velocity": 31,
        "subtype": "noteOn"
      },
      {
        "deltaTime": 99,
        "channel": 0,
        "type": "channel",
        "subtype": "noteOff",
        "noteNumber": 33,
        "velocity": 0
      },
      {
        "deltaTime": 19,
        "channel": 0,
        "type": "channel",
        "noteNumber": 47,
        "velocity": 61,
        "subtype": "noteOn"
      },
      {
        "deltaTime": 331,
        "channel": 0,
        "type": "channel",
        "subtype": "noteOff",
        "noteNumber": 47,
        "velocity": 0
      },
      {
        "deltaTime": 125,
        "channel": 0,
        "type": "channel",
        "noteNumber": 86,
        "velocity": 52,
        "subtype": "noteOn"
      },
      {
        "deltaTime": 110,
        "channel": 0,
        "type": "channel",
        "subtype": "noteOff",
        "noteNumber": 86,
        "velocity": 0
      },
      {
        "deltaTime": 80,
        "channel": 0,
        "type": "channel",
        "noteNumber": 43,
        "velocity": 69,
        "subtype": "noteOn"
      },
      {
        "deltaTime": 266,
        "channel": 0,
        "type": "channel",
        "subtype": "noteOff",
        "noteNumber": 43,
        "velocity": 0
      },
      {
        "deltaTime": 41,
        "channel": 0,
        "type": "channel",
        "noteNumber": 45,
        "velocity": 59,
        "subtype": "noteOn"
      },
      {
        "deltaTime": 103,
        "channel": 0,
        "type": "channel",
        "subtype": "noteOff",
        "noteNumber": 45,
        "velocity": 0
      },
      {
        "deltaTime": 36,
        "channel": 0,
        "type": "channel",
        "noteNumber": 45,
        "velocity": 53,
        "subtype": "noteOn"
      },
      {
        "deltaTime": 48,
        "channel": 0,
        "type": "channel",
        "subtype": "noteOff",
        "noteNumber": 45,
        "velocity": 0
      },
      {
        "deltaTime": 5,
        "channel": 0,
        "type": "channel",
        "noteNumber": 33,
        "velocity": 29,
        "subtype": "noteOn"
      },
      {
        "deltaTime": 108,
        "channel": 0,
        "type": "channel",
        "subtype": "noteOff",
        "noteNumber": 33,
        "velocity": 0
      },
      {
        "deltaTime": 21,
        "channel": 0,
        "type": "channel",
        "noteNumber": 47,
        "velocity": 64,
        "subtype": "noteOn"
      },
      {
        "deltaTime": 180,
        "channel": 0,
        "type": "channel",
        "subtype": "noteOff",
        "noteNumber": 47,
        "velocity": 0
      },
      {
        "deltaTime": 166,
        "channel": 0,
        "type": "channel",
        "noteNumber": 66,
        "velocity": 57,
        "subtype": "noteOn"
      },
      {
        "deltaTime": 91,
        "channel": 0,
        "type": "channel",
        "subtype": "noteOff",
        "noteNumber": 66,
        "velocity": 0
      },
      {
        "deltaTime": 41,
        "channel": 0,
        "type": "channel",
        "noteNumber": 54,
        "velocity": 44,
        "subtype": "noteOn"
      },
      {
        "deltaTime": 12,
        "channel": 0,
        "type": "channel",
        "subtype": "noteOff",
        "noteNumber": 54,
        "velocity": 0
      },
      {
        "deltaTime": 166,
        "channel": 0,
        "type": "channel",
        "noteNumber": 43,
        "velocity": 67,
        "subtype": "noteOn"
      },
      {
        "deltaTime": 249,
        "channel": 0,
        "type": "channel",
        "subtype": "noteOff",
        "noteNumber": 43,
        "velocity": 0
      },
      {
        "deltaTime": 53,
        "channel": 0,
        "type": "channel",
        "noteNumber": 45,
        "velocity": 61,
        "subtype": "noteOn"
      },
      {
        "deltaTime": 199,
        "channel": 0,
        "type": "channel",
        "subtype": "noteOff",
        "noteNumber": 45,
        "velocity": 0
      },
      {
        "deltaTime": 7,
        "channel": 0,
        "type": "channel",
        "noteNumber": 33,
        "velocity": 29,
        "subtype": "noteOn"
      },
      {
        "deltaTime": 108,
        "channel": 0,
        "type": "channel",
        "subtype": "noteOff",
        "noteNumber": 33,
        "velocity": 0
      },
      {
        "deltaTime": 142,
        "channel": 0,
        "type": "channel",
        "noteNumber": 90,
        "velocity": 65,
        "subtype": "noteOn"
      },
      {
        "deltaTime": 34,
        "channel": 0,
        "type": "channel",
        "subtype": "noteOff",
        "noteNumber": 90,
        "velocity": 0
      },
      {
        "deltaTime": 129,
        "channel": 0,
        "type": "channel",
        "noteNumber": 47,
        "velocity": 40,
        "subtype": "noteOn"
      },
      {
        "deltaTime": 41,
        "channel": 0,
        "type": "channel",
        "subtype": "noteOff",
        "noteNumber": 47,
        "velocity": 0
      },
      {
        "deltaTime": 46,
        "channel": 0,
        "type": "channel",
        "noteNumber": 47,
        "velocity": 46,
        "subtype": "noteOn"
      },
      {
        "deltaTime": 36,
        "channel": 0,
        "type": "channel",
        "subtype": "noteOff",
        "noteNumber": 47,
        "velocity": 0
      },
      {
        "deltaTime": 24,
        "channel": 0,
        "type": "channel",
        "noteNumber": 54,
        "velocity": 35,
        "subtype": "noteOn"
      },
      {
        "deltaTime": 16,
        "channel": 0,
        "type": "channel",
        "subtype": "noteOff",
        "noteNumber": 54,
        "velocity": 0
      },
      {
        "deltaTime": 0,
        "channel": 0,
        "type": "channel",
        "noteNumber": 38,
        "velocity": 55,
        "subtype": "noteOn"
      },
      {
        "deltaTime": 173,
        "channel": 0,
        "type": "channel",
        "subtype": "noteOff",
        "noteNumber": 38,
        "velocity": 0
      },
      {
        "deltaTime": 22,
        "channel": 0,
        "type": "channel",
        "noteNumber": 43,
        "velocity": 66,
        "subtype": "noteOn"
      },
      {
        "deltaTime": 261,
        "channel": 0,
        "type": "channel",
        "subtype": "noteOff",
        "noteNumber": 43,
        "velocity": 0
      },
      {
        "deltaTime": 44,
        "channel": 0,
        "type": "channel",
        "noteNumber": 45,
        "velocity": 58,
        "subtype": "noteOn"
      },
      {
        "deltaTime": 103,
        "channel": 0,
        "type": "channel",
        "subtype": "noteOff",
        "noteNumber": 45,
        "velocity": 0
      },
      {
        "deltaTime": 33,
        "channel": 0,
        "type": "channel",
        "noteNumber": 45,
        "velocity": 53,
        "subtype": "noteOn"
      },
      {
        "deltaTime": 48,
        "channel": 0,
        "type": "channel",
        "subtype": "noteOff",
        "noteNumber": 45,
        "velocity": 0
      },
      {
        "deltaTime": 8,
        "channel": 0,
        "type": "channel",
        "noteNumber": 33,
        "velocity": 28,
        "subtype": "noteOn"
      },
      {
        "deltaTime": 115,
        "channel": 0,
        "type": "channel",
        "subtype": "noteOff",
        "noteNumber": 33,
        "velocity": 0
      },
      {
        "deltaTime": 14,
        "channel": 0,
        "type": "channel",
        "noteNumber": 47,
        "velocity": 64,
        "subtype": "noteOn"
      },
      {
        "deltaTime": 183,
        "channel": 0,
        "type": "channel",
        "subtype": "noteOff",
        "noteNumber": 47,
        "velocity": 0
      },
      {
        "deltaTime": 196,
        "channel": 0,
        "type": "channel",
        "noteNumber": 47,
        "velocity": 49,
        "subtype": "noteOn"
      },
      {
        "deltaTime": 41,
        "channel": 0,
        "type": "channel",
        "subtype": "noteOff",
        "noteNumber": 47,
        "velocity": 0
      },
      {
        "deltaTime": 58,
        "channel": 0,
        "type": "channel",
        "noteNumber": 54,
        "velocity": 44,
        "subtype": "noteOn"
      },
      {
        "deltaTime": 12,
        "channel": 0,
        "type": "channel",
        "subtype": "noteOff",
        "noteNumber": 54,
        "velocity": 0
      },
      {
        "deltaTime": 163,
        "channel": 0,
        "type": "channel",
        "noteNumber": 43,
        "velocity": 69,
        "subtype": "noteOn"
      },
      {
        "deltaTime": 250,
        "channel": 0,
        "type": "channel",
        "subtype": "noteOff",
        "noteNumber": 43,
        "velocity": 0
      },
      {
        "deltaTime": 55,
        "channel": 0,
        "type": "channel",
        "noteNumber": 45,
        "velocity": 61,
        "subtype": "noteOn"
      },
      {
        "deltaTime": 199,
        "channel": 0,
        "type": "channel",
        "subtype": "noteOff",
        "noteNumber": 45,
        "velocity": 0
      },
      {
        "deltaTime": 127,
        "channel": 0,
        "type": "channel",
        "noteNumber": 47,
        "velocity": 61,
        "subtype": "noteOn"
      },
      {
        "deltaTime": 180,
        "channel": 0,
        "type": "channel",
        "subtype": "noteOff",
        "noteNumber": 47,
        "velocity": 0
      },
      {
        "deltaTime": 274,
        "channel": 0,
        "type": "channel",
        "noteNumber": 95,
        "velocity": 56,
        "subtype": "noteOn"
      },
      {
        "deltaTime": 77,
        "channel": 0,
        "type": "channel",
        "subtype": "noteOff",
        "noteNumber": 95,
        "velocity": 0
      },
      {
        "deltaTime": 4,
        "channel": 0,
        "type": "channel",
        "noteNumber": 93,
        "velocity": 52,
        "subtype": "noteOn"
      },
      {
        "deltaTime": 77,
        "channel": 0,
        "type": "channel",
        "subtype": "noteOff",
        "noteNumber": 93,
        "velocity": 0
      },
      {
        "deltaTime": 39,
        "channel": 0,
        "type": "channel",
        "noteNumber": 43,
        "velocity": 59,
        "subtype": "noteOn"
      },
      {
        "deltaTime": 52,
        "channel": 0,
        "type": "channel",
        "subtype": "noteOff",
        "noteNumber": 43,
        "velocity": 0
      },
      {
        "deltaTime": 29,
        "channel": 0,
        "type": "channel",
        "noteNumber": 43,
        "velocity": 70,
        "subtype": "noteOn"
      },
      {
        "deltaTime": 111,
        "channel": 0,
        "type": "channel",
        "subtype": "noteOff",
        "noteNumber": 43,
        "velocity": 0
      },
      {
        "deltaTime": 48,
        "channel": 0,
        "type": "channel",
        "noteNumber": 37,
        "velocity": 50,
        "subtype": "noteOn"
      },
      {
        "deltaTime": 43,
        "channel": 0,
        "type": "channel",
        "subtype": "noteOff",
        "noteNumber": 37,
        "velocity": 0
      },
      {
        "deltaTime": 24,
        "channel": 0,
        "type": "channel",
        "noteNumber": 45,
        "velocity": 66,
        "subtype": "noteOn"
      },
      {
        "deltaTime": 101,
        "channel": 0,
        "type": "channel",
        "subtype": "noteOff",
        "noteNumber": 45,
        "velocity": 0
      },
      {
        "deltaTime": 33,
        "channel": 0,
        "type": "channel",
        "noteNumber": 45,
        "velocity": 52,
        "subtype": "noteOn"
      },
      {
        "deltaTime": 48,
        "channel": 0,
        "type": "channel",
        "subtype": "noteOff",
        "noteNumber": 45,
        "velocity": 0
      },
      {
        "deltaTime": 139,
        "channel": 0,
        "type": "channel",
        "noteNumber": 47,
        "velocity": 61,
        "subtype": "noteOn"
      },
      {
        "deltaTime": 178,
        "channel": 0,
        "type": "channel",
        "subtype": "noteOff",
        "noteNumber": 47,
        "velocity": 0
      },
      {
        "deltaTime": 197,
        "channel": 0,
        "type": "channel",
        "noteNumber": 47,
        "velocity": 47,
        "subtype": "noteOn"
      },
      {
        "deltaTime": 41,
        "channel": 0,
        "type": "channel",
        "subtype": "noteOff",
        "noteNumber": 47,
        "velocity": 0
      },
      {
        "deltaTime": 33,
        "channel": 0,
        "type": "channel",
        "noteNumber": 95,
        "velocity": 62,
        "subtype": "noteOn"
      },
      {
        "deltaTime": 84,
        "channel": 0,
        "type": "channel",
        "subtype": "noteOff",
        "noteNumber": 95,
        "velocity": 0
      },
      {
        "deltaTime": 3,
        "channel": 0,
        "type": "channel",
        "noteNumber": 93,
        "velocity": 43,
        "subtype": "noteOn"
      },
      {
        "deltaTime": 52,
        "channel": 0,
        "type": "channel",
        "subtype": "noteOff",
        "noteNumber": 93,
        "velocity": 0
      },
      {
        "deltaTime": 63,
        "channel": 0,
        "type": "channel",
        "noteNumber": 43,
        "velocity": 67,
        "subtype": "noteOn"
      },
      {
        "deltaTime": 249,
        "channel": 0,
        "type": "channel",
        "subtype": "noteOff",
        "noteNumber": 43,
        "velocity": 0
      },
      {
        "deltaTime": 58,
        "channel": 0,
        "type": "channel",
        "noteNumber": 45,
        "velocity": 67,
        "subtype": "noteOn"
      },
      {
        "deltaTime": 295,
        "channel": 0,
        "type": "channel",
        "subtype": "noteOff",
        "noteNumber": 45,
        "velocity": 0
      },
      {
        "deltaTime": 24,
        "channel": 0,
        "type": "channel",
        "noteNumber": 47,
        "velocity": 58,
        "subtype": "noteOn"
      },
      {
        "deltaTime": 259,
        "channel": 0,
        "type": "channel",
        "subtype": "noteOff",
        "noteNumber": 47,
        "velocity": 0
      },
      {
        "deltaTime": 39,
        "channel": 0,
        "type": "channel",
        "noteNumber": 47,
        "velocity": 56,
        "subtype": "noteOn"
      },
      {
        "deltaTime": 41,
        "channel": 0,
        "type": "channel",
        "subtype": "noteOff",
        "noteNumber": 47,
        "velocity": 0
      },
      {
        "deltaTime": 45,
        "channel": 0,
        "type": "channel",
        "noteNumber": 47,
        "velocity": 48,
        "subtype": "noteOn"
      },
      {
        "deltaTime": 36,
        "channel": 0,
        "type": "channel",
        "subtype": "noteOff",
        "noteNumber": 47,
        "velocity": 0
      },
      {
        "deltaTime": 41,
        "channel": 0,
        "type": "channel",
        "noteNumber": 38,
        "velocity": 62,
        "subtype": "noteOn"
      },
      {
        "deltaTime": 170,
        "channel": 0,
        "type": "channel",
        "subtype": "noteOff",
        "noteNumber": 38,
        "velocity": 0
      },
      {
        "deltaTime": 22,
        "channel": 0,
        "type": "channel",
        "noteNumber": 43,
        "velocity": 69,
        "subtype": "noteOn"
      },
      {
        "deltaTime": 192,
        "channel": 0,
        "type": "channel",
        "subtype": "noteOff",
        "noteNumber": 43,
        "velocity": 0
      },
      {
        "deltaTime": 55,
        "channel": 0,
        "type": "channel",
        "noteNumber": 90,
        "velocity": 51,
        "subtype": "noteOn"
      },
      {
        "deltaTime": 34,
        "channel": 0,
        "type": "channel",
        "subtype": "noteOff",
        "noteNumber": 90,
        "velocity": 0
      },
      {
        "deltaTime": 24,
        "channel": 0,
        "type": "channel",
        "noteNumber": 45,
        "velocity": 69,
        "subtype": "noteOn"
      },
      {
        "deltaTime": 103,
        "channel": 0,
        "type": "channel",
        "subtype": "noteOff",
        "noteNumber": 45,
        "velocity": 0
      },
      {
        "deltaTime": 24,
        "channel": 0,
        "type": "channel",
        "noteNumber": 52,
        "velocity": 60,
        "subtype": "noteOn"
      },
      {
        "deltaTime": 14,
        "channel": 0,
        "type": "channel",
        "subtype": "noteOff",
        "noteNumber": 52,
        "velocity": 0
      },
      {
        "deltaTime": 183,
        "channel": 0,
        "type": "channel",
        "noteNumber": 47,
        "velocity": 61,
        "subtype": "noteOn"
      },
      {
        "deltaTime": 180,
        "channel": 0,
        "type": "channel",
        "subtype": "noteOff",
        "noteNumber": 47,
        "velocity": 0
      },
      {
        "deltaTime": 33,
        "channel": 0,
        "type": "channel",
        "noteNumber": 81,
        "velocity": 93,
        "subtype": "noteOn"
      },
      {
        "deltaTime": 82,
        "channel": 0,
        "type": "channel",
        "subtype": "noteOff",
        "noteNumber": 81,
        "velocity": 0
      },
      {
        "deltaTime": 82,
        "channel": 0,
        "type": "channel",
        "noteNumber": 47,
        "velocity": 50,
        "subtype": "noteOn"
      },
      {
        "deltaTime": 40,
        "channel": 0,
        "type": "channel",
        "subtype": "noteOff",
        "noteNumber": 47,
        "velocity": 0
      },
      {
        "deltaTime": 44,
        "channel": 0,
        "type": "channel",
        "noteNumber": 83,
        "velocity": 56,
        "subtype": "noteOn"
      },
      {
        "deltaTime": 31,
        "channel": 0,
        "type": "channel",
        "subtype": "noteOff",
        "noteNumber": 83,
        "velocity": 0
      },
      {
        "deltaTime": 12,
        "channel": 0,
        "type": "channel",
        "noteNumber": 45,
        "velocity": 45,
        "subtype": "noteOn"
      },
      {
        "deltaTime": 115,
        "channel": 0,
        "type": "channel",
        "subtype": "noteOff",
        "noteNumber": 45,
        "velocity": 0
      },
      {
        "deltaTime": 0,
        "channel": 0,
        "type": "channel",
        "noteNumber": 86,
        "velocity": 36,
        "subtype": "noteOn"
      },
      {
        "deltaTime": 12,
        "channel": 0,
        "type": "channel",
        "subtype": "noteOff",
        "noteNumber": 86,
        "velocity": 0
      },
      {
        "deltaTime": 22,
        "channel": 0,
        "type": "channel",
        "noteNumber": 43,
        "velocity": 67,
        "subtype": "noteOn"
      },
      {
        "deltaTime": 247,
        "channel": 0,
        "type": "channel",
        "subtype": "noteOff",
        "noteNumber": 43,
        "velocity": 0
      },
      {
        "deltaTime": 57,
        "channel": 0,
        "type": "channel",
        "noteNumber": 45,
        "velocity": 67,
        "subtype": "noteOn"
      },
      {
        "deltaTime": 204,
        "channel": 0,
        "type": "channel",
        "subtype": "noteOff",
        "noteNumber": 45,
        "velocity": 0
      },
      {
        "deltaTime": 17,
        "channel": 0,
        "type": "channel",
        "noteNumber": 90,
        "velocity": 49,
        "subtype": "noteOn"
      },
      {
        "deltaTime": 77,
        "channel": 0,
        "type": "channel",
        "subtype": "noteOff",
        "noteNumber": 90,
        "velocity": 0
      },
      {
        "deltaTime": 26,
        "channel": 0,
        "type": "channel",
        "noteNumber": 47,
        "velocity": 50,
        "subtype": "noteOn"
      },
      {
        "deltaTime": 135,
        "channel": 0,
        "type": "channel",
        "subtype": "noteOff",
        "noteNumber": 47,
        "velocity": 0
      },
      {
        "deltaTime": 9,
        "channel": 0,
        "type": "channel",
        "noteNumber": 62,
        "velocity": 52,
        "subtype": "noteOn"
      },
      {
        "deltaTime": 188,
        "channel": 0,
        "type": "channel",
        "subtype": "noteOff",
        "noteNumber": 62,
        "velocity": 0
      },
      {
        "deltaTime": 124,
        "channel": 0,
        "type": "channel",
        "noteNumber": 95,
        "velocity": 52,
        "subtype": "noteOn"
      },
      {
        "deltaTime": 70,
        "channel": 0,
        "type": "channel",
        "subtype": "noteOff",
        "noteNumber": 95,
        "velocity": 0
      },
      {
        "deltaTime": 10,
        "channel": 0,
        "type": "channel",
        "noteNumber": 93,
        "velocity": 39,
        "subtype": "noteOn"
      },
      {
        "deltaTime": 76,
        "channel": 0,
        "type": "channel",
        "subtype": "noteOff",
        "noteNumber": 93,
        "velocity": 0
      },
      {
        "deltaTime": 36,
        "channel": 0,
        "type": "channel",
        "noteNumber": 43,
        "velocity": 69,
        "subtype": "noteOn"
      },
      {
        "deltaTime": 192,
        "channel": 0,
        "type": "channel",
        "subtype": "noteOff",
        "noteNumber": 43,
        "velocity": 0
      },
      {
        "deltaTime": 70,
        "channel": 0,
        "type": "channel",
        "noteNumber": 57,
        "velocity": 49,
        "subtype": "noteOn"
      },
      {
        "deltaTime": 38,
        "channel": 0,
        "type": "channel",
        "subtype": "noteOff",
        "noteNumber": 57,
        "velocity": 0
      },
      {
        "deltaTime": 10,
        "channel": 0,
        "type": "channel",
        "noteNumber": 45,
        "velocity": 68,
        "subtype": "noteOn"
      },
      {
        "deltaTime": 101,
        "channel": 0,
        "type": "channel",
        "subtype": "noteOff",
        "noteNumber": 45,
        "velocity": 0
      },
      {
        "deltaTime": 21,
        "channel": 0,
        "type": "channel",
        "noteNumber": 52,
        "velocity": 49,
        "subtype": "noteOn"
      },
      {
        "deltaTime": 10,
        "channel": 0,
        "type": "channel",
        "subtype": "noteOff",
        "noteNumber": 52,
        "velocity": 0
      },
      {
        "deltaTime": 0,
        "channel": 0,
        "type": "channel",
        "noteNumber": 45,
        "velocity": 55,
        "subtype": "noteOn"
      },
      {
        "deltaTime": 50,
        "channel": 0,
        "type": "channel",
        "subtype": "noteOff",
        "noteNumber": 45,
        "velocity": 0
      },
      {
        "deltaTime": 39,
        "channel": 0,
        "type": "channel",
        "noteNumber": 88,
        "velocity": 34,
        "subtype": "noteOn"
      },
      {
        "deltaTime": 74,
        "channel": 0,
        "type": "channel",
        "subtype": "noteOff",
        "noteNumber": 88,
        "velocity": 0
      },
      {
        "deltaTime": 27,
        "channel": 0,
        "type": "channel",
        "noteNumber": 47,
        "velocity": 61,
        "subtype": "noteOn"
      },
      {
        "deltaTime": 180,
        "channel": 0,
        "type": "channel",
        "subtype": "noteOff",
        "noteNumber": 47,
        "velocity": 0
      },
      {
        "deltaTime": 194,
        "channel": 0,
        "type": "channel",
        "noteNumber": 47,
        "velocity": 47,
        "subtype": "noteOn"
      },
      {
        "deltaTime": 41,
        "channel": 0,
        "type": "channel",
        "subtype": "noteOff",
        "noteNumber": 47,
        "velocity": 0
      },
      {
        "deltaTime": 36,
        "channel": 0,
        "type": "channel",
        "noteNumber": 95,
        "velocity": 57,
        "subtype": "noteOn"
      },
      {
        "deltaTime": 81,
        "channel": 0,
        "type": "channel",
        "subtype": "noteOff",
        "noteNumber": 95,
        "velocity": 0
      },
      {
        "deltaTime": 118,
        "channel": 0,
        "type": "channel",
        "noteNumber": 43,
        "velocity": 65,
        "subtype": "noteOn"
      },
      {
        "deltaTime": 250,
        "channel": 0,
        "type": "channel",
        "subtype": "noteOff",
        "noteNumber": 43,
        "velocity": 0
      },
      {
        "deltaTime": 57,
        "channel": 0,
        "type": "channel",
        "noteNumber": 45,
        "velocity": 66,
        "subtype": "noteOn"
      },
      {
        "deltaTime": 202,
        "channel": 0,
        "type": "channel",
        "subtype": "noteOff",
        "noteNumber": 45,
        "velocity": 0
      },
      {
        "deltaTime": 19,
        "channel": 0,
        "type": "channel",
        "noteNumber": 93,
        "velocity": 52,
        "subtype": "noteOn"
      },
      {
        "deltaTime": 77,
        "channel": 0,
        "type": "channel",
        "subtype": "noteOff",
        "noteNumber": 93,
        "velocity": 0
      },
      {
        "deltaTime": 24,
        "channel": 0,
        "type": "channel",
        "noteNumber": 47,
        "velocity": 62,
        "subtype": "noteOn"
      },
      {
        "deltaTime": 257,
        "channel": 0,
        "type": "channel",
        "subtype": "noteOff",
        "noteNumber": 47,
        "velocity": 0
      },
      {
        "deltaTime": 38,
        "channel": 0,
        "type": "channel",
        "noteNumber": 47,
        "velocity": 54,
        "subtype": "noteOn"
      },
      {
        "deltaTime": 41,
        "channel": 0,
        "type": "channel",
        "subtype": "noteOff",
        "noteNumber": 47,
        "velocity": 0
      },
      {
        "deltaTime": 17,
        "channel": 0,
        "type": "channel",
        "noteNumber": 66,
        "velocity": 47,
        "subtype": "noteOn"
      },
      {
        "deltaTime": 45,
        "channel": 0,
        "type": "channel",
        "subtype": "noteOff",
        "noteNumber": 66,
        "velocity": 0
      },
      {
        "deltaTime": 60,
        "channel": 0,
        "type": "channel",
        "noteNumber": 38,
        "velocity": 60,
        "subtype": "noteOn"
      },
      {
        "deltaTime": 171,
        "channel": 0,
        "type": "channel",
        "subtype": "noteOff",
        "noteNumber": 38,
        "velocity": 0
      },
      {
        "deltaTime": 21,
        "channel": 0,
        "type": "channel",
        "noteNumber": 43,
        "velocity": 69,
        "subtype": "noteOn"
      },
      {
        "deltaTime": 192,
        "channel": 0,
        "type": "channel",
        "subtype": "noteOff",
        "noteNumber": 43,
        "velocity": 0
      },
      {
        "deltaTime": 115,
        "channel": 0,
        "type": "channel",
        "noteNumber": 45,
        "velocity": 67,
        "subtype": "noteOn"
      },
      {
        "deltaTime": 101,
        "channel": 0,
        "type": "channel",
        "subtype": "noteOff",
        "noteNumber": 45,
        "velocity": 0
      },
      {
        "deltaTime": 22,
        "channel": 0,
        "type": "channel",
        "noteNumber": 52,
        "velocity": 58,
        "subtype": "noteOn"
      },
      {
        "deltaTime": 17,
        "channel": 0,
        "type": "channel",
        "subtype": "noteOff",
        "noteNumber": 52,
        "velocity": 0
      },
      {
        "deltaTime": 182,
        "channel": 0,
        "type": "channel",
        "noteNumber": 47,
        "velocity": 61,
        "subtype": "noteOn"
      },
      {
        "deltaTime": 180,
        "channel": 0,
        "type": "channel",
        "subtype": "noteOff",
        "noteNumber": 47,
        "velocity": 0
      },
      {
        "deltaTime": 41,
        "channel": 0,
        "type": "channel",
        "noteNumber": 81,
        "velocity": 92,
        "subtype": "noteOn"
      },
      {
        "deltaTime": 50,
        "channel": 0,
        "type": "channel",
        "subtype": "noteOff",
        "noteNumber": 81,
        "velocity": 0
      },
      {
        "deltaTime": 31,
        "channel": 0,
        "type": "channel",
        "noteNumber": 78,
        "velocity": 69,
        "subtype": "noteOn"
      },
      {
        "deltaTime": 41,
        "channel": 0,
        "type": "channel",
        "subtype": "noteOff",
        "noteNumber": 78,
        "velocity": 0
      },
      {
        "deltaTime": 34,
        "channel": 0,
        "type": "channel",
        "noteNumber": 47,
        "velocity": 48,
        "subtype": "noteOn"
      },
      {
        "deltaTime": 41,
        "channel": 0,
        "type": "channel",
        "subtype": "noteOff",
        "noteNumber": 47,
        "velocity": 0
      },
      {
        "deltaTime": 16,
        "channel": 0,
        "type": "channel",
        "noteNumber": 66,
        "velocity": 48,
        "subtype": "noteOn"
      },
      {
        "deltaTime": 24,
        "channel": 0,
        "type": "channel",
        "subtype": "noteOff",
        "noteNumber": 66,
        "velocity": 0
      },
      {
        "deltaTime": 3,
        "channel": 0,
        "type": "channel",
        "noteNumber": 78,
        "velocity": 70,
        "subtype": "noteOn"
      },
      {
        "deltaTime": 33,
        "channel": 0,
        "type": "channel",
        "subtype": "noteOff",
        "noteNumber": 78,
        "velocity": 0
      },
      {
        "deltaTime": 15,
        "channel": 0,
        "type": "channel",
        "noteNumber": 62,
        "velocity": 48,
        "subtype": "noteOn"
      },
      {
        "deltaTime": 108,
        "channel": 0,
        "type": "channel",
        "subtype": "noteOff",
        "noteNumber": 62,
        "velocity": 0
      },
      {
        "deltaTime": 36,
        "channel": 0,
        "type": "channel",
        "noteNumber": 43,
        "velocity": 66,
        "subtype": "noteOn"
      },
      {
        "deltaTime": 247,
        "channel": 0,
        "type": "channel",
        "subtype": "noteOff",
        "noteNumber": 43,
        "velocity": 0
      },
      {
        "deltaTime": 58,
        "channel": 0,
        "type": "channel",
        "noteNumber": 45,
        "velocity": 66,
        "subtype": "noteOn"
      },
      {
        "deltaTime": 201,
        "channel": 0,
        "type": "channel",
        "subtype": "noteOff",
        "noteNumber": 45,
        "velocity": 0
      },
      {
        "deltaTime": 12,
        "channel": 0,
        "type": "channel",
        "noteNumber": 90,
        "velocity": 56,
        "subtype": "noteOn"
      },
      {
        "deltaTime": 135,
        "channel": 0,
        "type": "channel",
        "subtype": "noteOff",
        "noteNumber": 90,
        "velocity": 0
      },
      {
        "deltaTime": 100,
        "channel": 0,
        "type": "channel",
        "noteNumber": 99,
        "velocity": 62,
        "subtype": "noteOn"
      },
      {
        "deltaTime": 17,
        "channel": 0,
        "type": "channel",
        "subtype": "noteOff",
        "noteNumber": 99,
        "velocity": 0
      },
      {
        "deltaTime": 17,
        "channel": 0,
        "type": "channel",
        "noteNumber": 47,
        "velocity": 47,
        "subtype": "noteOn"
      },
      {
        "deltaTime": 98,
        "channel": 0,
        "type": "channel",
        "subtype": "noteOff",
        "noteNumber": 47,
        "velocity": 0
      },
      {
        "deltaTime": 180,
        "channel": 0,
        "type": "channel",
        "noteNumber": 99,
        "velocity": 45,
        "subtype": "noteOn"
      },
      {
        "deltaTime": 22,
        "channel": 0,
        "type": "channel",
        "subtype": "noteOff",
        "noteNumber": 99,
        "velocity": 0
      },
      {
        "deltaTime": 0,
        "channel": 0,
        "type": "channel",
        "noteNumber": 95,
        "velocity": 52,
        "subtype": "noteOn"
      },
      {
        "deltaTime": 77,
        "channel": 0,
        "type": "channel",
        "subtype": "noteOff",
        "noteNumber": 95,
        "velocity": 0
      },
      {
        "deltaTime": 81,
        "channel": 0,
        "type": "channel",
        "noteNumber": 90,
        "velocity": 48,
        "subtype": "noteOn"
      },
      {
        "deltaTime": 202,
        "channel": 0,
        "type": "channel",
        "subtype": "noteOff",
        "noteNumber": 90,
        "velocity": 0
      },
      {
        "deltaTime": 120,
        "channel": 0,
        "type": "channel",
        "noteNumber": 90,
        "velocity": 50,
        "subtype": "noteOn"
      },
      {
        "deltaTime": 206,
        "channel": 0,
        "type": "channel",
        "subtype": "noteOff",
        "noteNumber": 90,
        "velocity": 0
      },
      {
        "deltaTime": 34,
        "channel": 0,
        "type": "channel",
        "noteNumber": 88,
        "velocity": 37,
        "subtype": "noteOn"
      },
      {
        "deltaTime": 74,
        "channel": 0,
        "type": "channel",
        "subtype": "noteOff",
        "noteNumber": 88,
        "velocity": 0
      },
      {
        "deltaTime": 5,
        "channel": 0,
        "type": "channel",
        "noteNumber": 90,
        "velocity": 52,
        "subtype": "noteOn"
      },
      {
        "deltaTime": 79,
        "channel": 0,
        "type": "channel",
        "subtype": "noteOff",
        "noteNumber": 90,
        "velocity": 0
      },
      {
        "deltaTime": 399,
        "channel": 0,
        "type": "channel",
        "noteNumber": 95,
        "velocity": 52,
        "subtype": "noteOn"
      },
      {
        "deltaTime": 53,
        "channel": 0,
        "type": "channel",
        "subtype": "noteOff",
        "noteNumber": 95,
        "velocity": 0
      },
      {
        "deltaTime": 28,
        "channel": 0,
        "type": "channel",
        "noteNumber": 93,
        "velocity": 45,
        "subtype": "noteOn"
      },
      {
        "deltaTime": 72,
        "channel": 0,
        "type": "channel",
        "subtype": "noteOff",
        "noteNumber": 93,
        "velocity": 0
      },
      {
        "deltaTime": 10,
        "channel": 0,
        "type": "channel",
        "noteNumber": 90,
        "velocity": 50,
        "subtype": "noteOn"
      },
      {
        "deltaTime": 130,
        "channel": 0,
        "type": "channel",
        "subtype": "noteOff",
        "noteNumber": 90,
        "velocity": 0
      },
      {
        "deltaTime": 76,
        "channel": 0,
        "type": "channel",
        "noteNumber": 74,
        "velocity": 46,
        "subtype": "noteOn"
      },
      {
        "deltaTime": 34,
        "channel": 0,
        "type": "channel",
        "subtype": "noteOff",
        "noteNumber": 74,
        "velocity": 0
      },
      {
        "deltaTime": 79,
        "channel": 0,
        "type": "channel",
        "noteNumber": 90,
        "velocity": 50,
        "subtype": "noteOn"
      },
      {
        "deltaTime": 127,
        "channel": 0,
        "type": "channel",
        "subtype": "noteOff",
        "noteNumber": 90,
        "velocity": 0
      },
      {
        "deltaTime": 113,
        "channel": 0,
        "type": "channel",
        "noteNumber": 93,
        "velocity": 47,
        "subtype": "noteOn"
      },
      {
        "deltaTime": 72,
        "channel": 0,
        "type": "channel",
        "subtype": "noteOff",
        "noteNumber": 93,
        "velocity": 0
      },
      {
        "deltaTime": 10,
        "channel": 0,
        "type": "channel",
        "noteNumber": 90,
        "velocity": 50,
        "subtype": "noteOn"
      },
      {
        "deltaTime": 31,
        "channel": 0,
        "type": "channel",
        "subtype": "noteOff",
        "noteNumber": 90,
        "velocity": 0
      },
      {
        "deltaTime": 290,
        "channel": 0,
        "type": "channel",
        "noteNumber": 78,
        "velocity": 50,
        "subtype": "noteOn"
      },
      {
        "deltaTime": 72,
        "channel": 0,
        "type": "channel",
        "subtype": "noteOff",
        "noteNumber": 78,
        "velocity": 0
      },
      {
        "deltaTime": 116,
        "channel": 0,
        "type": "channel",
        "noteNumber": 38,
        "velocity": 56,
        "subtype": "noteOn"
      },
      {
        "deltaTime": 204,
        "channel": 0,
        "type": "channel",
        "subtype": "noteOff",
        "noteNumber": 38,
        "velocity": 0
      },
      {
        "deltaTime": 206,
        "channel": 0,
        "type": "channel",
        "noteNumber": 90,
        "velocity": 53,
        "subtype": "noteOn"
      },
      {
        "deltaTime": 137,
        "channel": 0,
        "type": "channel",
        "subtype": "noteOff",
        "noteNumber": 90,
        "velocity": 0
      },
      {
        "deltaTime": 144,
        "channel": 0,
        "type": "channel",
        "noteNumber": 85,
        "velocity": 32,
        "subtype": "noteOn"
      },
      {
        "deltaTime": 36,
        "channel": 0,
        "type": "channel",
        "subtype": "noteOff",
        "noteNumber": 85,
        "velocity": 0
      },
      {
        "deltaTime": 127,
        "channel": 0,
        "type": "channel",
        "noteNumber": 73,
        "velocity": 45,
        "subtype": "noteOn"
      },
      {
        "deltaTime": 36,
        "channel": 0,
        "type": "channel",
        "subtype": "noteOff",
        "noteNumber": 73,
        "velocity": 0
      },
      {
        "deltaTime": 86,
        "channel": 0,
        "type": "channel",
        "noteNumber": 74,
        "velocity": 48,
        "subtype": "noteOn"
      },
      {
        "deltaTime": 34,
        "channel": 0,
        "type": "channel",
        "subtype": "noteOff",
        "noteNumber": 74,
        "velocity": 0
      },
      {
        "deltaTime": 0,
        "channel": 0,
        "type": "channel",
        "noteNumber": 81,
        "velocity": 85,
        "subtype": "noteOn"
      },
      {
        "deltaTime": 77,
        "channel": 0,
        "type": "channel",
        "subtype": "noteOff",
        "noteNumber": 81,
        "velocity": 0
      },
      {
        "deltaTime": 5,
        "channel": 0,
        "type": "channel",
        "noteNumber": 78,
        "velocity": 72,
        "subtype": "noteOn"
      },
      {
        "deltaTime": 31,
        "channel": 0,
        "type": "channel",
        "subtype": "noteOff",
        "noteNumber": 78,
        "velocity": 0
      },
      {
        "deltaTime": 129,
        "channel": 0,
        "type": "channel",
        "noteNumber": 78,
        "velocity": 71,
        "subtype": "noteOn"
      },
      {
        "deltaTime": 34,
        "channel": 0,
        "type": "channel",
        "subtype": "noteOff",
        "noteNumber": 78,
        "velocity": 0
      },
      {
        "deltaTime": 7,
        "channel": 0,
        "type": "channel",
        "noteNumber": 71,
        "velocity": 45,
        "subtype": "noteOn"
      },
      {
        "deltaTime": 75,
        "channel": 0,
        "type": "channel",
        "subtype": "noteOff",
        "noteNumber": 71,
        "velocity": 0
      },
      {
        "deltaTime": 67,
        "channel": 0,
        "type": "channel",
        "noteNumber": 43,
        "velocity": 42,
        "subtype": "noteOn"
      },
      {
        "deltaTime": 216,
        "channel": 0,
        "type": "channel",
        "subtype": "noteOff",
        "noteNumber": 43,
        "velocity": 0
      },
      {
        "deltaTime": 0,
        "channel": 0,
        "type": "channel",
        "noteNumber": 93,
        "velocity": 49,
        "subtype": "noteOn"
      },
      {
        "deltaTime": 72,
        "channel": 0,
        "type": "channel",
        "subtype": "noteOff",
        "noteNumber": 93,
        "velocity": 0
      },
      {
        "deltaTime": 7,
        "channel": 0,
        "type": "channel",
        "noteNumber": 90,
        "velocity": 52,
        "subtype": "noteOn"
      },
      {
        "deltaTime": 130,
        "channel": 0,
        "type": "channel",
        "subtype": "noteOff",
        "noteNumber": 90,
        "velocity": 0
      },
      {
        "deltaTime": 110,
        "channel": 0,
        "type": "channel",
        "noteNumber": 90,
        "velocity": 51,
        "subtype": "noteOn"
      },
      {
        "deltaTime": 74,
        "channel": 0,
        "type": "channel",
        "subtype": "noteOff",
        "noteNumber": 90,
        "velocity": 0
      },
      {
        "deltaTime": 804,
        "channel": 0,
        "type": "channel",
        "noteNumber": 98,
        "velocity": 109,
        "subtype": "noteOn"
      },
      {
        "deltaTime": 17,
        "channel": 0,
        "type": "channel",
        "subtype": "noteOff",
        "noteNumber": 98,
        "velocity": 0
      },
      {
        "deltaTime": 7,
        "channel": 0,
        "type": "channel",
        "noteNumber": 98,
        "velocity": 73,
        "subtype": "noteOn"
      },
      {
        "deltaTime": 51,
        "channel": 0,
        "type": "channel",
        "subtype": "noteOff",
        "noteNumber": 98,
        "velocity": 0
      },
      {
        "deltaTime": 5,
        "channel": 0,
        "type": "channel",
        "noteNumber": 96,
        "velocity": 116,
        "subtype": "noteOn"
      },
      {
        "deltaTime": 50,
        "channel": 0,
        "type": "channel",
        "subtype": "noteOff",
        "noteNumber": 96,
        "velocity": 0
      },
      {
        "deltaTime": 50,
        "channel": 0,
        "type": "channel",
        "noteNumber": 74,
        "velocity": 70,
        "subtype": "noteOn"
      },
      {
        "deltaTime": 24,
        "channel": 0,
        "type": "channel",
        "subtype": "noteOff",
        "noteNumber": 74,
        "velocity": 0
      },
      {
        "deltaTime": 3,
        "channel": 0,
        "type": "channel",
        "noteNumber": 74,
        "velocity": 71,
        "subtype": "noteOn"
      },
      {
        "deltaTime": 55,
        "channel": 0,
        "type": "channel",
        "subtype": "noteOff",
        "noteNumber": 74,
        "velocity": 0
      },
      {
        "deltaTime": 5,
        "channel": 0,
        "type": "channel",
        "noteNumber": 74,
        "velocity": 90,
        "subtype": "noteOn"
      },
      {
        "deltaTime": 65,
        "channel": 0,
        "type": "channel",
        "subtype": "noteOff",
        "noteNumber": 74,
        "velocity": 0
      },
      {
        "deltaTime": 69,
        "channel": 0,
        "type": "channel",
        "noteNumber": 91,
        "velocity": 70,
        "subtype": "noteOn"
      },
      {
        "deltaTime": 79,
        "channel": 0,
        "type": "channel",
        "subtype": "noteOff",
        "noteNumber": 91,
        "velocity": 0
      },
      {
        "deltaTime": 10,
        "channel": 0,
        "type": "channel",
        "noteNumber": 36,
        "velocity": 73,
        "subtype": "noteOn"
      },
      {
        "deltaTime": 91,
        "channel": 0,
        "type": "channel",
        "subtype": "noteOff",
        "noteNumber": 36,
        "velocity": 0
      },
      {
        "deltaTime": 51,
        "channel": 0,
        "type": "channel",
        "noteNumber": 100,
        "velocity": 62,
        "subtype": "noteOn"
      },
      {
        "deltaTime": 12,
        "channel": 0,
        "type": "channel",
        "subtype": "noteOff",
        "noteNumber": 100,
        "velocity": 0
      },
      {
        "deltaTime": 79,
        "channel": 0,
        "type": "channel",
        "noteNumber": 91,
        "velocity": 69,
        "subtype": "noteOn"
      },
      {
        "deltaTime": 79,
        "channel": 0,
        "type": "channel",
        "subtype": "noteOff",
        "noteNumber": 91,
        "velocity": 0
      },
      {
        "deltaTime": 48,
        "channel": 0,
        "type": "channel",
        "noteNumber": 96,
        "velocity": 71,
        "subtype": "noteOn"
      },
      {
        "deltaTime": 17,
        "channel": 0,
        "type": "channel",
        "subtype": "noteOff",
        "noteNumber": 96,
        "velocity": 0
      },
      {
        "deltaTime": 2,
        "channel": 0,
        "type": "channel",
        "noteNumber": 96,
        "velocity": 71,
        "subtype": "noteOn"
      },
      {
        "deltaTime": 29,
        "channel": 0,
        "type": "channel",
        "subtype": "noteOff",
        "noteNumber": 96,
        "velocity": 0
      },
      {
        "deltaTime": 10,
        "channel": 0,
        "type": "channel",
        "noteNumber": 96,
        "velocity": 95,
        "subtype": "noteOn"
      },
      {
        "deltaTime": 129,
        "channel": 0,
        "type": "channel",
        "subtype": "noteOff",
        "noteNumber": 96,
        "velocity": 0
      },
      {
        "deltaTime": 101,
        "channel": 0,
        "type": "channel",
        "noteNumber": 96,
        "velocity": 53,
        "subtype": "noteOn"
      },
      {
        "deltaTime": 26,
        "channel": 0,
        "type": "channel",
        "subtype": "noteOff",
        "noteNumber": 96,
        "velocity": 0
      },
      {
        "deltaTime": 5,
        "channel": 0,
        "type": "channel",
        "noteNumber": 96,
        "velocity": 71,
        "subtype": "noteOn"
      },
      {
        "deltaTime": 48,
        "channel": 0,
        "type": "channel",
        "subtype": "noteOff",
        "noteNumber": 96,
        "velocity": 0
      },
      {
        "deltaTime": 3,
        "channel": 0,
        "type": "channel",
        "noteNumber": 96,
        "velocity": 83,
        "subtype": "noteOn"
      },
      {
        "deltaTime": 57,
        "channel": 0,
        "type": "channel",
        "subtype": "noteOff",
        "noteNumber": 96,
        "velocity": 0
      },
      {
        "deltaTime": 3,
        "channel": 0,
        "type": "channel",
        "noteNumber": 98,
        "velocity": 106,
        "subtype": "noteOn"
      },
      {
        "deltaTime": 16,
        "channel": 0,
        "type": "channel",
        "subtype": "noteOff",
        "noteNumber": 98,
        "velocity": 0
      },
      {
        "deltaTime": 10,
        "channel": 0,
        "type": "channel",
        "noteNumber": 98,
        "velocity": 66,
        "subtype": "noteOn"
      },
      {
        "deltaTime": 50,
        "channel": 0,
        "type": "channel",
        "subtype": "noteOff",
        "noteNumber": 98,
        "velocity": 0
      },
      {
        "deltaTime": 3,
        "channel": 0,
        "type": "channel",
        "noteNumber": 96,
        "velocity": 111,
        "subtype": "noteOn"
      },
      {
        "deltaTime": 79,
        "channel": 0,
        "type": "channel",
        "subtype": "noteOff",
        "noteNumber": 96,
        "velocity": 0
      },
      {
        "deltaTime": 19,
        "channel": 0,
        "type": "channel",
        "noteNumber": 74,
        "velocity": 69,
        "subtype": "noteOn"
      },
      {
        "deltaTime": 24,
        "channel": 0,
        "type": "channel",
        "subtype": "noteOff",
        "noteNumber": 74,
        "velocity": 0
      },
      {
        "deltaTime": 5,
        "channel": 0,
        "type": "channel",
        "noteNumber": 74,
        "velocity": 75,
        "subtype": "noteOn"
      },
      {
        "deltaTime": 58,
        "channel": 0,
        "type": "channel",
        "subtype": "noteOff",
        "noteNumber": 74,
        "velocity": 0
      },
      {
        "deltaTime": 2,
        "channel": 0,
        "type": "channel",
        "noteNumber": 74,
        "velocity": 77,
        "subtype": "noteOn"
      },
      {
        "deltaTime": 154,
        "channel": 0,
        "type": "channel",
        "subtype": "noteOff",
        "noteNumber": 74,
        "velocity": 0
      },
      {
        "deltaTime": 213,
        "channel": 0,
        "type": "channel",
        "noteNumber": 100,
        "velocity": 63,
        "subtype": "noteOn"
      },
      {
        "deltaTime": 19,
        "channel": 0,
        "type": "channel",
        "subtype": "noteOff",
        "noteNumber": 100,
        "velocity": 0
      },
      {
        "deltaTime": 197,
        "channel": 0,
        "type": "channel",
        "noteNumber": 96,
        "velocity": 84,
        "subtype": "noteOn"
      },
      {
        "deltaTime": 15,
        "channel": 0,
        "type": "channel",
        "subtype": "noteOff",
        "noteNumber": 96,
        "velocity": 0
      },
      {
        "deltaTime": 4,
        "channel": 0,
        "type": "channel",
        "noteNumber": 96,
        "velocity": 84,
        "subtype": "noteOn"
      },
      {
        "deltaTime": 29,
        "channel": 0,
        "type": "channel",
        "subtype": "noteOff",
        "noteNumber": 96,
        "velocity": 0
      },
      {
        "deltaTime": 3,
        "channel": 0,
        "type": "channel",
        "noteNumber": 96,
        "velocity": 96,
        "subtype": "noteOn"
      },
      {
        "deltaTime": 60,
        "channel": 0,
        "type": "channel",
        "subtype": "noteOff",
        "noteNumber": 96,
        "velocity": 0
      },
      {
        "deltaTime": 9,
        "channel": 0,
        "type": "channel",
        "noteNumber": 96,
        "velocity": 68,
        "subtype": "noteOn"
      },
      {
        "deltaTime": 70,
        "channel": 0,
        "type": "channel",
        "subtype": "noteOff",
        "noteNumber": 96,
        "velocity": 0
      },
      {
        "deltaTime": 129,
        "channel": 0,
        "type": "channel",
        "noteNumber": 96,
        "velocity": 56,
        "subtype": "noteOn"
      },
      {
        "deltaTime": 48,
        "channel": 0,
        "type": "channel",
        "subtype": "noteOff",
        "noteNumber": 96,
        "velocity": 0
      },
      {
        "deltaTime": 3,
        "channel": 0,
        "type": "channel",
        "noteNumber": 96,
        "velocity": 80,
        "subtype": "noteOn"
      },
      {
        "deltaTime": 57,
        "channel": 0,
        "type": "channel",
        "subtype": "noteOff",
        "noteNumber": 96,
        "velocity": 0
      },
      {
        "deltaTime": 5,
        "channel": 0,
        "type": "channel",
        "noteNumber": 98,
        "velocity": 95,
        "subtype": "noteOn"
      },
      {
        "deltaTime": 19,
        "channel": 0,
        "type": "channel",
        "subtype": "noteOff",
        "noteNumber": 98,
        "velocity": 0
      },
      {
        "deltaTime": 5,
        "channel": 0,
        "type": "channel",
        "noteNumber": 98,
        "velocity": 68,
        "subtype": "noteOn"
      },
      {
        "deltaTime": 53,
        "channel": 0,
        "type": "channel",
        "subtype": "noteOff",
        "noteNumber": 98,
        "velocity": 0
      },
      {
        "deltaTime": 2,
        "channel": 0,
        "type": "channel",
        "noteNumber": 96,
        "velocity": 110,
        "subtype": "noteOn"
      },
      {
        "deltaTime": 41,
        "channel": 0,
        "type": "channel",
        "subtype": "noteOff",
        "noteNumber": 96,
        "velocity": 0
      },
      {
        "deltaTime": 58,
        "channel": 0,
        "type": "channel",
        "noteNumber": 74,
        "velocity": 59,
        "subtype": "noteOn"
      },
      {
        "deltaTime": 24,
        "channel": 0,
        "type": "channel",
        "subtype": "noteOff",
        "noteNumber": 74,
        "velocity": 0
      },
      {
        "deltaTime": 5,
        "channel": 0,
        "type": "channel",
        "noteNumber": 74,
        "velocity": 70,
        "subtype": "noteOn"
      },
      {
        "deltaTime": 57,
        "channel": 0,
        "type": "channel",
        "subtype": "noteOff",
        "noteNumber": 74,
        "velocity": 0
      },
      {
        "deltaTime": 3,
        "channel": 0,
        "type": "channel",
        "noteNumber": 74,
        "velocity": 90,
        "subtype": "noteOn"
      },
      {
        "deltaTime": 139,
        "channel": 0,
        "type": "channel",
        "subtype": "noteOff",
        "noteNumber": 74,
        "velocity": 0
      },
      {
        "deltaTime": 105,
        "channel": 0,
        "type": "channel",
        "noteNumber": 88,
        "velocity": 63,
        "subtype": "noteOn"
      },
      {
        "deltaTime": 164,
        "channel": 0,
        "type": "channel",
        "subtype": "noteOff",
        "noteNumber": 88,
        "velocity": 0
      },
      {
        "deltaTime": 14,
        "channel": 0,
        "type": "channel",
        "noteNumber": 88,
        "velocity": 54,
        "subtype": "noteOn"
      },
      {
        "deltaTime": 106,
        "channel": 0,
        "type": "channel",
        "subtype": "noteOff",
        "noteNumber": 88,
        "velocity": 0
      },
      {
        "deltaTime": 50,
        "channel": 0,
        "type": "channel",
        "noteNumber": 96,
        "velocity": 79,
        "subtype": "noteOn"
      },
      {
        "deltaTime": 190,
        "channel": 0,
        "type": "channel",
        "subtype": "noteOff",
        "noteNumber": 96,
        "velocity": 0
      },
      {
        "deltaTime": 134,
        "channel": 0,
        "type": "channel",
        "noteNumber": 96,
        "velocity": 88,
        "subtype": "noteOn"
      },
      {
        "deltaTime": 103,
        "channel": 0,
        "type": "channel",
        "subtype": "noteOff",
        "noteNumber": 96,
        "velocity": 0
      },
      {
        "deltaTime": 3,
        "channel": 0,
        "type": "channel",
        "noteNumber": 86,
        "velocity": 60,
        "subtype": "noteOn"
      },
      {
        "deltaTime": 81,
        "channel": 0,
        "type": "channel",
        "subtype": "noteOff",
        "noteNumber": 86,
        "velocity": 0
      },
      {
        "deltaTime": 29,
        "channel": 0,
        "type": "channel",
        "noteNumber": 105,
        "velocity": 51,
        "subtype": "noteOn"
      },
      {
        "deltaTime": 19,
        "channel": 0,
        "type": "channel",
        "subtype": "noteOff",
        "noteNumber": 105,
        "velocity": 0
      },
      {
        "deltaTime": 58,
        "channel": 0,
        "type": "channel",
        "noteNumber": 74,
        "velocity": 70,
        "subtype": "noteOn"
      },
      {
        "deltaTime": 24,
        "channel": 0,
        "type": "channel",
        "subtype": "noteOff",
        "noteNumber": 74,
        "velocity": 0
      },
      {
        "deltaTime": 2,
        "channel": 0,
        "type": "channel",
        "noteNumber": 74,
        "velocity": 78,
        "subtype": "noteOn"
      },
      {
        "deltaTime": 214,
        "channel": 0,
        "type": "channel",
        "subtype": "noteOff",
        "noteNumber": 74,
        "velocity": 0
      },
      {
        "deltaTime": 177,
        "channel": 0,
        "type": "channel",
        "noteNumber": 91,
        "velocity": 66,
        "subtype": "noteOn"
      },
      {
        "deltaTime": 118,
        "channel": 0,
        "type": "channel",
        "subtype": "noteOff",
        "noteNumber": 91,
        "velocity": 0
      },
      {
        "deltaTime": 139,
        "channel": 0,
        "type": "channel",
        "noteNumber": 74,
        "velocity": 69,
        "subtype": "noteOn"
      },
      {
        "deltaTime": 154,
        "channel": 0,
        "type": "channel",
        "subtype": "noteOff",
        "noteNumber": 74,
        "velocity": 0
      },
      {
        "deltaTime": 192,
        "channel": 0,
        "type": "channel",
        "noteNumber": 86,
        "velocity": 62,
        "subtype": "noteOn"
      },
      {
        "deltaTime": 21,
        "channel": 0,
        "type": "channel",
        "subtype": "noteOff",
        "noteNumber": 86,
        "velocity": 0
      },
      {
        "deltaTime": 58,
        "channel": 0,
        "type": "channel",
        "noteNumber": 98,
        "velocity": 102,
        "subtype": "noteOn"
      },
      {
        "deltaTime": 17,
        "channel": 0,
        "type": "channel",
        "subtype": "noteOff",
        "noteNumber": 98,
        "velocity": 0
      },
      {
        "deltaTime": 7,
        "channel": 0,
        "type": "channel",
        "noteNumber": 98,
        "velocity": 78,
        "subtype": "noteOn"
      },
      {
        "deltaTime": 34,
        "channel": 0,
        "type": "channel",
        "subtype": "noteOff",
        "noteNumber": 98,
        "velocity": 0
      },
      {
        "deltaTime": 0,
        "channel": 0,
        "type": "channel",
        "noteNumber": 86,
        "velocity": 43,
        "subtype": "noteOn"
      },
      {
        "deltaTime": 21,
        "channel": 0,
        "type": "channel",
        "subtype": "noteOff",
        "noteNumber": 86,
        "velocity": 0
      },
      {
        "deltaTime": 0,
        "channel": 0,
        "type": "channel",
        "noteNumber": 96,
        "velocity": 110,
        "subtype": "noteOn"
      },
      {
        "deltaTime": 75,
        "channel": 0,
        "type": "channel",
        "subtype": "noteOff",
        "noteNumber": 96,
        "velocity": 0
      },
      {
        "deltaTime": 31,
        "channel": 0,
        "type": "channel",
        "noteNumber": 74,
        "velocity": 66,
        "subtype": "noteOn"
      },
      {
        "deltaTime": 77,
        "channel": 0,
        "type": "channel",
        "subtype": "noteOff",
        "noteNumber": 74,
        "velocity": 0
      },
      {
        "deltaTime": 4,
        "channel": 0,
        "type": "channel",
        "noteNumber": 74,
        "velocity": 91,
        "subtype": "noteOn"
      },
      {
        "deltaTime": 65,
        "channel": 0,
        "type": "channel",
        "subtype": "noteOff",
        "noteNumber": 74,
        "velocity": 0
      },
      {
        "deltaTime": 3,
        "channel": 0,
        "type": "channel",
        "noteNumber": 74,
        "velocity": 78,
        "subtype": "noteOn"
      },
      {
        "deltaTime": 79,
        "channel": 0,
        "type": "channel",
        "subtype": "noteOff",
        "noteNumber": 74,
        "velocity": 0
      },
      {
        "deltaTime": 216,
        "channel": 0,
        "type": "channel",
        "noteNumber": 100,
        "velocity": 60,
        "subtype": "noteOn"
      },
      {
        "deltaTime": 9,
        "channel": 0,
        "type": "channel",
        "subtype": "noteOff",
        "noteNumber": 100,
        "velocity": 0
      },
      {
        "deltaTime": 82,
        "channel": 0,
        "type": "channel",
        "noteNumber": 91,
        "velocity": 68,
        "subtype": "noteOn"
      },
      {
        "deltaTime": 79,
        "channel": 0,
        "type": "channel",
        "subtype": "noteOff",
        "noteNumber": 91,
        "velocity": 0
      },
      {
        "deltaTime": 48,
        "channel": 0,
        "type": "channel",
        "noteNumber": 96,
        "velocity": 66,
        "subtype": "noteOn"
      },
      {
        "deltaTime": 17,
        "channel": 0,
        "type": "channel",
        "subtype": "noteOff",
        "noteNumber": 96,
        "velocity": 0
      },
      {
        "deltaTime": 2,
        "channel": 0,
        "type": "channel",
        "noteNumber": 96,
        "velocity": 66,
        "subtype": "noteOn"
      },
      {
        "deltaTime": 29,
        "channel": 0,
        "type": "channel",
        "subtype": "noteOff",
        "noteNumber": 96,
        "velocity": 0
      },
      {
        "deltaTime": 3,
        "channel": 0,
        "type": "channel",
        "noteNumber": 96,
        "velocity": 94,
        "subtype": "noteOn"
      },
      {
        "deltaTime": 139,
        "channel": 0,
        "type": "channel",
        "subtype": "noteOff",
        "noteNumber": 96,
        "velocity": 0
      },
      {
        "deltaTime": 96,
        "channel": 0,
        "type": "channel",
        "noteNumber": 96,
        "velocity": 61,
        "subtype": "noteOn"
      },
      {
        "deltaTime": 134,
        "channel": 0,
        "type": "channel",
        "subtype": "noteOff",
        "noteNumber": 96,
        "velocity": 0
      },
      {
        "deltaTime": 10,
        "channel": 0,
        "type": "channel",
        "noteNumber": 98,
        "velocity": 102,
        "subtype": "noteOn"
      },
      {
        "deltaTime": 19,
        "channel": 0,
        "type": "channel",
        "subtype": "noteOff",
        "noteNumber": 98,
        "velocity": 0
      },
      {
        "deltaTime": 7,
        "channel": 0,
        "type": "channel",
        "noteNumber": 98,
        "velocity": 65,
        "subtype": "noteOn"
      },
      {
        "deltaTime": 51,
        "channel": 0,
        "type": "channel",
        "subtype": "noteOff",
        "noteNumber": 98,
        "velocity": 0
      },
      {
        "deltaTime": 4,
        "channel": 0,
        "type": "channel",
        "noteNumber": 96,
        "velocity": 106,
        "subtype": "noteOn"
      },
      {
        "deltaTime": 53,
        "channel": 0,
        "type": "channel",
        "subtype": "noteOff",
        "noteNumber": 96,
        "velocity": 0
      },
      {
        "deltaTime": 46,
        "channel": 0,
        "type": "channel",
        "noteNumber": 74,
        "velocity": 68,
        "subtype": "noteOn"
      },
      {
        "deltaTime": 84,
        "channel": 0,
        "type": "channel",
        "subtype": "noteOff",
        "noteNumber": 74,
        "velocity": 0
      },
      {
        "deltaTime": 5,
        "channel": 0,
        "type": "channel",
        "noteNumber": 74,
        "velocity": 75,
        "subtype": "noteOn"
      },
      {
        "deltaTime": 122,
        "channel": 0,
        "type": "channel",
        "subtype": "noteOff",
        "noteNumber": 74,
        "velocity": 0
      },
      {
        "deltaTime": 12,
        "channel": 0,
        "type": "channel",
        "noteNumber": 91,
        "velocity": 69,
        "subtype": "noteOn"
      },
      {
        "deltaTime": 79,
        "channel": 0,
        "type": "channel",
        "subtype": "noteOff",
        "noteNumber": 91,
        "velocity": 0
      },
      {
        "deltaTime": 353,
        "channel": 0,
        "type": "channel",
        "noteNumber": 38,
        "velocity": 69,
        "subtype": "noteOn"
      },
      {
        "deltaTime": 413,
        "channel": 0,
        "type": "channel",
        "subtype": "noteOff",
        "noteNumber": 38,
        "velocity": 0
      },
      {
        "deltaTime": 29,
        "channel": 0,
        "type": "channel",
        "noteNumber": 98,
        "velocity": 111,
        "subtype": "noteOn"
      },
      {
        "deltaTime": 24,
        "channel": 0,
        "type": "channel",
        "subtype": "noteOff",
        "noteNumber": 98,
        "velocity": 0
      },
      {
        "deltaTime": 4,
        "channel": 0,
        "type": "channel",
        "noteNumber": 98,
        "velocity": 65,
        "subtype": "noteOn"
      },
      {
        "deltaTime": 44,
        "channel": 0,
        "type": "channel",
        "subtype": "noteOff",
        "noteNumber": 98,
        "velocity": 0
      },
      {
        "deltaTime": 7,
        "channel": 0,
        "type": "channel",
        "noteNumber": 96,
        "velocity": 105,
        "subtype": "noteOn"
      },
      {
        "deltaTime": 62,
        "channel": 0,
        "type": "channel",
        "subtype": "noteOff",
        "noteNumber": 96,
        "velocity": 0
      },
      {
        "deltaTime": 51,
        "channel": 0,
        "type": "channel",
        "noteNumber": 74,
        "velocity": 75,
        "subtype": "noteOn"
      },
      {
        "deltaTime": 57,
        "channel": 0,
        "type": "channel",
        "subtype": "noteOff",
        "noteNumber": 74,
        "velocity": 0
      },
      {
        "deltaTime": 3,
        "channel": 0,
        "type": "channel",
        "noteNumber": 74,
        "velocity": 77,
        "subtype": "noteOn"
      },
      {
        "deltaTime": 120,
        "channel": 0,
        "type": "channel",
        "subtype": "noteOff",
        "noteNumber": 74,
        "velocity": 0
      },
      {
        "deltaTime": 170,
        "channel": 0,
        "type": "channel",
        "noteNumber": 88,
        "velocity": 65,
        "subtype": "noteOn"
      },
      {
        "deltaTime": 254,
        "channel": 0,
        "type": "channel",
        "subtype": "noteOff",
        "noteNumber": 88,
        "velocity": 0
      },
      {
        "deltaTime": 8,
        "channel": 0,
        "type": "channel",
        "noteNumber": 89,
        "velocity": 69,
        "subtype": "noteOn"
      },
      {
        "deltaTime": 79,
        "channel": 0,
        "type": "channel",
        "subtype": "noteOff",
        "noteNumber": 89,
        "velocity": 0
      },
      {
        "deltaTime": 9,
        "channel": 0,
        "type": "channel",
        "noteNumber": 96,
        "velocity": 96,
        "subtype": "noteOn"
      },
      {
        "deltaTime": 77,
        "channel": 0,
        "type": "channel",
        "subtype": "noteOff",
        "noteNumber": 96,
        "velocity": 0
      },
      {
        "deltaTime": 10,
        "channel": 0,
        "type": "channel",
        "noteNumber": 96,
        "velocity": 59,
        "subtype": "noteOn"
      },
      {
        "deltaTime": 57,
        "channel": 0,
        "type": "channel",
        "subtype": "noteOff",
        "noteNumber": 96,
        "velocity": 0
      },
      {
        "deltaTime": 87,
        "channel": 0,
        "type": "channel",
        "noteNumber": 96,
        "velocity": 58,
        "subtype": "noteOn"
      },
      {
        "deltaTime": 17,
        "channel": 0,
        "type": "channel",
        "subtype": "noteOff",
        "noteNumber": 96,
        "velocity": 0
      },
      {
        "deltaTime": 4,
        "channel": 0,
        "type": "channel",
        "noteNumber": 96,
        "velocity": 64,
        "subtype": "noteOn"
      },
      {
        "deltaTime": 58,
        "channel": 0,
        "type": "channel",
        "subtype": "noteOff",
        "noteNumber": 96,
        "velocity": 0
      },
      {
        "deltaTime": 10,
        "channel": 0,
        "type": "channel",
        "noteNumber": 96,
        "velocity": 98,
        "subtype": "noteOn"
      },
      {
        "deltaTime": 50,
        "channel": 0,
        "type": "channel",
        "subtype": "noteOff",
        "noteNumber": 96,
        "velocity": 0
      },
      {
        "deltaTime": 2,
        "channel": 0,
        "type": "channel",
        "noteNumber": 96,
        "velocity": 71,
        "subtype": "noteOn"
      },
      {
        "deltaTime": 24,
        "channel": 0,
        "type": "channel",
        "subtype": "noteOff",
        "noteNumber": 96,
        "velocity": 0
      },
      {
        "deltaTime": 77,
        "channel": 0,
        "type": "channel",
        "noteNumber": 88,
        "velocity": 49,
        "subtype": "noteOn"
      },
      {
        "deltaTime": 77,
        "channel": 0,
        "type": "channel",
        "subtype": "noteOff",
        "noteNumber": 88,
        "velocity": 0
      },
      {
        "deltaTime": 158,
        "channel": 0,
        "type": "channel",
        "noteNumber": 86,
        "velocity": 74,
        "subtype": "noteOn"
      },
      {
        "deltaTime": 48,
        "channel": 0,
        "type": "channel",
        "subtype": "noteOff",
        "noteNumber": 86,
        "velocity": 0
      },
      {
        "deltaTime": 236,
        "channel": 0,
        "type": "channel",
        "noteNumber": 91,
        "velocity": 66,
        "subtype": "noteOn"
      },
      {
        "deltaTime": 117,
        "channel": 0,
        "type": "channel",
        "subtype": "noteOff",
        "noteNumber": 91,
        "velocity": 0
      },
      {
        "deltaTime": 139,
        "channel": 0,
        "type": "channel",
        "noteNumber": 74,
        "velocity": 78,
        "subtype": "noteOn"
      },
      {
        "deltaTime": 46,
        "channel": 0,
        "type": "channel",
        "subtype": "noteOff",
        "noteNumber": 74,
        "velocity": 0
      },
      {
        "deltaTime": 2,
        "channel": 0,
        "type": "channel",
        "noteNumber": 74,
        "velocity": 84,
        "subtype": "noteOn"
      },
      {
        "deltaTime": 375,
        "channel": 0,
        "type": "channel",
        "subtype": "noteOff",
        "noteNumber": 74,
        "velocity": 0
      },
      {
        "deltaTime": 5,
        "channel": 0,
        "type": "channel",
        "noteNumber": 86,
        "velocity": 74,
        "subtype": "noteOn"
      },
      {
        "deltaTime": 33,
        "channel": 0,
        "type": "channel",
        "subtype": "noteOff",
        "noteNumber": 86,
        "velocity": 0
      },
      {
        "deltaTime": 207,
        "channel": 0,
        "type": "channel",
        "noteNumber": 89,
        "velocity": 68,
        "subtype": "noteOn"
      },
      {
        "deltaTime": 38,
        "channel": 0,
        "type": "channel",
        "subtype": "noteOff",
        "noteNumber": 89,
        "velocity": 0
      },
      {
        "deltaTime": 118,
        "channel": 0,
        "type": "channel",
        "noteNumber": 99,
        "velocity": 112,
        "subtype": "noteOn"
      },
      {
        "deltaTime": 76,
        "channel": 0,
        "type": "channel",
        "subtype": "noteOff",
        "noteNumber": 99,
        "velocity": 0
      },
      {
        "deltaTime": 3,
        "channel": 0,
        "type": "channel",
        "noteNumber": 96,
        "velocity": 105,
        "subtype": "noteOn"
      },
      {
        "deltaTime": 79,
        "channel": 0,
        "type": "channel",
        "subtype": "noteOff",
        "noteNumber": 96,
        "velocity": 0
      },
      {
        "deltaTime": 2,
        "channel": 0,
        "type": "channel",
        "noteNumber": 96,
        "velocity": 86,
        "subtype": "noteOn"
      },
      {
        "deltaTime": 29,
        "channel": 0,
        "type": "channel",
        "subtype": "noteOff",
        "noteNumber": 96,
        "velocity": 0
      },
      {
        "deltaTime": 3,
        "channel": 0,
        "type": "channel",
        "noteNumber": 96,
        "velocity": 100,
        "subtype": "noteOn"
      },
      {
        "deltaTime": 50,
        "channel": 0,
        "type": "channel",
        "subtype": "noteOff",
        "noteNumber": 96,
        "velocity": 0
      },
      {
        "deltaTime": 10,
        "channel": 0,
        "type": "channel",
        "noteNumber": 96,
        "velocity": 71,
        "subtype": "noteOn"
      },
      {
        "deltaTime": 64,
        "channel": 0,
        "type": "channel",
        "subtype": "noteOff",
        "noteNumber": 96,
        "velocity": 0
      },
      {
        "deltaTime": 5,
        "channel": 0,
        "type": "channel",
        "noteNumber": 94,
        "velocity": 48,
        "subtype": "noteOn"
      },
      {
        "deltaTime": 55,
        "channel": 0,
        "type": "channel",
        "subtype": "noteOff",
        "noteNumber": 94,
        "velocity": 0
      },
      {
        "deltaTime": 24,
        "channel": 0,
        "type": "channel",
        "noteNumber": 96,
        "velocity": 113,
        "subtype": "noteOn"
      },
      {
        "deltaTime": 51,
        "channel": 0,
        "type": "channel",
        "subtype": "noteOff",
        "noteNumber": 96,
        "velocity": 0
      },
      {
        "deltaTime": 7,
        "channel": 0,
        "type": "channel",
        "noteNumber": 98,
        "velocity": 66,
        "subtype": "noteOn"
      },
      {
        "deltaTime": 36,
        "channel": 0,
        "type": "channel",
        "subtype": "noteOff",
        "noteNumber": 98,
        "velocity": 0
      },
      {
        "deltaTime": 17,
        "channel": 0,
        "type": "channel",
        "noteNumber": 98,
        "velocity": 94,
        "subtype": "noteOn"
      },
      {
        "deltaTime": 132,
        "channel": 0,
        "type": "channel",
        "subtype": "noteOff",
        "noteNumber": 98,
        "velocity": 0
      },
      {
        "deltaTime": 62,
        "channel": 0,
        "type": "channel",
        "noteNumber": 98,
        "velocity": 45,
        "subtype": "noteOn"
      },
      {
        "deltaTime": 12,
        "channel": 0,
        "type": "channel",
        "subtype": "noteOff",
        "noteNumber": 98,
        "velocity": 0
      },
      {
        "deltaTime": 5,
        "channel": 0,
        "type": "channel",
        "noteNumber": 96,
        "velocity": 104,
        "subtype": "noteOn"
      },
      {
        "deltaTime": 50,
        "channel": 0,
        "type": "channel",
        "subtype": "noteOff",
        "noteNumber": 96,
        "velocity": 0
      },
      {
        "deltaTime": 46,
        "channel": 0,
        "type": "channel",
        "noteNumber": 99,
        "velocity": 91,
        "subtype": "noteOn"
      },
      {
        "deltaTime": 72,
        "channel": 0,
        "type": "channel",
        "subtype": "noteOff",
        "noteNumber": 99,
        "velocity": 0
      },
      {
        "deltaTime": 247,
        "channel": 0,
        "type": "channel",
        "noteNumber": 99,
        "velocity": 92,
        "subtype": "noteOn"
      },
      {
        "deltaTime": 60,
        "channel": 0,
        "type": "channel",
        "subtype": "noteOff",
        "noteNumber": 99,
        "velocity": 0
      },
      {
        "deltaTime": 82,
        "channel": 0,
        "type": "channel",
        "noteNumber": 99,
        "velocity": 109,
        "subtype": "noteOn"
      },
      {
        "deltaTime": 77,
        "channel": 0,
        "type": "channel",
        "subtype": "noteOff",
        "noteNumber": 99,
        "velocity": 0
      },
      {
        "deltaTime": 4,
        "channel": 0,
        "type": "channel",
        "noteNumber": 96,
        "velocity": 113,
        "subtype": "noteOn"
      },
      {
        "deltaTime": 75,
        "channel": 0,
        "type": "channel",
        "subtype": "noteOff",
        "noteNumber": 96,
        "velocity": 0
      },
      {
        "deltaTime": 5,
        "channel": 0,
        "type": "channel",
        "noteNumber": 96,
        "velocity": 98,
        "subtype": "noteOn"
      },
      {
        "deltaTime": 81,
        "channel": 0,
        "type": "channel",
        "subtype": "noteOff",
        "noteNumber": 96,
        "velocity": 0
      },
      {
        "deltaTime": 154,
        "channel": 0,
        "type": "channel",
        "noteNumber": 96,
        "velocity": 118,
        "subtype": "noteOn"
      },
      {
        "deltaTime": 53,
        "channel": 0,
        "type": "channel",
        "subtype": "noteOff",
        "noteNumber": 96,
        "velocity": 0
      },
      {
        "deltaTime": 57,
        "channel": 0,
        "type": "channel",
        "noteNumber": 98,
        "velocity": 88,
        "subtype": "noteOn"
      },
      {
        "deltaTime": 31,
        "channel": 0,
        "type": "channel",
        "subtype": "noteOff",
        "noteNumber": 98,
        "velocity": 0
      },
      {
        "deltaTime": 3,
        "channel": 0,
        "type": "channel",
        "noteNumber": 98,
        "velocity": 93,
        "subtype": "noteOn"
      },
      {
        "deltaTime": 62,
        "channel": 0,
        "type": "channel",
        "subtype": "noteOff",
        "noteNumber": 98,
        "velocity": 0
      },
      {
        "deltaTime": 3,
        "channel": 0,
        "type": "channel",
        "noteNumber": 98,
        "velocity": 78,
        "subtype": "noteOn"
      },
      {
        "deltaTime": 33,
        "channel": 0,
        "type": "channel",
        "subtype": "noteOff",
        "noteNumber": 98,
        "velocity": 0
      },
      {
        "deltaTime": 5,
        "channel": 0,
        "type": "channel",
        "noteNumber": 97,
        "velocity": 115,
        "subtype": "noteOn"
      },
      {
        "deltaTime": 48,
        "channel": 0,
        "type": "channel",
        "subtype": "noteOff",
        "noteNumber": 97,
        "velocity": 0
      },
      {
        "deltaTime": 31,
        "channel": 0,
        "type": "channel",
        "noteNumber": 96,
        "velocity": 105,
        "subtype": "noteOn"
      },
      {
        "deltaTime": 48,
        "channel": 0,
        "type": "channel",
        "subtype": "noteOff",
        "noteNumber": 96,
        "velocity": 0
      },
      {
        "deltaTime": 48,
        "channel": 0,
        "type": "channel",
        "noteNumber": 99,
        "velocity": 93,
        "subtype": "noteOn"
      },
      {
        "deltaTime": 60,
        "channel": 0,
        "type": "channel",
        "subtype": "noteOff",
        "noteNumber": 99,
        "velocity": 0
      },
      {
        "deltaTime": 19,
        "channel": 0,
        "type": "channel",
        "noteNumber": 99,
        "velocity": 77,
        "subtype": "noteOn"
      },
      {
        "deltaTime": 20,
        "channel": 0,
        "type": "channel",
        "subtype": "noteOff",
        "noteNumber": 99,
        "velocity": 0
      },
      {
        "deltaTime": 220,
        "channel": 0,
        "type": "channel",
        "noteNumber": 99,
        "velocity": 92,
        "subtype": "noteOn"
      },
      {
        "deltaTime": 63,
        "channel": 0,
        "type": "channel",
        "subtype": "noteOff",
        "noteNumber": 99,
        "velocity": 0
      },
      {
        "deltaTime": 81,
        "channel": 0,
        "type": "channel",
        "noteNumber": 99,
        "velocity": 109,
        "subtype": "noteOn"
      },
      {
        "deltaTime": 20,
        "channel": 0,
        "type": "channel",
        "subtype": "noteOff",
        "noteNumber": 99,
        "velocity": 0
      },
      {
        "deltaTime": 19,
        "channel": 0,
        "type": "channel",
        "noteNumber": 98,
        "velocity": 86,
        "subtype": "noteOn"
      },
      {
        "deltaTime": 17,
        "channel": 0,
        "type": "channel",
        "subtype": "noteOff",
        "noteNumber": 98,
        "velocity": 0
      },
      {
        "deltaTime": 9,
        "channel": 0,
        "type": "channel",
        "noteNumber": 98,
        "velocity": 85,
        "subtype": "noteOn"
      },
      {
        "deltaTime": 15,
        "channel": 0,
        "type": "channel",
        "subtype": "noteOff",
        "noteNumber": 98,
        "velocity": 0
      },
      {
        "deltaTime": 0,
        "channel": 0,
        "type": "channel",
        "noteNumber": 96,
        "velocity": 107,
        "subtype": "noteOn"
      },
      {
        "deltaTime": 76,
        "channel": 0,
        "type": "channel",
        "subtype": "noteOff",
        "noteNumber": 96,
        "velocity": 0
      },
      {
        "deltaTime": 5,
        "channel": 0,
        "type": "channel",
        "noteNumber": 96,
        "velocity": 98,
        "subtype": "noteOn"
      },
      {
        "deltaTime": 84,
        "channel": 0,
        "type": "channel",
        "subtype": "noteOff",
        "noteNumber": 96,
        "velocity": 0
      },
      {
        "deltaTime": 10,
        "channel": 0,
        "type": "channel",
        "noteNumber": 96,
        "velocity": 59,
        "subtype": "noteOn"
      },
      {
        "deltaTime": 65,
        "channel": 0,
        "type": "channel",
        "subtype": "noteOff",
        "noteNumber": 96,
        "velocity": 0
      },
      {
        "deltaTime": 36,
        "channel": 0,
        "type": "channel",
        "noteNumber": 96,
        "velocity": 108,
        "subtype": "noteOn"
      },
      {
        "deltaTime": 43,
        "channel": 0,
        "type": "channel",
        "subtype": "noteOff",
        "noteNumber": 96,
        "velocity": 0
      },
      {
        "deltaTime": 55,
        "channel": 0,
        "type": "channel",
        "noteNumber": 98,
        "velocity": 66,
        "subtype": "noteOn"
      },
      {
        "deltaTime": 41,
        "channel": 0,
        "type": "channel",
        "subtype": "noteOff",
        "noteNumber": 98,
        "velocity": 0
      },
      {
        "deltaTime": 9,
        "channel": 0,
        "type": "channel",
        "noteNumber": 98,
        "velocity": 94,
        "subtype": "noteOn"
      },
      {
        "deltaTime": 92,
        "channel": 0,
        "type": "channel",
        "subtype": "noteOff",
        "noteNumber": 98,
        "velocity": 0
      },
      {
        "deltaTime": 24,
        "channel": 0,
        "type": "channel",
        "noteNumber": 91,
        "velocity": 66,
        "subtype": "noteOn"
      },
      {
        "deltaTime": 96,
        "channel": 0,
        "type": "channel",
        "subtype": "noteOff",
        "noteNumber": 91,
        "velocity": 0
      },
      {
        "deltaTime": 100,
        "channel": 0,
        "type": "channel",
        "noteNumber": 99,
        "velocity": 91,
        "subtype": "noteOn"
      },
      {
        "deltaTime": 72,
        "channel": 0,
        "type": "channel",
        "subtype": "noteOff",
        "noteNumber": 99,
        "velocity": 0
      },
      {
        "deltaTime": 190,
        "channel": 0,
        "type": "channel",
        "noteNumber": 99,
        "velocity": 71,
        "subtype": "noteOn"
      },
      {
        "deltaTime": 48,
        "channel": 0,
        "type": "channel",
        "subtype": "noteOff",
        "noteNumber": 99,
        "velocity": 0
      },
      {
        "deltaTime": 12,
        "channel": 0,
        "type": "channel",
        "noteNumber": 99,
        "velocity": 96,
        "subtype": "noteOn"
      },
      {
        "deltaTime": 65,
        "channel": 0,
        "type": "channel",
        "subtype": "noteOff",
        "noteNumber": 99,
        "velocity": 0
      },
      {
        "deltaTime": 41,
        "channel": 0,
        "type": "channel",
        "noteNumber": 96,
        "velocity": 64,
        "subtype": "noteOn"
      },
      {
        "deltaTime": 19,
        "channel": 0,
        "type": "channel",
        "subtype": "noteOff",
        "noteNumber": 96,
        "velocity": 0
      },
      {
        "deltaTime": 19,
        "channel": 0,
        "type": "channel",
        "noteNumber": 91,
        "velocity": 74,
        "subtype": "noteOn"
      },
      {
        "deltaTime": 77,
        "channel": 0,
        "type": "channel",
        "subtype": "noteOff",
        "noteNumber": 91,
        "velocity": 0
      },
      {
        "deltaTime": 69,
        "channel": 0,
        "type": "channel",
        "noteNumber": 96,
        "velocity": 86,
        "subtype": "noteOn"
      },
      {
        "deltaTime": 29,
        "channel": 0,
        "type": "channel",
        "subtype": "noteOff",
        "noteNumber": 96,
        "velocity": 0
      },
      {
        "deltaTime": 3,
        "channel": 0,
        "type": "channel",
        "noteNumber": 96,
        "velocity": 94,
        "subtype": "noteOn"
      },
      {
        "deltaTime": 62,
        "channel": 0,
        "type": "channel",
        "subtype": "noteOff",
        "noteNumber": 96,
        "velocity": 0
      },
      {
        "deltaTime": 77,
        "channel": 0,
        "type": "channel",
        "noteNumber": 97,
        "velocity": 111,
        "subtype": "noteOn"
      },
      {
        "deltaTime": 48,
        "channel": 0,
        "type": "channel",
        "subtype": "noteOff",
        "noteNumber": 97,
        "velocity": 0
      },
      {
        "deltaTime": 33,
        "channel": 0,
        "type": "channel",
        "noteNumber": 96,
        "velocity": 115,
        "subtype": "noteOn"
      },
      {
        "deltaTime": 51,
        "channel": 0,
        "type": "channel",
        "subtype": "noteOff",
        "noteNumber": 96,
        "velocity": 0
      },
      {
        "deltaTime": 7,
        "channel": 0,
        "type": "channel",
        "noteNumber": 98,
        "velocity": 70,
        "subtype": "noteOn"
      },
      {
        "deltaTime": 34,
        "channel": 0,
        "type": "channel",
        "subtype": "noteOff",
        "noteNumber": 98,
        "velocity": 0
      },
      {
        "deltaTime": 2,
        "channel": 0,
        "type": "channel",
        "noteNumber": 98,
        "velocity": 81,
        "subtype": "noteOn"
      },
      {
        "deltaTime": 41,
        "channel": 0,
        "type": "channel",
        "subtype": "noteOff",
        "noteNumber": 98,
        "velocity": 0
      },
      {
        "deltaTime": 2,
        "channel": 0,
        "type": "channel",
        "noteNumber": 98,
        "velocity": 79,
        "subtype": "noteOn"
      },
      {
        "deltaTime": 99,
        "channel": 0,
        "type": "channel",
        "subtype": "noteOff",
        "noteNumber": 98,
        "velocity": 0
      },
      {
        "deltaTime": 4,
        "channel": 0,
        "type": "channel",
        "noteNumber": 96,
        "velocity": 112,
        "subtype": "noteOn"
      },
      {
        "deltaTime": 75,
        "channel": 0,
        "type": "channel",
        "subtype": "noteOff",
        "noteNumber": 96,
        "velocity": 0
      },
      {
        "deltaTime": 24,
        "channel": 0,
        "type": "channel",
        "noteNumber": 96,
        "velocity": 65,
        "subtype": "noteOn"
      },
      {
        "deltaTime": 9,
        "channel": 0,
        "type": "channel",
        "subtype": "noteOff",
        "noteNumber": 96,
        "velocity": 0
      },
      {
        "deltaTime": 3,
        "channel": 0,
        "type": "channel",
        "noteNumber": 96,
        "velocity": 77,
        "subtype": "noteOn"
      },
      {
        "deltaTime": 110,
        "channel": 0,
        "type": "channel",
        "subtype": "noteOff",
        "noteNumber": 96,
        "velocity": 0
      },
      {
        "deltaTime": 324,
        "channel": 0,
        "type": "channel",
        "noteNumber": 89,
        "velocity": 85,
        "subtype": "noteOn"
      },
      {
        "deltaTime": 79,
        "channel": 0,
        "type": "channel",
        "subtype": "noteOff",
        "noteNumber": 89,
        "velocity": 0
      },
      {
        "deltaTime": 17,
        "channel": 0,
        "type": "channel",
        "noteNumber": 99,
        "velocity": 115,
        "subtype": "noteOn"
      },
      {
        "deltaTime": 51,
        "channel": 0,
        "type": "channel",
        "subtype": "noteOff",
        "noteNumber": 99,
        "velocity": 0
      },
      {
        "deltaTime": 28,
        "channel": 0,
        "type": "channel",
        "noteNumber": 96,
        "velocity": 105,
        "subtype": "noteOn"
      },
      {
        "deltaTime": 75,
        "channel": 0,
        "type": "channel",
        "subtype": "noteOff",
        "noteNumber": 96,
        "velocity": 0
      },
      {
        "deltaTime": 5,
        "channel": 0,
        "type": "channel",
        "noteNumber": 96,
        "velocity": 98,
        "subtype": "noteOn"
      },
      {
        "deltaTime": 156,
        "channel": 0,
        "type": "channel",
        "subtype": "noteOff",
        "noteNumber": 96,
        "velocity": 0
      },
      {
        "deltaTime": 79,
        "channel": 0,
        "type": "channel",
        "noteNumber": 96,
        "velocity": 114,
        "subtype": "noteOn"
      },
      {
        "deltaTime": 53,
        "channel": 0,
        "type": "channel",
        "subtype": "noteOff",
        "noteNumber": 96,
        "velocity": 0
      },
      {
        "deltaTime": 4,
        "channel": 0,
        "type": "channel",
        "noteNumber": 98,
        "velocity": 67,
        "subtype": "noteOn"
      },
      {
        "deltaTime": 41,
        "channel": 0,
        "type": "channel",
        "subtype": "noteOff",
        "noteNumber": 98,
        "velocity": 0
      },
      {
        "deltaTime": 12,
        "channel": 0,
        "type": "channel",
        "noteNumber": 98,
        "velocity": 95,
        "subtype": "noteOn"
      },
      {
        "deltaTime": 139,
        "channel": 0,
        "type": "channel",
        "subtype": "noteOff",
        "noteNumber": 98,
        "velocity": 0
      },
      {
        "deltaTime": 77,
        "channel": 0,
        "type": "channel",
        "noteNumber": 96,
        "velocity": 107,
        "subtype": "noteOn"
      },
      {
        "deltaTime": 53,
        "channel": 0,
        "type": "channel",
        "subtype": "noteOff",
        "noteNumber": 96,
        "velocity": 0
      },
      {
        "deltaTime": 43,
        "channel": 0,
        "type": "channel",
        "noteNumber": 99,
        "velocity": 93,
        "subtype": "noteOn"
      },
      {
        "deltaTime": 72,
        "channel": 0,
        "type": "channel",
        "subtype": "noteOff",
        "noteNumber": 99,
        "velocity": 0
      },
      {
        "deltaTime": 10,
        "channel": 0,
        "type": "channel",
        "noteNumber": 99,
        "velocity": 78,
        "subtype": "noteOn"
      },
      {
        "deltaTime": 17,
        "channel": 0,
        "type": "channel",
        "subtype": "noteOff",
        "noteNumber": 99,
        "velocity": 0
      },
      {
        "deltaTime": 220,
        "channel": 0,
        "type": "channel",
        "noteNumber": 99,
        "velocity": 91,
        "subtype": "noteOn"
      },
      {
        "deltaTime": 60,
        "channel": 0,
        "type": "channel",
        "subtype": "noteOff",
        "noteNumber": 99,
        "velocity": 0
      },
      {
        "deltaTime": 159,
        "channel": 0,
        "type": "channel",
        "noteNumber": 96,
        "velocity": 111,
        "subtype": "noteOn"
      },
      {
        "deltaTime": 79,
        "channel": 0,
        "type": "channel",
        "subtype": "noteOff",
        "noteNumber": 96,
        "velocity": 0
      },
      {
        "deltaTime": 7,
        "channel": 0,
        "type": "channel",
        "noteNumber": 96,
        "velocity": 91,
        "subtype": "noteOn"
      },
      {
        "deltaTime": 27,
        "channel": 0,
        "type": "channel",
        "subtype": "noteOff",
        "noteNumber": 96,
        "velocity": 0
      },
      {
        "deltaTime": 7,
        "channel": 0,
        "type": "channel",
        "noteNumber": 96,
        "velocity": 100,
        "subtype": "noteOn"
      },
      {
        "deltaTime": 45,
        "channel": 0,
        "type": "channel",
        "subtype": "noteOff",
        "noteNumber": 96,
        "velocity": 0
      },
      {
        "deltaTime": 12,
        "channel": 0,
        "type": "channel",
        "noteNumber": 96,
        "velocity": 71,
        "subtype": "noteOn"
      },
      {
        "deltaTime": 65,
        "channel": 0,
        "type": "channel",
        "subtype": "noteOff",
        "noteNumber": 96,
        "velocity": 0
      },
      {
        "deltaTime": 84,
        "channel": 0,
        "type": "channel",
        "noteNumber": 96,
        "velocity": 113,
        "subtype": "noteOn"
      },
      {
        "deltaTime": 51,
        "channel": 0,
        "type": "channel",
        "subtype": "noteOff",
        "noteNumber": 96,
        "velocity": 0
      },
      {
        "deltaTime": 74,
        "channel": 0,
        "type": "channel",
        "noteNumber": 98,
        "velocity": 91,
        "subtype": "noteOn"
      },
      {
        "deltaTime": 67,
        "channel": 0,
        "type": "channel",
        "subtype": "noteOff",
        "noteNumber": 98,
        "velocity": 0
      },
      {
        "deltaTime": 31,
        "channel": 0,
        "type": "channel",
        "noteNumber": 98,
        "velocity": 79,
        "subtype": "noteOn"
      },
      {
        "deltaTime": 12,
        "channel": 0,
        "type": "channel",
        "subtype": "noteOff",
        "noteNumber": 98,
        "velocity": 0
      },
      {
        "deltaTime": 5,
        "channel": 0,
        "type": "channel",
        "noteNumber": 97,
        "velocity": 116,
        "subtype": "noteOn"
      },
      {
        "deltaTime": 46,
        "channel": 0,
        "type": "channel",
        "subtype": "noteOff",
        "noteNumber": 97,
        "velocity": 0
      },
      {
        "deltaTime": 33,
        "channel": 0,
        "type": "channel",
        "noteNumber": 96,
        "velocity": 107,
        "subtype": "noteOn"
      },
      {
        "deltaTime": 147,
        "channel": 0,
        "type": "channel",
        "subtype": "noteOff",
        "noteNumber": 96,
        "velocity": 0
      },
      {
        "deltaTime": 223,
        "channel": 0,
        "type": "channel",
        "noteNumber": 96,
        "velocity": 78,
        "subtype": "noteOn"
      },
      {
        "deltaTime": 106,
        "channel": 0,
        "type": "channel",
        "subtype": "noteOff",
        "noteNumber": 96,
        "velocity": 0
      },
      {
        "deltaTime": 79,
        "channel": 0,
        "type": "channel",
        "noteNumber": 99,
        "velocity": 111,
        "subtype": "noteOn"
      },
      {
        "deltaTime": 81,
        "channel": 0,
        "type": "channel",
        "subtype": "noteOff",
        "noteNumber": 99,
        "velocity": 0
      },
      {
        "deltaTime": 84,
        "channel": 0,
        "type": "channel",
        "noteNumber": 96,
        "velocity": 90,
        "subtype": "noteOn"
      },
      {
        "deltaTime": 87,
        "channel": 0,
        "type": "channel",
        "subtype": "noteOff",
        "noteNumber": 96,
        "velocity": 0
      },
      {
        "deltaTime": 108,
        "channel": 0,
        "type": "channel",
        "noteNumber": 96,
        "velocity": 109,
        "subtype": "noteOn"
      },
      {
        "deltaTime": 43,
        "channel": 0,
        "type": "channel",
        "subtype": "noteOff",
        "noteNumber": 96,
        "velocity": 0
      },
      {
        "deltaTime": 55,
        "channel": 0,
        "type": "channel",
        "noteNumber": 98,
        "velocity": 68,
        "subtype": "noteOn"
      },
      {
        "deltaTime": 41,
        "channel": 0,
        "type": "channel",
        "subtype": "noteOff",
        "noteNumber": 98,
        "velocity": 0
      },
      {
        "deltaTime": 12,
        "channel": 0,
        "type": "channel",
        "noteNumber": 98,
        "velocity": 93,
        "subtype": "noteOn"
      },
      {
        "deltaTime": 60,
        "channel": 0,
        "type": "channel",
        "subtype": "noteOff",
        "noteNumber": 98,
        "velocity": 0
      },
      {
        "deltaTime": 65,
        "channel": 0,
        "type": "channel",
        "noteNumber": 91,
        "velocity": 72,
        "subtype": "noteOn"
      },
      {
        "deltaTime": 86,
        "channel": 0,
        "type": "channel",
        "subtype": "noteOff",
        "noteNumber": 91,
        "velocity": 0
      },
      {
        "deltaTime": 5,
        "channel": 0,
        "type": "channel",
        "noteNumber": 92,
        "velocity": 55,
        "subtype": "noteOn"
      },
      {
        "deltaTime": 17,
        "channel": 0,
        "type": "channel",
        "subtype": "noteOff",
        "noteNumber": 92,
        "velocity": 0
      },
      {
        "deltaTime": 57,
        "channel": 0,
        "type": "channel",
        "noteNumber": 99,
        "velocity": 88,
        "subtype": "noteOn"
      },
      {
        "deltaTime": 99,
        "channel": 0,
        "type": "channel",
        "subtype": "noteOff",
        "noteNumber": 99,
        "velocity": 0
      },
      {
        "deltaTime": 223,
        "channel": 0,
        "type": "channel",
        "noteNumber": 99,
        "velocity": 90,
        "subtype": "noteOn"
      },
      {
        "deltaTime": 89,
        "channel": 0,
        "type": "channel",
        "subtype": "noteOff",
        "noteNumber": 99,
        "velocity": 0
      },
      {
        "deltaTime": 36,
        "channel": 0,
        "type": "channel",
        "noteNumber": 96,
        "velocity": 63,
        "subtype": "noteOn"
      },
      {
        "deltaTime": 19,
        "channel": 0,
        "type": "channel",
        "subtype": "noteOff",
        "noteNumber": 96,
        "velocity": 0
      },
      {
        "deltaTime": 19,
        "channel": 0,
        "type": "channel",
        "noteNumber": 91,
        "velocity": 72,
        "subtype": "noteOn"
      },
      {
        "deltaTime": 77,
        "channel": 0,
        "type": "channel",
        "subtype": "noteOff",
        "noteNumber": 91,
        "velocity": 0
      },
      {
        "deltaTime": 142,
        "channel": 0,
        "type": "channel",
        "noteNumber": 96,
        "velocity": 74,
        "subtype": "noteOn"
      },
      {
        "deltaTime": 26,
        "channel": 0,
        "type": "channel",
        "subtype": "noteOff",
        "noteNumber": 96,
        "velocity": 0
      },
      {
        "deltaTime": 50,
        "channel": 0,
        "type": "channel",
        "noteNumber": 96,
        "velocity": 66,
        "subtype": "noteOn"
      },
      {
        "deltaTime": 22,
        "channel": 0,
        "type": "channel",
        "subtype": "noteOff",
        "noteNumber": 96,
        "velocity": 0
      },
      {
        "deltaTime": 2,
        "channel": 0,
        "type": "channel",
        "noteNumber": 97,
        "velocity": 113,
        "subtype": "noteOn"
      },
      {
        "deltaTime": 48,
        "channel": 0,
        "type": "channel",
        "subtype": "noteOff",
        "noteNumber": 97,
        "velocity": 0
      },
      {
        "deltaTime": 34,
        "channel": 0,
        "type": "channel",
        "noteNumber": 96,
        "velocity": 115,
        "subtype": "noteOn"
      },
      {
        "deltaTime": 48,
        "channel": 0,
        "type": "channel",
        "subtype": "noteOff",
        "noteNumber": 96,
        "velocity": 0
      },
      {
        "deltaTime": 17,
        "channel": 0,
        "type": "channel",
        "noteNumber": 98,
        "velocity": 68,
        "subtype": "noteOn"
      },
      {
        "deltaTime": 24,
        "channel": 0,
        "type": "channel",
        "subtype": "noteOff",
        "noteNumber": 98,
        "velocity": 0
      },
      {
        "deltaTime": 5,
        "channel": 0,
        "type": "channel",
        "noteNumber": 98,
        "velocity": 80,
        "subtype": "noteOn"
      },
      {
        "deltaTime": 45,
        "channel": 0,
        "type": "channel",
        "subtype": "noteOff",
        "noteNumber": 98,
        "velocity": 0
      },
      {
        "deltaTime": 3,
        "channel": 0,
        "type": "channel",
        "noteNumber": 98,
        "velocity": 71,
        "subtype": "noteOn"
      },
      {
        "deltaTime": 69,
        "channel": 0,
        "type": "channel",
        "subtype": "noteOff",
        "noteNumber": 98,
        "velocity": 0
      },
      {
        "deltaTime": 27,
        "channel": 0,
        "type": "channel",
        "noteNumber": 96,
        "velocity": 114,
        "subtype": "noteOn"
      },
      {
        "deltaTime": 38,
        "channel": 0,
        "type": "channel",
        "subtype": "noteOff",
        "noteNumber": 96,
        "velocity": 0
      },
      {
        "deltaTime": 72,
        "channel": 0,
        "type": "channel",
        "noteNumber": 96,
        "velocity": 76,
        "subtype": "noteOn"
      },
      {
        "deltaTime": 48,
        "channel": 0,
        "type": "channel",
        "subtype": "noteOff",
        "noteNumber": 96,
        "velocity": 0
      },
      {
        "deltaTime": 2,
        "channel": 0,
        "type": "channel",
        "noteNumber": 96,
        "velocity": 76,
        "subtype": "noteOn"
      },
      {
        "deltaTime": 17,
        "channel": 0,
        "type": "channel",
        "subtype": "noteOff",
        "noteNumber": 96,
        "velocity": 0
      },
      {
        "deltaTime": 10,
        "channel": 0,
        "type": "channel",
        "noteNumber": 96,
        "velocity": 96,
        "subtype": "noteOn"
      },
      {
        "deltaTime": 127,
        "channel": 0,
        "type": "channel",
        "subtype": "noteOff",
        "noteNumber": 96,
        "velocity": 0
      },
      {
        "deltaTime": 7,
        "channel": 0,
        "type": "channel",
        "noteNumber": 96,
        "velocity": 93,
        "subtype": "noteOn"
      },
      {
        "deltaTime": 77,
        "channel": 0,
        "type": "channel",
        "subtype": "noteOff",
        "noteNumber": 96,
        "velocity": 0
      },
      {
        "deltaTime": 317,
        "channel": 0,
        "type": "channel",
        "noteNumber": 96,
        "velocity": 114,
        "subtype": "noteOn"
      },
      {
        "deltaTime": 53,
        "channel": 0,
        "type": "channel",
        "subtype": "noteOff",
        "noteNumber": 96,
        "velocity": 0
      },
      {
        "deltaTime": 40,
        "channel": 0,
        "type": "channel",
        "noteNumber": 65,
        "velocity": 49,
        "subtype": "noteOn"
      },
      {
        "deltaTime": 70,
        "channel": 0,
        "type": "channel",
        "subtype": "noteOff",
        "noteNumber": 65,
        "velocity": 0
      },
      {
        "deltaTime": 14,
        "channel": 0,
        "type": "channel",
        "noteNumber": 65,
        "velocity": 49,
        "subtype": "noteOn"
      },
      {
        "deltaTime": 65,
        "channel": 0,
        "type": "channel",
        "subtype": "noteOff",
        "noteNumber": 65,
        "velocity": 0
      },
      {
        "deltaTime": 3,
        "channel": 0,
        "type": "channel",
        "noteNumber": 94,
        "velocity": 47,
        "subtype": "noteOn"
      },
      {
        "deltaTime": 76,
        "channel": 0,
        "type": "channel",
        "subtype": "noteOff",
        "noteNumber": 94,
        "velocity": 0
      },
      {
        "deltaTime": 3,
        "channel": 0,
        "type": "channel",
        "noteNumber": 96,
        "velocity": 114,
        "subtype": "noteOn"
      },
      {
        "deltaTime": 53,
        "channel": 0,
        "type": "channel",
        "subtype": "noteOff",
        "noteNumber": 96,
        "velocity": 0
      },
      {
        "deltaTime": 74,
        "channel": 0,
        "type": "channel",
        "noteNumber": 65,
        "velocity": 49,
        "subtype": "noteOn"
      },
      {
        "deltaTime": 74,
        "channel": 0,
        "type": "channel",
        "subtype": "noteOff",
        "noteNumber": 65,
        "velocity": 0
      },
      {
        "deltaTime": 41,
        "channel": 0,
        "type": "channel",
        "noteNumber": 94,
        "velocity": 52,
        "subtype": "noteOn"
      },
      {
        "deltaTime": 77,
        "channel": 0,
        "type": "channel",
        "subtype": "noteOff",
        "noteNumber": 94,
        "velocity": 0
      },
      {
        "deltaTime": 2,
        "channel": 0,
        "type": "channel",
        "noteNumber": 96,
        "velocity": 117,
        "subtype": "noteOn"
      },
      {
        "deltaTime": 53,
        "channel": 0,
        "type": "channel",
        "subtype": "noteOff",
        "noteNumber": 96,
        "velocity": 0
      },
      {
        "deltaTime": 91,
        "channel": 0,
        "type": "channel",
        "noteNumber": 67,
        "velocity": 36,
        "subtype": "noteOn"
      },
      {
        "deltaTime": 15,
        "channel": 0,
        "type": "channel",
        "subtype": "noteOff",
        "noteNumber": 67,
        "velocity": 0
      },
      {
        "deltaTime": 14,
        "channel": 0,
        "type": "channel",
        "noteNumber": 68,
        "velocity": 45,
        "subtype": "noteOn"
      },
      {
        "deltaTime": 36,
        "channel": 0,
        "type": "channel",
        "subtype": "noteOff",
        "noteNumber": 68,
        "velocity": 0
      },
      {
        "deltaTime": 17,
        "channel": 0,
        "type": "channel",
        "noteNumber": 67,
        "velocity": 32,
        "subtype": "noteOn"
      },
      {
        "deltaTime": 22,
        "channel": 0,
        "type": "channel",
        "subtype": "noteOff",
        "noteNumber": 67,
        "velocity": 0
      },
      {
        "deltaTime": 79,
        "channel": 0,
        "type": "channel",
        "noteNumber": 65,
        "velocity": 52,
        "subtype": "noteOn"
      },
      {
        "deltaTime": 77,
        "channel": 0,
        "type": "channel",
        "subtype": "noteOff",
        "noteNumber": 65,
        "velocity": 0
      },
      {
        "deltaTime": 0,
        "channel": 0,
        "type": "channel",
        "noteNumber": 89,
        "velocity": 67,
        "subtype": "noteOn"
      },
      {
        "deltaTime": 36,
        "channel": 0,
        "type": "channel",
        "subtype": "noteOff",
        "noteNumber": 89,
        "velocity": 0
      },
      {
        "deltaTime": 120,
        "channel": 0,
        "type": "channel",
        "noteNumber": 99,
        "velocity": 113,
        "subtype": "noteOn"
      },
      {
        "deltaTime": 76,
        "channel": 0,
        "type": "channel",
        "subtype": "noteOff",
        "noteNumber": 99,
        "velocity": 0
      },
      {
        "deltaTime": 3,
        "channel": 0,
        "type": "channel",
        "noteNumber": 96,
        "velocity": 116,
        "subtype": "noteOn"
      },
      {
        "deltaTime": 53,
        "channel": 0,
        "type": "channel",
        "subtype": "noteOff",
        "noteNumber": 96,
        "velocity": 0
      },
      {
        "deltaTime": 36,
        "channel": 0,
        "type": "channel",
        "noteNumber": 65,
        "velocity": 48,
        "subtype": "noteOn"
      },
      {
        "deltaTime": 69,
        "channel": 0,
        "type": "channel",
        "subtype": "noteOff",
        "noteNumber": 65,
        "velocity": 0
      },
      {
        "deltaTime": 15,
        "channel": 0,
        "type": "channel",
        "noteNumber": 65,
        "velocity": 49,
        "subtype": "noteOn"
      },
      {
        "deltaTime": 64,
        "channel": 0,
        "type": "channel",
        "subtype": "noteOff",
        "noteNumber": 65,
        "velocity": 0
      },
      {
        "deltaTime": 5,
        "channel": 0,
        "type": "channel",
        "noteNumber": 94,
        "velocity": 49,
        "subtype": "noteOn"
      },
      {
        "deltaTime": 77,
        "channel": 0,
        "type": "channel",
        "subtype": "noteOff",
        "noteNumber": 94,
        "velocity": 0
      },
      {
        "deltaTime": 2,
        "channel": 0,
        "type": "channel",
        "noteNumber": 96,
        "velocity": 114,
        "subtype": "noteOn"
      },
      {
        "deltaTime": 51,
        "channel": 0,
        "type": "channel",
        "subtype": "noteOff",
        "noteNumber": 96,
        "velocity": 0
      },
      {
        "deltaTime": 77,
        "channel": 0,
        "type": "channel",
        "noteNumber": 65,
        "velocity": 50,
        "subtype": "noteOn"
      },
      {
        "deltaTime": 74,
        "channel": 0,
        "type": "channel",
        "subtype": "noteOff",
        "noteNumber": 65,
        "velocity": 0
      },
      {
        "deltaTime": 38,
        "channel": 0,
        "type": "channel",
        "noteNumber": 97,
        "velocity": 120,
        "subtype": "noteOn"
      },
      {
        "deltaTime": 48,
        "channel": 0,
        "type": "channel",
        "subtype": "noteOff",
        "noteNumber": 97,
        "velocity": 0
      },
      {
        "deltaTime": 32,
        "channel": 0,
        "type": "channel",
        "noteNumber": 96,
        "velocity": 119,
        "subtype": "noteOn"
      },
      {
        "deltaTime": 52,
        "channel": 0,
        "type": "channel",
        "subtype": "noteOff",
        "noteNumber": 96,
        "velocity": 0
      },
      {
        "deltaTime": 92,
        "channel": 0,
        "type": "channel",
        "noteNumber": 67,
        "velocity": 36,
        "subtype": "noteOn"
      },
      {
        "deltaTime": 14,
        "channel": 0,
        "type": "channel",
        "subtype": "noteOff",
        "noteNumber": 67,
        "velocity": 0
      },
      {
        "deltaTime": 14,
        "channel": 0,
        "type": "channel",
        "noteNumber": 68,
        "velocity": 43,
        "subtype": "noteOn"
      },
      {
        "deltaTime": 39,
        "channel": 0,
        "type": "channel",
        "subtype": "noteOff",
        "noteNumber": 68,
        "velocity": 0
      },
      {
        "deltaTime": 14,
        "channel": 0,
        "type": "channel",
        "noteNumber": 67,
        "velocity": 31,
        "subtype": "noteOn"
      },
      {
        "deltaTime": 15,
        "channel": 0,
        "type": "channel",
        "subtype": "noteOff",
        "noteNumber": 67,
        "velocity": 0
      },
      {
        "deltaTime": 160,
        "channel": 0,
        "type": "channel",
        "noteNumber": 89,
        "velocity": 67,
        "subtype": "noteOn"
      },
      {
        "deltaTime": 39,
        "channel": 0,
        "type": "channel",
        "subtype": "noteOff",
        "noteNumber": 89,
        "velocity": 0
      },
      {
        "deltaTime": 120,
        "channel": 0,
        "type": "channel",
        "noteNumber": 99,
        "velocity": 116,
        "subtype": "noteOn"
      },
      {
        "deltaTime": 77,
        "channel": 0,
        "type": "channel",
        "subtype": "noteOff",
        "noteNumber": 99,
        "velocity": 0
      },
      {
        "deltaTime": 4,
        "channel": 0,
        "type": "channel",
        "noteNumber": 96,
        "velocity": 116,
        "subtype": "noteOn"
      },
      {
        "deltaTime": 51,
        "channel": 0,
        "type": "channel",
        "subtype": "noteOff",
        "noteNumber": 96,
        "velocity": 0
      },
      {
        "deltaTime": 36,
        "channel": 0,
        "type": "channel",
        "noteNumber": 65,
        "velocity": 47,
        "subtype": "noteOn"
      },
      {
        "deltaTime": 72,
        "channel": 0,
        "type": "channel",
        "subtype": "noteOff",
        "noteNumber": 65,
        "velocity": 0
      },
      {
        "deltaTime": 14,
        "channel": 0,
        "type": "channel",
        "noteNumber": 65,
        "velocity": 49,
        "subtype": "noteOn"
      },
      {
        "deltaTime": 65,
        "channel": 0,
        "type": "channel",
        "subtype": "noteOff",
        "noteNumber": 65,
        "velocity": 0
      },
      {
        "deltaTime": 36,
        "channel": 0,
        "type": "channel",
        "noteNumber": 96,
        "velocity": 116,
        "subtype": "noteOn"
      },
      {
        "deltaTime": 43,
        "channel": 0,
        "type": "channel",
        "subtype": "noteOff",
        "noteNumber": 96,
        "velocity": 0
      },
      {
        "deltaTime": 5,
        "channel": 0,
        "type": "channel",
        "noteNumber": 94,
        "velocity": 50,
        "subtype": "noteOn"
      },
      {
        "deltaTime": 113,
        "channel": 0,
        "type": "channel",
        "subtype": "noteOff",
        "noteNumber": 94,
        "velocity": 0
      },
      {
        "deltaTime": 12,
        "channel": 0,
        "type": "channel",
        "noteNumber": 65,
        "velocity": 49,
        "subtype": "noteOn"
      },
      {
        "deltaTime": 74,
        "channel": 0,
        "type": "channel",
        "subtype": "noteOff",
        "noteNumber": 65,
        "velocity": 0
      },
      {
        "deltaTime": 41,
        "channel": 0,
        "type": "channel",
        "noteNumber": 91,
        "velocity": 59,
        "subtype": "noteOn"
      },
      {
        "deltaTime": 77,
        "channel": 0,
        "type": "channel",
        "subtype": "noteOff",
        "noteNumber": 91,
        "velocity": 0
      },
      {
        "deltaTime": 2,
        "channel": 0,
        "type": "channel",
        "noteNumber": 92,
        "velocity": 53,
        "subtype": "noteOn"
      },
      {
        "deltaTime": 19,
        "channel": 0,
        "type": "channel",
        "subtype": "noteOff",
        "noteNumber": 92,
        "velocity": 0
      },
      {
        "deltaTime": 101,
        "channel": 0,
        "type": "channel",
        "noteNumber": 91,
        "velocity": 56,
        "subtype": "noteOn"
      },
      {
        "deltaTime": 118,
        "channel": 0,
        "type": "channel",
        "subtype": "noteOff",
        "noteNumber": 91,
        "velocity": 0
      },
      {
        "deltaTime": 2,
        "channel": 0,
        "type": "channel",
        "noteNumber": 87,
        "velocity": 56,
        "subtype": "noteOn"
      },
      {
        "deltaTime": 77,
        "channel": 0,
        "type": "channel",
        "subtype": "noteOff",
        "noteNumber": 87,
        "velocity": 0
      },
      {
        "deltaTime": 2,
        "channel": 0,
        "type": "channel",
        "noteNumber": 89,
        "velocity": 62,
        "subtype": "noteOn"
      },
      {
        "deltaTime": 36,
        "channel": 0,
        "type": "channel",
        "subtype": "noteOff",
        "noteNumber": 89,
        "velocity": 0
      },
      {
        "deltaTime": 118,
        "channel": 0,
        "type": "channel",
        "noteNumber": 89,
        "velocity": 66,
        "subtype": "noteOn"
      },
      {
        "deltaTime": 84,
        "channel": 0,
        "type": "channel",
        "subtype": "noteOff",
        "noteNumber": 89,
        "velocity": 0
      },
      {
        "deltaTime": 2,
        "channel": 0,
        "type": "channel",
        "noteNumber": 91,
        "velocity": 60,
        "subtype": "noteOn"
      },
      {
        "deltaTime": 77,
        "channel": 0,
        "type": "channel",
        "subtype": "noteOff",
        "noteNumber": 91,
        "velocity": 0
      },
      {
        "deltaTime": 5,
        "channel": 0,
        "type": "channel",
        "noteNumber": 92,
        "velocity": 56,
        "subtype": "noteOn"
      },
      {
        "deltaTime": 19,
        "channel": 0,
        "type": "channel",
        "subtype": "noteOff",
        "noteNumber": 92,
        "velocity": 0
      },
      {
        "deltaTime": 67,
        "channel": 0,
        "type": "channel",
        "noteNumber": 65,
        "velocity": 49,
        "subtype": "noteOn"
      },
      {
        "deltaTime": 70,
        "channel": 0,
        "type": "channel",
        "subtype": "noteOff",
        "noteNumber": 65,
        "velocity": 0
      },
      {
        "deltaTime": 14,
        "channel": 0,
        "type": "channel",
        "noteNumber": 65,
        "velocity": 45,
        "subtype": "noteOn"
      },
      {
        "deltaTime": 65,
        "channel": 0,
        "type": "channel",
        "subtype": "noteOff",
        "noteNumber": 65,
        "velocity": 0
      },
      {
        "deltaTime": 5,
        "channel": 0,
        "type": "channel",
        "noteNumber": 97,
        "velocity": 108,
        "subtype": "noteOn"
      },
      {
        "deltaTime": 50,
        "channel": 0,
        "type": "channel",
        "subtype": "noteOff",
        "noteNumber": 97,
        "velocity": 0
      },
      {
        "deltaTime": 29,
        "channel": 0,
        "type": "channel",
        "noteNumber": 96,
        "velocity": 117,
        "subtype": "noteOn"
      },
      {
        "deltaTime": 51,
        "channel": 0,
        "type": "channel",
        "subtype": "noteOff",
        "noteNumber": 96,
        "velocity": 0
      },
      {
        "deltaTime": 69,
        "channel": 0,
        "type": "channel",
        "noteNumber": 94,
        "velocity": 50,
        "subtype": "noteOn"
      },
      {
        "deltaTime": 111,
        "channel": 0,
        "type": "channel",
        "subtype": "noteOff",
        "noteNumber": 94,
        "velocity": 0
      },
      {
        "deltaTime": 2,
        "channel": 0,
        "type": "channel",
        "noteNumber": 96,
        "velocity": 120,
        "subtype": "noteOn"
      },
      {
        "deltaTime": 84,
        "channel": 0,
        "type": "channel",
        "subtype": "noteOff",
        "noteNumber": 96,
        "velocity": 0
      },
      {
        "deltaTime": 2,
        "channel": 0,
        "type": "channel",
        "noteNumber": 89,
        "velocity": 61,
        "subtype": "noteOn"
      },
      {
        "deltaTime": 152,
        "channel": 0,
        "type": "channel",
        "subtype": "noteOff",
        "noteNumber": 89,
        "velocity": 0
      },
      {
        "deltaTime": 19,
        "channel": 0,
        "type": "channel",
        "noteNumber": 68,
        "velocity": 44,
        "subtype": "noteOn"
      },
      {
        "deltaTime": 38,
        "channel": 0,
        "type": "channel",
        "subtype": "noteOff",
        "noteNumber": 68,
        "velocity": 0
      },
      {
        "deltaTime": 15,
        "channel": 0,
        "type": "channel",
        "noteNumber": 67,
        "velocity": 32,
        "subtype": "noteOn"
      },
      {
        "deltaTime": 21,
        "channel": 0,
        "type": "channel",
        "subtype": "noteOff",
        "noteNumber": 67,
        "velocity": 0
      },
      {
        "deltaTime": 7,
        "channel": 0,
        "type": "channel",
        "noteNumber": 68,
        "velocity": 47,
        "subtype": "noteOn"
      },
      {
        "deltaTime": 34,
        "channel": 0,
        "type": "channel",
        "subtype": "noteOff",
        "noteNumber": 68,
        "velocity": 0
      },
      {
        "deltaTime": 10,
        "channel": 0,
        "type": "channel",
        "noteNumber": 67,
        "velocity": 45,
        "subtype": "noteOn"
      },
      {
        "deltaTime": 60,
        "channel": 0,
        "type": "channel",
        "subtype": "noteOff",
        "noteNumber": 67,
        "velocity": 0
      },
      {
        "deltaTime": 0,
        "type": "meta",
        "subtype": "endOfTrack"
      }
    ],
    [
      {
        "deltaTime": 676,
        "channel": 0,
        "type": "channel",
        "noteNumber": 55,
        "velocity": 40,
        "subtype": "noteOn"
      },
      {
        "deltaTime": 466,
        "channel": 0,
        "type": "channel",
        "subtype": "noteOff",
        "noteNumber": 55,
        "velocity": 0
      },
      {
        "deltaTime": 175,
        "channel": 0,
        "type": "channel",
        "noteNumber": 57,
        "velocity": 40,
        "subtype": "noteOn"
      },
      {
        "deltaTime": 259,
        "channel": 0,
        "type": "channel",
        "subtype": "noteOff",
        "noteNumber": 57,
        "velocity": 0
      },
      {
        "deltaTime": 377,
        "channel": 0,
        "type": "channel",
        "noteNumber": 59,
        "velocity": 41,
        "subtype": "noteOn"
      },
      {
        "deltaTime": 518,
        "channel": 0,
        "type": "channel",
        "subtype": "noteOff",
        "noteNumber": 59,
        "velocity": 0
      },
      {
        "deltaTime": 120,
        "channel": 0,
        "type": "channel",
        "noteNumber": 59,
        "velocity": 36,
        "subtype": "noteOn"
      },
      {
        "deltaTime": 310,
        "channel": 0,
        "type": "channel",
        "subtype": "noteOff",
        "noteNumber": 59,
        "velocity": 0
      },
      {
        "deltaTime": 334,
        "channel": 0,
        "type": "channel",
        "noteNumber": 55,
        "velocity": 41,
        "subtype": "noteOn"
      },
      {
        "deltaTime": 76,
        "channel": 0,
        "type": "channel",
        "subtype": "noteOff",
        "noteNumber": 55,
        "velocity": 0
      },
      {
        "deltaTime": 0,
        "channel": 0,
        "type": "channel",
        "noteNumber": 62,
        "velocity": 30,
        "subtype": "noteOn"
      },
      {
        "deltaTime": 478,
        "channel": 0,
        "type": "channel",
        "subtype": "noteOff",
        "noteNumber": 62,
        "velocity": 0
      },
      {
        "deltaTime": 91,
        "channel": 0,
        "type": "channel",
        "noteNumber": 57,
        "velocity": 39,
        "subtype": "noteOn"
      },
      {
        "deltaTime": 257,
        "channel": 0,
        "type": "channel",
        "subtype": "noteOff",
        "noteNumber": 57,
        "velocity": 0
      },
      {
        "deltaTime": 374,
        "channel": 0,
        "type": "channel",
        "noteNumber": 59,
        "velocity": 39,
        "subtype": "noteOn"
      },
      {
        "deltaTime": 524,
        "channel": 0,
        "type": "channel",
        "subtype": "noteOff",
        "noteNumber": 59,
        "velocity": 0
      },
      {
        "deltaTime": 120,
        "channel": 0,
        "type": "channel",
        "noteNumber": 59,
        "velocity": 37,
        "subtype": "noteOn"
      },
      {
        "deltaTime": 223,
        "channel": 0,
        "type": "channel",
        "subtype": "noteOff",
        "noteNumber": 59,
        "velocity": 0
      },
      {
        "deltaTime": 417,
        "channel": 0,
        "type": "channel",
        "noteNumber": 55,
        "velocity": 40,
        "subtype": "noteOn"
      },
      {
        "deltaTime": 545,
        "channel": 0,
        "type": "channel",
        "subtype": "noteOff",
        "noteNumber": 55,
        "velocity": 0
      },
      {
        "deltaTime": 94,
        "channel": 0,
        "type": "channel",
        "noteNumber": 57,
        "velocity": 40,
        "subtype": "noteOn"
      },
      {
        "deltaTime": 77,
        "channel": 0,
        "type": "channel",
        "noteNumber": 64,
        "velocity": 32,
        "subtype": "noteOn"
      },
      {
        "deltaTime": 184,
        "channel": 0,
        "type": "channel",
        "subtype": "noteOff",
        "noteNumber": 57,
        "velocity": 0
      },
      {
        "deltaTime": 209,
        "channel": 0,
        "type": "channel",
        "subtype": "noteOff",
        "noteNumber": 64,
        "velocity": 0
      },
      {
        "deltaTime": 168,
        "channel": 0,
        "type": "channel",
        "noteNumber": 59,
        "velocity": 40,
        "subtype": "noteOn"
      },
      {
        "deltaTime": 235,
        "channel": 0,
        "type": "channel",
        "noteNumber": 85,
        "velocity": 31,
        "subtype": "noteOn"
      },
      {
        "deltaTime": 128,
        "channel": 0,
        "type": "channel",
        "subtype": "noteOff",
        "noteNumber": 85,
        "velocity": 0
      },
      {
        "deltaTime": 105,
        "channel": 0,
        "type": "channel",
        "subtype": "noteOff",
        "noteNumber": 59,
        "velocity": 0
      },
      {
        "deltaTime": 173,
        "channel": 0,
        "type": "channel",
        "noteNumber": 59,
        "velocity": 44,
        "subtype": "noteOn"
      },
      {
        "deltaTime": 312,
        "channel": 0,
        "type": "channel",
        "subtype": "noteOff",
        "noteNumber": 59,
        "velocity": 0
      },
      {
        "deltaTime": 331,
        "channel": 0,
        "type": "channel",
        "noteNumber": 55,
        "velocity": 35,
        "subtype": "noteOn"
      },
      {
        "deltaTime": 77,
        "channel": 0,
        "type": "channel",
        "noteNumber": 62,
        "velocity": 26,
        "subtype": "noteOn"
      },
      {
        "deltaTime": 389,
        "channel": 0,
        "type": "channel",
        "subtype": "noteOff",
        "noteNumber": 55,
        "velocity": 0
      },
      {
        "deltaTime": 2,
        "channel": 0,
        "type": "channel",
        "subtype": "noteOff",
        "noteNumber": 62,
        "velocity": 0
      },
      {
        "deltaTime": 171,
        "channel": 0,
        "type": "channel",
        "noteNumber": 57,
        "velocity": 40,
        "subtype": "noteOn"
      },
      {
        "deltaTime": 76,
        "channel": 0,
        "type": "channel",
        "noteNumber": 64,
        "velocity": 31,
        "subtype": "noteOn"
      },
      {
        "deltaTime": 152,
        "channel": 0,
        "type": "channel",
        "subtype": "noteOff",
        "noteNumber": 57,
        "velocity": 0
      },
      {
        "deltaTime": 0,
        "channel": 0,
        "type": "channel",
        "subtype": "noteOff",
        "noteNumber": 64,
        "velocity": 0
      },
      {
        "deltaTime": 403,
        "channel": 0,
        "type": "channel",
        "noteNumber": 83,
        "velocity": 31,
        "subtype": "noteOn"
      },
      {
        "deltaTime": 24,
        "channel": 0,
        "type": "channel",
        "subtype": "noteOff",
        "noteNumber": 83,
        "velocity": 0
      },
      {
        "deltaTime": 67,
        "channel": 0,
        "type": "channel",
        "noteNumber": 54,
        "velocity": 34,
        "subtype": "noteOn"
      },
      {
        "deltaTime": 547,
        "channel": 0,
        "type": "channel",
        "subtype": "noteOff",
        "noteNumber": 54,
        "velocity": 0
      },
      {
        "deltaTime": 10,
        "channel": 0,
        "type": "channel",
        "noteNumber": 59,
        "velocity": 37,
        "subtype": "noteOn"
      },
      {
        "deltaTime": 225,
        "channel": 0,
        "type": "channel",
        "subtype": "noteOff",
        "noteNumber": 59,
        "velocity": 0
      },
      {
        "deltaTime": 876,
        "channel": 0,
        "type": "channel",
        "noteNumber": 36,
        "velocity": 24,
        "subtype": "noteOn"
      },
      {
        "deltaTime": 27,
        "channel": 0,
        "type": "channel",
        "subtype": "noteOff",
        "noteNumber": 36,
        "velocity": 0
      },
      {
        "deltaTime": 9,
        "channel": 0,
        "type": "channel",
        "noteNumber": 105,
        "velocity": 11,
        "subtype": "noteOn"
      },
      {
        "deltaTime": 15,
        "channel": 0,
        "type": "channel",
        "subtype": "noteOff",
        "noteNumber": 105,
        "velocity": 0
      },
      {
        "deltaTime": 9,
        "channel": 0,
        "type": "channel",
        "noteNumber": 105,
        "velocity": 18,
        "subtype": "noteOn"
      },
      {
        "deltaTime": 10,
        "channel": 0,
        "type": "channel",
        "subtype": "noteOff",
        "noteNumber": 105,
        "velocity": 0
      },
      {
        "deltaTime": 110,
        "channel": 0,
        "type": "channel",
        "noteNumber": 55,
        "velocity": 41,
        "subtype": "noteOn"
      },
      {
        "deltaTime": 10,
        "channel": 0,
        "type": "channel",
        "subtype": "noteOff",
        "noteNumber": 55,
        "velocity": 0
      },
      {
        "deltaTime": 89,
        "channel": 0,
        "type": "channel",
        "noteNumber": 32,
        "velocity": 50,
        "subtype": "noteOn"
      },
      {
        "deltaTime": 36,
        "channel": 0,
        "type": "channel",
        "subtype": "noteOff",
        "noteNumber": 32,
        "velocity": 0
      },
      {
        "deltaTime": 93,
        "channel": 0,
        "type": "channel",
        "noteNumber": 88,
        "velocity": 39,
        "subtype": "noteOn"
      },
      {
        "deltaTime": 77,
        "channel": 0,
        "type": "channel",
        "subtype": "noteOff",
        "noteNumber": 88,
        "velocity": 0
      },
      {
        "deltaTime": 5,
        "channel": 0,
        "type": "channel",
        "noteNumber": 90,
        "velocity": 50,
        "subtype": "noteOn"
      },
      {
        "deltaTime": 146,
        "channel": 0,
        "type": "channel",
        "subtype": "noteOff",
        "noteNumber": 90,
        "velocity": 0
      },
      {
        "deltaTime": 10,
        "channel": 0,
        "type": "channel",
        "noteNumber": 90,
        "velocity": 52,
        "subtype": "noteOn"
      },
      {
        "deltaTime": 12,
        "channel": 0,
        "type": "channel",
        "subtype": "noteOff",
        "noteNumber": 90,
        "velocity": 0
      },
      {
        "deltaTime": 72,
        "channel": 0,
        "type": "channel",
        "noteNumber": 88,
        "velocity": 37,
        "subtype": "noteOn"
      },
      {
        "deltaTime": 74,
        "channel": 0,
        "type": "channel",
        "subtype": "noteOff",
        "noteNumber": 88,
        "velocity": 0
      },
      {
        "deltaTime": 5,
        "channel": 0,
        "type": "channel",
        "noteNumber": 90,
        "velocity": 52,
        "subtype": "noteOn"
      },
      {
        "deltaTime": 135,
        "channel": 0,
        "type": "channel",
        "subtype": "noteOff",
        "noteNumber": 90,
        "velocity": 0
      },
      {
        "deltaTime": 16,
        "channel": 0,
        "type": "channel",
        "noteNumber": 35,
        "velocity": 52,
        "subtype": "noteOn"
      },
      {
        "deltaTime": 140,
        "channel": 0,
        "type": "channel",
        "subtype": "noteOff",
        "noteNumber": 35,
        "velocity": 0
      },
      {
        "deltaTime": 38,
        "channel": 0,
        "type": "channel",
        "noteNumber": 59,
        "velocity": 24,
        "subtype": "noteOn"
      },
      {
        "deltaTime": 24,
        "channel": 0,
        "type": "channel",
        "subtype": "noteOff",
        "noteNumber": 59,
        "velocity": 0
      },
      {
        "deltaTime": 2,
        "channel": 0,
        "type": "channel",
        "noteNumber": 35,
        "velocity": 14,
        "subtype": "noteOn"
      },
      {
        "deltaTime": 10,
        "channel": 0,
        "type": "channel",
        "subtype": "noteOff",
        "noteNumber": 35,
        "velocity": 0
      },
      {
        "deltaTime": 38,
        "channel": 0,
        "type": "channel",
        "noteNumber": 83,
        "velocity": 26,
        "subtype": "noteOn"
      },
      {
        "deltaTime": 29,
        "channel": 0,
        "type": "channel",
        "subtype": "noteOff",
        "noteNumber": 83,
        "velocity": 0
      },
      {
        "deltaTime": 22,
        "channel": 0,
        "type": "channel",
        "noteNumber": 83,
        "velocity": 15,
        "subtype": "noteOn"
      },
      {
        "deltaTime": 14,
        "channel": 0,
        "type": "channel",
        "subtype": "noteOff",
        "noteNumber": 83,
        "velocity": 0
      },
      {
        "deltaTime": 34,
        "channel": 0,
        "type": "channel",
        "noteNumber": 33,
        "velocity": 33,
        "subtype": "noteOn"
      },
      {
        "deltaTime": 139,
        "channel": 0,
        "type": "channel",
        "noteNumber": 90,
        "velocity": 49,
        "subtype": "noteOn"
      },
      {
        "deltaTime": 2,
        "channel": 0,
        "type": "channel",
        "subtype": "noteOff",
        "noteNumber": 33,
        "velocity": 0
      },
      {
        "deltaTime": 12,
        "channel": 0,
        "type": "channel",
        "noteNumber": 50,
        "velocity": 22,
        "subtype": "noteOn"
      },
      {
        "deltaTime": 10,
        "channel": 0,
        "type": "channel",
        "subtype": "noteOff",
        "noteNumber": 50,
        "velocity": 0
      },
      {
        "deltaTime": 101,
        "channel": 0,
        "type": "channel",
        "subtype": "noteOff",
        "noteNumber": 90,
        "velocity": 0
      },
      {
        "deltaTime": 12,
        "channel": 0,
        "type": "channel",
        "noteNumber": 59,
        "velocity": 32,
        "subtype": "noteOn"
      },
      {
        "deltaTime": 21,
        "channel": 0,
        "type": "channel",
        "subtype": "noteOff",
        "noteNumber": 59,
        "velocity": 0
      },
      {
        "deltaTime": 82,
        "channel": 0,
        "type": "channel",
        "noteNumber": 88,
        "velocity": 38,
        "subtype": "noteOn"
      },
      {
        "deltaTime": 74,
        "channel": 0,
        "type": "channel",
        "subtype": "noteOff",
        "noteNumber": 88,
        "velocity": 0
      },
      {
        "deltaTime": 5,
        "channel": 0,
        "type": "channel",
        "noteNumber": 90,
        "velocity": 52,
        "subtype": "noteOn"
      },
      {
        "deltaTime": 142,
        "channel": 0,
        "type": "channel",
        "subtype": "noteOff",
        "noteNumber": 90,
        "velocity": 0
      },
      {
        "deltaTime": 9,
        "channel": 0,
        "type": "channel",
        "noteNumber": 33,
        "velocity": 41,
        "subtype": "noteOn"
      },
      {
        "deltaTime": 168,
        "channel": 0,
        "type": "channel",
        "subtype": "noteOff",
        "noteNumber": 33,
        "velocity": 0
      },
      {
        "deltaTime": 3,
        "channel": 0,
        "type": "channel",
        "noteNumber": 90,
        "velocity": 48,
        "subtype": "noteOn"
      },
      {
        "deltaTime": 26,
        "channel": 0,
        "type": "channel",
        "subtype": "noteOff",
        "noteNumber": 90,
        "velocity": 0
      },
      {
        "deltaTime": 24,
        "channel": 0,
        "type": "channel",
        "noteNumber": 35,
        "velocity": 52,
        "subtype": "noteOn"
      },
      {
        "deltaTime": 79,
        "channel": 0,
        "type": "channel",
        "subtype": "noteOff",
        "noteNumber": 35,
        "velocity": 0
      },
      {
        "deltaTime": 15,
        "channel": 0,
        "type": "channel",
        "noteNumber": 64,
        "velocity": 38,
        "subtype": "noteOn"
      },
      {
        "deltaTime": 26,
        "channel": 0,
        "type": "channel",
        "subtype": "noteOff",
        "noteNumber": 64,
        "velocity": 0
      },
      {
        "deltaTime": 12,
        "channel": 0,
        "type": "channel",
        "noteNumber": 35,
        "velocity": 34,
        "subtype": "noteOn"
      },
      {
        "deltaTime": 101,
        "channel": 0,
        "type": "channel",
        "subtype": "noteOff",
        "noteNumber": 35,
        "velocity": 0
      },
      {
        "deltaTime": 26,
        "channel": 0,
        "type": "channel",
        "noteNumber": 36,
        "velocity": 33,
        "subtype": "noteOn"
      },
      {
        "deltaTime": 17,
        "channel": 0,
        "type": "channel",
        "subtype": "noteOff",
        "noteNumber": 36,
        "velocity": 0
      },
      {
        "deltaTime": 70,
        "channel": 0,
        "type": "channel",
        "noteNumber": 66,
        "velocity": 29,
        "subtype": "noteOn"
      },
      {
        "deltaTime": 45,
        "channel": 0,
        "type": "channel",
        "subtype": "noteOff",
        "noteNumber": 66,
        "velocity": 0
      },
      {
        "deltaTime": 8,
        "channel": 0,
        "type": "channel",
        "noteNumber": 62,
        "velocity": 25,
        "subtype": "noteOn"
      },
      {
        "deltaTime": 28,
        "channel": 0,
        "type": "channel",
        "subtype": "noteOff",
        "noteNumber": 62,
        "velocity": 0
      },
      {
        "deltaTime": 0,
        "channel": 0,
        "type": "channel",
        "noteNumber": 95,
        "velocity": 55,
        "subtype": "noteOn"
      },
      {
        "deltaTime": 27,
        "channel": 0,
        "type": "channel",
        "noteNumber": 38,
        "velocity": 62,
        "subtype": "noteOn"
      },
      {
        "deltaTime": 29,
        "channel": 0,
        "type": "channel",
        "subtype": "noteOff",
        "noteNumber": 95,
        "velocity": 0
      },
      {
        "deltaTime": 24,
        "channel": 0,
        "type": "channel",
        "noteNumber": 93,
        "velocity": 42,
        "subtype": "noteOn"
      },
      {
        "deltaTime": 76,
        "channel": 0,
        "type": "channel",
        "subtype": "noteOff",
        "noteNumber": 93,
        "velocity": 0
      },
      {
        "deltaTime": 48,
        "channel": 0,
        "type": "channel",
        "subtype": "noteOff",
        "noteNumber": 38,
        "velocity": 0
      },
      {
        "deltaTime": 132,
        "channel": 0,
        "type": "channel",
        "noteNumber": 54,
        "velocity": 40,
        "subtype": "noteOn"
      },
      {
        "deltaTime": 17,
        "channel": 0,
        "type": "channel",
        "subtype": "noteOff",
        "noteNumber": 54,
        "velocity": 0
      },
      {
        "deltaTime": 55,
        "channel": 0,
        "type": "channel",
        "noteNumber": 62,
        "velocity": 14,
        "subtype": "noteOn"
      },
      {
        "deltaTime": 34,
        "channel": 0,
        "type": "channel",
        "subtype": "noteOff",
        "noteNumber": 62,
        "velocity": 0
      },
      {
        "deltaTime": 0,
        "channel": 0,
        "type": "channel",
        "noteNumber": 90,
        "velocity": 52,
        "subtype": "noteOn"
      },
      {
        "deltaTime": 58,
        "channel": 0,
        "type": "channel",
        "noteNumber": 45,
        "velocity": 52,
        "subtype": "noteOn"
      },
      {
        "deltaTime": 88,
        "channel": 0,
        "type": "channel",
        "subtype": "noteOff",
        "noteNumber": 90,
        "velocity": 0
      },
      {
        "deltaTime": 27,
        "channel": 0,
        "type": "channel",
        "noteNumber": 69,
        "velocity": 34,
        "subtype": "noteOn"
      },
      {
        "deltaTime": 7,
        "channel": 0,
        "type": "channel",
        "subtype": "noteOff",
        "noteNumber": 45,
        "velocity": 0
      },
      {
        "deltaTime": 17,
        "channel": 0,
        "type": "channel",
        "subtype": "noteOff",
        "noteNumber": 69,
        "velocity": 0
      },
      {
        "deltaTime": 228,
        "channel": 0,
        "type": "channel",
        "noteNumber": 35,
        "velocity": 51,
        "subtype": "noteOn"
      },
      {
        "deltaTime": 65,
        "channel": 0,
        "type": "channel",
        "subtype": "noteOff",
        "noteNumber": 35,
        "velocity": 0
      },
      {
        "deltaTime": 40,
        "channel": 0,
        "type": "channel",
        "noteNumber": 35,
        "velocity": 40,
        "subtype": "noteOn"
      },
      {
        "deltaTime": 41,
        "channel": 0,
        "type": "channel",
        "subtype": "noteOff",
        "noteNumber": 35,
        "velocity": 0
      },
      {
        "deltaTime": 10,
        "channel": 0,
        "type": "channel",
        "noteNumber": 35,
        "velocity": 20,
        "subtype": "noteOn"
      },
      {
        "deltaTime": 9,
        "channel": 0,
        "type": "channel",
        "subtype": "noteOff",
        "noteNumber": 35,
        "velocity": 0
      },
      {
        "deltaTime": 22,
        "channel": 0,
        "type": "channel",
        "noteNumber": 66,
        "velocity": 42,
        "subtype": "noteOn"
      },
      {
        "deltaTime": 77,
        "channel": 0,
        "type": "channel",
        "subtype": "noteOff",
        "noteNumber": 66,
        "velocity": 0
      },
      {
        "deltaTime": 45,
        "channel": 0,
        "type": "channel",
        "noteNumber": 54,
        "velocity": 25,
        "subtype": "noteOn"
      },
      {
        "deltaTime": 63,
        "channel": 0,
        "type": "channel",
        "subtype": "noteOff",
        "noteNumber": 54,
        "velocity": 0
      },
      {
        "deltaTime": 7,
        "channel": 0,
        "type": "channel",
        "noteNumber": 66,
        "velocity": 36,
        "subtype": "noteOn"
      },
      {
        "deltaTime": 38,
        "channel": 0,
        "type": "channel",
        "subtype": "noteOff",
        "noteNumber": 66,
        "velocity": 0
      },
      {
        "deltaTime": 144,
        "channel": 0,
        "type": "channel",
        "noteNumber": 66,
        "velocity": 25,
        "subtype": "noteOn"
      },
      {
        "deltaTime": 15,
        "channel": 0,
        "type": "channel",
        "noteNumber": 86,
        "velocity": 35,
        "subtype": "noteOn"
      },
      {
        "deltaTime": 2,
        "channel": 0,
        "type": "channel",
        "subtype": "noteOff",
        "noteNumber": 66,
        "velocity": 0
      },
      {
        "deltaTime": 7,
        "channel": 0,
        "type": "channel",
        "noteNumber": 55,
        "velocity": 47,
        "subtype": "noteOn"
      },
      {
        "deltaTime": 12,
        "channel": 0,
        "type": "channel",
        "subtype": "noteOff",
        "noteNumber": 86,
        "velocity": 0
      },
      {
        "deltaTime": 15,
        "channel": 0,
        "type": "channel",
        "subtype": "noteOff",
        "noteNumber": 55,
        "velocity": 0
      },
      {
        "deltaTime": 12,
        "channel": 0,
        "type": "channel",
        "noteNumber": 50,
        "velocity": 52,
        "subtype": "noteOn"
      },
      {
        "deltaTime": 65,
        "channel": 0,
        "type": "channel",
        "subtype": "noteOff",
        "noteNumber": 50,
        "velocity": 0
      },
      {
        "deltaTime": 19,
        "channel": 0,
        "type": "channel",
        "noteNumber": 62,
        "velocity": 31,
        "subtype": "noteOn"
      },
      {
        "deltaTime": 24,
        "channel": 0,
        "type": "channel",
        "subtype": "noteOff",
        "noteNumber": 62,
        "velocity": 0
      },
      {
        "deltaTime": 21,
        "channel": 0,
        "type": "channel",
        "noteNumber": 54,
        "velocity": 22,
        "subtype": "noteOn"
      },
      {
        "deltaTime": 17,
        "channel": 0,
        "type": "channel",
        "subtype": "noteOff",
        "noteNumber": 54,
        "velocity": 0
      },
      {
        "deltaTime": 46,
        "channel": 0,
        "type": "channel",
        "noteNumber": 91,
        "velocity": 52,
        "subtype": "noteOn"
      },
      {
        "deltaTime": 77,
        "channel": 0,
        "type": "channel",
        "subtype": "noteOff",
        "noteNumber": 91,
        "velocity": 0
      },
      {
        "deltaTime": 2,
        "channel": 0,
        "type": "channel",
        "noteNumber": 90,
        "velocity": 53,
        "subtype": "noteOn"
      },
      {
        "deltaTime": 29,
        "channel": 0,
        "type": "channel",
        "subtype": "noteOff",
        "noteNumber": 90,
        "velocity": 0
      },
      {
        "deltaTime": 91,
        "channel": 0,
        "type": "channel",
        "noteNumber": 88,
        "velocity": 40,
        "subtype": "noteOn"
      },
      {
        "deltaTime": 26,
        "channel": 0,
        "type": "channel",
        "subtype": "noteOff",
        "noteNumber": 88,
        "velocity": 0
      },
      {
        "deltaTime": 5,
        "channel": 0,
        "type": "channel",
        "noteNumber": 88,
        "velocity": 50,
        "subtype": "noteOn"
      },
      {
        "deltaTime": 48,
        "channel": 0,
        "type": "channel",
        "subtype": "noteOff",
        "noteNumber": 88,
        "velocity": 0
      },
      {
        "deltaTime": 39,
        "channel": 0,
        "type": "channel",
        "noteNumber": 90,
        "velocity": 53,
        "subtype": "noteOn"
      },
      {
        "deltaTime": 14,
        "channel": 0,
        "type": "channel",
        "noteNumber": 61,
        "velocity": 12,
        "subtype": "noteOn"
      },
      {
        "deltaTime": 65,
        "channel": 0,
        "type": "channel",
        "subtype": "noteOff",
        "noteNumber": 90,
        "velocity": 0
      },
      {
        "deltaTime": 2,
        "channel": 0,
        "type": "channel",
        "noteNumber": 83,
        "velocity": 22,
        "subtype": "noteOn"
      },
      {
        "deltaTime": 7,
        "channel": 0,
        "type": "channel",
        "subtype": "noteOff",
        "noteNumber": 61,
        "velocity": 0
      },
      {
        "deltaTime": 0,
        "channel": 0,
        "type": "channel",
        "noteNumber": 59,
        "velocity": 25,
        "subtype": "noteOn"
      },
      {
        "deltaTime": 5,
        "channel": 0,
        "type": "channel",
        "subtype": "noteOff",
        "noteNumber": 83,
        "velocity": 0
      },
      {
        "deltaTime": 19,
        "channel": 0,
        "type": "channel",
        "subtype": "noteOff",
        "noteNumber": 59,
        "velocity": 0
      },
      {
        "deltaTime": 5,
        "channel": 0,
        "type": "channel",
        "noteNumber": 35,
        "velocity": 53,
        "subtype": "noteOn"
      },
      {
        "deltaTime": 94,
        "channel": 0,
        "type": "channel",
        "subtype": "noteOff",
        "noteNumber": 35,
        "velocity": 0
      },
      {
        "deltaTime": 17,
        "channel": 0,
        "type": "channel",
        "noteNumber": 47,
        "velocity": 51,
        "subtype": "noteOn"
      },
      {
        "deltaTime": 175,
        "channel": 0,
        "type": "channel",
        "subtype": "noteOff",
        "noteNumber": 47,
        "velocity": 0
      },
      {
        "deltaTime": 7,
        "channel": 0,
        "type": "channel",
        "noteNumber": 59,
        "velocity": 41,
        "subtype": "noteOn"
      },
      {
        "deltaTime": 101,
        "channel": 0,
        "type": "channel",
        "subtype": "noteOff",
        "noteNumber": 59,
        "velocity": 0
      },
      {
        "deltaTime": 45,
        "channel": 0,
        "type": "channel",
        "noteNumber": 36,
        "velocity": 29,
        "subtype": "noteOn"
      },
      {
        "deltaTime": 22,
        "channel": 0,
        "type": "channel",
        "subtype": "noteOff",
        "noteNumber": 36,
        "velocity": 0
      },
      {
        "deltaTime": 82,
        "channel": 0,
        "type": "channel",
        "noteNumber": 54,
        "velocity": 28,
        "subtype": "noteOn"
      },
      {
        "deltaTime": 36,
        "channel": 0,
        "type": "channel",
        "subtype": "noteOff",
        "noteNumber": 54,
        "velocity": 0
      },
      {
        "deltaTime": 7,
        "channel": 0,
        "type": "channel",
        "noteNumber": 54,
        "velocity": 34,
        "subtype": "noteOn"
      },
      {
        "deltaTime": 17,
        "channel": 0,
        "type": "channel",
        "subtype": "noteOff",
        "noteNumber": 54,
        "velocity": 0
      },
      {
        "deltaTime": 2,
        "channel": 0,
        "type": "channel",
        "noteNumber": 90,
        "velocity": 47,
        "subtype": "noteOn"
      },
      {
        "deltaTime": 137,
        "channel": 0,
        "type": "channel",
        "subtype": "noteOff",
        "noteNumber": 90,
        "velocity": 0
      },
      {
        "deltaTime": 101,
        "channel": 0,
        "type": "channel",
        "noteNumber": 88,
        "velocity": 40,
        "subtype": "noteOn"
      },
      {
        "deltaTime": 74,
        "channel": 0,
        "type": "channel",
        "noteNumber": 36,
        "velocity": 28,
        "subtype": "noteOn"
      },
      {
        "deltaTime": 2,
        "channel": 0,
        "type": "channel",
        "subtype": "noteOff",
        "noteNumber": 88,
        "velocity": 0
      },
      {
        "deltaTime": 5,
        "channel": 0,
        "type": "channel",
        "noteNumber": 90,
        "velocity": 53,
        "subtype": "noteOn"
      },
      {
        "deltaTime": 3,
        "channel": 0,
        "type": "channel",
        "subtype": "noteOff",
        "noteNumber": 36,
        "velocity": 0
      },
      {
        "deltaTime": 45,
        "channel": 0,
        "type": "channel",
        "noteNumber": 52,
        "velocity": 53,
        "subtype": "noteOn"
      },
      {
        "deltaTime": 106,
        "channel": 0,
        "type": "channel",
        "subtype": "noteOff",
        "noteNumber": 52,
        "velocity": 0
      },
      {
        "deltaTime": 5,
        "channel": 0,
        "type": "channel",
        "subtype": "noteOff",
        "noteNumber": 90,
        "velocity": 0
      },
      {
        "deltaTime": 81,
        "channel": 0,
        "type": "channel",
        "noteNumber": 88,
        "velocity": 37,
        "subtype": "noteOn"
      },
      {
        "deltaTime": 75,
        "channel": 0,
        "type": "channel",
        "subtype": "noteOff",
        "noteNumber": 88,
        "velocity": 0
      },
      {
        "deltaTime": 4,
        "channel": 0,
        "type": "channel",
        "noteNumber": 90,
        "velocity": 50,
        "subtype": "noteOn"
      },
      {
        "deltaTime": 125,
        "channel": 0,
        "type": "channel",
        "subtype": "noteOff",
        "noteNumber": 90,
        "velocity": 0
      },
      {
        "deltaTime": 7,
        "channel": 0,
        "type": "channel",
        "noteNumber": 62,
        "velocity": 31,
        "subtype": "noteOn"
      },
      {
        "deltaTime": 29,
        "channel": 0,
        "type": "channel",
        "subtype": "noteOff",
        "noteNumber": 62,
        "velocity": 0
      },
      {
        "deltaTime": 12,
        "channel": 0,
        "type": "channel",
        "noteNumber": 35,
        "velocity": 45,
        "subtype": "noteOn"
      },
      {
        "deltaTime": 118,
        "channel": 0,
        "type": "channel",
        "subtype": "noteOff",
        "noteNumber": 35,
        "velocity": 0
      },
      {
        "deltaTime": 31,
        "channel": 0,
        "type": "channel",
        "noteNumber": 35,
        "velocity": 51,
        "subtype": "noteOn"
      },
      {
        "deltaTime": 55,
        "channel": 0,
        "type": "channel",
        "subtype": "noteOff",
        "noteNumber": 35,
        "velocity": 0
      },
      {
        "deltaTime": 3,
        "channel": 0,
        "type": "channel",
        "noteNumber": 59,
        "velocity": 28,
        "subtype": "noteOn"
      },
      {
        "deltaTime": 76,
        "channel": 0,
        "type": "channel",
        "noteNumber": 83,
        "velocity": 25,
        "subtype": "noteOn"
      },
      {
        "deltaTime": 12,
        "channel": 0,
        "type": "channel",
        "subtype": "noteOff",
        "noteNumber": 83,
        "velocity": 0
      },
      {
        "deltaTime": 5,
        "channel": 0,
        "type": "channel",
        "noteNumber": 83,
        "velocity": 38,
        "subtype": "noteOn"
      },
      {
        "deltaTime": 7,
        "channel": 0,
        "type": "channel",
        "subtype": "noteOff",
        "noteNumber": 59,
        "velocity": 0
      },
      {
        "deltaTime": 5,
        "channel": 0,
        "type": "channel",
        "subtype": "noteOff",
        "noteNumber": 83,
        "velocity": 0
      },
      {
        "deltaTime": 29,
        "channel": 0,
        "type": "channel",
        "noteNumber": 33,
        "velocity": 34,
        "subtype": "noteOn"
      },
      {
        "deltaTime": 132,
        "channel": 0,
        "type": "channel",
        "subtype": "noteOff",
        "noteNumber": 33,
        "velocity": 0
      },
      {
        "deltaTime": 41,
        "channel": 0,
        "type": "channel",
        "noteNumber": 50,
        "velocity": 47,
        "subtype": "noteOn"
      },
      {
        "deltaTime": 69,
        "channel": 0,
        "type": "channel",
        "subtype": "noteOff",
        "noteNumber": 50,
        "velocity": 0
      },
      {
        "deltaTime": 12,
        "channel": 0,
        "type": "channel",
        "noteNumber": 50,
        "velocity": 38,
        "subtype": "noteOn"
      },
      {
        "deltaTime": 29,
        "channel": 0,
        "type": "channel",
        "subtype": "noteOff",
        "noteNumber": 50,
        "velocity": 0
      },
      {
        "deltaTime": 84,
        "channel": 0,
        "type": "channel",
        "noteNumber": 88,
        "velocity": 38,
        "subtype": "noteOn"
      },
      {
        "deltaTime": 75,
        "channel": 0,
        "type": "channel",
        "subtype": "noteOff",
        "noteNumber": 88,
        "velocity": 0
      },
      {
        "deltaTime": 105,
        "channel": 0,
        "type": "channel",
        "noteNumber": 52,
        "velocity": 53,
        "subtype": "noteOn"
      },
      {
        "deltaTime": 60,
        "channel": 0,
        "type": "channel",
        "subtype": "noteOff",
        "noteNumber": 52,
        "velocity": 0
      },
      {
        "deltaTime": 180,
        "channel": 0,
        "type": "channel",
        "noteNumber": 47,
        "velocity": 50,
        "subtype": "noteOn"
      },
      {
        "deltaTime": 99,
        "channel": 0,
        "type": "channel",
        "subtype": "noteOff",
        "noteNumber": 47,
        "velocity": 0
      },
      {
        "deltaTime": 43,
        "channel": 0,
        "type": "channel",
        "noteNumber": 33,
        "velocity": 17,
        "subtype": "noteOn"
      },
      {
        "deltaTime": 9,
        "channel": 0,
        "type": "channel",
        "subtype": "noteOff",
        "noteNumber": 33,
        "velocity": 0
      },
      {
        "deltaTime": 3,
        "channel": 0,
        "type": "channel",
        "noteNumber": 47,
        "velocity": 36,
        "subtype": "noteOn"
      },
      {
        "deltaTime": 108,
        "channel": 0,
        "type": "channel",
        "subtype": "noteOff",
        "noteNumber": 47,
        "velocity": 0
      },
      {
        "deltaTime": 0,
        "channel": 0,
        "type": "channel",
        "noteNumber": 66,
        "velocity": 10,
        "subtype": "noteOn"
      },
      {
        "deltaTime": 43,
        "channel": 0,
        "type": "channel",
        "subtype": "noteOff",
        "noteNumber": 66,
        "velocity": 0
      },
      {
        "deltaTime": 0,
        "channel": 0,
        "type": "channel",
        "noteNumber": 47,
        "velocity": 37,
        "subtype": "noteOn"
      },
      {
        "deltaTime": 31,
        "channel": 0,
        "type": "channel",
        "subtype": "noteOff",
        "noteNumber": 47,
        "velocity": 0
      },
      {
        "deltaTime": 48,
        "channel": 0,
        "type": "channel",
        "noteNumber": 83,
        "velocity": 30,
        "subtype": "noteOn"
      },
      {
        "deltaTime": 29,
        "channel": 0,
        "type": "channel",
        "subtype": "noteOff",
        "noteNumber": 83,
        "velocity": 0
      },
      {
        "deltaTime": 29,
        "channel": 0,
        "type": "channel",
        "noteNumber": 83,
        "velocity": 37,
        "subtype": "noteOn"
      },
      {
        "deltaTime": 14,
        "channel": 0,
        "type": "channel",
        "subtype": "noteOff",
        "noteNumber": 83,
        "velocity": 0
      },
      {
        "deltaTime": 3,
        "channel": 0,
        "type": "channel",
        "noteNumber": 95,
        "velocity": 58,
        "subtype": "noteOn"
      },
      {
        "deltaTime": 31,
        "channel": 0,
        "type": "channel",
        "noteNumber": 38,
        "velocity": 61,
        "subtype": "noteOn"
      },
      {
        "deltaTime": 24,
        "channel": 0,
        "type": "channel",
        "subtype": "noteOff",
        "noteNumber": 95,
        "velocity": 0
      },
      {
        "deltaTime": 24,
        "channel": 0,
        "type": "channel",
        "noteNumber": 93,
        "velocity": 44,
        "subtype": "noteOn"
      },
      {
        "deltaTime": 74,
        "channel": 0,
        "type": "channel",
        "subtype": "noteOff",
        "noteNumber": 93,
        "velocity": 0
      },
      {
        "deltaTime": 91,
        "channel": 0,
        "type": "channel",
        "subtype": "noteOff",
        "noteNumber": 38,
        "velocity": 0
      },
      {
        "deltaTime": 197,
        "channel": 0,
        "type": "channel",
        "noteNumber": 90,
        "velocity": 54,
        "subtype": "noteOn"
      },
      {
        "deltaTime": 31,
        "channel": 0,
        "type": "channel",
        "noteNumber": 43,
        "velocity": 35,
        "subtype": "noteOn"
      },
      {
        "deltaTime": 5,
        "channel": 0,
        "type": "channel",
        "subtype": "noteOff",
        "noteNumber": 90,
        "velocity": 0
      },
      {
        "deltaTime": 5,
        "channel": 0,
        "type": "channel",
        "noteNumber": 88,
        "velocity": 40,
        "subtype": "noteOn"
      },
      {
        "deltaTime": 5,
        "channel": 0,
        "type": "channel",
        "subtype": "noteOff",
        "noteNumber": 43,
        "velocity": 0
      },
      {
        "deltaTime": 33,
        "channel": 0,
        "type": "channel",
        "subtype": "noteOff",
        "noteNumber": 88,
        "velocity": 0
      },
      {
        "deltaTime": 0,
        "channel": 0,
        "type": "channel",
        "noteNumber": 52,
        "velocity": 30,
        "subtype": "noteOn"
      },
      {
        "deltaTime": 77,
        "channel": 0,
        "type": "channel",
        "subtype": "noteOff",
        "noteNumber": 52,
        "velocity": 0
      },
      {
        "deltaTime": 39,
        "channel": 0,
        "type": "channel",
        "noteNumber": 36,
        "velocity": 28,
        "subtype": "noteOn"
      },
      {
        "deltaTime": 19,
        "channel": 0,
        "type": "channel",
        "subtype": "noteOff",
        "noteNumber": 36,
        "velocity": 0
      },
      {
        "deltaTime": 5,
        "channel": 0,
        "type": "channel",
        "noteNumber": 52,
        "velocity": 21,
        "subtype": "noteOn"
      },
      {
        "deltaTime": 19,
        "channel": 0,
        "type": "channel",
        "subtype": "noteOff",
        "noteNumber": 52,
        "velocity": 0
      },
      {
        "deltaTime": 0,
        "channel": 0,
        "type": "channel",
        "noteNumber": 33,
        "velocity": 13,
        "subtype": "noteOn"
      },
      {
        "deltaTime": 9,
        "channel": 0,
        "type": "channel",
        "subtype": "noteOff",
        "noteNumber": 33,
        "velocity": 0
      },
      {
        "deltaTime": 116,
        "channel": 0,
        "type": "channel",
        "noteNumber": 78,
        "velocity": 11,
        "subtype": "noteOn"
      },
      {
        "deltaTime": 14,
        "channel": 0,
        "type": "channel",
        "subtype": "noteOff",
        "noteNumber": 78,
        "velocity": 0
      },
      {
        "deltaTime": 50,
        "channel": 0,
        "type": "channel",
        "noteNumber": 35,
        "velocity": 41,
        "subtype": "noteOn"
      },
      {
        "deltaTime": 63,
        "channel": 0,
        "type": "channel",
        "subtype": "noteOff",
        "noteNumber": 35,
        "velocity": 0
      },
      {
        "deltaTime": 14,
        "channel": 0,
        "type": "channel",
        "noteNumber": 35,
        "velocity": 39,
        "subtype": "noteOn"
      },
      {
        "deltaTime": 17,
        "channel": 0,
        "type": "channel",
        "subtype": "noteOff",
        "noteNumber": 35,
        "velocity": 0
      },
      {
        "deltaTime": 10,
        "channel": 0,
        "type": "channel",
        "noteNumber": 35,
        "velocity": 38,
        "subtype": "noteOn"
      },
      {
        "deltaTime": 67,
        "channel": 0,
        "type": "channel",
        "subtype": "noteOff",
        "noteNumber": 35,
        "velocity": 0
      },
      {
        "deltaTime": 77,
        "channel": 0,
        "type": "channel",
        "noteNumber": 47,
        "velocity": 47,
        "subtype": "noteOn"
      },
      {
        "deltaTime": 122,
        "channel": 0,
        "type": "channel",
        "subtype": "noteOff",
        "noteNumber": 47,
        "velocity": 0
      },
      {
        "deltaTime": 14,
        "channel": 0,
        "type": "channel",
        "noteNumber": 62,
        "velocity": 37,
        "subtype": "noteOn"
      },
      {
        "deltaTime": 24,
        "channel": 0,
        "type": "channel",
        "subtype": "noteOff",
        "noteNumber": 62,
        "velocity": 0
      },
      {
        "deltaTime": 17,
        "channel": 0,
        "type": "channel",
        "noteNumber": 66,
        "velocity": 48,
        "subtype": "noteOn"
      },
      {
        "deltaTime": 70,
        "channel": 0,
        "type": "channel",
        "noteNumber": 85,
        "velocity": 33,
        "subtype": "noteOn"
      },
      {
        "deltaTime": 17,
        "channel": 0,
        "type": "channel",
        "subtype": "noteOff",
        "noteNumber": 85,
        "velocity": 0
      },
      {
        "deltaTime": 62,
        "channel": 0,
        "type": "channel",
        "noteNumber": 86,
        "velocity": 34,
        "subtype": "noteOn"
      },
      {
        "deltaTime": 2,
        "channel": 0,
        "type": "channel",
        "subtype": "noteOff",
        "noteNumber": 66,
        "velocity": 0
      },
      {
        "deltaTime": 8,
        "channel": 0,
        "type": "channel",
        "noteNumber": 55,
        "velocity": 45,
        "subtype": "noteOn"
      },
      {
        "deltaTime": 19,
        "channel": 0,
        "type": "channel",
        "subtype": "noteOff",
        "noteNumber": 86,
        "velocity": 0
      },
      {
        "deltaTime": 9,
        "channel": 0,
        "type": "channel",
        "subtype": "noteOff",
        "noteNumber": 55,
        "velocity": 0
      },
      {
        "deltaTime": 3,
        "channel": 0,
        "type": "channel",
        "noteNumber": 50,
        "velocity": 36,
        "subtype": "noteOn"
      },
      {
        "deltaTime": 74,
        "channel": 0,
        "type": "channel",
        "subtype": "noteOff",
        "noteNumber": 50,
        "velocity": 0
      },
      {
        "deltaTime": 19,
        "channel": 0,
        "type": "channel",
        "noteNumber": 59,
        "velocity": 26,
        "subtype": "noteOn"
      },
      {
        "deltaTime": 22,
        "channel": 0,
        "type": "channel",
        "subtype": "noteOff",
        "noteNumber": 59,
        "velocity": 0
      },
      {
        "deltaTime": 84,
        "channel": 0,
        "type": "channel",
        "noteNumber": 86,
        "velocity": 39,
        "subtype": "noteOn"
      },
      {
        "deltaTime": 70,
        "channel": 0,
        "type": "channel",
        "subtype": "noteOff",
        "noteNumber": 86,
        "velocity": 0
      },
      {
        "deltaTime": 132,
        "channel": 0,
        "type": "channel",
        "noteNumber": 90,
        "velocity": 52,
        "subtype": "noteOn"
      },
      {
        "deltaTime": 28,
        "channel": 0,
        "type": "channel",
        "subtype": "noteOff",
        "noteNumber": 90,
        "velocity": 0
      },
      {
        "deltaTime": 12,
        "channel": 0,
        "type": "channel",
        "noteNumber": 45,
        "velocity": 49,
        "subtype": "noteOn"
      },
      {
        "deltaTime": 20,
        "channel": 0,
        "type": "channel",
        "subtype": "noteOff",
        "noteNumber": 45,
        "velocity": 0
      },
      {
        "deltaTime": 84,
        "channel": 0,
        "type": "channel",
        "noteNumber": 61,
        "velocity": 27,
        "subtype": "noteOn"
      },
      {
        "deltaTime": 48,
        "channel": 0,
        "type": "channel",
        "subtype": "noteOff",
        "noteNumber": 61,
        "velocity": 0
      },
      {
        "deltaTime": 4,
        "channel": 0,
        "type": "channel",
        "noteNumber": 61,
        "velocity": 20,
        "subtype": "noteOn"
      },
      {
        "deltaTime": 29,
        "channel": 0,
        "type": "channel",
        "subtype": "noteOff",
        "noteNumber": 61,
        "velocity": 0
      },
      {
        "deltaTime": 17,
        "channel": 0,
        "type": "channel",
        "noteNumber": 35,
        "velocity": 42,
        "subtype": "noteOn"
      },
      {
        "deltaTime": 276,
        "channel": 0,
        "type": "channel",
        "noteNumber": 59,
        "velocity": 39,
        "subtype": "noteOn"
      },
      {
        "deltaTime": 10,
        "channel": 0,
        "type": "channel",
        "subtype": "noteOff",
        "noteNumber": 35,
        "velocity": 0
      },
      {
        "deltaTime": 117,
        "channel": 0,
        "type": "channel",
        "noteNumber": 62,
        "velocity": 32,
        "subtype": "noteOn"
      },
      {
        "deltaTime": 27,
        "channel": 0,
        "type": "channel",
        "subtype": "noteOff",
        "noteNumber": 62,
        "velocity": 0
      },
      {
        "deltaTime": 55,
        "channel": 0,
        "type": "channel",
        "noteNumber": 54,
        "velocity": 26,
        "subtype": "noteOn"
      },
      {
        "deltaTime": 105,
        "channel": 0,
        "type": "channel",
        "subtype": "noteOff",
        "noteNumber": 59,
        "velocity": 0
      },
      {
        "deltaTime": 3,
        "channel": 0,
        "type": "channel",
        "subtype": "noteOff",
        "noteNumber": 54,
        "velocity": 0
      },
      {
        "deltaTime": 53,
        "channel": 0,
        "type": "channel",
        "noteNumber": 59,
        "velocity": 39,
        "subtype": "noteOn"
      },
      {
        "deltaTime": 112,
        "channel": 0,
        "type": "channel",
        "subtype": "noteOff",
        "noteNumber": 59,
        "velocity": 0
      },
      {
        "deltaTime": 0,
        "channel": 0,
        "type": "channel",
        "noteNumber": 85,
        "velocity": 45,
        "subtype": "noteOn"
      },
      {
        "deltaTime": 24,
        "channel": 0,
        "type": "channel",
        "subtype": "noteOff",
        "noteNumber": 85,
        "velocity": 0
      },
      {
        "deltaTime": 15,
        "channel": 0,
        "type": "channel",
        "noteNumber": 86,
        "velocity": 27,
        "subtype": "noteOn"
      },
      {
        "deltaTime": 36,
        "channel": 0,
        "type": "channel",
        "subtype": "noteOff",
        "noteNumber": 86,
        "velocity": 0
      },
      {
        "deltaTime": 5,
        "channel": 0,
        "type": "channel",
        "noteNumber": 85,
        "velocity": 22,
        "subtype": "noteOn"
      },
      {
        "deltaTime": 26,
        "channel": 0,
        "type": "channel",
        "subtype": "noteOff",
        "noteNumber": 85,
        "velocity": 0
      },
      {
        "deltaTime": 12,
        "channel": 0,
        "type": "channel",
        "noteNumber": 86,
        "velocity": 31,
        "subtype": "noteOn"
      },
      {
        "deltaTime": 14,
        "channel": 0,
        "type": "channel",
        "noteNumber": 43,
        "velocity": 20,
        "subtype": "noteOn"
      },
      {
        "deltaTime": 22,
        "channel": 0,
        "type": "channel",
        "subtype": "noteOff",
        "noteNumber": 86,
        "velocity": 0
      },
      {
        "deltaTime": 5,
        "channel": 0,
        "type": "channel",
        "noteNumber": 85,
        "velocity": 29,
        "subtype": "noteOn"
      },
      {
        "deltaTime": 5,
        "channel": 0,
        "type": "channel",
        "subtype": "noteOff",
        "noteNumber": 43,
        "velocity": 0
      },
      {
        "deltaTime": 31,
        "channel": 0,
        "type": "channel",
        "subtype": "noteOff",
        "noteNumber": 85,
        "velocity": 0
      },
      {
        "deltaTime": 5,
        "channel": 0,
        "type": "channel",
        "noteNumber": 86,
        "velocity": 30,
        "subtype": "noteOn"
      },
      {
        "deltaTime": 26,
        "channel": 0,
        "type": "channel",
        "subtype": "noteOff",
        "noteNumber": 86,
        "velocity": 0
      },
      {
        "deltaTime": 19,
        "channel": 0,
        "type": "channel",
        "noteNumber": 61,
        "velocity": 33,
        "subtype": "noteOn"
      },
      {
        "deltaTime": 70,
        "channel": 0,
        "type": "channel",
        "subtype": "noteOff",
        "noteNumber": 61,
        "velocity": 0
      },
      {
        "deltaTime": 29,
        "channel": 0,
        "type": "channel",
        "noteNumber": 52,
        "velocity": 27,
        "subtype": "noteOn"
      },
      {
        "deltaTime": 12,
        "channel": 0,
        "type": "channel",
        "subtype": "noteOff",
        "noteNumber": 52,
        "velocity": 0
      },
      {
        "deltaTime": 132,
        "channel": 0,
        "type": "channel",
        "noteNumber": 59,
        "velocity": 17,
        "subtype": "noteOn"
      },
      {
        "deltaTime": 28,
        "channel": 0,
        "type": "channel",
        "subtype": "noteOff",
        "noteNumber": 59,
        "velocity": 0
      },
      {
        "deltaTime": 15,
        "channel": 0,
        "type": "channel",
        "noteNumber": 35,
        "velocity": 50,
        "subtype": "noteOn"
      },
      {
        "deltaTime": 74,
        "channel": 0,
        "type": "channel",
        "subtype": "noteOff",
        "noteNumber": 35,
        "velocity": 0
      },
      {
        "deltaTime": 34,
        "channel": 0,
        "type": "channel",
        "noteNumber": 85,
        "velocity": 36,
        "subtype": "noteOn"
      },
      {
        "deltaTime": 29,
        "channel": 0,
        "type": "channel",
        "subtype": "noteOff",
        "noteNumber": 85,
        "velocity": 0
      },
      {
        "deltaTime": 55,
        "channel": 0,
        "type": "channel",
        "noteNumber": 66,
        "velocity": 46,
        "subtype": "noteOn"
      },
      {
        "deltaTime": 127,
        "channel": 0,
        "type": "channel",
        "subtype": "noteOff",
        "noteNumber": 66,
        "velocity": 0
      },
      {
        "deltaTime": 125,
        "channel": 0,
        "type": "channel",
        "noteNumber": 54,
        "velocity": 37,
        "subtype": "noteOn"
      },
      {
        "deltaTime": 9,
        "channel": 0,
        "type": "channel",
        "noteNumber": 106,
        "velocity": 38,
        "subtype": "noteOn"
      },
      {
        "deltaTime": 5,
        "channel": 0,
        "type": "channel",
        "subtype": "noteOff",
        "noteNumber": 54,
        "velocity": 0
      },
      {
        "deltaTime": 175,
        "channel": 0,
        "type": "channel",
        "subtype": "noteOff",
        "noteNumber": 106,
        "velocity": 0
      },
      {
        "deltaTime": 116,
        "channel": 0,
        "type": "channel",
        "noteNumber": 85,
        "velocity": 48,
        "subtype": "noteOn"
      },
      {
        "deltaTime": 21,
        "channel": 0,
        "type": "channel",
        "subtype": "noteOff",
        "noteNumber": 85,
        "velocity": 0
      },
      {
        "deltaTime": 96,
        "channel": 0,
        "type": "channel",
        "noteNumber": 86,
        "velocity": 30,
        "subtype": "noteOn"
      },
      {
        "deltaTime": 24,
        "channel": 0,
        "type": "channel",
        "subtype": "noteOff",
        "noteNumber": 86,
        "velocity": 0
      },
      {
        "deltaTime": 55,
        "channel": 0,
        "type": "channel",
        "noteNumber": 86,
        "velocity": 28,
        "subtype": "noteOn"
      },
      {
        "deltaTime": 22,
        "channel": 0,
        "type": "channel",
        "subtype": "noteOff",
        "noteNumber": 86,
        "velocity": 0
      },
      {
        "deltaTime": 0,
        "channel": 0,
        "type": "channel",
        "noteNumber": 52,
        "velocity": 49,
        "subtype": "noteOn"
      },
      {
        "deltaTime": 98,
        "channel": 0,
        "type": "channel",
        "subtype": "noteOff",
        "noteNumber": 52,
        "velocity": 0
      },
      {
        "deltaTime": 41,
        "channel": 0,
        "type": "channel",
        "noteNumber": 86,
        "velocity": 32,
        "subtype": "noteOn"
      },
      {
        "deltaTime": 22,
        "channel": 0,
        "type": "channel",
        "subtype": "noteOff",
        "noteNumber": 86,
        "velocity": 0
      },
      {
        "deltaTime": 5,
        "channel": 0,
        "type": "channel",
        "noteNumber": 33,
        "velocity": 29,
        "subtype": "noteOn"
      },
      {
        "deltaTime": 55,
        "channel": 0,
        "type": "channel",
        "noteNumber": 90,
        "velocity": 45,
        "subtype": "noteOn"
      },
      {
        "deltaTime": 48,
        "channel": 0,
        "type": "channel",
        "subtype": "noteOff",
        "noteNumber": 33,
        "velocity": 0
      },
      {
        "deltaTime": 31,
        "channel": 0,
        "type": "channel",
        "subtype": "noteOff",
        "noteNumber": 90,
        "velocity": 0
      },
      {
        "deltaTime": 14,
        "channel": 0,
        "type": "channel",
        "noteNumber": 35,
        "velocity": 49,
        "subtype": "noteOn"
      },
      {
        "deltaTime": 77,
        "channel": 0,
        "type": "channel",
        "subtype": "noteOff",
        "noteNumber": 35,
        "velocity": 0
      },
      {
        "deltaTime": 12,
        "channel": 0,
        "type": "channel",
        "noteNumber": 35,
        "velocity": 52,
        "subtype": "noteOn"
      },
      {
        "deltaTime": 147,
        "channel": 0,
        "type": "channel",
        "subtype": "noteOff",
        "noteNumber": 35,
        "velocity": 0
      },
      {
        "deltaTime": 36,
        "channel": 0,
        "type": "channel",
        "noteNumber": 47,
        "velocity": 36,
        "subtype": "noteOn"
      },
      {
        "deltaTime": 31,
        "channel": 0,
        "type": "channel",
        "subtype": "noteOff",
        "noteNumber": 47,
        "velocity": 0
      },
      {
        "deltaTime": 93,
        "channel": 0,
        "type": "channel",
        "noteNumber": 62,
        "velocity": 36,
        "subtype": "noteOn"
      },
      {
        "deltaTime": 27,
        "channel": 0,
        "type": "channel",
        "subtype": "noteOff",
        "noteNumber": 62,
        "velocity": 0
      },
      {
        "deltaTime": 5,
        "channel": 0,
        "type": "channel",
        "noteNumber": 86,
        "velocity": 43,
        "subtype": "noteOn"
      },
      {
        "deltaTime": 19,
        "channel": 0,
        "type": "channel",
        "noteNumber": 106,
        "velocity": 30,
        "subtype": "noteOn"
      },
      {
        "deltaTime": 12,
        "channel": 0,
        "type": "channel",
        "subtype": "noteOff",
        "noteNumber": 106,
        "velocity": 0
      },
      {
        "deltaTime": 0,
        "channel": 0,
        "type": "channel",
        "noteNumber": 38,
        "velocity": 60,
        "subtype": "noteOn"
      },
      {
        "deltaTime": 12,
        "channel": 0,
        "type": "channel",
        "subtype": "noteOff",
        "noteNumber": 86,
        "velocity": 0
      },
      {
        "deltaTime": 7,
        "channel": 0,
        "type": "channel",
        "noteNumber": 66,
        "velocity": 48,
        "subtype": "noteOn"
      },
      {
        "deltaTime": 103,
        "channel": 0,
        "type": "channel",
        "subtype": "noteOff",
        "noteNumber": 66,
        "velocity": 0
      },
      {
        "deltaTime": 96,
        "channel": 0,
        "type": "channel",
        "subtype": "noteOff",
        "noteNumber": 38,
        "velocity": 0
      },
      {
        "deltaTime": 70,
        "channel": 0,
        "type": "channel",
        "noteNumber": 85,
        "velocity": 40,
        "subtype": "noteOn"
      },
      {
        "deltaTime": 24,
        "channel": 0,
        "type": "channel",
        "subtype": "noteOff",
        "noteNumber": 85,
        "velocity": 0
      },
      {
        "deltaTime": 137,
        "channel": 0,
        "type": "channel",
        "noteNumber": 85,
        "velocity": 19,
        "subtype": "noteOn"
      },
      {
        "deltaTime": 21,
        "channel": 0,
        "type": "channel",
        "subtype": "noteOff",
        "noteNumber": 85,
        "velocity": 0
      },
      {
        "deltaTime": 39,
        "channel": 0,
        "type": "channel",
        "noteNumber": 52,
        "velocity": 29,
        "subtype": "noteOn"
      },
      {
        "deltaTime": 55,
        "channel": 0,
        "type": "channel",
        "subtype": "noteOff",
        "noteNumber": 52,
        "velocity": 0
      },
      {
        "deltaTime": 31,
        "channel": 0,
        "type": "channel",
        "noteNumber": 52,
        "velocity": 51,
        "subtype": "noteOn"
      },
      {
        "deltaTime": 10,
        "channel": 0,
        "type": "channel",
        "subtype": "noteOff",
        "noteNumber": 52,
        "velocity": 0
      },
      {
        "deltaTime": 72,
        "channel": 0,
        "type": "channel",
        "noteNumber": 64,
        "velocity": 20,
        "subtype": "noteOn"
      },
      {
        "deltaTime": 86,
        "channel": 0,
        "type": "channel",
        "subtype": "noteOff",
        "noteNumber": 64,
        "velocity": 0
      },
      {
        "deltaTime": 5,
        "channel": 0,
        "type": "channel",
        "noteNumber": 85,
        "velocity": 17,
        "subtype": "noteOn"
      },
      {
        "deltaTime": 9,
        "channel": 0,
        "type": "channel",
        "noteNumber": 59,
        "velocity": 37,
        "subtype": "noteOn"
      },
      {
        "deltaTime": 15,
        "channel": 0,
        "type": "channel",
        "subtype": "noteOff",
        "noteNumber": 85,
        "velocity": 0
      },
      {
        "deltaTime": 9,
        "channel": 0,
        "type": "channel",
        "subtype": "noteOff",
        "noteNumber": 59,
        "velocity": 0
      },
      {
        "deltaTime": 15,
        "channel": 0,
        "type": "channel",
        "noteNumber": 35,
        "velocity": 58,
        "subtype": "noteOn"
      },
      {
        "deltaTime": 269,
        "channel": 0,
        "type": "channel",
        "noteNumber": 47,
        "velocity": 56,
        "subtype": "noteOn"
      },
      {
        "deltaTime": 38,
        "channel": 0,
        "type": "channel",
        "subtype": "noteOff",
        "noteNumber": 47,
        "velocity": 0
      },
      {
        "deltaTime": 10,
        "channel": 0,
        "type": "channel",
        "subtype": "noteOff",
        "noteNumber": 35,
        "velocity": 0
      },
      {
        "deltaTime": 132,
        "channel": 0,
        "type": "channel",
        "noteNumber": 106,
        "velocity": 33,
        "subtype": "noteOn"
      },
      {
        "deltaTime": 172,
        "channel": 0,
        "type": "channel",
        "subtype": "noteOff",
        "noteNumber": 106,
        "velocity": 0
      },
      {
        "deltaTime": 15,
        "channel": 0,
        "type": "channel",
        "noteNumber": 50,
        "velocity": 44,
        "subtype": "noteOn"
      },
      {
        "deltaTime": 69,
        "channel": 0,
        "type": "channel",
        "subtype": "noteOff",
        "noteNumber": 50,
        "velocity": 0
      },
      {
        "deltaTime": 15,
        "channel": 0,
        "type": "channel",
        "noteNumber": 50,
        "velocity": 29,
        "subtype": "noteOn"
      },
      {
        "deltaTime": 29,
        "channel": 0,
        "type": "channel",
        "subtype": "noteOff",
        "noteNumber": 50,
        "velocity": 0
      },
      {
        "deltaTime": 57,
        "channel": 0,
        "type": "channel",
        "noteNumber": 62,
        "velocity": 29,
        "subtype": "noteOn"
      },
      {
        "deltaTime": 31,
        "channel": 0,
        "type": "channel",
        "subtype": "noteOff",
        "noteNumber": 62,
        "velocity": 0
      },
      {
        "deltaTime": 8,
        "channel": 0,
        "type": "channel",
        "noteNumber": 62,
        "velocity": 42,
        "subtype": "noteOn"
      },
      {
        "deltaTime": 69,
        "channel": 0,
        "type": "channel",
        "subtype": "noteOff",
        "noteNumber": 62,
        "velocity": 0
      },
      {
        "deltaTime": 5,
        "channel": 0,
        "type": "channel",
        "noteNumber": 57,
        "velocity": 38,
        "subtype": "noteOn"
      },
      {
        "deltaTime": 26,
        "channel": 0,
        "type": "channel",
        "subtype": "noteOff",
        "noteNumber": 57,
        "velocity": 0
      },
      {
        "deltaTime": 24,
        "channel": 0,
        "type": "channel",
        "noteNumber": 52,
        "velocity": 36,
        "subtype": "noteOn"
      },
      {
        "deltaTime": 58,
        "channel": 0,
        "type": "channel",
        "subtype": "noteOff",
        "noteNumber": 52,
        "velocity": 0
      },
      {
        "deltaTime": 19,
        "channel": 0,
        "type": "channel",
        "noteNumber": 61,
        "velocity": 39,
        "subtype": "noteOn"
      },
      {
        "deltaTime": 58,
        "channel": 0,
        "type": "channel",
        "subtype": "noteOff",
        "noteNumber": 61,
        "velocity": 0
      },
      {
        "deltaTime": 33,
        "channel": 0,
        "type": "channel",
        "noteNumber": 61,
        "velocity": 26,
        "subtype": "noteOn"
      },
      {
        "deltaTime": 87,
        "channel": 0,
        "type": "channel",
        "subtype": "noteOff",
        "noteNumber": 61,
        "velocity": 0
      },
      {
        "deltaTime": 9,
        "channel": 0,
        "type": "channel",
        "noteNumber": 83,
        "velocity": 13,
        "subtype": "noteOn"
      },
      {
        "deltaTime": 10,
        "channel": 0,
        "type": "channel",
        "noteNumber": 59,
        "velocity": 29,
        "subtype": "noteOn"
      },
      {
        "deltaTime": 5,
        "channel": 0,
        "type": "channel",
        "subtype": "noteOff",
        "noteNumber": 83,
        "velocity": 0
      },
      {
        "deltaTime": 19,
        "channel": 0,
        "type": "channel",
        "subtype": "noteOff",
        "noteNumber": 59,
        "velocity": 0
      },
      {
        "deltaTime": 10,
        "channel": 0,
        "type": "channel",
        "noteNumber": 35,
        "velocity": 57,
        "subtype": "noteOn"
      },
      {
        "deltaTime": 319,
        "channel": 0,
        "type": "channel",
        "subtype": "noteOff",
        "noteNumber": 35,
        "velocity": 0
      },
      {
        "deltaTime": 110,
        "channel": 0,
        "type": "channel",
        "noteNumber": 71,
        "velocity": 41,
        "subtype": "noteOn"
      },
      {
        "deltaTime": 29,
        "channel": 0,
        "type": "channel",
        "subtype": "noteOff",
        "noteNumber": 71,
        "velocity": 0
      },
      {
        "deltaTime": 24,
        "channel": 0,
        "type": "channel",
        "noteNumber": 59,
        "velocity": 28,
        "subtype": "noteOn"
      },
      {
        "deltaTime": 108,
        "channel": 0,
        "type": "channel",
        "subtype": "noteOff",
        "noteNumber": 59,
        "velocity": 0
      },
      {
        "deltaTime": 5,
        "channel": 0,
        "type": "channel",
        "noteNumber": 85,
        "velocity": 24,
        "subtype": "noteOn"
      },
      {
        "deltaTime": 9,
        "channel": 0,
        "type": "channel",
        "noteNumber": 55,
        "velocity": 36,
        "subtype": "noteOn"
      },
      {
        "deltaTime": 15,
        "channel": 0,
        "type": "channel",
        "subtype": "noteOff",
        "noteNumber": 85,
        "velocity": 0
      },
      {
        "deltaTime": 14,
        "channel": 0,
        "type": "channel",
        "subtype": "noteOff",
        "noteNumber": 55,
        "velocity": 0
      },
      {
        "deltaTime": 123,
        "channel": 0,
        "type": "channel",
        "noteNumber": 85,
        "velocity": 45,
        "subtype": "noteOn"
      },
      {
        "deltaTime": 28,
        "channel": 0,
        "type": "channel",
        "subtype": "noteOff",
        "noteNumber": 85,
        "velocity": 0
      },
      {
        "deltaTime": 89,
        "channel": 0,
        "type": "channel",
        "noteNumber": 86,
        "velocity": 32,
        "subtype": "noteOn"
      },
      {
        "deltaTime": 36,
        "channel": 0,
        "type": "channel",
        "subtype": "noteOff",
        "noteNumber": 86,
        "velocity": 0
      },
      {
        "deltaTime": 65,
        "channel": 0,
        "type": "channel",
        "noteNumber": 52,
        "velocity": 44,
        "subtype": "noteOn"
      },
      {
        "deltaTime": 58,
        "channel": 0,
        "type": "channel",
        "subtype": "noteOff",
        "noteNumber": 52,
        "velocity": 0
      },
      {
        "deltaTime": 28,
        "channel": 0,
        "type": "channel",
        "noteNumber": 52,
        "velocity": 52,
        "subtype": "noteOn"
      },
      {
        "deltaTime": 12,
        "channel": 0,
        "type": "channel",
        "subtype": "noteOff",
        "noteNumber": 52,
        "velocity": 0
      },
      {
        "deltaTime": 51,
        "channel": 0,
        "type": "channel",
        "noteNumber": 64,
        "velocity": 14,
        "subtype": "noteOn"
      },
      {
        "deltaTime": 105,
        "channel": 0,
        "type": "channel",
        "subtype": "noteOff",
        "noteNumber": 64,
        "velocity": 0
      },
      {
        "deltaTime": 5,
        "channel": 0,
        "type": "channel",
        "noteNumber": 85,
        "velocity": 24,
        "subtype": "noteOn"
      },
      {
        "deltaTime": 29,
        "channel": 0,
        "type": "channel",
        "subtype": "noteOff",
        "noteNumber": 85,
        "velocity": 0
      },
      {
        "deltaTime": 12,
        "channel": 0,
        "type": "channel",
        "noteNumber": 86,
        "velocity": 24,
        "subtype": "noteOn"
      },
      {
        "deltaTime": 22,
        "channel": 0,
        "type": "channel",
        "subtype": "noteOff",
        "noteNumber": 86,
        "velocity": 0
      },
      {
        "deltaTime": 98,
        "channel": 0,
        "type": "channel",
        "noteNumber": 85,
        "velocity": 47,
        "subtype": "noteOn"
      },
      {
        "deltaTime": 24,
        "channel": 0,
        "type": "channel",
        "subtype": "noteOff",
        "noteNumber": 85,
        "velocity": 0
      },
      {
        "deltaTime": 46,
        "channel": 0,
        "type": "channel",
        "noteNumber": 47,
        "velocity": 32,
        "subtype": "noteOn"
      },
      {
        "deltaTime": 50,
        "channel": 0,
        "type": "channel",
        "subtype": "noteOff",
        "noteNumber": 47,
        "velocity": 0
      },
      {
        "deltaTime": 14,
        "channel": 0,
        "type": "channel",
        "noteNumber": 47,
        "velocity": 33,
        "subtype": "noteOn"
      },
      {
        "deltaTime": 17,
        "channel": 0,
        "type": "channel",
        "subtype": "noteOff",
        "noteNumber": 47,
        "velocity": 0
      },
      {
        "deltaTime": 3,
        "channel": 0,
        "type": "channel",
        "noteNumber": 47,
        "velocity": 35,
        "subtype": "noteOn"
      },
      {
        "deltaTime": 43,
        "channel": 0,
        "type": "channel",
        "subtype": "noteOff",
        "noteNumber": 47,
        "velocity": 0
      },
      {
        "deltaTime": 38,
        "channel": 0,
        "type": "channel",
        "noteNumber": 47,
        "velocity": 51,
        "subtype": "noteOn"
      },
      {
        "deltaTime": 43,
        "channel": 0,
        "type": "channel",
        "subtype": "noteOff",
        "noteNumber": 47,
        "velocity": 0
      },
      {
        "deltaTime": 20,
        "channel": 0,
        "type": "channel",
        "noteNumber": 66,
        "velocity": 34,
        "subtype": "noteOn"
      },
      {
        "deltaTime": 19,
        "channel": 0,
        "type": "channel",
        "subtype": "noteOff",
        "noteNumber": 66,
        "velocity": 0
      },
      {
        "deltaTime": 9,
        "channel": 0,
        "type": "channel",
        "noteNumber": 82,
        "velocity": 33,
        "subtype": "noteOn"
      },
      {
        "deltaTime": 12,
        "channel": 0,
        "type": "channel",
        "subtype": "noteOff",
        "noteNumber": 82,
        "velocity": 0
      },
      {
        "deltaTime": 8,
        "channel": 0,
        "type": "channel",
        "noteNumber": 66,
        "velocity": 35,
        "subtype": "noteOn"
      },
      {
        "deltaTime": 9,
        "channel": 0,
        "type": "channel",
        "noteNumber": 106,
        "velocity": 43,
        "subtype": "noteOn"
      },
      {
        "deltaTime": 127,
        "channel": 0,
        "type": "channel",
        "subtype": "noteOff",
        "noteNumber": 66,
        "velocity": 0
      },
      {
        "deltaTime": 12,
        "channel": 0,
        "type": "channel",
        "noteNumber": 55,
        "velocity": 32,
        "subtype": "noteOn"
      },
      {
        "deltaTime": 10,
        "channel": 0,
        "type": "channel",
        "subtype": "noteOff",
        "noteNumber": 55,
        "velocity": 0
      },
      {
        "deltaTime": 62,
        "channel": 0,
        "type": "channel",
        "subtype": "noteOff",
        "noteNumber": 106,
        "velocity": 0
      },
      {
        "deltaTime": 34,
        "channel": 0,
        "type": "channel",
        "noteNumber": 86,
        "velocity": 32,
        "subtype": "noteOn"
      },
      {
        "deltaTime": 24,
        "channel": 0,
        "type": "channel",
        "subtype": "noteOff",
        "noteNumber": 86,
        "velocity": 0
      },
      {
        "deltaTime": 17,
        "channel": 0,
        "type": "channel",
        "noteNumber": 85,
        "velocity": 56,
        "subtype": "noteOn"
      },
      {
        "deltaTime": 26,
        "channel": 0,
        "type": "channel",
        "subtype": "noteOff",
        "noteNumber": 85,
        "velocity": 0
      },
      {
        "deltaTime": 7,
        "channel": 0,
        "type": "channel",
        "noteNumber": 62,
        "velocity": 31,
        "subtype": "noteOn"
      },
      {
        "deltaTime": 80,
        "channel": 0,
        "type": "channel",
        "subtype": "noteOff",
        "noteNumber": 62,
        "velocity": 0
      },
      {
        "deltaTime": 7,
        "channel": 0,
        "type": "channel",
        "noteNumber": 86,
        "velocity": 34,
        "subtype": "noteOn"
      },
      {
        "deltaTime": 29,
        "channel": 0,
        "type": "channel",
        "subtype": "noteOff",
        "noteNumber": 86,
        "velocity": 0
      },
      {
        "deltaTime": 12,
        "channel": 0,
        "type": "channel",
        "noteNumber": 85,
        "velocity": 24,
        "subtype": "noteOn"
      },
      {
        "deltaTime": 21,
        "channel": 0,
        "type": "channel",
        "subtype": "noteOff",
        "noteNumber": 85,
        "velocity": 0
      },
      {
        "deltaTime": 17,
        "channel": 0,
        "type": "channel",
        "noteNumber": 86,
        "velocity": 29,
        "subtype": "noteOn"
      },
      {
        "deltaTime": 22,
        "channel": 0,
        "type": "channel",
        "subtype": "noteOff",
        "noteNumber": 86,
        "velocity": 0
      },
      {
        "deltaTime": 2,
        "channel": 0,
        "type": "channel",
        "noteNumber": 33,
        "velocity": 42,
        "subtype": "noteOn"
      },
      {
        "deltaTime": 67,
        "channel": 0,
        "type": "channel",
        "subtype": "noteOff",
        "noteNumber": 33,
        "velocity": 0
      },
      {
        "deltaTime": 72,
        "channel": 0,
        "type": "channel",
        "noteNumber": 33,
        "velocity": 19,
        "subtype": "noteOn"
      },
      {
        "deltaTime": 10,
        "channel": 0,
        "type": "channel",
        "subtype": "noteOff",
        "noteNumber": 33,
        "velocity": 0
      },
      {
        "deltaTime": 26,
        "channel": 0,
        "type": "channel",
        "noteNumber": 86,
        "velocity": 20,
        "subtype": "noteOn"
      },
      {
        "deltaTime": 29,
        "channel": 0,
        "type": "channel",
        "subtype": "noteOff",
        "noteNumber": 86,
        "velocity": 0
      },
      {
        "deltaTime": 12,
        "channel": 0,
        "type": "channel",
        "noteNumber": 88,
        "velocity": 28,
        "subtype": "noteOn"
      },
      {
        "deltaTime": 60,
        "channel": 0,
        "type": "channel",
        "subtype": "noteOff",
        "noteNumber": 88,
        "velocity": 0
      },
      {
        "deltaTime": 0,
        "channel": 0,
        "type": "channel",
        "noteNumber": 47,
        "velocity": 61,
        "subtype": "noteOn"
      },
      {
        "deltaTime": 257,
        "channel": 0,
        "type": "channel",
        "subtype": "noteOff",
        "noteNumber": 47,
        "velocity": 0
      },
      {
        "deltaTime": 175,
        "channel": 0,
        "type": "channel",
        "noteNumber": 66,
        "velocity": 33,
        "subtype": "noteOn"
      },
      {
        "deltaTime": 24,
        "channel": 0,
        "type": "channel",
        "subtype": "noteOff",
        "noteNumber": 66,
        "velocity": 0
      },
      {
        "deltaTime": 5,
        "channel": 0,
        "type": "channel",
        "noteNumber": 88,
        "velocity": 40,
        "subtype": "noteOn"
      },
      {
        "deltaTime": 45,
        "channel": 0,
        "type": "channel",
        "subtype": "noteOff",
        "noteNumber": 88,
        "velocity": 0
      },
      {
        "deltaTime": 22,
        "channel": 0,
        "type": "channel",
        "noteNumber": 66,
        "velocity": 45,
        "subtype": "noteOn"
      },
      {
        "deltaTime": 103,
        "channel": 0,
        "type": "channel",
        "noteNumber": 55,
        "velocity": 39,
        "subtype": "noteOn"
      },
      {
        "deltaTime": 22,
        "channel": 0,
        "type": "channel",
        "subtype": "noteOff",
        "noteNumber": 66,
        "velocity": 0
      },
      {
        "deltaTime": 7,
        "channel": 0,
        "type": "channel",
        "subtype": "noteOff",
        "noteNumber": 55,
        "velocity": 0
      },
      {
        "deltaTime": 120,
        "channel": 0,
        "type": "channel",
        "noteNumber": 85,
        "velocity": 42,
        "subtype": "noteOn"
      },
      {
        "deltaTime": 29,
        "channel": 0,
        "type": "channel",
        "subtype": "noteOff",
        "noteNumber": 85,
        "velocity": 0
      },
      {
        "deltaTime": 31,
        "channel": 0,
        "type": "channel",
        "noteNumber": 62,
        "velocity": 26,
        "subtype": "noteOn"
      },
      {
        "deltaTime": 55,
        "channel": 0,
        "type": "channel",
        "subtype": "noteOff",
        "noteNumber": 62,
        "velocity": 0
      },
      {
        "deltaTime": 3,
        "channel": 0,
        "type": "channel",
        "noteNumber": 86,
        "velocity": 30,
        "subtype": "noteOn"
      },
      {
        "deltaTime": 36,
        "channel": 0,
        "type": "channel",
        "subtype": "noteOff",
        "noteNumber": 86,
        "velocity": 0
      },
      {
        "deltaTime": 7,
        "channel": 0,
        "type": "channel",
        "noteNumber": 85,
        "velocity": 23,
        "subtype": "noteOn"
      },
      {
        "deltaTime": 21,
        "channel": 0,
        "type": "channel",
        "subtype": "noteOff",
        "noteNumber": 85,
        "velocity": 0
      },
      {
        "deltaTime": 48,
        "channel": 0,
        "type": "channel",
        "noteNumber": 33,
        "velocity": 25,
        "subtype": "noteOn"
      },
      {
        "deltaTime": 24,
        "channel": 0,
        "type": "channel",
        "subtype": "noteOff",
        "noteNumber": 33,
        "velocity": 0
      },
      {
        "deltaTime": 27,
        "channel": 0,
        "type": "channel",
        "noteNumber": 88,
        "velocity": 26,
        "subtype": "noteOn"
      },
      {
        "deltaTime": 24,
        "channel": 0,
        "type": "channel",
        "subtype": "noteOff",
        "noteNumber": 88,
        "velocity": 0
      },
      {
        "deltaTime": 0,
        "channel": 0,
        "type": "channel",
        "noteNumber": 52,
        "velocity": 53,
        "subtype": "noteOn"
      },
      {
        "deltaTime": 12,
        "channel": 0,
        "type": "channel",
        "subtype": "noteOff",
        "noteNumber": 52,
        "velocity": 0
      },
      {
        "deltaTime": 117,
        "channel": 0,
        "type": "channel",
        "noteNumber": 45,
        "velocity": 18,
        "subtype": "noteOn"
      },
      {
        "deltaTime": 44,
        "channel": 0,
        "type": "channel",
        "subtype": "noteOff",
        "noteNumber": 45,
        "velocity": 0
      },
      {
        "deltaTime": 2,
        "channel": 0,
        "type": "channel",
        "noteNumber": 85,
        "velocity": 24,
        "subtype": "noteOn"
      },
      {
        "deltaTime": 26,
        "channel": 0,
        "type": "channel",
        "subtype": "noteOff",
        "noteNumber": 85,
        "velocity": 0
      },
      {
        "deltaTime": 15,
        "channel": 0,
        "type": "channel",
        "noteNumber": 86,
        "velocity": 23,
        "subtype": "noteOn"
      },
      {
        "deltaTime": 24,
        "channel": 0,
        "type": "channel",
        "subtype": "noteOff",
        "noteNumber": 86,
        "velocity": 0
      },
      {
        "deltaTime": 96,
        "channel": 0,
        "type": "channel",
        "noteNumber": 85,
        "velocity": 47,
        "subtype": "noteOn"
      },
      {
        "deltaTime": 24,
        "channel": 0,
        "type": "channel",
        "subtype": "noteOff",
        "noteNumber": 85,
        "velocity": 0
      },
      {
        "deltaTime": 55,
        "channel": 0,
        "type": "channel",
        "noteNumber": 66,
        "velocity": 41,
        "subtype": "noteOn"
      },
      {
        "deltaTime": 204,
        "channel": 0,
        "type": "channel",
        "subtype": "noteOff",
        "noteNumber": 66,
        "velocity": 0
      },
      {
        "deltaTime": 122,
        "channel": 0,
        "type": "channel",
        "noteNumber": 66,
        "velocity": 34,
        "subtype": "noteOn"
      },
      {
        "deltaTime": 77,
        "channel": 0,
        "type": "channel",
        "subtype": "noteOff",
        "noteNumber": 66,
        "velocity": 0
      },
      {
        "deltaTime": 10,
        "channel": 0,
        "type": "channel",
        "noteNumber": 55,
        "velocity": 29,
        "subtype": "noteOn"
      },
      {
        "deltaTime": 12,
        "channel": 0,
        "type": "channel",
        "subtype": "noteOff",
        "noteNumber": 55,
        "velocity": 0
      },
      {
        "deltaTime": 17,
        "channel": 0,
        "type": "channel",
        "noteNumber": 50,
        "velocity": 41,
        "subtype": "noteOn"
      },
      {
        "deltaTime": 117,
        "channel": 0,
        "type": "channel",
        "subtype": "noteOff",
        "noteNumber": 50,
        "velocity": 0
      },
      {
        "deltaTime": 226,
        "channel": 0,
        "type": "channel",
        "noteNumber": 33,
        "velocity": 45,
        "subtype": "noteOn"
      },
      {
        "deltaTime": 67,
        "channel": 0,
        "type": "channel",
        "subtype": "noteOff",
        "noteNumber": 33,
        "velocity": 0
      },
      {
        "deltaTime": 79,
        "channel": 0,
        "type": "channel",
        "noteNumber": 61,
        "velocity": 28,
        "subtype": "noteOn"
      },
      {
        "deltaTime": 12,
        "channel": 0,
        "type": "channel",
        "noteNumber": 33,
        "velocity": 30,
        "subtype": "noteOn"
      },
      {
        "deltaTime": 94,
        "channel": 0,
        "type": "channel",
        "subtype": "noteOff",
        "noteNumber": 61,
        "velocity": 0
      },
      {
        "deltaTime": 14,
        "channel": 0,
        "type": "channel",
        "subtype": "noteOff",
        "noteNumber": 33,
        "velocity": 0
      },
      {
        "deltaTime": 41,
        "channel": 0,
        "type": "channel",
        "noteNumber": 35,
        "velocity": 47,
        "subtype": "noteOn"
      },
      {
        "deltaTime": 161,
        "channel": 0,
        "type": "channel",
        "noteNumber": 47,
        "velocity": 43,
        "subtype": "noteOn"
      },
      {
        "deltaTime": 67,
        "channel": 0,
        "type": "channel",
        "subtype": "noteOff",
        "noteNumber": 47,
        "velocity": 0
      },
      {
        "deltaTime": 48,
        "channel": 0,
        "type": "channel",
        "noteNumber": 59,
        "velocity": 41,
        "subtype": "noteOn"
      },
      {
        "deltaTime": 36,
        "channel": 0,
        "type": "channel",
        "subtype": "noteOff",
        "noteNumber": 35,
        "velocity": 0
      },
      {
        "deltaTime": 36,
        "channel": 0,
        "type": "channel",
        "noteNumber": 83,
        "velocity": 33,
        "subtype": "noteOn"
      },
      {
        "deltaTime": 24,
        "channel": 0,
        "type": "channel",
        "subtype": "noteOff",
        "noteNumber": 83,
        "velocity": 0
      },
      {
        "deltaTime": 146,
        "channel": 0,
        "type": "channel",
        "subtype": "noteOff",
        "noteNumber": 59,
        "velocity": 0
      },
      {
        "deltaTime": 32,
        "channel": 0,
        "type": "channel",
        "noteNumber": 59,
        "velocity": 25,
        "subtype": "noteOn"
      },
      {
        "deltaTime": 31,
        "channel": 0,
        "type": "channel",
        "subtype": "noteOff",
        "noteNumber": 59,
        "velocity": 0
      },
      {
        "deltaTime": 55,
        "channel": 0,
        "type": "channel",
        "noteNumber": 34,
        "velocity": 48,
        "subtype": "noteOn"
      },
      {
        "deltaTime": 12,
        "channel": 0,
        "type": "channel",
        "subtype": "noteOff",
        "noteNumber": 34,
        "velocity": 0
      },
      {
        "deltaTime": 72,
        "channel": 0,
        "type": "channel",
        "noteNumber": 57,
        "velocity": 55,
        "subtype": "noteOn"
      },
      {
        "deltaTime": 29,
        "channel": 0,
        "type": "channel",
        "subtype": "noteOff",
        "noteNumber": 57,
        "velocity": 0
      },
      {
        "deltaTime": 12,
        "channel": 0,
        "type": "channel",
        "noteNumber": 39,
        "velocity": 53,
        "subtype": "noteOn"
      },
      {
        "deltaTime": 43,
        "channel": 0,
        "type": "channel",
        "subtype": "noteOff",
        "noteNumber": 39,
        "velocity": 0
      },
      {
        "deltaTime": 14,
        "channel": 0,
        "type": "channel",
        "noteNumber": 69,
        "velocity": 47,
        "subtype": "noteOn"
      },
      {
        "deltaTime": 84,
        "channel": 0,
        "type": "channel",
        "subtype": "noteOff",
        "noteNumber": 69,
        "velocity": 0
      },
      {
        "deltaTime": 5,
        "channel": 0,
        "type": "channel",
        "noteNumber": 90,
        "velocity": 52,
        "subtype": "noteOn"
      },
      {
        "deltaTime": 130,
        "channel": 0,
        "type": "channel",
        "subtype": "noteOff",
        "noteNumber": 90,
        "velocity": 0
      },
      {
        "deltaTime": 17,
        "channel": 0,
        "type": "channel",
        "noteNumber": 52,
        "velocity": 49,
        "subtype": "noteOn"
      },
      {
        "deltaTime": 12,
        "channel": 0,
        "type": "channel",
        "subtype": "noteOff",
        "noteNumber": 52,
        "velocity": 0
      },
      {
        "deltaTime": 16,
        "channel": 0,
        "type": "channel",
        "noteNumber": 59,
        "velocity": 32,
        "subtype": "noteOn"
      },
      {
        "deltaTime": 77,
        "channel": 0,
        "type": "channel",
        "noteNumber": 81,
        "velocity": 31,
        "subtype": "noteOn"
      },
      {
        "deltaTime": 24,
        "channel": 0,
        "type": "channel",
        "subtype": "noteOff",
        "noteNumber": 81,
        "velocity": 0
      },
      {
        "deltaTime": 41,
        "channel": 0,
        "type": "channel",
        "subtype": "noteOff",
        "noteNumber": 59,
        "velocity": 0
      },
      {
        "deltaTime": 5,
        "channel": 0,
        "type": "channel",
        "noteNumber": 90,
        "velocity": 48,
        "subtype": "noteOn"
      },
      {
        "deltaTime": 29,
        "channel": 0,
        "type": "channel",
        "subtype": "noteOff",
        "noteNumber": 90,
        "velocity": 0
      },
      {
        "deltaTime": 117,
        "channel": 0,
        "type": "channel",
        "noteNumber": 61,
        "velocity": 54,
        "subtype": "noteOn"
      },
      {
        "deltaTime": 12,
        "channel": 0,
        "type": "channel",
        "subtype": "noteOff",
        "noteNumber": 61,
        "velocity": 0
      },
      {
        "deltaTime": 10,
        "channel": 0,
        "type": "channel",
        "noteNumber": 90,
        "velocity": 50,
        "subtype": "noteOn"
      },
      {
        "deltaTime": 36,
        "channel": 0,
        "type": "channel",
        "subtype": "noteOff",
        "noteNumber": 90,
        "velocity": 0
      },
      {
        "deltaTime": 89,
        "channel": 0,
        "type": "channel",
        "noteNumber": 47,
        "velocity": 32,
        "subtype": "noteOn"
      },
      {
        "deltaTime": 62,
        "channel": 0,
        "type": "channel",
        "subtype": "noteOff",
        "noteNumber": 47,
        "velocity": 0
      },
      {
        "deltaTime": 118,
        "channel": 0,
        "type": "channel",
        "noteNumber": 36,
        "velocity": 28,
        "subtype": "noteOn"
      },
      {
        "deltaTime": 16,
        "channel": 0,
        "type": "channel",
        "subtype": "noteOff",
        "noteNumber": 36,
        "velocity": 0
      },
      {
        "deltaTime": 3,
        "channel": 0,
        "type": "channel",
        "noteNumber": 45,
        "velocity": 40,
        "subtype": "noteOn"
      },
      {
        "deltaTime": 132,
        "channel": 0,
        "type": "channel",
        "noteNumber": 57,
        "velocity": 32,
        "subtype": "noteOn"
      },
      {
        "deltaTime": 14,
        "channel": 0,
        "type": "channel",
        "subtype": "noteOff",
        "noteNumber": 45,
        "velocity": 0
      },
      {
        "deltaTime": 0,
        "channel": 0,
        "type": "channel",
        "subtype": "noteOff",
        "noteNumber": 57,
        "velocity": 0
      },
      {
        "deltaTime": 0,
        "channel": 0,
        "type": "channel",
        "noteNumber": 90,
        "velocity": 46,
        "subtype": "noteOn"
      },
      {
        "deltaTime": 132,
        "channel": 0,
        "type": "channel",
        "subtype": "noteOff",
        "noteNumber": 90,
        "velocity": 0
      },
      {
        "deltaTime": 3,
        "channel": 0,
        "type": "channel",
        "noteNumber": 57,
        "velocity": 60,
        "subtype": "noteOn"
      },
      {
        "deltaTime": 26,
        "channel": 0,
        "type": "channel",
        "subtype": "noteOff",
        "noteNumber": 57,
        "velocity": 0
      },
      {
        "deltaTime": 132,
        "channel": 0,
        "type": "channel",
        "noteNumber": 57,
        "velocity": 53,
        "subtype": "noteOn"
      },
      {
        "deltaTime": 62,
        "channel": 0,
        "type": "channel",
        "subtype": "noteOff",
        "noteNumber": 57,
        "velocity": 0
      },
      {
        "deltaTime": 99,
        "channel": 0,
        "type": "channel",
        "noteNumber": 69,
        "velocity": 48,
        "subtype": "noteOn"
      },
      {
        "deltaTime": 24,
        "channel": 0,
        "type": "channel",
        "subtype": "noteOff",
        "noteNumber": 69,
        "velocity": 0
      },
      {
        "deltaTime": 153,
        "channel": 0,
        "type": "channel",
        "noteNumber": 106,
        "velocity": 54,
        "subtype": "noteOn"
      },
      {
        "deltaTime": 164,
        "channel": 0,
        "type": "channel",
        "subtype": "noteOff",
        "noteNumber": 106,
        "velocity": 0
      },
      {
        "deltaTime": 21,
        "channel": 0,
        "type": "channel",
        "noteNumber": 106,
        "velocity": 56,
        "subtype": "noteOn"
      },
      {
        "deltaTime": 135,
        "channel": 0,
        "type": "channel",
        "subtype": "noteOff",
        "noteNumber": 106,
        "velocity": 0
      },
      {
        "deltaTime": 2,
        "channel": 0,
        "type": "channel",
        "noteNumber": 106,
        "velocity": 48,
        "subtype": "noteOn"
      },
      {
        "deltaTime": 158,
        "channel": 0,
        "type": "channel",
        "subtype": "noteOff",
        "noteNumber": 106,
        "velocity": 0
      },
      {
        "deltaTime": 3,
        "channel": 0,
        "type": "channel",
        "noteNumber": 95,
        "velocity": 58,
        "subtype": "noteOn"
      },
      {
        "deltaTime": 81,
        "channel": 0,
        "type": "channel",
        "subtype": "noteOff",
        "noteNumber": 95,
        "velocity": 0
      },
      {
        "deltaTime": 5,
        "channel": 0,
        "type": "channel",
        "noteNumber": 93,
        "velocity": 54,
        "subtype": "noteOn"
      },
      {
        "deltaTime": 77,
        "channel": 0,
        "type": "channel",
        "subtype": "noteOff",
        "noteNumber": 93,
        "velocity": 0
      },
      {
        "deltaTime": 5,
        "channel": 0,
        "type": "channel",
        "noteNumber": 90,
        "velocity": 44,
        "subtype": "noteOn"
      },
      {
        "deltaTime": 9,
        "channel": 0,
        "type": "channel",
        "noteNumber": 55,
        "velocity": 43,
        "subtype": "noteOn"
      },
      {
        "deltaTime": 20,
        "channel": 0,
        "type": "channel",
        "subtype": "noteOff",
        "noteNumber": 90,
        "velocity": 0
      },
      {
        "deltaTime": 12,
        "channel": 0,
        "type": "channel",
        "subtype": "noteOff",
        "noteNumber": 55,
        "velocity": 0
      },
      {
        "deltaTime": 93,
        "channel": 0,
        "type": "channel",
        "noteNumber": 57,
        "velocity": 58,
        "subtype": "noteOn"
      },
      {
        "deltaTime": 24,
        "channel": 0,
        "type": "channel",
        "subtype": "noteOff",
        "noteNumber": 57,
        "velocity": 0
      },
      {
        "deltaTime": 132,
        "channel": 0,
        "type": "channel",
        "noteNumber": 57,
        "velocity": 46,
        "subtype": "noteOn"
      },
      {
        "deltaTime": 60,
        "channel": 0,
        "type": "channel",
        "subtype": "noteOff",
        "noteNumber": 57,
        "velocity": 0
      },
      {
        "deltaTime": 120,
        "channel": 0,
        "type": "channel",
        "noteNumber": 45,
        "velocity": 52,
        "subtype": "noteOn"
      },
      {
        "deltaTime": 22,
        "channel": 0,
        "type": "channel",
        "noteNumber": 59,
        "velocity": 36,
        "subtype": "noteOn"
      },
      {
        "deltaTime": 29,
        "channel": 0,
        "type": "channel",
        "subtype": "noteOff",
        "noteNumber": 45,
        "velocity": 0
      },
      {
        "deltaTime": 7,
        "channel": 0,
        "type": "channel",
        "noteNumber": 64,
        "velocity": 29,
        "subtype": "noteOn"
      },
      {
        "deltaTime": 105,
        "channel": 0,
        "type": "channel",
        "subtype": "noteOff",
        "noteNumber": 64,
        "velocity": 0
      },
      {
        "deltaTime": 3,
        "channel": 0,
        "type": "channel",
        "subtype": "noteOff",
        "noteNumber": 59,
        "velocity": 0
      },
      {
        "deltaTime": 153,
        "channel": 0,
        "type": "channel",
        "noteNumber": 61,
        "velocity": 47,
        "subtype": "noteOn"
      },
      {
        "deltaTime": 10,
        "channel": 0,
        "type": "channel",
        "subtype": "noteOff",
        "noteNumber": 61,
        "velocity": 0
      },
      {
        "deltaTime": 10,
        "channel": 0,
        "type": "channel",
        "noteNumber": 62,
        "velocity": 50,
        "subtype": "noteOn"
      },
      {
        "deltaTime": 72,
        "channel": 0,
        "type": "channel",
        "subtype": "noteOff",
        "noteNumber": 62,
        "velocity": 0
      },
      {
        "deltaTime": 12,
        "channel": 0,
        "type": "channel",
        "noteNumber": 62,
        "velocity": 46,
        "subtype": "noteOn"
      },
      {
        "deltaTime": 62,
        "channel": 0,
        "type": "channel",
        "noteNumber": 66,
        "velocity": 37,
        "subtype": "noteOn"
      },
      {
        "deltaTime": 36,
        "channel": 0,
        "type": "channel",
        "subtype": "noteOff",
        "noteNumber": 66,
        "velocity": 0
      },
      {
        "deltaTime": 2,
        "channel": 0,
        "type": "channel",
        "subtype": "noteOff",
        "noteNumber": 62,
        "velocity": 0
      },
      {
        "deltaTime": 99,
        "channel": 0,
        "type": "channel",
        "noteNumber": 62,
        "velocity": 24,
        "subtype": "noteOn"
      },
      {
        "deltaTime": 26,
        "channel": 0,
        "type": "channel",
        "subtype": "noteOff",
        "noteNumber": 62,
        "velocity": 0
      },
      {
        "deltaTime": 15,
        "channel": 0,
        "type": "channel",
        "noteNumber": 45,
        "velocity": 32,
        "subtype": "noteOn"
      },
      {
        "deltaTime": 28,
        "channel": 0,
        "type": "channel",
        "subtype": "noteOff",
        "noteNumber": 45,
        "velocity": 0
      },
      {
        "deltaTime": 39,
        "channel": 0,
        "type": "channel",
        "noteNumber": 85,
        "velocity": 28,
        "subtype": "noteOn"
      },
      {
        "deltaTime": 29,
        "channel": 0,
        "type": "channel",
        "subtype": "noteOff",
        "noteNumber": 85,
        "velocity": 0
      },
      {
        "deltaTime": 69,
        "channel": 0,
        "type": "channel",
        "noteNumber": 50,
        "velocity": 24,
        "subtype": "noteOn"
      },
      {
        "deltaTime": 15,
        "channel": 0,
        "type": "channel",
        "subtype": "noteOff",
        "noteNumber": 50,
        "velocity": 0
      },
      {
        "deltaTime": 98,
        "channel": 0,
        "type": "channel",
        "noteNumber": 57,
        "velocity": 58,
        "subtype": "noteOn"
      },
      {
        "deltaTime": 26,
        "channel": 0,
        "type": "channel",
        "subtype": "noteOff",
        "noteNumber": 57,
        "velocity": 0
      },
      {
        "deltaTime": 82,
        "channel": 0,
        "type": "channel",
        "noteNumber": 91,
        "velocity": 49,
        "subtype": "noteOn"
      },
      {
        "deltaTime": 53,
        "channel": 0,
        "type": "channel",
        "noteNumber": 57,
        "velocity": 54,
        "subtype": "noteOn"
      },
      {
        "deltaTime": 21,
        "channel": 0,
        "type": "channel",
        "subtype": "noteOff",
        "noteNumber": 91,
        "velocity": 0
      },
      {
        "deltaTime": 39,
        "channel": 0,
        "type": "channel",
        "subtype": "noteOff",
        "noteNumber": 57,
        "velocity": 0
      },
      {
        "deltaTime": 33,
        "channel": 0,
        "type": "channel",
        "noteNumber": 33,
        "velocity": 46,
        "subtype": "noteOn"
      },
      {
        "deltaTime": 68,
        "channel": 0,
        "type": "channel",
        "subtype": "noteOff",
        "noteNumber": 33,
        "velocity": 0
      },
      {
        "deltaTime": 45,
        "channel": 0,
        "type": "channel",
        "noteNumber": 106,
        "velocity": 40,
        "subtype": "noteOn"
      },
      {
        "deltaTime": 65,
        "channel": 0,
        "type": "channel",
        "subtype": "noteOff",
        "noteNumber": 106,
        "velocity": 0
      },
      {
        "deltaTime": 288,
        "channel": 0,
        "type": "channel",
        "noteNumber": 47,
        "velocity": 43,
        "subtype": "noteOn"
      },
      {
        "deltaTime": 67,
        "channel": 0,
        "type": "channel",
        "subtype": "noteOff",
        "noteNumber": 47,
        "velocity": 0
      },
      {
        "deltaTime": 19,
        "channel": 0,
        "type": "channel",
        "noteNumber": 47,
        "velocity": 45,
        "subtype": "noteOn"
      },
      {
        "deltaTime": 60,
        "channel": 0,
        "type": "channel",
        "subtype": "noteOff",
        "noteNumber": 47,
        "velocity": 0
      },
      {
        "deltaTime": 44,
        "channel": 0,
        "type": "channel",
        "noteNumber": 83,
        "velocity": 29,
        "subtype": "noteOn"
      },
      {
        "deltaTime": 26,
        "channel": 0,
        "type": "channel",
        "subtype": "noteOff",
        "noteNumber": 83,
        "velocity": 0
      },
      {
        "deltaTime": 185,
        "channel": 0,
        "type": "channel",
        "noteNumber": 57,
        "velocity": 31,
        "subtype": "noteOn"
      },
      {
        "deltaTime": 21,
        "channel": 0,
        "type": "channel",
        "subtype": "noteOff",
        "noteNumber": 57,
        "velocity": 0
      },
      {
        "deltaTime": 140,
        "channel": 0,
        "type": "channel",
        "noteNumber": 57,
        "velocity": 60,
        "subtype": "noteOn"
      },
      {
        "deltaTime": 24,
        "channel": 0,
        "type": "channel",
        "subtype": "noteOff",
        "noteNumber": 57,
        "velocity": 0
      },
      {
        "deltaTime": 132,
        "channel": 0,
        "type": "channel",
        "noteNumber": 69,
        "velocity": 39,
        "subtype": "noteOn"
      },
      {
        "deltaTime": 26,
        "channel": 0,
        "type": "channel",
        "subtype": "noteOff",
        "noteNumber": 69,
        "velocity": 0
      },
      {
        "deltaTime": 5,
        "channel": 0,
        "type": "channel",
        "noteNumber": 90,
        "velocity": 48,
        "subtype": "noteOn"
      },
      {
        "deltaTime": 129,
        "channel": 0,
        "type": "channel",
        "subtype": "noteOff",
        "noteNumber": 90,
        "velocity": 0
      },
      {
        "deltaTime": 41,
        "channel": 0,
        "type": "channel",
        "noteNumber": 61,
        "velocity": 27,
        "subtype": "noteOn"
      },
      {
        "deltaTime": 24,
        "channel": 0,
        "type": "channel",
        "subtype": "noteOff",
        "noteNumber": 61,
        "velocity": 0
      },
      {
        "deltaTime": 12,
        "channel": 0,
        "type": "channel",
        "noteNumber": 33,
        "velocity": 28,
        "subtype": "noteOn"
      },
      {
        "deltaTime": 101,
        "channel": 0,
        "type": "channel",
        "subtype": "noteOff",
        "noteNumber": 33,
        "velocity": 0
      },
      {
        "deltaTime": 12,
        "channel": 0,
        "type": "channel",
        "noteNumber": 90,
        "velocity": 47,
        "subtype": "noteOn"
      },
      {
        "deltaTime": 26,
        "channel": 0,
        "type": "channel",
        "subtype": "noteOff",
        "noteNumber": 90,
        "velocity": 0
      },
      {
        "deltaTime": 125,
        "channel": 0,
        "type": "channel",
        "noteNumber": 61,
        "velocity": 51,
        "subtype": "noteOn"
      },
      {
        "deltaTime": 10,
        "channel": 0,
        "type": "channel",
        "subtype": "noteOff",
        "noteNumber": 61,
        "velocity": 0
      },
      {
        "deltaTime": 17,
        "channel": 0,
        "type": "channel",
        "noteNumber": 54,
        "velocity": 51,
        "subtype": "noteOn"
      },
      {
        "deltaTime": 16,
        "channel": 0,
        "type": "channel",
        "subtype": "noteOff",
        "noteNumber": 54,
        "velocity": 0
      },
      {
        "deltaTime": 60,
        "channel": 0,
        "type": "channel",
        "noteNumber": 66,
        "velocity": 45,
        "subtype": "noteOn"
      },
      {
        "deltaTime": 135,
        "channel": 0,
        "type": "channel",
        "subtype": "noteOff",
        "noteNumber": 66,
        "velocity": 0
      },
      {
        "deltaTime": 57,
        "channel": 0,
        "type": "channel",
        "noteNumber": 66,
        "velocity": 38,
        "subtype": "noteOn"
      },
      {
        "deltaTime": 29,
        "channel": 0,
        "type": "channel",
        "subtype": "noteOff",
        "noteNumber": 66,
        "velocity": 0
      },
      {
        "deltaTime": 84,
        "channel": 0,
        "type": "channel",
        "noteNumber": 93,
        "velocity": 43,
        "subtype": "noteOn"
      },
      {
        "deltaTime": 77,
        "channel": 0,
        "type": "channel",
        "subtype": "noteOff",
        "noteNumber": 93,
        "velocity": 0
      },
      {
        "deltaTime": 19,
        "channel": 0,
        "type": "channel",
        "noteNumber": 50,
        "velocity": 27,
        "subtype": "noteOn"
      },
      {
        "deltaTime": 10,
        "channel": 0,
        "type": "channel",
        "subtype": "noteOff",
        "noteNumber": 50,
        "velocity": 0
      },
      {
        "deltaTime": 108,
        "channel": 0,
        "type": "channel",
        "noteNumber": 57,
        "velocity": 61,
        "subtype": "noteOn"
      },
      {
        "deltaTime": 26,
        "channel": 0,
        "type": "channel",
        "subtype": "noteOff",
        "noteNumber": 57,
        "velocity": 0
      },
      {
        "deltaTime": 10,
        "channel": 0,
        "type": "channel",
        "noteNumber": 59,
        "velocity": 38,
        "subtype": "noteOn"
      },
      {
        "deltaTime": 74,
        "channel": 0,
        "type": "channel",
        "subtype": "noteOff",
        "noteNumber": 59,
        "velocity": 0
      },
      {
        "deltaTime": 77,
        "channel": 0,
        "type": "channel",
        "noteNumber": 90,
        "velocity": 62,
        "subtype": "noteOn"
      },
      {
        "deltaTime": 149,
        "channel": 0,
        "type": "channel",
        "subtype": "noteOff",
        "noteNumber": 90,
        "velocity": 0
      },
      {
        "deltaTime": 5,
        "channel": 0,
        "type": "channel",
        "noteNumber": 90,
        "velocity": 51,
        "subtype": "noteOn"
      },
      {
        "deltaTime": 14,
        "channel": 0,
        "type": "channel",
        "subtype": "noteOff",
        "noteNumber": 90,
        "velocity": 0
      },
      {
        "deltaTime": 10,
        "channel": 0,
        "type": "channel",
        "noteNumber": 61,
        "velocity": 19,
        "subtype": "noteOn"
      },
      {
        "deltaTime": 16,
        "channel": 0,
        "type": "channel",
        "subtype": "noteOff",
        "noteNumber": 61,
        "velocity": 0
      },
      {
        "deltaTime": 8,
        "channel": 0,
        "type": "channel",
        "noteNumber": 59,
        "velocity": 30,
        "subtype": "noteOn"
      },
      {
        "deltaTime": 112,
        "channel": 0,
        "type": "channel",
        "subtype": "noteOff",
        "noteNumber": 59,
        "velocity": 0
      },
      {
        "deltaTime": 8,
        "channel": 0,
        "type": "channel",
        "noteNumber": 90,
        "velocity": 45,
        "subtype": "noteOn"
      },
      {
        "deltaTime": 132,
        "channel": 0,
        "type": "channel",
        "subtype": "noteOff",
        "noteNumber": 90,
        "velocity": 0
      },
      {
        "deltaTime": 31,
        "channel": 0,
        "type": "channel",
        "noteNumber": 62,
        "velocity": 47,
        "subtype": "noteOn"
      },
      {
        "deltaTime": 31,
        "channel": 0,
        "type": "channel",
        "subtype": "noteOff",
        "noteNumber": 62,
        "velocity": 0
      },
      {
        "deltaTime": 2,
        "channel": 0,
        "type": "channel",
        "noteNumber": 62,
        "velocity": 47,
        "subtype": "noteOn"
      },
      {
        "deltaTime": 154,
        "channel": 0,
        "type": "channel",
        "subtype": "noteOff",
        "noteNumber": 62,
        "velocity": 0
      },
      {
        "deltaTime": 48,
        "channel": 0,
        "type": "channel",
        "noteNumber": 47,
        "velocity": 45,
        "subtype": "noteOn"
      },
      {
        "deltaTime": 38,
        "channel": 0,
        "type": "channel",
        "subtype": "noteOff",
        "noteNumber": 47,
        "velocity": 0
      },
      {
        "deltaTime": 12,
        "channel": 0,
        "type": "channel",
        "noteNumber": 62,
        "velocity": 33,
        "subtype": "noteOn"
      },
      {
        "deltaTime": 27,
        "channel": 0,
        "type": "channel",
        "subtype": "noteOff",
        "noteNumber": 62,
        "velocity": 0
      },
      {
        "deltaTime": 2,
        "channel": 0,
        "type": "channel",
        "noteNumber": 95,
        "velocity": 59,
        "subtype": "noteOn"
      },
      {
        "deltaTime": 77,
        "channel": 0,
        "type": "channel",
        "subtype": "noteOff",
        "noteNumber": 95,
        "velocity": 0
      },
      {
        "deltaTime": 2,
        "channel": 0,
        "type": "channel",
        "noteNumber": 93,
        "velocity": 50,
        "subtype": "noteOn"
      },
      {
        "deltaTime": 77,
        "channel": 0,
        "type": "channel",
        "subtype": "noteOff",
        "noteNumber": 93,
        "velocity": 0
      },
      {
        "deltaTime": 15,
        "channel": 0,
        "type": "channel",
        "noteNumber": 55,
        "velocity": 44,
        "subtype": "noteOn"
      },
      {
        "deltaTime": 26,
        "channel": 0,
        "type": "channel",
        "subtype": "noteOff",
        "noteNumber": 55,
        "velocity": 0
      },
      {
        "deltaTime": 98,
        "channel": 0,
        "type": "channel",
        "noteNumber": 57,
        "velocity": 58,
        "subtype": "noteOn"
      },
      {
        "deltaTime": 24,
        "channel": 0,
        "type": "channel",
        "subtype": "noteOff",
        "noteNumber": 57,
        "velocity": 0
      },
      {
        "deltaTime": 75,
        "channel": 0,
        "type": "channel",
        "noteNumber": 43,
        "velocity": 39,
        "subtype": "noteOn"
      },
      {
        "deltaTime": 48,
        "channel": 0,
        "type": "channel",
        "noteNumber": 90,
        "velocity": 50,
        "subtype": "noteOn"
      },
      {
        "deltaTime": 7,
        "channel": 0,
        "type": "channel",
        "subtype": "noteOff",
        "noteNumber": 43,
        "velocity": 0
      },
      {
        "deltaTime": 137,
        "channel": 0,
        "type": "channel",
        "subtype": "noteOff",
        "noteNumber": 90,
        "velocity": 0
      },
      {
        "deltaTime": 48,
        "channel": 0,
        "type": "channel",
        "noteNumber": 45,
        "velocity": 52,
        "subtype": "noteOn"
      },
      {
        "deltaTime": 26,
        "channel": 0,
        "type": "channel",
        "noteNumber": 61,
        "velocity": 27,
        "subtype": "noteOn"
      },
      {
        "deltaTime": 15,
        "channel": 0,
        "type": "channel",
        "subtype": "noteOff",
        "noteNumber": 61,
        "velocity": 0
      },
      {
        "deltaTime": 4,
        "channel": 0,
        "type": "channel",
        "noteNumber": 59,
        "velocity": 33,
        "subtype": "noteOn"
      },
      {
        "deltaTime": 3,
        "channel": 0,
        "type": "channel",
        "subtype": "noteOff",
        "noteNumber": 45,
        "velocity": 0
      },
      {
        "deltaTime": 38,
        "channel": 0,
        "type": "channel",
        "noteNumber": 85,
        "velocity": 32,
        "subtype": "noteOn"
      },
      {
        "deltaTime": 31,
        "channel": 0,
        "type": "channel",
        "subtype": "noteOff",
        "noteNumber": 85,
        "velocity": 0
      },
      {
        "deltaTime": 46,
        "channel": 0,
        "type": "channel",
        "subtype": "noteOff",
        "noteNumber": 59,
        "velocity": 0
      },
      {
        "deltaTime": 2,
        "channel": 0,
        "type": "channel",
        "noteNumber": 86,
        "velocity": 38,
        "subtype": "noteOn"
      },
      {
        "deltaTime": 60,
        "channel": 0,
        "type": "channel",
        "subtype": "noteOff",
        "noteNumber": 86,
        "velocity": 0
      },
      {
        "deltaTime": 111,
        "channel": 0,
        "type": "channel",
        "noteNumber": 62,
        "velocity": 60,
        "subtype": "noteOn"
      },
      {
        "deltaTime": 185,
        "channel": 0,
        "type": "channel",
        "subtype": "noteOff",
        "noteNumber": 62,
        "velocity": 0
      },
      {
        "deltaTime": 9,
        "channel": 0,
        "type": "channel",
        "noteNumber": 66,
        "velocity": 44,
        "subtype": "noteOn"
      },
      {
        "deltaTime": 70,
        "channel": 0,
        "type": "channel",
        "subtype": "noteOff",
        "noteNumber": 66,
        "velocity": 0
      },
      {
        "deltaTime": 62,
        "channel": 0,
        "type": "channel",
        "noteNumber": 45,
        "velocity": 43,
        "subtype": "noteOn"
      },
      {
        "deltaTime": 144,
        "channel": 0,
        "type": "channel",
        "subtype": "noteOff",
        "noteNumber": 45,
        "velocity": 0
      },
      {
        "deltaTime": 0,
        "channel": 0,
        "type": "channel",
        "noteNumber": 86,
        "velocity": 31,
        "subtype": "noteOn"
      },
      {
        "deltaTime": 10,
        "channel": 0,
        "type": "channel",
        "subtype": "noteOff",
        "noteNumber": 86,
        "velocity": 0
      },
      {
        "deltaTime": 127,
        "channel": 0,
        "type": "channel",
        "noteNumber": 57,
        "velocity": 57,
        "subtype": "noteOn"
      },
      {
        "deltaTime": 24,
        "channel": 0,
        "type": "channel",
        "subtype": "noteOff",
        "noteNumber": 57,
        "velocity": 0
      },
      {
        "deltaTime": 77,
        "channel": 0,
        "type": "channel",
        "noteNumber": 93,
        "velocity": 45,
        "subtype": "noteOn"
      },
      {
        "deltaTime": 62,
        "channel": 0,
        "type": "channel",
        "subtype": "noteOff",
        "noteNumber": 93,
        "velocity": 0
      },
      {
        "deltaTime": 19,
        "channel": 0,
        "type": "channel",
        "noteNumber": 90,
        "velocity": 51,
        "subtype": "noteOn"
      },
      {
        "deltaTime": 137,
        "channel": 0,
        "type": "channel",
        "subtype": "noteOff",
        "noteNumber": 90,
        "velocity": 0
      },
      {
        "deltaTime": 15,
        "channel": 0,
        "type": "channel",
        "noteNumber": 71,
        "velocity": 53,
        "subtype": "noteOn"
      },
      {
        "deltaTime": 33,
        "channel": 0,
        "type": "channel",
        "subtype": "noteOff",
        "noteNumber": 71,
        "velocity": 0
      },
      {
        "deltaTime": 46,
        "channel": 0,
        "type": "channel",
        "noteNumber": 61,
        "velocity": 53,
        "subtype": "noteOn"
      },
      {
        "deltaTime": 79,
        "channel": 0,
        "type": "channel",
        "subtype": "noteOff",
        "noteNumber": 61,
        "velocity": 0
      },
      {
        "deltaTime": 34,
        "channel": 0,
        "type": "channel",
        "noteNumber": 47,
        "velocity": 54,
        "subtype": "noteOn"
      },
      {
        "deltaTime": 139,
        "channel": 0,
        "type": "channel",
        "subtype": "noteOff",
        "noteNumber": 47,
        "velocity": 0
      },
      {
        "deltaTime": 5,
        "channel": 0,
        "type": "channel",
        "noteNumber": 47,
        "velocity": 28,
        "subtype": "noteOn"
      },
      {
        "deltaTime": 12,
        "channel": 0,
        "type": "channel",
        "subtype": "noteOff",
        "noteNumber": 47,
        "velocity": 0
      },
      {
        "deltaTime": 69,
        "channel": 0,
        "type": "channel",
        "noteNumber": 62,
        "velocity": 45,
        "subtype": "noteOn"
      },
      {
        "deltaTime": 106,
        "channel": 0,
        "type": "channel",
        "subtype": "noteOff",
        "noteNumber": 62,
        "velocity": 0
      },
      {
        "deltaTime": 206,
        "channel": 0,
        "type": "channel",
        "noteNumber": 93,
        "velocity": 40,
        "subtype": "noteOn"
      },
      {
        "deltaTime": 58,
        "channel": 0,
        "type": "channel",
        "noteNumber": 57,
        "velocity": 33,
        "subtype": "noteOn"
      },
      {
        "deltaTime": 14,
        "channel": 0,
        "type": "channel",
        "subtype": "noteOff",
        "noteNumber": 93,
        "velocity": 0
      },
      {
        "deltaTime": 0,
        "channel": 0,
        "type": "channel",
        "noteNumber": 73,
        "velocity": 46,
        "subtype": "noteOn"
      },
      {
        "deltaTime": 7,
        "channel": 0,
        "type": "channel",
        "subtype": "noteOff",
        "noteNumber": 57,
        "velocity": 0
      },
      {
        "deltaTime": 41,
        "channel": 0,
        "type": "channel",
        "subtype": "noteOff",
        "noteNumber": 73,
        "velocity": 0
      },
      {
        "deltaTime": 43,
        "channel": 0,
        "type": "channel",
        "noteNumber": 73,
        "velocity": 45,
        "subtype": "noteOn"
      },
      {
        "deltaTime": 36,
        "channel": 0,
        "type": "channel",
        "subtype": "noteOff",
        "noteNumber": 73,
        "velocity": 0
      },
      {
        "deltaTime": 87,
        "channel": 0,
        "type": "channel",
        "noteNumber": 74,
        "velocity": 40,
        "subtype": "noteOn"
      },
      {
        "deltaTime": 36,
        "channel": 0,
        "type": "channel",
        "subtype": "noteOff",
        "noteNumber": 74,
        "velocity": 0
      },
      {
        "deltaTime": 43,
        "channel": 0,
        "type": "channel",
        "noteNumber": 74,
        "velocity": 42,
        "subtype": "noteOn"
      },
      {
        "deltaTime": 36,
        "channel": 0,
        "type": "channel",
        "subtype": "noteOff",
        "noteNumber": 74,
        "velocity": 0
      },
      {
        "deltaTime": 5,
        "channel": 0,
        "type": "channel",
        "noteNumber": 73,
        "velocity": 44,
        "subtype": "noteOn"
      },
      {
        "deltaTime": 33,
        "channel": 0,
        "type": "channel",
        "subtype": "noteOff",
        "noteNumber": 73,
        "velocity": 0
      },
      {
        "deltaTime": 5,
        "channel": 0,
        "type": "channel",
        "noteNumber": 74,
        "velocity": 45,
        "subtype": "noteOn"
      },
      {
        "deltaTime": 55,
        "channel": 0,
        "type": "channel",
        "subtype": "noteOff",
        "noteNumber": 74,
        "velocity": 0
      },
      {
        "deltaTime": 20,
        "channel": 0,
        "type": "channel",
        "noteNumber": 64,
        "velocity": 35,
        "subtype": "noteOn"
      },
      {
        "deltaTime": 204,
        "channel": 0,
        "type": "channel",
        "subtype": "noteOff",
        "noteNumber": 64,
        "velocity": 0
      },
      {
        "deltaTime": 33,
        "channel": 0,
        "type": "channel",
        "noteNumber": 35,
        "velocity": 45,
        "subtype": "noteOn"
      },
      {
        "deltaTime": 87,
        "channel": 0,
        "type": "channel",
        "noteNumber": 74,
        "velocity": 42,
        "subtype": "noteOn"
      },
      {
        "deltaTime": 40,
        "channel": 0,
        "type": "channel",
        "subtype": "noteOff",
        "noteNumber": 74,
        "velocity": 0
      },
      {
        "deltaTime": 8,
        "channel": 0,
        "type": "channel",
        "noteNumber": 73,
        "velocity": 25,
        "subtype": "noteOn"
      },
      {
        "deltaTime": 31,
        "channel": 0,
        "type": "channel",
        "subtype": "noteOff",
        "noteNumber": 73,
        "velocity": 0
      },
      {
        "deltaTime": 5,
        "channel": 0,
        "type": "channel",
        "noteNumber": 74,
        "velocity": 41,
        "subtype": "noteOn"
      },
      {
        "deltaTime": 48,
        "channel": 0,
        "type": "channel",
        "subtype": "noteOff",
        "noteNumber": 74,
        "velocity": 0
      },
      {
        "deltaTime": 28,
        "channel": 0,
        "type": "channel",
        "noteNumber": 74,
        "velocity": 42,
        "subtype": "noteOn"
      },
      {
        "deltaTime": 41,
        "channel": 0,
        "type": "channel",
        "subtype": "noteOff",
        "noteNumber": 74,
        "velocity": 0
      },
      {
        "deltaTime": 5,
        "channel": 0,
        "type": "channel",
        "noteNumber": 73,
        "velocity": 25,
        "subtype": "noteOn"
      },
      {
        "deltaTime": 34,
        "channel": 0,
        "type": "channel",
        "subtype": "noteOff",
        "noteNumber": 73,
        "velocity": 0
      },
      {
        "deltaTime": 4,
        "channel": 0,
        "type": "channel",
        "noteNumber": 74,
        "velocity": 42,
        "subtype": "noteOn"
      },
      {
        "deltaTime": 51,
        "channel": 0,
        "type": "channel",
        "subtype": "noteOff",
        "noteNumber": 74,
        "velocity": 0
      },
      {
        "deltaTime": 26,
        "channel": 0,
        "type": "channel",
        "noteNumber": 71,
        "velocity": 37,
        "subtype": "noteOn"
      },
      {
        "deltaTime": 12,
        "channel": 0,
        "type": "channel",
        "subtype": "noteOff",
        "noteNumber": 35,
        "velocity": 0
      },
      {
        "deltaTime": 144,
        "channel": 0,
        "type": "channel",
        "subtype": "noteOff",
        "noteNumber": 71,
        "velocity": 0
      },
      {
        "deltaTime": 63,
        "channel": 0,
        "type": "channel",
        "noteNumber": 43,
        "velocity": 44,
        "subtype": "noteOn"
      },
      {
        "deltaTime": 141,
        "channel": 0,
        "type": "channel",
        "noteNumber": 73,
        "velocity": 40,
        "subtype": "noteOn"
      },
      {
        "deltaTime": 36,
        "channel": 0,
        "type": "channel",
        "subtype": "noteOff",
        "noteNumber": 73,
        "velocity": 0
      },
      {
        "deltaTime": 46,
        "channel": 0,
        "type": "channel",
        "noteNumber": 73,
        "velocity": 39,
        "subtype": "noteOn"
      },
      {
        "deltaTime": 36,
        "channel": 0,
        "type": "channel",
        "subtype": "noteOff",
        "noteNumber": 73,
        "velocity": 0
      },
      {
        "deltaTime": 5,
        "channel": 0,
        "type": "channel",
        "noteNumber": 74,
        "velocity": 43,
        "subtype": "noteOn"
      },
      {
        "deltaTime": 2,
        "channel": 0,
        "type": "channel",
        "subtype": "noteOff",
        "noteNumber": 43,
        "velocity": 0
      },
      {
        "deltaTime": 31,
        "channel": 0,
        "type": "channel",
        "subtype": "noteOff",
        "noteNumber": 74,
        "velocity": 0
      },
      {
        "deltaTime": 5,
        "channel": 0,
        "type": "channel",
        "noteNumber": 73,
        "velocity": 44,
        "subtype": "noteOn"
      },
      {
        "deltaTime": 36,
        "channel": 0,
        "type": "channel",
        "subtype": "noteOff",
        "noteNumber": 73,
        "velocity": 0
      },
      {
        "deltaTime": 7,
        "channel": 0,
        "type": "channel",
        "noteNumber": 74,
        "velocity": 41,
        "subtype": "noteOn"
      },
      {
        "deltaTime": 43,
        "channel": 0,
        "type": "channel",
        "subtype": "noteOff",
        "noteNumber": 74,
        "velocity": 0
      },
      {
        "deltaTime": 192,
        "channel": 0,
        "type": "channel",
        "noteNumber": 78,
        "velocity": 42,
        "subtype": "noteOn"
      },
      {
        "deltaTime": 41,
        "channel": 0,
        "type": "channel",
        "subtype": "noteOff",
        "noteNumber": 78,
        "velocity": 0
      },
      {
        "deltaTime": 34,
        "channel": 0,
        "type": "channel",
        "noteNumber": 35,
        "velocity": 46,
        "subtype": "noteOn"
      },
      {
        "deltaTime": 45,
        "channel": 0,
        "type": "channel",
        "noteNumber": 78,
        "velocity": 46,
        "subtype": "noteOn"
      },
      {
        "deltaTime": 44,
        "channel": 0,
        "type": "channel",
        "subtype": "noteOff",
        "noteNumber": 78,
        "velocity": 0
      },
      {
        "deltaTime": 38,
        "channel": 0,
        "type": "channel",
        "noteNumber": 76,
        "velocity": 30,
        "subtype": "noteOn"
      },
      {
        "deltaTime": 72,
        "channel": 0,
        "type": "channel",
        "subtype": "noteOff",
        "noteNumber": 76,
        "velocity": 0
      },
      {
        "deltaTime": 5,
        "channel": 0,
        "type": "channel",
        "noteNumber": 78,
        "velocity": 41,
        "subtype": "noteOn"
      },
      {
        "deltaTime": 38,
        "channel": 0,
        "type": "channel",
        "subtype": "noteOff",
        "noteNumber": 78,
        "velocity": 0
      },
      {
        "deltaTime": 120,
        "channel": 0,
        "type": "channel",
        "noteNumber": 83,
        "velocity": 35,
        "subtype": "noteOn"
      },
      {
        "deltaTime": 29,
        "channel": 0,
        "type": "channel",
        "subtype": "noteOff",
        "noteNumber": 83,
        "velocity": 0
      },
      {
        "deltaTime": 48,
        "channel": 0,
        "type": "channel",
        "subtype": "noteOff",
        "noteNumber": 35,
        "velocity": 0
      },
      {
        "deltaTime": 2,
        "channel": 0,
        "type": "channel",
        "noteNumber": 95,
        "velocity": 51,
        "subtype": "noteOn"
      },
      {
        "deltaTime": 41,
        "channel": 0,
        "type": "channel",
        "subtype": "noteOff",
        "noteNumber": 95,
        "velocity": 0
      },
      {
        "deltaTime": 39,
        "channel": 0,
        "type": "channel",
        "noteNumber": 93,
        "velocity": 42,
        "subtype": "noteOn"
      },
      {
        "deltaTime": 74,
        "channel": 0,
        "type": "channel",
        "subtype": "noteOff",
        "noteNumber": 93,
        "velocity": 0
      },
      {
        "deltaTime": 7,
        "channel": 0,
        "type": "channel",
        "noteNumber": 90,
        "velocity": 47,
        "subtype": "noteOn"
      },
      {
        "deltaTime": 77,
        "channel": 0,
        "type": "channel",
        "subtype": "noteOff",
        "noteNumber": 90,
        "velocity": 0
      },
      {
        "deltaTime": 7,
        "channel": 0,
        "type": "channel",
        "noteNumber": 71,
        "velocity": 38,
        "subtype": "noteOn"
      },
      {
        "deltaTime": 75,
        "channel": 0,
        "type": "channel",
        "subtype": "noteOff",
        "noteNumber": 71,
        "velocity": 0
      },
      {
        "deltaTime": 28,
        "channel": 0,
        "type": "channel",
        "noteNumber": 62,
        "velocity": 42,
        "subtype": "noteOn"
      },
      {
        "deltaTime": 245,
        "channel": 0,
        "type": "channel",
        "subtype": "noteOff",
        "noteNumber": 62,
        "velocity": 0
      },
      {
        "deltaTime": 207,
        "channel": 0,
        "type": "channel",
        "noteNumber": 86,
        "velocity": 37,
        "subtype": "noteOn"
      },
      {
        "deltaTime": 4,
        "channel": 0,
        "type": "channel",
        "noteNumber": 73,
        "velocity": 40,
        "subtype": "noteOn"
      },
      {
        "deltaTime": 22,
        "channel": 0,
        "type": "channel",
        "subtype": "noteOff",
        "noteNumber": 86,
        "velocity": 0
      },
      {
        "deltaTime": 12,
        "channel": 0,
        "type": "channel",
        "noteNumber": 35,
        "velocity": 44,
        "subtype": "noteOn"
      },
      {
        "deltaTime": 5,
        "channel": 0,
        "type": "channel",
        "subtype": "noteOff",
        "noteNumber": 73,
        "velocity": 0
      },
      {
        "deltaTime": 5,
        "channel": 0,
        "type": "channel",
        "noteNumber": 74,
        "velocity": 42,
        "subtype": "noteOn"
      },
      {
        "deltaTime": 33,
        "channel": 0,
        "type": "channel",
        "subtype": "noteOff",
        "noteNumber": 74,
        "velocity": 0
      },
      {
        "deltaTime": 46,
        "channel": 0,
        "type": "channel",
        "noteNumber": 74,
        "velocity": 42,
        "subtype": "noteOn"
      },
      {
        "deltaTime": 33,
        "channel": 0,
        "type": "channel",
        "subtype": "noteOff",
        "noteNumber": 74,
        "velocity": 0
      },
      {
        "deltaTime": 5,
        "channel": 0,
        "type": "channel",
        "noteNumber": 73,
        "velocity": 40,
        "subtype": "noteOn"
      },
      {
        "deltaTime": 36,
        "channel": 0,
        "type": "channel",
        "subtype": "noteOff",
        "noteNumber": 73,
        "velocity": 0
      },
      {
        "deltaTime": 39,
        "channel": 0,
        "type": "channel",
        "subtype": "noteOff",
        "noteNumber": 35,
        "velocity": 0
      },
      {
        "deltaTime": 7,
        "channel": 0,
        "type": "channel",
        "noteNumber": 73,
        "velocity": 51,
        "subtype": "noteOn"
      },
      {
        "deltaTime": 33,
        "channel": 0,
        "type": "channel",
        "subtype": "noteOff",
        "noteNumber": 73,
        "velocity": 0
      },
      {
        "deltaTime": 8,
        "channel": 0,
        "type": "channel",
        "noteNumber": 74,
        "velocity": 44,
        "subtype": "noteOn"
      },
      {
        "deltaTime": 84,
        "channel": 0,
        "type": "channel",
        "subtype": "noteOff",
        "noteNumber": 74,
        "velocity": 0
      },
      {
        "deltaTime": 14,
        "channel": 0,
        "type": "channel",
        "noteNumber": 73,
        "velocity": 26,
        "subtype": "noteOn"
      },
      {
        "deltaTime": 38,
        "channel": 0,
        "type": "channel",
        "subtype": "noteOff",
        "noteNumber": 73,
        "velocity": 0
      },
      {
        "deltaTime": 142,
        "channel": 0,
        "type": "channel",
        "noteNumber": 73,
        "velocity": 39,
        "subtype": "noteOn"
      },
      {
        "deltaTime": 34,
        "channel": 0,
        "type": "channel",
        "subtype": "noteOff",
        "noteNumber": 73,
        "velocity": 0
      },
      {
        "deltaTime": 7,
        "channel": 0,
        "type": "channel",
        "noteNumber": 74,
        "velocity": 41,
        "subtype": "noteOn"
      },
      {
        "deltaTime": 127,
        "channel": 0,
        "type": "channel",
        "subtype": "noteOff",
        "noteNumber": 74,
        "velocity": 0
      },
      {
        "deltaTime": 84,
        "channel": 0,
        "type": "channel",
        "noteNumber": 62,
        "velocity": 36,
        "subtype": "noteOn"
      },
      {
        "deltaTime": 142,
        "channel": 0,
        "type": "channel",
        "subtype": "noteOff",
        "noteNumber": 62,
        "velocity": 0
      },
      {
        "deltaTime": 4,
        "channel": 0,
        "type": "channel",
        "noteNumber": 76,
        "velocity": 47,
        "subtype": "noteOn"
      },
      {
        "deltaTime": 116,
        "channel": 0,
        "type": "channel",
        "subtype": "noteOff",
        "noteNumber": 76,
        "velocity": 0
      },
      {
        "deltaTime": 2,
        "channel": 0,
        "type": "channel",
        "noteNumber": 74,
        "velocity": 40,
        "subtype": "noteOn"
      },
      {
        "deltaTime": 70,
        "channel": 0,
        "type": "channel",
        "noteNumber": 61,
        "velocity": 44,
        "subtype": "noteOn"
      },
      {
        "deltaTime": 33,
        "channel": 0,
        "type": "channel",
        "subtype": "noteOff",
        "noteNumber": 74,
        "velocity": 0
      },
      {
        "deltaTime": 101,
        "channel": 0,
        "type": "channel",
        "noteNumber": 71,
        "velocity": 40,
        "subtype": "noteOn"
      },
      {
        "deltaTime": 151,
        "channel": 0,
        "type": "channel",
        "subtype": "noteOff",
        "noteNumber": 71,
        "velocity": 0
      },
      {
        "deltaTime": 27,
        "channel": 0,
        "type": "channel",
        "subtype": "noteOff",
        "noteNumber": 61,
        "velocity": 0
      },
      {
        "deltaTime": 540,
        "channel": 0,
        "type": "channel",
        "noteNumber": 86,
        "velocity": 47,
        "subtype": "noteOn"
      },
      {
        "deltaTime": 153,
        "channel": 0,
        "type": "channel",
        "subtype": "noteOff",
        "noteNumber": 86,
        "velocity": 0
      },
      {
        "deltaTime": 51,
        "channel": 0,
        "type": "channel",
        "noteNumber": 96,
        "velocity": 26,
        "subtype": "noteOn"
      },
      {
        "deltaTime": 28,
        "channel": 0,
        "type": "channel",
        "subtype": "noteOff",
        "noteNumber": 96,
        "velocity": 0
      },
      {
        "deltaTime": 3,
        "channel": 0,
        "type": "channel",
        "noteNumber": 93,
        "velocity": 43,
        "subtype": "noteOn"
      },
      {
        "deltaTime": 55,
        "channel": 0,
        "type": "channel",
        "subtype": "noteOff",
        "noteNumber": 93,
        "velocity": 0
      },
      {
        "deltaTime": 41,
        "channel": 0,
        "type": "channel",
        "noteNumber": 98,
        "velocity": 59,
        "subtype": "noteOn"
      },
      {
        "deltaTime": 72,
        "channel": 0,
        "type": "channel",
        "subtype": "noteOff",
        "noteNumber": 98,
        "velocity": 0
      },
      {
        "deltaTime": 5,
        "channel": 0,
        "type": "channel",
        "noteNumber": 86,
        "velocity": 62,
        "subtype": "noteOn"
      },
      {
        "deltaTime": 4,
        "channel": 0,
        "type": "channel",
        "noteNumber": 74,
        "velocity": 68,
        "subtype": "noteOn"
      },
      {
        "deltaTime": 5,
        "channel": 0,
        "type": "channel",
        "subtype": "noteOff",
        "noteNumber": 86,
        "velocity": 0
      },
      {
        "deltaTime": 77,
        "channel": 0,
        "type": "channel",
        "subtype": "noteOff",
        "noteNumber": 74,
        "velocity": 0
      },
      {
        "deltaTime": 518,
        "channel": 0,
        "type": "channel",
        "noteNumber": 93,
        "velocity": 60,
        "subtype": "noteOn"
      },
      {
        "deltaTime": 34,
        "channel": 0,
        "type": "channel",
        "subtype": "noteOff",
        "noteNumber": 93,
        "velocity": 0
      },
      {
        "deltaTime": 38,
        "channel": 0,
        "type": "channel",
        "noteNumber": 64,
        "velocity": 43,
        "subtype": "noteOn"
      },
      {
        "deltaTime": 34,
        "channel": 0,
        "type": "channel",
        "noteNumber": 77,
        "velocity": 42,
        "subtype": "noteOn"
      },
      {
        "deltaTime": 10,
        "channel": 0,
        "type": "channel",
        "subtype": "noteOff",
        "noteNumber": 77,
        "velocity": 0
      },
      {
        "deltaTime": 2,
        "channel": 0,
        "type": "channel",
        "subtype": "noteOff",
        "noteNumber": 64,
        "velocity": 0
      },
      {
        "deltaTime": 0,
        "channel": 0,
        "type": "channel",
        "noteNumber": 96,
        "velocity": 39,
        "subtype": "noteOn"
      },
      {
        "deltaTime": 31,
        "channel": 0,
        "type": "channel",
        "noteNumber": 67,
        "velocity": 46,
        "subtype": "noteOn"
      },
      {
        "deltaTime": 10,
        "channel": 0,
        "type": "channel",
        "subtype": "noteOff",
        "noteNumber": 96,
        "velocity": 0
      },
      {
        "deltaTime": 60,
        "channel": 0,
        "type": "channel",
        "subtype": "noteOff",
        "noteNumber": 67,
        "velocity": 0
      },
      {
        "deltaTime": 29,
        "channel": 0,
        "type": "channel",
        "noteNumber": 77,
        "velocity": 47,
        "subtype": "noteOn"
      },
      {
        "deltaTime": 24,
        "channel": 0,
        "type": "channel",
        "subtype": "noteOff",
        "noteNumber": 77,
        "velocity": 0
      },
      {
        "deltaTime": 180,
        "channel": 0,
        "type": "channel",
        "noteNumber": 105,
        "velocity": 49,
        "subtype": "noteOn"
      },
      {
        "deltaTime": 14,
        "channel": 0,
        "type": "channel",
        "subtype": "noteOff",
        "noteNumber": 105,
        "velocity": 0
      },
      {
        "deltaTime": 132,
        "channel": 0,
        "type": "channel",
        "noteNumber": 98,
        "velocity": 62,
        "subtype": "noteOn"
      },
      {
        "deltaTime": 74,
        "channel": 0,
        "type": "channel",
        "subtype": "noteOff",
        "noteNumber": 98,
        "velocity": 0
      },
      {
        "deltaTime": 75,
        "channel": 0,
        "type": "channel",
        "noteNumber": 91,
        "velocity": 69,
        "subtype": "noteOn"
      },
      {
        "deltaTime": 79,
        "channel": 0,
        "type": "channel",
        "subtype": "noteOff",
        "noteNumber": 91,
        "velocity": 0
      },
      {
        "deltaTime": 118,
        "channel": 0,
        "type": "channel",
        "noteNumber": 95,
        "velocity": 60,
        "subtype": "noteOn"
      },
      {
        "deltaTime": 110,
        "channel": 0,
        "type": "channel",
        "subtype": "noteOff",
        "noteNumber": 95,
        "velocity": 0
      },
      {
        "deltaTime": 125,
        "channel": 0,
        "type": "channel",
        "noteNumber": 96,
        "velocity": 65,
        "subtype": "noteOn"
      },
      {
        "deltaTime": 9,
        "channel": 0,
        "type": "channel",
        "subtype": "noteOff",
        "noteNumber": 96,
        "velocity": 0
      },
      {
        "deltaTime": 96,
        "channel": 0,
        "type": "channel",
        "noteNumber": 101,
        "velocity": 71,
        "subtype": "noteOn"
      },
      {
        "deltaTime": 22,
        "channel": 0,
        "type": "channel",
        "subtype": "noteOff",
        "noteNumber": 101,
        "velocity": 0
      },
      {
        "deltaTime": 170,
        "channel": 0,
        "type": "channel",
        "noteNumber": 96,
        "velocity": 56,
        "subtype": "noteOn"
      },
      {
        "deltaTime": 34,
        "channel": 0,
        "type": "channel",
        "subtype": "noteOff",
        "noteNumber": 96,
        "velocity": 0
      },
      {
        "deltaTime": 17,
        "channel": 0,
        "type": "channel",
        "noteNumber": 77,
        "velocity": 49,
        "subtype": "noteOn"
      },
      {
        "deltaTime": 26,
        "channel": 0,
        "type": "channel",
        "subtype": "noteOff",
        "noteNumber": 77,
        "velocity": 0
      },
      {
        "deltaTime": 96,
        "channel": 0,
        "type": "channel",
        "noteNumber": 41,
        "velocity": 58,
        "subtype": "noteOn"
      },
      {
        "deltaTime": 113,
        "channel": 0,
        "type": "channel",
        "noteNumber": 100,
        "velocity": 40,
        "subtype": "noteOn"
      },
      {
        "deltaTime": 10,
        "channel": 0,
        "type": "channel",
        "subtype": "noteOff",
        "noteNumber": 100,
        "velocity": 0
      },
      {
        "deltaTime": 67,
        "channel": 0,
        "type": "channel",
        "subtype": "noteOff",
        "noteNumber": 41,
        "velocity": 0
      },
      {
        "deltaTime": 41,
        "channel": 0,
        "type": "channel",
        "noteNumber": 98,
        "velocity": 58,
        "subtype": "noteOn"
      },
      {
        "deltaTime": 74,
        "channel": 0,
        "type": "channel",
        "subtype": "noteOff",
        "noteNumber": 98,
        "velocity": 0
      },
      {
        "deltaTime": 7,
        "channel": 0,
        "type": "channel",
        "noteNumber": 62,
        "velocity": 59,
        "subtype": "noteOn"
      },
      {
        "deltaTime": 99,
        "channel": 0,
        "type": "channel",
        "noteNumber": 93,
        "velocity": 49,
        "subtype": "noteOn"
      },
      {
        "deltaTime": 43,
        "channel": 0,
        "type": "channel",
        "subtype": "noteOff",
        "noteNumber": 93,
        "velocity": 0
      },
      {
        "deltaTime": 7,
        "channel": 0,
        "type": "channel",
        "subtype": "noteOff",
        "noteNumber": 62,
        "velocity": 0
      },
      {
        "deltaTime": 144,
        "channel": 0,
        "type": "channel",
        "noteNumber": 100,
        "velocity": 62,
        "subtype": "noteOn"
      },
      {
        "deltaTime": 12,
        "channel": 0,
        "type": "channel",
        "subtype": "noteOff",
        "noteNumber": 100,
        "velocity": 0
      },
      {
        "deltaTime": 158,
        "channel": 0,
        "type": "channel",
        "noteNumber": 89,
        "velocity": 69,
        "subtype": "noteOn"
      },
      {
        "deltaTime": 118,
        "channel": 0,
        "type": "channel",
        "subtype": "noteOff",
        "noteNumber": 89,
        "velocity": 0
      },
      {
        "deltaTime": 182,
        "channel": 0,
        "type": "channel",
        "noteNumber": 96,
        "velocity": 23,
        "subtype": "noteOn"
      },
      {
        "deltaTime": 22,
        "channel": 0,
        "type": "channel",
        "subtype": "noteOff",
        "noteNumber": 96,
        "velocity": 0
      },
      {
        "deltaTime": 60,
        "channel": 0,
        "type": "channel",
        "noteNumber": 77,
        "velocity": 54,
        "subtype": "noteOn"
      },
      {
        "deltaTime": 29,
        "channel": 0,
        "type": "channel",
        "subtype": "noteOff",
        "noteNumber": 77,
        "velocity": 0
      },
      {
        "deltaTime": 0,
        "channel": 0,
        "type": "channel",
        "noteNumber": 89,
        "velocity": 53,
        "subtype": "noteOn"
      },
      {
        "deltaTime": 67,
        "channel": 0,
        "type": "channel",
        "subtype": "noteOff",
        "noteNumber": 89,
        "velocity": 0
      },
      {
        "deltaTime": 0,
        "channel": 0,
        "type": "channel",
        "noteNumber": 36,
        "velocity": 30,
        "subtype": "noteOn"
      },
      {
        "deltaTime": 14,
        "channel": 0,
        "type": "channel",
        "subtype": "noteOff",
        "noteNumber": 36,
        "velocity": 0
      },
      {
        "deltaTime": 70,
        "channel": 0,
        "type": "channel",
        "noteNumber": 88,
        "velocity": 49,
        "subtype": "noteOn"
      },
      {
        "deltaTime": 77,
        "channel": 0,
        "type": "channel",
        "subtype": "noteOff",
        "noteNumber": 88,
        "velocity": 0
      },
      {
        "deltaTime": 5,
        "channel": 0,
        "type": "channel",
        "noteNumber": 89,
        "velocity": 60,
        "subtype": "noteOn"
      },
      {
        "deltaTime": 153,
        "channel": 0,
        "type": "channel",
        "subtype": "noteOff",
        "noteNumber": 89,
        "velocity": 0
      },
      {
        "deltaTime": 0,
        "channel": 0,
        "type": "channel",
        "noteNumber": 86,
        "velocity": 62,
        "subtype": "noteOn"
      },
      {
        "deltaTime": 27,
        "channel": 0,
        "type": "channel",
        "subtype": "noteOff",
        "noteNumber": 86,
        "velocity": 0
      },
      {
        "deltaTime": 288,
        "channel": 0,
        "type": "channel",
        "noteNumber": 100,
        "velocity": 60,
        "subtype": "noteOn"
      },
      {
        "deltaTime": 19,
        "channel": 0,
        "type": "channel",
        "subtype": "noteOff",
        "noteNumber": 100,
        "velocity": 0
      },
      {
        "deltaTime": 180,
        "channel": 0,
        "type": "channel",
        "noteNumber": 38,
        "velocity": 67,
        "subtype": "noteOn"
      },
      {
        "deltaTime": 257,
        "channel": 0,
        "type": "channel",
        "noteNumber": 67,
        "velocity": 52,
        "subtype": "noteOn"
      },
      {
        "deltaTime": 79,
        "channel": 0,
        "type": "channel",
        "subtype": "noteOff",
        "noteNumber": 38,
        "velocity": 0
      },
      {
        "deltaTime": 21,
        "channel": 0,
        "type": "channel",
        "subtype": "noteOff",
        "noteNumber": 67,
        "velocity": 0
      },
      {
        "deltaTime": 68,
        "channel": 0,
        "type": "channel",
        "noteNumber": 64,
        "velocity": 42,
        "subtype": "noteOn"
      },
      {
        "deltaTime": 86,
        "channel": 0,
        "type": "channel",
        "subtype": "noteOff",
        "noteNumber": 64,
        "velocity": 0
      },
      {
        "deltaTime": 41,
        "channel": 0,
        "type": "channel",
        "noteNumber": 72,
        "velocity": 44,
        "subtype": "noteOn"
      },
      {
        "deltaTime": 57,
        "channel": 0,
        "type": "channel",
        "subtype": "noteOff",
        "noteNumber": 72,
        "velocity": 0
      },
      {
        "deltaTime": 0,
        "channel": 0,
        "type": "channel",
        "noteNumber": 93,
        "velocity": 49,
        "subtype": "noteOn"
      },
      {
        "deltaTime": 51,
        "channel": 0,
        "type": "channel",
        "subtype": "noteOff",
        "noteNumber": 93,
        "velocity": 0
      },
      {
        "deltaTime": 43,
        "channel": 0,
        "type": "channel",
        "noteNumber": 98,
        "velocity": 58,
        "subtype": "noteOn"
      },
      {
        "deltaTime": 74,
        "channel": 0,
        "type": "channel",
        "subtype": "noteOff",
        "noteNumber": 98,
        "velocity": 0
      },
      {
        "deltaTime": 72,
        "channel": 0,
        "type": "channel",
        "noteNumber": 91,
        "velocity": 69,
        "subtype": "noteOn"
      },
      {
        "deltaTime": 80,
        "channel": 0,
        "type": "channel",
        "subtype": "noteOff",
        "noteNumber": 91,
        "velocity": 0
      },
      {
        "deltaTime": 57,
        "channel": 0,
        "type": "channel",
        "noteNumber": 88,
        "velocity": 59,
        "subtype": "noteOn"
      },
      {
        "deltaTime": 10,
        "channel": 0,
        "type": "channel",
        "noteNumber": 36,
        "velocity": 54,
        "subtype": "noteOn"
      },
      {
        "deltaTime": 65,
        "channel": 0,
        "type": "channel",
        "subtype": "noteOff",
        "noteNumber": 36,
        "velocity": 0
      },
      {
        "deltaTime": 40,
        "channel": 0,
        "type": "channel",
        "subtype": "noteOff",
        "noteNumber": 88,
        "velocity": 0
      },
      {
        "deltaTime": 284,
        "channel": 0,
        "type": "channel",
        "noteNumber": 93,
        "velocity": 57,
        "subtype": "noteOn"
      },
      {
        "deltaTime": 36,
        "channel": 0,
        "type": "channel",
        "subtype": "noteOff",
        "noteNumber": 93,
        "velocity": 0
      },
      {
        "deltaTime": 72,
        "channel": 0,
        "type": "channel",
        "noteNumber": 77,
        "velocity": 42,
        "subtype": "noteOn"
      },
      {
        "deltaTime": 9,
        "channel": 0,
        "type": "channel",
        "subtype": "noteOff",
        "noteNumber": 77,
        "velocity": 0
      },
      {
        "deltaTime": 3,
        "channel": 0,
        "type": "channel",
        "noteNumber": 96,
        "velocity": 41,
        "subtype": "noteOn"
      },
      {
        "deltaTime": 38,
        "channel": 0,
        "type": "channel",
        "subtype": "noteOff",
        "noteNumber": 96,
        "velocity": 0
      },
      {
        "deltaTime": 5,
        "channel": 0,
        "type": "channel",
        "noteNumber": 96,
        "velocity": 36,
        "subtype": "noteOn"
      },
      {
        "deltaTime": 31,
        "channel": 0,
        "type": "channel",
        "subtype": "noteOff",
        "noteNumber": 96,
        "velocity": 0
      },
      {
        "deltaTime": 7,
        "channel": 0,
        "type": "channel",
        "noteNumber": 38,
        "velocity": 49,
        "subtype": "noteOn"
      },
      {
        "deltaTime": 108,
        "channel": 0,
        "type": "channel",
        "subtype": "noteOff",
        "noteNumber": 38,
        "velocity": 0
      },
      {
        "deltaTime": 79,
        "channel": 0,
        "type": "channel",
        "noteNumber": 36,
        "velocity": 43,
        "subtype": "noteOn"
      },
      {
        "deltaTime": 111,
        "channel": 0,
        "type": "channel",
        "noteNumber": 93,
        "velocity": 50,
        "subtype": "noteOn"
      },
      {
        "deltaTime": 12,
        "channel": 0,
        "type": "channel",
        "subtype": "noteOff",
        "noteNumber": 36,
        "velocity": 0
      },
      {
        "deltaTime": 17,
        "channel": 0,
        "type": "channel",
        "subtype": "noteOff",
        "noteNumber": 93,
        "velocity": 0
      },
      {
        "deltaTime": 132,
        "channel": 0,
        "type": "channel",
        "noteNumber": 86,
        "velocity": 68,
        "subtype": "noteOn"
      },
      {
        "deltaTime": 26,
        "channel": 0,
        "type": "channel",
        "subtype": "noteOff",
        "noteNumber": 86,
        "velocity": 0
      },
      {
        "deltaTime": 158,
        "channel": 0,
        "type": "channel",
        "noteNumber": 48,
        "velocity": 59,
        "subtype": "noteOn"
      },
      {
        "deltaTime": 137,
        "channel": 0,
        "type": "channel",
        "noteNumber": 100,
        "velocity": 56,
        "subtype": "noteOn"
      },
      {
        "deltaTime": 12,
        "channel": 0,
        "type": "channel",
        "subtype": "noteOff",
        "noteNumber": 100,
        "velocity": 0
      },
      {
        "deltaTime": 72,
        "channel": 0,
        "type": "channel",
        "noteNumber": 94,
        "velocity": 49,
        "subtype": "noteOn"
      },
      {
        "deltaTime": 43,
        "channel": 0,
        "type": "channel",
        "subtype": "noteOff",
        "noteNumber": 94,
        "velocity": 0
      },
      {
        "deltaTime": 29,
        "channel": 0,
        "type": "channel",
        "subtype": "noteOff",
        "noteNumber": 48,
        "velocity": 0
      },
      {
        "deltaTime": 163,
        "channel": 0,
        "type": "channel",
        "noteNumber": 86,
        "velocity": 59,
        "subtype": "noteOn"
      },
      {
        "deltaTime": 12,
        "channel": 0,
        "type": "channel",
        "subtype": "noteOff",
        "noteNumber": 86,
        "velocity": 0
      },
      {
        "deltaTime": 36,
        "channel": 0,
        "type": "channel",
        "noteNumber": 64,
        "velocity": 43,
        "subtype": "noteOn"
      },
      {
        "deltaTime": 48,
        "channel": 0,
        "type": "channel",
        "subtype": "noteOff",
        "noteNumber": 64,
        "velocity": 0
      },
      {
        "deltaTime": 92,
        "channel": 0,
        "type": "channel",
        "noteNumber": 74,
        "velocity": 61,
        "subtype": "noteOn"
      },
      {
        "deltaTime": 158,
        "channel": 0,
        "type": "channel",
        "subtype": "noteOff",
        "noteNumber": 74,
        "velocity": 0
      },
      {
        "deltaTime": 2,
        "channel": 0,
        "type": "channel",
        "noteNumber": 41,
        "velocity": 60,
        "subtype": "noteOn"
      },
      {
        "deltaTime": 140,
        "channel": 0,
        "type": "channel",
        "noteNumber": 74,
        "velocity": 60,
        "subtype": "noteOn"
      },
      {
        "deltaTime": 19,
        "channel": 0,
        "type": "channel",
        "subtype": "noteOff",
        "noteNumber": 74,
        "velocity": 0
      },
      {
        "deltaTime": 26,
        "channel": 0,
        "type": "channel",
        "subtype": "noteOff",
        "noteNumber": 41,
        "velocity": 0
      },
      {
        "deltaTime": 10,
        "channel": 0,
        "type": "channel",
        "noteNumber": 98,
        "velocity": 55,
        "subtype": "noteOn"
      },
      {
        "deltaTime": 84,
        "channel": 0,
        "type": "channel",
        "subtype": "noteOff",
        "noteNumber": 98,
        "velocity": 0
      },
      {
        "deltaTime": 17,
        "channel": 0,
        "type": "channel",
        "noteNumber": 86,
        "velocity": 49,
        "subtype": "noteOn"
      },
      {
        "deltaTime": 16,
        "channel": 0,
        "type": "channel",
        "subtype": "noteOff",
        "noteNumber": 86,
        "velocity": 0
      },
      {
        "deltaTime": 0,
        "channel": 0,
        "type": "channel",
        "noteNumber": 62,
        "velocity": 54,
        "subtype": "noteOn"
      },
      {
        "deltaTime": 147,
        "channel": 0,
        "type": "channel",
        "subtype": "noteOff",
        "noteNumber": 62,
        "velocity": 0
      },
      {
        "deltaTime": 0,
        "channel": 0,
        "type": "channel",
        "noteNumber": 91,
        "velocity": 58,
        "subtype": "noteOn"
      },
      {
        "deltaTime": 158,
        "channel": 0,
        "type": "channel",
        "subtype": "noteOff",
        "noteNumber": 91,
        "velocity": 0
      },
      {
        "deltaTime": 175,
        "channel": 0,
        "type": "channel",
        "noteNumber": 96,
        "velocity": 64,
        "subtype": "noteOn"
      },
      {
        "deltaTime": 58,
        "channel": 0,
        "type": "channel",
        "subtype": "noteOff",
        "noteNumber": 96,
        "velocity": 0
      },
      {
        "deltaTime": 74,
        "channel": 0,
        "type": "channel",
        "noteNumber": 77,
        "velocity": 56,
        "subtype": "noteOn"
      },
      {
        "deltaTime": 24,
        "channel": 0,
        "type": "channel",
        "subtype": "noteOff",
        "noteNumber": 77,
        "velocity": 0
      },
      {
        "deltaTime": 245,
        "channel": 0,
        "type": "channel",
        "noteNumber": 89,
        "velocity": 50,
        "subtype": "noteOn"
      },
      {
        "deltaTime": 36,
        "channel": 0,
        "type": "channel",
        "subtype": "noteOff",
        "noteNumber": 89,
        "velocity": 0
      },
      {
        "deltaTime": 22,
        "channel": 0,
        "type": "channel",
        "noteNumber": 86,
        "velocity": 60,
        "subtype": "noteOn"
      },
      {
        "deltaTime": 81,
        "channel": 0,
        "type": "channel",
        "subtype": "noteOff",
        "noteNumber": 86,
        "velocity": 0
      },
      {
        "deltaTime": 29,
        "channel": 0,
        "type": "channel",
        "noteNumber": 105,
        "velocity": 48,
        "subtype": "noteOn"
      },
      {
        "deltaTime": 19,
        "channel": 0,
        "type": "channel",
        "subtype": "noteOff",
        "noteNumber": 105,
        "velocity": 0
      },
      {
        "deltaTime": 39,
        "channel": 0,
        "type": "channel",
        "noteNumber": 89,
        "velocity": 60,
        "subtype": "noteOn"
      },
      {
        "deltaTime": 156,
        "channel": 0,
        "type": "channel",
        "subtype": "noteOff",
        "noteNumber": 89,
        "velocity": 0
      },
      {
        "deltaTime": 45,
        "channel": 0,
        "type": "channel",
        "noteNumber": 74,
        "velocity": 50,
        "subtype": "noteOn"
      },
      {
        "deltaTime": 32,
        "channel": 0,
        "type": "channel",
        "subtype": "noteOff",
        "noteNumber": 74,
        "velocity": 0
      },
      {
        "deltaTime": 7,
        "channel": 0,
        "type": "channel",
        "noteNumber": 94,
        "velocity": 48,
        "subtype": "noteOn"
      },
      {
        "deltaTime": 77,
        "channel": 0,
        "type": "channel",
        "subtype": "noteOff",
        "noteNumber": 94,
        "velocity": 0
      },
      {
        "deltaTime": 2,
        "channel": 0,
        "type": "channel",
        "noteNumber": 93,
        "velocity": 47,
        "subtype": "noteOn"
      },
      {
        "deltaTime": 48,
        "channel": 0,
        "type": "channel",
        "subtype": "noteOff",
        "noteNumber": 93,
        "velocity": 0
      },
      {
        "deltaTime": 79,
        "channel": 0,
        "type": "channel",
        "noteNumber": 88,
        "velocity": 58,
        "subtype": "noteOn"
      },
      {
        "deltaTime": 187,
        "channel": 0,
        "type": "channel",
        "subtype": "noteOff",
        "noteNumber": 88,
        "velocity": 0
      },
      {
        "deltaTime": 5,
        "channel": 0,
        "type": "channel",
        "noteNumber": 86,
        "velocity": 48,
        "subtype": "noteOn"
      },
      {
        "deltaTime": 22,
        "channel": 0,
        "type": "channel",
        "subtype": "noteOff",
        "noteNumber": 86,
        "velocity": 0
      },
      {
        "deltaTime": 300,
        "channel": 0,
        "type": "channel",
        "noteNumber": 98,
        "velocity": 71,
        "subtype": "noteOn"
      },
      {
        "deltaTime": 31,
        "channel": 0,
        "type": "channel",
        "subtype": "noteOff",
        "noteNumber": 98,
        "velocity": 0
      },
      {
        "deltaTime": 142,
        "channel": 0,
        "type": "channel",
        "noteNumber": 74,
        "velocity": 68,
        "subtype": "noteOn"
      },
      {
        "deltaTime": 72,
        "channel": 0,
        "type": "channel",
        "noteNumber": 86,
        "velocity": 52,
        "subtype": "noteOn"
      },
      {
        "deltaTime": 7,
        "channel": 0,
        "type": "channel",
        "subtype": "noteOff",
        "noteNumber": 74,
        "velocity": 0
      },
      {
        "deltaTime": 144,
        "channel": 0,
        "type": "channel",
        "subtype": "noteOff",
        "noteNumber": 86,
        "velocity": 0
      },
      {
        "deltaTime": 43,
        "channel": 0,
        "type": "channel",
        "noteNumber": 97,
        "velocity": 18,
        "subtype": "noteOn"
      },
      {
        "deltaTime": 10,
        "channel": 0,
        "type": "channel",
        "noteNumber": 89,
        "velocity": 81,
        "subtype": "noteOn"
      },
      {
        "deltaTime": 24,
        "channel": 0,
        "type": "channel",
        "subtype": "noteOff",
        "noteNumber": 97,
        "velocity": 0
      },
      {
        "deltaTime": 21,
        "channel": 0,
        "type": "channel",
        "noteNumber": 105,
        "velocity": 23,
        "subtype": "noteOn"
      },
      {
        "deltaTime": 24,
        "channel": 0,
        "type": "channel",
        "subtype": "noteOff",
        "noteNumber": 105,
        "velocity": 0
      },
      {
        "deltaTime": 115,
        "channel": 0,
        "type": "channel",
        "subtype": "noteOff",
        "noteNumber": 89,
        "velocity": 0
      },
      {
        "deltaTime": 68,
        "channel": 0,
        "type": "channel",
        "noteNumber": 77,
        "velocity": 50,
        "subtype": "noteOn"
      },
      {
        "deltaTime": 26,
        "channel": 0,
        "type": "channel",
        "subtype": "noteOff",
        "noteNumber": 77,
        "velocity": 0
      },
      {
        "deltaTime": 58,
        "channel": 0,
        "type": "channel",
        "noteNumber": 105,
        "velocity": 62,
        "subtype": "noteOn"
      },
      {
        "deltaTime": 31,
        "channel": 0,
        "type": "channel",
        "subtype": "noteOff",
        "noteNumber": 105,
        "velocity": 0
      },
      {
        "deltaTime": 72,
        "channel": 0,
        "type": "channel",
        "noteNumber": 65,
        "velocity": 36,
        "subtype": "noteOn"
      },
      {
        "deltaTime": 67,
        "channel": 0,
        "type": "channel",
        "subtype": "noteOff",
        "noteNumber": 65,
        "velocity": 0
      },
      {
        "deltaTime": 79,
        "channel": 0,
        "type": "channel",
        "noteNumber": 91,
        "velocity": 62,
        "subtype": "noteOn"
      },
      {
        "deltaTime": 137,
        "channel": 0,
        "type": "channel",
        "subtype": "noteOff",
        "noteNumber": 91,
        "velocity": 0
      },
      {
        "deltaTime": 132,
        "channel": 0,
        "type": "channel",
        "noteNumber": 41,
        "velocity": 72,
        "subtype": "noteOn"
      },
      {
        "deltaTime": 154,
        "channel": 0,
        "type": "channel",
        "noteNumber": 99,
        "velocity": 70,
        "subtype": "noteOn"
      },
      {
        "deltaTime": 26,
        "channel": 0,
        "type": "channel",
        "subtype": "noteOff",
        "noteNumber": 99,
        "velocity": 0
      },
      {
        "deltaTime": 12,
        "channel": 0,
        "type": "channel",
        "noteNumber": 99,
        "velocity": 40,
        "subtype": "noteOn"
      },
      {
        "deltaTime": 17,
        "channel": 0,
        "type": "channel",
        "subtype": "noteOff",
        "noteNumber": 99,
        "velocity": 0
      },
      {
        "deltaTime": 165,
        "channel": 0,
        "type": "channel",
        "noteNumber": 89,
        "velocity": 62,
        "subtype": "noteOn"
      },
      {
        "deltaTime": 3,
        "channel": 0,
        "type": "channel",
        "subtype": "noteOff",
        "noteNumber": 41,
        "velocity": 0
      },
      {
        "deltaTime": 38,
        "channel": 0,
        "type": "channel",
        "subtype": "noteOff",
        "noteNumber": 89,
        "velocity": 0
      },
      {
        "deltaTime": 3,
        "channel": 0,
        "type": "channel",
        "noteNumber": 89,
        "velocity": 77,
        "subtype": "noteOn"
      },
      {
        "deltaTime": 192,
        "channel": 0,
        "type": "channel",
        "subtype": "noteOff",
        "noteNumber": 89,
        "velocity": 0
      },
      {
        "deltaTime": 55,
        "channel": 0,
        "type": "channel",
        "noteNumber": 37,
        "velocity": 67,
        "subtype": "noteOn"
      },
      {
        "deltaTime": 120,
        "channel": 0,
        "type": "channel",
        "noteNumber": 96,
        "velocity": 64,
        "subtype": "noteOn"
      },
      {
        "deltaTime": 67,
        "channel": 0,
        "type": "channel",
        "subtype": "noteOff",
        "noteNumber": 96,
        "velocity": 0
      },
      {
        "deltaTime": 2,
        "channel": 0,
        "type": "channel",
        "noteNumber": 94,
        "velocity": 50,
        "subtype": "noteOn"
      },
      {
        "deltaTime": 39,
        "channel": 0,
        "type": "channel",
        "subtype": "noteOff",
        "noteNumber": 94,
        "velocity": 0
      },
      {
        "deltaTime": 31,
        "channel": 0,
        "type": "channel",
        "subtype": "noteOff",
        "noteNumber": 37,
        "velocity": 0
      },
      {
        "deltaTime": 46,
        "channel": 0,
        "type": "channel",
        "noteNumber": 39,
        "velocity": 69,
        "subtype": "noteOn"
      },
      {
        "deltaTime": 19,
        "channel": 0,
        "type": "channel",
        "noteNumber": 98,
        "velocity": 69,
        "subtype": "noteOn"
      },
      {
        "deltaTime": 38,
        "channel": 0,
        "type": "channel",
        "subtype": "noteOff",
        "noteNumber": 98,
        "velocity": 0
      },
      {
        "deltaTime": 199,
        "channel": 0,
        "type": "channel",
        "noteNumber": 65,
        "velocity": 45,
        "subtype": "noteOn"
      },
      {
        "deltaTime": 27,
        "channel": 0,
        "type": "channel",
        "subtype": "noteOff",
        "noteNumber": 65,
        "velocity": 0
      },
      {
        "deltaTime": 5,
        "channel": 0,
        "type": "channel",
        "subtype": "noteOff",
        "noteNumber": 39,
        "velocity": 0
      },
      {
        "deltaTime": 24,
        "channel": 0,
        "type": "channel",
        "noteNumber": 41,
        "velocity": 67,
        "subtype": "noteOn"
      },
      {
        "deltaTime": 211,
        "channel": 0,
        "type": "channel",
        "noteNumber": 80,
        "velocity": 55,
        "subtype": "noteOn"
      },
      {
        "deltaTime": 12,
        "channel": 0,
        "type": "channel",
        "subtype": "noteOff",
        "noteNumber": 80,
        "velocity": 0
      },
      {
        "deltaTime": 0,
        "channel": 0,
        "type": "channel",
        "noteNumber": 68,
        "velocity": 49,
        "subtype": "noteOn"
      },
      {
        "deltaTime": 62,
        "channel": 0,
        "type": "channel",
        "subtype": "noteOff",
        "noteNumber": 68,
        "velocity": 0
      },
      {
        "deltaTime": 67,
        "channel": 0,
        "type": "channel",
        "noteNumber": 80,
        "velocity": 55,
        "subtype": "noteOn"
      },
      {
        "deltaTime": 22,
        "channel": 0,
        "type": "channel",
        "subtype": "noteOff",
        "noteNumber": 80,
        "velocity": 0
      },
      {
        "deltaTime": 0,
        "channel": 0,
        "type": "channel",
        "noteNumber": 89,
        "velocity": 62,
        "subtype": "noteOn"
      },
      {
        "deltaTime": 5,
        "channel": 0,
        "type": "channel",
        "subtype": "noteOff",
        "noteNumber": 41,
        "velocity": 0
      },
      {
        "deltaTime": 33,
        "channel": 0,
        "type": "channel",
        "subtype": "noteOff",
        "noteNumber": 89,
        "velocity": 0
      },
      {
        "deltaTime": 3,
        "channel": 0,
        "type": "channel",
        "noteNumber": 89,
        "velocity": 78,
        "subtype": "noteOn"
      },
      {
        "deltaTime": 96,
        "channel": 0,
        "type": "channel",
        "noteNumber": 98,
        "velocity": 67,
        "subtype": "noteOn"
      },
      {
        "deltaTime": 19,
        "channel": 0,
        "type": "channel",
        "subtype": "noteOff",
        "noteNumber": 98,
        "velocity": 0
      },
      {
        "deltaTime": 7,
        "channel": 0,
        "type": "channel",
        "subtype": "noteOff",
        "noteNumber": 89,
        "velocity": 0
      },
      {
        "deltaTime": 142,
        "channel": 0,
        "type": "channel",
        "noteNumber": 77,
        "velocity": 53,
        "subtype": "noteOn"
      },
      {
        "deltaTime": 26,
        "channel": 0,
        "type": "channel",
        "subtype": "noteOff",
        "noteNumber": 77,
        "velocity": 0
      },
      {
        "deltaTime": 48,
        "channel": 0,
        "type": "channel",
        "noteNumber": 37,
        "velocity": 59,
        "subtype": "noteOn"
      },
      {
        "deltaTime": 175,
        "channel": 0,
        "type": "channel",
        "subtype": "noteOff",
        "noteNumber": 37,
        "velocity": 0
      },
      {
        "deltaTime": 80,
        "channel": 0,
        "type": "channel",
        "noteNumber": 91,
        "velocity": 62,
        "subtype": "noteOn"
      },
      {
        "deltaTime": 84,
        "channel": 0,
        "type": "channel",
        "subtype": "noteOff",
        "noteNumber": 91,
        "velocity": 0
      },
      {
        "deltaTime": 43,
        "channel": 0,
        "type": "channel",
        "noteNumber": 98,
        "velocity": 61,
        "subtype": "noteOn"
      },
      {
        "deltaTime": 33,
        "channel": 0,
        "type": "channel",
        "subtype": "noteOff",
        "noteNumber": 98,
        "velocity": 0
      },
      {
        "deltaTime": 84,
        "channel": 0,
        "type": "channel",
        "noteNumber": 92,
        "velocity": 48,
        "subtype": "noteOn"
      },
      {
        "deltaTime": 17,
        "channel": 0,
        "type": "channel",
        "subtype": "noteOff",
        "noteNumber": 92,
        "velocity": 0
      },
      {
        "deltaTime": 7,
        "channel": 0,
        "type": "channel",
        "noteNumber": 41,
        "velocity": 69,
        "subtype": "noteOn"
      },
      {
        "deltaTime": 22,
        "channel": 0,
        "type": "channel",
        "noteNumber": 99,
        "velocity": 57,
        "subtype": "noteOn"
      },
      {
        "deltaTime": 14,
        "channel": 0,
        "type": "channel",
        "subtype": "noteOff",
        "noteNumber": 99,
        "velocity": 0
      },
      {
        "deltaTime": 3,
        "channel": 0,
        "type": "channel",
        "noteNumber": 99,
        "velocity": 57,
        "subtype": "noteOn"
      },
      {
        "deltaTime": 24,
        "channel": 0,
        "type": "channel",
        "subtype": "noteOff",
        "noteNumber": 99,
        "velocity": 0
      },
      {
        "deltaTime": 96,
        "channel": 0,
        "type": "channel",
        "noteNumber": 99,
        "velocity": 67,
        "subtype": "noteOn"
      },
      {
        "deltaTime": 21,
        "channel": 0,
        "type": "channel",
        "subtype": "noteOff",
        "noteNumber": 99,
        "velocity": 0
      },
      {
        "deltaTime": 36,
        "channel": 0,
        "type": "channel",
        "noteNumber": 87,
        "velocity": 56,
        "subtype": "noteOn"
      },
      {
        "deltaTime": 80,
        "channel": 0,
        "type": "channel",
        "subtype": "noteOff",
        "noteNumber": 87,
        "velocity": 0
      },
      {
        "deltaTime": 2,
        "channel": 0,
        "type": "channel",
        "noteNumber": 89,
        "velocity": 59,
        "subtype": "noteOn"
      },
      {
        "deltaTime": 36,
        "channel": 0,
        "type": "channel",
        "subtype": "noteOff",
        "noteNumber": 89,
        "velocity": 0
      },
      {
        "deltaTime": 58,
        "channel": 0,
        "type": "channel",
        "subtype": "noteOff",
        "noteNumber": 41,
        "velocity": 0
      },
      {
        "deltaTime": 60,
        "channel": 0,
        "type": "channel",
        "noteNumber": 89,
        "velocity": 64,
        "subtype": "noteOn"
      },
      {
        "deltaTime": 84,
        "channel": 0,
        "type": "channel",
        "subtype": "noteOff",
        "noteNumber": 89,
        "velocity": 0
      },
      {
        "deltaTime": 81,
        "channel": 0,
        "type": "channel",
        "noteNumber": 92,
        "velocity": 46,
        "subtype": "noteOn"
      },
      {
        "deltaTime": 22,
        "channel": 0,
        "type": "channel",
        "subtype": "noteOff",
        "noteNumber": 92,
        "velocity": 0
      },
      {
        "deltaTime": 9,
        "channel": 0,
        "type": "channel",
        "noteNumber": 96,
        "velocity": 42,
        "subtype": "noteOn"
      },
      {
        "deltaTime": 12,
        "channel": 0,
        "type": "channel",
        "subtype": "noteOff",
        "noteNumber": 96,
        "velocity": 0
      },
      {
        "deltaTime": 8,
        "channel": 0,
        "type": "channel",
        "noteNumber": 96,
        "velocity": 65,
        "subtype": "noteOn"
      },
      {
        "deltaTime": 2,
        "channel": 0,
        "type": "channel",
        "noteNumber": 37,
        "velocity": 65,
        "subtype": "noteOn"
      },
      {
        "deltaTime": 12,
        "channel": 0,
        "type": "channel",
        "subtype": "noteOff",
        "noteNumber": 96,
        "velocity": 0
      },
      {
        "deltaTime": 106,
        "channel": 0,
        "type": "channel",
        "noteNumber": 96,
        "velocity": 63,
        "subtype": "noteOn"
      },
      {
        "deltaTime": 64,
        "channel": 0,
        "type": "channel",
        "subtype": "noteOff",
        "noteNumber": 96,
        "velocity": 0
      },
      {
        "deltaTime": 70,
        "channel": 0,
        "type": "channel",
        "subtype": "noteOff",
        "noteNumber": 37,
        "velocity": 0
      },
      {
        "deltaTime": 48,
        "channel": 0,
        "type": "channel",
        "noteNumber": 39,
        "velocity": 68,
        "subtype": "noteOn"
      },
      {
        "deltaTime": 288,
        "channel": 0,
        "type": "channel",
        "subtype": "noteOff",
        "noteNumber": 39,
        "velocity": 0
      },
      {
        "deltaTime": 26,
        "channel": 0,
        "type": "channel",
        "noteNumber": 41,
        "velocity": 71,
        "subtype": "noteOn"
      },
      {
        "deltaTime": 123,
        "channel": 0,
        "type": "channel",
        "noteNumber": 96,
        "velocity": 58,
        "subtype": "noteOn"
      },
      {
        "deltaTime": 12,
        "channel": 0,
        "type": "channel",
        "subtype": "noteOff",
        "noteNumber": 96,
        "velocity": 0
      },
      {
        "deltaTime": 9,
        "channel": 0,
        "type": "channel",
        "noteNumber": 68,
        "velocity": 50,
        "subtype": "noteOn"
      },
      {
        "deltaTime": 41,
        "channel": 0,
        "type": "channel",
        "subtype": "noteOff",
        "noteNumber": 68,
        "velocity": 0
      },
      {
        "deltaTime": 178,
        "channel": 0,
        "type": "channel",
        "noteNumber": 89,
        "velocity": 68,
        "subtype": "noteOn"
      },
      {
        "deltaTime": 14,
        "channel": 0,
        "type": "channel",
        "subtype": "noteOff",
        "noteNumber": 41,
        "velocity": 0
      },
      {
        "deltaTime": 5,
        "channel": 0,
        "type": "channel",
        "noteNumber": 68,
        "velocity": 47,
        "subtype": "noteOn"
      },
      {
        "deltaTime": 38,
        "channel": 0,
        "type": "channel",
        "subtype": "noteOff",
        "noteNumber": 89,
        "velocity": 0
      },
      {
        "deltaTime": 0,
        "channel": 0,
        "type": "channel",
        "subtype": "noteOff",
        "noteNumber": 68,
        "velocity": 0
      },
      {
        "deltaTime": 17,
        "channel": 0,
        "type": "channel",
        "noteNumber": 67,
        "velocity": 57,
        "subtype": "noteOn"
      },
      {
        "deltaTime": 15,
        "channel": 0,
        "type": "channel",
        "subtype": "noteOff",
        "noteNumber": 67,
        "velocity": 0
      },
      {
        "deltaTime": 7,
        "channel": 0,
        "type": "channel",
        "noteNumber": 79,
        "velocity": 45,
        "subtype": "noteOn"
      },
      {
        "deltaTime": 19,
        "channel": 0,
        "type": "channel",
        "subtype": "noteOff",
        "noteNumber": 79,
        "velocity": 0
      },
      {
        "deltaTime": 41,
        "channel": 0,
        "type": "channel",
        "noteNumber": 89,
        "velocity": 63,
        "subtype": "noteOn"
      },
      {
        "deltaTime": 67,
        "channel": 0,
        "type": "channel",
        "subtype": "noteOff",
        "noteNumber": 89,
        "velocity": 0
      },
      {
        "deltaTime": 12,
        "channel": 0,
        "type": "channel",
        "noteNumber": 75,
        "velocity": 46,
        "subtype": "noteOn"
      },
      {
        "deltaTime": 48,
        "channel": 0,
        "type": "channel",
        "subtype": "noteOff",
        "noteNumber": 75,
        "velocity": 0
      },
      {
        "deltaTime": 7,
        "channel": 0,
        "type": "channel",
        "noteNumber": 37,
        "velocity": 60,
        "subtype": "noteOn"
      },
      {
        "deltaTime": 271,
        "channel": 0,
        "type": "channel",
        "subtype": "noteOff",
        "noteNumber": 37,
        "velocity": 0
      },
      {
        "deltaTime": 82,
        "channel": 0,
        "type": "channel",
        "noteNumber": 91,
        "velocity": 62,
        "subtype": "noteOn"
      },
      {
        "deltaTime": 144,
        "channel": 0,
        "type": "channel",
        "subtype": "noteOff",
        "noteNumber": 91,
        "velocity": 0
      },
      {
        "deltaTime": 86,
        "channel": 0,
        "type": "channel",
        "noteNumber": 98,
        "velocity": 46,
        "subtype": "noteOn"
      },
      {
        "deltaTime": 12,
        "channel": 0,
        "type": "channel",
        "subtype": "noteOff",
        "noteNumber": 98,
        "velocity": 0
      },
      {
        "deltaTime": 29,
        "channel": 0,
        "type": "channel",
        "noteNumber": 41,
        "velocity": 70,
        "subtype": "noteOn"
      },
      {
        "deltaTime": 192,
        "channel": 0,
        "type": "channel",
        "noteNumber": 99,
        "velocity": 55,
        "subtype": "noteOn"
      },
      {
        "deltaTime": 19,
        "channel": 0,
        "type": "channel",
        "subtype": "noteOff",
        "noteNumber": 99,
        "velocity": 0
      },
      {
        "deltaTime": 3,
        "channel": 0,
        "type": "channel",
        "noteNumber": 80,
        "velocity": 52,
        "subtype": "noteOn"
      },
      {
        "deltaTime": 12,
        "channel": 0,
        "type": "channel",
        "subtype": "noteOff",
        "noteNumber": 80,
        "velocity": 0
      },
      {
        "deltaTime": 2,
        "channel": 0,
        "type": "channel",
        "noteNumber": 68,
        "velocity": 50,
        "subtype": "noteOn"
      },
      {
        "deltaTime": 60,
        "channel": 0,
        "type": "channel",
        "subtype": "noteOff",
        "noteNumber": 68,
        "velocity": 0
      },
      {
        "deltaTime": 36,
        "channel": 0,
        "type": "channel",
        "noteNumber": 99,
        "velocity": 60,
        "subtype": "noteOn"
      },
      {
        "deltaTime": 53,
        "channel": 0,
        "type": "channel",
        "subtype": "noteOff",
        "noteNumber": 41,
        "velocity": 0
      },
      {
        "deltaTime": 0,
        "channel": 0,
        "type": "channel",
        "noteNumber": 89,
        "velocity": 63,
        "subtype": "noteOn"
      },
      {
        "deltaTime": 2,
        "channel": 0,
        "type": "channel",
        "subtype": "noteOff",
        "noteNumber": 99,
        "velocity": 0
      },
      {
        "deltaTime": 34,
        "channel": 0,
        "type": "channel",
        "subtype": "noteOff",
        "noteNumber": 89,
        "velocity": 0
      },
      {
        "deltaTime": 70,
        "channel": 0,
        "type": "channel",
        "noteNumber": 96,
        "velocity": 64,
        "subtype": "noteOn"
      },
      {
        "deltaTime": 12,
        "channel": 0,
        "type": "channel",
        "subtype": "noteOff",
        "noteNumber": 96,
        "velocity": 0
      },
      {
        "deltaTime": 19,
        "channel": 0,
        "type": "channel",
        "noteNumber": 96,
        "velocity": 66,
        "subtype": "noteOn"
      },
      {
        "deltaTime": 19,
        "channel": 0,
        "type": "channel",
        "subtype": "noteOff",
        "noteNumber": 96,
        "velocity": 0
      },
      {
        "deltaTime": 0,
        "channel": 0,
        "type": "channel",
        "noteNumber": 99,
        "velocity": 106,
        "subtype": "noteOn"
      },
      {
        "deltaTime": 79,
        "channel": 0,
        "type": "channel",
        "subtype": "noteOff",
        "noteNumber": 99,
        "velocity": 0
      },
      {
        "deltaTime": 51,
        "channel": 0,
        "type": "channel",
        "noteNumber": 37,
        "velocity": 66,
        "subtype": "noteOn"
      },
      {
        "deltaTime": 192,
        "channel": 0,
        "type": "channel",
        "noteNumber": 94,
        "velocity": 50,
        "subtype": "noteOn"
      },
      {
        "deltaTime": 40,
        "channel": 0,
        "type": "channel",
        "subtype": "noteOff",
        "noteNumber": 94,
        "velocity": 0
      },
      {
        "deltaTime": 29,
        "channel": 0,
        "type": "channel",
        "subtype": "noteOff",
        "noteNumber": 37,
        "velocity": 0
      },
      {
        "deltaTime": 46,
        "channel": 0,
        "type": "channel",
        "noteNumber": 39,
        "velocity": 72,
        "subtype": "noteOn"
      },
      {
        "deltaTime": 257,
        "channel": 0,
        "type": "channel",
        "noteNumber": 65,
        "velocity": 47,
        "subtype": "noteOn"
      },
      {
        "deltaTime": 26,
        "channel": 0,
        "type": "channel",
        "subtype": "noteOff",
        "noteNumber": 65,
        "velocity": 0
      },
      {
        "deltaTime": 10,
        "channel": 0,
        "type": "channel",
        "subtype": "noteOff",
        "noteNumber": 39,
        "velocity": 0
      },
      {
        "deltaTime": 144,
        "channel": 0,
        "type": "channel",
        "noteNumber": 96,
        "velocity": 68,
        "subtype": "noteOn"
      },
      {
        "deltaTime": 12,
        "channel": 0,
        "type": "channel",
        "subtype": "noteOff",
        "noteNumber": 96,
        "velocity": 0
      },
      {
        "deltaTime": 7,
        "channel": 0,
        "type": "channel",
        "noteNumber": 68,
        "velocity": 48,
        "subtype": "noteOn"
      },
      {
        "deltaTime": 36,
        "channel": 0,
        "type": "channel",
        "subtype": "noteOff",
        "noteNumber": 68,
        "velocity": 0
      },
      {
        "deltaTime": 17,
        "channel": 0,
        "type": "channel",
        "noteNumber": 67,
        "velocity": 33,
        "subtype": "noteOn"
      },
      {
        "deltaTime": 12,
        "channel": 0,
        "type": "channel",
        "subtype": "noteOff",
        "noteNumber": 67,
        "velocity": 0
      },
      {
        "deltaTime": 398,
        "channel": 0,
        "type": "channel",
        "noteNumber": 96,
        "velocity": 109,
        "subtype": "noteOn"
      },
      {
        "deltaTime": 82,
        "channel": 0,
        "type": "channel",
        "subtype": "noteOff",
        "noteNumber": 96,
        "velocity": 0
      },
      {
        "deltaTime": 12,
        "channel": 0,
        "type": "channel",
        "noteNumber": 65,
        "velocity": 61,
        "subtype": "noteOn"
      },
      {
        "deltaTime": 72,
        "channel": 0,
        "type": "channel",
        "subtype": "noteOff",
        "noteNumber": 65,
        "velocity": 0
      },
      {
        "deltaTime": 16,
        "channel": 0,
        "type": "channel",
        "noteNumber": 96,
        "velocity": 59,
        "subtype": "noteOn"
      },
      {
        "deltaTime": 68,
        "channel": 0,
        "type": "channel",
        "subtype": "noteOff",
        "noteNumber": 96,
        "velocity": 0
      },
      {
        "deltaTime": 151,
        "channel": 0,
        "type": "channel",
        "noteNumber": 91,
        "velocity": 61,
        "subtype": "noteOn"
      },
      {
        "deltaTime": 153,
        "channel": 0,
        "type": "channel",
        "subtype": "noteOff",
        "noteNumber": 91,
        "velocity": 0
      },
      {
        "deltaTime": 116,
        "channel": 0,
        "type": "channel",
        "noteNumber": 99,
        "velocity": 56,
        "subtype": "noteOn"
      },
      {
        "deltaTime": 0,
        "channel": 0,
        "type": "channel",
        "noteNumber": 41,
        "velocity": 68,
        "subtype": "noteOn"
      },
      {
        "deltaTime": 40,
        "channel": 0,
        "type": "channel",
        "subtype": "noteOff",
        "noteNumber": 99,
        "velocity": 0
      },
      {
        "deltaTime": 113,
        "channel": 0,
        "type": "channel",
        "noteNumber": 80,
        "velocity": 49,
        "subtype": "noteOn"
      },
      {
        "deltaTime": 15,
        "channel": 0,
        "type": "channel",
        "subtype": "noteOff",
        "noteNumber": 80,
        "velocity": 0
      },
      {
        "deltaTime": 50,
        "channel": 0,
        "type": "channel",
        "noteNumber": 87,
        "velocity": 57,
        "subtype": "noteOn"
      },
      {
        "deltaTime": 38,
        "channel": 0,
        "type": "channel",
        "subtype": "noteOff",
        "noteNumber": 87,
        "velocity": 0
      },
      {
        "deltaTime": 41,
        "channel": 0,
        "type": "channel",
        "noteNumber": 89,
        "velocity": 59,
        "subtype": "noteOn"
      },
      {
        "deltaTime": 7,
        "channel": 0,
        "type": "channel",
        "subtype": "noteOff",
        "noteNumber": 41,
        "velocity": 0
      },
      {
        "deltaTime": 8,
        "channel": 0,
        "type": "channel",
        "noteNumber": 99,
        "velocity": 53,
        "subtype": "noteOn"
      },
      {
        "deltaTime": 21,
        "channel": 0,
        "type": "channel",
        "subtype": "noteOff",
        "noteNumber": 89,
        "velocity": 0
      },
      {
        "deltaTime": 27,
        "channel": 0,
        "type": "channel",
        "subtype": "noteOff",
        "noteNumber": 99,
        "velocity": 0
      },
      {
        "deltaTime": 19,
        "channel": 0,
        "type": "channel",
        "noteNumber": 92,
        "velocity": 55,
        "subtype": "noteOn"
      },
      {
        "deltaTime": 69,
        "channel": 0,
        "type": "channel",
        "subtype": "noteOff",
        "noteNumber": 92,
        "velocity": 0
      },
      {
        "deltaTime": 63,
        "channel": 0,
        "type": "channel",
        "noteNumber": 84,
        "velocity": 63,
        "subtype": "noteOn"
      },
      {
        "deltaTime": 31,
        "channel": 0,
        "type": "channel",
        "subtype": "noteOff",
        "noteNumber": 84,
        "velocity": 0
      },
      {
        "deltaTime": 77,
        "channel": 0,
        "type": "channel",
        "noteNumber": 92,
        "velocity": 46,
        "subtype": "noteOn"
      },
      {
        "deltaTime": 17,
        "channel": 0,
        "type": "channel",
        "subtype": "noteOff",
        "noteNumber": 92,
        "velocity": 0
      },
      {
        "deltaTime": 14,
        "channel": 0,
        "type": "channel",
        "noteNumber": 96,
        "velocity": 47,
        "subtype": "noteOn"
      },
      {
        "deltaTime": 12,
        "channel": 0,
        "type": "channel",
        "subtype": "noteOff",
        "noteNumber": 96,
        "velocity": 0
      },
      {
        "deltaTime": 2,
        "channel": 0,
        "type": "channel",
        "noteNumber": 96,
        "velocity": 62,
        "subtype": "noteOn"
      },
      {
        "deltaTime": 65,
        "channel": 0,
        "type": "channel",
        "subtype": "noteOff",
        "noteNumber": 96,
        "velocity": 0
      },
      {
        "deltaTime": 19,
        "channel": 0,
        "type": "channel",
        "noteNumber": 77,
        "velocity": 68,
        "subtype": "noteOn"
      },
      {
        "deltaTime": 58,
        "channel": 0,
        "type": "channel",
        "subtype": "noteOff",
        "noteNumber": 77,
        "velocity": 0
      },
      {
        "deltaTime": 168,
        "channel": 0,
        "type": "channel",
        "noteNumber": 39,
        "velocity": 67,
        "subtype": "noteOn"
      },
      {
        "deltaTime": 254,
        "channel": 0,
        "type": "channel",
        "noteNumber": 65,
        "velocity": 44,
        "subtype": "noteOn"
      },
      {
        "deltaTime": 24,
        "channel": 0,
        "type": "channel",
        "subtype": "noteOff",
        "noteNumber": 65,
        "velocity": 0
      },
      {
        "deltaTime": 10,
        "channel": 0,
        "type": "channel",
        "subtype": "noteOff",
        "noteNumber": 39,
        "velocity": 0
      },
      {
        "deltaTime": 12,
        "channel": 0,
        "type": "channel",
        "noteNumber": 96,
        "velocity": 58,
        "subtype": "noteOn"
      },
      {
        "deltaTime": 10,
        "channel": 0,
        "type": "channel",
        "subtype": "noteOff",
        "noteNumber": 96,
        "velocity": 0
      },
      {
        "deltaTime": 115,
        "channel": 0,
        "type": "channel",
        "noteNumber": 101,
        "velocity": 70,
        "subtype": "noteOn"
      },
      {
        "deltaTime": 19,
        "channel": 0,
        "type": "channel",
        "subtype": "noteOff",
        "noteNumber": 101,
        "velocity": 0
      },
      {
        "deltaTime": 62,
        "channel": 0,
        "type": "channel",
        "noteNumber": 89,
        "velocity": 73,
        "subtype": "noteOn"
      },
      {
        "deltaTime": 53,
        "channel": 0,
        "type": "channel",
        "subtype": "noteOff",
        "noteNumber": 89,
        "velocity": 0
      },
      {
        "deltaTime": 27,
        "channel": 0,
        "type": "channel",
        "noteNumber": 89,
        "velocity": 69,
        "subtype": "noteOn"
      },
      {
        "deltaTime": 16,
        "channel": 0,
        "type": "channel",
        "noteNumber": 96,
        "velocity": 93,
        "subtype": "noteOn"
      },
      {
        "deltaTime": 68,
        "channel": 0,
        "type": "channel",
        "subtype": "noteOff",
        "noteNumber": 89,
        "velocity": 0
      },
      {
        "deltaTime": 14,
        "channel": 0,
        "type": "channel",
        "noteNumber": 89,
        "velocity": 81,
        "subtype": "noteOn"
      },
      {
        "deltaTime": 48,
        "channel": 0,
        "type": "channel",
        "subtype": "noteOff",
        "noteNumber": 89,
        "velocity": 0
      },
      {
        "deltaTime": 7,
        "channel": 0,
        "type": "channel",
        "noteNumber": 89,
        "velocity": 94,
        "subtype": "noteOn"
      },
      {
        "deltaTime": 29,
        "channel": 0,
        "type": "channel",
        "subtype": "noteOff",
        "noteNumber": 96,
        "velocity": 0
      },
      {
        "deltaTime": 41,
        "channel": 0,
        "type": "channel",
        "noteNumber": 96,
        "velocity": 93,
        "subtype": "noteOn"
      },
      {
        "deltaTime": 31,
        "channel": 0,
        "type": "channel",
        "subtype": "noteOff",
        "noteNumber": 96,
        "velocity": 0
      },
      {
        "deltaTime": 2,
        "channel": 0,
        "type": "channel",
        "noteNumber": 99,
        "velocity": 111,
        "subtype": "noteOn"
      },
      {
        "deltaTime": 20,
        "channel": 0,
        "type": "channel",
        "subtype": "noteOff",
        "noteNumber": 89,
        "velocity": 0
      },
      {
        "deltaTime": 57,
        "channel": 0,
        "type": "channel",
        "subtype": "noteOff",
        "noteNumber": 99,
        "velocity": 0
      },
      {
        "deltaTime": 411,
        "channel": 0,
        "type": "channel",
        "noteNumber": 67,
        "velocity": 45,
        "subtype": "noteOn"
      },
      {
        "deltaTime": 124,
        "channel": 0,
        "type": "channel",
        "noteNumber": 65,
        "velocity": 45,
        "subtype": "noteOn"
      },
      {
        "deltaTime": 27,
        "channel": 0,
        "type": "channel",
        "subtype": "noteOff",
        "noteNumber": 67,
        "velocity": 0
      },
      {
        "deltaTime": 41,
        "channel": 0,
        "type": "channel",
        "subtype": "noteOff",
        "noteNumber": 65,
        "velocity": 0
      },
      {
        "deltaTime": 12,
        "channel": 0,
        "type": "channel",
        "noteNumber": 65,
        "velocity": 43,
        "subtype": "noteOn"
      },
      {
        "deltaTime": 117,
        "channel": 0,
        "type": "channel",
        "noteNumber": 68,
        "velocity": 42,
        "subtype": "noteOn"
      },
      {
        "deltaTime": 39,
        "channel": 0,
        "type": "channel",
        "subtype": "noteOff",
        "noteNumber": 65,
        "velocity": 0
      },
      {
        "deltaTime": 2,
        "channel": 0,
        "type": "channel",
        "subtype": "noteOff",
        "noteNumber": 68,
        "velocity": 0
      },
      {
        "deltaTime": 122,
        "channel": 0,
        "type": "channel",
        "noteNumber": 68,
        "velocity": 48,
        "subtype": "noteOn"
      },
      {
        "deltaTime": 36,
        "channel": 0,
        "type": "channel",
        "noteNumber": 70,
        "velocity": 49,
        "subtype": "noteOn"
      },
      {
        "deltaTime": 22,
        "channel": 0,
        "type": "channel",
        "subtype": "noteOff",
        "noteNumber": 68,
        "velocity": 0
      },
      {
        "deltaTime": 94,
        "channel": 0,
        "type": "channel",
        "subtype": "noteOff",
        "noteNumber": 70,
        "velocity": 0
      },
      {
        "deltaTime": 7,
        "channel": 0,
        "type": "channel",
        "noteNumber": 68,
        "velocity": 47,
        "subtype": "noteOn"
      },
      {
        "deltaTime": 38,
        "channel": 0,
        "type": "channel",
        "subtype": "noteOff",
        "noteNumber": 68,
        "velocity": 0
      },
      {
        "deltaTime": 5,
        "channel": 0,
        "type": "channel",
        "noteNumber": 89,
        "velocity": 79,
        "subtype": "noteOn"
      },
      {
        "deltaTime": 10,
        "channel": 0,
        "type": "channel",
        "noteNumber": 67,
        "velocity": 36,
        "subtype": "noteOn"
      },
      {
        "deltaTime": 16,
        "channel": 0,
        "type": "channel",
        "subtype": "noteOff",
        "noteNumber": 67,
        "velocity": 0
      },
      {
        "deltaTime": 0,
        "channel": 0,
        "type": "channel",
        "noteNumber": 79,
        "velocity": 26,
        "subtype": "noteOn"
      },
      {
        "deltaTime": 15,
        "channel": 0,
        "type": "channel",
        "subtype": "noteOff",
        "noteNumber": 79,
        "velocity": 0
      },
      {
        "deltaTime": 0,
        "channel": 0,
        "type": "channel",
        "noteNumber": 67,
        "velocity": 34,
        "subtype": "noteOn"
      },
      {
        "deltaTime": 26,
        "channel": 0,
        "type": "channel",
        "subtype": "noteOff",
        "noteNumber": 67,
        "velocity": 0
      },
      {
        "deltaTime": 115,
        "channel": 0,
        "type": "channel",
        "subtype": "noteOff",
        "noteNumber": 89,
        "velocity": 0
      },
      {
        "deltaTime": 411,
        "channel": 0,
        "type": "channel",
        "noteNumber": 67,
        "velocity": 44,
        "subtype": "noteOn"
      },
      {
        "deltaTime": 125,
        "channel": 0,
        "type": "channel",
        "noteNumber": 65,
        "velocity": 46,
        "subtype": "noteOn"
      },
      {
        "deltaTime": 26,
        "channel": 0,
        "type": "channel",
        "subtype": "noteOff",
        "noteNumber": 67,
        "velocity": 0
      },
      {
        "deltaTime": 43,
        "channel": 0,
        "type": "channel",
        "subtype": "noteOff",
        "noteNumber": 65,
        "velocity": 0
      },
      {
        "deltaTime": 10,
        "channel": 0,
        "type": "channel",
        "noteNumber": 65,
        "velocity": 44,
        "subtype": "noteOn"
      },
      {
        "deltaTime": 120,
        "channel": 0,
        "type": "channel",
        "noteNumber": 68,
        "velocity": 41,
        "subtype": "noteOn"
      },
      {
        "deltaTime": 38,
        "channel": 0,
        "type": "channel",
        "subtype": "noteOff",
        "noteNumber": 65,
        "velocity": 0
      },
      {
        "deltaTime": 0,
        "channel": 0,
        "type": "channel",
        "subtype": "noteOff",
        "noteNumber": 68,
        "velocity": 0
      },
      {
        "deltaTime": 125,
        "channel": 0,
        "type": "channel",
        "noteNumber": 68,
        "velocity": 47,
        "subtype": "noteOn"
      },
      {
        "deltaTime": 36,
        "channel": 0,
        "type": "channel",
        "noteNumber": 70,
        "velocity": 48,
        "subtype": "noteOn"
      },
      {
        "deltaTime": 5,
        "channel": 0,
        "type": "channel",
        "subtype": "noteOff",
        "noteNumber": 68,
        "velocity": 0
      },
      {
        "deltaTime": 33,
        "channel": 0,
        "type": "channel",
        "noteNumber": 65,
        "velocity": 53,
        "subtype": "noteOn"
      },
      {
        "deltaTime": 72,
        "channel": 0,
        "type": "channel",
        "subtype": "noteOff",
        "noteNumber": 70,
        "velocity": 0
      },
      {
        "deltaTime": 3,
        "channel": 0,
        "type": "channel",
        "subtype": "noteOff",
        "noteNumber": 65,
        "velocity": 0
      },
      {
        "deltaTime": 5,
        "channel": 0,
        "type": "channel",
        "noteNumber": 68,
        "velocity": 49,
        "subtype": "noteOn"
      },
      {
        "deltaTime": 38,
        "channel": 0,
        "type": "channel",
        "subtype": "noteOff",
        "noteNumber": 68,
        "velocity": 0
      },
      {
        "deltaTime": 2,
        "channel": 0,
        "type": "channel",
        "noteNumber": 89,
        "velocity": 79,
        "subtype": "noteOn"
      },
      {
        "deltaTime": 15,
        "channel": 0,
        "type": "channel",
        "noteNumber": 67,
        "velocity": 36,
        "subtype": "noteOn"
      },
      {
        "deltaTime": 14,
        "channel": 0,
        "type": "channel",
        "subtype": "noteOff",
        "noteNumber": 67,
        "velocity": 0
      },
      {
        "deltaTime": 0,
        "channel": 0,
        "type": "channel",
        "noteNumber": 79,
        "velocity": 26,
        "subtype": "noteOn"
      },
      {
        "deltaTime": 17,
        "channel": 0,
        "type": "channel",
        "subtype": "noteOff",
        "noteNumber": 79,
        "velocity": 0
      },
      {
        "deltaTime": 0,
        "channel": 0,
        "type": "channel",
        "noteNumber": 67,
        "velocity": 34,
        "subtype": "noteOn"
      },
      {
        "deltaTime": 26,
        "channel": 0,
        "type": "channel",
        "subtype": "noteOff",
        "noteNumber": 67,
        "velocity": 0
      },
      {
        "deltaTime": 116,
        "channel": 0,
        "type": "channel",
        "subtype": "noteOff",
        "noteNumber": 89,
        "velocity": 0
      },
      {
        "deltaTime": 256,
        "channel": 0,
        "type": "channel",
        "noteNumber": 65,
        "velocity": 45,
        "subtype": "noteOn"
      },
      {
        "deltaTime": 65,
        "channel": 0,
        "type": "channel",
        "subtype": "noteOff",
        "noteNumber": 65,
        "velocity": 0
      },
      {
        "deltaTime": 91,
        "channel": 0,
        "type": "channel",
        "noteNumber": 67,
        "velocity": 44,
        "subtype": "noteOn"
      },
      {
        "deltaTime": 125,
        "channel": 0,
        "type": "channel",
        "noteNumber": 65,
        "velocity": 46,
        "subtype": "noteOn"
      },
      {
        "deltaTime": 27,
        "channel": 0,
        "type": "channel",
        "subtype": "noteOff",
        "noteNumber": 67,
        "velocity": 0
      },
      {
        "deltaTime": 40,
        "channel": 0,
        "type": "channel",
        "subtype": "noteOff",
        "noteNumber": 65,
        "velocity": 0
      },
      {
        "deltaTime": 12,
        "channel": 0,
        "type": "channel",
        "noteNumber": 65,
        "velocity": 50,
        "subtype": "noteOn"
      },
      {
        "deltaTime": 118,
        "channel": 0,
        "type": "channel",
        "noteNumber": 68,
        "velocity": 41,
        "subtype": "noteOn"
      },
      {
        "deltaTime": 29,
        "channel": 0,
        "type": "channel",
        "subtype": "noteOff",
        "noteNumber": 65,
        "velocity": 0
      },
      {
        "deltaTime": 14,
        "channel": 0,
        "type": "channel",
        "subtype": "noteOff",
        "noteNumber": 68,
        "velocity": 0
      },
      {
        "deltaTime": 10,
        "channel": 0,
        "type": "channel",
        "noteNumber": 67,
        "velocity": 36,
        "subtype": "noteOn"
      },
      {
        "deltaTime": 24,
        "channel": 0,
        "type": "channel",
        "subtype": "noteOff",
        "noteNumber": 67,
        "velocity": 0
      },
      {
        "deltaTime": 5,
        "channel": 0,
        "type": "channel",
        "noteNumber": 68,
        "velocity": 43,
        "subtype": "noteOn"
      },
      {
        "deltaTime": 40,
        "channel": 0,
        "type": "channel",
        "subtype": "noteOff",
        "noteNumber": 68,
        "velocity": 0
      },
      {
        "deltaTime": 12,
        "channel": 0,
        "type": "channel",
        "noteNumber": 67,
        "velocity": 31,
        "subtype": "noteOn"
      },
      {
        "deltaTime": 12,
        "channel": 0,
        "type": "channel",
        "subtype": "noteOff",
        "noteNumber": 67,
        "velocity": 0
      },
      {
        "deltaTime": 92,
        "channel": 0,
        "type": "channel",
        "noteNumber": 65,
        "velocity": 51,
        "subtype": "noteOn"
      },
      {
        "deltaTime": 79,
        "channel": 0,
        "type": "channel",
        "noteNumber": 68,
        "velocity": 41,
        "subtype": "noteOn"
      },
      {
        "deltaTime": 41,
        "channel": 0,
        "type": "channel",
        "subtype": "noteOff",
        "noteNumber": 65,
        "velocity": 0
      },
      {
        "deltaTime": 0,
        "channel": 0,
        "type": "channel",
        "subtype": "noteOff",
        "noteNumber": 68,
        "velocity": 0
      },
      {
        "deltaTime": 14,
        "channel": 0,
        "type": "channel",
        "noteNumber": 67,
        "velocity": 31,
        "subtype": "noteOn"
      },
      {
        "deltaTime": 17,
        "channel": 0,
        "type": "channel",
        "subtype": "noteOff",
        "noteNumber": 67,
        "velocity": 0
      },
      {
        "deltaTime": 14,
        "channel": 0,
        "type": "channel",
        "noteNumber": 67,
        "velocity": 36,
        "subtype": "noteOn"
      },
      {
        "deltaTime": 27,
        "channel": 0,
        "type": "channel",
        "subtype": "noteOff",
        "noteNumber": 67,
        "velocity": 0
      },
      {
        "deltaTime": 4,
        "channel": 0,
        "type": "channel",
        "noteNumber": 68,
        "velocity": 40,
        "subtype": "noteOn"
      },
      {
        "deltaTime": 39,
        "channel": 0,
        "type": "channel",
        "subtype": "noteOff",
        "noteNumber": 68,
        "velocity": 0
      },
      {
        "deltaTime": 0,
        "channel": 0,
        "type": "channel",
        "noteNumber": 79,
        "velocity": 29,
        "subtype": "noteOn"
      },
      {
        "deltaTime": 21,
        "channel": 0,
        "type": "channel",
        "subtype": "noteOff",
        "noteNumber": 79,
        "velocity": 0
      },
      {
        "deltaTime": 310,
        "channel": 0,
        "type": "channel",
        "noteNumber": 65,
        "velocity": 40,
        "subtype": "noteOn"
      },
      {
        "deltaTime": 65,
        "channel": 0,
        "type": "channel",
        "subtype": "noteOff",
        "noteNumber": 65,
        "velocity": 0
      },
      {
        "deltaTime": 89,
        "channel": 0,
        "type": "channel",
        "noteNumber": 67,
        "velocity": 45,
        "subtype": "noteOn"
      },
      {
        "deltaTime": 69,
        "channel": 0,
        "type": "channel",
        "subtype": "noteOff",
        "noteNumber": 67,
        "velocity": 0
      },
      {
        "deltaTime": 55,
        "channel": 0,
        "type": "channel",
        "noteNumber": 65,
        "velocity": 43,
        "subtype": "noteOn"
      },
      {
        "deltaTime": 68,
        "channel": 0,
        "type": "channel",
        "subtype": "noteOff",
        "noteNumber": 65,
        "velocity": 0
      },
      {
        "deltaTime": 12,
        "channel": 0,
        "type": "channel",
        "noteNumber": 65,
        "velocity": 45,
        "subtype": "noteOn"
      },
      {
        "deltaTime": 31,
        "channel": 0,
        "type": "channel",
        "subtype": "noteOff",
        "noteNumber": 65,
        "velocity": 0
      },
      {
        "deltaTime": 9,
        "channel": 0,
        "type": "channel",
        "noteNumber": 65,
        "velocity": 44,
        "subtype": "noteOn"
      },
      {
        "deltaTime": 116,
        "channel": 0,
        "type": "channel",
        "subtype": "noteOff",
        "noteNumber": 65,
        "velocity": 0
      },
      {
        "deltaTime": 14,
        "channel": 0,
        "type": "channel",
        "noteNumber": 67,
        "velocity": 38,
        "subtype": "noteOn"
      },
      {
        "deltaTime": 14,
        "channel": 0,
        "type": "channel",
        "subtype": "noteOff",
        "noteNumber": 67,
        "velocity": 0
      },
      {
        "deltaTime": 0,
        "type": "meta",
        "subtype": "endOfTrack"
      }
    ],
    [
      {
        "deltaTime": 753,
        "channel": 1,
        "type": "channel",
        "subtype": "programChange",
        "programNumber": 0
      },
      {
        "deltaTime": 0,
        "channel": 1,
        "type": "channel",
        "noteNumber": 62,
        "velocity": 32,
        "subtype": "noteOn"
      },
      {
        "deltaTime": 449,
        "channel": 1,
        "type": "channel",
        "subtype": "noteOff",
        "noteNumber": 62,
        "velocity": 0
      },
      {
        "deltaTime": 189,
        "channel": 1,
        "type": "channel",
        "noteNumber": 64,
        "velocity": 32,
        "subtype": "noteOn"
      },
      {
        "deltaTime": 411,
        "channel": 1,
        "type": "channel",
        "subtype": "noteOff",
        "noteNumber": 64,
        "velocity": 0
      },
      {
        "deltaTime": 146,
        "channel": 1,
        "type": "channel",
        "noteNumber": 78,
        "velocity": 16,
        "subtype": "noteOn"
      },
      {
        "deltaTime": 10,
        "channel": 1,
        "type": "channel",
        "subtype": "noteOff",
        "noteNumber": 78,
        "velocity": 0
      },
      {
        "deltaTime": 79,
        "channel": 1,
        "type": "channel",
        "noteNumber": 54,
        "velocity": 30,
        "subtype": "noteOn"
      },
      {
        "deltaTime": 547,
        "channel": 1,
        "type": "channel",
        "subtype": "noteOff",
        "noteNumber": 54,
        "velocity": 0
      },
      {
        "deltaTime": 94,
        "channel": 1,
        "type": "channel",
        "noteNumber": 54,
        "velocity": 30,
        "subtype": "noteOn"
      },
      {
        "deltaTime": 225,
        "channel": 1,
        "type": "channel",
        "subtype": "noteOff",
        "noteNumber": 54,
        "velocity": 0
      },
      {
        "deltaTime": 1049,
        "channel": 1,
        "type": "channel",
        "noteNumber": 64,
        "velocity": 32,
        "subtype": "noteOn"
      },
      {
        "deltaTime": 264,
        "channel": 1,
        "type": "channel",
        "subtype": "noteOff",
        "noteNumber": 64,
        "velocity": 0
      },
      {
        "deltaTime": 382,
        "channel": 1,
        "type": "channel",
        "noteNumber": 54,
        "velocity": 32,
        "subtype": "noteOn"
      },
      {
        "deltaTime": 72,
        "channel": 1,
        "type": "channel",
        "noteNumber": 62,
        "velocity": 16,
        "subtype": "noteOn"
      },
      {
        "deltaTime": 302,
        "channel": 1,
        "type": "channel",
        "subtype": "noteOff",
        "noteNumber": 62,
        "velocity": 0
      },
      {
        "deltaTime": 173,
        "channel": 1,
        "type": "channel",
        "subtype": "noteOff",
        "noteNumber": 54,
        "velocity": 0
      },
      {
        "deltaTime": 161,
        "channel": 1,
        "type": "channel",
        "noteNumber": 83,
        "velocity": 31,
        "subtype": "noteOn"
      },
      {
        "deltaTime": 31,
        "channel": 1,
        "type": "channel",
        "subtype": "noteOff",
        "noteNumber": 83,
        "velocity": 0
      },
      {
        "deltaTime": 535,
        "channel": 1,
        "type": "channel",
        "noteNumber": 62,
        "velocity": 29,
        "subtype": "noteOn"
      },
      {
        "deltaTime": 468,
        "channel": 1,
        "type": "channel",
        "subtype": "noteOff",
        "noteNumber": 62,
        "velocity": 0
      },
      {
        "deltaTime": 84,
        "channel": 1,
        "type": "channel",
        "noteNumber": 88,
        "velocity": 38,
        "subtype": "noteOn"
      },
      {
        "deltaTime": 79,
        "channel": 1,
        "type": "channel",
        "subtype": "noteOff",
        "noteNumber": 88,
        "velocity": 0
      },
      {
        "deltaTime": 656,
        "channel": 1,
        "type": "channel",
        "noteNumber": 54,
        "velocity": 30,
        "subtype": "noteOn"
      },
      {
        "deltaTime": 381,
        "channel": 1,
        "type": "channel",
        "subtype": "noteOff",
        "noteNumber": 54,
        "velocity": 0
      },
      {
        "deltaTime": 250,
        "channel": 1,
        "type": "channel",
        "noteNumber": 66,
        "velocity": 31,
        "subtype": "noteOn"
      },
      {
        "deltaTime": 7,
        "channel": 1,
        "type": "channel",
        "noteNumber": 54,
        "velocity": 31,
        "subtype": "noteOn"
      },
      {
        "deltaTime": 82,
        "channel": 1,
        "type": "channel",
        "subtype": "noteOff",
        "noteNumber": 66,
        "velocity": 0
      },
      {
        "deltaTime": 304,
        "channel": 1,
        "type": "channel",
        "subtype": "noteOff",
        "noteNumber": 54,
        "velocity": 0
      },
      {
        "deltaTime": 166,
        "channel": 1,
        "type": "channel",
        "noteNumber": 74,
        "velocity": 15,
        "subtype": "noteOn"
      },
      {
        "deltaTime": 48,
        "channel": 1,
        "type": "channel",
        "subtype": "noteOff",
        "noteNumber": 74,
        "velocity": 0
      },
      {
        "deltaTime": 118,
        "channel": 1,
        "type": "channel",
        "noteNumber": 59,
        "velocity": 11,
        "subtype": "noteOn"
      },
      {
        "deltaTime": 304,
        "channel": 1,
        "type": "channel",
        "subtype": "noteOff",
        "noteNumber": 59,
        "velocity": 0
      },
      {
        "deltaTime": 336,
        "channel": 1,
        "type": "channel",
        "noteNumber": 61,
        "velocity": 12,
        "subtype": "noteOn"
      },
      {
        "deltaTime": 305,
        "channel": 1,
        "type": "channel",
        "subtype": "noteOff",
        "noteNumber": 61,
        "velocity": 0
      },
      {
        "deltaTime": 175,
        "channel": 1,
        "type": "channel",
        "noteNumber": 81,
        "velocity": 12,
        "subtype": "noteOn"
      },
      {
        "deltaTime": 75,
        "channel": 1,
        "type": "channel",
        "subtype": "noteOff",
        "noteNumber": 81,
        "velocity": 0
      },
      {
        "deltaTime": 81,
        "channel": 1,
        "type": "channel",
        "noteNumber": 62,
        "velocity": 18,
        "subtype": "noteOn"
      },
      {
        "deltaTime": 269,
        "channel": 1,
        "type": "channel",
        "subtype": "noteOff",
        "noteNumber": 62,
        "velocity": 0
      },
      {
        "deltaTime": 298,
        "channel": 1,
        "type": "channel",
        "noteNumber": 54,
        "velocity": 30,
        "subtype": "noteOn"
      },
      {
        "deltaTime": 509,
        "channel": 1,
        "type": "channel",
        "subtype": "noteOff",
        "noteNumber": 54,
        "velocity": 0
      },
      {
        "deltaTime": 554,
        "channel": 1,
        "type": "channel",
        "noteNumber": 100,
        "velocity": 10,
        "subtype": "noteOn"
      },
      {
        "deltaTime": 38,
        "channel": 1,
        "type": "channel",
        "subtype": "noteOff",
        "noteNumber": 100,
        "velocity": 0
      },
      {
        "deltaTime": 96,
        "channel": 1,
        "type": "channel",
        "noteNumber": 33,
        "velocity": 34,
        "subtype": "noteOn"
      },
      {
        "deltaTime": 10,
        "channel": 1,
        "type": "channel",
        "subtype": "noteOff",
        "noteNumber": 33,
        "velocity": 0
      },
      {
        "deltaTime": 24,
        "channel": 1,
        "type": "channel",
        "noteNumber": 50,
        "velocity": 31,
        "subtype": "noteOn"
      },
      {
        "deltaTime": 22,
        "channel": 1,
        "type": "channel",
        "subtype": "noteOff",
        "noteNumber": 50,
        "velocity": 0
      },
      {
        "deltaTime": 21,
        "channel": 1,
        "type": "channel",
        "noteNumber": 43,
        "velocity": 29,
        "subtype": "noteOn"
      },
      {
        "deltaTime": 17,
        "channel": 1,
        "type": "channel",
        "subtype": "noteOff",
        "noteNumber": 43,
        "velocity": 0
      },
      {
        "deltaTime": 14,
        "channel": 1,
        "type": "channel",
        "noteNumber": 41,
        "velocity": 44,
        "subtype": "noteOn"
      },
      {
        "deltaTime": 15,
        "channel": 1,
        "type": "channel",
        "subtype": "noteOff",
        "noteNumber": 41,
        "velocity": 0
      },
      {
        "deltaTime": 19,
        "channel": 1,
        "type": "channel",
        "noteNumber": 50,
        "velocity": 38,
        "subtype": "noteOn"
      },
      {
        "deltaTime": 10,
        "channel": 1,
        "type": "channel",
        "subtype": "noteOff",
        "noteNumber": 50,
        "velocity": 0
      },
      {
        "deltaTime": 146,
        "channel": 1,
        "type": "channel",
        "noteNumber": 35,
        "velocity": 20,
        "subtype": "noteOn"
      },
      {
        "deltaTime": 10,
        "channel": 1,
        "type": "channel",
        "noteNumber": 37,
        "velocity": 26,
        "subtype": "noteOn"
      },
      {
        "deltaTime": 2,
        "channel": 1,
        "type": "channel",
        "subtype": "noteOff",
        "noteNumber": 35,
        "velocity": 0
      },
      {
        "deltaTime": 7,
        "channel": 1,
        "type": "channel",
        "subtype": "noteOff",
        "noteNumber": 37,
        "velocity": 0
      },
      {
        "deltaTime": 12,
        "channel": 1,
        "type": "channel",
        "noteNumber": 36,
        "velocity": 47,
        "subtype": "noteOn"
      },
      {
        "deltaTime": 31,
        "channel": 1,
        "type": "channel",
        "subtype": "noteOff",
        "noteNumber": 36,
        "velocity": 0
      },
      {
        "deltaTime": 0,
        "channel": 1,
        "type": "channel",
        "noteNumber": 32,
        "velocity": 26,
        "subtype": "noteOn"
      },
      {
        "deltaTime": 12,
        "channel": 1,
        "type": "channel",
        "subtype": "noteOff",
        "noteNumber": 32,
        "velocity": 0
      },
      {
        "deltaTime": 34,
        "channel": 1,
        "type": "channel",
        "noteNumber": 35,
        "velocity": 39,
        "subtype": "noteOn"
      },
      {
        "deltaTime": 29,
        "channel": 1,
        "type": "channel",
        "subtype": "noteOff",
        "noteNumber": 35,
        "velocity": 0
      },
      {
        "deltaTime": 17,
        "channel": 1,
        "type": "channel",
        "noteNumber": 52,
        "velocity": 52,
        "subtype": "noteOn"
      },
      {
        "deltaTime": 16,
        "channel": 1,
        "type": "channel",
        "subtype": "noteOff",
        "noteNumber": 52,
        "velocity": 0
      },
      {
        "deltaTime": 228,
        "channel": 1,
        "type": "channel",
        "noteNumber": 35,
        "velocity": 43,
        "subtype": "noteOn"
      },
      {
        "deltaTime": 65,
        "channel": 1,
        "type": "channel",
        "subtype": "noteOff",
        "noteNumber": 35,
        "velocity": 0
      },
      {
        "deltaTime": 3,
        "channel": 1,
        "type": "channel",
        "noteNumber": 62,
        "velocity": 40,
        "subtype": "noteOn"
      },
      {
        "deltaTime": 28,
        "channel": 1,
        "type": "channel",
        "subtype": "noteOff",
        "noteNumber": 62,
        "velocity": 0
      },
      {
        "deltaTime": 15,
        "channel": 1,
        "type": "channel",
        "noteNumber": 54,
        "velocity": 11,
        "subtype": "noteOn"
      },
      {
        "deltaTime": 14,
        "channel": 1,
        "type": "channel",
        "subtype": "noteOff",
        "noteNumber": 54,
        "velocity": 0
      },
      {
        "deltaTime": 123,
        "channel": 1,
        "type": "channel",
        "noteNumber": 36,
        "velocity": 11,
        "subtype": "noteOn"
      },
      {
        "deltaTime": 36,
        "channel": 1,
        "type": "channel",
        "subtype": "noteOff",
        "noteNumber": 36,
        "velocity": 0
      },
      {
        "deltaTime": 28,
        "channel": 1,
        "type": "channel",
        "noteNumber": 66,
        "velocity": 25,
        "subtype": "noteOn"
      },
      {
        "deltaTime": 60,
        "channel": 1,
        "type": "channel",
        "subtype": "noteOff",
        "noteNumber": 66,
        "velocity": 0
      },
      {
        "deltaTime": 3,
        "channel": 1,
        "type": "channel",
        "noteNumber": 66,
        "velocity": 14,
        "subtype": "noteOn"
      },
      {
        "deltaTime": 36,
        "channel": 1,
        "type": "channel",
        "subtype": "noteOff",
        "noteNumber": 66,
        "velocity": 0
      },
      {
        "deltaTime": 17,
        "channel": 1,
        "type": "channel",
        "noteNumber": 54,
        "velocity": 22,
        "subtype": "noteOn"
      },
      {
        "deltaTime": 9,
        "channel": 1,
        "type": "channel",
        "subtype": "noteOff",
        "noteNumber": 54,
        "velocity": 0
      },
      {
        "deltaTime": 123,
        "channel": 1,
        "type": "channel",
        "noteNumber": 54,
        "velocity": 27,
        "subtype": "noteOn"
      },
      {
        "deltaTime": 9,
        "channel": 1,
        "type": "channel",
        "subtype": "noteOff",
        "noteNumber": 54,
        "velocity": 0
      },
      {
        "deltaTime": 48,
        "channel": 1,
        "type": "channel",
        "noteNumber": 50,
        "velocity": 36,
        "subtype": "noteOn"
      },
      {
        "deltaTime": 75,
        "channel": 1,
        "type": "channel",
        "subtype": "noteOff",
        "noteNumber": 50,
        "velocity": 0
      },
      {
        "deltaTime": 33,
        "channel": 1,
        "type": "channel",
        "noteNumber": 36,
        "velocity": 23,
        "subtype": "noteOn"
      },
      {
        "deltaTime": 17,
        "channel": 1,
        "type": "channel",
        "noteNumber": 59,
        "velocity": 14,
        "subtype": "noteOn"
      },
      {
        "deltaTime": 10,
        "channel": 1,
        "type": "channel",
        "subtype": "noteOff",
        "noteNumber": 36,
        "velocity": 0
      },
      {
        "deltaTime": 96,
        "channel": 1,
        "type": "channel",
        "subtype": "noteOff",
        "noteNumber": 59,
        "velocity": 0
      },
      {
        "deltaTime": 50,
        "channel": 1,
        "type": "channel",
        "noteNumber": 33,
        "velocity": 38,
        "subtype": "noteOn"
      },
      {
        "deltaTime": 46,
        "channel": 1,
        "type": "channel",
        "subtype": "noteOff",
        "noteNumber": 33,
        "velocity": 0
      },
      {
        "deltaTime": 9,
        "channel": 1,
        "type": "channel",
        "noteNumber": 52,
        "velocity": 48,
        "subtype": "noteOn"
      },
      {
        "deltaTime": 58,
        "channel": 1,
        "type": "channel",
        "subtype": "noteOff",
        "noteNumber": 52,
        "velocity": 0
      },
      {
        "deltaTime": 19,
        "channel": 1,
        "type": "channel",
        "noteNumber": 64,
        "velocity": 39,
        "subtype": "noteOn"
      },
      {
        "deltaTime": 19,
        "channel": 1,
        "type": "channel",
        "subtype": "noteOff",
        "noteNumber": 64,
        "velocity": 0
      },
      {
        "deltaTime": 3,
        "channel": 1,
        "type": "channel",
        "noteNumber": 45,
        "velocity": 40,
        "subtype": "noteOn"
      },
      {
        "deltaTime": 45,
        "channel": 1,
        "type": "channel",
        "subtype": "noteOff",
        "noteNumber": 45,
        "velocity": 0
      },
      {
        "deltaTime": 139,
        "channel": 1,
        "type": "channel",
        "noteNumber": 59,
        "velocity": 21,
        "subtype": "noteOn"
      },
      {
        "deltaTime": 20,
        "channel": 1,
        "type": "channel",
        "subtype": "noteOff",
        "noteNumber": 59,
        "velocity": 0
      },
      {
        "deltaTime": 48,
        "channel": 1,
        "type": "channel",
        "noteNumber": 62,
        "velocity": 32,
        "subtype": "noteOn"
      },
      {
        "deltaTime": 24,
        "channel": 1,
        "type": "channel",
        "subtype": "noteOff",
        "noteNumber": 62,
        "velocity": 0
      },
      {
        "deltaTime": 16,
        "channel": 1,
        "type": "channel",
        "noteNumber": 62,
        "velocity": 37,
        "subtype": "noteOn"
      },
      {
        "deltaTime": 24,
        "channel": 1,
        "type": "channel",
        "subtype": "noteOff",
        "noteNumber": 62,
        "velocity": 0
      },
      {
        "deltaTime": 5,
        "channel": 1,
        "type": "channel",
        "noteNumber": 42,
        "velocity": 14,
        "subtype": "noteOn"
      },
      {
        "deltaTime": 27,
        "channel": 1,
        "type": "channel",
        "subtype": "noteOff",
        "noteNumber": 42,
        "velocity": 0
      },
      {
        "deltaTime": 84,
        "channel": 1,
        "type": "channel",
        "noteNumber": 66,
        "velocity": 21,
        "subtype": "noteOn"
      },
      {
        "deltaTime": 55,
        "channel": 1,
        "type": "channel",
        "subtype": "noteOff",
        "noteNumber": 66,
        "velocity": 0
      },
      {
        "deltaTime": 31,
        "channel": 1,
        "type": "channel",
        "noteNumber": 36,
        "velocity": 15,
        "subtype": "noteOn"
      },
      {
        "deltaTime": 14,
        "channel": 1,
        "type": "channel",
        "subtype": "noteOff",
        "noteNumber": 36,
        "velocity": 0
      },
      {
        "deltaTime": 5,
        "channel": 1,
        "type": "channel",
        "noteNumber": 54,
        "velocity": 27,
        "subtype": "noteOn"
      },
      {
        "deltaTime": 60,
        "channel": 1,
        "type": "channel",
        "subtype": "noteOff",
        "noteNumber": 54,
        "velocity": 0
      },
      {
        "deltaTime": 36,
        "channel": 1,
        "type": "channel",
        "noteNumber": 36,
        "velocity": 20,
        "subtype": "noteOn"
      },
      {
        "deltaTime": 10,
        "channel": 1,
        "type": "channel",
        "subtype": "noteOff",
        "noteNumber": 36,
        "velocity": 0
      },
      {
        "deltaTime": 0,
        "channel": 1,
        "type": "channel",
        "noteNumber": 44,
        "velocity": 28,
        "subtype": "noteOn"
      },
      {
        "deltaTime": 31,
        "channel": 1,
        "type": "channel",
        "subtype": "noteOff",
        "noteNumber": 44,
        "velocity": 0
      },
      {
        "deltaTime": 127,
        "channel": 1,
        "type": "channel",
        "noteNumber": 90,
        "velocity": 50,
        "subtype": "noteOn"
      },
      {
        "deltaTime": 46,
        "channel": 1,
        "type": "channel",
        "noteNumber": 50,
        "velocity": 33,
        "subtype": "noteOn"
      },
      {
        "deltaTime": 31,
        "channel": 1,
        "type": "channel",
        "subtype": "noteOff",
        "noteNumber": 50,
        "velocity": 0
      },
      {
        "deltaTime": 10,
        "channel": 1,
        "type": "channel",
        "noteNumber": 50,
        "velocity": 46,
        "subtype": "noteOn"
      },
      {
        "deltaTime": 31,
        "channel": 1,
        "type": "channel",
        "subtype": "noteOff",
        "noteNumber": 50,
        "velocity": 0
      },
      {
        "deltaTime": 17,
        "channel": 1,
        "type": "channel",
        "noteNumber": 59,
        "velocity": 38,
        "subtype": "noteOn"
      },
      {
        "deltaTime": 2,
        "channel": 1,
        "type": "channel",
        "subtype": "noteOff",
        "noteNumber": 90,
        "velocity": 0
      },
      {
        "deltaTime": 17,
        "channel": 1,
        "type": "channel",
        "noteNumber": 36,
        "velocity": 21,
        "subtype": "noteOn"
      },
      {
        "deltaTime": 7,
        "channel": 1,
        "type": "channel",
        "subtype": "noteOff",
        "noteNumber": 59,
        "velocity": 0
      },
      {
        "deltaTime": 17,
        "channel": 1,
        "type": "channel",
        "subtype": "noteOff",
        "noteNumber": 36,
        "velocity": 0
      },
      {
        "deltaTime": 122,
        "channel": 1,
        "type": "channel",
        "noteNumber": 59,
        "velocity": 12,
        "subtype": "noteOn"
      },
      {
        "deltaTime": 17,
        "channel": 1,
        "type": "channel",
        "subtype": "noteOff",
        "noteNumber": 59,
        "velocity": 0
      },
      {
        "deltaTime": 5,
        "channel": 1,
        "type": "channel",
        "noteNumber": 88,
        "velocity": 28,
        "subtype": "noteOn"
      },
      {
        "deltaTime": 26,
        "channel": 1,
        "type": "channel",
        "subtype": "noteOff",
        "noteNumber": 88,
        "velocity": 0
      },
      {
        "deltaTime": 48,
        "channel": 1,
        "type": "channel",
        "noteNumber": 33,
        "velocity": 29,
        "subtype": "noteOn"
      },
      {
        "deltaTime": 55,
        "channel": 1,
        "type": "channel",
        "subtype": "noteOff",
        "noteNumber": 33,
        "velocity": 0
      },
      {
        "deltaTime": 0,
        "channel": 1,
        "type": "channel",
        "noteNumber": 61,
        "velocity": 31,
        "subtype": "noteOn"
      },
      {
        "deltaTime": 29,
        "channel": 1,
        "type": "channel",
        "subtype": "noteOff",
        "noteNumber": 61,
        "velocity": 0
      },
      {
        "deltaTime": 161,
        "channel": 1,
        "type": "channel",
        "noteNumber": 86,
        "velocity": 37,
        "subtype": "noteOn"
      },
      {
        "deltaTime": 10,
        "channel": 1,
        "type": "channel",
        "noteNumber": 59,
        "velocity": 27,
        "subtype": "noteOn"
      },
      {
        "deltaTime": 21,
        "channel": 1,
        "type": "channel",
        "subtype": "noteOff",
        "noteNumber": 59,
        "velocity": 0
      },
      {
        "deltaTime": 43,
        "channel": 1,
        "type": "channel",
        "subtype": "noteOff",
        "noteNumber": 86,
        "velocity": 0
      },
      {
        "deltaTime": 0,
        "channel": 1,
        "type": "channel",
        "noteNumber": 38,
        "velocity": 10,
        "subtype": "noteOn"
      },
      {
        "deltaTime": 10,
        "channel": 1,
        "type": "channel",
        "subtype": "noteOff",
        "noteNumber": 38,
        "velocity": 0
      },
      {
        "deltaTime": 2,
        "channel": 1,
        "type": "channel",
        "noteNumber": 62,
        "velocity": 25,
        "subtype": "noteOn"
      },
      {
        "deltaTime": 27,
        "channel": 1,
        "type": "channel",
        "subtype": "noteOff",
        "noteNumber": 62,
        "velocity": 0
      },
      {
        "deltaTime": 5,
        "channel": 1,
        "type": "channel",
        "noteNumber": 62,
        "velocity": 34,
        "subtype": "noteOn"
      },
      {
        "deltaTime": 24,
        "channel": 1,
        "type": "channel",
        "noteNumber": 35,
        "velocity": 28,
        "subtype": "noteOn"
      },
      {
        "deltaTime": 12,
        "channel": 1,
        "type": "channel",
        "subtype": "noteOff",
        "noteNumber": 35,
        "velocity": 0
      },
      {
        "deltaTime": 2,
        "channel": 1,
        "type": "channel",
        "subtype": "noteOff",
        "noteNumber": 62,
        "velocity": 0
      },
      {
        "deltaTime": 19,
        "channel": 1,
        "type": "channel",
        "noteNumber": 86,
        "velocity": 11,
        "subtype": "noteOn"
      },
      {
        "deltaTime": 10,
        "channel": 1,
        "type": "channel",
        "subtype": "noteOff",
        "noteNumber": 86,
        "velocity": 0
      },
      {
        "deltaTime": 7,
        "channel": 1,
        "type": "channel",
        "noteNumber": 85,
        "velocity": 16,
        "subtype": "noteOn"
      },
      {
        "deltaTime": 43,
        "channel": 1,
        "type": "channel",
        "subtype": "noteOff",
        "noteNumber": 85,
        "velocity": 0
      },
      {
        "deltaTime": 36,
        "channel": 1,
        "type": "channel",
        "noteNumber": 47,
        "velocity": 34,
        "subtype": "noteOn"
      },
      {
        "deltaTime": 51,
        "channel": 1,
        "type": "channel",
        "subtype": "noteOff",
        "noteNumber": 47,
        "velocity": 0
      },
      {
        "deltaTime": 0,
        "channel": 1,
        "type": "channel",
        "noteNumber": 83,
        "velocity": 26,
        "subtype": "noteOn"
      },
      {
        "deltaTime": 19,
        "channel": 1,
        "type": "channel",
        "subtype": "noteOff",
        "noteNumber": 83,
        "velocity": 0
      },
      {
        "deltaTime": 67,
        "channel": 1,
        "type": "channel",
        "noteNumber": 62,
        "velocity": 21,
        "subtype": "noteOn"
      },
      {
        "deltaTime": 24,
        "channel": 1,
        "type": "channel",
        "subtype": "noteOff",
        "noteNumber": 62,
        "velocity": 0
      },
      {
        "deltaTime": 19,
        "channel": 1,
        "type": "channel",
        "noteNumber": 62,
        "velocity": 15,
        "subtype": "noteOn"
      },
      {
        "deltaTime": 27,
        "channel": 1,
        "type": "channel",
        "subtype": "noteOff",
        "noteNumber": 62,
        "velocity": 0
      },
      {
        "deltaTime": 2,
        "channel": 1,
        "type": "channel",
        "noteNumber": 33,
        "velocity": 20,
        "subtype": "noteOn"
      },
      {
        "deltaTime": 180,
        "channel": 1,
        "type": "channel",
        "subtype": "noteOff",
        "noteNumber": 33,
        "velocity": 0
      },
      {
        "deltaTime": 113,
        "channel": 1,
        "type": "channel",
        "noteNumber": 50,
        "velocity": 29,
        "subtype": "noteOn"
      },
      {
        "deltaTime": 21,
        "channel": 1,
        "type": "channel",
        "subtype": "noteOff",
        "noteNumber": 50,
        "velocity": 0
      },
      {
        "deltaTime": 29,
        "channel": 1,
        "type": "channel",
        "noteNumber": 50,
        "velocity": 15,
        "subtype": "noteOn"
      },
      {
        "deltaTime": 12,
        "channel": 1,
        "type": "channel",
        "subtype": "noteOff",
        "noteNumber": 50,
        "velocity": 0
      },
      {
        "deltaTime": 139,
        "channel": 1,
        "type": "channel",
        "noteNumber": 57,
        "velocity": 32,
        "subtype": "noteOn"
      },
      {
        "deltaTime": 17,
        "channel": 1,
        "type": "channel",
        "noteNumber": 69,
        "velocity": 37,
        "subtype": "noteOn"
      },
      {
        "deltaTime": 5,
        "channel": 1,
        "type": "channel",
        "subtype": "noteOff",
        "noteNumber": 57,
        "velocity": 0
      },
      {
        "deltaTime": 7,
        "channel": 1,
        "type": "channel",
        "noteNumber": 52,
        "velocity": 31,
        "subtype": "noteOn"
      },
      {
        "deltaTime": 72,
        "channel": 1,
        "type": "channel",
        "subtype": "noteOff",
        "noteNumber": 52,
        "velocity": 0
      },
      {
        "deltaTime": 41,
        "channel": 1,
        "type": "channel",
        "subtype": "noteOff",
        "noteNumber": 69,
        "velocity": 0
      },
      {
        "deltaTime": 26,
        "channel": 1,
        "type": "channel",
        "noteNumber": 61,
        "velocity": 26,
        "subtype": "noteOn"
      },
      {
        "deltaTime": 58,
        "channel": 1,
        "type": "channel",
        "subtype": "noteOff",
        "noteNumber": 61,
        "velocity": 0
      },
      {
        "deltaTime": 130,
        "channel": 1,
        "type": "channel",
        "noteNumber": 61,
        "velocity": 17,
        "subtype": "noteOn"
      },
      {
        "deltaTime": 28,
        "channel": 1,
        "type": "channel",
        "subtype": "noteOff",
        "noteNumber": 61,
        "velocity": 0
      },
      {
        "deltaTime": 10,
        "channel": 1,
        "type": "channel",
        "noteNumber": 62,
        "velocity": 30,
        "subtype": "noteOn"
      },
      {
        "deltaTime": 24,
        "channel": 1,
        "type": "channel",
        "subtype": "noteOff",
        "noteNumber": 62,
        "velocity": 0
      },
      {
        "deltaTime": 12,
        "channel": 1,
        "type": "channel",
        "noteNumber": 71,
        "velocity": 17,
        "subtype": "noteOn"
      },
      {
        "deltaTime": 29,
        "channel": 1,
        "type": "channel",
        "subtype": "noteOff",
        "noteNumber": 71,
        "velocity": 0
      },
      {
        "deltaTime": 125,
        "channel": 1,
        "type": "channel",
        "noteNumber": 59,
        "velocity": 18,
        "subtype": "noteOn"
      },
      {
        "deltaTime": 36,
        "channel": 1,
        "type": "channel",
        "subtype": "noteOff",
        "noteNumber": 59,
        "velocity": 0
      },
      {
        "deltaTime": 88,
        "channel": 1,
        "type": "channel",
        "noteNumber": 83,
        "velocity": 27,
        "subtype": "noteOn"
      },
      {
        "deltaTime": 32,
        "channel": 1,
        "type": "channel",
        "subtype": "noteOff",
        "noteNumber": 83,
        "velocity": 0
      },
      {
        "deltaTime": 16,
        "channel": 1,
        "type": "channel",
        "noteNumber": 62,
        "velocity": 29,
        "subtype": "noteOn"
      },
      {
        "deltaTime": 27,
        "channel": 1,
        "type": "channel",
        "subtype": "noteOff",
        "noteNumber": 62,
        "velocity": 0
      },
      {
        "deltaTime": 17,
        "channel": 1,
        "type": "channel",
        "noteNumber": 59,
        "velocity": 22,
        "subtype": "noteOn"
      },
      {
        "deltaTime": 141,
        "channel": 1,
        "type": "channel",
        "subtype": "noteOff",
        "noteNumber": 59,
        "velocity": 0
      },
      {
        "deltaTime": 15,
        "channel": 1,
        "type": "channel",
        "noteNumber": 55,
        "velocity": 47,
        "subtype": "noteOn"
      },
      {
        "deltaTime": 4,
        "channel": 1,
        "type": "channel",
        "noteNumber": 50,
        "velocity": 10,
        "subtype": "noteOn"
      },
      {
        "deltaTime": 20,
        "channel": 1,
        "type": "channel",
        "subtype": "noteOff",
        "noteNumber": 50,
        "velocity": 0
      },
      {
        "deltaTime": 7,
        "channel": 1,
        "type": "channel",
        "subtype": "noteOff",
        "noteNumber": 55,
        "velocity": 0
      },
      {
        "deltaTime": 0,
        "channel": 1,
        "type": "channel",
        "noteNumber": 50,
        "velocity": 46,
        "subtype": "noteOn"
      },
      {
        "deltaTime": 77,
        "channel": 1,
        "type": "channel",
        "subtype": "noteOff",
        "noteNumber": 50,
        "velocity": 0
      },
      {
        "deltaTime": 38,
        "channel": 1,
        "type": "channel",
        "noteNumber": 36,
        "velocity": 22,
        "subtype": "noteOn"
      },
      {
        "deltaTime": 14,
        "channel": 1,
        "type": "channel",
        "noteNumber": 59,
        "velocity": 17,
        "subtype": "noteOn"
      },
      {
        "deltaTime": 3,
        "channel": 1,
        "type": "channel",
        "subtype": "noteOff",
        "noteNumber": 36,
        "velocity": 0
      },
      {
        "deltaTime": 101,
        "channel": 1,
        "type": "channel",
        "subtype": "noteOff",
        "noteNumber": 59,
        "velocity": 0
      },
      {
        "deltaTime": 19,
        "channel": 1,
        "type": "channel",
        "noteNumber": 59,
        "velocity": 19,
        "subtype": "noteOn"
      },
      {
        "deltaTime": 24,
        "channel": 1,
        "type": "channel",
        "subtype": "noteOff",
        "noteNumber": 59,
        "velocity": 0
      },
      {
        "deltaTime": 12,
        "channel": 1,
        "type": "channel",
        "noteNumber": 57,
        "velocity": 32,
        "subtype": "noteOn"
      },
      {
        "deltaTime": 29,
        "channel": 1,
        "type": "channel",
        "subtype": "noteOff",
        "noteNumber": 57,
        "velocity": 0
      },
      {
        "deltaTime": 26,
        "channel": 1,
        "type": "channel",
        "noteNumber": 45,
        "velocity": 52,
        "subtype": "noteOn"
      },
      {
        "deltaTime": 113,
        "channel": 1,
        "type": "channel",
        "noteNumber": 52,
        "velocity": 21,
        "subtype": "noteOn"
      },
      {
        "deltaTime": 19,
        "channel": 1,
        "type": "channel",
        "subtype": "noteOff",
        "noteNumber": 52,
        "velocity": 0
      },
      {
        "deltaTime": 89,
        "channel": 1,
        "type": "channel",
        "noteNumber": 64,
        "velocity": 11,
        "subtype": "noteOn"
      },
      {
        "deltaTime": 5,
        "channel": 1,
        "type": "channel",
        "subtype": "noteOff",
        "noteNumber": 45,
        "velocity": 0
      },
      {
        "deltaTime": 26,
        "channel": 1,
        "type": "channel",
        "subtype": "noteOff",
        "noteNumber": 64,
        "velocity": 0
      },
      {
        "deltaTime": 58,
        "channel": 1,
        "type": "channel",
        "noteNumber": 32,
        "velocity": 10,
        "subtype": "noteOn"
      },
      {
        "deltaTime": 9,
        "channel": 1,
        "type": "channel",
        "subtype": "noteOff",
        "noteNumber": 32,
        "velocity": 0
      },
      {
        "deltaTime": 3,
        "channel": 1,
        "type": "channel",
        "noteNumber": 35,
        "velocity": 42,
        "subtype": "noteOn"
      },
      {
        "deltaTime": 60,
        "channel": 1,
        "type": "channel",
        "subtype": "noteOff",
        "noteNumber": 35,
        "velocity": 0
      },
      {
        "deltaTime": 33,
        "channel": 1,
        "type": "channel",
        "noteNumber": 42,
        "velocity": 20,
        "subtype": "noteOn"
      },
      {
        "deltaTime": 22,
        "channel": 1,
        "type": "channel",
        "subtype": "noteOff",
        "noteNumber": 42,
        "velocity": 0
      },
      {
        "deltaTime": 146,
        "channel": 1,
        "type": "channel",
        "noteNumber": 59,
        "velocity": 20,
        "subtype": "noteOn"
      },
      {
        "deltaTime": 27,
        "channel": 1,
        "type": "channel",
        "subtype": "noteOff",
        "noteNumber": 59,
        "velocity": 0
      },
      {
        "deltaTime": 50,
        "channel": 1,
        "type": "channel",
        "noteNumber": 35,
        "velocity": 23,
        "subtype": "noteOn"
      },
      {
        "deltaTime": 46,
        "channel": 1,
        "type": "channel",
        "subtype": "noteOff",
        "noteNumber": 35,
        "velocity": 0
      },
      {
        "deltaTime": 50,
        "channel": 1,
        "type": "channel",
        "noteNumber": 45,
        "velocity": 23,
        "subtype": "noteOn"
      },
      {
        "deltaTime": 24,
        "channel": 1,
        "type": "channel",
        "subtype": "noteOff",
        "noteNumber": 45,
        "velocity": 0
      },
      {
        "deltaTime": 2,
        "channel": 1,
        "type": "channel",
        "noteNumber": 66,
        "velocity": 11,
        "subtype": "noteOn"
      },
      {
        "deltaTime": 108,
        "channel": 1,
        "type": "channel",
        "subtype": "noteOff",
        "noteNumber": 66,
        "velocity": 0
      },
      {
        "deltaTime": 8,
        "channel": 1,
        "type": "channel",
        "noteNumber": 90,
        "velocity": 47,
        "subtype": "noteOn"
      },
      {
        "deltaTime": 7,
        "channel": 1,
        "type": "channel",
        "noteNumber": 55,
        "velocity": 42,
        "subtype": "noteOn"
      },
      {
        "deltaTime": 24,
        "channel": 1,
        "type": "channel",
        "subtype": "noteOff",
        "noteNumber": 55,
        "velocity": 0
      },
      {
        "deltaTime": 93,
        "channel": 1,
        "type": "channel",
        "subtype": "noteOff",
        "noteNumber": 90,
        "velocity": 0
      },
      {
        "deltaTime": 15,
        "channel": 1,
        "type": "channel",
        "noteNumber": 59,
        "velocity": 26,
        "subtype": "noteOn"
      },
      {
        "deltaTime": 14,
        "channel": 1,
        "type": "channel",
        "subtype": "noteOff",
        "noteNumber": 59,
        "velocity": 0
      },
      {
        "deltaTime": 63,
        "channel": 1,
        "type": "channel",
        "noteNumber": 62,
        "velocity": 10,
        "subtype": "noteOn"
      },
      {
        "deltaTime": 33,
        "channel": 1,
        "type": "channel",
        "subtype": "noteOff",
        "noteNumber": 62,
        "velocity": 0
      },
      {
        "deltaTime": 60,
        "channel": 1,
        "type": "channel",
        "noteNumber": 36,
        "velocity": 27,
        "subtype": "noteOn"
      },
      {
        "deltaTime": 7,
        "channel": 1,
        "type": "channel",
        "noteNumber": 90,
        "velocity": 53,
        "subtype": "noteOn"
      },
      {
        "deltaTime": 12,
        "channel": 1,
        "type": "channel",
        "subtype": "noteOff",
        "noteNumber": 36,
        "velocity": 0
      },
      {
        "deltaTime": 0,
        "channel": 1,
        "type": "channel",
        "noteNumber": 57,
        "velocity": 28,
        "subtype": "noteOn"
      },
      {
        "deltaTime": 24,
        "channel": 1,
        "type": "channel",
        "subtype": "noteOff",
        "noteNumber": 57,
        "velocity": 0
      },
      {
        "deltaTime": 24,
        "channel": 1,
        "type": "channel",
        "noteNumber": 52,
        "velocity": 36,
        "subtype": "noteOn"
      },
      {
        "deltaTime": 39,
        "channel": 1,
        "type": "channel",
        "subtype": "noteOff",
        "noteNumber": 52,
        "velocity": 0
      },
      {
        "deltaTime": 60,
        "channel": 1,
        "type": "channel",
        "subtype": "noteOff",
        "noteNumber": 90,
        "velocity": 0
      },
      {
        "deltaTime": 91,
        "channel": 1,
        "type": "channel",
        "noteNumber": 64,
        "velocity": 19,
        "subtype": "noteOn"
      },
      {
        "deltaTime": 67,
        "channel": 1,
        "type": "channel",
        "subtype": "noteOff",
        "noteNumber": 64,
        "velocity": 0
      },
      {
        "deltaTime": 5,
        "channel": 1,
        "type": "channel",
        "noteNumber": 90,
        "velocity": 44,
        "subtype": "noteOn"
      },
      {
        "deltaTime": 12,
        "channel": 1,
        "type": "channel",
        "noteNumber": 59,
        "velocity": 34,
        "subtype": "noteOn"
      },
      {
        "deltaTime": 31,
        "channel": 1,
        "type": "channel",
        "subtype": "noteOff",
        "noteNumber": 59,
        "velocity": 0
      },
      {
        "deltaTime": 99,
        "channel": 1,
        "type": "channel",
        "noteNumber": 47,
        "velocity": 44,
        "subtype": "noteOn"
      },
      {
        "deltaTime": 2,
        "channel": 1,
        "type": "channel",
        "subtype": "noteOff",
        "noteNumber": 90,
        "velocity": 0
      },
      {
        "deltaTime": 14,
        "channel": 1,
        "type": "channel",
        "subtype": "noteOff",
        "noteNumber": 47,
        "velocity": 0
      },
      {
        "deltaTime": 68,
        "channel": 1,
        "type": "channel",
        "noteNumber": 66,
        "velocity": 20,
        "subtype": "noteOn"
      },
      {
        "deltaTime": 52,
        "channel": 1,
        "type": "channel",
        "subtype": "noteOff",
        "noteNumber": 66,
        "velocity": 0
      },
      {
        "deltaTime": 51,
        "channel": 1,
        "type": "channel",
        "noteNumber": 59,
        "velocity": 28,
        "subtype": "noteOn"
      },
      {
        "deltaTime": 26,
        "channel": 1,
        "type": "channel",
        "subtype": "noteOff",
        "noteNumber": 59,
        "velocity": 0
      },
      {
        "deltaTime": 43,
        "channel": 1,
        "type": "channel",
        "noteNumber": 35,
        "velocity": 34,
        "subtype": "noteOn"
      },
      {
        "deltaTime": 77,
        "channel": 1,
        "type": "channel",
        "subtype": "noteOff",
        "noteNumber": 35,
        "velocity": 0
      },
      {
        "deltaTime": 163,
        "channel": 1,
        "type": "channel",
        "noteNumber": 90,
        "velocity": 42,
        "subtype": "noteOn"
      },
      {
        "deltaTime": 12,
        "channel": 1,
        "type": "channel",
        "noteNumber": 55,
        "velocity": 36,
        "subtype": "noteOn"
      },
      {
        "deltaTime": 12,
        "channel": 1,
        "type": "channel",
        "subtype": "noteOff",
        "noteNumber": 55,
        "velocity": 0
      },
      {
        "deltaTime": 101,
        "channel": 1,
        "type": "channel",
        "noteNumber": 59,
        "velocity": 37,
        "subtype": "noteOn"
      },
      {
        "deltaTime": 22,
        "channel": 1,
        "type": "channel",
        "subtype": "noteOff",
        "noteNumber": 90,
        "velocity": 0
      },
      {
        "deltaTime": 7,
        "channel": 1,
        "type": "channel",
        "noteNumber": 36,
        "velocity": 21,
        "subtype": "noteOn"
      },
      {
        "deltaTime": 19,
        "channel": 1,
        "type": "channel",
        "subtype": "noteOff",
        "noteNumber": 36,
        "velocity": 0
      },
      {
        "deltaTime": 5,
        "channel": 1,
        "type": "channel",
        "noteNumber": 54,
        "velocity": 23,
        "subtype": "noteOn"
      },
      {
        "deltaTime": 14,
        "channel": 1,
        "type": "channel",
        "subtype": "noteOff",
        "noteNumber": 54,
        "velocity": 0
      },
      {
        "deltaTime": 82,
        "channel": 1,
        "type": "channel",
        "subtype": "noteOff",
        "noteNumber": 59,
        "velocity": 0
      },
      {
        "deltaTime": 41,
        "channel": 1,
        "type": "channel",
        "noteNumber": 36,
        "velocity": 24,
        "subtype": "noteOn"
      },
      {
        "deltaTime": 14,
        "channel": 1,
        "type": "channel",
        "noteNumber": 57,
        "velocity": 35,
        "subtype": "noteOn"
      },
      {
        "deltaTime": 3,
        "channel": 1,
        "type": "channel",
        "subtype": "noteOff",
        "noteNumber": 36,
        "velocity": 0
      },
      {
        "deltaTime": 26,
        "channel": 1,
        "type": "channel",
        "subtype": "noteOff",
        "noteNumber": 57,
        "velocity": 0
      },
      {
        "deltaTime": 14,
        "channel": 1,
        "type": "channel",
        "noteNumber": 33,
        "velocity": 28,
        "subtype": "noteOn"
      },
      {
        "deltaTime": 77,
        "channel": 1,
        "type": "channel",
        "subtype": "noteOff",
        "noteNumber": 33,
        "velocity": 0
      },
      {
        "deltaTime": 5,
        "channel": 1,
        "type": "channel",
        "noteNumber": 61,
        "velocity": 27,
        "subtype": "noteOn"
      },
      {
        "deltaTime": 26,
        "channel": 1,
        "type": "channel",
        "subtype": "noteOff",
        "noteNumber": 61,
        "velocity": 0
      },
      {
        "deltaTime": 20,
        "channel": 1,
        "type": "channel",
        "noteNumber": 54,
        "velocity": 16,
        "subtype": "noteOn"
      },
      {
        "deltaTime": 14,
        "channel": 1,
        "type": "channel",
        "subtype": "noteOff",
        "noteNumber": 54,
        "velocity": 0
      },
      {
        "deltaTime": 127,
        "channel": 1,
        "type": "channel",
        "noteNumber": 86,
        "velocity": 38,
        "subtype": "noteOn"
      },
      {
        "deltaTime": 41,
        "channel": 1,
        "type": "channel",
        "noteNumber": 36,
        "velocity": 25,
        "subtype": "noteOn"
      },
      {
        "deltaTime": 14,
        "channel": 1,
        "type": "channel",
        "subtype": "noteOff",
        "noteNumber": 36,
        "velocity": 0
      },
      {
        "deltaTime": 15,
        "channel": 1,
        "type": "channel",
        "subtype": "noteOff",
        "noteNumber": 86,
        "velocity": 0
      },
      {
        "deltaTime": 19,
        "channel": 1,
        "type": "channel",
        "noteNumber": 62,
        "velocity": 25,
        "subtype": "noteOn"
      },
      {
        "deltaTime": 26,
        "channel": 1,
        "type": "channel",
        "subtype": "noteOff",
        "noteNumber": 62,
        "velocity": 0
      },
      {
        "deltaTime": 8,
        "channel": 1,
        "type": "channel",
        "noteNumber": 85,
        "velocity": 27,
        "subtype": "noteOn"
      },
      {
        "deltaTime": 31,
        "channel": 1,
        "type": "channel",
        "subtype": "noteOff",
        "noteNumber": 85,
        "velocity": 0
      },
      {
        "deltaTime": 21,
        "channel": 1,
        "type": "channel",
        "noteNumber": 54,
        "velocity": 31,
        "subtype": "noteOn"
      },
      {
        "deltaTime": 15,
        "channel": 1,
        "type": "channel",
        "subtype": "noteOff",
        "noteNumber": 54,
        "velocity": 0
      },
      {
        "deltaTime": 17,
        "channel": 1,
        "type": "channel",
        "noteNumber": 85,
        "velocity": 26,
        "subtype": "noteOn"
      },
      {
        "deltaTime": 28,
        "channel": 1,
        "type": "channel",
        "subtype": "noteOff",
        "noteNumber": 85,
        "velocity": 0
      },
      {
        "deltaTime": 34,
        "channel": 1,
        "type": "channel",
        "noteNumber": 35,
        "velocity": 32,
        "subtype": "noteOn"
      },
      {
        "deltaTime": 10,
        "channel": 1,
        "type": "channel",
        "noteNumber": 47,
        "velocity": 38,
        "subtype": "noteOn"
      },
      {
        "deltaTime": 9,
        "channel": 1,
        "type": "channel",
        "subtype": "noteOff",
        "noteNumber": 35,
        "velocity": 0
      },
      {
        "deltaTime": 10,
        "channel": 1,
        "type": "channel",
        "noteNumber": 66,
        "velocity": 38,
        "subtype": "noteOn"
      },
      {
        "deltaTime": 14,
        "channel": 1,
        "type": "channel",
        "subtype": "noteOff",
        "noteNumber": 47,
        "velocity": 0
      },
      {
        "deltaTime": 118,
        "channel": 1,
        "type": "channel",
        "subtype": "noteOff",
        "noteNumber": 66,
        "velocity": 0
      },
      {
        "deltaTime": 62,
        "channel": 1,
        "type": "channel",
        "noteNumber": 54,
        "velocity": 32,
        "subtype": "noteOn"
      },
      {
        "deltaTime": 12,
        "channel": 1,
        "type": "channel",
        "subtype": "noteOff",
        "noteNumber": 54,
        "velocity": 0
      },
      {
        "deltaTime": 171,
        "channel": 1,
        "type": "channel",
        "noteNumber": 36,
        "velocity": 15,
        "subtype": "noteOn"
      },
      {
        "deltaTime": 16,
        "channel": 1,
        "type": "channel",
        "subtype": "noteOff",
        "noteNumber": 36,
        "velocity": 0
      },
      {
        "deltaTime": 36,
        "channel": 1,
        "type": "channel",
        "noteNumber": 59,
        "velocity": 21,
        "subtype": "noteOn"
      },
      {
        "deltaTime": 27,
        "channel": 1,
        "type": "channel",
        "subtype": "noteOff",
        "noteNumber": 59,
        "velocity": 0
      },
      {
        "deltaTime": 21,
        "channel": 1,
        "type": "channel",
        "noteNumber": 50,
        "velocity": 22,
        "subtype": "noteOn"
      },
      {
        "deltaTime": 15,
        "channel": 1,
        "type": "channel",
        "subtype": "noteOff",
        "noteNumber": 50,
        "velocity": 0
      },
      {
        "deltaTime": 2,
        "channel": 1,
        "type": "channel",
        "noteNumber": 36,
        "velocity": 25,
        "subtype": "noteOn"
      },
      {
        "deltaTime": 5,
        "channel": 1,
        "type": "channel",
        "noteNumber": 33,
        "velocity": 14,
        "subtype": "noteOn"
      },
      {
        "deltaTime": 14,
        "channel": 1,
        "type": "channel",
        "subtype": "noteOff",
        "noteNumber": 33,
        "velocity": 0
      },
      {
        "deltaTime": 3,
        "channel": 1,
        "type": "channel",
        "noteNumber": 86,
        "velocity": 12,
        "subtype": "noteOn"
      },
      {
        "deltaTime": 5,
        "channel": 1,
        "type": "channel",
        "subtype": "noteOff",
        "noteNumber": 36,
        "velocity": 0
      },
      {
        "deltaTime": 7,
        "channel": 1,
        "type": "channel",
        "subtype": "noteOff",
        "noteNumber": 86,
        "velocity": 0
      },
      {
        "deltaTime": 14,
        "channel": 1,
        "type": "channel",
        "noteNumber": 62,
        "velocity": 23,
        "subtype": "noteOn"
      },
      {
        "deltaTime": 48,
        "channel": 1,
        "type": "channel",
        "subtype": "noteOff",
        "noteNumber": 62,
        "velocity": 0
      },
      {
        "deltaTime": 17,
        "channel": 1,
        "type": "channel",
        "noteNumber": 62,
        "velocity": 13,
        "subtype": "noteOn"
      },
      {
        "deltaTime": 12,
        "channel": 1,
        "type": "channel",
        "subtype": "noteOff",
        "noteNumber": 62,
        "velocity": 0
      },
      {
        "deltaTime": 43,
        "channel": 1,
        "type": "channel",
        "noteNumber": 88,
        "velocity": 39,
        "subtype": "noteOn"
      },
      {
        "deltaTime": 5,
        "channel": 1,
        "type": "channel",
        "noteNumber": 33,
        "velocity": 47,
        "subtype": "noteOn"
      },
      {
        "deltaTime": 36,
        "channel": 1,
        "type": "channel",
        "subtype": "noteOff",
        "noteNumber": 88,
        "velocity": 0
      },
      {
        "deltaTime": 2,
        "channel": 1,
        "type": "channel",
        "noteNumber": 52,
        "velocity": 31,
        "subtype": "noteOn"
      },
      {
        "deltaTime": 72,
        "channel": 1,
        "type": "channel",
        "subtype": "noteOff",
        "noteNumber": 52,
        "velocity": 0
      },
      {
        "deltaTime": 17,
        "channel": 1,
        "type": "channel",
        "noteNumber": 61,
        "velocity": 45,
        "subtype": "noteOn"
      },
      {
        "deltaTime": 29,
        "channel": 1,
        "type": "channel",
        "subtype": "noteOff",
        "noteNumber": 61,
        "velocity": 0
      },
      {
        "deltaTime": 50,
        "channel": 1,
        "type": "channel",
        "noteNumber": 61,
        "velocity": 33,
        "subtype": "noteOn"
      },
      {
        "deltaTime": 5,
        "channel": 1,
        "type": "channel",
        "subtype": "noteOff",
        "noteNumber": 33,
        "velocity": 0
      },
      {
        "deltaTime": 10,
        "channel": 1,
        "type": "channel",
        "noteNumber": 33,
        "velocity": 33,
        "subtype": "noteOn"
      },
      {
        "deltaTime": 14,
        "channel": 1,
        "type": "channel",
        "subtype": "noteOff",
        "noteNumber": 61,
        "velocity": 0
      },
      {
        "deltaTime": 0,
        "channel": 1,
        "type": "channel",
        "subtype": "noteOff",
        "noteNumber": 33,
        "velocity": 0
      },
      {
        "deltaTime": 91,
        "channel": 1,
        "type": "channel",
        "noteNumber": 59,
        "velocity": 10,
        "subtype": "noteOn"
      },
      {
        "deltaTime": 29,
        "channel": 1,
        "type": "channel",
        "subtype": "noteOff",
        "noteNumber": 59,
        "velocity": 0
      },
      {
        "deltaTime": 7,
        "channel": 1,
        "type": "channel",
        "noteNumber": 61,
        "velocity": 28,
        "subtype": "noteOn"
      },
      {
        "deltaTime": 39,
        "channel": 1,
        "type": "channel",
        "subtype": "noteOff",
        "noteNumber": 61,
        "velocity": 0
      },
      {
        "deltaTime": 17,
        "channel": 1,
        "type": "channel",
        "noteNumber": 62,
        "velocity": 24,
        "subtype": "noteOn"
      },
      {
        "deltaTime": 31,
        "channel": 1,
        "type": "channel",
        "subtype": "noteOff",
        "noteNumber": 62,
        "velocity": 0
      },
      {
        "deltaTime": 17,
        "channel": 1,
        "type": "channel",
        "noteNumber": 61,
        "velocity": 10,
        "subtype": "noteOn"
      },
      {
        "deltaTime": 26,
        "channel": 1,
        "type": "channel",
        "subtype": "noteOff",
        "noteNumber": 61,
        "velocity": 0
      },
      {
        "deltaTime": 36,
        "channel": 1,
        "type": "channel",
        "noteNumber": 61,
        "velocity": 11,
        "subtype": "noteOn"
      },
      {
        "deltaTime": 53,
        "channel": 1,
        "type": "channel",
        "subtype": "noteOff",
        "noteNumber": 61,
        "velocity": 0
      },
      {
        "deltaTime": 43,
        "channel": 1,
        "type": "channel",
        "noteNumber": 59,
        "velocity": 38,
        "subtype": "noteOn"
      },
      {
        "deltaTime": 10,
        "channel": 1,
        "type": "channel",
        "subtype": "noteOff",
        "noteNumber": 59,
        "velocity": 0
      },
      {
        "deltaTime": 38,
        "channel": 1,
        "type": "channel",
        "noteNumber": 47,
        "velocity": 24,
        "subtype": "noteOn"
      },
      {
        "deltaTime": 132,
        "channel": 1,
        "type": "channel",
        "noteNumber": 54,
        "velocity": 22,
        "subtype": "noteOn"
      },
      {
        "deltaTime": 36,
        "channel": 1,
        "type": "channel",
        "subtype": "noteOff",
        "noteNumber": 54,
        "velocity": 0
      },
      {
        "deltaTime": 67,
        "channel": 1,
        "type": "channel",
        "subtype": "noteOff",
        "noteNumber": 47,
        "velocity": 0
      },
      {
        "deltaTime": 51,
        "channel": 1,
        "type": "channel",
        "noteNumber": 85,
        "velocity": 18,
        "subtype": "noteOn"
      },
      {
        "deltaTime": 21,
        "channel": 1,
        "type": "channel",
        "subtype": "noteOff",
        "noteNumber": 85,
        "velocity": 0
      },
      {
        "deltaTime": 22,
        "channel": 1,
        "type": "channel",
        "noteNumber": 50,
        "velocity": 26,
        "subtype": "noteOn"
      },
      {
        "deltaTime": 69,
        "channel": 1,
        "type": "channel",
        "subtype": "noteOff",
        "noteNumber": 50,
        "velocity": 0
      },
      {
        "deltaTime": 8,
        "channel": 1,
        "type": "channel",
        "noteNumber": 86,
        "velocity": 30,
        "subtype": "noteOn"
      },
      {
        "deltaTime": 26,
        "channel": 1,
        "type": "channel",
        "subtype": "noteOff",
        "noteNumber": 86,
        "velocity": 0
      },
      {
        "deltaTime": 5,
        "channel": 1,
        "type": "channel",
        "noteNumber": 36,
        "velocity": 22,
        "subtype": "noteOn"
      },
      {
        "deltaTime": 24,
        "channel": 1,
        "type": "channel",
        "subtype": "noteOff",
        "noteNumber": 36,
        "velocity": 0
      },
      {
        "deltaTime": 53,
        "channel": 1,
        "type": "channel",
        "noteNumber": 62,
        "velocity": 15,
        "subtype": "noteOn"
      },
      {
        "deltaTime": 43,
        "channel": 1,
        "type": "channel",
        "subtype": "noteOff",
        "noteNumber": 62,
        "velocity": 0
      },
      {
        "deltaTime": 57,
        "channel": 1,
        "type": "channel",
        "noteNumber": 57,
        "velocity": 28,
        "subtype": "noteOn"
      },
      {
        "deltaTime": 24,
        "channel": 1,
        "type": "channel",
        "subtype": "noteOff",
        "noteNumber": 57,
        "velocity": 0
      },
      {
        "deltaTime": 84,
        "channel": 1,
        "type": "channel",
        "noteNumber": 88,
        "velocity": 26,
        "subtype": "noteOn"
      },
      {
        "deltaTime": 39,
        "channel": 1,
        "type": "channel",
        "subtype": "noteOff",
        "noteNumber": 88,
        "velocity": 0
      },
      {
        "deltaTime": 163,
        "channel": 1,
        "type": "channel",
        "noteNumber": 85,
        "velocity": 10,
        "subtype": "noteOn"
      },
      {
        "deltaTime": 29,
        "channel": 1,
        "type": "channel",
        "subtype": "noteOff",
        "noteNumber": 85,
        "velocity": 0
      },
      {
        "deltaTime": 9,
        "channel": 1,
        "type": "channel",
        "noteNumber": 86,
        "velocity": 19,
        "subtype": "noteOn"
      },
      {
        "deltaTime": 27,
        "channel": 1,
        "type": "channel",
        "subtype": "noteOff",
        "noteNumber": 86,
        "velocity": 0
      },
      {
        "deltaTime": 21,
        "channel": 1,
        "type": "channel",
        "noteNumber": 62,
        "velocity": 23,
        "subtype": "noteOn"
      },
      {
        "deltaTime": 27,
        "channel": 1,
        "type": "channel",
        "subtype": "noteOff",
        "noteNumber": 62,
        "velocity": 0
      },
      {
        "deltaTime": 7,
        "channel": 1,
        "type": "channel",
        "noteNumber": 86,
        "velocity": 34,
        "subtype": "noteOn"
      },
      {
        "deltaTime": 7,
        "channel": 1,
        "type": "channel",
        "noteNumber": 62,
        "velocity": 30,
        "subtype": "noteOn"
      },
      {
        "deltaTime": 29,
        "channel": 1,
        "type": "channel",
        "subtype": "noteOff",
        "noteNumber": 86,
        "velocity": 0
      },
      {
        "deltaTime": 2,
        "channel": 1,
        "type": "channel",
        "subtype": "noteOff",
        "noteNumber": 62,
        "velocity": 0
      },
      {
        "deltaTime": 48,
        "channel": 1,
        "type": "channel",
        "noteNumber": 106,
        "velocity": 39,
        "subtype": "noteOn"
      },
      {
        "deltaTime": 125,
        "channel": 1,
        "type": "channel",
        "noteNumber": 59,
        "velocity": 38,
        "subtype": "noteOn"
      },
      {
        "deltaTime": 89,
        "channel": 1,
        "type": "channel",
        "subtype": "noteOff",
        "noteNumber": 106,
        "velocity": 0
      },
      {
        "deltaTime": 60,
        "channel": 1,
        "type": "channel",
        "subtype": "noteOff",
        "noteNumber": 59,
        "velocity": 0
      },
      {
        "deltaTime": 19,
        "channel": 1,
        "type": "channel",
        "noteNumber": 45,
        "velocity": 35,
        "subtype": "noteOn"
      },
      {
        "deltaTime": 34,
        "channel": 1,
        "type": "channel",
        "noteNumber": 66,
        "velocity": 19,
        "subtype": "noteOn"
      },
      {
        "deltaTime": 93,
        "channel": 1,
        "type": "channel",
        "subtype": "noteOff",
        "noteNumber": 45,
        "velocity": 0
      },
      {
        "deltaTime": 12,
        "channel": 1,
        "type": "channel",
        "subtype": "noteOff",
        "noteNumber": 66,
        "velocity": 0
      },
      {
        "deltaTime": 8,
        "channel": 1,
        "type": "channel",
        "noteNumber": 74,
        "velocity": 25,
        "subtype": "noteOn"
      },
      {
        "deltaTime": 9,
        "channel": 1,
        "type": "channel",
        "noteNumber": 55,
        "velocity": 35,
        "subtype": "noteOn"
      },
      {
        "deltaTime": 5,
        "channel": 1,
        "type": "channel",
        "subtype": "noteOff",
        "noteNumber": 74,
        "velocity": 0
      },
      {
        "deltaTime": 2,
        "channel": 1,
        "type": "channel",
        "noteNumber": 74,
        "velocity": 38,
        "subtype": "noteOn"
      },
      {
        "deltaTime": 5,
        "channel": 1,
        "type": "channel",
        "subtype": "noteOff",
        "noteNumber": 55,
        "velocity": 0
      },
      {
        "deltaTime": 29,
        "channel": 1,
        "type": "channel",
        "noteNumber": 50,
        "velocity": 25,
        "subtype": "noteOn"
      },
      {
        "deltaTime": 60,
        "channel": 1,
        "type": "channel",
        "subtype": "noteOff",
        "noteNumber": 50,
        "velocity": 0
      },
      {
        "deltaTime": 5,
        "channel": 1,
        "type": "channel",
        "noteNumber": 86,
        "velocity": 33,
        "subtype": "noteOn"
      },
      {
        "deltaTime": 26,
        "channel": 1,
        "type": "channel",
        "subtype": "noteOff",
        "noteNumber": 86,
        "velocity": 0
      },
      {
        "deltaTime": 51,
        "channel": 1,
        "type": "channel",
        "noteNumber": 86,
        "velocity": 22,
        "subtype": "noteOn"
      },
      {
        "deltaTime": 14,
        "channel": 1,
        "type": "channel",
        "subtype": "noteOff",
        "noteNumber": 74,
        "velocity": 0
      },
      {
        "deltaTime": 12,
        "channel": 1,
        "type": "channel",
        "subtype": "noteOff",
        "noteNumber": 86,
        "velocity": 0
      },
      {
        "deltaTime": 17,
        "channel": 1,
        "type": "channel",
        "noteNumber": 85,
        "velocity": 18,
        "subtype": "noteOn"
      },
      {
        "deltaTime": 21,
        "channel": 1,
        "type": "channel",
        "subtype": "noteOff",
        "noteNumber": 85,
        "velocity": 0
      },
      {
        "deltaTime": 10,
        "channel": 1,
        "type": "channel",
        "noteNumber": 74,
        "velocity": 30,
        "subtype": "noteOn"
      },
      {
        "deltaTime": 38,
        "channel": 1,
        "type": "channel",
        "noteNumber": 43,
        "velocity": 26,
        "subtype": "noteOn"
      },
      {
        "deltaTime": 10,
        "channel": 1,
        "type": "channel",
        "subtype": "noteOff",
        "noteNumber": 43,
        "velocity": 0
      },
      {
        "deltaTime": 34,
        "channel": 1,
        "type": "channel",
        "subtype": "noteOff",
        "noteNumber": 74,
        "velocity": 0
      },
      {
        "deltaTime": 112,
        "channel": 1,
        "type": "channel",
        "noteNumber": 102,
        "velocity": 45,
        "subtype": "noteOn"
      },
      {
        "deltaTime": 10,
        "channel": 1,
        "type": "channel",
        "subtype": "noteOff",
        "noteNumber": 102,
        "velocity": 0
      },
      {
        "deltaTime": 10,
        "channel": 1,
        "type": "channel",
        "noteNumber": 82,
        "velocity": 15,
        "subtype": "noteOn"
      },
      {
        "deltaTime": 9,
        "channel": 1,
        "type": "channel",
        "subtype": "noteOff",
        "noteNumber": 82,
        "velocity": 0
      },
      {
        "deltaTime": 34,
        "channel": 1,
        "type": "channel",
        "noteNumber": 64,
        "velocity": 19,
        "subtype": "noteOn"
      },
      {
        "deltaTime": 5,
        "channel": 1,
        "type": "channel",
        "noteNumber": 102,
        "velocity": 13,
        "subtype": "noteOn"
      },
      {
        "deltaTime": 16,
        "channel": 1,
        "type": "channel",
        "subtype": "noteOff",
        "noteNumber": 102,
        "velocity": 0
      },
      {
        "deltaTime": 10,
        "channel": 1,
        "type": "channel",
        "noteNumber": 88,
        "velocity": 16,
        "subtype": "noteOn"
      },
      {
        "deltaTime": 5,
        "channel": 1,
        "type": "channel",
        "subtype": "noteOff",
        "noteNumber": 64,
        "velocity": 0
      },
      {
        "deltaTime": 2,
        "channel": 1,
        "type": "channel",
        "noteNumber": 64,
        "velocity": 22,
        "subtype": "noteOn"
      },
      {
        "deltaTime": 29,
        "channel": 1,
        "type": "channel",
        "subtype": "noteOff",
        "noteNumber": 88,
        "velocity": 0
      },
      {
        "deltaTime": 36,
        "channel": 1,
        "type": "channel",
        "subtype": "noteOff",
        "noteNumber": 64,
        "velocity": 0
      },
      {
        "deltaTime": 65,
        "channel": 1,
        "type": "channel",
        "noteNumber": 32,
        "velocity": 13,
        "subtype": "noteOn"
      },
      {
        "deltaTime": 9,
        "channel": 1,
        "type": "channel",
        "subtype": "noteOff",
        "noteNumber": 32,
        "velocity": 0
      },
      {
        "deltaTime": 15,
        "channel": 1,
        "type": "channel",
        "noteNumber": 90,
        "velocity": 37,
        "subtype": "noteOn"
      },
      {
        "deltaTime": 26,
        "channel": 1,
        "type": "channel",
        "subtype": "noteOff",
        "noteNumber": 90,
        "velocity": 0
      },
      {
        "deltaTime": 10,
        "channel": 1,
        "type": "channel",
        "noteNumber": 62,
        "velocity": 42,
        "subtype": "noteOn"
      },
      {
        "deltaTime": 41,
        "channel": 1,
        "type": "channel",
        "subtype": "noteOff",
        "noteNumber": 62,
        "velocity": 0
      },
      {
        "deltaTime": 72,
        "channel": 1,
        "type": "channel",
        "noteNumber": 90,
        "velocity": 40,
        "subtype": "noteOn"
      },
      {
        "deltaTime": 76,
        "channel": 1,
        "type": "channel",
        "subtype": "noteOff",
        "noteNumber": 90,
        "velocity": 0
      },
      {
        "deltaTime": 0,
        "channel": 1,
        "type": "channel",
        "noteNumber": 35,
        "velocity": 36,
        "subtype": "noteOn"
      },
      {
        "deltaTime": 60,
        "channel": 1,
        "type": "channel",
        "subtype": "noteOff",
        "noteNumber": 35,
        "velocity": 0
      },
      {
        "deltaTime": 135,
        "channel": 1,
        "type": "channel",
        "noteNumber": 50,
        "velocity": 13,
        "subtype": "noteOn"
      },
      {
        "deltaTime": 17,
        "channel": 1,
        "type": "channel",
        "subtype": "noteOff",
        "noteNumber": 50,
        "velocity": 0
      },
      {
        "deltaTime": 122,
        "channel": 1,
        "type": "channel",
        "noteNumber": 85,
        "velocity": 11,
        "subtype": "noteOn"
      },
      {
        "deltaTime": 12,
        "channel": 1,
        "type": "channel",
        "subtype": "noteOff",
        "noteNumber": 85,
        "velocity": 0
      },
      {
        "deltaTime": 2,
        "channel": 1,
        "type": "channel",
        "noteNumber": 55,
        "velocity": 24,
        "subtype": "noteOn"
      },
      {
        "deltaTime": 10,
        "channel": 1,
        "type": "channel",
        "subtype": "noteOff",
        "noteNumber": 55,
        "velocity": 0
      },
      {
        "deltaTime": 26,
        "channel": 1,
        "type": "channel",
        "noteNumber": 50,
        "velocity": 45,
        "subtype": "noteOn"
      },
      {
        "deltaTime": 68,
        "channel": 1,
        "type": "channel",
        "subtype": "noteOff",
        "noteNumber": 50,
        "velocity": 0
      },
      {
        "deltaTime": 0,
        "channel": 1,
        "type": "channel",
        "noteNumber": 71,
        "velocity": 13,
        "subtype": "noteOn"
      },
      {
        "deltaTime": 2,
        "channel": 1,
        "type": "channel",
        "noteNumber": 86,
        "velocity": 33,
        "subtype": "noteOn"
      },
      {
        "deltaTime": 12,
        "channel": 1,
        "type": "channel",
        "subtype": "noteOff",
        "noteNumber": 71,
        "velocity": 0
      },
      {
        "deltaTime": 0,
        "channel": 1,
        "type": "channel",
        "noteNumber": 59,
        "velocity": 39,
        "subtype": "noteOn"
      },
      {
        "deltaTime": 10,
        "channel": 1,
        "type": "channel",
        "subtype": "noteOff",
        "noteNumber": 86,
        "velocity": 0
      },
      {
        "deltaTime": 57,
        "channel": 1,
        "type": "channel",
        "noteNumber": 86,
        "velocity": 26,
        "subtype": "noteOn"
      },
      {
        "deltaTime": 36,
        "channel": 1,
        "type": "channel",
        "subtype": "noteOff",
        "noteNumber": 86,
        "velocity": 0
      },
      {
        "deltaTime": 5,
        "channel": 1,
        "type": "channel",
        "noteNumber": 85,
        "velocity": 27,
        "subtype": "noteOn"
      },
      {
        "deltaTime": 26,
        "channel": 1,
        "type": "channel",
        "subtype": "noteOff",
        "noteNumber": 85,
        "velocity": 0
      },
      {
        "deltaTime": 12,
        "channel": 1,
        "type": "channel",
        "noteNumber": 86,
        "velocity": 32,
        "subtype": "noteOn"
      },
      {
        "deltaTime": 36,
        "channel": 1,
        "type": "channel",
        "subtype": "noteOff",
        "noteNumber": 86,
        "velocity": 0
      },
      {
        "deltaTime": 3,
        "channel": 1,
        "type": "channel",
        "subtype": "noteOff",
        "noteNumber": 59,
        "velocity": 0
      },
      {
        "deltaTime": 14,
        "channel": 1,
        "type": "channel",
        "noteNumber": 52,
        "velocity": 17,
        "subtype": "noteOn"
      },
      {
        "deltaTime": 24,
        "channel": 1,
        "type": "channel",
        "subtype": "noteOff",
        "noteNumber": 52,
        "velocity": 0
      },
      {
        "deltaTime": 5,
        "channel": 1,
        "type": "channel",
        "noteNumber": 86,
        "velocity": 29,
        "subtype": "noteOn"
      },
      {
        "deltaTime": 58,
        "channel": 1,
        "type": "channel",
        "subtype": "noteOff",
        "noteNumber": 86,
        "velocity": 0
      },
      {
        "deltaTime": 24,
        "channel": 1,
        "type": "channel",
        "noteNumber": 61,
        "velocity": 30,
        "subtype": "noteOn"
      },
      {
        "deltaTime": 36,
        "channel": 1,
        "type": "channel",
        "subtype": "noteOff",
        "noteNumber": 61,
        "velocity": 0
      },
      {
        "deltaTime": 24,
        "channel": 1,
        "type": "channel",
        "noteNumber": 52,
        "velocity": 19,
        "subtype": "noteOn"
      },
      {
        "deltaTime": 16,
        "channel": 1,
        "type": "channel",
        "subtype": "noteOff",
        "noteNumber": 52,
        "velocity": 0
      },
      {
        "deltaTime": 89,
        "channel": 1,
        "type": "channel",
        "noteNumber": 33,
        "velocity": 10,
        "subtype": "noteOn"
      },
      {
        "deltaTime": 41,
        "channel": 1,
        "type": "channel",
        "subtype": "noteOff",
        "noteNumber": 33,
        "velocity": 0
      },
      {
        "deltaTime": 31,
        "channel": 1,
        "type": "channel",
        "noteNumber": 86,
        "velocity": 23,
        "subtype": "noteOn"
      },
      {
        "deltaTime": 27,
        "channel": 1,
        "type": "channel",
        "subtype": "noteOff",
        "noteNumber": 86,
        "velocity": 0
      },
      {
        "deltaTime": 14,
        "channel": 1,
        "type": "channel",
        "noteNumber": 85,
        "velocity": 29,
        "subtype": "noteOn"
      },
      {
        "deltaTime": 26,
        "channel": 1,
        "type": "channel",
        "subtype": "noteOff",
        "noteNumber": 85,
        "velocity": 0
      },
      {
        "deltaTime": 15,
        "channel": 1,
        "type": "channel",
        "noteNumber": 86,
        "velocity": 33,
        "subtype": "noteOn"
      },
      {
        "deltaTime": 36,
        "channel": 1,
        "type": "channel",
        "subtype": "noteOff",
        "noteNumber": 86,
        "velocity": 0
      },
      {
        "deltaTime": 5,
        "channel": 1,
        "type": "channel",
        "noteNumber": 85,
        "velocity": 45,
        "subtype": "noteOn"
      },
      {
        "deltaTime": 24,
        "channel": 1,
        "type": "channel",
        "subtype": "noteOff",
        "noteNumber": 85,
        "velocity": 0
      },
      {
        "deltaTime": 196,
        "channel": 1,
        "type": "channel",
        "noteNumber": 47,
        "velocity": 36,
        "subtype": "noteOn"
      },
      {
        "deltaTime": 53,
        "channel": 1,
        "type": "channel",
        "subtype": "noteOff",
        "noteNumber": 47,
        "velocity": 0
      },
      {
        "deltaTime": 17,
        "channel": 1,
        "type": "channel",
        "noteNumber": 62,
        "velocity": 37,
        "subtype": "noteOn"
      },
      {
        "deltaTime": 24,
        "channel": 1,
        "type": "channel",
        "subtype": "noteOff",
        "noteNumber": 62,
        "velocity": 0
      },
      {
        "deltaTime": 24,
        "channel": 1,
        "type": "channel",
        "noteNumber": 45,
        "velocity": 26,
        "subtype": "noteOn"
      },
      {
        "deltaTime": 130,
        "channel": 1,
        "type": "channel",
        "subtype": "noteOff",
        "noteNumber": 45,
        "velocity": 0
      },
      {
        "deltaTime": 43,
        "channel": 1,
        "type": "channel",
        "noteNumber": 36,
        "velocity": 23,
        "subtype": "noteOn"
      },
      {
        "deltaTime": 19,
        "channel": 1,
        "type": "channel",
        "subtype": "noteOff",
        "noteNumber": 36,
        "velocity": 0
      },
      {
        "deltaTime": 12,
        "channel": 1,
        "type": "channel",
        "noteNumber": 66,
        "velocity": 21,
        "subtype": "noteOn"
      },
      {
        "deltaTime": 26,
        "channel": 1,
        "type": "channel",
        "subtype": "noteOff",
        "noteNumber": 66,
        "velocity": 0
      },
      {
        "deltaTime": 44,
        "channel": 1,
        "type": "channel",
        "noteNumber": 59,
        "velocity": 22,
        "subtype": "noteOn"
      },
      {
        "deltaTime": 24,
        "channel": 1,
        "type": "channel",
        "subtype": "noteOff",
        "noteNumber": 59,
        "velocity": 0
      },
      {
        "deltaTime": 81,
        "channel": 1,
        "type": "channel",
        "noteNumber": 86,
        "velocity": 23,
        "subtype": "noteOn"
      },
      {
        "deltaTime": 12,
        "channel": 1,
        "type": "channel",
        "subtype": "noteOff",
        "noteNumber": 86,
        "velocity": 0
      },
      {
        "deltaTime": 123,
        "channel": 1,
        "type": "channel",
        "noteNumber": 62,
        "velocity": 33,
        "subtype": "noteOn"
      },
      {
        "deltaTime": 38,
        "channel": 1,
        "type": "channel",
        "subtype": "noteOff",
        "noteNumber": 62,
        "velocity": 0
      },
      {
        "deltaTime": 26,
        "channel": 1,
        "type": "channel",
        "noteNumber": 74,
        "velocity": 16,
        "subtype": "noteOn"
      },
      {
        "deltaTime": 10,
        "channel": 1,
        "type": "channel",
        "subtype": "noteOff",
        "noteNumber": 74,
        "velocity": 0
      },
      {
        "deltaTime": 17,
        "channel": 1,
        "type": "channel",
        "noteNumber": 69,
        "velocity": 34,
        "subtype": "noteOn"
      },
      {
        "deltaTime": 12,
        "channel": 1,
        "type": "channel",
        "subtype": "noteOff",
        "noteNumber": 69,
        "velocity": 0
      },
      {
        "deltaTime": 17,
        "channel": 1,
        "type": "channel",
        "noteNumber": 52,
        "velocity": 24,
        "subtype": "noteOn"
      },
      {
        "deltaTime": 24,
        "channel": 1,
        "type": "channel",
        "subtype": "noteOff",
        "noteNumber": 52,
        "velocity": 0
      },
      {
        "deltaTime": 43,
        "channel": 1,
        "type": "channel",
        "noteNumber": 85,
        "velocity": 23,
        "subtype": "noteOn"
      },
      {
        "deltaTime": 31,
        "channel": 1,
        "type": "channel",
        "subtype": "noteOff",
        "noteNumber": 85,
        "velocity": 0
      },
      {
        "deltaTime": 108,
        "channel": 1,
        "type": "channel",
        "noteNumber": 61,
        "velocity": 27,
        "subtype": "noteOn"
      },
      {
        "deltaTime": 26,
        "channel": 1,
        "type": "channel",
        "subtype": "noteOff",
        "noteNumber": 61,
        "velocity": 0
      },
      {
        "deltaTime": 8,
        "channel": 1,
        "type": "channel",
        "noteNumber": 62,
        "velocity": 30,
        "subtype": "noteOn"
      },
      {
        "deltaTime": 19,
        "channel": 1,
        "type": "channel",
        "subtype": "noteOff",
        "noteNumber": 62,
        "velocity": 0
      },
      {
        "deltaTime": 7,
        "channel": 1,
        "type": "channel",
        "noteNumber": 62,
        "velocity": 37,
        "subtype": "noteOn"
      },
      {
        "deltaTime": 34,
        "channel": 1,
        "type": "channel",
        "subtype": "noteOff",
        "noteNumber": 62,
        "velocity": 0
      },
      {
        "deltaTime": 9,
        "channel": 1,
        "type": "channel",
        "noteNumber": 82,
        "velocity": 23,
        "subtype": "noteOn"
      },
      {
        "deltaTime": 12,
        "channel": 1,
        "type": "channel",
        "subtype": "noteOff",
        "noteNumber": 82,
        "velocity": 0
      },
      {
        "deltaTime": 151,
        "channel": 1,
        "type": "channel",
        "noteNumber": 59,
        "velocity": 52,
        "subtype": "noteOn"
      },
      {
        "deltaTime": 75,
        "channel": 1,
        "type": "channel",
        "noteNumber": 47,
        "velocity": 34,
        "subtype": "noteOn"
      },
      {
        "deltaTime": 33,
        "channel": 1,
        "type": "channel",
        "subtype": "noteOff",
        "noteNumber": 47,
        "velocity": 0
      },
      {
        "deltaTime": 15,
        "channel": 1,
        "type": "channel",
        "noteNumber": 62,
        "velocity": 36,
        "subtype": "noteOn"
      },
      {
        "deltaTime": 29,
        "channel": 1,
        "type": "channel",
        "subtype": "noteOff",
        "noteNumber": 59,
        "velocity": 0
      },
      {
        "deltaTime": 0,
        "channel": 1,
        "type": "channel",
        "subtype": "noteOff",
        "noteNumber": 62,
        "velocity": 0
      },
      {
        "deltaTime": 21,
        "channel": 1,
        "type": "channel",
        "noteNumber": 99,
        "velocity": 24,
        "subtype": "noteOn"
      },
      {
        "deltaTime": 96,
        "channel": 1,
        "type": "channel",
        "subtype": "noteOff",
        "noteNumber": 99,
        "velocity": 0
      },
      {
        "deltaTime": 48,
        "channel": 1,
        "type": "channel",
        "noteNumber": 74,
        "velocity": 15,
        "subtype": "noteOn"
      },
      {
        "deltaTime": 15,
        "channel": 1,
        "type": "channel",
        "subtype": "noteOff",
        "noteNumber": 74,
        "velocity": 0
      },
      {
        "deltaTime": 62,
        "channel": 1,
        "type": "channel",
        "noteNumber": 85,
        "velocity": 29,
        "subtype": "noteOn"
      },
      {
        "deltaTime": 5,
        "channel": 1,
        "type": "channel",
        "noteNumber": 59,
        "velocity": 44,
        "subtype": "noteOn"
      },
      {
        "deltaTime": 21,
        "channel": 1,
        "type": "channel",
        "subtype": "noteOff",
        "noteNumber": 85,
        "velocity": 0
      },
      {
        "deltaTime": 15,
        "channel": 1,
        "type": "channel",
        "noteNumber": 86,
        "velocity": 35,
        "subtype": "noteOn"
      },
      {
        "deltaTime": 26,
        "channel": 1,
        "type": "channel",
        "subtype": "noteOff",
        "noteNumber": 86,
        "velocity": 0
      },
      {
        "deltaTime": 53,
        "channel": 1,
        "type": "channel",
        "noteNumber": 86,
        "velocity": 27,
        "subtype": "noteOn"
      },
      {
        "deltaTime": 36,
        "channel": 1,
        "type": "channel",
        "subtype": "noteOff",
        "noteNumber": 86,
        "velocity": 0
      },
      {
        "deltaTime": 5,
        "channel": 1,
        "type": "channel",
        "noteNumber": 85,
        "velocity": 25,
        "subtype": "noteOn"
      },
      {
        "deltaTime": 26,
        "channel": 1,
        "type": "channel",
        "subtype": "noteOff",
        "noteNumber": 85,
        "velocity": 0
      },
      {
        "deltaTime": 7,
        "channel": 1,
        "type": "channel",
        "subtype": "noteOff",
        "noteNumber": 59,
        "velocity": 0
      },
      {
        "deltaTime": 56,
        "channel": 1,
        "type": "channel",
        "noteNumber": 57,
        "velocity": 24,
        "subtype": "noteOn"
      },
      {
        "deltaTime": 12,
        "channel": 1,
        "type": "channel",
        "noteNumber": 69,
        "velocity": 31,
        "subtype": "noteOn"
      },
      {
        "deltaTime": 12,
        "channel": 1,
        "type": "channel",
        "subtype": "noteOff",
        "noteNumber": 57,
        "velocity": 0
      },
      {
        "deltaTime": 124,
        "channel": 1,
        "type": "channel",
        "subtype": "noteOff",
        "noteNumber": 69,
        "velocity": 0
      },
      {
        "deltaTime": 29,
        "channel": 1,
        "type": "channel",
        "noteNumber": 52,
        "velocity": 21,
        "subtype": "noteOn"
      },
      {
        "deltaTime": 10,
        "channel": 1,
        "type": "channel",
        "subtype": "noteOff",
        "noteNumber": 52,
        "velocity": 0
      },
      {
        "deltaTime": 129,
        "channel": 1,
        "type": "channel",
        "noteNumber": 71,
        "velocity": 16,
        "subtype": "noteOn"
      },
      {
        "deltaTime": 39,
        "channel": 1,
        "type": "channel",
        "subtype": "noteOff",
        "noteNumber": 71,
        "velocity": 0
      },
      {
        "deltaTime": 21,
        "channel": 1,
        "type": "channel",
        "noteNumber": 35,
        "velocity": 41,
        "subtype": "noteOn"
      },
      {
        "deltaTime": 53,
        "channel": 1,
        "type": "channel",
        "noteNumber": 86,
        "velocity": 35,
        "subtype": "noteOn"
      },
      {
        "deltaTime": 36,
        "channel": 1,
        "type": "channel",
        "subtype": "noteOff",
        "noteNumber": 86,
        "velocity": 0
      },
      {
        "deltaTime": 36,
        "channel": 1,
        "type": "channel",
        "noteNumber": 106,
        "velocity": 39,
        "subtype": "noteOn"
      },
      {
        "deltaTime": 10,
        "channel": 1,
        "type": "channel",
        "noteNumber": 86,
        "velocity": 27,
        "subtype": "noteOn"
      },
      {
        "deltaTime": 12,
        "channel": 1,
        "type": "channel",
        "subtype": "noteOff",
        "noteNumber": 35,
        "velocity": 0
      },
      {
        "deltaTime": 21,
        "channel": 1,
        "type": "channel",
        "subtype": "noteOff",
        "noteNumber": 86,
        "velocity": 0
      },
      {
        "deltaTime": 12,
        "channel": 1,
        "type": "channel",
        "noteNumber": 35,
        "velocity": 29,
        "subtype": "noteOn"
      },
      {
        "deltaTime": 34,
        "channel": 1,
        "type": "channel",
        "noteNumber": 86,
        "velocity": 31,
        "subtype": "noteOn"
      },
      {
        "deltaTime": 2,
        "channel": 1,
        "type": "channel",
        "subtype": "noteOff",
        "noteNumber": 35,
        "velocity": 0
      },
      {
        "deltaTime": 34,
        "channel": 1,
        "type": "channel",
        "subtype": "noteOff",
        "noteNumber": 86,
        "velocity": 0
      },
      {
        "deltaTime": 43,
        "channel": 1,
        "type": "channel",
        "noteNumber": 86,
        "velocity": 34,
        "subtype": "noteOn"
      },
      {
        "deltaTime": 27,
        "channel": 1,
        "type": "channel",
        "subtype": "noteOff",
        "noteNumber": 86,
        "velocity": 0
      },
      {
        "deltaTime": 81,
        "channel": 1,
        "type": "channel",
        "noteNumber": 59,
        "velocity": 30,
        "subtype": "noteOn"
      },
      {
        "deltaTime": 12,
        "channel": 1,
        "type": "channel",
        "subtype": "noteOff",
        "noteNumber": 59,
        "velocity": 0
      },
      {
        "deltaTime": 0,
        "channel": 1,
        "type": "channel",
        "subtype": "noteOff",
        "noteNumber": 106,
        "velocity": 0
      },
      {
        "deltaTime": 22,
        "channel": 1,
        "type": "channel",
        "noteNumber": 106,
        "velocity": 29,
        "subtype": "noteOn"
      },
      {
        "deltaTime": 12,
        "channel": 1,
        "type": "channel",
        "subtype": "noteOff",
        "noteNumber": 106,
        "velocity": 0
      },
      {
        "deltaTime": 264,
        "channel": 1,
        "type": "channel",
        "noteNumber": 62,
        "velocity": 31,
        "subtype": "noteOn"
      },
      {
        "deltaTime": 19,
        "channel": 1,
        "type": "channel",
        "subtype": "noteOff",
        "noteNumber": 62,
        "velocity": 0
      },
      {
        "deltaTime": 46,
        "channel": 1,
        "type": "channel",
        "noteNumber": 86,
        "velocity": 27,
        "subtype": "noteOn"
      },
      {
        "deltaTime": 19,
        "channel": 1,
        "type": "channel",
        "subtype": "noteOff",
        "noteNumber": 86,
        "velocity": 0
      },
      {
        "deltaTime": 21,
        "channel": 1,
        "type": "channel",
        "noteNumber": 85,
        "velocity": 24,
        "subtype": "noteOn"
      },
      {
        "deltaTime": 22,
        "channel": 1,
        "type": "channel",
        "subtype": "noteOff",
        "noteNumber": 85,
        "velocity": 0
      },
      {
        "deltaTime": 118,
        "channel": 1,
        "type": "channel",
        "noteNumber": 52,
        "velocity": 30,
        "subtype": "noteOn"
      },
      {
        "deltaTime": 52,
        "channel": 1,
        "type": "channel",
        "subtype": "noteOff",
        "noteNumber": 52,
        "velocity": 0
      },
      {
        "deltaTime": 5,
        "channel": 1,
        "type": "channel",
        "noteNumber": 88,
        "velocity": 36,
        "subtype": "noteOn"
      },
      {
        "deltaTime": 31,
        "channel": 1,
        "type": "channel",
        "noteNumber": 36,
        "velocity": 31,
        "subtype": "noteOn"
      },
      {
        "deltaTime": 8,
        "channel": 1,
        "type": "channel",
        "subtype": "noteOff",
        "noteNumber": 88,
        "velocity": 0
      },
      {
        "deltaTime": 0,
        "channel": 1,
        "type": "channel",
        "noteNumber": 38,
        "velocity": 10,
        "subtype": "noteOn"
      },
      {
        "deltaTime": 14,
        "channel": 1,
        "type": "channel",
        "subtype": "noteOff",
        "noteNumber": 36,
        "velocity": 0
      },
      {
        "deltaTime": 12,
        "channel": 1,
        "type": "channel",
        "subtype": "noteOff",
        "noteNumber": 38,
        "velocity": 0
      },
      {
        "deltaTime": 17,
        "channel": 1,
        "type": "channel",
        "noteNumber": 85,
        "velocity": 16,
        "subtype": "noteOn"
      },
      {
        "deltaTime": 31,
        "channel": 1,
        "type": "channel",
        "subtype": "noteOff",
        "noteNumber": 85,
        "velocity": 0
      },
      {
        "deltaTime": 17,
        "channel": 1,
        "type": "channel",
        "noteNumber": 45,
        "velocity": 16,
        "subtype": "noteOn"
      },
      {
        "deltaTime": 60,
        "channel": 1,
        "type": "channel",
        "subtype": "noteOff",
        "noteNumber": 45,
        "velocity": 0
      },
      {
        "deltaTime": 67,
        "channel": 1,
        "type": "channel",
        "noteNumber": 32,
        "velocity": 12,
        "subtype": "noteOn"
      },
      {
        "deltaTime": 0,
        "channel": 1,
        "type": "channel",
        "noteNumber": 35,
        "velocity": 48,
        "subtype": "noteOn"
      },
      {
        "deltaTime": 10,
        "channel": 1,
        "type": "channel",
        "subtype": "noteOff",
        "noteNumber": 32,
        "velocity": 0
      },
      {
        "deltaTime": 14,
        "channel": 1,
        "type": "channel",
        "noteNumber": 90,
        "velocity": 38,
        "subtype": "noteOn"
      },
      {
        "deltaTime": 31,
        "channel": 1,
        "type": "channel",
        "subtype": "noteOff",
        "noteNumber": 90,
        "velocity": 0
      },
      {
        "deltaTime": 168,
        "channel": 1,
        "type": "channel",
        "noteNumber": 90,
        "velocity": 37,
        "subtype": "noteOn"
      },
      {
        "deltaTime": 31,
        "channel": 1,
        "type": "channel",
        "subtype": "noteOff",
        "noteNumber": 35,
        "velocity": 0
      },
      {
        "deltaTime": 56,
        "channel": 1,
        "type": "channel",
        "subtype": "noteOff",
        "noteNumber": 90,
        "velocity": 0
      },
      {
        "deltaTime": 26,
        "channel": 1,
        "type": "channel",
        "noteNumber": 90,
        "velocity": 36,
        "subtype": "noteOn"
      },
      {
        "deltaTime": 38,
        "channel": 1,
        "type": "channel",
        "subtype": "noteOff",
        "noteNumber": 90,
        "velocity": 0
      },
      {
        "deltaTime": 41,
        "channel": 1,
        "type": "channel",
        "noteNumber": 36,
        "velocity": 31,
        "subtype": "noteOn"
      },
      {
        "deltaTime": 19,
        "channel": 1,
        "type": "channel",
        "subtype": "noteOff",
        "noteNumber": 36,
        "velocity": 0
      },
      {
        "deltaTime": 5,
        "channel": 1,
        "type": "channel",
        "noteNumber": 54,
        "velocity": 37,
        "subtype": "noteOn"
      },
      {
        "deltaTime": 22,
        "channel": 1,
        "type": "channel",
        "subtype": "noteOff",
        "noteNumber": 54,
        "velocity": 0
      },
      {
        "deltaTime": 161,
        "channel": 1,
        "type": "channel",
        "noteNumber": 50,
        "velocity": 32,
        "subtype": "noteOn"
      },
      {
        "deltaTime": 50,
        "channel": 1,
        "type": "channel",
        "noteNumber": 59,
        "velocity": 41,
        "subtype": "noteOn"
      },
      {
        "deltaTime": 67,
        "channel": 1,
        "type": "channel",
        "subtype": "noteOff",
        "noteNumber": 50,
        "velocity": 0
      },
      {
        "deltaTime": 39,
        "channel": 1,
        "type": "channel",
        "subtype": "noteOff",
        "noteNumber": 59,
        "velocity": 0
      },
      {
        "deltaTime": 4,
        "channel": 1,
        "type": "channel",
        "noteNumber": 86,
        "velocity": 23,
        "subtype": "noteOn"
      },
      {
        "deltaTime": 32,
        "channel": 1,
        "type": "channel",
        "subtype": "noteOff",
        "noteNumber": 86,
        "velocity": 0
      },
      {
        "deltaTime": 9,
        "channel": 1,
        "type": "channel",
        "noteNumber": 85,
        "velocity": 24,
        "subtype": "noteOn"
      },
      {
        "deltaTime": 31,
        "channel": 1,
        "type": "channel",
        "subtype": "noteOff",
        "noteNumber": 85,
        "velocity": 0
      },
      {
        "deltaTime": 58,
        "channel": 1,
        "type": "channel",
        "noteNumber": 57,
        "velocity": 22,
        "subtype": "noteOn"
      },
      {
        "deltaTime": 24,
        "channel": 1,
        "type": "channel",
        "subtype": "noteOff",
        "noteNumber": 57,
        "velocity": 0
      },
      {
        "deltaTime": 7,
        "channel": 1,
        "type": "channel",
        "noteNumber": 86,
        "velocity": 20,
        "subtype": "noteOn"
      },
      {
        "deltaTime": 27,
        "channel": 1,
        "type": "channel",
        "subtype": "noteOff",
        "noteNumber": 86,
        "velocity": 0
      },
      {
        "deltaTime": 19,
        "channel": 1,
        "type": "channel",
        "noteNumber": 61,
        "velocity": 20,
        "subtype": "noteOn"
      },
      {
        "deltaTime": 19,
        "channel": 1,
        "type": "channel",
        "noteNumber": 33,
        "velocity": 20,
        "subtype": "noteOn"
      },
      {
        "deltaTime": 7,
        "channel": 1,
        "type": "channel",
        "subtype": "noteOff",
        "noteNumber": 61,
        "velocity": 0
      },
      {
        "deltaTime": 15,
        "channel": 1,
        "type": "channel",
        "subtype": "noteOff",
        "noteNumber": 33,
        "velocity": 0
      },
      {
        "deltaTime": 24,
        "channel": 1,
        "type": "channel",
        "noteNumber": 88,
        "velocity": 40,
        "subtype": "noteOn"
      },
      {
        "deltaTime": 7,
        "channel": 1,
        "type": "channel",
        "noteNumber": 42,
        "velocity": 29,
        "subtype": "noteOn"
      },
      {
        "deltaTime": 5,
        "channel": 1,
        "type": "channel",
        "subtype": "noteOff",
        "noteNumber": 88,
        "velocity": 0
      },
      {
        "deltaTime": 28,
        "channel": 1,
        "type": "channel",
        "subtype": "noteOff",
        "noteNumber": 42,
        "velocity": 0
      },
      {
        "deltaTime": 154,
        "channel": 1,
        "type": "channel",
        "noteNumber": 71,
        "velocity": 16,
        "subtype": "noteOn"
      },
      {
        "deltaTime": 19,
        "channel": 1,
        "type": "channel",
        "subtype": "noteOff",
        "noteNumber": 71,
        "velocity": 0
      },
      {
        "deltaTime": 24,
        "channel": 1,
        "type": "channel",
        "noteNumber": 35,
        "velocity": 42,
        "subtype": "noteOn"
      },
      {
        "deltaTime": 53,
        "channel": 1,
        "type": "channel",
        "noteNumber": 86,
        "velocity": 35,
        "subtype": "noteOn"
      },
      {
        "deltaTime": 36,
        "channel": 1,
        "type": "channel",
        "subtype": "noteOff",
        "noteNumber": 86,
        "velocity": 0
      },
      {
        "deltaTime": 29,
        "channel": 1,
        "type": "channel",
        "noteNumber": 106,
        "velocity": 38,
        "subtype": "noteOn"
      },
      {
        "deltaTime": 17,
        "channel": 1,
        "type": "channel",
        "noteNumber": 86,
        "velocity": 27,
        "subtype": "noteOn"
      },
      {
        "deltaTime": 12,
        "channel": 1,
        "type": "channel",
        "subtype": "noteOff",
        "noteNumber": 35,
        "velocity": 0
      },
      {
        "deltaTime": 21,
        "channel": 1,
        "type": "channel",
        "subtype": "noteOff",
        "noteNumber": 86,
        "velocity": 0
      },
      {
        "deltaTime": 12,
        "channel": 1,
        "type": "channel",
        "noteNumber": 35,
        "velocity": 28,
        "subtype": "noteOn"
      },
      {
        "deltaTime": 36,
        "channel": 1,
        "type": "channel",
        "subtype": "noteOff",
        "noteNumber": 35,
        "velocity": 0
      },
      {
        "deltaTime": 12,
        "channel": 1,
        "type": "channel",
        "noteNumber": 47,
        "velocity": 38,
        "subtype": "noteOn"
      },
      {
        "deltaTime": 63,
        "channel": 1,
        "type": "channel",
        "subtype": "noteOff",
        "noteNumber": 47,
        "velocity": 0
      },
      {
        "deltaTime": 105,
        "channel": 1,
        "type": "channel",
        "noteNumber": 66,
        "velocity": 31,
        "subtype": "noteOn"
      },
      {
        "deltaTime": 10,
        "channel": 1,
        "type": "channel",
        "noteNumber": 36,
        "velocity": 32,
        "subtype": "noteOn"
      },
      {
        "deltaTime": 5,
        "channel": 1,
        "type": "channel",
        "subtype": "noteOff",
        "noteNumber": 66,
        "velocity": 0
      },
      {
        "deltaTime": 2,
        "channel": 1,
        "type": "channel",
        "subtype": "noteOff",
        "noteNumber": 106,
        "velocity": 0
      },
      {
        "deltaTime": 22,
        "channel": 1,
        "type": "channel",
        "noteNumber": 106,
        "velocity": 39,
        "subtype": "noteOn"
      },
      {
        "deltaTime": 7,
        "channel": 1,
        "type": "channel",
        "subtype": "noteOff",
        "noteNumber": 36,
        "velocity": 0
      },
      {
        "deltaTime": 50,
        "channel": 1,
        "type": "channel",
        "noteNumber": 83,
        "velocity": 24,
        "subtype": "noteOn"
      },
      {
        "deltaTime": 31,
        "channel": 1,
        "type": "channel",
        "subtype": "noteOff",
        "noteNumber": 83,
        "velocity": 0
      },
      {
        "deltaTime": 120,
        "channel": 1,
        "type": "channel",
        "subtype": "noteOff",
        "noteNumber": 106,
        "velocity": 0
      },
      {
        "deltaTime": 20,
        "channel": 1,
        "type": "channel",
        "noteNumber": 59,
        "velocity": 28,
        "subtype": "noteOn"
      },
      {
        "deltaTime": 67,
        "channel": 1,
        "type": "channel",
        "subtype": "noteOff",
        "noteNumber": 59,
        "velocity": 0
      },
      {
        "deltaTime": 81,
        "channel": 1,
        "type": "channel",
        "noteNumber": 86,
        "velocity": 28,
        "subtype": "noteOn"
      },
      {
        "deltaTime": 15,
        "channel": 1,
        "type": "channel",
        "subtype": "noteOff",
        "noteNumber": 86,
        "velocity": 0
      },
      {
        "deltaTime": 48,
        "channel": 1,
        "type": "channel",
        "noteNumber": 74,
        "velocity": 22,
        "subtype": "noteOn"
      },
      {
        "deltaTime": 29,
        "channel": 1,
        "type": "channel",
        "noteNumber": 57,
        "velocity": 24,
        "subtype": "noteOn"
      },
      {
        "deltaTime": 7,
        "channel": 1,
        "type": "channel",
        "subtype": "noteOff",
        "noteNumber": 74,
        "velocity": 0
      },
      {
        "deltaTime": 19,
        "channel": 1,
        "type": "channel",
        "subtype": "noteOff",
        "noteNumber": 57,
        "velocity": 0
      },
      {
        "deltaTime": 86,
        "channel": 1,
        "type": "channel",
        "noteNumber": 61,
        "velocity": 41,
        "subtype": "noteOn"
      },
      {
        "deltaTime": 32,
        "channel": 1,
        "type": "channel",
        "noteNumber": 36,
        "velocity": 34,
        "subtype": "noteOn"
      },
      {
        "deltaTime": 19,
        "channel": 1,
        "type": "channel",
        "subtype": "noteOff",
        "noteNumber": 36,
        "velocity": 0
      },
      {
        "deltaTime": 19,
        "channel": 1,
        "type": "channel",
        "subtype": "noteOff",
        "noteNumber": 61,
        "velocity": 0
      },
      {
        "deltaTime": 12,
        "channel": 1,
        "type": "channel",
        "noteNumber": 33,
        "velocity": 21,
        "subtype": "noteOn"
      },
      {
        "deltaTime": 10,
        "channel": 1,
        "type": "channel",
        "subtype": "noteOff",
        "noteNumber": 33,
        "velocity": 0
      },
      {
        "deltaTime": 26,
        "channel": 1,
        "type": "channel",
        "noteNumber": 88,
        "velocity": 28,
        "subtype": "noteOn"
      },
      {
        "deltaTime": 77,
        "channel": 1,
        "type": "channel",
        "subtype": "noteOff",
        "noteNumber": 88,
        "velocity": 0
      },
      {
        "deltaTime": 2,
        "channel": 1,
        "type": "channel",
        "noteNumber": 90,
        "velocity": 35,
        "subtype": "noteOn"
      },
      {
        "deltaTime": 10,
        "channel": 1,
        "type": "channel",
        "noteNumber": 59,
        "velocity": 27,
        "subtype": "noteOn"
      },
      {
        "deltaTime": 29,
        "channel": 1,
        "type": "channel",
        "subtype": "noteOff",
        "noteNumber": 59,
        "velocity": 0
      },
      {
        "deltaTime": 45,
        "channel": 1,
        "type": "channel",
        "subtype": "noteOff",
        "noteNumber": 90,
        "velocity": 0
      },
      {
        "deltaTime": 12,
        "channel": 1,
        "type": "channel",
        "noteNumber": 62,
        "velocity": 33,
        "subtype": "noteOn"
      },
      {
        "deltaTime": 46,
        "channel": 1,
        "type": "channel",
        "subtype": "noteOff",
        "noteNumber": 62,
        "velocity": 0
      },
      {
        "deltaTime": 101,
        "channel": 1,
        "type": "channel",
        "noteNumber": 59,
        "velocity": 23,
        "subtype": "noteOn"
      },
      {
        "deltaTime": 36,
        "channel": 1,
        "type": "channel",
        "subtype": "noteOff",
        "noteNumber": 59,
        "velocity": 0
      },
      {
        "deltaTime": 16,
        "channel": 1,
        "type": "channel",
        "noteNumber": 47,
        "velocity": 35,
        "subtype": "noteOn"
      },
      {
        "deltaTime": 60,
        "channel": 1,
        "type": "channel",
        "subtype": "noteOff",
        "noteNumber": 47,
        "velocity": 0
      },
      {
        "deltaTime": 46,
        "channel": 1,
        "type": "channel",
        "noteNumber": 47,
        "velocity": 24,
        "subtype": "noteOn"
      },
      {
        "deltaTime": 50,
        "channel": 1,
        "type": "channel",
        "noteNumber": 62,
        "velocity": 29,
        "subtype": "noteOn"
      },
      {
        "deltaTime": 27,
        "channel": 1,
        "type": "channel",
        "subtype": "noteOff",
        "noteNumber": 47,
        "velocity": 0
      },
      {
        "deltaTime": 72,
        "channel": 1,
        "type": "channel",
        "subtype": "noteOff",
        "noteNumber": 62,
        "velocity": 0
      },
      {
        "deltaTime": 53,
        "channel": 1,
        "type": "channel",
        "noteNumber": 99,
        "velocity": 14,
        "subtype": "noteOn"
      },
      {
        "deltaTime": 9,
        "channel": 1,
        "type": "channel",
        "subtype": "noteOff",
        "noteNumber": 99,
        "velocity": 0
      },
      {
        "deltaTime": 0,
        "channel": 1,
        "type": "channel",
        "noteNumber": 95,
        "velocity": 18,
        "subtype": "noteOn"
      },
      {
        "deltaTime": 27,
        "channel": 1,
        "type": "channel",
        "subtype": "noteOff",
        "noteNumber": 95,
        "velocity": 0
      },
      {
        "deltaTime": 9,
        "channel": 1,
        "type": "channel",
        "noteNumber": 55,
        "velocity": 43,
        "subtype": "noteOn"
      },
      {
        "deltaTime": 34,
        "channel": 1,
        "type": "channel",
        "subtype": "noteOff",
        "noteNumber": 55,
        "velocity": 0
      },
      {
        "deltaTime": 65,
        "channel": 1,
        "type": "channel",
        "noteNumber": 32,
        "velocity": 42,
        "subtype": "noteOn"
      },
      {
        "deltaTime": 24,
        "channel": 1,
        "type": "channel",
        "subtype": "noteOff",
        "noteNumber": 32,
        "velocity": 0
      },
      {
        "deltaTime": 7,
        "channel": 1,
        "type": "channel",
        "noteNumber": 40,
        "velocity": 53,
        "subtype": "noteOn"
      },
      {
        "deltaTime": 26,
        "channel": 1,
        "type": "channel",
        "subtype": "noteOff",
        "noteNumber": 40,
        "velocity": 0
      },
      {
        "deltaTime": 7,
        "channel": 1,
        "type": "channel",
        "noteNumber": 57,
        "velocity": 40,
        "subtype": "noteOn"
      },
      {
        "deltaTime": 34,
        "channel": 1,
        "type": "channel",
        "subtype": "noteOff",
        "noteNumber": 57,
        "velocity": 0
      },
      {
        "deltaTime": 36,
        "channel": 1,
        "type": "channel",
        "noteNumber": 88,
        "velocity": 36,
        "subtype": "noteOn"
      },
      {
        "deltaTime": 24,
        "channel": 1,
        "type": "channel",
        "subtype": "noteOff",
        "noteNumber": 88,
        "velocity": 0
      },
      {
        "deltaTime": 29,
        "channel": 1,
        "type": "channel",
        "noteNumber": 57,
        "velocity": 47,
        "subtype": "noteOn"
      },
      {
        "deltaTime": 41,
        "channel": 1,
        "type": "channel",
        "noteNumber": 36,
        "velocity": 46,
        "subtype": "noteOn"
      },
      {
        "deltaTime": 2,
        "channel": 1,
        "type": "channel",
        "subtype": "noteOff",
        "noteNumber": 57,
        "velocity": 0
      },
      {
        "deltaTime": 34,
        "channel": 1,
        "type": "channel",
        "subtype": "noteOff",
        "noteNumber": 36,
        "velocity": 0
      },
      {
        "deltaTime": 52,
        "channel": 1,
        "type": "channel",
        "noteNumber": 69,
        "velocity": 43,
        "subtype": "noteOn"
      },
      {
        "deltaTime": 56,
        "channel": 1,
        "type": "channel",
        "subtype": "noteOff",
        "noteNumber": 69,
        "velocity": 0
      },
      {
        "deltaTime": 69,
        "channel": 1,
        "type": "channel",
        "noteNumber": 61,
        "velocity": 17,
        "subtype": "noteOn"
      },
      {
        "deltaTime": 12,
        "channel": 1,
        "type": "channel",
        "subtype": "noteOff",
        "noteNumber": 61,
        "velocity": 0
      },
      {
        "deltaTime": 3,
        "channel": 1,
        "type": "channel",
        "noteNumber": 88,
        "velocity": 30,
        "subtype": "noteOn"
      },
      {
        "deltaTime": 36,
        "channel": 1,
        "type": "channel",
        "noteNumber": 81,
        "velocity": 42,
        "subtype": "noteOn"
      },
      {
        "deltaTime": 38,
        "channel": 1,
        "type": "channel",
        "subtype": "noteOff",
        "noteNumber": 88,
        "velocity": 0
      },
      {
        "deltaTime": 89,
        "channel": 1,
        "type": "channel",
        "subtype": "noteOff",
        "noteNumber": 81,
        "velocity": 0
      },
      {
        "deltaTime": 2,
        "channel": 1,
        "type": "channel",
        "noteNumber": 62,
        "velocity": 31,
        "subtype": "noteOn"
      },
      {
        "deltaTime": 36,
        "channel": 1,
        "type": "channel",
        "subtype": "noteOff",
        "noteNumber": 62,
        "velocity": 0
      },
      {
        "deltaTime": 46,
        "channel": 1,
        "type": "channel",
        "noteNumber": 62,
        "velocity": 45,
        "subtype": "noteOn"
      },
      {
        "deltaTime": 60,
        "channel": 1,
        "type": "channel",
        "noteNumber": 47,
        "velocity": 41,
        "subtype": "noteOn"
      },
      {
        "deltaTime": 50,
        "channel": 1,
        "type": "channel",
        "subtype": "noteOff",
        "noteNumber": 47,
        "velocity": 0
      },
      {
        "deltaTime": 10,
        "channel": 1,
        "type": "channel",
        "noteNumber": 64,
        "velocity": 31,
        "subtype": "noteOn"
      },
      {
        "deltaTime": 62,
        "channel": 1,
        "type": "channel",
        "subtype": "noteOff",
        "noteNumber": 62,
        "velocity": 0
      },
      {
        "deltaTime": 0,
        "channel": 1,
        "type": "channel",
        "subtype": "noteOff",
        "noteNumber": 64,
        "velocity": 0
      },
      {
        "deltaTime": 51,
        "channel": 1,
        "type": "channel",
        "noteNumber": 83,
        "velocity": 26,
        "subtype": "noteOn"
      },
      {
        "deltaTime": 26,
        "channel": 1,
        "type": "channel",
        "subtype": "noteOff",
        "noteNumber": 83,
        "velocity": 0
      },
      {
        "deltaTime": 24,
        "channel": 1,
        "type": "channel",
        "noteNumber": 62,
        "velocity": 25,
        "subtype": "noteOn"
      },
      {
        "deltaTime": 24,
        "channel": 1,
        "type": "channel",
        "subtype": "noteOff",
        "noteNumber": 62,
        "velocity": 0
      },
      {
        "deltaTime": 22,
        "channel": 1,
        "type": "channel",
        "noteNumber": 52,
        "velocity": 23,
        "subtype": "noteOn"
      },
      {
        "deltaTime": 21,
        "channel": 1,
        "type": "channel",
        "subtype": "noteOff",
        "noteNumber": 52,
        "velocity": 0
      },
      {
        "deltaTime": 108,
        "channel": 1,
        "type": "channel",
        "noteNumber": 81,
        "velocity": 32,
        "subtype": "noteOn"
      },
      {
        "deltaTime": 22,
        "channel": 1,
        "type": "channel",
        "subtype": "noteOff",
        "noteNumber": 81,
        "velocity": 0
      },
      {
        "deltaTime": 79,
        "channel": 1,
        "type": "channel",
        "noteNumber": 59,
        "velocity": 41,
        "subtype": "noteOn"
      },
      {
        "deltaTime": 70,
        "channel": 1,
        "type": "channel",
        "subtype": "noteOff",
        "noteNumber": 59,
        "velocity": 0
      },
      {
        "deltaTime": 81,
        "channel": 1,
        "type": "channel",
        "noteNumber": 88,
        "velocity": 41,
        "subtype": "noteOn"
      },
      {
        "deltaTime": 15,
        "channel": 1,
        "type": "channel",
        "subtype": "noteOff",
        "noteNumber": 88,
        "velocity": 0
      },
      {
        "deltaTime": 0,
        "channel": 1,
        "type": "channel",
        "noteNumber": 59,
        "velocity": 36,
        "subtype": "noteOn"
      },
      {
        "deltaTime": 62,
        "channel": 1,
        "type": "channel",
        "subtype": "noteOff",
        "noteNumber": 59,
        "velocity": 0
      },
      {
        "deltaTime": 5,
        "channel": 1,
        "type": "channel",
        "noteNumber": 90,
        "velocity": 48,
        "subtype": "noteOn"
      },
      {
        "deltaTime": 29,
        "channel": 1,
        "type": "channel",
        "subtype": "noteOff",
        "noteNumber": 90,
        "velocity": 0
      },
      {
        "deltaTime": 38,
        "channel": 1,
        "type": "channel",
        "noteNumber": 33,
        "velocity": 46,
        "subtype": "noteOn"
      },
      {
        "deltaTime": 67,
        "channel": 1,
        "type": "channel",
        "subtype": "noteOff",
        "noteNumber": 33,
        "velocity": 0
      },
      {
        "deltaTime": 36,
        "channel": 1,
        "type": "channel",
        "noteNumber": 59,
        "velocity": 23,
        "subtype": "noteOn"
      },
      {
        "deltaTime": 12,
        "channel": 1,
        "type": "channel",
        "noteNumber": 106,
        "velocity": 38,
        "subtype": "noteOn"
      },
      {
        "deltaTime": 12,
        "channel": 1,
        "type": "channel",
        "subtype": "noteOff",
        "noteNumber": 59,
        "velocity": 0
      },
      {
        "deltaTime": 43,
        "channel": 1,
        "type": "channel",
        "noteNumber": 91,
        "velocity": 50,
        "subtype": "noteOn"
      },
      {
        "deltaTime": 3,
        "channel": 1,
        "type": "channel",
        "subtype": "noteOff",
        "noteNumber": 106,
        "velocity": 0
      },
      {
        "deltaTime": 74,
        "channel": 1,
        "type": "channel",
        "subtype": "noteOff",
        "noteNumber": 91,
        "velocity": 0
      },
      {
        "deltaTime": 5,
        "channel": 1,
        "type": "channel",
        "noteNumber": 90,
        "velocity": 42,
        "subtype": "noteOn"
      },
      {
        "deltaTime": 22,
        "channel": 1,
        "type": "channel",
        "subtype": "noteOff",
        "noteNumber": 90,
        "velocity": 0
      },
      {
        "deltaTime": 31,
        "channel": 1,
        "type": "channel",
        "noteNumber": 35,
        "velocity": 49,
        "subtype": "noteOn"
      },
      {
        "deltaTime": 237,
        "channel": 1,
        "type": "channel",
        "subtype": "noteOff",
        "noteNumber": 35,
        "velocity": 0
      },
      {
        "deltaTime": 75,
        "channel": 1,
        "type": "channel",
        "noteNumber": 66,
        "velocity": 32,
        "subtype": "noteOn"
      },
      {
        "deltaTime": 86,
        "channel": 1,
        "type": "channel",
        "noteNumber": 62,
        "velocity": 31,
        "subtype": "noteOn"
      },
      {
        "deltaTime": 3,
        "channel": 1,
        "type": "channel",
        "subtype": "noteOff",
        "noteNumber": 66,
        "velocity": 0
      },
      {
        "deltaTime": 21,
        "channel": 1,
        "type": "channel",
        "noteNumber": 36,
        "velocity": 28,
        "subtype": "noteOn"
      },
      {
        "deltaTime": 3,
        "channel": 1,
        "type": "channel",
        "subtype": "noteOff",
        "noteNumber": 62,
        "velocity": 0
      },
      {
        "deltaTime": 9,
        "channel": 1,
        "type": "channel",
        "subtype": "noteOff",
        "noteNumber": 36,
        "velocity": 0
      },
      {
        "deltaTime": 15,
        "channel": 1,
        "type": "channel",
        "noteNumber": 106,
        "velocity": 48,
        "subtype": "noteOn"
      },
      {
        "deltaTime": 55,
        "channel": 1,
        "type": "channel",
        "subtype": "noteOff",
        "noteNumber": 106,
        "velocity": 0
      },
      {
        "deltaTime": 43,
        "channel": 1,
        "type": "channel",
        "noteNumber": 106,
        "velocity": 37,
        "subtype": "noteOn"
      },
      {
        "deltaTime": 46,
        "channel": 1,
        "type": "channel",
        "subtype": "noteOff",
        "noteNumber": 106,
        "velocity": 0
      },
      {
        "deltaTime": 4,
        "channel": 1,
        "type": "channel",
        "noteNumber": 50,
        "velocity": 27,
        "subtype": "noteOn"
      },
      {
        "deltaTime": 15,
        "channel": 1,
        "type": "channel",
        "subtype": "noteOff",
        "noteNumber": 50,
        "velocity": 0
      },
      {
        "deltaTime": 5,
        "channel": 1,
        "type": "channel",
        "noteNumber": 38,
        "velocity": 33,
        "subtype": "noteOn"
      },
      {
        "deltaTime": 24,
        "channel": 1,
        "type": "channel",
        "subtype": "noteOff",
        "noteNumber": 38,
        "velocity": 0
      },
      {
        "deltaTime": 33,
        "channel": 1,
        "type": "channel",
        "noteNumber": 59,
        "velocity": 46,
        "subtype": "noteOn"
      },
      {
        "deltaTime": 87,
        "channel": 1,
        "type": "channel",
        "noteNumber": 57,
        "velocity": 32,
        "subtype": "noteOn"
      },
      {
        "deltaTime": 31,
        "channel": 1,
        "type": "channel",
        "subtype": "noteOff",
        "noteNumber": 57,
        "velocity": 0
      },
      {
        "deltaTime": 9,
        "channel": 1,
        "type": "channel",
        "noteNumber": 57,
        "velocity": 34,
        "subtype": "noteOn"
      },
      {
        "deltaTime": 20,
        "channel": 1,
        "type": "channel",
        "noteNumber": 43,
        "velocity": 31,
        "subtype": "noteOn"
      },
      {
        "deltaTime": 40,
        "channel": 1,
        "type": "channel",
        "subtype": "noteOff",
        "noteNumber": 59,
        "velocity": 0
      },
      {
        "deltaTime": 3,
        "channel": 1,
        "type": "channel",
        "subtype": "noteOff",
        "noteNumber": 57,
        "velocity": 0
      },
      {
        "deltaTime": 7,
        "channel": 1,
        "type": "channel",
        "subtype": "noteOff",
        "noteNumber": 43,
        "velocity": 0
      },
      {
        "deltaTime": 10,
        "channel": 1,
        "type": "channel",
        "noteNumber": 59,
        "velocity": 32,
        "subtype": "noteOn"
      },
      {
        "deltaTime": 21,
        "channel": 1,
        "type": "channel",
        "subtype": "noteOff",
        "noteNumber": 59,
        "velocity": 0
      },
      {
        "deltaTime": 24,
        "channel": 1,
        "type": "channel",
        "noteNumber": 69,
        "velocity": 41,
        "subtype": "noteOn"
      },
      {
        "deltaTime": 41,
        "channel": 1,
        "type": "channel",
        "noteNumber": 52,
        "velocity": 37,
        "subtype": "noteOn"
      },
      {
        "deltaTime": 55,
        "channel": 1,
        "type": "channel",
        "subtype": "noteOff",
        "noteNumber": 52,
        "velocity": 0
      },
      {
        "deltaTime": 41,
        "channel": 1,
        "type": "channel",
        "subtype": "noteOff",
        "noteNumber": 69,
        "velocity": 0
      },
      {
        "deltaTime": 17,
        "channel": 1,
        "type": "channel",
        "noteNumber": 61,
        "velocity": 25,
        "subtype": "noteOn"
      },
      {
        "deltaTime": 21,
        "channel": 1,
        "type": "channel",
        "subtype": "noteOff",
        "noteNumber": 61,
        "velocity": 0
      },
      {
        "deltaTime": 12,
        "channel": 1,
        "type": "channel",
        "noteNumber": 33,
        "velocity": 29,
        "subtype": "noteOn"
      },
      {
        "deltaTime": 113,
        "channel": 1,
        "type": "channel",
        "noteNumber": 86,
        "velocity": 37,
        "subtype": "noteOn"
      },
      {
        "deltaTime": 3,
        "channel": 1,
        "type": "channel",
        "noteNumber": 78,
        "velocity": 12,
        "subtype": "noteOn"
      },
      {
        "deltaTime": 2,
        "channel": 1,
        "type": "channel",
        "subtype": "noteOff",
        "noteNumber": 33,
        "velocity": 0
      },
      {
        "deltaTime": 7,
        "channel": 1,
        "type": "channel",
        "subtype": "noteOff",
        "noteNumber": 78,
        "velocity": 0
      },
      {
        "deltaTime": 3,
        "channel": 1,
        "type": "channel",
        "noteNumber": 59,
        "velocity": 25,
        "subtype": "noteOn"
      },
      {
        "deltaTime": 21,
        "channel": 1,
        "type": "channel",
        "subtype": "noteOff",
        "noteNumber": 59,
        "velocity": 0
      },
      {
        "deltaTime": 10,
        "channel": 1,
        "type": "channel",
        "noteNumber": 36,
        "velocity": 23,
        "subtype": "noteOn"
      },
      {
        "deltaTime": 9,
        "channel": 1,
        "type": "channel",
        "subtype": "noteOff",
        "noteNumber": 36,
        "velocity": 0
      },
      {
        "deltaTime": 24,
        "channel": 1,
        "type": "channel",
        "subtype": "noteOff",
        "noteNumber": 86,
        "velocity": 0
      },
      {
        "deltaTime": 10,
        "channel": 1,
        "type": "channel",
        "noteNumber": 62,
        "velocity": 31,
        "subtype": "noteOn"
      },
      {
        "deltaTime": 38,
        "channel": 1,
        "type": "channel",
        "subtype": "noteOff",
        "noteNumber": 62,
        "velocity": 0
      },
      {
        "deltaTime": 51,
        "channel": 1,
        "type": "channel",
        "noteNumber": 54,
        "velocity": 39,
        "subtype": "noteOn"
      },
      {
        "deltaTime": 17,
        "channel": 1,
        "type": "channel",
        "subtype": "noteOff",
        "noteNumber": 54,
        "velocity": 0
      },
      {
        "deltaTime": 74,
        "channel": 1,
        "type": "channel",
        "noteNumber": 47,
        "velocity": 38,
        "subtype": "noteOn"
      },
      {
        "deltaTime": 12,
        "channel": 1,
        "type": "channel",
        "subtype": "noteOff",
        "noteNumber": 47,
        "velocity": 0
      },
      {
        "deltaTime": 41,
        "channel": 1,
        "type": "channel",
        "noteNumber": 83,
        "velocity": 33,
        "subtype": "noteOn"
      },
      {
        "deltaTime": 26,
        "channel": 1,
        "type": "channel",
        "subtype": "noteOff",
        "noteNumber": 83,
        "velocity": 0
      },
      {
        "deltaTime": 106,
        "channel": 1,
        "type": "channel",
        "noteNumber": 66,
        "velocity": 20,
        "subtype": "noteOn"
      },
      {
        "deltaTime": 19,
        "channel": 1,
        "type": "channel",
        "noteNumber": 36,
        "velocity": 30,
        "subtype": "noteOn"
      },
      {
        "deltaTime": 5,
        "channel": 1,
        "type": "channel",
        "subtype": "noteOff",
        "noteNumber": 66,
        "velocity": 0
      },
      {
        "deltaTime": 31,
        "channel": 1,
        "type": "channel",
        "subtype": "noteOff",
        "noteNumber": 36,
        "velocity": 0
      },
      {
        "deltaTime": 22,
        "channel": 1,
        "type": "channel",
        "noteNumber": 62,
        "velocity": 24,
        "subtype": "noteOn"
      },
      {
        "deltaTime": 88,
        "channel": 1,
        "type": "channel",
        "noteNumber": 57,
        "velocity": 24,
        "subtype": "noteOn"
      },
      {
        "deltaTime": 17,
        "channel": 1,
        "type": "channel",
        "subtype": "noteOff",
        "noteNumber": 62,
        "velocity": 0
      },
      {
        "deltaTime": 5,
        "channel": 1,
        "type": "channel",
        "subtype": "noteOff",
        "noteNumber": 57,
        "velocity": 0
      },
      {
        "deltaTime": 14,
        "channel": 1,
        "type": "channel",
        "noteNumber": 67,
        "velocity": 19,
        "subtype": "noteOn"
      },
      {
        "deltaTime": 34,
        "channel": 1,
        "type": "channel",
        "subtype": "noteOff",
        "noteNumber": 67,
        "velocity": 0
      },
      {
        "deltaTime": 38,
        "channel": 1,
        "type": "channel",
        "noteNumber": 59,
        "velocity": 43,
        "subtype": "noteOn"
      },
      {
        "deltaTime": 72,
        "channel": 1,
        "type": "channel",
        "subtype": "noteOff",
        "noteNumber": 59,
        "velocity": 0
      },
      {
        "deltaTime": 10,
        "channel": 1,
        "type": "channel",
        "noteNumber": 59,
        "velocity": 37,
        "subtype": "noteOn"
      },
      {
        "deltaTime": 74,
        "channel": 1,
        "type": "channel",
        "subtype": "noteOff",
        "noteNumber": 59,
        "velocity": 0
      },
      {
        "deltaTime": 77,
        "channel": 1,
        "type": "channel",
        "noteNumber": 90,
        "velocity": 49,
        "subtype": "noteOn"
      },
      {
        "deltaTime": 24,
        "channel": 1,
        "type": "channel",
        "subtype": "noteOff",
        "noteNumber": 90,
        "velocity": 0
      },
      {
        "deltaTime": 103,
        "channel": 1,
        "type": "channel",
        "noteNumber": 61,
        "velocity": 44,
        "subtype": "noteOn"
      },
      {
        "deltaTime": 29,
        "channel": 1,
        "type": "channel",
        "subtype": "noteOff",
        "noteNumber": 61,
        "velocity": 0
      },
      {
        "deltaTime": 19,
        "channel": 1,
        "type": "channel",
        "noteNumber": 59,
        "velocity": 21,
        "subtype": "noteOn"
      },
      {
        "deltaTime": 22,
        "channel": 1,
        "type": "channel",
        "subtype": "noteOff",
        "noteNumber": 59,
        "velocity": 0
      },
      {
        "deltaTime": 7,
        "channel": 1,
        "type": "channel",
        "noteNumber": 59,
        "velocity": 33,
        "subtype": "noteOn"
      },
      {
        "deltaTime": 115,
        "channel": 1,
        "type": "channel",
        "subtype": "noteOff",
        "noteNumber": 59,
        "velocity": 0
      },
      {
        "deltaTime": 60,
        "channel": 1,
        "type": "channel",
        "noteNumber": 61,
        "velocity": 22,
        "subtype": "noteOn"
      },
      {
        "deltaTime": 34,
        "channel": 1,
        "type": "channel",
        "subtype": "noteOff",
        "noteNumber": 61,
        "velocity": 0
      },
      {
        "deltaTime": 17,
        "channel": 1,
        "type": "channel",
        "noteNumber": 62,
        "velocity": 22,
        "subtype": "noteOn"
      },
      {
        "deltaTime": 9,
        "channel": 1,
        "type": "channel",
        "subtype": "noteOff",
        "noteNumber": 62,
        "velocity": 0
      },
      {
        "deltaTime": 22,
        "channel": 1,
        "type": "channel",
        "noteNumber": 106,
        "velocity": 25,
        "subtype": "noteOn"
      },
      {
        "deltaTime": 14,
        "channel": 1,
        "type": "channel",
        "subtype": "noteOff",
        "noteNumber": 106,
        "velocity": 0
      },
      {
        "deltaTime": 10,
        "channel": 1,
        "type": "channel",
        "noteNumber": 47,
        "velocity": 38,
        "subtype": "noteOn"
      },
      {
        "deltaTime": 38,
        "channel": 1,
        "type": "channel",
        "subtype": "noteOff",
        "noteNumber": 47,
        "velocity": 0
      },
      {
        "deltaTime": 120,
        "channel": 1,
        "type": "channel",
        "noteNumber": 59,
        "velocity": 44,
        "subtype": "noteOn"
      },
      {
        "deltaTime": 80,
        "channel": 1,
        "type": "channel",
        "noteNumber": 47,
        "velocity": 23,
        "subtype": "noteOn"
      },
      {
        "deltaTime": 76,
        "channel": 1,
        "type": "channel",
        "subtype": "noteOff",
        "noteNumber": 47,
        "velocity": 0
      },
      {
        "deltaTime": 39,
        "channel": 1,
        "type": "channel",
        "noteNumber": 99,
        "velocity": 12,
        "subtype": "noteOn"
      },
      {
        "deltaTime": 12,
        "channel": 1,
        "type": "channel",
        "subtype": "noteOff",
        "noteNumber": 59,
        "velocity": 0
      },
      {
        "deltaTime": 0,
        "channel": 1,
        "type": "channel",
        "noteNumber": 62,
        "velocity": 21,
        "subtype": "noteOn"
      },
      {
        "deltaTime": 26,
        "channel": 1,
        "type": "channel",
        "subtype": "noteOff",
        "noteNumber": 99,
        "velocity": 0
      },
      {
        "deltaTime": 79,
        "channel": 1,
        "type": "channel",
        "subtype": "noteOff",
        "noteNumber": 62,
        "velocity": 0
      },
      {
        "deltaTime": 15,
        "channel": 1,
        "type": "channel",
        "noteNumber": 55,
        "velocity": 42,
        "subtype": "noteOn"
      },
      {
        "deltaTime": 29,
        "channel": 1,
        "type": "channel",
        "subtype": "noteOff",
        "noteNumber": 55,
        "velocity": 0
      },
      {
        "deltaTime": 50,
        "channel": 1,
        "type": "channel",
        "noteNumber": 59,
        "velocity": 50,
        "subtype": "noteOn"
      },
      {
        "deltaTime": 103,
        "channel": 1,
        "type": "channel",
        "noteNumber": 69,
        "velocity": 39,
        "subtype": "noteOn"
      },
      {
        "deltaTime": 41,
        "channel": 1,
        "type": "channel",
        "noteNumber": 43,
        "velocity": 38,
        "subtype": "noteOn"
      },
      {
        "deltaTime": 43,
        "channel": 1,
        "type": "channel",
        "subtype": "noteOff",
        "noteNumber": 69,
        "velocity": 0
      },
      {
        "deltaTime": 3,
        "channel": 1,
        "type": "channel",
        "subtype": "noteOff",
        "noteNumber": 59,
        "velocity": 0
      },
      {
        "deltaTime": 12,
        "channel": 1,
        "type": "channel",
        "subtype": "noteOff",
        "noteNumber": 43,
        "velocity": 0
      },
      {
        "deltaTime": 2,
        "channel": 1,
        "type": "channel",
        "noteNumber": 59,
        "velocity": 33,
        "subtype": "noteOn"
      },
      {
        "deltaTime": 24,
        "channel": 1,
        "type": "channel",
        "subtype": "noteOff",
        "noteNumber": 59,
        "velocity": 0
      },
      {
        "deltaTime": 36,
        "channel": 1,
        "type": "channel",
        "noteNumber": 69,
        "velocity": 45,
        "subtype": "noteOn"
      },
      {
        "deltaTime": 108,
        "channel": 1,
        "type": "channel",
        "noteNumber": 61,
        "velocity": 35,
        "subtype": "noteOn"
      },
      {
        "deltaTime": 17,
        "channel": 1,
        "type": "channel",
        "subtype": "noteOff",
        "noteNumber": 69,
        "velocity": 0
      },
      {
        "deltaTime": 0,
        "channel": 1,
        "type": "channel",
        "subtype": "noteOff",
        "noteNumber": 61,
        "velocity": 0
      },
      {
        "deltaTime": 24,
        "channel": 1,
        "type": "channel",
        "noteNumber": 81,
        "velocity": 14,
        "subtype": "noteOn"
      },
      {
        "deltaTime": 19,
        "channel": 1,
        "type": "channel",
        "noteNumber": 59,
        "velocity": 25,
        "subtype": "noteOn"
      },
      {
        "deltaTime": 36,
        "channel": 1,
        "type": "channel",
        "subtype": "noteOff",
        "noteNumber": 81,
        "velocity": 0
      },
      {
        "deltaTime": 79,
        "channel": 1,
        "type": "channel",
        "subtype": "noteOff",
        "noteNumber": 59,
        "velocity": 0
      },
      {
        "deltaTime": 175,
        "channel": 1,
        "type": "channel",
        "noteNumber": 90,
        "velocity": 48,
        "subtype": "noteOn"
      },
      {
        "deltaTime": 17,
        "channel": 1,
        "type": "channel",
        "subtype": "noteOff",
        "noteNumber": 90,
        "velocity": 0
      },
      {
        "deltaTime": 286,
        "channel": 1,
        "type": "channel",
        "noteNumber": 36,
        "velocity": 31,
        "subtype": "noteOn"
      },
      {
        "deltaTime": 17,
        "channel": 1,
        "type": "channel",
        "subtype": "noteOff",
        "noteNumber": 36,
        "velocity": 0
      },
      {
        "deltaTime": 2,
        "channel": 1,
        "type": "channel",
        "noteNumber": 45,
        "velocity": 37,
        "subtype": "noteOn"
      },
      {
        "deltaTime": 17,
        "channel": 1,
        "type": "channel",
        "noteNumber": 106,
        "velocity": 31,
        "subtype": "noteOn"
      },
      {
        "deltaTime": 41,
        "channel": 1,
        "type": "channel",
        "subtype": "noteOff",
        "noteNumber": 106,
        "velocity": 0
      },
      {
        "deltaTime": 84,
        "channel": 1,
        "type": "channel",
        "noteNumber": 90,
        "velocity": 50,
        "subtype": "noteOn"
      },
      {
        "deltaTime": 4,
        "channel": 1,
        "type": "channel",
        "subtype": "noteOff",
        "noteNumber": 45,
        "velocity": 0
      },
      {
        "deltaTime": 161,
        "channel": 1,
        "type": "channel",
        "subtype": "noteOff",
        "noteNumber": 90,
        "velocity": 0
      },
      {
        "deltaTime": 39,
        "channel": 1,
        "type": "channel",
        "noteNumber": 69,
        "velocity": 36,
        "subtype": "noteOn"
      },
      {
        "deltaTime": 79,
        "channel": 1,
        "type": "channel",
        "subtype": "noteOff",
        "noteNumber": 69,
        "velocity": 0
      },
      {
        "deltaTime": 14,
        "channel": 1,
        "type": "channel",
        "noteNumber": 57,
        "velocity": 53,
        "subtype": "noteOn"
      },
      {
        "deltaTime": 63,
        "channel": 1,
        "type": "channel",
        "subtype": "noteOff",
        "noteNumber": 57,
        "velocity": 0
      },
      {
        "deltaTime": 33,
        "channel": 1,
        "type": "channel",
        "noteNumber": 33,
        "velocity": 46,
        "subtype": "noteOn"
      },
      {
        "deltaTime": 67,
        "channel": 1,
        "type": "channel",
        "subtype": "noteOff",
        "noteNumber": 33,
        "velocity": 0
      },
      {
        "deltaTime": 10,
        "channel": 1,
        "type": "channel",
        "noteNumber": 69,
        "velocity": 47,
        "subtype": "noteOn"
      },
      {
        "deltaTime": 12,
        "channel": 1,
        "type": "channel",
        "subtype": "noteOff",
        "noteNumber": 69,
        "velocity": 0
      },
      {
        "deltaTime": 17,
        "channel": 1,
        "type": "channel",
        "noteNumber": 59,
        "velocity": 10,
        "subtype": "noteOn"
      },
      {
        "deltaTime": 24,
        "channel": 1,
        "type": "channel",
        "subtype": "noteOff",
        "noteNumber": 59,
        "velocity": 0
      },
      {
        "deltaTime": 0,
        "channel": 1,
        "type": "channel",
        "noteNumber": 33,
        "velocity": 18,
        "subtype": "noteOn"
      },
      {
        "deltaTime": 14,
        "channel": 1,
        "type": "channel",
        "subtype": "noteOff",
        "noteNumber": 33,
        "velocity": 0
      },
      {
        "deltaTime": 15,
        "channel": 1,
        "type": "channel",
        "noteNumber": 33,
        "velocity": 28,
        "subtype": "noteOn"
      },
      {
        "deltaTime": 96,
        "channel": 1,
        "type": "channel",
        "subtype": "noteOff",
        "noteNumber": 33,
        "velocity": 0
      },
      {
        "deltaTime": 52,
        "channel": 1,
        "type": "channel",
        "noteNumber": 35,
        "velocity": 44,
        "subtype": "noteOn"
      },
      {
        "deltaTime": 236,
        "channel": 1,
        "type": "channel",
        "subtype": "noteOff",
        "noteNumber": 35,
        "velocity": 0
      },
      {
        "deltaTime": 158,
        "channel": 1,
        "type": "channel",
        "noteNumber": 83,
        "velocity": 28,
        "subtype": "noteOn"
      },
      {
        "deltaTime": 26,
        "channel": 1,
        "type": "channel",
        "noteNumber": 36,
        "velocity": 27,
        "subtype": "noteOn"
      },
      {
        "deltaTime": 3,
        "channel": 1,
        "type": "channel",
        "subtype": "noteOff",
        "noteNumber": 83,
        "velocity": 0
      },
      {
        "deltaTime": 9,
        "channel": 1,
        "type": "channel",
        "subtype": "noteOff",
        "noteNumber": 36,
        "velocity": 0
      },
      {
        "deltaTime": 34,
        "channel": 1,
        "type": "channel",
        "noteNumber": 50,
        "velocity": 43,
        "subtype": "noteOn"
      },
      {
        "deltaTime": 41,
        "channel": 1,
        "type": "channel",
        "subtype": "noteOff",
        "noteNumber": 50,
        "velocity": 0
      },
      {
        "deltaTime": 36,
        "channel": 1,
        "type": "channel",
        "noteNumber": 66,
        "velocity": 28,
        "subtype": "noteOn"
      },
      {
        "deltaTime": 45,
        "channel": 1,
        "type": "channel",
        "subtype": "noteOff",
        "noteNumber": 66,
        "velocity": 0
      },
      {
        "deltaTime": 87,
        "channel": 1,
        "type": "channel",
        "noteNumber": 59,
        "velocity": 44,
        "subtype": "noteOn"
      },
      {
        "deltaTime": 84,
        "channel": 1,
        "type": "channel",
        "noteNumber": 57,
        "velocity": 37,
        "subtype": "noteOn"
      },
      {
        "deltaTime": 31,
        "channel": 1,
        "type": "channel",
        "subtype": "noteOff",
        "noteNumber": 57,
        "velocity": 0
      },
      {
        "deltaTime": 74,
        "channel": 1,
        "type": "channel",
        "subtype": "noteOff",
        "noteNumber": 59,
        "velocity": 0
      },
      {
        "deltaTime": 17,
        "channel": 1,
        "type": "channel",
        "noteNumber": 59,
        "velocity": 33,
        "subtype": "noteOn"
      },
      {
        "deltaTime": 0,
        "channel": 1,
        "type": "channel",
        "noteNumber": 57,
        "velocity": 48,
        "subtype": "noteOn"
      },
      {
        "deltaTime": 22,
        "channel": 1,
        "type": "channel",
        "subtype": "noteOff",
        "noteNumber": 59,
        "velocity": 0
      },
      {
        "deltaTime": 38,
        "channel": 1,
        "type": "channel",
        "subtype": "noteOff",
        "noteNumber": 57,
        "velocity": 0
      },
      {
        "deltaTime": 137,
        "channel": 1,
        "type": "channel",
        "noteNumber": 59,
        "velocity": 19,
        "subtype": "noteOn"
      },
      {
        "deltaTime": 24,
        "channel": 1,
        "type": "channel",
        "subtype": "noteOff",
        "noteNumber": 59,
        "velocity": 0
      },
      {
        "deltaTime": 2,
        "channel": 1,
        "type": "channel",
        "noteNumber": 61,
        "velocity": 15,
        "subtype": "noteOn"
      },
      {
        "deltaTime": 8,
        "channel": 1,
        "type": "channel",
        "noteNumber": 33,
        "velocity": 27,
        "subtype": "noteOn"
      },
      {
        "deltaTime": 31,
        "channel": 1,
        "type": "channel",
        "subtype": "noteOff",
        "noteNumber": 61,
        "velocity": 0
      },
      {
        "deltaTime": 84,
        "channel": 1,
        "type": "channel",
        "noteNumber": 78,
        "velocity": 10,
        "subtype": "noteOn"
      },
      {
        "deltaTime": 2,
        "channel": 1,
        "type": "channel",
        "subtype": "noteOff",
        "noteNumber": 33,
        "velocity": 0
      },
      {
        "deltaTime": 12,
        "channel": 1,
        "type": "channel",
        "subtype": "noteOff",
        "noteNumber": 78,
        "velocity": 0
      },
      {
        "deltaTime": 0,
        "channel": 1,
        "type": "channel",
        "noteNumber": 59,
        "velocity": 19,
        "subtype": "noteOn"
      },
      {
        "deltaTime": 12,
        "channel": 1,
        "type": "channel",
        "subtype": "noteOff",
        "noteNumber": 59,
        "velocity": 0
      },
      {
        "deltaTime": 17,
        "channel": 1,
        "type": "channel",
        "noteNumber": 36,
        "velocity": 23,
        "subtype": "noteOn"
      },
      {
        "deltaTime": 12,
        "channel": 1,
        "type": "channel",
        "subtype": "noteOff",
        "noteNumber": 36,
        "velocity": 0
      },
      {
        "deltaTime": 65,
        "channel": 1,
        "type": "channel",
        "noteNumber": 85,
        "velocity": 26,
        "subtype": "noteOn"
      },
      {
        "deltaTime": 26,
        "channel": 1,
        "type": "channel",
        "subtype": "noteOff",
        "noteNumber": 85,
        "velocity": 0
      },
      {
        "deltaTime": 29,
        "channel": 1,
        "type": "channel",
        "noteNumber": 54,
        "velocity": 40,
        "subtype": "noteOn"
      },
      {
        "deltaTime": 17,
        "channel": 1,
        "type": "channel",
        "subtype": "noteOff",
        "noteNumber": 54,
        "velocity": 0
      },
      {
        "deltaTime": 36,
        "channel": 1,
        "type": "channel",
        "noteNumber": 47,
        "velocity": 35,
        "subtype": "noteOn"
      },
      {
        "deltaTime": 9,
        "channel": 1,
        "type": "channel",
        "subtype": "noteOff",
        "noteNumber": 47,
        "velocity": 0
      },
      {
        "deltaTime": 29,
        "channel": 1,
        "type": "channel",
        "noteNumber": 47,
        "velocity": 37,
        "subtype": "noteOn"
      },
      {
        "deltaTime": 12,
        "channel": 1,
        "type": "channel",
        "subtype": "noteOff",
        "noteNumber": 47,
        "velocity": 0
      },
      {
        "deltaTime": 79,
        "channel": 1,
        "type": "channel",
        "noteNumber": 62,
        "velocity": 44,
        "subtype": "noteOn"
      },
      {
        "deltaTime": 120,
        "channel": 1,
        "type": "channel",
        "subtype": "noteOff",
        "noteNumber": 62,
        "velocity": 0
      },
      {
        "deltaTime": 22,
        "channel": 1,
        "type": "channel",
        "noteNumber": 66,
        "velocity": 39,
        "subtype": "noteOn"
      },
      {
        "deltaTime": 142,
        "channel": 1,
        "type": "channel",
        "subtype": "noteOff",
        "noteNumber": 66,
        "velocity": 0
      },
      {
        "deltaTime": 86,
        "channel": 1,
        "type": "channel",
        "noteNumber": 59,
        "velocity": 43,
        "subtype": "noteOn"
      },
      {
        "deltaTime": 72,
        "channel": 1,
        "type": "channel",
        "subtype": "noteOff",
        "noteNumber": 59,
        "velocity": 0
      },
      {
        "deltaTime": 10,
        "channel": 1,
        "type": "channel",
        "noteNumber": 59,
        "velocity": 38,
        "subtype": "noteOn"
      },
      {
        "deltaTime": 4,
        "channel": 1,
        "type": "channel",
        "noteNumber": 57,
        "velocity": 31,
        "subtype": "noteOn"
      },
      {
        "deltaTime": 27,
        "channel": 1,
        "type": "channel",
        "subtype": "noteOff",
        "noteNumber": 57,
        "velocity": 0
      },
      {
        "deltaTime": 77,
        "channel": 1,
        "type": "channel",
        "subtype": "noteOff",
        "noteNumber": 59,
        "velocity": 0
      },
      {
        "deltaTime": 2,
        "channel": 1,
        "type": "channel",
        "noteNumber": 59,
        "velocity": 34,
        "subtype": "noteOn"
      },
      {
        "deltaTime": 12,
        "channel": 1,
        "type": "channel",
        "noteNumber": 57,
        "velocity": 50,
        "subtype": "noteOn"
      },
      {
        "deltaTime": 24,
        "channel": 1,
        "type": "channel",
        "subtype": "noteOff",
        "noteNumber": 59,
        "velocity": 0
      },
      {
        "deltaTime": 36,
        "channel": 1,
        "type": "channel",
        "subtype": "noteOff",
        "noteNumber": 57,
        "velocity": 0
      },
      {
        "deltaTime": 36,
        "channel": 1,
        "type": "channel",
        "noteNumber": 33,
        "velocity": 47,
        "subtype": "noteOn"
      },
      {
        "deltaTime": 67,
        "channel": 1,
        "type": "channel",
        "subtype": "noteOff",
        "noteNumber": 33,
        "velocity": 0
      },
      {
        "deltaTime": 3,
        "channel": 1,
        "type": "channel",
        "noteNumber": 99,
        "velocity": 41,
        "subtype": "noteOn"
      },
      {
        "deltaTime": 16,
        "channel": 1,
        "type": "channel",
        "subtype": "noteOff",
        "noteNumber": 99,
        "velocity": 0
      },
      {
        "deltaTime": 17,
        "channel": 1,
        "type": "channel",
        "noteNumber": 61,
        "velocity": 42,
        "subtype": "noteOn"
      },
      {
        "deltaTime": 48,
        "channel": 1,
        "type": "channel",
        "subtype": "noteOff",
        "noteNumber": 61,
        "velocity": 0
      },
      {
        "deltaTime": 101,
        "channel": 1,
        "type": "channel",
        "noteNumber": 99,
        "velocity": 34,
        "subtype": "noteOn"
      },
      {
        "deltaTime": 31,
        "channel": 1,
        "type": "channel",
        "subtype": "noteOff",
        "noteNumber": 99,
        "velocity": 0
      },
      {
        "deltaTime": 3,
        "channel": 1,
        "type": "channel",
        "noteNumber": 99,
        "velocity": 34,
        "subtype": "noteOn"
      },
      {
        "deltaTime": 72,
        "channel": 1,
        "type": "channel",
        "subtype": "noteOff",
        "noteNumber": 99,
        "velocity": 0
      },
      {
        "deltaTime": 2,
        "channel": 1,
        "type": "channel",
        "noteNumber": 99,
        "velocity": 34,
        "subtype": "noteOn"
      },
      {
        "deltaTime": 12,
        "channel": 1,
        "type": "channel",
        "subtype": "noteOff",
        "noteNumber": 99,
        "velocity": 0
      },
      {
        "deltaTime": 2,
        "channel": 1,
        "type": "channel",
        "noteNumber": 99,
        "velocity": 34,
        "subtype": "noteOn"
      },
      {
        "deltaTime": 15,
        "channel": 1,
        "type": "channel",
        "subtype": "noteOff",
        "noteNumber": 99,
        "velocity": 0
      },
      {
        "deltaTime": 48,
        "channel": 1,
        "type": "channel",
        "noteNumber": 99,
        "velocity": 32,
        "subtype": "noteOn"
      },
      {
        "deltaTime": 31,
        "channel": 1,
        "type": "channel",
        "subtype": "noteOff",
        "noteNumber": 99,
        "velocity": 0
      },
      {
        "deltaTime": 2,
        "channel": 1,
        "type": "channel",
        "noteNumber": 99,
        "velocity": 44,
        "subtype": "noteOn"
      },
      {
        "deltaTime": 111,
        "channel": 1,
        "type": "channel",
        "noteNumber": 59,
        "velocity": 42,
        "subtype": "noteOn"
      },
      {
        "deltaTime": 72,
        "channel": 1,
        "type": "channel",
        "noteNumber": 83,
        "velocity": 31,
        "subtype": "noteOn"
      },
      {
        "deltaTime": 12,
        "channel": 1,
        "type": "channel",
        "subtype": "noteOff",
        "noteNumber": 83,
        "velocity": 0
      },
      {
        "deltaTime": 41,
        "channel": 1,
        "type": "channel",
        "subtype": "noteOff",
        "noteNumber": 99,
        "velocity": 0
      },
      {
        "deltaTime": 43,
        "channel": 1,
        "type": "channel",
        "noteNumber": 99,
        "velocity": 30,
        "subtype": "noteOn"
      },
      {
        "deltaTime": 65,
        "channel": 1,
        "type": "channel",
        "subtype": "noteOff",
        "noteNumber": 99,
        "velocity": 0
      },
      {
        "deltaTime": 2,
        "channel": 1,
        "type": "channel",
        "subtype": "noteOff",
        "noteNumber": 59,
        "velocity": 0
      },
      {
        "deltaTime": 98,
        "channel": 1,
        "type": "channel",
        "noteNumber": 43,
        "velocity": 42,
        "subtype": "noteOn"
      },
      {
        "deltaTime": 104,
        "channel": 1,
        "type": "channel",
        "noteNumber": 74,
        "velocity": 37,
        "subtype": "noteOn"
      },
      {
        "deltaTime": 33,
        "channel": 1,
        "type": "channel",
        "subtype": "noteOff",
        "noteNumber": 74,
        "velocity": 0
      },
      {
        "deltaTime": 5,
        "channel": 1,
        "type": "channel",
        "noteNumber": 73,
        "velocity": 36,
        "subtype": "noteOn"
      },
      {
        "deltaTime": 36,
        "channel": 1,
        "type": "channel",
        "subtype": "noteOff",
        "noteNumber": 73,
        "velocity": 0
      },
      {
        "deltaTime": 38,
        "channel": 1,
        "type": "channel",
        "noteNumber": 88,
        "velocity": 36,
        "subtype": "noteOn"
      },
      {
        "deltaTime": 8,
        "channel": 1,
        "type": "channel",
        "noteNumber": 73,
        "velocity": 36,
        "subtype": "noteOn"
      },
      {
        "deltaTime": 33,
        "channel": 1,
        "type": "channel",
        "subtype": "noteOff",
        "noteNumber": 73,
        "velocity": 0
      },
      {
        "deltaTime": 7,
        "channel": 1,
        "type": "channel",
        "subtype": "noteOff",
        "noteNumber": 88,
        "velocity": 0
      },
      {
        "deltaTime": 3,
        "channel": 1,
        "type": "channel",
        "subtype": "noteOff",
        "noteNumber": 43,
        "velocity": 0
      },
      {
        "deltaTime": 50,
        "channel": 1,
        "type": "channel",
        "noteNumber": 45,
        "velocity": 27,
        "subtype": "noteOn"
      },
      {
        "deltaTime": 293,
        "channel": 1,
        "type": "channel",
        "subtype": "noteOff",
        "noteNumber": 45,
        "velocity": 0
      },
      {
        "deltaTime": 12,
        "channel": 1,
        "type": "channel",
        "noteNumber": 73,
        "velocity": 37,
        "subtype": "noteOn"
      },
      {
        "deltaTime": 36,
        "channel": 1,
        "type": "channel",
        "subtype": "noteOff",
        "noteNumber": 73,
        "velocity": 0
      },
      {
        "deltaTime": 204,
        "channel": 1,
        "type": "channel",
        "noteNumber": 76,
        "velocity": 29,
        "subtype": "noteOn"
      },
      {
        "deltaTime": 38,
        "channel": 1,
        "type": "channel",
        "subtype": "noteOff",
        "noteNumber": 76,
        "velocity": 0
      },
      {
        "deltaTime": 118,
        "channel": 1,
        "type": "channel",
        "noteNumber": 83,
        "velocity": 31,
        "subtype": "noteOn"
      },
      {
        "deltaTime": 31,
        "channel": 1,
        "type": "channel",
        "subtype": "noteOff",
        "noteNumber": 83,
        "velocity": 0
      },
      {
        "deltaTime": 65,
        "channel": 1,
        "type": "channel",
        "noteNumber": 45,
        "velocity": 24,
        "subtype": "noteOn"
      },
      {
        "deltaTime": 125,
        "channel": 1,
        "type": "channel",
        "subtype": "noteOff",
        "noteNumber": 45,
        "velocity": 0
      },
      {
        "deltaTime": 21,
        "channel": 1,
        "type": "channel",
        "noteNumber": 73,
        "velocity": 37,
        "subtype": "noteOn"
      },
      {
        "deltaTime": 39,
        "channel": 1,
        "type": "channel",
        "subtype": "noteOff",
        "noteNumber": 73,
        "velocity": 0
      },
      {
        "deltaTime": 5,
        "channel": 1,
        "type": "channel",
        "noteNumber": 74,
        "velocity": 30,
        "subtype": "noteOn"
      },
      {
        "deltaTime": 33,
        "channel": 1,
        "type": "channel",
        "subtype": "noteOff",
        "noteNumber": 74,
        "velocity": 0
      },
      {
        "deltaTime": 5,
        "channel": 1,
        "type": "channel",
        "noteNumber": 73,
        "velocity": 41,
        "subtype": "noteOn"
      },
      {
        "deltaTime": 36,
        "channel": 1,
        "type": "channel",
        "subtype": "noteOff",
        "noteNumber": 73,
        "velocity": 0
      },
      {
        "deltaTime": 5,
        "channel": 1,
        "type": "channel",
        "noteNumber": 74,
        "velocity": 39,
        "subtype": "noteOn"
      },
      {
        "deltaTime": 33,
        "channel": 1,
        "type": "channel",
        "subtype": "noteOff",
        "noteNumber": 74,
        "velocity": 0
      },
      {
        "deltaTime": 82,
        "channel": 1,
        "type": "channel",
        "noteNumber": 88,
        "velocity": 39,
        "subtype": "noteOn"
      },
      {
        "deltaTime": 41,
        "channel": 1,
        "type": "channel",
        "subtype": "noteOff",
        "noteNumber": 88,
        "velocity": 0
      },
      {
        "deltaTime": 50,
        "channel": 1,
        "type": "channel",
        "noteNumber": 52,
        "velocity": 33,
        "subtype": "noteOn"
      },
      {
        "deltaTime": 60,
        "channel": 1,
        "type": "channel",
        "subtype": "noteOff",
        "noteNumber": 52,
        "velocity": 0
      },
      {
        "deltaTime": 53,
        "channel": 1,
        "type": "channel",
        "noteNumber": 76,
        "velocity": 28,
        "subtype": "noteOn"
      },
      {
        "deltaTime": 41,
        "channel": 1,
        "type": "channel",
        "subtype": "noteOff",
        "noteNumber": 76,
        "velocity": 0
      },
      {
        "deltaTime": 38,
        "channel": 1,
        "type": "channel",
        "noteNumber": 74,
        "velocity": 32,
        "subtype": "noteOn"
      },
      {
        "deltaTime": 7,
        "channel": 1,
        "type": "channel",
        "noteNumber": 76,
        "velocity": 37,
        "subtype": "noteOn"
      },
      {
        "deltaTime": 36,
        "channel": 1,
        "type": "channel",
        "subtype": "noteOff",
        "noteNumber": 74,
        "velocity": 0
      },
      {
        "deltaTime": 51,
        "channel": 1,
        "type": "channel",
        "subtype": "noteOff",
        "noteNumber": 76,
        "velocity": 0
      },
      {
        "deltaTime": 29,
        "channel": 1,
        "type": "channel",
        "noteNumber": 76,
        "velocity": 19,
        "subtype": "noteOn"
      },
      {
        "deltaTime": 12,
        "channel": 1,
        "type": "channel",
        "noteNumber": 47,
        "velocity": 21,
        "subtype": "noteOn"
      },
      {
        "deltaTime": 2,
        "channel": 1,
        "type": "channel",
        "subtype": "noteOff",
        "noteNumber": 76,
        "velocity": 0
      },
      {
        "deltaTime": 82,
        "channel": 1,
        "type": "channel",
        "subtype": "noteOff",
        "noteNumber": 47,
        "velocity": 0
      },
      {
        "deltaTime": 16,
        "channel": 1,
        "type": "channel",
        "noteNumber": 66,
        "velocity": 10,
        "subtype": "noteOn"
      },
      {
        "deltaTime": 104,
        "channel": 1,
        "type": "channel",
        "subtype": "noteOff",
        "noteNumber": 66,
        "velocity": 0
      },
      {
        "deltaTime": 19,
        "channel": 1,
        "type": "channel",
        "noteNumber": 66,
        "velocity": 31,
        "subtype": "noteOn"
      },
      {
        "deltaTime": 161,
        "channel": 1,
        "type": "channel",
        "subtype": "noteOff",
        "noteNumber": 66,
        "velocity": 0
      },
      {
        "deltaTime": 0,
        "channel": 1,
        "type": "channel",
        "noteNumber": 76,
        "velocity": 25,
        "subtype": "noteOn"
      },
      {
        "deltaTime": 62,
        "channel": 1,
        "type": "channel",
        "subtype": "noteOff",
        "noteNumber": 76,
        "velocity": 0
      },
      {
        "deltaTime": 101,
        "channel": 1,
        "type": "channel",
        "noteNumber": 73,
        "velocity": 38,
        "subtype": "noteOn"
      },
      {
        "deltaTime": 60,
        "channel": 1,
        "type": "channel",
        "subtype": "noteOff",
        "noteNumber": 73,
        "velocity": 0
      },
      {
        "deltaTime": 2,
        "channel": 1,
        "type": "channel",
        "noteNumber": 73,
        "velocity": 40,
        "subtype": "noteOn"
      },
      {
        "deltaTime": 55,
        "channel": 1,
        "type": "channel",
        "subtype": "noteOff",
        "noteNumber": 73,
        "velocity": 0
      },
      {
        "deltaTime": 80,
        "channel": 1,
        "type": "channel",
        "noteNumber": 74,
        "velocity": 37,
        "subtype": "noteOn"
      },
      {
        "deltaTime": 38,
        "channel": 1,
        "type": "channel",
        "subtype": "noteOff",
        "noteNumber": 74,
        "velocity": 0
      },
      {
        "deltaTime": 5,
        "channel": 1,
        "type": "channel",
        "noteNumber": 73,
        "velocity": 27,
        "subtype": "noteOn"
      },
      {
        "deltaTime": 33,
        "channel": 1,
        "type": "channel",
        "subtype": "noteOff",
        "noteNumber": 73,
        "velocity": 0
      },
      {
        "deltaTime": 8,
        "channel": 1,
        "type": "channel",
        "noteNumber": 74,
        "velocity": 31,
        "subtype": "noteOn"
      },
      {
        "deltaTime": 21,
        "channel": 1,
        "type": "channel",
        "subtype": "noteOff",
        "noteNumber": 74,
        "velocity": 0
      },
      {
        "deltaTime": 17,
        "channel": 1,
        "type": "channel",
        "noteNumber": 73,
        "velocity": 38,
        "subtype": "noteOn"
      },
      {
        "deltaTime": 36,
        "channel": 1,
        "type": "channel",
        "subtype": "noteOff",
        "noteNumber": 73,
        "velocity": 0
      },
      {
        "deltaTime": 46,
        "channel": 1,
        "type": "channel",
        "noteNumber": 73,
        "velocity": 37,
        "subtype": "noteOn"
      },
      {
        "deltaTime": 36,
        "channel": 1,
        "type": "channel",
        "subtype": "noteOff",
        "noteNumber": 73,
        "velocity": 0
      },
      {
        "deltaTime": 4,
        "channel": 1,
        "type": "channel",
        "noteNumber": 74,
        "velocity": 38,
        "subtype": "noteOn"
      },
      {
        "deltaTime": 53,
        "channel": 1,
        "type": "channel",
        "subtype": "noteOff",
        "noteNumber": 74,
        "velocity": 0
      },
      {
        "deltaTime": 24,
        "channel": 1,
        "type": "channel",
        "noteNumber": 76,
        "velocity": 21,
        "subtype": "noteOn"
      },
      {
        "deltaTime": 123,
        "channel": 1,
        "type": "channel",
        "subtype": "noteOff",
        "noteNumber": 76,
        "velocity": 0
      },
      {
        "deltaTime": 36,
        "channel": 1,
        "type": "channel",
        "noteNumber": 85,
        "velocity": 10,
        "subtype": "noteOn"
      },
      {
        "deltaTime": 31,
        "channel": 1,
        "type": "channel",
        "subtype": "noteOff",
        "noteNumber": 85,
        "velocity": 0
      },
      {
        "deltaTime": 24,
        "channel": 1,
        "type": "channel",
        "noteNumber": 47,
        "velocity": 24,
        "subtype": "noteOn"
      },
      {
        "deltaTime": 146,
        "channel": 1,
        "type": "channel",
        "subtype": "noteOff",
        "noteNumber": 47,
        "velocity": 0
      },
      {
        "deltaTime": 36,
        "channel": 1,
        "type": "channel",
        "noteNumber": 66,
        "velocity": 42,
        "subtype": "noteOn"
      },
      {
        "deltaTime": 41,
        "channel": 1,
        "type": "channel",
        "subtype": "noteOff",
        "noteNumber": 66,
        "velocity": 0
      },
      {
        "deltaTime": 55,
        "channel": 1,
        "type": "channel",
        "noteNumber": 66,
        "velocity": 36,
        "subtype": "noteOn"
      },
      {
        "deltaTime": 15,
        "channel": 1,
        "type": "channel",
        "subtype": "noteOff",
        "noteNumber": 66,
        "velocity": 0
      },
      {
        "deltaTime": 2,
        "channel": 1,
        "type": "channel",
        "noteNumber": 66,
        "velocity": 43,
        "subtype": "noteOn"
      },
      {
        "deltaTime": 77,
        "channel": 1,
        "type": "channel",
        "noteNumber": 78,
        "velocity": 14,
        "subtype": "noteOn"
      },
      {
        "deltaTime": 50,
        "channel": 1,
        "type": "channel",
        "subtype": "noteOff",
        "noteNumber": 66,
        "velocity": 0
      },
      {
        "deltaTime": 5,
        "channel": 1,
        "type": "channel",
        "noteNumber": 71,
        "velocity": 32,
        "subtype": "noteOn"
      },
      {
        "deltaTime": 7,
        "channel": 1,
        "type": "channel",
        "noteNumber": 66,
        "velocity": 37,
        "subtype": "noteOn"
      },
      {
        "deltaTime": 3,
        "channel": 1,
        "type": "channel",
        "subtype": "noteOff",
        "noteNumber": 78,
        "velocity": 0
      },
      {
        "deltaTime": 31,
        "channel": 1,
        "type": "channel",
        "subtype": "noteOff",
        "noteNumber": 71,
        "velocity": 0
      },
      {
        "deltaTime": 156,
        "channel": 1,
        "type": "channel",
        "noteNumber": 86,
        "velocity": 22,
        "subtype": "noteOn"
      },
      {
        "deltaTime": 24,
        "channel": 1,
        "type": "channel",
        "subtype": "noteOff",
        "noteNumber": 86,
        "velocity": 0
      },
      {
        "deltaTime": 101,
        "channel": 1,
        "type": "channel",
        "subtype": "noteOff",
        "noteNumber": 66,
        "velocity": 0
      },
      {
        "deltaTime": 120,
        "channel": 1,
        "type": "channel",
        "noteNumber": 74,
        "velocity": 19,
        "subtype": "noteOn"
      },
      {
        "deltaTime": 50,
        "channel": 1,
        "type": "channel",
        "subtype": "noteOff",
        "noteNumber": 74,
        "velocity": 0
      },
      {
        "deltaTime": 142,
        "channel": 1,
        "type": "channel",
        "noteNumber": 88,
        "velocity": 38,
        "subtype": "noteOn"
      },
      {
        "deltaTime": 76,
        "channel": 1,
        "type": "channel",
        "subtype": "noteOff",
        "noteNumber": 88,
        "velocity": 0
      },
      {
        "deltaTime": 48,
        "channel": 1,
        "type": "channel",
        "noteNumber": 73,
        "velocity": 27,
        "subtype": "noteOn"
      },
      {
        "deltaTime": 41,
        "channel": 1,
        "type": "channel",
        "subtype": "noteOff",
        "noteNumber": 73,
        "velocity": 0
      },
      {
        "deltaTime": 53,
        "channel": 1,
        "type": "channel",
        "noteNumber": 47,
        "velocity": 37,
        "subtype": "noteOn"
      },
      {
        "deltaTime": 307,
        "channel": 1,
        "type": "channel",
        "noteNumber": 59,
        "velocity": 23,
        "subtype": "noteOn"
      },
      {
        "deltaTime": 79,
        "channel": 1,
        "type": "channel",
        "subtype": "noteOff",
        "noteNumber": 59,
        "velocity": 0
      },
      {
        "deltaTime": 106,
        "channel": 1,
        "type": "channel",
        "noteNumber": 59,
        "velocity": 21,
        "subtype": "noteOn"
      },
      {
        "deltaTime": 82,
        "channel": 1,
        "type": "channel",
        "subtype": "noteOff",
        "noteNumber": 47,
        "velocity": 0
      },
      {
        "deltaTime": 98,
        "channel": 1,
        "type": "channel",
        "subtype": "noteOff",
        "noteNumber": 59,
        "velocity": 0
      },
      {
        "deltaTime": 132,
        "channel": 1,
        "type": "channel",
        "noteNumber": 105,
        "velocity": 26,
        "subtype": "noteOn"
      },
      {
        "deltaTime": 50,
        "channel": 1,
        "type": "channel",
        "subtype": "noteOff",
        "noteNumber": 105,
        "velocity": 0
      },
      {
        "deltaTime": 20,
        "channel": 1,
        "type": "channel",
        "noteNumber": 86,
        "velocity": 21,
        "subtype": "noteOn"
      },
      {
        "deltaTime": 62,
        "channel": 1,
        "type": "channel",
        "subtype": "noteOff",
        "noteNumber": 86,
        "velocity": 0
      },
      {
        "deltaTime": 46,
        "channel": 1,
        "type": "channel",
        "noteNumber": 98,
        "velocity": 29,
        "subtype": "noteOn"
      },
      {
        "deltaTime": 9,
        "channel": 1,
        "type": "channel",
        "subtype": "noteOff",
        "noteNumber": 98,
        "velocity": 0
      },
      {
        "deltaTime": 0,
        "channel": 1,
        "type": "channel",
        "noteNumber": 34,
        "velocity": 35,
        "subtype": "noteOn"
      },
      {
        "deltaTime": 10,
        "channel": 1,
        "type": "channel",
        "subtype": "noteOff",
        "noteNumber": 34,
        "velocity": 0
      },
      {
        "deltaTime": 9,
        "channel": 1,
        "type": "channel",
        "noteNumber": 86,
        "velocity": 36,
        "subtype": "noteOn"
      },
      {
        "deltaTime": 27,
        "channel": 1,
        "type": "channel",
        "subtype": "noteOff",
        "noteNumber": 86,
        "velocity": 0
      },
      {
        "deltaTime": 12,
        "channel": 1,
        "type": "channel",
        "noteNumber": 32,
        "velocity": 49,
        "subtype": "noteOn"
      },
      {
        "deltaTime": 21,
        "channel": 1,
        "type": "channel",
        "subtype": "noteOff",
        "noteNumber": 32,
        "velocity": 0
      },
      {
        "deltaTime": 46,
        "channel": 1,
        "type": "channel",
        "noteNumber": 62,
        "velocity": 60,
        "subtype": "noteOn"
      },
      {
        "deltaTime": 24,
        "channel": 1,
        "type": "channel",
        "noteNumber": 86,
        "velocity": 57,
        "subtype": "noteOn"
      },
      {
        "deltaTime": 19,
        "channel": 1,
        "type": "channel",
        "subtype": "noteOff",
        "noteNumber": 86,
        "velocity": 0
      },
      {
        "deltaTime": 48,
        "channel": 1,
        "type": "channel",
        "noteNumber": 37,
        "velocity": 45,
        "subtype": "noteOn"
      },
      {
        "deltaTime": 48,
        "channel": 1,
        "type": "channel",
        "subtype": "noteOff",
        "noteNumber": 37,
        "velocity": 0
      },
      {
        "deltaTime": 36,
        "channel": 1,
        "type": "channel",
        "noteNumber": 88,
        "velocity": 58,
        "subtype": "noteOn"
      },
      {
        "deltaTime": 7,
        "channel": 1,
        "type": "channel",
        "subtype": "noteOff",
        "noteNumber": 62,
        "velocity": 0
      },
      {
        "deltaTime": 72,
        "channel": 1,
        "type": "channel",
        "noteNumber": 100,
        "velocity": 47,
        "subtype": "noteOn"
      },
      {
        "deltaTime": 15,
        "channel": 1,
        "type": "channel",
        "subtype": "noteOff",
        "noteNumber": 100,
        "velocity": 0
      },
      {
        "deltaTime": 14,
        "channel": 1,
        "type": "channel",
        "noteNumber": 100,
        "velocity": 46,
        "subtype": "noteOn"
      },
      {
        "deltaTime": 10,
        "channel": 1,
        "type": "channel",
        "subtype": "noteOff",
        "noteNumber": 100,
        "velocity": 0
      },
      {
        "deltaTime": 0,
        "channel": 1,
        "type": "channel",
        "noteNumber": 93,
        "velocity": 53,
        "subtype": "noteOn"
      },
      {
        "deltaTime": 17,
        "channel": 1,
        "type": "channel",
        "subtype": "noteOff",
        "noteNumber": 93,
        "velocity": 0
      },
      {
        "deltaTime": 7,
        "channel": 1,
        "type": "channel",
        "subtype": "noteOff",
        "noteNumber": 88,
        "velocity": 0
      },
      {
        "deltaTime": 7,
        "channel": 1,
        "type": "channel",
        "noteNumber": 64,
        "velocity": 47,
        "subtype": "noteOn"
      },
      {
        "deltaTime": 7,
        "channel": 1,
        "type": "channel",
        "noteNumber": 100,
        "velocity": 46,
        "subtype": "noteOn"
      },
      {
        "deltaTime": 19,
        "channel": 1,
        "type": "channel",
        "subtype": "noteOff",
        "noteNumber": 100,
        "velocity": 0
      },
      {
        "deltaTime": 118,
        "channel": 1,
        "type": "channel",
        "subtype": "noteOff",
        "noteNumber": 64,
        "velocity": 0
      },
      {
        "deltaTime": 0,
        "channel": 1,
        "type": "channel",
        "noteNumber": 93,
        "velocity": 49,
        "subtype": "noteOn"
      },
      {
        "deltaTime": 106,
        "channel": 1,
        "type": "channel",
        "subtype": "noteOff",
        "noteNumber": 93,
        "velocity": 0
      },
      {
        "deltaTime": 36,
        "channel": 1,
        "type": "channel",
        "noteNumber": 101,
        "velocity": 56,
        "subtype": "noteOn"
      },
      {
        "deltaTime": 21,
        "channel": 1,
        "type": "channel",
        "subtype": "noteOff",
        "noteNumber": 101,
        "velocity": 0
      },
      {
        "deltaTime": 12,
        "channel": 1,
        "type": "channel",
        "noteNumber": 65,
        "velocity": 47,
        "subtype": "noteOn"
      },
      {
        "deltaTime": 7,
        "channel": 1,
        "type": "channel",
        "noteNumber": 101,
        "velocity": 40,
        "subtype": "noteOn"
      },
      {
        "deltaTime": 17,
        "channel": 1,
        "type": "channel",
        "subtype": "noteOff",
        "noteNumber": 65,
        "velocity": 0
      },
      {
        "deltaTime": 17,
        "channel": 1,
        "type": "channel",
        "subtype": "noteOff",
        "noteNumber": 101,
        "velocity": 0
      },
      {
        "deltaTime": 65,
        "channel": 1,
        "type": "channel",
        "noteNumber": 77,
        "velocity": 18,
        "subtype": "noteOn"
      },
      {
        "deltaTime": 14,
        "channel": 1,
        "type": "channel",
        "noteNumber": 96,
        "velocity": 17,
        "subtype": "noteOn"
      },
      {
        "deltaTime": 3,
        "channel": 1,
        "type": "channel",
        "subtype": "noteOff",
        "noteNumber": 77,
        "velocity": 0
      },
      {
        "deltaTime": 28,
        "channel": 1,
        "type": "channel",
        "subtype": "noteOff",
        "noteNumber": 96,
        "velocity": 0
      },
      {
        "deltaTime": 20,
        "channel": 1,
        "type": "channel",
        "noteNumber": 89,
        "velocity": 44,
        "subtype": "noteOn"
      },
      {
        "deltaTime": 50,
        "channel": 1,
        "type": "channel",
        "subtype": "noteOff",
        "noteNumber": 89,
        "velocity": 0
      },
      {
        "deltaTime": 2,
        "channel": 1,
        "type": "channel",
        "noteNumber": 86,
        "velocity": 47,
        "subtype": "noteOn"
      },
      {
        "deltaTime": 10,
        "channel": 1,
        "type": "channel",
        "noteNumber": 89,
        "velocity": 43,
        "subtype": "noteOn"
      },
      {
        "deltaTime": 67,
        "channel": 1,
        "type": "channel",
        "subtype": "noteOff",
        "noteNumber": 89,
        "velocity": 0
      },
      {
        "deltaTime": 55,
        "channel": 1,
        "type": "channel",
        "subtype": "noteOff",
        "noteNumber": 86,
        "velocity": 0
      },
      {
        "deltaTime": 3,
        "channel": 1,
        "type": "channel",
        "noteNumber": 100,
        "velocity": 44,
        "subtype": "noteOn"
      },
      {
        "deltaTime": 24,
        "channel": 1,
        "type": "channel",
        "subtype": "noteOff",
        "noteNumber": 100,
        "velocity": 0
      },
      {
        "deltaTime": 29,
        "channel": 1,
        "type": "channel",
        "noteNumber": 100,
        "velocity": 49,
        "subtype": "noteOn"
      },
      {
        "deltaTime": 40,
        "channel": 1,
        "type": "channel",
        "noteNumber": 93,
        "velocity": 49,
        "subtype": "noteOn"
      },
      {
        "deltaTime": 5,
        "channel": 1,
        "type": "channel",
        "subtype": "noteOff",
        "noteNumber": 100,
        "velocity": 0
      },
      {
        "deltaTime": 60,
        "channel": 1,
        "type": "channel",
        "subtype": "noteOff",
        "noteNumber": 93,
        "velocity": 0
      },
      {
        "deltaTime": 103,
        "channel": 1,
        "type": "channel",
        "noteNumber": 86,
        "velocity": 61,
        "subtype": "noteOn"
      },
      {
        "deltaTime": 12,
        "channel": 1,
        "type": "channel",
        "noteNumber": 62,
        "velocity": 60,
        "subtype": "noteOn"
      },
      {
        "deltaTime": 15,
        "channel": 1,
        "type": "channel",
        "subtype": "noteOff",
        "noteNumber": 86,
        "velocity": 0
      },
      {
        "deltaTime": 17,
        "channel": 1,
        "type": "channel",
        "noteNumber": 86,
        "velocity": 50,
        "subtype": "noteOn"
      },
      {
        "deltaTime": 16,
        "channel": 1,
        "type": "channel",
        "subtype": "noteOff",
        "noteNumber": 86,
        "velocity": 0
      },
      {
        "deltaTime": 63,
        "channel": 1,
        "type": "channel",
        "noteNumber": 98,
        "velocity": 31,
        "subtype": "noteOn"
      },
      {
        "deltaTime": 31,
        "channel": 1,
        "type": "channel",
        "subtype": "noteOff",
        "noteNumber": 98,
        "velocity": 0
      },
      {
        "deltaTime": 14,
        "channel": 1,
        "type": "channel",
        "subtype": "noteOff",
        "noteNumber": 62,
        "velocity": 0
      },
      {
        "deltaTime": 27,
        "channel": 1,
        "type": "channel",
        "noteNumber": 88,
        "velocity": 38,
        "subtype": "noteOn"
      },
      {
        "deltaTime": 24,
        "channel": 1,
        "type": "channel",
        "subtype": "noteOff",
        "noteNumber": 88,
        "velocity": 0
      },
      {
        "deltaTime": 2,
        "channel": 1,
        "type": "channel",
        "noteNumber": 88,
        "velocity": 57,
        "subtype": "noteOn"
      },
      {
        "deltaTime": 113,
        "channel": 1,
        "type": "channel",
        "subtype": "noteOff",
        "noteNumber": 88,
        "velocity": 0
      },
      {
        "deltaTime": 72,
        "channel": 1,
        "type": "channel",
        "noteNumber": 94,
        "velocity": 48,
        "subtype": "noteOn"
      },
      {
        "deltaTime": 77,
        "channel": 1,
        "type": "channel",
        "subtype": "noteOff",
        "noteNumber": 94,
        "velocity": 0
      },
      {
        "deltaTime": 33,
        "channel": 1,
        "type": "channel",
        "noteNumber": 38,
        "velocity": 67,
        "subtype": "noteOn"
      },
      {
        "deltaTime": 185,
        "channel": 1,
        "type": "channel",
        "noteNumber": 89,
        "velocity": 45,
        "subtype": "noteOn"
      },
      {
        "deltaTime": 22,
        "channel": 1,
        "type": "channel",
        "subtype": "noteOff",
        "noteNumber": 89,
        "velocity": 0
      },
      {
        "deltaTime": 5,
        "channel": 1,
        "type": "channel",
        "noteNumber": 77,
        "velocity": 42,
        "subtype": "noteOn"
      },
      {
        "deltaTime": 12,
        "channel": 1,
        "type": "channel",
        "subtype": "noteOff",
        "noteNumber": 77,
        "velocity": 0
      },
      {
        "deltaTime": 31,
        "channel": 1,
        "type": "channel",
        "noteNumber": 67,
        "velocity": 46,
        "subtype": "noteOn"
      },
      {
        "deltaTime": 12,
        "channel": 1,
        "type": "channel",
        "noteNumber": 96,
        "velocity": 40,
        "subtype": "noteOn"
      },
      {
        "deltaTime": 31,
        "channel": 1,
        "type": "channel",
        "subtype": "noteOff",
        "noteNumber": 96,
        "velocity": 0
      },
      {
        "deltaTime": 36,
        "channel": 1,
        "type": "channel",
        "subtype": "noteOff",
        "noteNumber": 38,
        "velocity": 0
      },
      {
        "deltaTime": 31,
        "channel": 1,
        "type": "channel",
        "subtype": "noteOff",
        "noteNumber": 67,
        "velocity": 0
      },
      {
        "deltaTime": 5,
        "channel": 1,
        "type": "channel",
        "noteNumber": 86,
        "velocity": 45,
        "subtype": "noteOn"
      },
      {
        "deltaTime": 10,
        "channel": 1,
        "type": "channel",
        "noteNumber": 89,
        "velocity": 44,
        "subtype": "noteOn"
      },
      {
        "deltaTime": 64,
        "channel": 1,
        "type": "channel",
        "subtype": "noteOff",
        "noteNumber": 89,
        "velocity": 0
      },
      {
        "deltaTime": 5,
        "channel": 1,
        "type": "channel",
        "subtype": "noteOff",
        "noteNumber": 86,
        "velocity": 0
      },
      {
        "deltaTime": 113,
        "channel": 1,
        "type": "channel",
        "noteNumber": 100,
        "velocity": 42,
        "subtype": "noteOn"
      },
      {
        "deltaTime": 10,
        "channel": 1,
        "type": "channel",
        "subtype": "noteOff",
        "noteNumber": 100,
        "velocity": 0
      },
      {
        "deltaTime": 38,
        "channel": 1,
        "type": "channel",
        "noteNumber": 93,
        "velocity": 41,
        "subtype": "noteOn"
      },
      {
        "deltaTime": 50,
        "channel": 1,
        "type": "channel",
        "subtype": "noteOff",
        "noteNumber": 93,
        "velocity": 0
      },
      {
        "deltaTime": 17,
        "channel": 1,
        "type": "channel",
        "noteNumber": 86,
        "velocity": 38,
        "subtype": "noteOn"
      },
      {
        "deltaTime": 10,
        "channel": 1,
        "type": "channel",
        "subtype": "noteOff",
        "noteNumber": 86,
        "velocity": 0
      },
      {
        "deltaTime": 93,
        "channel": 1,
        "type": "channel",
        "noteNumber": 86,
        "velocity": 53,
        "subtype": "noteOn"
      },
      {
        "deltaTime": 12,
        "channel": 1,
        "type": "channel",
        "subtype": "noteOff",
        "noteNumber": 86,
        "velocity": 0
      },
      {
        "deltaTime": 15,
        "channel": 1,
        "type": "channel",
        "noteNumber": 86,
        "velocity": 53,
        "subtype": "noteOn"
      },
      {
        "deltaTime": 19,
        "channel": 1,
        "type": "channel",
        "subtype": "noteOff",
        "noteNumber": 86,
        "velocity": 0
      },
      {
        "deltaTime": 22,
        "channel": 1,
        "type": "channel",
        "noteNumber": 98,
        "velocity": 40,
        "subtype": "noteOn"
      },
      {
        "deltaTime": 16,
        "channel": 1,
        "type": "channel",
        "subtype": "noteOff",
        "noteNumber": 98,
        "velocity": 0
      },
      {
        "deltaTime": 46,
        "channel": 1,
        "type": "channel",
        "noteNumber": 74,
        "velocity": 30,
        "subtype": "noteOn"
      },
      {
        "deltaTime": 10,
        "channel": 1,
        "type": "channel",
        "subtype": "noteOff",
        "noteNumber": 74,
        "velocity": 0
      },
      {
        "deltaTime": 12,
        "channel": 1,
        "type": "channel",
        "noteNumber": 91,
        "velocity": 61,
        "subtype": "noteOn"
      },
      {
        "deltaTime": 16,
        "channel": 1,
        "type": "channel",
        "noteNumber": 48,
        "velocity": 59,
        "subtype": "noteOn"
      },
      {
        "deltaTime": 104,
        "channel": 1,
        "type": "channel",
        "subtype": "noteOff",
        "noteNumber": 48,
        "velocity": 0
      },
      {
        "deltaTime": 33,
        "channel": 1,
        "type": "channel",
        "subtype": "noteOff",
        "noteNumber": 91,
        "velocity": 0
      },
      {
        "deltaTime": 209,
        "channel": 1,
        "type": "channel",
        "noteNumber": 38,
        "velocity": 53,
        "subtype": "noteOn"
      },
      {
        "deltaTime": 91,
        "channel": 1,
        "type": "channel",
        "noteNumber": 77,
        "velocity": 48,
        "subtype": "noteOn"
      },
      {
        "deltaTime": 53,
        "channel": 1,
        "type": "channel",
        "subtype": "noteOff",
        "noteNumber": 77,
        "velocity": 0
      },
      {
        "deltaTime": 17,
        "channel": 1,
        "type": "channel",
        "noteNumber": 64,
        "velocity": 43,
        "subtype": "noteOn"
      },
      {
        "deltaTime": 36,
        "channel": 1,
        "type": "channel",
        "noteNumber": 84,
        "velocity": 39,
        "subtype": "noteOn"
      },
      {
        "deltaTime": 17,
        "channel": 1,
        "type": "channel",
        "subtype": "noteOff",
        "noteNumber": 64,
        "velocity": 0
      },
      {
        "deltaTime": 0,
        "channel": 1,
        "type": "channel",
        "noteNumber": 96,
        "velocity": 32,
        "subtype": "noteOn"
      },
      {
        "deltaTime": 4,
        "channel": 1,
        "type": "channel",
        "subtype": "noteOff",
        "noteNumber": 84,
        "velocity": 0
      },
      {
        "deltaTime": 22,
        "channel": 1,
        "type": "channel",
        "noteNumber": 67,
        "velocity": 41,
        "subtype": "noteOn"
      },
      {
        "deltaTime": 2,
        "channel": 1,
        "type": "channel",
        "subtype": "noteOff",
        "noteNumber": 38,
        "velocity": 0
      },
      {
        "deltaTime": 5,
        "channel": 1,
        "type": "channel",
        "subtype": "noteOff",
        "noteNumber": 96,
        "velocity": 0
      },
      {
        "deltaTime": 29,
        "channel": 1,
        "type": "channel",
        "noteNumber": 86,
        "velocity": 48,
        "subtype": "noteOn"
      },
      {
        "deltaTime": 38,
        "channel": 1,
        "type": "channel",
        "subtype": "noteOff",
        "noteNumber": 67,
        "velocity": 0
      },
      {
        "deltaTime": 113,
        "channel": 1,
        "type": "channel",
        "subtype": "noteOff",
        "noteNumber": 86,
        "velocity": 0
      },
      {
        "deltaTime": 46,
        "channel": 1,
        "type": "channel",
        "noteNumber": 100,
        "velocity": 39,
        "subtype": "noteOn"
      },
      {
        "deltaTime": 7,
        "channel": 1,
        "type": "channel",
        "noteNumber": 36,
        "velocity": 42,
        "subtype": "noteOn"
      },
      {
        "deltaTime": 26,
        "channel": 1,
        "type": "channel",
        "subtype": "noteOff",
        "noteNumber": 100,
        "velocity": 0
      },
      {
        "deltaTime": 96,
        "channel": 1,
        "type": "channel",
        "subtype": "noteOff",
        "noteNumber": 36,
        "velocity": 0
      },
      {
        "deltaTime": 89,
        "channel": 1,
        "type": "channel",
        "noteNumber": 98,
        "velocity": 58,
        "subtype": "noteOn"
      },
      {
        "deltaTime": 72,
        "channel": 1,
        "type": "channel",
        "subtype": "noteOff",
        "noteNumber": 98,
        "velocity": 0
      },
      {
        "deltaTime": 0,
        "channel": 1,
        "type": "channel",
        "noteNumber": 62,
        "velocity": 53,
        "subtype": "noteOn"
      },
      {
        "deltaTime": 31,
        "channel": 1,
        "type": "channel",
        "noteNumber": 86,
        "velocity": 51,
        "subtype": "noteOn"
      },
      {
        "deltaTime": 15,
        "channel": 1,
        "type": "channel",
        "subtype": "noteOff",
        "noteNumber": 86,
        "velocity": 0
      },
      {
        "deltaTime": 24,
        "channel": 1,
        "type": "channel",
        "noteNumber": 94,
        "velocity": 48,
        "subtype": "noteOn"
      },
      {
        "deltaTime": 77,
        "channel": 1,
        "type": "channel",
        "subtype": "noteOff",
        "noteNumber": 94,
        "velocity": 0
      },
      {
        "deltaTime": 4,
        "channel": 1,
        "type": "channel",
        "noteNumber": 93,
        "velocity": 48,
        "subtype": "noteOn"
      },
      {
        "deltaTime": 32,
        "channel": 1,
        "type": "channel",
        "subtype": "noteOff",
        "noteNumber": 62,
        "velocity": 0
      },
      {
        "deltaTime": 21,
        "channel": 1,
        "type": "channel",
        "subtype": "noteOff",
        "noteNumber": 93,
        "velocity": 0
      },
      {
        "deltaTime": 77,
        "channel": 1,
        "type": "channel",
        "noteNumber": 95,
        "velocity": 57,
        "subtype": "noteOn"
      },
      {
        "deltaTime": 98,
        "channel": 1,
        "type": "channel",
        "subtype": "noteOff",
        "noteNumber": 95,
        "velocity": 0
      },
      {
        "deltaTime": 12,
        "channel": 1,
        "type": "channel",
        "noteNumber": 93,
        "velocity": 53,
        "subtype": "noteOn"
      },
      {
        "deltaTime": 75,
        "channel": 1,
        "type": "channel",
        "subtype": "noteOff",
        "noteNumber": 93,
        "velocity": 0
      },
      {
        "deltaTime": 7,
        "channel": 1,
        "type": "channel",
        "noteNumber": 86,
        "velocity": 47,
        "subtype": "noteOn"
      },
      {
        "deltaTime": 19,
        "channel": 1,
        "type": "channel",
        "subtype": "noteOff",
        "noteNumber": 86,
        "velocity": 0
      },
      {
        "deltaTime": 27,
        "channel": 1,
        "type": "channel",
        "noteNumber": 50,
        "velocity": 58,
        "subtype": "noteOn"
      },
      {
        "deltaTime": 148,
        "channel": 1,
        "type": "channel",
        "subtype": "noteOff",
        "noteNumber": 50,
        "velocity": 0
      },
      {
        "deltaTime": 10,
        "channel": 1,
        "type": "channel",
        "noteNumber": 64,
        "velocity": 41,
        "subtype": "noteOn"
      },
      {
        "deltaTime": 26,
        "channel": 1,
        "type": "channel",
        "noteNumber": 74,
        "velocity": 30,
        "subtype": "noteOn"
      },
      {
        "deltaTime": 24,
        "channel": 1,
        "type": "channel",
        "subtype": "noteOff",
        "noteNumber": 64,
        "velocity": 0
      },
      {
        "deltaTime": 20,
        "channel": 1,
        "type": "channel",
        "subtype": "noteOff",
        "noteNumber": 74,
        "velocity": 0
      },
      {
        "deltaTime": 19,
        "channel": 1,
        "type": "channel",
        "noteNumber": 74,
        "velocity": 45,
        "subtype": "noteOn"
      },
      {
        "deltaTime": 29,
        "channel": 1,
        "type": "channel",
        "subtype": "noteOff",
        "noteNumber": 74,
        "velocity": 0
      },
      {
        "deltaTime": 33,
        "channel": 1,
        "type": "channel",
        "noteNumber": 74,
        "velocity": 48,
        "subtype": "noteOn"
      },
      {
        "deltaTime": 36,
        "channel": 1,
        "type": "channel",
        "noteNumber": 98,
        "velocity": 37,
        "subtype": "noteOn"
      },
      {
        "deltaTime": 10,
        "channel": 1,
        "type": "channel",
        "subtype": "noteOff",
        "noteNumber": 98,
        "velocity": 0
      },
      {
        "deltaTime": 29,
        "channel": 1,
        "type": "channel",
        "noteNumber": 86,
        "velocity": 40,
        "subtype": "noteOn"
      },
      {
        "deltaTime": 48,
        "channel": 1,
        "type": "channel",
        "subtype": "noteOff",
        "noteNumber": 74,
        "velocity": 0
      },
      {
        "deltaTime": 24,
        "channel": 1,
        "type": "channel",
        "noteNumber": 74,
        "velocity": 40,
        "subtype": "noteOn"
      },
      {
        "deltaTime": 2,
        "channel": 1,
        "type": "channel",
        "subtype": "noteOff",
        "noteNumber": 86,
        "velocity": 0
      },
      {
        "deltaTime": 115,
        "channel": 1,
        "type": "channel",
        "subtype": "noteOff",
        "noteNumber": 74,
        "velocity": 0
      },
      {
        "deltaTime": 22,
        "channel": 1,
        "type": "channel",
        "noteNumber": 81,
        "velocity": 12,
        "subtype": "noteOn"
      },
      {
        "deltaTime": 9,
        "channel": 1,
        "type": "channel",
        "subtype": "noteOff",
        "noteNumber": 81,
        "velocity": 0
      },
      {
        "deltaTime": 159,
        "channel": 1,
        "type": "channel",
        "noteNumber": 86,
        "velocity": 54,
        "subtype": "noteOn"
      },
      {
        "deltaTime": 5,
        "channel": 1,
        "type": "channel",
        "noteNumber": 62,
        "velocity": 59,
        "subtype": "noteOn"
      },
      {
        "deltaTime": 7,
        "channel": 1,
        "type": "channel",
        "subtype": "noteOff",
        "noteNumber": 86,
        "velocity": 0
      },
      {
        "deltaTime": 21,
        "channel": 1,
        "type": "channel",
        "noteNumber": 86,
        "velocity": 53,
        "subtype": "noteOn"
      },
      {
        "deltaTime": 36,
        "channel": 1,
        "type": "channel",
        "subtype": "noteOff",
        "noteNumber": 86,
        "velocity": 0
      },
      {
        "deltaTime": 72,
        "channel": 1,
        "type": "channel",
        "noteNumber": 36,
        "velocity": 55,
        "subtype": "noteOn"
      },
      {
        "deltaTime": 10,
        "channel": 1,
        "type": "channel",
        "subtype": "noteOff",
        "noteNumber": 62,
        "velocity": 0
      },
      {
        "deltaTime": 17,
        "channel": 1,
        "type": "channel",
        "noteNumber": 48,
        "velocity": 51,
        "subtype": "noteOn"
      },
      {
        "deltaTime": 38,
        "channel": 1,
        "type": "channel",
        "subtype": "noteOff",
        "noteNumber": 36,
        "velocity": 0
      },
      {
        "deltaTime": 12,
        "channel": 1,
        "type": "channel",
        "subtype": "noteOff",
        "noteNumber": 48,
        "velocity": 0
      },
      {
        "deltaTime": 79,
        "channel": 1,
        "type": "channel",
        "noteNumber": 93,
        "velocity": 56,
        "subtype": "noteOn"
      },
      {
        "deltaTime": 20,
        "channel": 1,
        "type": "channel",
        "subtype": "noteOff",
        "noteNumber": 93,
        "velocity": 0
      },
      {
        "deltaTime": 9,
        "channel": 1,
        "type": "channel",
        "noteNumber": 64,
        "velocity": 48,
        "subtype": "noteOn"
      },
      {
        "deltaTime": 144,
        "channel": 1,
        "type": "channel",
        "subtype": "noteOff",
        "noteNumber": 64,
        "velocity": 0
      },
      {
        "deltaTime": 0,
        "channel": 1,
        "type": "channel",
        "noteNumber": 93,
        "velocity": 50,
        "subtype": "noteOn"
      },
      {
        "deltaTime": 72,
        "channel": 1,
        "type": "channel",
        "noteNumber": 77,
        "velocity": 47,
        "subtype": "noteOn"
      },
      {
        "deltaTime": 19,
        "channel": 1,
        "type": "channel",
        "subtype": "noteOff",
        "noteNumber": 77,
        "velocity": 0
      },
      {
        "deltaTime": 15,
        "channel": 1,
        "type": "channel",
        "subtype": "noteOff",
        "noteNumber": 93,
        "velocity": 0
      },
      {
        "deltaTime": 50,
        "channel": 1,
        "type": "channel",
        "noteNumber": 77,
        "velocity": 54,
        "subtype": "noteOn"
      },
      {
        "deltaTime": 19,
        "channel": 1,
        "type": "channel",
        "noteNumber": 65,
        "velocity": 48,
        "subtype": "noteOn"
      },
      {
        "deltaTime": 5,
        "channel": 1,
        "type": "channel",
        "subtype": "noteOff",
        "noteNumber": 77,
        "velocity": 0
      },
      {
        "deltaTime": 19,
        "channel": 1,
        "type": "channel",
        "subtype": "noteOff",
        "noteNumber": 65,
        "velocity": 0
      },
      {
        "deltaTime": 8,
        "channel": 1,
        "type": "channel",
        "noteNumber": 64,
        "velocity": 44,
        "subtype": "noteOn"
      },
      {
        "deltaTime": 48,
        "channel": 1,
        "type": "channel",
        "subtype": "noteOff",
        "noteNumber": 64,
        "velocity": 0
      },
      {
        "deltaTime": 28,
        "channel": 1,
        "type": "channel",
        "noteNumber": 77,
        "velocity": 25,
        "subtype": "noteOn"
      },
      {
        "deltaTime": 3,
        "channel": 1,
        "type": "channel",
        "noteNumber": 67,
        "velocity": 47,
        "subtype": "noteOn"
      },
      {
        "deltaTime": 17,
        "channel": 1,
        "type": "channel",
        "subtype": "noteOff",
        "noteNumber": 77,
        "velocity": 0
      },
      {
        "deltaTime": 52,
        "channel": 1,
        "type": "channel",
        "subtype": "noteOff",
        "noteNumber": 67,
        "velocity": 0
      },
      {
        "deltaTime": 12,
        "channel": 1,
        "type": "channel",
        "noteNumber": 77,
        "velocity": 46,
        "subtype": "noteOn"
      },
      {
        "deltaTime": 41,
        "channel": 1,
        "type": "channel",
        "subtype": "noteOff",
        "noteNumber": 77,
        "velocity": 0
      },
      {
        "deltaTime": 48,
        "channel": 1,
        "type": "channel",
        "noteNumber": 105,
        "velocity": 39,
        "subtype": "noteOn"
      },
      {
        "deltaTime": 34,
        "channel": 1,
        "type": "channel",
        "subtype": "noteOff",
        "noteNumber": 105,
        "velocity": 0
      },
      {
        "deltaTime": 79,
        "channel": 1,
        "type": "channel",
        "noteNumber": 105,
        "velocity": 41,
        "subtype": "noteOn"
      },
      {
        "deltaTime": 12,
        "channel": 1,
        "type": "channel",
        "subtype": "noteOff",
        "noteNumber": 105,
        "velocity": 0
      },
      {
        "deltaTime": 91,
        "channel": 1,
        "type": "channel",
        "noteNumber": 98,
        "velocity": 30,
        "subtype": "noteOn"
      },
      {
        "deltaTime": 19,
        "channel": 1,
        "type": "channel",
        "subtype": "noteOff",
        "noteNumber": 98,
        "velocity": 0
      },
      {
        "deltaTime": 17,
        "channel": 1,
        "type": "channel",
        "noteNumber": 86,
        "velocity": 37,
        "subtype": "noteOn"
      },
      {
        "deltaTime": 10,
        "channel": 1,
        "type": "channel",
        "subtype": "noteOff",
        "noteNumber": 86,
        "velocity": 0
      },
      {
        "deltaTime": 9,
        "channel": 1,
        "type": "channel",
        "noteNumber": 62,
        "velocity": 55,
        "subtype": "noteOn"
      },
      {
        "deltaTime": 70,
        "channel": 1,
        "type": "channel",
        "subtype": "noteOff",
        "noteNumber": 62,
        "velocity": 0
      },
      {
        "deltaTime": 12,
        "channel": 1,
        "type": "channel",
        "noteNumber": 62,
        "velocity": 59,
        "subtype": "noteOn"
      },
      {
        "deltaTime": 120,
        "channel": 1,
        "type": "channel",
        "noteNumber": 74,
        "velocity": 35,
        "subtype": "noteOn"
      },
      {
        "deltaTime": 19,
        "channel": 1,
        "type": "channel",
        "subtype": "noteOff",
        "noteNumber": 74,
        "velocity": 0
      },
      {
        "deltaTime": 12,
        "channel": 1,
        "type": "channel",
        "noteNumber": 93,
        "velocity": 50,
        "subtype": "noteOn"
      },
      {
        "deltaTime": 31,
        "channel": 1,
        "type": "channel",
        "subtype": "noteOff",
        "noteNumber": 62,
        "velocity": 0
      },
      {
        "deltaTime": 22,
        "channel": 1,
        "type": "channel",
        "noteNumber": 88,
        "velocity": 51,
        "subtype": "noteOn"
      },
      {
        "deltaTime": 50,
        "channel": 1,
        "type": "channel",
        "subtype": "noteOff",
        "noteNumber": 93,
        "velocity": 0
      },
      {
        "deltaTime": 68,
        "channel": 1,
        "type": "channel",
        "subtype": "noteOff",
        "noteNumber": 88,
        "velocity": 0
      },
      {
        "deltaTime": 204,
        "channel": 1,
        "type": "channel",
        "noteNumber": 74,
        "velocity": 57,
        "subtype": "noteOn"
      },
      {
        "deltaTime": 105,
        "channel": 1,
        "type": "channel",
        "subtype": "noteOff",
        "noteNumber": 74,
        "velocity": 0
      },
      {
        "deltaTime": 53,
        "channel": 1,
        "type": "channel",
        "noteNumber": 74,
        "velocity": 27,
        "subtype": "noteOn"
      },
      {
        "deltaTime": 26,
        "channel": 1,
        "type": "channel",
        "subtype": "noteOff",
        "noteNumber": 74,
        "velocity": 0
      },
      {
        "deltaTime": 0,
        "channel": 1,
        "type": "channel",
        "noteNumber": 98,
        "velocity": 34,
        "subtype": "noteOn"
      },
      {
        "deltaTime": 24,
        "channel": 1,
        "type": "channel",
        "subtype": "noteOff",
        "noteNumber": 98,
        "velocity": 0
      },
      {
        "deltaTime": 36,
        "channel": 1,
        "type": "channel",
        "noteNumber": 74,
        "velocity": 27,
        "subtype": "noteOn"
      },
      {
        "deltaTime": 17,
        "channel": 1,
        "type": "channel",
        "subtype": "noteOff",
        "noteNumber": 74,
        "velocity": 0
      },
      {
        "deltaTime": 65,
        "channel": 1,
        "type": "channel",
        "noteNumber": 86,
        "velocity": 58,
        "subtype": "noteOn"
      },
      {
        "deltaTime": 26,
        "channel": 1,
        "type": "channel",
        "subtype": "noteOff",
        "noteNumber": 86,
        "velocity": 0
      },
      {
        "deltaTime": 41,
        "channel": 1,
        "type": "channel",
        "noteNumber": 86,
        "velocity": 41,
        "subtype": "noteOn"
      },
      {
        "deltaTime": 12,
        "channel": 1,
        "type": "channel",
        "subtype": "noteOff",
        "noteNumber": 86,
        "velocity": 0
      },
      {
        "deltaTime": 3,
        "channel": 1,
        "type": "channel",
        "noteNumber": 86,
        "velocity": 60,
        "subtype": "noteOn"
      },
      {
        "deltaTime": 91,
        "channel": 1,
        "type": "channel",
        "subtype": "noteOff",
        "noteNumber": 86,
        "velocity": 0
      },
      {
        "deltaTime": 175,
        "channel": 1,
        "type": "channel",
        "noteNumber": 62,
        "velocity": 47,
        "subtype": "noteOn"
      },
      {
        "deltaTime": 72,
        "channel": 1,
        "type": "channel",
        "subtype": "noteOff",
        "noteNumber": 62,
        "velocity": 0
      },
      {
        "deltaTime": 12,
        "channel": 1,
        "type": "channel",
        "noteNumber": 98,
        "velocity": 49,
        "subtype": "noteOn"
      },
      {
        "deltaTime": 10,
        "channel": 1,
        "type": "channel",
        "subtype": "noteOff",
        "noteNumber": 98,
        "velocity": 0
      },
      {
        "deltaTime": 28,
        "channel": 1,
        "type": "channel",
        "noteNumber": 60,
        "velocity": 22,
        "subtype": "noteOn"
      },
      {
        "deltaTime": 65,
        "channel": 1,
        "type": "channel",
        "subtype": "noteOff",
        "noteNumber": 60,
        "velocity": 0
      },
      {
        "deltaTime": 5,
        "channel": 1,
        "type": "channel",
        "noteNumber": 81,
        "velocity": 20,
        "subtype": "noteOn"
      },
      {
        "deltaTime": 0,
        "channel": 1,
        "type": "channel",
        "noteNumber": 93,
        "velocity": 49,
        "subtype": "noteOn"
      },
      {
        "deltaTime": 12,
        "channel": 1,
        "type": "channel",
        "subtype": "noteOff",
        "noteNumber": 81,
        "velocity": 0
      },
      {
        "deltaTime": 19,
        "channel": 1,
        "type": "channel",
        "noteNumber": 36,
        "velocity": 55,
        "subtype": "noteOn"
      },
      {
        "deltaTime": 5,
        "channel": 1,
        "type": "channel",
        "subtype": "noteOff",
        "noteNumber": 93,
        "velocity": 0
      },
      {
        "deltaTime": 22,
        "channel": 1,
        "type": "channel",
        "noteNumber": 48,
        "velocity": 57,
        "subtype": "noteOn"
      },
      {
        "deltaTime": 36,
        "channel": 1,
        "type": "channel",
        "subtype": "noteOff",
        "noteNumber": 36,
        "velocity": 0
      },
      {
        "deltaTime": 69,
        "channel": 1,
        "type": "channel",
        "subtype": "noteOff",
        "noteNumber": 48,
        "velocity": 0
      },
      {
        "deltaTime": 267,
        "channel": 1,
        "type": "channel",
        "noteNumber": 77,
        "velocity": 63,
        "subtype": "noteOn"
      },
      {
        "deltaTime": 9,
        "channel": 1,
        "type": "channel",
        "noteNumber": 89,
        "velocity": 62,
        "subtype": "noteOn"
      },
      {
        "deltaTime": 36,
        "channel": 1,
        "type": "channel",
        "subtype": "noteOff",
        "noteNumber": 89,
        "velocity": 0
      },
      {
        "deltaTime": 27,
        "channel": 1,
        "type": "channel",
        "subtype": "noteOff",
        "noteNumber": 77,
        "velocity": 0
      },
      {
        "deltaTime": 31,
        "channel": 1,
        "type": "channel",
        "noteNumber": 65,
        "velocity": 45,
        "subtype": "noteOn"
      },
      {
        "deltaTime": 24,
        "channel": 1,
        "type": "channel",
        "subtype": "noteOff",
        "noteNumber": 65,
        "velocity": 0
      },
      {
        "deltaTime": 7,
        "channel": 1,
        "type": "channel",
        "noteNumber": 64,
        "velocity": 43,
        "subtype": "noteOn"
      },
      {
        "deltaTime": 36,
        "channel": 1,
        "type": "channel",
        "noteNumber": 84,
        "velocity": 40,
        "subtype": "noteOn"
      },
      {
        "deltaTime": 17,
        "channel": 1,
        "type": "channel",
        "subtype": "noteOff",
        "noteNumber": 64,
        "velocity": 0
      },
      {
        "deltaTime": 0,
        "channel": 1,
        "type": "channel",
        "noteNumber": 96,
        "velocity": 15,
        "subtype": "noteOn"
      },
      {
        "deltaTime": 14,
        "channel": 1,
        "type": "channel",
        "subtype": "noteOff",
        "noteNumber": 96,
        "velocity": 0
      },
      {
        "deltaTime": 15,
        "channel": 1,
        "type": "channel",
        "noteNumber": 96,
        "velocity": 27,
        "subtype": "noteOn"
      },
      {
        "deltaTime": 24,
        "channel": 1,
        "type": "channel",
        "subtype": "noteOff",
        "noteNumber": 96,
        "velocity": 0
      },
      {
        "deltaTime": 4,
        "channel": 1,
        "type": "channel",
        "subtype": "noteOff",
        "noteNumber": 84,
        "velocity": 0
      },
      {
        "deltaTime": 5,
        "channel": 1,
        "type": "channel",
        "noteNumber": 86,
        "velocity": 50,
        "subtype": "noteOn"
      },
      {
        "deltaTime": 22,
        "channel": 1,
        "type": "channel",
        "noteNumber": 77,
        "velocity": 46,
        "subtype": "noteOn"
      },
      {
        "deltaTime": 45,
        "channel": 1,
        "type": "channel",
        "subtype": "noteOff",
        "noteNumber": 77,
        "velocity": 0
      },
      {
        "deltaTime": 70,
        "channel": 1,
        "type": "channel",
        "subtype": "noteOff",
        "noteNumber": 86,
        "velocity": 0
      },
      {
        "deltaTime": 19,
        "channel": 1,
        "type": "channel",
        "noteNumber": 36,
        "velocity": 28,
        "subtype": "noteOn"
      },
      {
        "deltaTime": 15,
        "channel": 1,
        "type": "channel",
        "subtype": "noteOff",
        "noteNumber": 36,
        "velocity": 0
      },
      {
        "deltaTime": 28,
        "channel": 1,
        "type": "channel",
        "noteNumber": 100,
        "velocity": 41,
        "subtype": "noteOn"
      },
      {
        "deltaTime": 5,
        "channel": 1,
        "type": "channel",
        "noteNumber": 36,
        "velocity": 42,
        "subtype": "noteOn"
      },
      {
        "deltaTime": 29,
        "channel": 1,
        "type": "channel",
        "subtype": "noteOff",
        "noteNumber": 100,
        "velocity": 0
      },
      {
        "deltaTime": 94,
        "channel": 1,
        "type": "channel",
        "subtype": "noteOff",
        "noteNumber": 36,
        "velocity": 0
      },
      {
        "deltaTime": 14,
        "channel": 1,
        "type": "channel",
        "noteNumber": 74,
        "velocity": 49,
        "subtype": "noteOn"
      },
      {
        "deltaTime": 72,
        "channel": 1,
        "type": "channel",
        "subtype": "noteOff",
        "noteNumber": 74,
        "velocity": 0
      },
      {
        "deltaTime": 14,
        "channel": 1,
        "type": "channel",
        "noteNumber": 74,
        "velocity": 59,
        "subtype": "noteOn"
      },
      {
        "deltaTime": 63,
        "channel": 1,
        "type": "channel",
        "noteNumber": 62,
        "velocity": 56,
        "subtype": "noteOn"
      },
      {
        "deltaTime": 17,
        "channel": 1,
        "type": "channel",
        "subtype": "noteOff",
        "noteNumber": 74,
        "velocity": 0
      },
      {
        "deltaTime": 117,
        "channel": 1,
        "type": "channel",
        "noteNumber": 74,
        "velocity": 27,
        "subtype": "noteOn"
      },
      {
        "deltaTime": 15,
        "channel": 1,
        "type": "channel",
        "subtype": "noteOff",
        "noteNumber": 74,
        "velocity": 0
      },
      {
        "deltaTime": 4,
        "channel": 1,
        "type": "channel",
        "subtype": "noteOff",
        "noteNumber": 62,
        "velocity": 0
      },
      {
        "deltaTime": 104,
        "channel": 1,
        "type": "channel",
        "noteNumber": 100,
        "velocity": 43,
        "subtype": "noteOn"
      },
      {
        "deltaTime": 14,
        "channel": 1,
        "type": "channel",
        "subtype": "noteOff",
        "noteNumber": 100,
        "velocity": 0
      },
      {
        "deltaTime": 26,
        "channel": 1,
        "type": "channel",
        "noteNumber": 93,
        "velocity": 56,
        "subtype": "noteOn"
      },
      {
        "deltaTime": 15,
        "channel": 1,
        "type": "channel",
        "subtype": "noteOff",
        "noteNumber": 93,
        "velocity": 0
      },
      {
        "deltaTime": 187,
        "channel": 1,
        "type": "channel",
        "noteNumber": 38,
        "velocity": 69,
        "subtype": "noteOn"
      },
      {
        "deltaTime": 55,
        "channel": 1,
        "type": "channel",
        "noteNumber": 98,
        "velocity": 63,
        "subtype": "noteOn"
      },
      {
        "deltaTime": 77,
        "channel": 1,
        "type": "channel",
        "subtype": "noteOff",
        "noteNumber": 98,
        "velocity": 0
      },
      {
        "deltaTime": 74,
        "channel": 1,
        "type": "channel",
        "noteNumber": 98,
        "velocity": 62,
        "subtype": "noteOn"
      },
      {
        "deltaTime": 15,
        "channel": 1,
        "type": "channel",
        "subtype": "noteOff",
        "noteNumber": 98,
        "velocity": 0
      },
      {
        "deltaTime": 5,
        "channel": 1,
        "type": "channel",
        "noteNumber": 86,
        "velocity": 54,
        "subtype": "noteOn"
      },
      {
        "deltaTime": 9,
        "channel": 1,
        "type": "channel",
        "subtype": "noteOff",
        "noteNumber": 86,
        "velocity": 0
      },
      {
        "deltaTime": 0,
        "channel": 1,
        "type": "channel",
        "noteNumber": 98,
        "velocity": 67,
        "subtype": "noteOn"
      },
      {
        "deltaTime": 53,
        "channel": 1,
        "type": "channel",
        "subtype": "noteOff",
        "noteNumber": 98,
        "velocity": 0
      },
      {
        "deltaTime": 38,
        "channel": 1,
        "type": "channel",
        "noteNumber": 86,
        "velocity": 68,
        "subtype": "noteOn"
      },
      {
        "deltaTime": 15,
        "channel": 1,
        "type": "channel",
        "subtype": "noteOff",
        "noteNumber": 86,
        "velocity": 0
      },
      {
        "deltaTime": 14,
        "channel": 1,
        "type": "channel",
        "noteNumber": 98,
        "velocity": 55,
        "subtype": "noteOn"
      },
      {
        "deltaTime": 22,
        "channel": 1,
        "type": "channel",
        "subtype": "noteOff",
        "noteNumber": 98,
        "velocity": 0
      },
      {
        "deltaTime": 0,
        "channel": 1,
        "type": "channel",
        "noteNumber": 86,
        "velocity": 68,
        "subtype": "noteOn"
      },
      {
        "deltaTime": 5,
        "channel": 1,
        "type": "channel",
        "subtype": "noteOff",
        "noteNumber": 38,
        "velocity": 0
      },
      {
        "deltaTime": 7,
        "channel": 1,
        "type": "channel",
        "subtype": "noteOff",
        "noteNumber": 86,
        "velocity": 0
      },
      {
        "deltaTime": 81,
        "channel": 1,
        "type": "channel",
        "noteNumber": 98,
        "velocity": 54,
        "subtype": "noteOn"
      },
      {
        "deltaTime": 53,
        "channel": 1,
        "type": "channel",
        "subtype": "noteOff",
        "noteNumber": 98,
        "velocity": 0
      },
      {
        "deltaTime": 31,
        "channel": 1,
        "type": "channel",
        "noteNumber": 74,
        "velocity": 29,
        "subtype": "noteOn"
      },
      {
        "deltaTime": 135,
        "channel": 1,
        "type": "channel",
        "subtype": "noteOff",
        "noteNumber": 74,
        "velocity": 0
      },
      {
        "deltaTime": 269,
        "channel": 1,
        "type": "channel",
        "noteNumber": 77,
        "velocity": 37,
        "subtype": "noteOn"
      },
      {
        "deltaTime": 31,
        "channel": 1,
        "type": "channel",
        "subtype": "noteOff",
        "noteNumber": 77,
        "velocity": 0
      },
      {
        "deltaTime": 48,
        "channel": 1,
        "type": "channel",
        "noteNumber": 32,
        "velocity": 51,
        "subtype": "noteOn"
      },
      {
        "deltaTime": 21,
        "channel": 1,
        "type": "channel",
        "subtype": "noteOff",
        "noteNumber": 32,
        "velocity": 0
      },
      {
        "deltaTime": 3,
        "channel": 1,
        "type": "channel",
        "noteNumber": 63,
        "velocity": 57,
        "subtype": "noteOn"
      },
      {
        "deltaTime": 36,
        "channel": 1,
        "type": "channel",
        "subtype": "noteOff",
        "noteNumber": 63,
        "velocity": 0
      },
      {
        "deltaTime": 12,
        "channel": 1,
        "type": "channel",
        "noteNumber": 65,
        "velocity": 47,
        "subtype": "noteOn"
      },
      {
        "deltaTime": 57,
        "channel": 1,
        "type": "channel",
        "subtype": "noteOff",
        "noteNumber": 65,
        "velocity": 0
      },
      {
        "deltaTime": 5,
        "channel": 1,
        "type": "channel",
        "noteNumber": 77,
        "velocity": 34,
        "subtype": "noteOn"
      },
      {
        "deltaTime": 12,
        "channel": 1,
        "type": "channel",
        "subtype": "noteOff",
        "noteNumber": 77,
        "velocity": 0
      },
      {
        "deltaTime": 12,
        "channel": 1,
        "type": "channel",
        "noteNumber": 37,
        "velocity": 35,
        "subtype": "noteOn"
      },
      {
        "deltaTime": 46,
        "channel": 1,
        "type": "channel",
        "subtype": "noteOff",
        "noteNumber": 37,
        "velocity": 0
      },
      {
        "deltaTime": 26,
        "channel": 1,
        "type": "channel",
        "noteNumber": 51,
        "velocity": 57,
        "subtype": "noteOn"
      },
      {
        "deltaTime": 46,
        "channel": 1,
        "type": "channel",
        "noteNumber": 39,
        "velocity": 51,
        "subtype": "noteOn"
      },
      {
        "deltaTime": 9,
        "channel": 1,
        "type": "channel",
        "subtype": "noteOff",
        "noteNumber": 39,
        "velocity": 0
      },
      {
        "deltaTime": 46,
        "channel": 1,
        "type": "channel",
        "subtype": "noteOff",
        "noteNumber": 51,
        "velocity": 0
      },
      {
        "deltaTime": 10,
        "channel": 1,
        "type": "channel",
        "noteNumber": 65,
        "velocity": 57,
        "subtype": "noteOn"
      },
      {
        "deltaTime": 33,
        "channel": 1,
        "type": "channel",
        "subtype": "noteOff",
        "noteNumber": 65,
        "velocity": 0
      },
      {
        "deltaTime": 65,
        "channel": 1,
        "type": "channel",
        "noteNumber": 91,
        "velocity": 51,
        "subtype": "noteOn"
      },
      {
        "deltaTime": 12,
        "channel": 1,
        "type": "channel",
        "subtype": "noteOff",
        "noteNumber": 91,
        "velocity": 0
      },
      {
        "deltaTime": 2,
        "channel": 1,
        "type": "channel",
        "noteNumber": 94,
        "velocity": 53,
        "subtype": "noteOn"
      },
      {
        "deltaTime": 53,
        "channel": 1,
        "type": "channel",
        "noteNumber": 65,
        "velocity": 41,
        "subtype": "noteOn"
      },
      {
        "deltaTime": 7,
        "channel": 1,
        "type": "channel",
        "subtype": "noteOff",
        "noteNumber": 94,
        "velocity": 0
      },
      {
        "deltaTime": 17,
        "channel": 1,
        "type": "channel",
        "subtype": "noteOff",
        "noteNumber": 65,
        "velocity": 0
      },
      {
        "deltaTime": 46,
        "channel": 1,
        "type": "channel",
        "noteNumber": 99,
        "velocity": 56,
        "subtype": "noteOn"
      },
      {
        "deltaTime": 26,
        "channel": 1,
        "type": "channel",
        "noteNumber": 92,
        "velocity": 51,
        "subtype": "noteOn"
      },
      {
        "deltaTime": 19,
        "channel": 1,
        "type": "channel",
        "subtype": "noteOff",
        "noteNumber": 99,
        "velocity": 0
      },
      {
        "deltaTime": 39,
        "channel": 1,
        "type": "channel",
        "subtype": "noteOff",
        "noteNumber": 92,
        "velocity": 0
      },
      {
        "deltaTime": 9,
        "channel": 1,
        "type": "channel",
        "noteNumber": 92,
        "velocity": 57,
        "subtype": "noteOn"
      },
      {
        "deltaTime": 12,
        "channel": 1,
        "type": "channel",
        "subtype": "noteOff",
        "noteNumber": 92,
        "velocity": 0
      },
      {
        "deltaTime": 10,
        "channel": 1,
        "type": "channel",
        "noteNumber": 92,
        "velocity": 55,
        "subtype": "noteOn"
      },
      {
        "deltaTime": 10,
        "channel": 1,
        "type": "channel",
        "subtype": "noteOff",
        "noteNumber": 92,
        "velocity": 0
      },
      {
        "deltaTime": 2,
        "channel": 1,
        "type": "channel",
        "noteNumber": 80,
        "velocity": 47,
        "subtype": "noteOn"
      },
      {
        "deltaTime": 12,
        "channel": 1,
        "type": "channel",
        "subtype": "noteOff",
        "noteNumber": 80,
        "velocity": 0
      },
      {
        "deltaTime": 14,
        "channel": 1,
        "type": "channel",
        "noteNumber": 80,
        "velocity": 51,
        "subtype": "noteOn"
      },
      {
        "deltaTime": 20,
        "channel": 1,
        "type": "channel",
        "subtype": "noteOff",
        "noteNumber": 80,
        "velocity": 0
      },
      {
        "deltaTime": 36,
        "channel": 1,
        "type": "channel",
        "noteNumber": 68,
        "velocity": 48,
        "subtype": "noteOn"
      },
      {
        "deltaTime": 60,
        "channel": 1,
        "type": "channel",
        "subtype": "noteOff",
        "noteNumber": 68,
        "velocity": 0
      },
      {
        "deltaTime": 14,
        "channel": 1,
        "type": "channel",
        "noteNumber": 65,
        "velocity": 52,
        "subtype": "noteOn"
      },
      {
        "deltaTime": 79,
        "channel": 1,
        "type": "channel",
        "subtype": "noteOff",
        "noteNumber": 65,
        "velocity": 0
      },
      {
        "deltaTime": 7,
        "channel": 1,
        "type": "channel",
        "noteNumber": 104,
        "velocity": 42,
        "subtype": "noteOn"
      },
      {
        "deltaTime": 10,
        "channel": 1,
        "type": "channel",
        "subtype": "noteOff",
        "noteNumber": 104,
        "velocity": 0
      },
      {
        "deltaTime": 14,
        "channel": 1,
        "type": "channel",
        "noteNumber": 41,
        "velocity": 44,
        "subtype": "noteOn"
      },
      {
        "deltaTime": 17,
        "channel": 1,
        "type": "channel",
        "subtype": "noteOff",
        "noteNumber": 41,
        "velocity": 0
      },
      {
        "deltaTime": 10,
        "channel": 1,
        "type": "channel",
        "noteNumber": 67,
        "velocity": 46,
        "subtype": "noteOn"
      },
      {
        "deltaTime": 14,
        "channel": 1,
        "type": "channel",
        "subtype": "noteOff",
        "noteNumber": 67,
        "velocity": 0
      },
      {
        "deltaTime": 46,
        "channel": 1,
        "type": "channel",
        "noteNumber": 96,
        "velocity": 68,
        "subtype": "noteOn"
      },
      {
        "deltaTime": 5,
        "channel": 1,
        "type": "channel",
        "noteNumber": 84,
        "velocity": 70,
        "subtype": "noteOn"
      },
      {
        "deltaTime": 14,
        "channel": 1,
        "type": "channel",
        "subtype": "noteOff",
        "noteNumber": 96,
        "velocity": 0
      },
      {
        "deltaTime": 96,
        "channel": 1,
        "type": "channel",
        "subtype": "noteOff",
        "noteNumber": 84,
        "velocity": 0
      },
      {
        "deltaTime": 146,
        "channel": 1,
        "type": "channel",
        "noteNumber": 101,
        "velocity": 65,
        "subtype": "noteOn"
      },
      {
        "deltaTime": 20,
        "channel": 1,
        "type": "channel",
        "subtype": "noteOff",
        "noteNumber": 101,
        "velocity": 0
      },
      {
        "deltaTime": 7,
        "channel": 1,
        "type": "channel",
        "noteNumber": 89,
        "velocity": 60,
        "subtype": "noteOn"
      },
      {
        "deltaTime": 67,
        "channel": 1,
        "type": "channel",
        "subtype": "noteOff",
        "noteNumber": 89,
        "velocity": 0
      },
      {
        "deltaTime": 14,
        "channel": 1,
        "type": "channel",
        "noteNumber": 65,
        "velocity": 37,
        "subtype": "noteOn"
      },
      {
        "deltaTime": 65,
        "channel": 1,
        "type": "channel",
        "subtype": "noteOff",
        "noteNumber": 65,
        "velocity": 0
      },
      {
        "deltaTime": 79,
        "channel": 1,
        "type": "channel",
        "noteNumber": 91,
        "velocity": 62,
        "subtype": "noteOn"
      },
      {
        "deltaTime": 142,
        "channel": 1,
        "type": "channel",
        "subtype": "noteOff",
        "noteNumber": 91,
        "velocity": 0
      },
      {
        "deltaTime": 5,
        "channel": 1,
        "type": "channel",
        "noteNumber": 91,
        "velocity": 48,
        "subtype": "noteOn"
      },
      {
        "deltaTime": 14,
        "channel": 1,
        "type": "channel",
        "subtype": "noteOff",
        "noteNumber": 91,
        "velocity": 0
      },
      {
        "deltaTime": 123,
        "channel": 1,
        "type": "channel",
        "noteNumber": 99,
        "velocity": 53,
        "subtype": "noteOn"
      },
      {
        "deltaTime": 33,
        "channel": 1,
        "type": "channel",
        "noteNumber": 92,
        "velocity": 59,
        "subtype": "noteOn"
      },
      {
        "deltaTime": 12,
        "channel": 1,
        "type": "channel",
        "subtype": "noteOff",
        "noteNumber": 99,
        "velocity": 0
      },
      {
        "deltaTime": 60,
        "channel": 1,
        "type": "channel",
        "subtype": "noteOff",
        "noteNumber": 92,
        "velocity": 0
      },
      {
        "deltaTime": 15,
        "channel": 1,
        "type": "channel",
        "noteNumber": 38,
        "velocity": 23,
        "subtype": "noteOn"
      },
      {
        "deltaTime": 9,
        "channel": 1,
        "type": "channel",
        "subtype": "noteOff",
        "noteNumber": 38,
        "velocity": 0
      },
      {
        "deltaTime": 22,
        "channel": 1,
        "type": "channel",
        "noteNumber": 80,
        "velocity": 53,
        "subtype": "noteOn"
      },
      {
        "deltaTime": 9,
        "channel": 1,
        "type": "channel",
        "noteNumber": 99,
        "velocity": 46,
        "subtype": "noteOn"
      },
      {
        "deltaTime": 10,
        "channel": 1,
        "type": "channel",
        "subtype": "noteOff",
        "noteNumber": 99,
        "velocity": 0
      },
      {
        "deltaTime": 2,
        "channel": 1,
        "type": "channel",
        "noteNumber": 99,
        "velocity": 50,
        "subtype": "noteOn"
      },
      {
        "deltaTime": 3,
        "channel": 1,
        "type": "channel",
        "subtype": "noteOff",
        "noteNumber": 80,
        "velocity": 0
      },
      {
        "deltaTime": 2,
        "channel": 1,
        "type": "channel",
        "noteNumber": 92,
        "velocity": 44,
        "subtype": "noteOn"
      },
      {
        "deltaTime": 12,
        "channel": 1,
        "type": "channel",
        "subtype": "noteOff",
        "noteNumber": 92,
        "velocity": 0
      },
      {
        "deltaTime": 5,
        "channel": 1,
        "type": "channel",
        "subtype": "noteOff",
        "noteNumber": 99,
        "velocity": 0
      },
      {
        "deltaTime": 7,
        "channel": 1,
        "type": "channel",
        "noteNumber": 99,
        "velocity": 48,
        "subtype": "noteOn"
      },
      {
        "deltaTime": 101,
        "channel": 1,
        "type": "channel",
        "subtype": "noteOff",
        "noteNumber": 99,
        "velocity": 0
      },
      {
        "deltaTime": 5,
        "channel": 1,
        "type": "channel",
        "noteNumber": 99,
        "velocity": 54,
        "subtype": "noteOn"
      },
      {
        "deltaTime": 60,
        "channel": 1,
        "type": "channel",
        "subtype": "noteOff",
        "noteNumber": 99,
        "velocity": 0
      },
      {
        "deltaTime": 50,
        "channel": 1,
        "type": "channel",
        "noteNumber": 67,
        "velocity": 47,
        "subtype": "noteOn"
      },
      {
        "deltaTime": 22,
        "channel": 1,
        "type": "channel",
        "subtype": "noteOff",
        "noteNumber": 67,
        "velocity": 0
      },
      {
        "deltaTime": 7,
        "channel": 1,
        "type": "channel",
        "noteNumber": 42,
        "velocity": 42,
        "subtype": "noteOn"
      },
      {
        "deltaTime": 10,
        "channel": 1,
        "type": "channel",
        "subtype": "noteOff",
        "noteNumber": 42,
        "velocity": 0
      },
      {
        "deltaTime": 9,
        "channel": 1,
        "type": "channel",
        "noteNumber": 44,
        "velocity": 67,
        "subtype": "noteOn"
      },
      {
        "deltaTime": 82,
        "channel": 1,
        "type": "channel",
        "noteNumber": 91,
        "velocity": 62,
        "subtype": "noteOn"
      },
      {
        "deltaTime": 48,
        "channel": 1,
        "type": "channel",
        "subtype": "noteOff",
        "noteNumber": 91,
        "velocity": 0
      },
      {
        "deltaTime": 45,
        "channel": 1,
        "type": "channel",
        "subtype": "noteOff",
        "noteNumber": 44,
        "velocity": 0
      },
      {
        "deltaTime": 92,
        "channel": 1,
        "type": "channel",
        "noteNumber": 63,
        "velocity": 53,
        "subtype": "noteOn"
      },
      {
        "deltaTime": 38,
        "channel": 1,
        "type": "channel",
        "subtype": "noteOff",
        "noteNumber": 63,
        "velocity": 0
      },
      {
        "deltaTime": 10,
        "channel": 1,
        "type": "channel",
        "noteNumber": 65,
        "velocity": 47,
        "subtype": "noteOn"
      },
      {
        "deltaTime": 57,
        "channel": 1,
        "type": "channel",
        "subtype": "noteOff",
        "noteNumber": 65,
        "velocity": 0
      },
      {
        "deltaTime": 17,
        "channel": 1,
        "type": "channel",
        "noteNumber": 96,
        "velocity": 36,
        "subtype": "noteOn"
      },
      {
        "deltaTime": 0,
        "channel": 1,
        "type": "channel",
        "noteNumber": 65,
        "velocity": 50,
        "subtype": "noteOn"
      },
      {
        "deltaTime": 10,
        "channel": 1,
        "type": "channel",
        "subtype": "noteOff",
        "noteNumber": 96,
        "velocity": 0
      },
      {
        "deltaTime": 55,
        "channel": 1,
        "type": "channel",
        "subtype": "noteOff",
        "noteNumber": 65,
        "velocity": 0
      },
      {
        "deltaTime": 127,
        "channel": 1,
        "type": "channel",
        "noteNumber": 65,
        "velocity": 58,
        "subtype": "noteOn"
      },
      {
        "deltaTime": 34,
        "channel": 1,
        "type": "channel",
        "subtype": "noteOff",
        "noteNumber": 65,
        "velocity": 0
      },
      {
        "deltaTime": 254,
        "channel": 1,
        "type": "channel",
        "noteNumber": 92,
        "velocity": 51,
        "subtype": "noteOn"
      },
      {
        "deltaTime": 17,
        "channel": 1,
        "type": "channel",
        "subtype": "noteOff",
        "noteNumber": 92,
        "velocity": 0
      },
      {
        "deltaTime": 9,
        "channel": 1,
        "type": "channel",
        "noteNumber": 91,
        "velocity": 56,
        "subtype": "noteOn"
      },
      {
        "deltaTime": 48,
        "channel": 1,
        "type": "channel",
        "noteNumber": 80,
        "velocity": 37,
        "subtype": "noteOn"
      },
      {
        "deltaTime": 10,
        "channel": 1,
        "type": "channel",
        "subtype": "noteOff",
        "noteNumber": 80,
        "velocity": 0
      },
      {
        "deltaTime": 19,
        "channel": 1,
        "type": "channel",
        "subtype": "noteOff",
        "noteNumber": 91,
        "velocity": 0
      },
      {
        "deltaTime": 0,
        "channel": 1,
        "type": "channel",
        "noteNumber": 80,
        "velocity": 52,
        "subtype": "noteOn"
      },
      {
        "deltaTime": 15,
        "channel": 1,
        "type": "channel",
        "subtype": "noteOff",
        "noteNumber": 80,
        "velocity": 0
      },
      {
        "deltaTime": 7,
        "channel": 1,
        "type": "channel",
        "noteNumber": 99,
        "velocity": 27,
        "subtype": "noteOn"
      },
      {
        "deltaTime": 7,
        "channel": 1,
        "type": "channel",
        "noteNumber": 67,
        "velocity": 34,
        "subtype": "noteOn"
      },
      {
        "deltaTime": 7,
        "channel": 1,
        "type": "channel",
        "subtype": "noteOff",
        "noteNumber": 99,
        "velocity": 0
      },
      {
        "deltaTime": 15,
        "channel": 1,
        "type": "channel",
        "subtype": "noteOff",
        "noteNumber": 67,
        "velocity": 0
      },
      {
        "deltaTime": 117,
        "channel": 1,
        "type": "channel",
        "noteNumber": 89,
        "velocity": 61,
        "subtype": "noteOn"
      },
      {
        "deltaTime": 108,
        "channel": 1,
        "type": "channel",
        "subtype": "noteOff",
        "noteNumber": 89,
        "velocity": 0
      },
      {
        "deltaTime": 15,
        "channel": 1,
        "type": "channel",
        "noteNumber": 79,
        "velocity": 37,
        "subtype": "noteOn"
      },
      {
        "deltaTime": 36,
        "channel": 1,
        "type": "channel",
        "subtype": "noteOff",
        "noteNumber": 79,
        "velocity": 0
      },
      {
        "deltaTime": 4,
        "channel": 1,
        "type": "channel",
        "noteNumber": 84,
        "velocity": 64,
        "subtype": "noteOn"
      },
      {
        "deltaTime": 22,
        "channel": 1,
        "type": "channel",
        "noteNumber": 96,
        "velocity": 63,
        "subtype": "noteOn"
      },
      {
        "deltaTime": 29,
        "channel": 1,
        "type": "channel",
        "subtype": "noteOff",
        "noteNumber": 96,
        "velocity": 0
      },
      {
        "deltaTime": 60,
        "channel": 1,
        "type": "channel",
        "subtype": "noteOff",
        "noteNumber": 84,
        "velocity": 0
      },
      {
        "deltaTime": 144,
        "channel": 1,
        "type": "channel",
        "noteNumber": 101,
        "velocity": 62,
        "subtype": "noteOn"
      },
      {
        "deltaTime": 21,
        "channel": 1,
        "type": "channel",
        "subtype": "noteOff",
        "noteNumber": 101,
        "velocity": 0
      },
      {
        "deltaTime": 8,
        "channel": 1,
        "type": "channel",
        "noteNumber": 89,
        "velocity": 57,
        "subtype": "noteOn"
      },
      {
        "deltaTime": 14,
        "channel": 1,
        "type": "channel",
        "subtype": "noteOff",
        "noteNumber": 89,
        "velocity": 0
      },
      {
        "deltaTime": 50,
        "channel": 1,
        "type": "channel",
        "noteNumber": 77,
        "velocity": 42,
        "subtype": "noteOn"
      },
      {
        "deltaTime": 15,
        "channel": 1,
        "type": "channel",
        "subtype": "noteOff",
        "noteNumber": 77,
        "velocity": 0
      },
      {
        "deltaTime": 0,
        "channel": 1,
        "type": "channel",
        "noteNumber": 65,
        "velocity": 44,
        "subtype": "noteOn"
      },
      {
        "deltaTime": 67,
        "channel": 1,
        "type": "channel",
        "subtype": "noteOff",
        "noteNumber": 65,
        "velocity": 0
      },
      {
        "deltaTime": 74,
        "channel": 1,
        "type": "channel",
        "noteNumber": 91,
        "velocity": 56,
        "subtype": "noteOn"
      },
      {
        "deltaTime": 89,
        "channel": 1,
        "type": "channel",
        "subtype": "noteOff",
        "noteNumber": 91,
        "velocity": 0
      },
      {
        "deltaTime": 10,
        "channel": 1,
        "type": "channel",
        "noteNumber": 91,
        "velocity": 46,
        "subtype": "noteOn"
      },
      {
        "deltaTime": 45,
        "channel": 1,
        "type": "channel",
        "subtype": "noteOff",
        "noteNumber": 91,
        "velocity": 0
      },
      {
        "deltaTime": 5,
        "channel": 1,
        "type": "channel",
        "noteNumber": 91,
        "velocity": 48,
        "subtype": "noteOn"
      },
      {
        "deltaTime": 15,
        "channel": 1,
        "type": "channel",
        "subtype": "noteOff",
        "noteNumber": 91,
        "velocity": 0
      },
      {
        "deltaTime": 57,
        "channel": 1,
        "type": "channel",
        "noteNumber": 65,
        "velocity": 45,
        "subtype": "noteOn"
      },
      {
        "deltaTime": 27,
        "channel": 1,
        "type": "channel",
        "subtype": "noteOff",
        "noteNumber": 65,
        "velocity": 0
      },
      {
        "deltaTime": 2,
        "channel": 1,
        "type": "channel",
        "noteNumber": 89,
        "velocity": 62,
        "subtype": "noteOn"
      },
      {
        "deltaTime": 142,
        "channel": 1,
        "type": "channel",
        "noteNumber": 67,
        "velocity": 54,
        "subtype": "noteOn"
      },
      {
        "deltaTime": 2,
        "channel": 1,
        "type": "channel",
        "subtype": "noteOff",
        "noteNumber": 89,
        "velocity": 0
      },
      {
        "deltaTime": 12,
        "channel": 1,
        "type": "channel",
        "subtype": "noteOff",
        "noteNumber": 67,
        "velocity": 0
      },
      {
        "deltaTime": 14,
        "channel": 1,
        "type": "channel",
        "noteNumber": 96,
        "velocity": 50,
        "subtype": "noteOn"
      },
      {
        "deltaTime": 53,
        "channel": 1,
        "type": "channel",
        "noteNumber": 67,
        "velocity": 34,
        "subtype": "noteOn"
      },
      {
        "deltaTime": 12,
        "channel": 1,
        "type": "channel",
        "subtype": "noteOff",
        "noteNumber": 67,
        "velocity": 0
      },
      {
        "deltaTime": 10,
        "channel": 1,
        "type": "channel",
        "subtype": "noteOff",
        "noteNumber": 96,
        "velocity": 0
      },
      {
        "deltaTime": 5,
        "channel": 1,
        "type": "channel",
        "noteNumber": 68,
        "velocity": 47,
        "subtype": "noteOn"
      },
      {
        "deltaTime": 57,
        "channel": 1,
        "type": "channel",
        "subtype": "noteOff",
        "noteNumber": 68,
        "velocity": 0
      },
      {
        "deltaTime": 17,
        "channel": 1,
        "type": "channel",
        "noteNumber": 65,
        "velocity": 56,
        "subtype": "noteOn"
      },
      {
        "deltaTime": 79,
        "channel": 1,
        "type": "channel",
        "subtype": "noteOff",
        "noteNumber": 65,
        "velocity": 0
      },
      {
        "deltaTime": 46,
        "channel": 1,
        "type": "channel",
        "noteNumber": 77,
        "velocity": 31,
        "subtype": "noteOn"
      },
      {
        "deltaTime": 26,
        "channel": 1,
        "type": "channel",
        "subtype": "noteOff",
        "noteNumber": 77,
        "velocity": 0
      },
      {
        "deltaTime": 17,
        "channel": 1,
        "type": "channel",
        "noteNumber": 77,
        "velocity": 34,
        "subtype": "noteOn"
      },
      {
        "deltaTime": 14,
        "channel": 1,
        "type": "channel",
        "noteNumber": 96,
        "velocity": 35,
        "subtype": "noteOn"
      },
      {
        "deltaTime": 10,
        "channel": 1,
        "type": "channel",
        "subtype": "noteOff",
        "noteNumber": 77,
        "velocity": 0
      },
      {
        "deltaTime": 41,
        "channel": 1,
        "type": "channel",
        "subtype": "noteOff",
        "noteNumber": 96,
        "velocity": 0
      },
      {
        "deltaTime": 19,
        "channel": 1,
        "type": "channel",
        "noteNumber": 75,
        "velocity": 54,
        "subtype": "noteOn"
      },
      {
        "deltaTime": 36,
        "channel": 1,
        "type": "channel",
        "noteNumber": 87,
        "velocity": 40,
        "subtype": "noteOn"
      },
      {
        "deltaTime": 10,
        "channel": 1,
        "type": "channel",
        "subtype": "noteOff",
        "noteNumber": 75,
        "velocity": 0
      },
      {
        "deltaTime": 16,
        "channel": 1,
        "type": "channel",
        "subtype": "noteOff",
        "noteNumber": 87,
        "velocity": 0
      },
      {
        "deltaTime": 87,
        "channel": 1,
        "type": "channel",
        "noteNumber": 65,
        "velocity": 59,
        "subtype": "noteOn"
      },
      {
        "deltaTime": 72,
        "channel": 1,
        "type": "channel",
        "subtype": "noteOff",
        "noteNumber": 65,
        "velocity": 0
      },
      {
        "deltaTime": 81,
        "channel": 1,
        "type": "channel",
        "noteNumber": 94,
        "velocity": 50,
        "subtype": "noteOn"
      },
      {
        "deltaTime": 53,
        "channel": 1,
        "type": "channel",
        "subtype": "noteOff",
        "noteNumber": 94,
        "velocity": 0
      },
      {
        "deltaTime": 63,
        "channel": 1,
        "type": "channel",
        "noteNumber": 39,
        "velocity": 50,
        "subtype": "noteOn"
      },
      {
        "deltaTime": 9,
        "channel": 1,
        "type": "channel",
        "subtype": "noteOff",
        "noteNumber": 39,
        "velocity": 0
      },
      {
        "deltaTime": 15,
        "channel": 1,
        "type": "channel",
        "noteNumber": 39,
        "velocity": 52,
        "subtype": "noteOn"
      },
      {
        "deltaTime": 12,
        "channel": 1,
        "type": "channel",
        "subtype": "noteOff",
        "noteNumber": 39,
        "velocity": 0
      },
      {
        "deltaTime": 55,
        "channel": 1,
        "type": "channel",
        "noteNumber": 65,
        "velocity": 59,
        "subtype": "noteOn"
      },
      {
        "deltaTime": 33,
        "channel": 1,
        "type": "channel",
        "subtype": "noteOff",
        "noteNumber": 65,
        "velocity": 0
      },
      {
        "deltaTime": 60,
        "channel": 1,
        "type": "channel",
        "noteNumber": 91,
        "velocity": 50,
        "subtype": "noteOn"
      },
      {
        "deltaTime": 17,
        "channel": 1,
        "type": "channel",
        "subtype": "noteOff",
        "noteNumber": 91,
        "velocity": 0
      },
      {
        "deltaTime": 3,
        "channel": 1,
        "type": "channel",
        "noteNumber": 94,
        "velocity": 54,
        "subtype": "noteOn"
      },
      {
        "deltaTime": 52,
        "channel": 1,
        "type": "channel",
        "noteNumber": 65,
        "velocity": 42,
        "subtype": "noteOn"
      },
      {
        "deltaTime": 24,
        "channel": 1,
        "type": "channel",
        "subtype": "noteOff",
        "noteNumber": 94,
        "velocity": 0
      },
      {
        "deltaTime": 0,
        "channel": 1,
        "type": "channel",
        "subtype": "noteOff",
        "noteNumber": 65,
        "velocity": 0
      },
      {
        "deltaTime": 51,
        "channel": 1,
        "type": "channel",
        "noteNumber": 99,
        "velocity": 58,
        "subtype": "noteOn"
      },
      {
        "deltaTime": 21,
        "channel": 1,
        "type": "channel",
        "noteNumber": 92,
        "velocity": 49,
        "subtype": "noteOn"
      },
      {
        "deltaTime": 20,
        "channel": 1,
        "type": "channel",
        "subtype": "noteOff",
        "noteNumber": 99,
        "velocity": 0
      },
      {
        "deltaTime": 36,
        "channel": 1,
        "type": "channel",
        "subtype": "noteOff",
        "noteNumber": 92,
        "velocity": 0
      },
      {
        "deltaTime": 33,
        "channel": 1,
        "type": "channel",
        "noteNumber": 92,
        "velocity": 59,
        "subtype": "noteOn"
      },
      {
        "deltaTime": 10,
        "channel": 1,
        "type": "channel",
        "subtype": "noteOff",
        "noteNumber": 92,
        "velocity": 0
      },
      {
        "deltaTime": 2,
        "channel": 1,
        "type": "channel",
        "noteNumber": 80,
        "velocity": 47,
        "subtype": "noteOn"
      },
      {
        "deltaTime": 15,
        "channel": 1,
        "type": "channel",
        "subtype": "noteOff",
        "noteNumber": 80,
        "velocity": 0
      },
      {
        "deltaTime": 9,
        "channel": 1,
        "type": "channel",
        "noteNumber": 80,
        "velocity": 54,
        "subtype": "noteOn"
      },
      {
        "deltaTime": 7,
        "channel": 1,
        "type": "channel",
        "noteNumber": 99,
        "velocity": 51,
        "subtype": "noteOn"
      },
      {
        "deltaTime": 10,
        "channel": 1,
        "type": "channel",
        "subtype": "noteOff",
        "noteNumber": 99,
        "velocity": 0
      },
      {
        "deltaTime": 7,
        "channel": 1,
        "type": "channel",
        "subtype": "noteOff",
        "noteNumber": 80,
        "velocity": 0
      },
      {
        "deltaTime": 111,
        "channel": 1,
        "type": "channel",
        "noteNumber": 65,
        "velocity": 52,
        "subtype": "noteOn"
      },
      {
        "deltaTime": 76,
        "channel": 1,
        "type": "channel",
        "subtype": "noteOff",
        "noteNumber": 65,
        "velocity": 0
      },
      {
        "deltaTime": 29,
        "channel": 1,
        "type": "channel",
        "noteNumber": 41,
        "velocity": 44,
        "subtype": "noteOn"
      },
      {
        "deltaTime": 12,
        "channel": 1,
        "type": "channel",
        "noteNumber": 89,
        "velocity": 77,
        "subtype": "noteOn"
      },
      {
        "deltaTime": 7,
        "channel": 1,
        "type": "channel",
        "subtype": "noteOff",
        "noteNumber": 41,
        "velocity": 0
      },
      {
        "deltaTime": 10,
        "channel": 1,
        "type": "channel",
        "noteNumber": 67,
        "velocity": 47,
        "subtype": "noteOn"
      },
      {
        "deltaTime": 17,
        "channel": 1,
        "type": "channel",
        "subtype": "noteOff",
        "noteNumber": 67,
        "velocity": 0
      },
      {
        "deltaTime": 93,
        "channel": 1,
        "type": "channel",
        "noteNumber": 96,
        "velocity": 62,
        "subtype": "noteOn"
      },
      {
        "deltaTime": 17,
        "channel": 1,
        "type": "channel",
        "subtype": "noteOff",
        "noteNumber": 96,
        "velocity": 0
      },
      {
        "deltaTime": 48,
        "channel": 1,
        "type": "channel",
        "subtype": "noteOff",
        "noteNumber": 89,
        "velocity": 0
      },
      {
        "deltaTime": 91,
        "channel": 1,
        "type": "channel",
        "noteNumber": 65,
        "velocity": 60,
        "subtype": "noteOn"
      },
      {
        "deltaTime": 70,
        "channel": 1,
        "type": "channel",
        "subtype": "noteOff",
        "noteNumber": 65,
        "velocity": 0
      },
      {
        "deltaTime": 19,
        "channel": 1,
        "type": "channel",
        "noteNumber": 65,
        "velocity": 52,
        "subtype": "noteOn"
      },
      {
        "deltaTime": 60,
        "channel": 1,
        "type": "channel",
        "subtype": "noteOff",
        "noteNumber": 65,
        "velocity": 0
      },
      {
        "deltaTime": 118,
        "channel": 1,
        "type": "channel",
        "noteNumber": 79,
        "velocity": 46,
        "subtype": "noteOn"
      },
      {
        "deltaTime": 17,
        "channel": 1,
        "type": "channel",
        "noteNumber": 98,
        "velocity": 31,
        "subtype": "noteOn"
      },
      {
        "deltaTime": 9,
        "channel": 1,
        "type": "channel",
        "subtype": "noteOff",
        "noteNumber": 98,
        "velocity": 0
      },
      {
        "deltaTime": 12,
        "channel": 1,
        "type": "channel",
        "noteNumber": 98,
        "velocity": 61,
        "subtype": "noteOn"
      },
      {
        "deltaTime": 3,
        "channel": 1,
        "type": "channel",
        "subtype": "noteOff",
        "noteNumber": 79,
        "velocity": 0
      },
      {
        "deltaTime": 12,
        "channel": 1,
        "type": "channel",
        "noteNumber": 67,
        "velocity": 64,
        "subtype": "noteOn"
      },
      {
        "deltaTime": 24,
        "channel": 1,
        "type": "channel",
        "subtype": "noteOff",
        "noteNumber": 98,
        "velocity": 0
      },
      {
        "deltaTime": 48,
        "channel": 1,
        "type": "channel",
        "subtype": "noteOff",
        "noteNumber": 67,
        "velocity": 0
      },
      {
        "deltaTime": 24,
        "channel": 1,
        "type": "channel",
        "noteNumber": 79,
        "velocity": 53,
        "subtype": "noteOn"
      },
      {
        "deltaTime": 43,
        "channel": 1,
        "type": "channel",
        "subtype": "noteOff",
        "noteNumber": 79,
        "velocity": 0
      },
      {
        "deltaTime": 74,
        "channel": 1,
        "type": "channel",
        "noteNumber": 98,
        "velocity": 46,
        "subtype": "noteOn"
      },
      {
        "deltaTime": 15,
        "channel": 1,
        "type": "channel",
        "subtype": "noteOff",
        "noteNumber": 98,
        "velocity": 0
      },
      {
        "deltaTime": 16,
        "channel": 1,
        "type": "channel",
        "noteNumber": 65,
        "velocity": 47,
        "subtype": "noteOn"
      },
      {
        "deltaTime": 17,
        "channel": 1,
        "type": "channel",
        "noteNumber": 41,
        "velocity": 68,
        "subtype": "noteOn"
      },
      {
        "deltaTime": 89,
        "channel": 1,
        "type": "channel",
        "subtype": "noteOff",
        "noteNumber": 65,
        "velocity": 0
      },
      {
        "deltaTime": 31,
        "channel": 1,
        "type": "channel",
        "noteNumber": 89,
        "velocity": 55,
        "subtype": "noteOn"
      },
      {
        "deltaTime": 12,
        "channel": 1,
        "type": "channel",
        "subtype": "noteOff",
        "noteNumber": 89,
        "velocity": 0
      },
      {
        "deltaTime": 7,
        "channel": 1,
        "type": "channel",
        "noteNumber": 77,
        "velocity": 30,
        "subtype": "noteOn"
      },
      {
        "deltaTime": 29,
        "channel": 1,
        "type": "channel",
        "subtype": "noteOff",
        "noteNumber": 77,
        "velocity": 0
      },
      {
        "deltaTime": 15,
        "channel": 1,
        "type": "channel",
        "noteNumber": 77,
        "velocity": 24,
        "subtype": "noteOn"
      },
      {
        "deltaTime": 14,
        "channel": 1,
        "type": "channel",
        "subtype": "noteOff",
        "noteNumber": 77,
        "velocity": 0
      },
      {
        "deltaTime": 26,
        "channel": 1,
        "type": "channel",
        "noteNumber": 68,
        "velocity": 46,
        "subtype": "noteOn"
      },
      {
        "deltaTime": 3,
        "channel": 1,
        "type": "channel",
        "noteNumber": 96,
        "velocity": 15,
        "subtype": "noteOn"
      },
      {
        "deltaTime": 29,
        "channel": 1,
        "type": "channel",
        "subtype": "noteOff",
        "noteNumber": 96,
        "velocity": 0
      },
      {
        "deltaTime": 19,
        "channel": 1,
        "type": "channel",
        "subtype": "noteOff",
        "noteNumber": 68,
        "velocity": 0
      },
      {
        "deltaTime": 86,
        "channel": 1,
        "type": "channel",
        "noteNumber": 89,
        "velocity": 71,
        "subtype": "noteOn"
      },
      {
        "deltaTime": 17,
        "channel": 1,
        "type": "channel",
        "subtype": "noteOff",
        "noteNumber": 41,
        "velocity": 0
      },
      {
        "deltaTime": 50,
        "channel": 1,
        "type": "channel",
        "noteNumber": 67,
        "velocity": 52,
        "subtype": "noteOn"
      },
      {
        "deltaTime": 22,
        "channel": 1,
        "type": "channel",
        "subtype": "noteOff",
        "noteNumber": 67,
        "velocity": 0
      },
      {
        "deltaTime": 7,
        "channel": 1,
        "type": "channel",
        "noteNumber": 79,
        "velocity": 36,
        "subtype": "noteOn"
      },
      {
        "deltaTime": 3,
        "channel": 1,
        "type": "channel",
        "noteNumber": 75,
        "velocity": 72,
        "subtype": "noteOn"
      },
      {
        "deltaTime": 16,
        "channel": 1,
        "type": "channel",
        "subtype": "noteOff",
        "noteNumber": 79,
        "velocity": 0
      },
      {
        "deltaTime": 60,
        "channel": 1,
        "type": "channel",
        "subtype": "noteOff",
        "noteNumber": 89,
        "velocity": 0
      },
      {
        "deltaTime": 106,
        "channel": 1,
        "type": "channel",
        "subtype": "noteOff",
        "noteNumber": 75,
        "velocity": 0
      },
      {
        "deltaTime": 12,
        "channel": 1,
        "type": "channel",
        "noteNumber": 37,
        "velocity": 61,
        "subtype": "noteOn"
      },
      {
        "deltaTime": 211,
        "channel": 1,
        "type": "channel",
        "noteNumber": 96,
        "velocity": 31,
        "subtype": "noteOn"
      },
      {
        "deltaTime": 0,
        "channel": 1,
        "type": "channel",
        "noteNumber": 65,
        "velocity": 52,
        "subtype": "noteOn"
      },
      {
        "deltaTime": 10,
        "channel": 1,
        "type": "channel",
        "subtype": "noteOff",
        "noteNumber": 96,
        "velocity": 0
      },
      {
        "deltaTime": 53,
        "channel": 1,
        "type": "channel",
        "subtype": "noteOff",
        "noteNumber": 37,
        "velocity": 0
      },
      {
        "deltaTime": 2,
        "channel": 1,
        "type": "channel",
        "subtype": "noteOff",
        "noteNumber": 65,
        "velocity": 0
      },
      {
        "deltaTime": 130,
        "channel": 1,
        "type": "channel",
        "noteNumber": 65,
        "velocity": 60,
        "subtype": "noteOn"
      },
      {
        "deltaTime": 33,
        "channel": 1,
        "type": "channel",
        "subtype": "noteOff",
        "noteNumber": 65,
        "velocity": 0
      },
      {
        "deltaTime": 22,
        "channel": 1,
        "type": "channel",
        "noteNumber": 103,
        "velocity": 53,
        "subtype": "noteOn"
      },
      {
        "deltaTime": 14,
        "channel": 1,
        "type": "channel",
        "subtype": "noteOff",
        "noteNumber": 103,
        "velocity": 0
      },
      {
        "deltaTime": 123,
        "channel": 1,
        "type": "channel",
        "noteNumber": 84,
        "velocity": 15,
        "subtype": "noteOn"
      },
      {
        "deltaTime": 9,
        "channel": 1,
        "type": "channel",
        "subtype": "noteOff",
        "noteNumber": 84,
        "velocity": 0
      },
      {
        "deltaTime": 89,
        "channel": 1,
        "type": "channel",
        "noteNumber": 92,
        "velocity": 55,
        "subtype": "noteOn"
      },
      {
        "deltaTime": 19,
        "channel": 1,
        "type": "channel",
        "subtype": "noteOff",
        "noteNumber": 92,
        "velocity": 0
      },
      {
        "deltaTime": 3,
        "channel": 1,
        "type": "channel",
        "noteNumber": 91,
        "velocity": 54,
        "subtype": "noteOn"
      },
      {
        "deltaTime": 38,
        "channel": 1,
        "type": "channel",
        "subtype": "noteOff",
        "noteNumber": 91,
        "velocity": 0
      },
      {
        "deltaTime": 12,
        "channel": 1,
        "type": "channel",
        "noteNumber": 91,
        "velocity": 48,
        "subtype": "noteOn"
      },
      {
        "deltaTime": 50,
        "channel": 1,
        "type": "channel",
        "subtype": "noteOff",
        "noteNumber": 91,
        "velocity": 0
      },
      {
        "deltaTime": 32,
        "channel": 1,
        "type": "channel",
        "noteNumber": 68,
        "velocity": 46,
        "subtype": "noteOn"
      },
      {
        "deltaTime": 57,
        "channel": 1,
        "type": "channel",
        "subtype": "noteOff",
        "noteNumber": 68,
        "velocity": 0
      },
      {
        "deltaTime": 75,
        "channel": 1,
        "type": "channel",
        "noteNumber": 104,
        "velocity": 49,
        "subtype": "noteOn"
      },
      {
        "deltaTime": 19,
        "channel": 1,
        "type": "channel",
        "subtype": "noteOff",
        "noteNumber": 104,
        "velocity": 0
      },
      {
        "deltaTime": 5,
        "channel": 1,
        "type": "channel",
        "noteNumber": 68,
        "velocity": 54,
        "subtype": "noteOn"
      },
      {
        "deltaTime": 38,
        "channel": 1,
        "type": "channel",
        "subtype": "noteOff",
        "noteNumber": 68,
        "velocity": 0
      },
      {
        "deltaTime": 43,
        "channel": 1,
        "type": "channel",
        "noteNumber": 79,
        "velocity": 32,
        "subtype": "noteOn"
      },
      {
        "deltaTime": 34,
        "channel": 1,
        "type": "channel",
        "subtype": "noteOff",
        "noteNumber": 79,
        "velocity": 0
      },
      {
        "deltaTime": 26,
        "channel": 1,
        "type": "channel",
        "noteNumber": 96,
        "velocity": 62,
        "subtype": "noteOn"
      },
      {
        "deltaTime": 29,
        "channel": 1,
        "type": "channel",
        "subtype": "noteOff",
        "noteNumber": 96,
        "velocity": 0
      },
      {
        "deltaTime": 151,
        "channel": 1,
        "type": "channel",
        "noteNumber": 65,
        "velocity": 54,
        "subtype": "noteOn"
      },
      {
        "deltaTime": 29,
        "channel": 1,
        "type": "channel",
        "subtype": "noteOff",
        "noteNumber": 65,
        "velocity": 0
      },
      {
        "deltaTime": 2,
        "channel": 1,
        "type": "channel",
        "noteNumber": 65,
        "velocity": 65,
        "subtype": "noteOn"
      },
      {
        "deltaTime": 39,
        "channel": 1,
        "type": "channel",
        "subtype": "noteOff",
        "noteNumber": 65,
        "velocity": 0
      },
      {
        "deltaTime": 0,
        "channel": 1,
        "type": "channel",
        "noteNumber": 105,
        "velocity": 65,
        "subtype": "noteOn"
      },
      {
        "deltaTime": 26,
        "channel": 1,
        "type": "channel",
        "subtype": "noteOff",
        "noteNumber": 105,
        "velocity": 0
      },
      {
        "deltaTime": 67,
        "channel": 1,
        "type": "channel",
        "noteNumber": 65,
        "velocity": 43,
        "subtype": "noteOn"
      },
      {
        "deltaTime": 68,
        "channel": 1,
        "type": "channel",
        "subtype": "noteOff",
        "noteNumber": 65,
        "velocity": 0
      },
      {
        "deltaTime": 72,
        "channel": 1,
        "type": "channel",
        "noteNumber": 91,
        "velocity": 56,
        "subtype": "noteOn"
      },
      {
        "deltaTime": 88,
        "channel": 1,
        "type": "channel",
        "subtype": "noteOff",
        "noteNumber": 91,
        "velocity": 0
      },
      {
        "deltaTime": 10,
        "channel": 1,
        "type": "channel",
        "noteNumber": 91,
        "velocity": 50,
        "subtype": "noteOn"
      },
      {
        "deltaTime": 26,
        "channel": 1,
        "type": "channel",
        "subtype": "noteOff",
        "noteNumber": 91,
        "velocity": 0
      },
      {
        "deltaTime": 0,
        "channel": 1,
        "type": "channel",
        "noteNumber": 79,
        "velocity": 39,
        "subtype": "noteOn"
      },
      {
        "deltaTime": 10,
        "channel": 1,
        "type": "channel",
        "subtype": "noteOff",
        "noteNumber": 79,
        "velocity": 0
      },
      {
        "deltaTime": 7,
        "channel": 1,
        "type": "channel",
        "noteNumber": 65,
        "velocity": 44,
        "subtype": "noteOn"
      },
      {
        "deltaTime": 67,
        "channel": 1,
        "type": "channel",
        "subtype": "noteOff",
        "noteNumber": 65,
        "velocity": 0
      },
      {
        "deltaTime": 68,
        "channel": 1,
        "type": "channel",
        "noteNumber": 41,
        "velocity": 68,
        "subtype": "noteOn"
      },
      {
        "deltaTime": 376,
        "channel": 1,
        "type": "channel",
        "subtype": "noteOff",
        "noteNumber": 41,
        "velocity": 0
      },
      {
        "deltaTime": 60,
        "channel": 1,
        "type": "channel",
        "noteNumber": 67,
        "velocity": 56,
        "subtype": "noteOn"
      },
      {
        "deltaTime": 15,
        "channel": 1,
        "type": "channel",
        "subtype": "noteOff",
        "noteNumber": 67,
        "velocity": 0
      },
      {
        "deltaTime": 14,
        "channel": 1,
        "type": "channel",
        "noteNumber": 77,
        "velocity": 53,
        "subtype": "noteOn"
      },
      {
        "deltaTime": 7,
        "channel": 1,
        "type": "channel",
        "noteNumber": 96,
        "velocity": 52,
        "subtype": "noteOn"
      },
      {
        "deltaTime": 15,
        "channel": 1,
        "type": "channel",
        "subtype": "noteOff",
        "noteNumber": 96,
        "velocity": 0
      },
      {
        "deltaTime": 26,
        "channel": 1,
        "type": "channel",
        "subtype": "noteOff",
        "noteNumber": 77,
        "velocity": 0
      },
      {
        "deltaTime": 29,
        "channel": 1,
        "type": "channel",
        "noteNumber": 96,
        "velocity": 67,
        "subtype": "noteOn"
      },
      {
        "deltaTime": 17,
        "channel": 1,
        "type": "channel",
        "noteNumber": 89,
        "velocity": 51,
        "subtype": "noteOn"
      },
      {
        "deltaTime": 33,
        "channel": 1,
        "type": "channel",
        "subtype": "noteOff",
        "noteNumber": 96,
        "velocity": 0
      },
      {
        "deltaTime": 29,
        "channel": 1,
        "type": "channel",
        "subtype": "noteOff",
        "noteNumber": 89,
        "velocity": 0
      },
      {
        "deltaTime": 36,
        "channel": 1,
        "type": "channel",
        "noteNumber": 96,
        "velocity": 28,
        "subtype": "noteOn"
      },
      {
        "deltaTime": 87,
        "channel": 1,
        "type": "channel",
        "noteNumber": 63,
        "velocity": 36,
        "subtype": "noteOn"
      },
      {
        "deltaTime": 24,
        "channel": 1,
        "type": "channel",
        "subtype": "noteOff",
        "noteNumber": 96,
        "velocity": 0
      },
      {
        "deltaTime": 60,
        "channel": 1,
        "type": "channel",
        "noteNumber": 96,
        "velocity": 20,
        "subtype": "noteOn"
      },
      {
        "deltaTime": 19,
        "channel": 1,
        "type": "channel",
        "subtype": "noteOff",
        "noteNumber": 96,
        "velocity": 0
      },
      {
        "deltaTime": 17,
        "channel": 1,
        "type": "channel",
        "noteNumber": 65,
        "velocity": 32,
        "subtype": "noteOn"
      },
      {
        "deltaTime": 64,
        "channel": 1,
        "type": "channel",
        "subtype": "noteOff",
        "noteNumber": 65,
        "velocity": 0
      },
      {
        "deltaTime": 204,
        "channel": 1,
        "type": "channel",
        "subtype": "noteOff",
        "noteNumber": 63,
        "velocity": 0
      },
      {
        "deltaTime": 10,
        "channel": 1,
        "type": "channel",
        "noteNumber": 96,
        "velocity": 28,
        "subtype": "noteOn"
      },
      {
        "deltaTime": 26,
        "channel": 1,
        "type": "channel",
        "subtype": "noteOff",
        "noteNumber": 96,
        "velocity": 0
      },
      {
        "deltaTime": 15,
        "channel": 1,
        "type": "channel",
        "noteNumber": 67,
        "velocity": 31,
        "subtype": "noteOn"
      },
      {
        "deltaTime": 67,
        "channel": 1,
        "type": "channel",
        "subtype": "noteOff",
        "noteNumber": 67,
        "velocity": 0
      },
      {
        "deltaTime": 55,
        "channel": 1,
        "type": "channel",
        "noteNumber": 96,
        "velocity": 26,
        "subtype": "noteOn"
      },
      {
        "deltaTime": 132,
        "channel": 1,
        "type": "channel",
        "subtype": "noteOff",
        "noteNumber": 96,
        "velocity": 0
      },
      {
        "deltaTime": 341,
        "channel": 1,
        "type": "channel",
        "noteNumber": 68,
        "velocity": 41,
        "subtype": "noteOn"
      },
      {
        "deltaTime": 53,
        "channel": 1,
        "type": "channel",
        "subtype": "noteOff",
        "noteNumber": 68,
        "velocity": 0
      },
      {
        "deltaTime": 29,
        "channel": 1,
        "type": "channel",
        "noteNumber": 63,
        "velocity": 15,
        "subtype": "noteOn"
      },
      {
        "deltaTime": 31,
        "channel": 1,
        "type": "channel",
        "subtype": "noteOff",
        "noteNumber": 63,
        "velocity": 0
      },
      {
        "deltaTime": 53,
        "channel": 1,
        "type": "channel",
        "noteNumber": 96,
        "velocity": 29,
        "subtype": "noteOn"
      },
      {
        "deltaTime": 76,
        "channel": 1,
        "type": "channel",
        "noteNumber": 63,
        "velocity": 36,
        "subtype": "noteOn"
      },
      {
        "deltaTime": 29,
        "channel": 1,
        "type": "channel",
        "subtype": "noteOff",
        "noteNumber": 96,
        "velocity": 0
      },
      {
        "deltaTime": 70,
        "channel": 1,
        "type": "channel",
        "noteNumber": 96,
        "velocity": 23,
        "subtype": "noteOn"
      },
      {
        "deltaTime": 9,
        "channel": 1,
        "type": "channel",
        "subtype": "noteOff",
        "noteNumber": 96,
        "velocity": 0
      },
      {
        "deltaTime": 15,
        "channel": 1,
        "type": "channel",
        "noteNumber": 65,
        "velocity": 31,
        "subtype": "noteOn"
      },
      {
        "deltaTime": 67,
        "channel": 1,
        "type": "channel",
        "subtype": "noteOff",
        "noteNumber": 65,
        "velocity": 0
      },
      {
        "deltaTime": 202,
        "channel": 1,
        "type": "channel",
        "subtype": "noteOff",
        "noteNumber": 63,
        "velocity": 0
      },
      {
        "deltaTime": 50,
        "channel": 1,
        "type": "channel",
        "noteNumber": 67,
        "velocity": 39,
        "subtype": "noteOn"
      },
      {
        "deltaTime": 38,
        "channel": 1,
        "type": "channel",
        "noteNumber": 97,
        "velocity": 28,
        "subtype": "noteOn"
      },
      {
        "deltaTime": 10,
        "channel": 1,
        "type": "channel",
        "subtype": "noteOff",
        "noteNumber": 97,
        "velocity": 0
      },
      {
        "deltaTime": 19,
        "channel": 1,
        "type": "channel",
        "subtype": "noteOff",
        "noteNumber": 67,
        "velocity": 0
      },
      {
        "deltaTime": 70,
        "channel": 1,
        "type": "channel",
        "noteNumber": 96,
        "velocity": 29,
        "subtype": "noteOn"
      },
      {
        "deltaTime": 98,
        "channel": 1,
        "type": "channel",
        "subtype": "noteOff",
        "noteNumber": 96,
        "velocity": 0
      },
      {
        "deltaTime": 358,
        "channel": 1,
        "type": "channel",
        "noteNumber": 68,
        "velocity": 39,
        "subtype": "noteOn"
      },
      {
        "deltaTime": 57,
        "channel": 1,
        "type": "channel",
        "subtype": "noteOff",
        "noteNumber": 68,
        "velocity": 0
      },
      {
        "deltaTime": 27,
        "channel": 1,
        "type": "channel",
        "noteNumber": 63,
        "velocity": 14,
        "subtype": "noteOn"
      },
      {
        "deltaTime": 31,
        "channel": 1,
        "type": "channel",
        "subtype": "noteOff",
        "noteNumber": 63,
        "velocity": 0
      },
      {
        "deltaTime": 50,
        "channel": 1,
        "type": "channel",
        "noteNumber": 96,
        "velocity": 30,
        "subtype": "noteOn"
      },
      {
        "deltaTime": 82,
        "channel": 1,
        "type": "channel",
        "noteNumber": 63,
        "velocity": 30,
        "subtype": "noteOn"
      },
      {
        "deltaTime": 26,
        "channel": 1,
        "type": "channel",
        "subtype": "noteOff",
        "noteNumber": 96,
        "velocity": 0
      },
      {
        "deltaTime": 365,
        "channel": 1,
        "type": "channel",
        "subtype": "noteOff",
        "noteNumber": 63,
        "velocity": 0
      },
      {
        "deltaTime": 43,
        "channel": 1,
        "type": "channel",
        "noteNumber": 79,
        "velocity": 38,
        "subtype": "noteOn"
      },
      {
        "deltaTime": 17,
        "channel": 1,
        "type": "channel",
        "subtype": "noteOff",
        "noteNumber": 79,
        "velocity": 0
      },
      {
        "deltaTime": 180,
        "channel": 1,
        "type": "channel",
        "noteNumber": 79,
        "velocity": 38,
        "subtype": "noteOn"
      },
      {
        "deltaTime": 22,
        "channel": 1,
        "type": "channel",
        "subtype": "noteOff",
        "noteNumber": 79,
        "velocity": 0
      },
      {
        "deltaTime": 60,
        "channel": 1,
        "type": "channel",
        "noteNumber": 79,
        "velocity": 24,
        "subtype": "noteOn"
      },
      {
        "deltaTime": 33,
        "channel": 1,
        "type": "channel",
        "subtype": "noteOff",
        "noteNumber": 79,
        "velocity": 0
      },
      {
        "deltaTime": 15,
        "channel": 1,
        "type": "channel",
        "noteNumber": 68,
        "velocity": 39,
        "subtype": "noteOn"
      },
      {
        "deltaTime": 36,
        "channel": 1,
        "type": "channel",
        "noteNumber": 70,
        "velocity": 48,
        "subtype": "noteOn"
      },
      {
        "deltaTime": 21,
        "channel": 1,
        "type": "channel",
        "subtype": "noteOff",
        "noteNumber": 68,
        "velocity": 0
      },
      {
        "deltaTime": 51,
        "channel": 1,
        "type": "channel",
        "noteNumber": 89,
        "velocity": 26,
        "subtype": "noteOn"
      },
      {
        "deltaTime": 43,
        "channel": 1,
        "type": "channel",
        "subtype": "noteOff",
        "noteNumber": 70,
        "velocity": 0
      },
      {
        "deltaTime": 70,
        "channel": 1,
        "type": "channel",
        "subtype": "noteOff",
        "noteNumber": 89,
        "velocity": 0
      },
      {
        "deltaTime": 14,
        "channel": 1,
        "type": "channel",
        "noteNumber": 79,
        "velocity": 32,
        "subtype": "noteOn"
      },
      {
        "deltaTime": 36,
        "channel": 1,
        "type": "channel",
        "subtype": "noteOff",
        "noteNumber": 79,
        "velocity": 0
      },
      {
        "deltaTime": 50,
        "channel": 1,
        "type": "channel",
        "noteNumber": 89,
        "velocity": 17,
        "subtype": "noteOn"
      },
      {
        "deltaTime": 36,
        "channel": 1,
        "type": "channel",
        "noteNumber": 63,
        "velocity": 14,
        "subtype": "noteOn"
      },
      {
        "deltaTime": 17,
        "channel": 1,
        "type": "channel",
        "subtype": "noteOff",
        "noteNumber": 89,
        "velocity": 0
      },
      {
        "deltaTime": 19,
        "channel": 1,
        "type": "channel",
        "subtype": "noteOff",
        "noteNumber": 63,
        "velocity": 0
      },
      {
        "deltaTime": 125,
        "channel": 1,
        "type": "channel",
        "noteNumber": 63,
        "velocity": 38,
        "subtype": "noteOn"
      },
      {
        "deltaTime": 257,
        "channel": 1,
        "type": "channel",
        "noteNumber": 96,
        "velocity": 36,
        "subtype": "noteOn"
      },
      {
        "deltaTime": 53,
        "channel": 1,
        "type": "channel",
        "subtype": "noteOff",
        "noteNumber": 96,
        "velocity": 0
      },
      {
        "deltaTime": 2,
        "channel": 1,
        "type": "channel",
        "subtype": "noteOff",
        "noteNumber": 63,
        "velocity": 0
      },
      {
        "deltaTime": 7,
        "channel": 1,
        "type": "channel",
        "noteNumber": 65,
        "velocity": 37,
        "subtype": "noteOn"
      },
      {
        "deltaTime": 39,
        "channel": 1,
        "type": "channel",
        "noteNumber": 67,
        "velocity": 39,
        "subtype": "noteOn"
      },
      {
        "deltaTime": 33,
        "channel": 1,
        "type": "channel",
        "subtype": "noteOff",
        "noteNumber": 65,
        "velocity": 0
      },
      {
        "deltaTime": 36,
        "channel": 1,
        "type": "channel",
        "subtype": "noteOff",
        "noteNumber": 67,
        "velocity": 0
      },
      {
        "deltaTime": 12,
        "channel": 1,
        "type": "channel",
        "noteNumber": 67,
        "velocity": 43,
        "subtype": "noteOn"
      },
      {
        "deltaTime": 68,
        "channel": 1,
        "type": "channel",
        "subtype": "noteOff",
        "noteNumber": 67,
        "velocity": 0
      },
      {
        "deltaTime": 9,
        "channel": 1,
        "type": "channel",
        "noteNumber": 77,
        "velocity": 27,
        "subtype": "noteOn"
      },
      {
        "deltaTime": 10,
        "channel": 1,
        "type": "channel",
        "subtype": "noteOff",
        "noteNumber": 77,
        "velocity": 0
      },
      {
        "deltaTime": 0,
        "channel": 1,
        "type": "channel",
        "noteNumber": 96,
        "velocity": 19,
        "subtype": "noteOn"
      },
      {
        "deltaTime": 69,
        "channel": 1,
        "type": "channel",
        "subtype": "noteOff",
        "noteNumber": 96,
        "velocity": 0
      },
      {
        "deltaTime": 5,
        "channel": 1,
        "type": "channel",
        "noteNumber": 68,
        "velocity": 42,
        "subtype": "noteOn"
      },
      {
        "deltaTime": 39,
        "channel": 1,
        "type": "channel",
        "subtype": "noteOff",
        "noteNumber": 68,
        "velocity": 0
      },
      {
        "deltaTime": 0,
        "type": "meta",
        "subtype": "endOfTrack"
      }
    ],
    [
      {
        "deltaTime": 2111,
        "channel": 1,
        "type": "channel",
        "noteNumber": 62,
        "velocity": 15,
        "subtype": "noteOn"
      },
      {
        "deltaTime": 291,
        "channel": 1,
        "type": "channel",
        "subtype": "noteOff",
        "noteNumber": 62,
        "velocity": 0
      },
      {
        "deltaTime": 350,
        "channel": 1,
        "type": "channel",
        "noteNumber": 62,
        "velocity": 19,
        "subtype": "noteOn"
      },
      {
        "deltaTime": 149,
        "channel": 1,
        "type": "channel",
        "subtype": "noteOff",
        "noteNumber": 62,
        "velocity": 0
      },
      {
        "deltaTime": 1654,
        "channel": 1,
        "type": "channel",
        "noteNumber": 71,
        "velocity": 12,
        "subtype": "noteOn"
      },
      {
        "deltaTime": 76,
        "channel": 1,
        "type": "channel",
        "subtype": "noteOff",
        "noteNumber": 71,
        "velocity": 0
      },
      {
        "deltaTime": 608,
        "channel": 1,
        "type": "channel",
        "noteNumber": 54,
        "velocity": 30,
        "subtype": "noteOn"
      },
      {
        "deltaTime": 223,
        "channel": 1,
        "type": "channel",
        "subtype": "noteOff",
        "noteNumber": 54,
        "velocity": 0
      },
      {
        "deltaTime": 1771,
        "channel": 1,
        "type": "channel",
        "noteNumber": 62,
        "velocity": 18,
        "subtype": "noteOn"
      },
      {
        "deltaTime": 283,
        "channel": 1,
        "type": "channel",
        "subtype": "noteOff",
        "noteNumber": 62,
        "velocity": 0
      },
      {
        "deltaTime": 240,
        "channel": 1,
        "type": "channel",
        "noteNumber": 78,
        "velocity": 22,
        "subtype": "noteOn"
      },
      {
        "deltaTime": 46,
        "channel": 1,
        "type": "channel",
        "subtype": "noteOff",
        "noteNumber": 78,
        "velocity": 0
      },
      {
        "deltaTime": 72,
        "channel": 1,
        "type": "channel",
        "noteNumber": 62,
        "velocity": 17,
        "subtype": "noteOn"
      },
      {
        "deltaTime": 156,
        "channel": 1,
        "type": "channel",
        "subtype": "noteOff",
        "noteNumber": 62,
        "velocity": 0
      },
      {
        "deltaTime": 1627,
        "channel": 1,
        "type": "channel",
        "noteNumber": 69,
        "velocity": 15,
        "subtype": "noteOn"
      },
      {
        "deltaTime": 245,
        "channel": 1,
        "type": "channel",
        "subtype": "noteOff",
        "noteNumber": 69,
        "velocity": 0
      },
      {
        "deltaTime": 1644,
        "channel": 1,
        "type": "channel",
        "noteNumber": 90,
        "velocity": 44,
        "subtype": "noteOn"
      },
      {
        "deltaTime": 5,
        "channel": 1,
        "type": "channel",
        "noteNumber": 74,
        "velocity": 19,
        "subtype": "noteOn"
      },
      {
        "deltaTime": 60,
        "channel": 1,
        "type": "channel",
        "subtype": "noteOff",
        "noteNumber": 74,
        "velocity": 0
      },
      {
        "deltaTime": 2,
        "channel": 1,
        "type": "channel",
        "noteNumber": 55,
        "velocity": 11,
        "subtype": "noteOn"
      },
      {
        "deltaTime": 24,
        "channel": 1,
        "type": "channel",
        "subtype": "noteOff",
        "noteNumber": 55,
        "velocity": 0
      },
      {
        "deltaTime": 41,
        "channel": 1,
        "type": "channel",
        "subtype": "noteOff",
        "noteNumber": 90,
        "velocity": 0
      },
      {
        "deltaTime": 0,
        "channel": 1,
        "type": "channel",
        "noteNumber": 50,
        "velocity": 24,
        "subtype": "noteOn"
      },
      {
        "deltaTime": 17,
        "channel": 1,
        "type": "channel",
        "subtype": "noteOff",
        "noteNumber": 50,
        "velocity": 0
      },
      {
        "deltaTime": 4,
        "channel": 1,
        "type": "channel",
        "noteNumber": 36,
        "velocity": 35,
        "subtype": "noteOn"
      },
      {
        "deltaTime": 12,
        "channel": 1,
        "type": "channel",
        "noteNumber": 82,
        "velocity": 30,
        "subtype": "noteOn"
      },
      {
        "deltaTime": 3,
        "channel": 1,
        "type": "channel",
        "subtype": "noteOff",
        "noteNumber": 36,
        "velocity": 0
      },
      {
        "deltaTime": 2,
        "channel": 1,
        "type": "channel",
        "noteNumber": 39,
        "velocity": 19,
        "subtype": "noteOn"
      },
      {
        "deltaTime": 7,
        "channel": 1,
        "type": "channel",
        "subtype": "noteOff",
        "noteNumber": 82,
        "velocity": 0
      },
      {
        "deltaTime": 24,
        "channel": 1,
        "type": "channel",
        "subtype": "noteOff",
        "noteNumber": 39,
        "velocity": 0
      },
      {
        "deltaTime": 65,
        "channel": 1,
        "type": "channel",
        "noteNumber": 37,
        "velocity": 36,
        "subtype": "noteOn"
      },
      {
        "deltaTime": 17,
        "channel": 1,
        "type": "channel",
        "subtype": "noteOff",
        "noteNumber": 37,
        "velocity": 0
      },
      {
        "deltaTime": 14,
        "channel": 1,
        "type": "channel",
        "noteNumber": 59,
        "velocity": 18,
        "subtype": "noteOn"
      },
      {
        "deltaTime": 20,
        "channel": 1,
        "type": "channel",
        "subtype": "noteOff",
        "noteNumber": 59,
        "velocity": 0
      },
      {
        "deltaTime": 12,
        "channel": 1,
        "type": "channel",
        "noteNumber": 32,
        "velocity": 24,
        "subtype": "noteOn"
      },
      {
        "deltaTime": 24,
        "channel": 1,
        "type": "channel",
        "subtype": "noteOff",
        "noteNumber": 32,
        "velocity": 0
      },
      {
        "deltaTime": 72,
        "channel": 1,
        "type": "channel",
        "noteNumber": 33,
        "velocity": 31,
        "subtype": "noteOn"
      },
      {
        "deltaTime": 9,
        "channel": 1,
        "type": "channel",
        "subtype": "noteOff",
        "noteNumber": 33,
        "velocity": 0
      },
      {
        "deltaTime": 17,
        "channel": 1,
        "type": "channel",
        "noteNumber": 34,
        "velocity": 38,
        "subtype": "noteOn"
      },
      {
        "deltaTime": 34,
        "channel": 1,
        "type": "channel",
        "subtype": "noteOff",
        "noteNumber": 34,
        "velocity": 0
      },
      {
        "deltaTime": 168,
        "channel": 1,
        "type": "channel",
        "noteNumber": 59,
        "velocity": 20,
        "subtype": "noteOn"
      },
      {
        "deltaTime": 19,
        "channel": 1,
        "type": "channel",
        "subtype": "noteOff",
        "noteNumber": 59,
        "velocity": 0
      },
      {
        "deltaTime": 19,
        "channel": 1,
        "type": "channel",
        "noteNumber": 32,
        "velocity": 12,
        "subtype": "noteOn"
      },
      {
        "deltaTime": 12,
        "channel": 1,
        "type": "channel",
        "subtype": "noteOff",
        "noteNumber": 32,
        "velocity": 0
      },
      {
        "deltaTime": 24,
        "channel": 1,
        "type": "channel",
        "noteNumber": 62,
        "velocity": 24,
        "subtype": "noteOn"
      },
      {
        "deltaTime": 26,
        "channel": 1,
        "type": "channel",
        "subtype": "noteOff",
        "noteNumber": 62,
        "velocity": 0
      },
      {
        "deltaTime": 34,
        "channel": 1,
        "type": "channel",
        "noteNumber": 71,
        "velocity": 19,
        "subtype": "noteOn"
      },
      {
        "deltaTime": 10,
        "channel": 1,
        "type": "channel",
        "subtype": "noteOff",
        "noteNumber": 71,
        "velocity": 0
      },
      {
        "deltaTime": 112,
        "channel": 1,
        "type": "channel",
        "noteNumber": 66,
        "velocity": 10,
        "subtype": "noteOn"
      },
      {
        "deltaTime": 68,
        "channel": 1,
        "type": "channel",
        "subtype": "noteOff",
        "noteNumber": 66,
        "velocity": 0
      },
      {
        "deltaTime": 52,
        "channel": 1,
        "type": "channel",
        "noteNumber": 36,
        "velocity": 16,
        "subtype": "noteOn"
      },
      {
        "deltaTime": 22,
        "channel": 1,
        "type": "channel",
        "subtype": "noteOff",
        "noteNumber": 36,
        "velocity": 0
      },
      {
        "deltaTime": 53,
        "channel": 1,
        "type": "channel",
        "noteNumber": 46,
        "velocity": 11,
        "subtype": "noteOn"
      },
      {
        "deltaTime": 12,
        "channel": 1,
        "type": "channel",
        "subtype": "noteOff",
        "noteNumber": 46,
        "velocity": 0
      },
      {
        "deltaTime": 24,
        "channel": 1,
        "type": "channel",
        "noteNumber": 45,
        "velocity": 20,
        "subtype": "noteOn"
      },
      {
        "deltaTime": 21,
        "channel": 1,
        "type": "channel",
        "subtype": "noteOff",
        "noteNumber": 45,
        "velocity": 0
      },
      {
        "deltaTime": 152,
        "channel": 1,
        "type": "channel",
        "noteNumber": 38,
        "velocity": 19,
        "subtype": "noteOn"
      },
      {
        "deltaTime": 38,
        "channel": 1,
        "type": "channel",
        "subtype": "noteOff",
        "noteNumber": 38,
        "velocity": 0
      },
      {
        "deltaTime": 17,
        "channel": 1,
        "type": "channel",
        "noteNumber": 59,
        "velocity": 20,
        "subtype": "noteOn"
      },
      {
        "deltaTime": 26,
        "channel": 1,
        "type": "channel",
        "subtype": "noteOff",
        "noteNumber": 59,
        "velocity": 0
      },
      {
        "deltaTime": 63,
        "channel": 1,
        "type": "channel",
        "noteNumber": 31,
        "velocity": 10,
        "subtype": "noteOn"
      },
      {
        "deltaTime": 112,
        "channel": 1,
        "type": "channel",
        "subtype": "noteOff",
        "noteNumber": 31,
        "velocity": 0
      },
      {
        "deltaTime": 41,
        "channel": 1,
        "type": "channel",
        "noteNumber": 57,
        "velocity": 29,
        "subtype": "noteOn"
      },
      {
        "deltaTime": 22,
        "channel": 1,
        "type": "channel",
        "subtype": "noteOff",
        "noteNumber": 57,
        "velocity": 0
      },
      {
        "deltaTime": 33,
        "channel": 1,
        "type": "channel",
        "noteNumber": 33,
        "velocity": 46,
        "subtype": "noteOn"
      },
      {
        "deltaTime": 65,
        "channel": 1,
        "type": "channel",
        "subtype": "noteOff",
        "noteNumber": 33,
        "velocity": 0
      },
      {
        "deltaTime": 0,
        "channel": 1,
        "type": "channel",
        "noteNumber": 61,
        "velocity": 36,
        "subtype": "noteOn"
      },
      {
        "deltaTime": 24,
        "channel": 1,
        "type": "channel",
        "subtype": "noteOff",
        "noteNumber": 61,
        "velocity": 0
      },
      {
        "deltaTime": 211,
        "channel": 1,
        "type": "channel",
        "noteNumber": 90,
        "velocity": 13,
        "subtype": "noteOn"
      },
      {
        "deltaTime": 96,
        "channel": 1,
        "type": "channel",
        "subtype": "noteOff",
        "noteNumber": 90,
        "velocity": 0
      },
      {
        "deltaTime": 260,
        "channel": 1,
        "type": "channel",
        "noteNumber": 83,
        "velocity": 27,
        "subtype": "noteOn"
      },
      {
        "deltaTime": 31,
        "channel": 1,
        "type": "channel",
        "subtype": "noteOff",
        "noteNumber": 83,
        "velocity": 0
      },
      {
        "deltaTime": 29,
        "channel": 1,
        "type": "channel",
        "noteNumber": 59,
        "velocity": 18,
        "subtype": "noteOn"
      },
      {
        "deltaTime": 16,
        "channel": 1,
        "type": "channel",
        "noteNumber": 42,
        "velocity": 24,
        "subtype": "noteOn"
      },
      {
        "deltaTime": 3,
        "channel": 1,
        "type": "channel",
        "subtype": "noteOff",
        "noteNumber": 59,
        "velocity": 0
      },
      {
        "deltaTime": 26,
        "channel": 1,
        "type": "channel",
        "subtype": "noteOff",
        "noteNumber": 42,
        "velocity": 0
      },
      {
        "deltaTime": 24,
        "channel": 1,
        "type": "channel",
        "noteNumber": 66,
        "velocity": 29,
        "subtype": "noteOn"
      },
      {
        "deltaTime": 118,
        "channel": 1,
        "type": "channel",
        "noteNumber": 55,
        "velocity": 48,
        "subtype": "noteOn"
      },
      {
        "deltaTime": 7,
        "channel": 1,
        "type": "channel",
        "subtype": "noteOff",
        "noteNumber": 66,
        "velocity": 0
      },
      {
        "deltaTime": 24,
        "channel": 1,
        "type": "channel",
        "subtype": "noteOff",
        "noteNumber": 55,
        "velocity": 0
      },
      {
        "deltaTime": 46,
        "channel": 1,
        "type": "channel",
        "noteNumber": 59,
        "velocity": 36,
        "subtype": "noteOn"
      },
      {
        "deltaTime": 31,
        "channel": 1,
        "type": "channel",
        "subtype": "noteOff",
        "noteNumber": 59,
        "velocity": 0
      },
      {
        "deltaTime": 14,
        "channel": 1,
        "type": "channel",
        "noteNumber": 50,
        "velocity": 20,
        "subtype": "noteOn"
      },
      {
        "deltaTime": 17,
        "channel": 1,
        "type": "channel",
        "subtype": "noteOff",
        "noteNumber": 50,
        "velocity": 0
      },
      {
        "deltaTime": 24,
        "channel": 1,
        "type": "channel",
        "noteNumber": 59,
        "velocity": 20,
        "subtype": "noteOn"
      },
      {
        "deltaTime": 24,
        "channel": 1,
        "type": "channel",
        "subtype": "noteOff",
        "noteNumber": 59,
        "velocity": 0
      },
      {
        "deltaTime": 132,
        "channel": 1,
        "type": "channel",
        "noteNumber": 57,
        "velocity": 16,
        "subtype": "noteOn"
      },
      {
        "deltaTime": 36,
        "channel": 1,
        "type": "channel",
        "subtype": "noteOff",
        "noteNumber": 57,
        "velocity": 0
      },
      {
        "deltaTime": 2,
        "channel": 1,
        "type": "channel",
        "noteNumber": 52,
        "velocity": 27,
        "subtype": "noteOn"
      },
      {
        "deltaTime": 70,
        "channel": 1,
        "type": "channel",
        "subtype": "noteOff",
        "noteNumber": 52,
        "velocity": 0
      },
      {
        "deltaTime": 34,
        "channel": 1,
        "type": "channel",
        "noteNumber": 33,
        "velocity": 28,
        "subtype": "noteOn"
      },
      {
        "deltaTime": 16,
        "channel": 1,
        "type": "channel",
        "noteNumber": 42,
        "velocity": 21,
        "subtype": "noteOn"
      },
      {
        "deltaTime": 22,
        "channel": 1,
        "type": "channel",
        "subtype": "noteOff",
        "noteNumber": 42,
        "velocity": 0
      },
      {
        "deltaTime": 142,
        "channel": 1,
        "type": "channel",
        "subtype": "noteOff",
        "noteNumber": 33,
        "velocity": 0
      },
      {
        "deltaTime": 110,
        "channel": 1,
        "type": "channel",
        "noteNumber": 85,
        "velocity": 27,
        "subtype": "noteOn"
      },
      {
        "deltaTime": 36,
        "channel": 1,
        "type": "channel",
        "subtype": "noteOff",
        "noteNumber": 85,
        "velocity": 0
      },
      {
        "deltaTime": 120,
        "channel": 1,
        "type": "channel",
        "noteNumber": 35,
        "velocity": 31,
        "subtype": "noteOn"
      },
      {
        "deltaTime": 58,
        "channel": 1,
        "type": "channel",
        "subtype": "noteOff",
        "noteNumber": 35,
        "velocity": 0
      },
      {
        "deltaTime": 14,
        "channel": 1,
        "type": "channel",
        "noteNumber": 59,
        "velocity": 21,
        "subtype": "noteOn"
      },
      {
        "deltaTime": 89,
        "channel": 1,
        "type": "channel",
        "subtype": "noteOff",
        "noteNumber": 59,
        "velocity": 0
      },
      {
        "deltaTime": 36,
        "channel": 1,
        "type": "channel",
        "noteNumber": 38,
        "velocity": 16,
        "subtype": "noteOn"
      },
      {
        "deltaTime": 36,
        "channel": 1,
        "type": "channel",
        "noteNumber": 66,
        "velocity": 11,
        "subtype": "noteOn"
      },
      {
        "deltaTime": 7,
        "channel": 1,
        "type": "channel",
        "subtype": "noteOff",
        "noteNumber": 38,
        "velocity": 0
      },
      {
        "deltaTime": 84,
        "channel": 1,
        "type": "channel",
        "subtype": "noteOff",
        "noteNumber": 66,
        "velocity": 0
      },
      {
        "deltaTime": 43,
        "channel": 1,
        "type": "channel",
        "noteNumber": 74,
        "velocity": 17,
        "subtype": "noteOn"
      },
      {
        "deltaTime": 87,
        "channel": 1,
        "type": "channel",
        "noteNumber": 59,
        "velocity": 16,
        "subtype": "noteOn"
      },
      {
        "deltaTime": 24,
        "channel": 1,
        "type": "channel",
        "subtype": "noteOff",
        "noteNumber": 59,
        "velocity": 0
      },
      {
        "deltaTime": 14,
        "channel": 1,
        "type": "channel",
        "subtype": "noteOff",
        "noteNumber": 74,
        "velocity": 0
      },
      {
        "deltaTime": 22,
        "channel": 1,
        "type": "channel",
        "noteNumber": 36,
        "velocity": 19,
        "subtype": "noteOn"
      },
      {
        "deltaTime": 19,
        "channel": 1,
        "type": "channel",
        "subtype": "noteOff",
        "noteNumber": 36,
        "velocity": 0
      },
      {
        "deltaTime": 9,
        "channel": 1,
        "type": "channel",
        "noteNumber": 31,
        "velocity": 11,
        "subtype": "noteOn"
      },
      {
        "deltaTime": 39,
        "channel": 1,
        "type": "channel",
        "subtype": "noteOff",
        "noteNumber": 31,
        "velocity": 0
      },
      {
        "deltaTime": 141,
        "channel": 1,
        "type": "channel",
        "noteNumber": 36,
        "velocity": 24,
        "subtype": "noteOn"
      },
      {
        "deltaTime": 17,
        "channel": 1,
        "type": "channel",
        "subtype": "noteOff",
        "noteNumber": 36,
        "velocity": 0
      },
      {
        "deltaTime": 96,
        "channel": 1,
        "type": "channel",
        "noteNumber": 36,
        "velocity": 33,
        "subtype": "noteOn"
      },
      {
        "deltaTime": 15,
        "channel": 1,
        "type": "channel",
        "noteNumber": 82,
        "velocity": 20,
        "subtype": "noteOn"
      },
      {
        "deltaTime": 4,
        "channel": 1,
        "type": "channel",
        "subtype": "noteOff",
        "noteNumber": 36,
        "velocity": 0
      },
      {
        "deltaTime": 10,
        "channel": 1,
        "type": "channel",
        "subtype": "noteOff",
        "noteNumber": 82,
        "velocity": 0
      },
      {
        "deltaTime": 607,
        "channel": 1,
        "type": "channel",
        "noteNumber": 59,
        "velocity": 15,
        "subtype": "noteOn"
      },
      {
        "deltaTime": 12,
        "channel": 1,
        "type": "channel",
        "noteNumber": 42,
        "velocity": 20,
        "subtype": "noteOn"
      },
      {
        "deltaTime": 3,
        "channel": 1,
        "type": "channel",
        "subtype": "noteOff",
        "noteNumber": 59,
        "velocity": 0
      },
      {
        "deltaTime": 0,
        "channel": 1,
        "type": "channel",
        "noteNumber": 80,
        "velocity": 20,
        "subtype": "noteOn"
      },
      {
        "deltaTime": 9,
        "channel": 1,
        "type": "channel",
        "subtype": "noteOff",
        "noteNumber": 80,
        "velocity": 0
      },
      {
        "deltaTime": 15,
        "channel": 1,
        "type": "channel",
        "subtype": "noteOff",
        "noteNumber": 42,
        "velocity": 0
      },
      {
        "deltaTime": 168,
        "channel": 1,
        "type": "channel",
        "noteNumber": 36,
        "velocity": 21,
        "subtype": "noteOn"
      },
      {
        "deltaTime": 21,
        "channel": 1,
        "type": "channel",
        "subtype": "noteOff",
        "noteNumber": 36,
        "velocity": 0
      },
      {
        "deltaTime": 19,
        "channel": 1,
        "type": "channel",
        "noteNumber": 59,
        "velocity": 43,
        "subtype": "noteOn"
      },
      {
        "deltaTime": 56,
        "channel": 1,
        "type": "channel",
        "noteNumber": 50,
        "velocity": 28,
        "subtype": "noteOn"
      },
      {
        "deltaTime": 24,
        "channel": 1,
        "type": "channel",
        "subtype": "noteOff",
        "noteNumber": 50,
        "velocity": 0
      },
      {
        "deltaTime": 7,
        "channel": 1,
        "type": "channel",
        "subtype": "noteOff",
        "noteNumber": 59,
        "velocity": 0
      },
      {
        "deltaTime": 149,
        "channel": 1,
        "type": "channel",
        "noteNumber": 74,
        "velocity": 17,
        "subtype": "noteOn"
      },
      {
        "deltaTime": 9,
        "channel": 1,
        "type": "channel",
        "noteNumber": 33,
        "velocity": 22,
        "subtype": "noteOn"
      },
      {
        "deltaTime": 12,
        "channel": 1,
        "type": "channel",
        "subtype": "noteOff",
        "noteNumber": 74,
        "velocity": 0
      },
      {
        "deltaTime": 36,
        "channel": 1,
        "type": "channel",
        "subtype": "noteOff",
        "noteNumber": 33,
        "velocity": 0
      },
      {
        "deltaTime": 41,
        "channel": 1,
        "type": "channel",
        "noteNumber": 61,
        "velocity": 30,
        "subtype": "noteOn"
      },
      {
        "deltaTime": 70,
        "channel": 1,
        "type": "channel",
        "subtype": "noteOff",
        "noteNumber": 61,
        "velocity": 0
      },
      {
        "deltaTime": 249,
        "channel": 1,
        "type": "channel",
        "noteNumber": 62,
        "velocity": 24,
        "subtype": "noteOn"
      },
      {
        "deltaTime": 24,
        "channel": 1,
        "type": "channel",
        "subtype": "noteOff",
        "noteNumber": 62,
        "velocity": 0
      },
      {
        "deltaTime": 298,
        "channel": 1,
        "type": "channel",
        "noteNumber": 62,
        "velocity": 21,
        "subtype": "noteOn"
      },
      {
        "deltaTime": 67,
        "channel": 1,
        "type": "channel",
        "subtype": "noteOff",
        "noteNumber": 62,
        "velocity": 0
      },
      {
        "deltaTime": 22,
        "channel": 1,
        "type": "channel",
        "noteNumber": 52,
        "velocity": 10,
        "subtype": "noteOn"
      },
      {
        "deltaTime": 24,
        "channel": 1,
        "type": "channel",
        "subtype": "noteOff",
        "noteNumber": 52,
        "velocity": 0
      },
      {
        "deltaTime": 153,
        "channel": 1,
        "type": "channel",
        "noteNumber": 36,
        "velocity": 24,
        "subtype": "noteOn"
      },
      {
        "deltaTime": 15,
        "channel": 1,
        "type": "channel",
        "subtype": "noteOff",
        "noteNumber": 36,
        "velocity": 0
      },
      {
        "deltaTime": 38,
        "channel": 1,
        "type": "channel",
        "noteNumber": 59,
        "velocity": 21,
        "subtype": "noteOn"
      },
      {
        "deltaTime": 22,
        "channel": 1,
        "type": "channel",
        "subtype": "noteOff",
        "noteNumber": 59,
        "velocity": 0
      },
      {
        "deltaTime": 40,
        "channel": 1,
        "type": "channel",
        "noteNumber": 36,
        "velocity": 21,
        "subtype": "noteOn"
      },
      {
        "deltaTime": 22,
        "channel": 1,
        "type": "channel",
        "subtype": "noteOff",
        "noteNumber": 36,
        "velocity": 0
      },
      {
        "deltaTime": 142,
        "channel": 1,
        "type": "channel",
        "noteNumber": 38,
        "velocity": 15,
        "subtype": "noteOn"
      },
      {
        "deltaTime": 19,
        "channel": 1,
        "type": "channel",
        "noteNumber": 32,
        "velocity": 19,
        "subtype": "noteOn"
      },
      {
        "deltaTime": 2,
        "channel": 1,
        "type": "channel",
        "subtype": "noteOff",
        "noteNumber": 38,
        "velocity": 0
      },
      {
        "deltaTime": 22,
        "channel": 1,
        "type": "channel",
        "subtype": "noteOff",
        "noteNumber": 32,
        "velocity": 0
      },
      {
        "deltaTime": 115,
        "channel": 1,
        "type": "channel",
        "noteNumber": 64,
        "velocity": 41,
        "subtype": "noteOn"
      },
      {
        "deltaTime": 14,
        "channel": 1,
        "type": "channel",
        "noteNumber": 82,
        "velocity": 17,
        "subtype": "noteOn"
      },
      {
        "deltaTime": 3,
        "channel": 1,
        "type": "channel",
        "subtype": "noteOff",
        "noteNumber": 64,
        "velocity": 0
      },
      {
        "deltaTime": 9,
        "channel": 1,
        "type": "channel",
        "subtype": "noteOff",
        "noteNumber": 82,
        "velocity": 0
      },
      {
        "deltaTime": 188,
        "channel": 1,
        "type": "channel",
        "noteNumber": 33,
        "velocity": 17,
        "subtype": "noteOn"
      },
      {
        "deltaTime": 9,
        "channel": 1,
        "type": "channel",
        "subtype": "noteOff",
        "noteNumber": 33,
        "velocity": 0
      },
      {
        "deltaTime": 31,
        "channel": 1,
        "type": "channel",
        "noteNumber": 62,
        "velocity": 28,
        "subtype": "noteOn"
      },
      {
        "deltaTime": 27,
        "channel": 1,
        "type": "channel",
        "subtype": "noteOff",
        "noteNumber": 62,
        "velocity": 0
      },
      {
        "deltaTime": 14,
        "channel": 1,
        "type": "channel",
        "noteNumber": 71,
        "velocity": 22,
        "subtype": "noteOn"
      },
      {
        "deltaTime": 27,
        "channel": 1,
        "type": "channel",
        "subtype": "noteOff",
        "noteNumber": 71,
        "velocity": 0
      },
      {
        "deltaTime": 206,
        "channel": 1,
        "type": "channel",
        "noteNumber": 66,
        "velocity": 28,
        "subtype": "noteOn"
      },
      {
        "deltaTime": 10,
        "channel": 1,
        "type": "channel",
        "noteNumber": 59,
        "velocity": 30,
        "subtype": "noteOn"
      },
      {
        "deltaTime": 72,
        "channel": 1,
        "type": "channel",
        "subtype": "noteOff",
        "noteNumber": 66,
        "velocity": 0
      },
      {
        "deltaTime": 33,
        "channel": 1,
        "type": "channel",
        "subtype": "noteOff",
        "noteNumber": 59,
        "velocity": 0
      },
      {
        "deltaTime": 209,
        "channel": 1,
        "type": "channel",
        "noteNumber": 50,
        "velocity": 39,
        "subtype": "noteOn"
      },
      {
        "deltaTime": 43,
        "channel": 1,
        "type": "channel",
        "noteNumber": 59,
        "velocity": 35,
        "subtype": "noteOn"
      },
      {
        "deltaTime": 27,
        "channel": 1,
        "type": "channel",
        "subtype": "noteOff",
        "noteNumber": 50,
        "velocity": 0
      },
      {
        "deltaTime": 2,
        "channel": 1,
        "type": "channel",
        "subtype": "noteOff",
        "noteNumber": 59,
        "velocity": 0
      },
      {
        "deltaTime": 216,
        "channel": 1,
        "type": "channel",
        "noteNumber": 32,
        "velocity": 19,
        "subtype": "noteOn"
      },
      {
        "deltaTime": 26,
        "channel": 1,
        "type": "channel",
        "subtype": "noteOff",
        "noteNumber": 32,
        "velocity": 0
      },
      {
        "deltaTime": 51,
        "channel": 1,
        "type": "channel",
        "noteNumber": 61,
        "velocity": 25,
        "subtype": "noteOn"
      },
      {
        "deltaTime": 24,
        "channel": 1,
        "type": "channel",
        "subtype": "noteOff",
        "noteNumber": 61,
        "velocity": 0
      },
      {
        "deltaTime": 41,
        "channel": 1,
        "type": "channel",
        "noteNumber": 38,
        "velocity": 10,
        "subtype": "noteOn"
      },
      {
        "deltaTime": 19,
        "channel": 1,
        "type": "channel",
        "subtype": "noteOff",
        "noteNumber": 38,
        "velocity": 0
      },
      {
        "deltaTime": 281,
        "channel": 1,
        "type": "channel",
        "noteNumber": 62,
        "velocity": 16,
        "subtype": "noteOn"
      },
      {
        "deltaTime": 24,
        "channel": 1,
        "type": "channel",
        "subtype": "noteOff",
        "noteNumber": 62,
        "velocity": 0
      },
      {
        "deltaTime": 189,
        "channel": 1,
        "type": "channel",
        "noteNumber": 35,
        "velocity": 36,
        "subtype": "noteOn"
      },
      {
        "deltaTime": 99,
        "channel": 1,
        "type": "channel",
        "subtype": "noteOff",
        "noteNumber": 35,
        "velocity": 0
      },
      {
        "deltaTime": 16,
        "channel": 1,
        "type": "channel",
        "noteNumber": 59,
        "velocity": 18,
        "subtype": "noteOn"
      },
      {
        "deltaTime": 10,
        "channel": 1,
        "type": "channel",
        "noteNumber": 36,
        "velocity": 25,
        "subtype": "noteOn"
      },
      {
        "deltaTime": 5,
        "channel": 1,
        "type": "channel",
        "subtype": "noteOff",
        "noteNumber": 59,
        "velocity": 0
      },
      {
        "deltaTime": 9,
        "channel": 1,
        "type": "channel",
        "noteNumber": 45,
        "velocity": 28,
        "subtype": "noteOn"
      },
      {
        "deltaTime": 5,
        "channel": 1,
        "type": "channel",
        "subtype": "noteOff",
        "noteNumber": 36,
        "velocity": 0
      },
      {
        "deltaTime": 65,
        "channel": 1,
        "type": "channel",
        "noteNumber": 33,
        "velocity": 25,
        "subtype": "noteOn"
      },
      {
        "deltaTime": 74,
        "channel": 1,
        "type": "channel",
        "subtype": "noteOff",
        "noteNumber": 45,
        "velocity": 0
      },
      {
        "deltaTime": 36,
        "channel": 1,
        "type": "channel",
        "subtype": "noteOff",
        "noteNumber": 33,
        "velocity": 0
      },
      {
        "deltaTime": 10,
        "channel": 1,
        "type": "channel",
        "noteNumber": 33,
        "velocity": 10,
        "subtype": "noteOn"
      },
      {
        "deltaTime": 14,
        "channel": 1,
        "type": "channel",
        "subtype": "noteOff",
        "noteNumber": 33,
        "velocity": 0
      },
      {
        "deltaTime": 255,
        "channel": 1,
        "type": "channel",
        "noteNumber": 74,
        "velocity": 17,
        "subtype": "noteOn"
      },
      {
        "deltaTime": 9,
        "channel": 1,
        "type": "channel",
        "noteNumber": 36,
        "velocity": 29,
        "subtype": "noteOn"
      },
      {
        "deltaTime": 10,
        "channel": 1,
        "type": "channel",
        "subtype": "noteOff",
        "noteNumber": 74,
        "velocity": 0
      },
      {
        "deltaTime": 5,
        "channel": 1,
        "type": "channel",
        "noteNumber": 57,
        "velocity": 35,
        "subtype": "noteOn"
      },
      {
        "deltaTime": 2,
        "channel": 1,
        "type": "channel",
        "subtype": "noteOff",
        "noteNumber": 36,
        "velocity": 0
      },
      {
        "deltaTime": 24,
        "channel": 1,
        "type": "channel",
        "subtype": "noteOff",
        "noteNumber": 57,
        "velocity": 0
      },
      {
        "deltaTime": 51,
        "channel": 1,
        "type": "channel",
        "noteNumber": 61,
        "velocity": 22,
        "subtype": "noteOn"
      },
      {
        "deltaTime": 24,
        "channel": 1,
        "type": "channel",
        "subtype": "noteOff",
        "noteNumber": 61,
        "velocity": 0
      },
      {
        "deltaTime": 7,
        "channel": 1,
        "type": "channel",
        "noteNumber": 81,
        "velocity": 21,
        "subtype": "noteOn"
      },
      {
        "deltaTime": 9,
        "channel": 1,
        "type": "channel",
        "subtype": "noteOff",
        "noteNumber": 81,
        "velocity": 0
      },
      {
        "deltaTime": 8,
        "channel": 1,
        "type": "channel",
        "noteNumber": 69,
        "velocity": 44,
        "subtype": "noteOn"
      },
      {
        "deltaTime": 26,
        "channel": 1,
        "type": "channel",
        "subtype": "noteOff",
        "noteNumber": 69,
        "velocity": 0
      },
      {
        "deltaTime": 26,
        "channel": 1,
        "type": "channel",
        "noteNumber": 45,
        "velocity": 19,
        "subtype": "noteOn"
      },
      {
        "deltaTime": 27,
        "channel": 1,
        "type": "channel",
        "subtype": "noteOff",
        "noteNumber": 45,
        "velocity": 0
      },
      {
        "deltaTime": 463,
        "channel": 1,
        "type": "channel",
        "noteNumber": 36,
        "velocity": 10,
        "subtype": "noteOn"
      },
      {
        "deltaTime": 19,
        "channel": 1,
        "type": "channel",
        "noteNumber": 54,
        "velocity": 23,
        "subtype": "noteOn"
      },
      {
        "deltaTime": 17,
        "channel": 1,
        "type": "channel",
        "subtype": "noteOff",
        "noteNumber": 36,
        "velocity": 0
      },
      {
        "deltaTime": 84,
        "channel": 1,
        "type": "channel",
        "subtype": "noteOff",
        "noteNumber": 54,
        "velocity": 0
      },
      {
        "deltaTime": 204,
        "channel": 1,
        "type": "channel",
        "noteNumber": 86,
        "velocity": 20,
        "subtype": "noteOn"
      },
      {
        "deltaTime": 19,
        "channel": 1,
        "type": "channel",
        "subtype": "noteOff",
        "noteNumber": 86,
        "velocity": 0
      },
      {
        "deltaTime": 22,
        "channel": 1,
        "type": "channel",
        "noteNumber": 85,
        "velocity": 26,
        "subtype": "noteOn"
      },
      {
        "deltaTime": 26,
        "channel": 1,
        "type": "channel",
        "subtype": "noteOff",
        "noteNumber": 85,
        "velocity": 0
      },
      {
        "deltaTime": 29,
        "channel": 1,
        "type": "channel",
        "noteNumber": 74,
        "velocity": 17,
        "subtype": "noteOn"
      },
      {
        "deltaTime": 24,
        "channel": 1,
        "type": "channel",
        "subtype": "noteOff",
        "noteNumber": 74,
        "velocity": 0
      },
      {
        "deltaTime": 154,
        "channel": 1,
        "type": "channel",
        "noteNumber": 36,
        "velocity": 20,
        "subtype": "noteOn"
      },
      {
        "deltaTime": 12,
        "channel": 1,
        "type": "channel",
        "noteNumber": 33,
        "velocity": 26,
        "subtype": "noteOn"
      },
      {
        "deltaTime": 7,
        "channel": 1,
        "type": "channel",
        "subtype": "noteOff",
        "noteNumber": 36,
        "velocity": 0
      },
      {
        "deltaTime": 36,
        "channel": 1,
        "type": "channel",
        "subtype": "noteOff",
        "noteNumber": 33,
        "velocity": 0
      },
      {
        "deltaTime": 17,
        "channel": 1,
        "type": "channel",
        "noteNumber": 52,
        "velocity": 25,
        "subtype": "noteOn"
      },
      {
        "deltaTime": 79,
        "channel": 1,
        "type": "channel",
        "subtype": "noteOff",
        "noteNumber": 52,
        "velocity": 0
      },
      {
        "deltaTime": 29,
        "channel": 1,
        "type": "channel",
        "noteNumber": 88,
        "velocity": 12,
        "subtype": "noteOn"
      },
      {
        "deltaTime": 52,
        "channel": 1,
        "type": "channel",
        "subtype": "noteOff",
        "noteNumber": 88,
        "velocity": 0
      },
      {
        "deltaTime": 154,
        "channel": 1,
        "type": "channel",
        "noteNumber": 71,
        "velocity": 13,
        "subtype": "noteOn"
      },
      {
        "deltaTime": 46,
        "channel": 1,
        "type": "channel",
        "subtype": "noteOff",
        "noteNumber": 71,
        "velocity": 0
      },
      {
        "deltaTime": 28,
        "channel": 1,
        "type": "channel",
        "noteNumber": 71,
        "velocity": 22,
        "subtype": "noteOn"
      },
      {
        "deltaTime": 22,
        "channel": 1,
        "type": "channel",
        "subtype": "noteOff",
        "noteNumber": 71,
        "velocity": 0
      },
      {
        "deltaTime": 22,
        "channel": 1,
        "type": "channel",
        "noteNumber": 106,
        "velocity": 31,
        "subtype": "noteOn"
      },
      {
        "deltaTime": 21,
        "channel": 1,
        "type": "channel",
        "noteNumber": 86,
        "velocity": 26,
        "subtype": "noteOn"
      },
      {
        "deltaTime": 5,
        "channel": 1,
        "type": "channel",
        "subtype": "noteOff",
        "noteNumber": 106,
        "velocity": 0
      },
      {
        "deltaTime": 31,
        "channel": 1,
        "type": "channel",
        "subtype": "noteOff",
        "noteNumber": 86,
        "velocity": 0
      },
      {
        "deltaTime": 125,
        "channel": 1,
        "type": "channel",
        "noteNumber": 86,
        "velocity": 37,
        "subtype": "noteOn"
      },
      {
        "deltaTime": 36,
        "channel": 1,
        "type": "channel",
        "noteNumber": 66,
        "velocity": 33,
        "subtype": "noteOn"
      },
      {
        "deltaTime": 2,
        "channel": 1,
        "type": "channel",
        "subtype": "noteOff",
        "noteNumber": 86,
        "velocity": 0
      },
      {
        "deltaTime": 10,
        "channel": 1,
        "type": "channel",
        "noteNumber": 62,
        "velocity": 30,
        "subtype": "noteOn"
      },
      {
        "deltaTime": 2,
        "channel": 1,
        "type": "channel",
        "subtype": "noteOff",
        "noteNumber": 66,
        "velocity": 0
      },
      {
        "deltaTime": 20,
        "channel": 1,
        "type": "channel",
        "noteNumber": 106,
        "velocity": 29,
        "subtype": "noteOn"
      },
      {
        "deltaTime": 45,
        "channel": 1,
        "type": "channel",
        "subtype": "noteOff",
        "noteNumber": 106,
        "velocity": 0
      },
      {
        "deltaTime": 3,
        "channel": 1,
        "type": "channel",
        "subtype": "noteOff",
        "noteNumber": 62,
        "velocity": 0
      },
      {
        "deltaTime": 19,
        "channel": 1,
        "type": "channel",
        "noteNumber": 52,
        "velocity": 14,
        "subtype": "noteOn"
      },
      {
        "deltaTime": 21,
        "channel": 1,
        "type": "channel",
        "subtype": "noteOff",
        "noteNumber": 52,
        "velocity": 0
      },
      {
        "deltaTime": 3,
        "channel": 1,
        "type": "channel",
        "noteNumber": 78,
        "velocity": 10,
        "subtype": "noteOn"
      },
      {
        "deltaTime": 19,
        "channel": 1,
        "type": "channel",
        "subtype": "noteOff",
        "noteNumber": 78,
        "velocity": 0
      },
      {
        "deltaTime": 19,
        "channel": 1,
        "type": "channel",
        "noteNumber": 33,
        "velocity": 18,
        "subtype": "noteOn"
      },
      {
        "deltaTime": 82,
        "channel": 1,
        "type": "channel",
        "noteNumber": 85,
        "velocity": 14,
        "subtype": "noteOn"
      },
      {
        "deltaTime": 9,
        "channel": 1,
        "type": "channel",
        "subtype": "noteOff",
        "noteNumber": 33,
        "velocity": 0
      },
      {
        "deltaTime": 5,
        "channel": 1,
        "type": "channel",
        "subtype": "noteOff",
        "noteNumber": 85,
        "velocity": 0
      },
      {
        "deltaTime": 27,
        "channel": 1,
        "type": "channel",
        "noteNumber": 86,
        "velocity": 20,
        "subtype": "noteOn"
      },
      {
        "deltaTime": 12,
        "channel": 1,
        "type": "channel",
        "subtype": "noteOff",
        "noteNumber": 86,
        "velocity": 0
      },
      {
        "deltaTime": 28,
        "channel": 1,
        "type": "channel",
        "noteNumber": 85,
        "velocity": 21,
        "subtype": "noteOn"
      },
      {
        "deltaTime": 22,
        "channel": 1,
        "type": "channel",
        "subtype": "noteOff",
        "noteNumber": 85,
        "velocity": 0
      },
      {
        "deltaTime": 36,
        "channel": 1,
        "type": "channel",
        "noteNumber": 59,
        "velocity": 20,
        "subtype": "noteOn"
      },
      {
        "deltaTime": 14,
        "channel": 1,
        "type": "channel",
        "noteNumber": 36,
        "velocity": 18,
        "subtype": "noteOn"
      },
      {
        "deltaTime": 3,
        "channel": 1,
        "type": "channel",
        "subtype": "noteOff",
        "noteNumber": 59,
        "velocity": 0
      },
      {
        "deltaTime": 12,
        "channel": 1,
        "type": "channel",
        "subtype": "noteOff",
        "noteNumber": 36,
        "velocity": 0
      },
      {
        "deltaTime": 5,
        "channel": 1,
        "type": "channel",
        "noteNumber": 54,
        "velocity": 12,
        "subtype": "noteOn"
      },
      {
        "deltaTime": 12,
        "channel": 1,
        "type": "channel",
        "noteNumber": 102,
        "velocity": 12,
        "subtype": "noteOn"
      },
      {
        "deltaTime": 2,
        "channel": 1,
        "type": "channel",
        "subtype": "noteOff",
        "noteNumber": 54,
        "velocity": 0
      },
      {
        "deltaTime": 26,
        "channel": 1,
        "type": "channel",
        "subtype": "noteOff",
        "noteNumber": 102,
        "velocity": 0
      },
      {
        "deltaTime": 3,
        "channel": 1,
        "type": "channel",
        "noteNumber": 102,
        "velocity": 27,
        "subtype": "noteOn"
      },
      {
        "deltaTime": 9,
        "channel": 1,
        "type": "channel",
        "noteNumber": 74,
        "velocity": 13,
        "subtype": "noteOn"
      },
      {
        "deltaTime": 27,
        "channel": 1,
        "type": "channel",
        "subtype": "noteOff",
        "noteNumber": 74,
        "velocity": 0
      },
      {
        "deltaTime": 57,
        "channel": 1,
        "type": "channel",
        "noteNumber": 36,
        "velocity": 25,
        "subtype": "noteOn"
      },
      {
        "deltaTime": 10,
        "channel": 1,
        "type": "channel",
        "noteNumber": 85,
        "velocity": 22,
        "subtype": "noteOn"
      },
      {
        "deltaTime": 10,
        "channel": 1,
        "type": "channel",
        "subtype": "noteOff",
        "noteNumber": 36,
        "velocity": 0
      },
      {
        "deltaTime": 12,
        "channel": 1,
        "type": "channel",
        "subtype": "noteOff",
        "noteNumber": 85,
        "velocity": 0
      },
      {
        "deltaTime": 24,
        "channel": 1,
        "type": "channel",
        "noteNumber": 74,
        "velocity": 16,
        "subtype": "noteOn"
      },
      {
        "deltaTime": 19,
        "channel": 1,
        "type": "channel",
        "subtype": "noteOff",
        "noteNumber": 102,
        "velocity": 0
      },
      {
        "deltaTime": 2,
        "channel": 1,
        "type": "channel",
        "noteNumber": 102,
        "velocity": 27,
        "subtype": "noteOn"
      },
      {
        "deltaTime": 24,
        "channel": 1,
        "type": "channel",
        "subtype": "noteOff",
        "noteNumber": 74,
        "velocity": 0
      },
      {
        "deltaTime": 31,
        "channel": 1,
        "type": "channel",
        "noteNumber": 61,
        "velocity": 33,
        "subtype": "noteOn"
      },
      {
        "deltaTime": 22,
        "channel": 1,
        "type": "channel",
        "subtype": "noteOff",
        "noteNumber": 102,
        "velocity": 0
      },
      {
        "deltaTime": 10,
        "channel": 1,
        "type": "channel",
        "subtype": "noteOff",
        "noteNumber": 61,
        "velocity": 0
      },
      {
        "deltaTime": 254,
        "channel": 1,
        "type": "channel",
        "noteNumber": 62,
        "velocity": 33,
        "subtype": "noteOn"
      },
      {
        "deltaTime": 24,
        "channel": 1,
        "type": "channel",
        "subtype": "noteOff",
        "noteNumber": 62,
        "velocity": 0
      },
      {
        "deltaTime": 0,
        "channel": 1,
        "type": "channel",
        "noteNumber": 90,
        "velocity": 22,
        "subtype": "noteOn"
      },
      {
        "deltaTime": 43,
        "channel": 1,
        "type": "channel",
        "subtype": "noteOff",
        "noteNumber": 90,
        "velocity": 0
      },
      {
        "deltaTime": 29,
        "channel": 1,
        "type": "channel",
        "noteNumber": 106,
        "velocity": 34,
        "subtype": "noteOn"
      },
      {
        "deltaTime": 276,
        "channel": 1,
        "type": "channel",
        "subtype": "noteOff",
        "noteNumber": 106,
        "velocity": 0
      },
      {
        "deltaTime": 58,
        "channel": 1,
        "type": "channel",
        "noteNumber": 106,
        "velocity": 37,
        "subtype": "noteOn"
      },
      {
        "deltaTime": 36,
        "channel": 1,
        "type": "channel",
        "noteNumber": 36,
        "velocity": 16,
        "subtype": "noteOn"
      },
      {
        "deltaTime": 9,
        "channel": 1,
        "type": "channel",
        "subtype": "noteOff",
        "noteNumber": 36,
        "velocity": 0
      },
      {
        "deltaTime": 147,
        "channel": 1,
        "type": "channel",
        "subtype": "noteOff",
        "noteNumber": 106,
        "velocity": 0
      },
      {
        "deltaTime": 16,
        "channel": 1,
        "type": "channel",
        "noteNumber": 59,
        "velocity": 36,
        "subtype": "noteOn"
      },
      {
        "deltaTime": 32,
        "channel": 1,
        "type": "channel",
        "subtype": "noteOff",
        "noteNumber": 59,
        "velocity": 0
      },
      {
        "deltaTime": 19,
        "channel": 1,
        "type": "channel",
        "noteNumber": 50,
        "velocity": 14,
        "subtype": "noteOn"
      },
      {
        "deltaTime": 9,
        "channel": 1,
        "type": "channel",
        "subtype": "noteOff",
        "noteNumber": 50,
        "velocity": 0
      },
      {
        "deltaTime": 8,
        "channel": 1,
        "type": "channel",
        "noteNumber": 36,
        "velocity": 19,
        "subtype": "noteOn"
      },
      {
        "deltaTime": 21,
        "channel": 1,
        "type": "channel",
        "subtype": "noteOff",
        "noteNumber": 36,
        "velocity": 0
      },
      {
        "deltaTime": 36,
        "channel": 1,
        "type": "channel",
        "noteNumber": 62,
        "velocity": 14,
        "subtype": "noteOn"
      },
      {
        "deltaTime": 106,
        "channel": 1,
        "type": "channel",
        "subtype": "noteOff",
        "noteNumber": 62,
        "velocity": 0
      },
      {
        "deltaTime": 12,
        "channel": 1,
        "type": "channel",
        "noteNumber": 57,
        "velocity": 14,
        "subtype": "noteOn"
      },
      {
        "deltaTime": 17,
        "channel": 1,
        "type": "channel",
        "subtype": "noteOff",
        "noteNumber": 57,
        "velocity": 0
      },
      {
        "deltaTime": 50,
        "channel": 1,
        "type": "channel",
        "noteNumber": 33,
        "velocity": 27,
        "subtype": "noteOn"
      },
      {
        "deltaTime": 43,
        "channel": 1,
        "type": "channel",
        "noteNumber": 88,
        "velocity": 28,
        "subtype": "noteOn"
      },
      {
        "deltaTime": 10,
        "channel": 1,
        "type": "channel",
        "subtype": "noteOff",
        "noteNumber": 33,
        "velocity": 0
      },
      {
        "deltaTime": 29,
        "channel": 1,
        "type": "channel",
        "subtype": "noteOff",
        "noteNumber": 88,
        "velocity": 0
      },
      {
        "deltaTime": 204,
        "channel": 1,
        "type": "channel",
        "noteNumber": 42,
        "velocity": 22,
        "subtype": "noteOn"
      },
      {
        "deltaTime": 28,
        "channel": 1,
        "type": "channel",
        "subtype": "noteOff",
        "noteNumber": 42,
        "velocity": 0
      },
      {
        "deltaTime": 20,
        "channel": 1,
        "type": "channel",
        "noteNumber": 62,
        "velocity": 26,
        "subtype": "noteOn"
      },
      {
        "deltaTime": 24,
        "channel": 1,
        "type": "channel",
        "subtype": "noteOff",
        "noteNumber": 62,
        "velocity": 0
      },
      {
        "deltaTime": 24,
        "channel": 1,
        "type": "channel",
        "noteNumber": 106,
        "velocity": 29,
        "subtype": "noteOn"
      },
      {
        "deltaTime": 24,
        "channel": 1,
        "type": "channel",
        "subtype": "noteOff",
        "noteNumber": 106,
        "velocity": 0
      },
      {
        "deltaTime": 21,
        "channel": 1,
        "type": "channel",
        "noteNumber": 106,
        "velocity": 40,
        "subtype": "noteOn"
      },
      {
        "deltaTime": 17,
        "channel": 1,
        "type": "channel",
        "noteNumber": 86,
        "velocity": 26,
        "subtype": "noteOn"
      },
      {
        "deltaTime": 36,
        "channel": 1,
        "type": "channel",
        "subtype": "noteOff",
        "noteNumber": 86,
        "velocity": 0
      },
      {
        "deltaTime": 5,
        "channel": 1,
        "type": "channel",
        "noteNumber": 85,
        "velocity": 27,
        "subtype": "noteOn"
      },
      {
        "deltaTime": 21,
        "channel": 1,
        "type": "channel",
        "subtype": "noteOff",
        "noteNumber": 85,
        "velocity": 0
      },
      {
        "deltaTime": 29,
        "channel": 1,
        "type": "channel",
        "noteNumber": 66,
        "velocity": 37,
        "subtype": "noteOn"
      },
      {
        "deltaTime": 67,
        "channel": 1,
        "type": "channel",
        "noteNumber": 85,
        "velocity": 22,
        "subtype": "noteOn"
      },
      {
        "deltaTime": 15,
        "channel": 1,
        "type": "channel",
        "subtype": "noteOff",
        "noteNumber": 85,
        "velocity": 0
      },
      {
        "deltaTime": 53,
        "channel": 1,
        "type": "channel",
        "noteNumber": 35,
        "velocity": 24,
        "subtype": "noteOn"
      },
      {
        "deltaTime": 21,
        "channel": 1,
        "type": "channel",
        "subtype": "noteOff",
        "noteNumber": 35,
        "velocity": 0
      },
      {
        "deltaTime": 7,
        "channel": 1,
        "type": "channel",
        "noteNumber": 59,
        "velocity": 36,
        "subtype": "noteOn"
      },
      {
        "deltaTime": 20,
        "channel": 1,
        "type": "channel",
        "subtype": "noteOff",
        "noteNumber": 106,
        "velocity": 0
      },
      {
        "deltaTime": 2,
        "channel": 1,
        "type": "channel",
        "subtype": "noteOff",
        "noteNumber": 66,
        "velocity": 0
      },
      {
        "deltaTime": 0,
        "channel": 1,
        "type": "channel",
        "subtype": "noteOff",
        "noteNumber": 59,
        "velocity": 0
      },
      {
        "deltaTime": 36,
        "channel": 1,
        "type": "channel",
        "noteNumber": 83,
        "velocity": 26,
        "subtype": "noteOn"
      },
      {
        "deltaTime": 24,
        "channel": 1,
        "type": "channel",
        "subtype": "noteOff",
        "noteNumber": 83,
        "velocity": 0
      },
      {
        "deltaTime": 106,
        "channel": 1,
        "type": "channel",
        "noteNumber": 74,
        "velocity": 17,
        "subtype": "noteOn"
      },
      {
        "deltaTime": 81,
        "channel": 1,
        "type": "channel",
        "subtype": "noteOff",
        "noteNumber": 74,
        "velocity": 0
      },
      {
        "deltaTime": 5,
        "channel": 1,
        "type": "channel",
        "noteNumber": 59,
        "velocity": 19,
        "subtype": "noteOn"
      },
      {
        "deltaTime": 24,
        "channel": 1,
        "type": "channel",
        "subtype": "noteOff",
        "noteNumber": 59,
        "velocity": 0
      },
      {
        "deltaTime": 38,
        "channel": 1,
        "type": "channel",
        "noteNumber": 36,
        "velocity": 17,
        "subtype": "noteOn"
      },
      {
        "deltaTime": 20,
        "channel": 1,
        "type": "channel",
        "subtype": "noteOff",
        "noteNumber": 36,
        "velocity": 0
      },
      {
        "deltaTime": 16,
        "channel": 1,
        "type": "channel",
        "noteNumber": 102,
        "velocity": 22,
        "subtype": "noteOn"
      },
      {
        "deltaTime": 132,
        "channel": 1,
        "type": "channel",
        "subtype": "noteOff",
        "noteNumber": 102,
        "velocity": 0
      },
      {
        "deltaTime": 3,
        "channel": 1,
        "type": "channel",
        "noteNumber": 88,
        "velocity": 30,
        "subtype": "noteOn"
      },
      {
        "deltaTime": 36,
        "channel": 1,
        "type": "channel",
        "noteNumber": 33,
        "velocity": 22,
        "subtype": "noteOn"
      },
      {
        "deltaTime": 7,
        "channel": 1,
        "type": "channel",
        "subtype": "noteOff",
        "noteNumber": 88,
        "velocity": 0
      },
      {
        "deltaTime": 2,
        "channel": 1,
        "type": "channel",
        "subtype": "noteOff",
        "noteNumber": 33,
        "velocity": 0
      },
      {
        "deltaTime": 75,
        "channel": 1,
        "type": "channel",
        "noteNumber": 86,
        "velocity": 32,
        "subtype": "noteOn"
      },
      {
        "deltaTime": 36,
        "channel": 1,
        "type": "channel",
        "subtype": "noteOff",
        "noteNumber": 86,
        "velocity": 0
      },
      {
        "deltaTime": 26,
        "channel": 1,
        "type": "channel",
        "noteNumber": 102,
        "velocity": 17,
        "subtype": "noteOn"
      },
      {
        "deltaTime": 27,
        "channel": 1,
        "type": "channel",
        "subtype": "noteOff",
        "noteNumber": 102,
        "velocity": 0
      },
      {
        "deltaTime": 9,
        "channel": 1,
        "type": "channel",
        "noteNumber": 102,
        "velocity": 21,
        "subtype": "noteOn"
      },
      {
        "deltaTime": 46,
        "channel": 1,
        "type": "channel",
        "subtype": "noteOff",
        "noteNumber": 102,
        "velocity": 0
      },
      {
        "deltaTime": 187,
        "channel": 1,
        "type": "channel",
        "noteNumber": 59,
        "velocity": 13,
        "subtype": "noteOn"
      },
      {
        "deltaTime": 17,
        "channel": 1,
        "type": "channel",
        "subtype": "noteOff",
        "noteNumber": 59,
        "velocity": 0
      },
      {
        "deltaTime": 9,
        "channel": 1,
        "type": "channel",
        "noteNumber": 33,
        "velocity": 19,
        "subtype": "noteOn"
      },
      {
        "deltaTime": 10,
        "channel": 1,
        "type": "channel",
        "subtype": "noteOff",
        "noteNumber": 33,
        "velocity": 0
      },
      {
        "deltaTime": 115,
        "channel": 1,
        "type": "channel",
        "noteNumber": 59,
        "velocity": 17,
        "subtype": "noteOn"
      },
      {
        "deltaTime": 34,
        "channel": 1,
        "type": "channel",
        "subtype": "noteOff",
        "noteNumber": 59,
        "velocity": 0
      },
      {
        "deltaTime": 2,
        "channel": 1,
        "type": "channel",
        "noteNumber": 93,
        "velocity": 35,
        "subtype": "noteOn"
      },
      {
        "deltaTime": 48,
        "channel": 1,
        "type": "channel",
        "noteNumber": 99,
        "velocity": 31,
        "subtype": "noteOn"
      },
      {
        "deltaTime": 41,
        "channel": 1,
        "type": "channel",
        "subtype": "noteOff",
        "noteNumber": 93,
        "velocity": 0
      },
      {
        "deltaTime": 67,
        "channel": 1,
        "type": "channel",
        "subtype": "noteOff",
        "noteNumber": 99,
        "velocity": 0
      },
      {
        "deltaTime": 15,
        "channel": 1,
        "type": "channel",
        "noteNumber": 35,
        "velocity": 24,
        "subtype": "noteOn"
      },
      {
        "deltaTime": 16,
        "channel": 1,
        "type": "channel",
        "noteNumber": 40,
        "velocity": 18,
        "subtype": "noteOn"
      },
      {
        "deltaTime": 12,
        "channel": 1,
        "type": "channel",
        "subtype": "noteOff",
        "noteNumber": 40,
        "velocity": 0
      },
      {
        "deltaTime": 5,
        "channel": 1,
        "type": "channel",
        "subtype": "noteOff",
        "noteNumber": 35,
        "velocity": 0
      },
      {
        "deltaTime": 135,
        "channel": 1,
        "type": "channel",
        "noteNumber": 59,
        "velocity": 19,
        "subtype": "noteOn"
      },
      {
        "deltaTime": 16,
        "channel": 1,
        "type": "channel",
        "noteNumber": 50,
        "velocity": 28,
        "subtype": "noteOn"
      },
      {
        "deltaTime": 5,
        "channel": 1,
        "type": "channel",
        "noteNumber": 86,
        "velocity": 16,
        "subtype": "noteOn"
      },
      {
        "deltaTime": 15,
        "channel": 1,
        "type": "channel",
        "subtype": "noteOff",
        "noteNumber": 59,
        "velocity": 0
      },
      {
        "deltaTime": 4,
        "channel": 1,
        "type": "channel",
        "subtype": "noteOff",
        "noteNumber": 86,
        "velocity": 0
      },
      {
        "deltaTime": 99,
        "channel": 1,
        "type": "channel",
        "subtype": "noteOff",
        "noteNumber": 50,
        "velocity": 0
      },
      {
        "deltaTime": 69,
        "channel": 1,
        "type": "channel",
        "noteNumber": 62,
        "velocity": 16,
        "subtype": "noteOn"
      },
      {
        "deltaTime": 48,
        "channel": 1,
        "type": "channel",
        "subtype": "noteOff",
        "noteNumber": 62,
        "velocity": 0
      },
      {
        "deltaTime": 48,
        "channel": 1,
        "type": "channel",
        "noteNumber": 85,
        "velocity": 24,
        "subtype": "noteOn"
      },
      {
        "deltaTime": 22,
        "channel": 1,
        "type": "channel",
        "subtype": "noteOff",
        "noteNumber": 85,
        "velocity": 0
      },
      {
        "deltaTime": 48,
        "channel": 1,
        "type": "channel",
        "noteNumber": 33,
        "velocity": 25,
        "subtype": "noteOn"
      },
      {
        "deltaTime": 48,
        "channel": 1,
        "type": "channel",
        "noteNumber": 88,
        "velocity": 27,
        "subtype": "noteOn"
      },
      {
        "deltaTime": 7,
        "channel": 1,
        "type": "channel",
        "subtype": "noteOff",
        "noteNumber": 33,
        "velocity": 0
      },
      {
        "deltaTime": 31,
        "channel": 1,
        "type": "channel",
        "subtype": "noteOff",
        "noteNumber": 88,
        "velocity": 0
      },
      {
        "deltaTime": 15,
        "channel": 1,
        "type": "channel",
        "noteNumber": 32,
        "velocity": 12,
        "subtype": "noteOn"
      },
      {
        "deltaTime": 14,
        "channel": 1,
        "type": "channel",
        "subtype": "noteOff",
        "noteNumber": 32,
        "velocity": 0
      },
      {
        "deltaTime": 192,
        "channel": 1,
        "type": "channel",
        "noteNumber": 71,
        "velocity": 17,
        "subtype": "noteOn"
      },
      {
        "deltaTime": 29,
        "channel": 1,
        "type": "channel",
        "noteNumber": 62,
        "velocity": 30,
        "subtype": "noteOn"
      },
      {
        "deltaTime": 17,
        "channel": 1,
        "type": "channel",
        "subtype": "noteOff",
        "noteNumber": 71,
        "velocity": 0
      },
      {
        "deltaTime": 55,
        "channel": 1,
        "type": "channel",
        "subtype": "noteOff",
        "noteNumber": 62,
        "velocity": 0
      },
      {
        "deltaTime": 12,
        "channel": 1,
        "type": "channel",
        "noteNumber": 98,
        "velocity": 25,
        "subtype": "noteOn"
      },
      {
        "deltaTime": 10,
        "channel": 1,
        "type": "channel",
        "subtype": "noteOff",
        "noteNumber": 98,
        "velocity": 0
      },
      {
        "deltaTime": 43,
        "channel": 1,
        "type": "channel",
        "noteNumber": 66,
        "velocity": 24,
        "subtype": "noteOn"
      },
      {
        "deltaTime": 105,
        "channel": 1,
        "type": "channel",
        "noteNumber": 59,
        "velocity": 33,
        "subtype": "noteOn"
      },
      {
        "deltaTime": 8,
        "channel": 1,
        "type": "channel",
        "subtype": "noteOff",
        "noteNumber": 66,
        "velocity": 0
      },
      {
        "deltaTime": 93,
        "channel": 1,
        "type": "channel",
        "subtype": "noteOff",
        "noteNumber": 59,
        "velocity": 0
      },
      {
        "deltaTime": 10,
        "channel": 1,
        "type": "channel",
        "noteNumber": 83,
        "velocity": 22,
        "subtype": "noteOn"
      },
      {
        "deltaTime": 26,
        "channel": 1,
        "type": "channel",
        "subtype": "noteOff",
        "noteNumber": 83,
        "velocity": 0
      },
      {
        "deltaTime": 5,
        "channel": 1,
        "type": "channel",
        "noteNumber": 36,
        "velocity": 29,
        "subtype": "noteOn"
      },
      {
        "deltaTime": 36,
        "channel": 1,
        "type": "channel",
        "subtype": "noteOff",
        "noteNumber": 36,
        "velocity": 0
      },
      {
        "deltaTime": 86,
        "channel": 1,
        "type": "channel",
        "noteNumber": 33,
        "velocity": 17,
        "subtype": "noteOn"
      },
      {
        "deltaTime": 46,
        "channel": 1,
        "type": "channel",
        "noteNumber": 85,
        "velocity": 12,
        "subtype": "noteOn"
      },
      {
        "deltaTime": 10,
        "channel": 1,
        "type": "channel",
        "subtype": "noteOff",
        "noteNumber": 33,
        "velocity": 0
      },
      {
        "deltaTime": 7,
        "channel": 1,
        "type": "channel",
        "subtype": "noteOff",
        "noteNumber": 85,
        "velocity": 0
      },
      {
        "deltaTime": 24,
        "channel": 1,
        "type": "channel",
        "noteNumber": 50,
        "velocity": 31,
        "subtype": "noteOn"
      },
      {
        "deltaTime": 0,
        "channel": 1,
        "type": "channel",
        "noteNumber": 86,
        "velocity": 24,
        "subtype": "noteOn"
      },
      {
        "deltaTime": 14,
        "channel": 1,
        "type": "channel",
        "subtype": "noteOff",
        "noteNumber": 86,
        "velocity": 0
      },
      {
        "deltaTime": 27,
        "channel": 1,
        "type": "channel",
        "noteNumber": 85,
        "velocity": 20,
        "subtype": "noteOn"
      },
      {
        "deltaTime": 28,
        "channel": 1,
        "type": "channel",
        "subtype": "noteOff",
        "noteNumber": 85,
        "velocity": 0
      },
      {
        "deltaTime": 51,
        "channel": 1,
        "type": "channel",
        "subtype": "noteOff",
        "noteNumber": 50,
        "velocity": 0
      },
      {
        "deltaTime": 115,
        "channel": 1,
        "type": "channel",
        "noteNumber": 78,
        "velocity": 10,
        "subtype": "noteOn"
      },
      {
        "deltaTime": 10,
        "channel": 1,
        "type": "channel",
        "subtype": "noteOff",
        "noteNumber": 78,
        "velocity": 0
      },
      {
        "deltaTime": 7,
        "channel": 1,
        "type": "channel",
        "noteNumber": 43,
        "velocity": 18,
        "subtype": "noteOn"
      },
      {
        "deltaTime": 26,
        "channel": 1,
        "type": "channel",
        "subtype": "noteOff",
        "noteNumber": 43,
        "velocity": 0
      },
      {
        "deltaTime": 10,
        "channel": 1,
        "type": "channel",
        "noteNumber": 57,
        "velocity": 19,
        "subtype": "noteOn"
      },
      {
        "deltaTime": 17,
        "channel": 1,
        "type": "channel",
        "subtype": "noteOff",
        "noteNumber": 57,
        "velocity": 0
      },
      {
        "deltaTime": 100,
        "channel": 1,
        "type": "channel",
        "noteNumber": 61,
        "velocity": 30,
        "subtype": "noteOn"
      },
      {
        "deltaTime": 29,
        "channel": 1,
        "type": "channel",
        "subtype": "noteOff",
        "noteNumber": 61,
        "velocity": 0
      },
      {
        "deltaTime": 29,
        "channel": 1,
        "type": "channel",
        "noteNumber": 102,
        "velocity": 16,
        "subtype": "noteOn"
      },
      {
        "deltaTime": 60,
        "channel": 1,
        "type": "channel",
        "subtype": "noteOff",
        "noteNumber": 102,
        "velocity": 0
      },
      {
        "deltaTime": 163,
        "channel": 1,
        "type": "channel",
        "noteNumber": 62,
        "velocity": 34,
        "subtype": "noteOn"
      },
      {
        "deltaTime": 67,
        "channel": 1,
        "type": "channel",
        "subtype": "noteOff",
        "noteNumber": 62,
        "velocity": 0
      },
      {
        "deltaTime": 27,
        "channel": 1,
        "type": "channel",
        "noteNumber": 106,
        "velocity": 38,
        "subtype": "noteOn"
      },
      {
        "deltaTime": 146,
        "channel": 1,
        "type": "channel",
        "noteNumber": 59,
        "velocity": 33,
        "subtype": "noteOn"
      },
      {
        "deltaTime": 29,
        "channel": 1,
        "type": "channel",
        "subtype": "noteOff",
        "noteNumber": 59,
        "velocity": 0
      },
      {
        "deltaTime": 14,
        "channel": 1,
        "type": "channel",
        "noteNumber": 59,
        "velocity": 31,
        "subtype": "noteOn"
      },
      {
        "deltaTime": 63,
        "channel": 1,
        "type": "channel",
        "subtype": "noteOff",
        "noteNumber": 59,
        "velocity": 0
      },
      {
        "deltaTime": 26,
        "channel": 1,
        "type": "channel",
        "noteNumber": 62,
        "velocity": 28,
        "subtype": "noteOn"
      },
      {
        "deltaTime": 3,
        "channel": 1,
        "type": "channel",
        "subtype": "noteOff",
        "noteNumber": 106,
        "velocity": 0
      },
      {
        "deltaTime": 16,
        "channel": 1,
        "type": "channel",
        "subtype": "noteOff",
        "noteNumber": 62,
        "velocity": 0
      },
      {
        "deltaTime": 24,
        "channel": 1,
        "type": "channel",
        "noteNumber": 106,
        "velocity": 34,
        "subtype": "noteOn"
      },
      {
        "deltaTime": 17,
        "channel": 1,
        "type": "channel",
        "noteNumber": 50,
        "velocity": 33,
        "subtype": "noteOn"
      },
      {
        "deltaTime": 31,
        "channel": 1,
        "type": "channel",
        "subtype": "noteOff",
        "noteNumber": 50,
        "velocity": 0
      },
      {
        "deltaTime": 10,
        "channel": 1,
        "type": "channel",
        "noteNumber": 86,
        "velocity": 24,
        "subtype": "noteOn"
      },
      {
        "deltaTime": 26,
        "channel": 1,
        "type": "channel",
        "subtype": "noteOff",
        "noteNumber": 86,
        "velocity": 0
      },
      {
        "deltaTime": 36,
        "channel": 1,
        "type": "channel",
        "subtype": "noteOff",
        "noteNumber": 106,
        "velocity": 0
      },
      {
        "deltaTime": 27,
        "channel": 1,
        "type": "channel",
        "noteNumber": 50,
        "velocity": 28,
        "subtype": "noteOn"
      },
      {
        "deltaTime": 14,
        "channel": 1,
        "type": "channel",
        "noteNumber": 38,
        "velocity": 28,
        "subtype": "noteOn"
      },
      {
        "deltaTime": 12,
        "channel": 1,
        "type": "channel",
        "subtype": "noteOff",
        "noteNumber": 50,
        "velocity": 0
      },
      {
        "deltaTime": 5,
        "channel": 1,
        "type": "channel",
        "noteNumber": 86,
        "velocity": 21,
        "subtype": "noteOn"
      },
      {
        "deltaTime": 12,
        "channel": 1,
        "type": "channel",
        "subtype": "noteOff",
        "noteNumber": 86,
        "velocity": 0
      },
      {
        "deltaTime": 2,
        "channel": 1,
        "type": "channel",
        "subtype": "noteOff",
        "noteNumber": 38,
        "velocity": 0
      },
      {
        "deltaTime": 27,
        "channel": 1,
        "type": "channel",
        "noteNumber": 85,
        "velocity": 23,
        "subtype": "noteOn"
      },
      {
        "deltaTime": 21,
        "channel": 1,
        "type": "channel",
        "subtype": "noteOff",
        "noteNumber": 85,
        "velocity": 0
      },
      {
        "deltaTime": 17,
        "channel": 1,
        "type": "channel",
        "noteNumber": 86,
        "velocity": 29,
        "subtype": "noteOn"
      },
      {
        "deltaTime": 24,
        "channel": 1,
        "type": "channel",
        "subtype": "noteOff",
        "noteNumber": 86,
        "velocity": 0
      },
      {
        "deltaTime": 72,
        "channel": 1,
        "type": "channel",
        "noteNumber": 59,
        "velocity": 11,
        "subtype": "noteOn"
      },
      {
        "deltaTime": 60,
        "channel": 1,
        "type": "channel",
        "subtype": "noteOff",
        "noteNumber": 59,
        "velocity": 0
      },
      {
        "deltaTime": 36,
        "channel": 1,
        "type": "channel",
        "noteNumber": 36,
        "velocity": 20,
        "subtype": "noteOn"
      },
      {
        "deltaTime": 36,
        "channel": 1,
        "type": "channel",
        "subtype": "noteOff",
        "noteNumber": 36,
        "velocity": 0
      },
      {
        "deltaTime": 101,
        "channel": 1,
        "type": "channel",
        "noteNumber": 61,
        "velocity": 30,
        "subtype": "noteOn"
      },
      {
        "deltaTime": 29,
        "channel": 1,
        "type": "channel",
        "subtype": "noteOff",
        "noteNumber": 61,
        "velocity": 0
      },
      {
        "deltaTime": 14,
        "channel": 1,
        "type": "channel",
        "noteNumber": 32,
        "velocity": 11,
        "subtype": "noteOn"
      },
      {
        "deltaTime": 15,
        "channel": 1,
        "type": "channel",
        "subtype": "noteOff",
        "noteNumber": 32,
        "velocity": 0
      },
      {
        "deltaTime": 148,
        "channel": 1,
        "type": "channel",
        "noteNumber": 59,
        "velocity": 11,
        "subtype": "noteOn"
      },
      {
        "deltaTime": 20,
        "channel": 1,
        "type": "channel",
        "subtype": "noteOff",
        "noteNumber": 59,
        "velocity": 0
      },
      {
        "deltaTime": 40,
        "channel": 1,
        "type": "channel",
        "noteNumber": 71,
        "velocity": 13,
        "subtype": "noteOn"
      },
      {
        "deltaTime": 15,
        "channel": 1,
        "type": "channel",
        "noteNumber": 62,
        "velocity": 27,
        "subtype": "noteOn"
      },
      {
        "deltaTime": 19,
        "channel": 1,
        "type": "channel",
        "subtype": "noteOff",
        "noteNumber": 71,
        "velocity": 0
      },
      {
        "deltaTime": 53,
        "channel": 1,
        "type": "channel",
        "subtype": "noteOff",
        "noteNumber": 62,
        "velocity": 0
      },
      {
        "deltaTime": 17,
        "channel": 1,
        "type": "channel",
        "noteNumber": 54,
        "velocity": 20,
        "subtype": "noteOn"
      },
      {
        "deltaTime": 16,
        "channel": 1,
        "type": "channel",
        "subtype": "noteOff",
        "noteNumber": 54,
        "velocity": 0
      },
      {
        "deltaTime": 29,
        "channel": 1,
        "type": "channel",
        "noteNumber": 35,
        "velocity": 15,
        "subtype": "noteOn"
      },
      {
        "deltaTime": 7,
        "channel": 1,
        "type": "channel",
        "noteNumber": 47,
        "velocity": 25,
        "subtype": "noteOn"
      },
      {
        "deltaTime": 3,
        "channel": 1,
        "type": "channel",
        "subtype": "noteOff",
        "noteNumber": 35,
        "velocity": 0
      },
      {
        "deltaTime": 45,
        "channel": 1,
        "type": "channel",
        "subtype": "noteOff",
        "noteNumber": 47,
        "velocity": 0
      },
      {
        "deltaTime": 3,
        "channel": 1,
        "type": "channel",
        "noteNumber": 88,
        "velocity": 25,
        "subtype": "noteOn"
      },
      {
        "deltaTime": 36,
        "channel": 1,
        "type": "channel",
        "subtype": "noteOff",
        "noteNumber": 88,
        "velocity": 0
      },
      {
        "deltaTime": 14,
        "channel": 1,
        "type": "channel",
        "noteNumber": 59,
        "velocity": 33,
        "subtype": "noteOn"
      },
      {
        "deltaTime": 29,
        "channel": 1,
        "type": "channel",
        "noteNumber": 86,
        "velocity": 25,
        "subtype": "noteOn"
      },
      {
        "deltaTime": 38,
        "channel": 1,
        "type": "channel",
        "subtype": "noteOff",
        "noteNumber": 86,
        "velocity": 0
      },
      {
        "deltaTime": 36,
        "channel": 1,
        "type": "channel",
        "subtype": "noteOff",
        "noteNumber": 59,
        "velocity": 0
      },
      {
        "deltaTime": 8,
        "channel": 1,
        "type": "channel",
        "noteNumber": 83,
        "velocity": 21,
        "subtype": "noteOn"
      },
      {
        "deltaTime": 12,
        "channel": 1,
        "type": "channel",
        "noteNumber": 62,
        "velocity": 23,
        "subtype": "noteOn"
      },
      {
        "deltaTime": 14,
        "channel": 1,
        "type": "channel",
        "subtype": "noteOff",
        "noteNumber": 83,
        "velocity": 0
      },
      {
        "deltaTime": 12,
        "channel": 1,
        "type": "channel",
        "subtype": "noteOff",
        "noteNumber": 62,
        "velocity": 0
      },
      {
        "deltaTime": 17,
        "channel": 1,
        "type": "channel",
        "noteNumber": 45,
        "velocity": 22,
        "subtype": "noteOn"
      },
      {
        "deltaTime": 96,
        "channel": 1,
        "type": "channel",
        "noteNumber": 33,
        "velocity": 17,
        "subtype": "noteOn"
      },
      {
        "deltaTime": 36,
        "channel": 1,
        "type": "channel",
        "subtype": "noteOff",
        "noteNumber": 45,
        "velocity": 0
      },
      {
        "deltaTime": 19,
        "channel": 1,
        "type": "channel",
        "subtype": "noteOff",
        "noteNumber": 33,
        "velocity": 0
      },
      {
        "deltaTime": 110,
        "channel": 1,
        "type": "channel",
        "noteNumber": 86,
        "velocity": 25,
        "subtype": "noteOn"
      },
      {
        "deltaTime": 27,
        "channel": 1,
        "type": "channel",
        "subtype": "noteOff",
        "noteNumber": 86,
        "velocity": 0
      },
      {
        "deltaTime": 36,
        "channel": 1,
        "type": "channel",
        "noteNumber": 74,
        "velocity": 19,
        "subtype": "noteOn"
      },
      {
        "deltaTime": 113,
        "channel": 1,
        "type": "channel",
        "subtype": "noteOff",
        "noteNumber": 74,
        "velocity": 0
      },
      {
        "deltaTime": 36,
        "channel": 1,
        "type": "channel",
        "noteNumber": 32,
        "velocity": 19,
        "subtype": "noteOn"
      },
      {
        "deltaTime": 19,
        "channel": 1,
        "type": "channel",
        "subtype": "noteOff",
        "noteNumber": 32,
        "velocity": 0
      },
      {
        "deltaTime": 33,
        "channel": 1,
        "type": "channel",
        "noteNumber": 52,
        "velocity": 29,
        "subtype": "noteOn"
      },
      {
        "deltaTime": 53,
        "channel": 1,
        "type": "channel",
        "subtype": "noteOff",
        "noteNumber": 52,
        "velocity": 0
      },
      {
        "deltaTime": 5,
        "channel": 1,
        "type": "channel",
        "noteNumber": 86,
        "velocity": 30,
        "subtype": "noteOn"
      },
      {
        "deltaTime": 26,
        "channel": 1,
        "type": "channel",
        "subtype": "noteOff",
        "noteNumber": 86,
        "velocity": 0
      },
      {
        "deltaTime": 12,
        "channel": 1,
        "type": "channel",
        "noteNumber": 38,
        "velocity": 15,
        "subtype": "noteOn"
      },
      {
        "deltaTime": 22,
        "channel": 1,
        "type": "channel",
        "noteNumber": 102,
        "velocity": 19,
        "subtype": "noteOn"
      },
      {
        "deltaTime": 7,
        "channel": 1,
        "type": "channel",
        "subtype": "noteOff",
        "noteNumber": 38,
        "velocity": 0
      },
      {
        "deltaTime": 43,
        "channel": 1,
        "type": "channel",
        "subtype": "noteOff",
        "noteNumber": 102,
        "velocity": 0
      },
      {
        "deltaTime": 94,
        "channel": 1,
        "type": "channel",
        "noteNumber": 78,
        "velocity": 12,
        "subtype": "noteOn"
      },
      {
        "deltaTime": 17,
        "channel": 1,
        "type": "channel",
        "subtype": "noteOff",
        "noteNumber": 78,
        "velocity": 0
      },
      {
        "deltaTime": 17,
        "channel": 1,
        "type": "channel",
        "noteNumber": 61,
        "velocity": 26,
        "subtype": "noteOn"
      },
      {
        "deltaTime": 48,
        "channel": 1,
        "type": "channel",
        "subtype": "noteOff",
        "noteNumber": 61,
        "velocity": 0
      },
      {
        "deltaTime": 2,
        "channel": 1,
        "type": "channel",
        "noteNumber": 71,
        "velocity": 30,
        "subtype": "noteOn"
      },
      {
        "deltaTime": 67,
        "channel": 1,
        "type": "channel",
        "subtype": "noteOff",
        "noteNumber": 71,
        "velocity": 0
      },
      {
        "deltaTime": 84,
        "channel": 1,
        "type": "channel",
        "noteNumber": 99,
        "velocity": 21,
        "subtype": "noteOn"
      },
      {
        "deltaTime": 151,
        "channel": 1,
        "type": "channel",
        "subtype": "noteOff",
        "noteNumber": 99,
        "velocity": 0
      },
      {
        "deltaTime": 70,
        "channel": 1,
        "type": "channel",
        "noteNumber": 83,
        "velocity": 24,
        "subtype": "noteOn"
      },
      {
        "deltaTime": 17,
        "channel": 1,
        "type": "channel",
        "subtype": "noteOff",
        "noteNumber": 83,
        "velocity": 0
      },
      {
        "deltaTime": 24,
        "channel": 1,
        "type": "channel",
        "noteNumber": 71,
        "velocity": 15,
        "subtype": "noteOn"
      },
      {
        "deltaTime": 9,
        "channel": 1,
        "type": "channel",
        "subtype": "noteOff",
        "noteNumber": 71,
        "velocity": 0
      },
      {
        "deltaTime": 20,
        "channel": 1,
        "type": "channel",
        "noteNumber": 105,
        "velocity": 28,
        "subtype": "noteOn"
      },
      {
        "deltaTime": 14,
        "channel": 1,
        "type": "channel",
        "subtype": "noteOff",
        "noteNumber": 105,
        "velocity": 0
      },
      {
        "deltaTime": 96,
        "channel": 1,
        "type": "channel",
        "noteNumber": 90,
        "velocity": 47,
        "subtype": "noteOn"
      },
      {
        "deltaTime": 149,
        "channel": 1,
        "type": "channel",
        "subtype": "noteOff",
        "noteNumber": 90,
        "velocity": 0
      },
      {
        "deltaTime": 19,
        "channel": 1,
        "type": "channel",
        "noteNumber": 69,
        "velocity": 38,
        "subtype": "noteOn"
      },
      {
        "deltaTime": 46,
        "channel": 1,
        "type": "channel",
        "noteNumber": 57,
        "velocity": 30,
        "subtype": "noteOn"
      },
      {
        "deltaTime": 12,
        "channel": 1,
        "type": "channel",
        "noteNumber": 32,
        "velocity": 25,
        "subtype": "noteOn"
      },
      {
        "deltaTime": 2,
        "channel": 1,
        "type": "channel",
        "subtype": "noteOff",
        "noteNumber": 69,
        "velocity": 0
      },
      {
        "deltaTime": 14,
        "channel": 1,
        "type": "channel",
        "subtype": "noteOff",
        "noteNumber": 32,
        "velocity": 0
      },
      {
        "deltaTime": 3,
        "channel": 1,
        "type": "channel",
        "noteNumber": 43,
        "velocity": 37,
        "subtype": "noteOn"
      },
      {
        "deltaTime": 19,
        "channel": 1,
        "type": "channel",
        "subtype": "noteOff",
        "noteNumber": 57,
        "velocity": 0
      },
      {
        "deltaTime": 31,
        "channel": 1,
        "type": "channel",
        "subtype": "noteOff",
        "noteNumber": 43,
        "velocity": 0
      },
      {
        "deltaTime": 34,
        "channel": 1,
        "type": "channel",
        "noteNumber": 33,
        "velocity": 35,
        "subtype": "noteOn"
      },
      {
        "deltaTime": 38,
        "channel": 1,
        "type": "channel",
        "subtype": "noteOff",
        "noteNumber": 33,
        "velocity": 0
      },
      {
        "deltaTime": 53,
        "channel": 1,
        "type": "channel",
        "noteNumber": 35,
        "velocity": 42,
        "subtype": "noteOn"
      },
      {
        "deltaTime": 26,
        "channel": 1,
        "type": "channel",
        "subtype": "noteOff",
        "noteNumber": 35,
        "velocity": 0
      },
      {
        "deltaTime": 5,
        "channel": 1,
        "type": "channel",
        "noteNumber": 34,
        "velocity": 41,
        "subtype": "noteOn"
      },
      {
        "deltaTime": 27,
        "channel": 1,
        "type": "channel",
        "subtype": "noteOff",
        "noteNumber": 34,
        "velocity": 0
      },
      {
        "deltaTime": 55,
        "channel": 1,
        "type": "channel",
        "noteNumber": 81,
        "velocity": 12,
        "subtype": "noteOn"
      },
      {
        "deltaTime": 19,
        "channel": 1,
        "type": "channel",
        "noteNumber": 45,
        "velocity": 18,
        "subtype": "noteOn"
      },
      {
        "deltaTime": 5,
        "channel": 1,
        "type": "channel",
        "subtype": "noteOff",
        "noteNumber": 81,
        "velocity": 0
      },
      {
        "deltaTime": 79,
        "channel": 1,
        "type": "channel",
        "subtype": "noteOff",
        "noteNumber": 45,
        "velocity": 0
      },
      {
        "deltaTime": 12,
        "channel": 1,
        "type": "channel",
        "noteNumber": 71,
        "velocity": 24,
        "subtype": "noteOn"
      },
      {
        "deltaTime": 46,
        "channel": 1,
        "type": "channel",
        "noteNumber": 32,
        "velocity": 11,
        "subtype": "noteOn"
      },
      {
        "deltaTime": 12,
        "channel": 1,
        "type": "channel",
        "subtype": "noteOff",
        "noteNumber": 32,
        "velocity": 0
      },
      {
        "deltaTime": 2,
        "channel": 1,
        "type": "channel",
        "noteNumber": 35,
        "velocity": 41,
        "subtype": "noteOn"
      },
      {
        "deltaTime": 55,
        "channel": 1,
        "type": "channel",
        "subtype": "noteOff",
        "noteNumber": 71,
        "velocity": 0
      },
      {
        "deltaTime": 159,
        "channel": 1,
        "type": "channel",
        "subtype": "noteOff",
        "noteNumber": 35,
        "velocity": 0
      },
      {
        "deltaTime": 45,
        "channel": 1,
        "type": "channel",
        "noteNumber": 59,
        "velocity": 29,
        "subtype": "noteOn"
      },
      {
        "deltaTime": 43,
        "channel": 1,
        "type": "channel",
        "noteNumber": 62,
        "velocity": 20,
        "subtype": "noteOn"
      },
      {
        "deltaTime": 63,
        "channel": 1,
        "type": "channel",
        "subtype": "noteOff",
        "noteNumber": 59,
        "velocity": 0
      },
      {
        "deltaTime": 0,
        "channel": 1,
        "type": "channel",
        "subtype": "noteOff",
        "noteNumber": 62,
        "velocity": 0
      },
      {
        "deltaTime": 31,
        "channel": 1,
        "type": "channel",
        "noteNumber": 59,
        "velocity": 24,
        "subtype": "noteOn"
      },
      {
        "deltaTime": 12,
        "channel": 1,
        "type": "channel",
        "subtype": "noteOff",
        "noteNumber": 59,
        "velocity": 0
      },
      {
        "deltaTime": 0,
        "channel": 1,
        "type": "channel",
        "noteNumber": 38,
        "velocity": 20,
        "subtype": "noteOn"
      },
      {
        "deltaTime": 34,
        "channel": 1,
        "type": "channel",
        "subtype": "noteOff",
        "noteNumber": 38,
        "velocity": 0
      },
      {
        "deltaTime": 19,
        "channel": 1,
        "type": "channel",
        "noteNumber": 62,
        "velocity": 26,
        "subtype": "noteOn"
      },
      {
        "deltaTime": 21,
        "channel": 1,
        "type": "channel",
        "noteNumber": 81,
        "velocity": 24,
        "subtype": "noteOn"
      },
      {
        "deltaTime": 75,
        "channel": 1,
        "type": "channel",
        "subtype": "noteOff",
        "noteNumber": 81,
        "velocity": 0
      },
      {
        "deltaTime": 9,
        "channel": 1,
        "type": "channel",
        "subtype": "noteOff",
        "noteNumber": 62,
        "velocity": 0
      },
      {
        "deltaTime": 41,
        "channel": 1,
        "type": "channel",
        "noteNumber": 38,
        "velocity": 22,
        "subtype": "noteOn"
      },
      {
        "deltaTime": 10,
        "channel": 1,
        "type": "channel",
        "noteNumber": 50,
        "velocity": 35,
        "subtype": "noteOn"
      },
      {
        "deltaTime": 29,
        "channel": 1,
        "type": "channel",
        "subtype": "noteOff",
        "noteNumber": 38,
        "velocity": 0
      },
      {
        "deltaTime": 48,
        "channel": 1,
        "type": "channel",
        "subtype": "noteOff",
        "noteNumber": 50,
        "velocity": 0
      },
      {
        "deltaTime": 14,
        "channel": 1,
        "type": "channel",
        "noteNumber": 106,
        "velocity": 25,
        "subtype": "noteOn"
      },
      {
        "deltaTime": 24,
        "channel": 1,
        "type": "channel",
        "subtype": "noteOff",
        "noteNumber": 106,
        "velocity": 0
      },
      {
        "deltaTime": 10,
        "channel": 1,
        "type": "channel",
        "noteNumber": 59,
        "velocity": 39,
        "subtype": "noteOn"
      },
      {
        "deltaTime": 12,
        "channel": 1,
        "type": "channel",
        "noteNumber": 106,
        "velocity": 46,
        "subtype": "noteOn"
      },
      {
        "deltaTime": 62,
        "channel": 1,
        "type": "channel",
        "subtype": "noteOff",
        "noteNumber": 59,
        "velocity": 0
      },
      {
        "deltaTime": 43,
        "channel": 1,
        "type": "channel",
        "noteNumber": 69,
        "velocity": 32,
        "subtype": "noteOn"
      },
      {
        "deltaTime": 29,
        "channel": 1,
        "type": "channel",
        "subtype": "noteOff",
        "noteNumber": 69,
        "velocity": 0
      },
      {
        "deltaTime": 67,
        "channel": 1,
        "type": "channel",
        "noteNumber": 52,
        "velocity": 29,
        "subtype": "noteOn"
      },
      {
        "deltaTime": 53,
        "channel": 1,
        "type": "channel",
        "subtype": "noteOff",
        "noteNumber": 52,
        "velocity": 0
      },
      {
        "deltaTime": 38,
        "channel": 1,
        "type": "channel",
        "subtype": "noteOff",
        "noteNumber": 106,
        "velocity": 0
      },
      {
        "deltaTime": 0,
        "channel": 1,
        "type": "channel",
        "noteNumber": 36,
        "velocity": 33,
        "subtype": "noteOn"
      },
      {
        "deltaTime": 17,
        "channel": 1,
        "type": "channel",
        "subtype": "noteOff",
        "noteNumber": 36,
        "velocity": 0
      },
      {
        "deltaTime": 5,
        "channel": 1,
        "type": "channel",
        "noteNumber": 61,
        "velocity": 17,
        "subtype": "noteOn"
      },
      {
        "deltaTime": 17,
        "channel": 1,
        "type": "channel",
        "subtype": "noteOff",
        "noteNumber": 61,
        "velocity": 0
      },
      {
        "deltaTime": 9,
        "channel": 1,
        "type": "channel",
        "noteNumber": 33,
        "velocity": 17,
        "subtype": "noteOn"
      },
      {
        "deltaTime": 10,
        "channel": 1,
        "type": "channel",
        "subtype": "noteOff",
        "noteNumber": 33,
        "velocity": 0
      },
      {
        "deltaTime": 34,
        "channel": 1,
        "type": "channel",
        "noteNumber": 106,
        "velocity": 28,
        "subtype": "noteOn"
      },
      {
        "deltaTime": 43,
        "channel": 1,
        "type": "channel",
        "subtype": "noteOff",
        "noteNumber": 106,
        "velocity": 0
      },
      {
        "deltaTime": 2,
        "channel": 1,
        "type": "channel",
        "noteNumber": 106,
        "velocity": 28,
        "subtype": "noteOn"
      },
      {
        "deltaTime": 17,
        "channel": 1,
        "type": "channel",
        "subtype": "noteOff",
        "noteNumber": 106,
        "velocity": 0
      },
      {
        "deltaTime": 0,
        "channel": 1,
        "type": "channel",
        "noteNumber": 78,
        "velocity": 39,
        "subtype": "noteOn"
      },
      {
        "deltaTime": 166,
        "channel": 1,
        "type": "channel",
        "subtype": "noteOff",
        "noteNumber": 78,
        "velocity": 0
      },
      {
        "deltaTime": 12,
        "channel": 1,
        "type": "channel",
        "noteNumber": 62,
        "velocity": 46,
        "subtype": "noteOn"
      },
      {
        "deltaTime": 187,
        "channel": 1,
        "type": "channel",
        "subtype": "noteOff",
        "noteNumber": 62,
        "velocity": 0
      },
      {
        "deltaTime": 12,
        "channel": 1,
        "type": "channel",
        "noteNumber": 59,
        "velocity": 32,
        "subtype": "noteOn"
      },
      {
        "deltaTime": 67,
        "channel": 1,
        "type": "channel",
        "subtype": "noteOff",
        "noteNumber": 59,
        "velocity": 0
      },
      {
        "deltaTime": 17,
        "channel": 1,
        "type": "channel",
        "noteNumber": 83,
        "velocity": 26,
        "subtype": "noteOn"
      },
      {
        "deltaTime": 9,
        "channel": 1,
        "type": "channel",
        "noteNumber": 66,
        "velocity": 12,
        "subtype": "noteOn"
      },
      {
        "deltaTime": 17,
        "channel": 1,
        "type": "channel",
        "subtype": "noteOff",
        "noteNumber": 66,
        "velocity": 0
      },
      {
        "deltaTime": 3,
        "channel": 1,
        "type": "channel",
        "subtype": "noteOff",
        "noteNumber": 83,
        "velocity": 0
      },
      {
        "deltaTime": 9,
        "channel": 1,
        "type": "channel",
        "noteNumber": 42,
        "velocity": 11,
        "subtype": "noteOn"
      },
      {
        "deltaTime": 15,
        "channel": 1,
        "type": "channel",
        "subtype": "noteOff",
        "noteNumber": 42,
        "velocity": 0
      },
      {
        "deltaTime": 19,
        "channel": 1,
        "type": "channel",
        "noteNumber": 50,
        "velocity": 42,
        "subtype": "noteOn"
      },
      {
        "deltaTime": 43,
        "channel": 1,
        "type": "channel",
        "subtype": "noteOff",
        "noteNumber": 50,
        "velocity": 0
      },
      {
        "deltaTime": 10,
        "channel": 1,
        "type": "channel",
        "noteNumber": 50,
        "velocity": 14,
        "subtype": "noteOn"
      },
      {
        "deltaTime": 26,
        "channel": 1,
        "type": "channel",
        "subtype": "noteOff",
        "noteNumber": 50,
        "velocity": 0
      },
      {
        "deltaTime": 182,
        "channel": 1,
        "type": "channel",
        "noteNumber": 62,
        "velocity": 38,
        "subtype": "noteOn"
      },
      {
        "deltaTime": 17,
        "channel": 1,
        "type": "channel",
        "subtype": "noteOff",
        "noteNumber": 62,
        "velocity": 0
      },
      {
        "deltaTime": 12,
        "channel": 1,
        "type": "channel",
        "noteNumber": 83,
        "velocity": 19,
        "subtype": "noteOn"
      },
      {
        "deltaTime": 10,
        "channel": 1,
        "type": "channel",
        "subtype": "noteOff",
        "noteNumber": 83,
        "velocity": 0
      },
      {
        "deltaTime": 12,
        "channel": 1,
        "type": "channel",
        "noteNumber": 69,
        "velocity": 28,
        "subtype": "noteOn"
      },
      {
        "deltaTime": 122,
        "channel": 1,
        "type": "channel",
        "subtype": "noteOff",
        "noteNumber": 69,
        "velocity": 0
      },
      {
        "deltaTime": 31,
        "channel": 1,
        "type": "channel",
        "noteNumber": 52,
        "velocity": 39,
        "subtype": "noteOn"
      },
      {
        "deltaTime": 12,
        "channel": 1,
        "type": "channel",
        "subtype": "noteOff",
        "noteNumber": 52,
        "velocity": 0
      },
      {
        "deltaTime": 53,
        "channel": 1,
        "type": "channel",
        "noteNumber": 61,
        "velocity": 27,
        "subtype": "noteOn"
      },
      {
        "deltaTime": 22,
        "channel": 1,
        "type": "channel",
        "subtype": "noteOff",
        "noteNumber": 61,
        "velocity": 0
      },
      {
        "deltaTime": 12,
        "channel": 1,
        "type": "channel",
        "noteNumber": 71,
        "velocity": 10,
        "subtype": "noteOn"
      },
      {
        "deltaTime": 14,
        "channel": 1,
        "type": "channel",
        "subtype": "noteOff",
        "noteNumber": 71,
        "velocity": 0
      },
      {
        "deltaTime": 7,
        "channel": 1,
        "type": "channel",
        "noteNumber": 93,
        "velocity": 41,
        "subtype": "noteOn"
      },
      {
        "deltaTime": 10,
        "channel": 1,
        "type": "channel",
        "subtype": "noteOff",
        "noteNumber": 93,
        "velocity": 0
      },
      {
        "deltaTime": 70,
        "channel": 1,
        "type": "channel",
        "noteNumber": 61,
        "velocity": 15,
        "subtype": "noteOn"
      },
      {
        "deltaTime": 9,
        "channel": 1,
        "type": "channel",
        "subtype": "noteOff",
        "noteNumber": 61,
        "velocity": 0
      },
      {
        "deltaTime": 5,
        "channel": 1,
        "type": "channel",
        "noteNumber": 85,
        "velocity": 29,
        "subtype": "noteOn"
      },
      {
        "deltaTime": 31,
        "channel": 1,
        "type": "channel",
        "subtype": "noteOff",
        "noteNumber": 85,
        "velocity": 0
      },
      {
        "deltaTime": 53,
        "channel": 1,
        "type": "channel",
        "noteNumber": 81,
        "velocity": 22,
        "subtype": "noteOn"
      },
      {
        "deltaTime": 62,
        "channel": 1,
        "type": "channel",
        "noteNumber": 35,
        "velocity": 38,
        "subtype": "noteOn"
      },
      {
        "deltaTime": 29,
        "channel": 1,
        "type": "channel",
        "subtype": "noteOff",
        "noteNumber": 81,
        "velocity": 0
      },
      {
        "deltaTime": 27,
        "channel": 1,
        "type": "channel",
        "noteNumber": 85,
        "velocity": 24,
        "subtype": "noteOn"
      },
      {
        "deltaTime": 26,
        "channel": 1,
        "type": "channel",
        "subtype": "noteOff",
        "noteNumber": 85,
        "velocity": 0
      },
      {
        "deltaTime": 82,
        "channel": 1,
        "type": "channel",
        "noteNumber": 47,
        "velocity": 35,
        "subtype": "noteOn"
      },
      {
        "deltaTime": 7,
        "channel": 1,
        "type": "channel",
        "subtype": "noteOff",
        "noteNumber": 35,
        "velocity": 0
      },
      {
        "deltaTime": 2,
        "channel": 1,
        "type": "channel",
        "subtype": "noteOff",
        "noteNumber": 47,
        "velocity": 0
      },
      {
        "deltaTime": 22,
        "channel": 1,
        "type": "channel",
        "noteNumber": 66,
        "velocity": 31,
        "subtype": "noteOn"
      },
      {
        "deltaTime": 29,
        "channel": 1,
        "type": "channel",
        "subtype": "noteOff",
        "noteNumber": 66,
        "velocity": 0
      },
      {
        "deltaTime": 0,
        "channel": 1,
        "type": "channel",
        "noteNumber": 64,
        "velocity": 28,
        "subtype": "noteOn"
      },
      {
        "deltaTime": 62,
        "channel": 1,
        "type": "channel",
        "subtype": "noteOff",
        "noteNumber": 64,
        "velocity": 0
      },
      {
        "deltaTime": 26,
        "channel": 1,
        "type": "channel",
        "noteNumber": 62,
        "velocity": 23,
        "subtype": "noteOn"
      },
      {
        "deltaTime": 27,
        "channel": 1,
        "type": "channel",
        "noteNumber": 54,
        "velocity": 19,
        "subtype": "noteOn"
      },
      {
        "deltaTime": 29,
        "channel": 1,
        "type": "channel",
        "subtype": "noteOff",
        "noteNumber": 62,
        "velocity": 0
      },
      {
        "deltaTime": 2,
        "channel": 1,
        "type": "channel",
        "subtype": "noteOff",
        "noteNumber": 54,
        "velocity": 0
      },
      {
        "deltaTime": 34,
        "channel": 1,
        "type": "channel",
        "noteNumber": 59,
        "velocity": 19,
        "subtype": "noteOn"
      },
      {
        "deltaTime": 9,
        "channel": 1,
        "type": "channel",
        "subtype": "noteOff",
        "noteNumber": 59,
        "velocity": 0
      },
      {
        "deltaTime": 17,
        "channel": 1,
        "type": "channel",
        "noteNumber": 54,
        "velocity": 16,
        "subtype": "noteOn"
      },
      {
        "deltaTime": 10,
        "channel": 1,
        "type": "channel",
        "subtype": "noteOff",
        "noteNumber": 54,
        "velocity": 0
      },
      {
        "deltaTime": 4,
        "channel": 1,
        "type": "channel",
        "noteNumber": 66,
        "velocity": 17,
        "subtype": "noteOn"
      },
      {
        "deltaTime": 125,
        "channel": 1,
        "type": "channel",
        "subtype": "noteOff",
        "noteNumber": 66,
        "velocity": 0
      },
      {
        "deltaTime": 41,
        "channel": 1,
        "type": "channel",
        "noteNumber": 36,
        "velocity": 14,
        "subtype": "noteOn"
      },
      {
        "deltaTime": 12,
        "channel": 1,
        "type": "channel",
        "noteNumber": 50,
        "velocity": 40,
        "subtype": "noteOn"
      },
      {
        "deltaTime": 12,
        "channel": 1,
        "type": "channel",
        "subtype": "noteOff",
        "noteNumber": 36,
        "velocity": 0
      },
      {
        "deltaTime": 98,
        "channel": 1,
        "type": "channel",
        "subtype": "noteOff",
        "noteNumber": 50,
        "velocity": 0
      },
      {
        "deltaTime": 15,
        "channel": 1,
        "type": "channel",
        "noteNumber": 57,
        "velocity": 31,
        "subtype": "noteOn"
      },
      {
        "deltaTime": 29,
        "channel": 1,
        "type": "channel",
        "subtype": "noteOff",
        "noteNumber": 57,
        "velocity": 0
      },
      {
        "deltaTime": 50,
        "channel": 1,
        "type": "channel",
        "noteNumber": 59,
        "velocity": 37,
        "subtype": "noteOn"
      },
      {
        "deltaTime": 29,
        "channel": 1,
        "type": "channel",
        "subtype": "noteOff",
        "noteNumber": 59,
        "velocity": 0
      },
      {
        "deltaTime": 127,
        "channel": 1,
        "type": "channel",
        "noteNumber": 61,
        "velocity": 30,
        "subtype": "noteOn"
      },
      {
        "deltaTime": 24,
        "channel": 1,
        "type": "channel",
        "subtype": "noteOff",
        "noteNumber": 61,
        "velocity": 0
      },
      {
        "deltaTime": 14,
        "channel": 1,
        "type": "channel",
        "noteNumber": 69,
        "velocity": 40,
        "subtype": "noteOn"
      },
      {
        "deltaTime": 29,
        "channel": 1,
        "type": "channel",
        "subtype": "noteOff",
        "noteNumber": 69,
        "velocity": 0
      },
      {
        "deltaTime": 51,
        "channel": 1,
        "type": "channel",
        "noteNumber": 61,
        "velocity": 30,
        "subtype": "noteOn"
      },
      {
        "deltaTime": 144,
        "channel": 1,
        "type": "channel",
        "noteNumber": 71,
        "velocity": 13,
        "subtype": "noteOn"
      },
      {
        "deltaTime": 4,
        "channel": 1,
        "type": "channel",
        "subtype": "noteOff",
        "noteNumber": 61,
        "velocity": 0
      },
      {
        "deltaTime": 22,
        "channel": 1,
        "type": "channel",
        "noteNumber": 35,
        "velocity": 42,
        "subtype": "noteOn"
      },
      {
        "deltaTime": 41,
        "channel": 1,
        "type": "channel",
        "subtype": "noteOff",
        "noteNumber": 71,
        "velocity": 0
      },
      {
        "deltaTime": 91,
        "channel": 1,
        "type": "channel",
        "noteNumber": 102,
        "velocity": 18,
        "subtype": "noteOn"
      },
      {
        "deltaTime": 70,
        "channel": 1,
        "type": "channel",
        "subtype": "noteOff",
        "noteNumber": 102,
        "velocity": 0
      },
      {
        "deltaTime": 108,
        "channel": 1,
        "type": "channel",
        "subtype": "noteOff",
        "noteNumber": 35,
        "velocity": 0
      },
      {
        "deltaTime": 12,
        "channel": 1,
        "type": "channel",
        "noteNumber": 62,
        "velocity": 21,
        "subtype": "noteOn"
      },
      {
        "deltaTime": 100,
        "channel": 1,
        "type": "channel",
        "subtype": "noteOff",
        "noteNumber": 62,
        "velocity": 0
      },
      {
        "deltaTime": 17,
        "channel": 1,
        "type": "channel",
        "noteNumber": 61,
        "velocity": 10,
        "subtype": "noteOn"
      },
      {
        "deltaTime": 27,
        "channel": 1,
        "type": "channel",
        "subtype": "noteOff",
        "noteNumber": 61,
        "velocity": 0
      },
      {
        "deltaTime": 88,
        "channel": 1,
        "type": "channel",
        "noteNumber": 59,
        "velocity": 16,
        "subtype": "noteOn"
      },
      {
        "deltaTime": 24,
        "channel": 1,
        "type": "channel",
        "subtype": "noteOff",
        "noteNumber": 59,
        "velocity": 0
      },
      {
        "deltaTime": 5,
        "channel": 1,
        "type": "channel",
        "noteNumber": 90,
        "velocity": 45,
        "subtype": "noteOn"
      },
      {
        "deltaTime": 147,
        "channel": 1,
        "type": "channel",
        "subtype": "noteOff",
        "noteNumber": 90,
        "velocity": 0
      },
      {
        "deltaTime": 24,
        "channel": 1,
        "type": "channel",
        "noteNumber": 83,
        "velocity": 19,
        "subtype": "noteOn"
      },
      {
        "deltaTime": 2,
        "channel": 1,
        "type": "channel",
        "noteNumber": 57,
        "velocity": 35,
        "subtype": "noteOn"
      },
      {
        "deltaTime": 14,
        "channel": 1,
        "type": "channel",
        "subtype": "noteOff",
        "noteNumber": 83,
        "velocity": 0
      },
      {
        "deltaTime": 17,
        "channel": 1,
        "type": "channel",
        "subtype": "noteOff",
        "noteNumber": 57,
        "velocity": 0
      },
      {
        "deltaTime": 10,
        "channel": 1,
        "type": "channel",
        "noteNumber": 57,
        "velocity": 37,
        "subtype": "noteOn"
      },
      {
        "deltaTime": 50,
        "channel": 1,
        "type": "channel",
        "subtype": "noteOff",
        "noteNumber": 57,
        "velocity": 0
      },
      {
        "deltaTime": 72,
        "channel": 1,
        "type": "channel",
        "noteNumber": 52,
        "velocity": 38,
        "subtype": "noteOn"
      },
      {
        "deltaTime": 24,
        "channel": 1,
        "type": "channel",
        "subtype": "noteOff",
        "noteNumber": 52,
        "velocity": 0
      },
      {
        "deltaTime": 22,
        "channel": 1,
        "type": "channel",
        "noteNumber": 52,
        "velocity": 38,
        "subtype": "noteOn"
      },
      {
        "deltaTime": 55,
        "channel": 1,
        "type": "channel",
        "subtype": "noteOff",
        "noteNumber": 52,
        "velocity": 0
      },
      {
        "deltaTime": 17,
        "channel": 1,
        "type": "channel",
        "noteNumber": 59,
        "velocity": 31,
        "subtype": "noteOn"
      },
      {
        "deltaTime": 24,
        "channel": 1,
        "type": "channel",
        "subtype": "noteOff",
        "noteNumber": 59,
        "velocity": 0
      },
      {
        "deltaTime": 17,
        "channel": 1,
        "type": "channel",
        "noteNumber": 59,
        "velocity": 13,
        "subtype": "noteOn"
      },
      {
        "deltaTime": 24,
        "channel": 1,
        "type": "channel",
        "subtype": "noteOff",
        "noteNumber": 59,
        "velocity": 0
      },
      {
        "deltaTime": 28,
        "channel": 1,
        "type": "channel",
        "noteNumber": 61,
        "velocity": 11,
        "subtype": "noteOn"
      },
      {
        "deltaTime": 10,
        "channel": 1,
        "type": "channel",
        "noteNumber": 45,
        "velocity": 14,
        "subtype": "noteOn"
      },
      {
        "deltaTime": 2,
        "channel": 1,
        "type": "channel",
        "subtype": "noteOff",
        "noteNumber": 61,
        "velocity": 0
      },
      {
        "deltaTime": 77,
        "channel": 1,
        "type": "channel",
        "subtype": "noteOff",
        "noteNumber": 45,
        "velocity": 0
      },
      {
        "deltaTime": 10,
        "channel": 1,
        "type": "channel",
        "noteNumber": 78,
        "velocity": 22,
        "subtype": "noteOn"
      },
      {
        "deltaTime": 81,
        "channel": 1,
        "type": "channel",
        "subtype": "noteOff",
        "noteNumber": 78,
        "velocity": 0
      },
      {
        "deltaTime": 3,
        "channel": 1,
        "type": "channel",
        "noteNumber": 62,
        "velocity": 25,
        "subtype": "noteOn"
      },
      {
        "deltaTime": 29,
        "channel": 1,
        "type": "channel",
        "noteNumber": 106,
        "velocity": 33,
        "subtype": "noteOn"
      },
      {
        "deltaTime": 4,
        "channel": 1,
        "type": "channel",
        "subtype": "noteOff",
        "noteNumber": 62,
        "velocity": 0
      },
      {
        "deltaTime": 41,
        "channel": 1,
        "type": "channel",
        "subtype": "noteOff",
        "noteNumber": 106,
        "velocity": 0
      },
      {
        "deltaTime": 7,
        "channel": 1,
        "type": "channel",
        "noteNumber": 62,
        "velocity": 46,
        "subtype": "noteOn"
      },
      {
        "deltaTime": 123,
        "channel": 1,
        "type": "channel",
        "noteNumber": 47,
        "velocity": 36,
        "subtype": "noteOn"
      },
      {
        "deltaTime": 57,
        "channel": 1,
        "type": "channel",
        "subtype": "noteOff",
        "noteNumber": 62,
        "velocity": 0
      },
      {
        "deltaTime": 5,
        "channel": 1,
        "type": "channel",
        "subtype": "noteOff",
        "noteNumber": 47,
        "velocity": 0
      },
      {
        "deltaTime": 46,
        "channel": 1,
        "type": "channel",
        "noteNumber": 83,
        "velocity": 32,
        "subtype": "noteOn"
      },
      {
        "deltaTime": 31,
        "channel": 1,
        "type": "channel",
        "subtype": "noteOff",
        "noteNumber": 83,
        "velocity": 0
      },
      {
        "deltaTime": 19,
        "channel": 1,
        "type": "channel",
        "noteNumber": 62,
        "velocity": 24,
        "subtype": "noteOn"
      },
      {
        "deltaTime": 24,
        "channel": 1,
        "type": "channel",
        "noteNumber": 38,
        "velocity": 22,
        "subtype": "noteOn"
      },
      {
        "deltaTime": 3,
        "channel": 1,
        "type": "channel",
        "subtype": "noteOff",
        "noteNumber": 62,
        "velocity": 0
      },
      {
        "deltaTime": 31,
        "channel": 1,
        "type": "channel",
        "subtype": "noteOff",
        "noteNumber": 38,
        "velocity": 0
      },
      {
        "deltaTime": 50,
        "channel": 1,
        "type": "channel",
        "noteNumber": 81,
        "velocity": 19,
        "subtype": "noteOn"
      },
      {
        "deltaTime": 29,
        "channel": 1,
        "type": "channel",
        "subtype": "noteOff",
        "noteNumber": 81,
        "velocity": 0
      },
      {
        "deltaTime": 34,
        "channel": 1,
        "type": "channel",
        "noteNumber": 57,
        "velocity": 33,
        "subtype": "noteOn"
      },
      {
        "deltaTime": 19,
        "channel": 1,
        "type": "channel",
        "subtype": "noteOff",
        "noteNumber": 57,
        "velocity": 0
      },
      {
        "deltaTime": 12,
        "channel": 1,
        "type": "channel",
        "noteNumber": 67,
        "velocity": 20,
        "subtype": "noteOn"
      },
      {
        "deltaTime": 21,
        "channel": 1,
        "type": "channel",
        "noteNumber": 38,
        "velocity": 24,
        "subtype": "noteOn"
      },
      {
        "deltaTime": 8,
        "channel": 1,
        "type": "channel",
        "subtype": "noteOff",
        "noteNumber": 67,
        "velocity": 0
      },
      {
        "deltaTime": 14,
        "channel": 1,
        "type": "channel",
        "subtype": "noteOff",
        "noteNumber": 38,
        "velocity": 0
      },
      {
        "deltaTime": 31,
        "channel": 1,
        "type": "channel",
        "noteNumber": 59,
        "velocity": 40,
        "subtype": "noteOn"
      },
      {
        "deltaTime": 72,
        "channel": 1,
        "type": "channel",
        "subtype": "noteOff",
        "noteNumber": 59,
        "velocity": 0
      },
      {
        "deltaTime": 12,
        "channel": 1,
        "type": "channel",
        "noteNumber": 83,
        "velocity": 22,
        "subtype": "noteOn"
      },
      {
        "deltaTime": 3,
        "channel": 1,
        "type": "channel",
        "noteNumber": 57,
        "velocity": 34,
        "subtype": "noteOn"
      },
      {
        "deltaTime": 14,
        "channel": 1,
        "type": "channel",
        "subtype": "noteOff",
        "noteNumber": 83,
        "velocity": 0
      },
      {
        "deltaTime": 14,
        "channel": 1,
        "type": "channel",
        "subtype": "noteOff",
        "noteNumber": 57,
        "velocity": 0
      },
      {
        "deltaTime": 39,
        "channel": 1,
        "type": "channel",
        "noteNumber": 88,
        "velocity": 35,
        "subtype": "noteOn"
      },
      {
        "deltaTime": 38,
        "channel": 1,
        "type": "channel",
        "subtype": "noteOff",
        "noteNumber": 88,
        "velocity": 0
      },
      {
        "deltaTime": 3,
        "channel": 1,
        "type": "channel",
        "noteNumber": 59,
        "velocity": 25,
        "subtype": "noteOn"
      },
      {
        "deltaTime": 33,
        "channel": 1,
        "type": "channel",
        "subtype": "noteOff",
        "noteNumber": 59,
        "velocity": 0
      },
      {
        "deltaTime": 3,
        "channel": 1,
        "type": "channel",
        "noteNumber": 81,
        "velocity": 35,
        "subtype": "noteOn"
      },
      {
        "deltaTime": 57,
        "channel": 1,
        "type": "channel",
        "subtype": "noteOff",
        "noteNumber": 81,
        "velocity": 0
      },
      {
        "deltaTime": 34,
        "channel": 1,
        "type": "channel",
        "noteNumber": 61,
        "velocity": 28,
        "subtype": "noteOn"
      },
      {
        "deltaTime": 24,
        "channel": 1,
        "type": "channel",
        "subtype": "noteOff",
        "noteNumber": 61,
        "velocity": 0
      },
      {
        "deltaTime": 26,
        "channel": 1,
        "type": "channel",
        "noteNumber": 64,
        "velocity": 43,
        "subtype": "noteOn"
      },
      {
        "deltaTime": 17,
        "channel": 1,
        "type": "channel",
        "subtype": "noteOff",
        "noteNumber": 64,
        "velocity": 0
      },
      {
        "deltaTime": 43,
        "channel": 1,
        "type": "channel",
        "noteNumber": 61,
        "velocity": 15,
        "subtype": "noteOn"
      },
      {
        "deltaTime": 34,
        "channel": 1,
        "type": "channel",
        "noteNumber": 83,
        "velocity": 21,
        "subtype": "noteOn"
      },
      {
        "deltaTime": 5,
        "channel": 1,
        "type": "channel",
        "subtype": "noteOff",
        "noteNumber": 61,
        "velocity": 0
      },
      {
        "deltaTime": 9,
        "channel": 1,
        "type": "channel",
        "subtype": "noteOff",
        "noteNumber": 83,
        "velocity": 0
      },
      {
        "deltaTime": 3,
        "channel": 1,
        "type": "channel",
        "noteNumber": 45,
        "velocity": 24,
        "subtype": "noteOn"
      },
      {
        "deltaTime": 67,
        "channel": 1,
        "type": "channel",
        "subtype": "noteOff",
        "noteNumber": 45,
        "velocity": 0
      },
      {
        "deltaTime": 9,
        "channel": 1,
        "type": "channel",
        "noteNumber": 78,
        "velocity": 12,
        "subtype": "noteOn"
      },
      {
        "deltaTime": 20,
        "channel": 1,
        "type": "channel",
        "subtype": "noteOff",
        "noteNumber": 78,
        "velocity": 0
      },
      {
        "deltaTime": 93,
        "channel": 1,
        "type": "channel",
        "noteNumber": 64,
        "velocity": 37,
        "subtype": "noteOn"
      },
      {
        "deltaTime": 34,
        "channel": 1,
        "type": "channel",
        "subtype": "noteOff",
        "noteNumber": 64,
        "velocity": 0
      },
      {
        "deltaTime": 29,
        "channel": 1,
        "type": "channel",
        "noteNumber": 106,
        "velocity": 43,
        "subtype": "noteOn"
      },
      {
        "deltaTime": 100,
        "channel": 1,
        "type": "channel",
        "noteNumber": 64,
        "velocity": 33,
        "subtype": "noteOn"
      },
      {
        "deltaTime": 70,
        "channel": 1,
        "type": "channel",
        "subtype": "noteOff",
        "noteNumber": 64,
        "velocity": 0
      },
      {
        "deltaTime": 14,
        "channel": 1,
        "type": "channel",
        "noteNumber": 59,
        "velocity": 31,
        "subtype": "noteOn"
      },
      {
        "deltaTime": 68,
        "channel": 1,
        "type": "channel",
        "subtype": "noteOff",
        "noteNumber": 59,
        "velocity": 0
      },
      {
        "deltaTime": 38,
        "channel": 1,
        "type": "channel",
        "subtype": "noteOff",
        "noteNumber": 106,
        "velocity": 0
      },
      {
        "deltaTime": 26,
        "channel": 1,
        "type": "channel",
        "noteNumber": 54,
        "velocity": 12,
        "subtype": "noteOn"
      },
      {
        "deltaTime": 17,
        "channel": 1,
        "type": "channel",
        "subtype": "noteOff",
        "noteNumber": 54,
        "velocity": 0
      },
      {
        "deltaTime": 5,
        "channel": 1,
        "type": "channel",
        "noteNumber": 106,
        "velocity": 28,
        "subtype": "noteOn"
      },
      {
        "deltaTime": 31,
        "channel": 1,
        "type": "channel",
        "subtype": "noteOff",
        "noteNumber": 106,
        "velocity": 0
      },
      {
        "deltaTime": 60,
        "channel": 1,
        "type": "channel",
        "noteNumber": 69,
        "velocity": 18,
        "subtype": "noteOn"
      },
      {
        "deltaTime": 27,
        "channel": 1,
        "type": "channel",
        "subtype": "noteOff",
        "noteNumber": 69,
        "velocity": 0
      },
      {
        "deltaTime": 2,
        "channel": 1,
        "type": "channel",
        "noteNumber": 90,
        "velocity": 39,
        "subtype": "noteOn"
      },
      {
        "deltaTime": 146,
        "channel": 1,
        "type": "channel",
        "subtype": "noteOff",
        "noteNumber": 90,
        "velocity": 0
      },
      {
        "deltaTime": 24,
        "channel": 1,
        "type": "channel",
        "noteNumber": 83,
        "velocity": 19,
        "subtype": "noteOn"
      },
      {
        "deltaTime": 17,
        "channel": 1,
        "type": "channel",
        "subtype": "noteOff",
        "noteNumber": 83,
        "velocity": 0
      },
      {
        "deltaTime": 5,
        "channel": 1,
        "type": "channel",
        "noteNumber": 69,
        "velocity": 32,
        "subtype": "noteOn"
      },
      {
        "deltaTime": 29,
        "channel": 1,
        "type": "channel",
        "noteNumber": 57,
        "velocity": 32,
        "subtype": "noteOn"
      },
      {
        "deltaTime": 57,
        "channel": 1,
        "type": "channel",
        "subtype": "noteOff",
        "noteNumber": 57,
        "velocity": 0
      },
      {
        "deltaTime": 39,
        "channel": 1,
        "type": "channel",
        "subtype": "noteOff",
        "noteNumber": 69,
        "velocity": 0
      },
      {
        "deltaTime": 26,
        "channel": 1,
        "type": "channel",
        "noteNumber": 69,
        "velocity": 44,
        "subtype": "noteOn"
      },
      {
        "deltaTime": 39,
        "channel": 1,
        "type": "channel",
        "noteNumber": 52,
        "velocity": 41,
        "subtype": "noteOn"
      },
      {
        "deltaTime": 55,
        "channel": 1,
        "type": "channel",
        "subtype": "noteOff",
        "noteNumber": 52,
        "velocity": 0
      },
      {
        "deltaTime": 17,
        "channel": 1,
        "type": "channel",
        "noteNumber": 61,
        "velocity": 32,
        "subtype": "noteOn"
      },
      {
        "deltaTime": 21,
        "channel": 1,
        "type": "channel",
        "subtype": "noteOff",
        "noteNumber": 69,
        "velocity": 0
      },
      {
        "deltaTime": 0,
        "channel": 1,
        "type": "channel",
        "subtype": "noteOff",
        "noteNumber": 61,
        "velocity": 0
      },
      {
        "deltaTime": 27,
        "channel": 1,
        "type": "channel",
        "noteNumber": 81,
        "velocity": 13,
        "subtype": "noteOn"
      },
      {
        "deltaTime": 52,
        "channel": 1,
        "type": "channel",
        "subtype": "noteOff",
        "noteNumber": 81,
        "velocity": 0
      },
      {
        "deltaTime": 12,
        "channel": 1,
        "type": "channel",
        "noteNumber": 45,
        "velocity": 27,
        "subtype": "noteOn"
      },
      {
        "deltaTime": 46,
        "channel": 1,
        "type": "channel",
        "noteNumber": 64,
        "velocity": 19,
        "subtype": "noteOn"
      },
      {
        "deltaTime": 24,
        "channel": 1,
        "type": "channel",
        "subtype": "noteOff",
        "noteNumber": 64,
        "velocity": 0
      },
      {
        "deltaTime": 2,
        "channel": 1,
        "type": "channel",
        "subtype": "noteOff",
        "noteNumber": 45,
        "velocity": 0
      },
      {
        "deltaTime": 68,
        "channel": 1,
        "type": "channel",
        "noteNumber": 35,
        "velocity": 38,
        "subtype": "noteOn"
      },
      {
        "deltaTime": 55,
        "channel": 1,
        "type": "channel",
        "noteNumber": 64,
        "velocity": 21,
        "subtype": "noteOn"
      },
      {
        "deltaTime": 38,
        "channel": 1,
        "type": "channel",
        "subtype": "noteOff",
        "noteNumber": 64,
        "velocity": 0
      },
      {
        "deltaTime": 65,
        "channel": 1,
        "type": "channel",
        "noteNumber": 85,
        "velocity": 17,
        "subtype": "noteOn"
      },
      {
        "deltaTime": 12,
        "channel": 1,
        "type": "channel",
        "subtype": "noteOff",
        "noteNumber": 85,
        "velocity": 0
      },
      {
        "deltaTime": 2,
        "channel": 1,
        "type": "channel",
        "subtype": "noteOff",
        "noteNumber": 35,
        "velocity": 0
      },
      {
        "deltaTime": 34,
        "channel": 1,
        "type": "channel",
        "noteNumber": 35,
        "velocity": 28,
        "subtype": "noteOn"
      },
      {
        "deltaTime": 12,
        "channel": 1,
        "type": "channel",
        "subtype": "noteOff",
        "noteNumber": 35,
        "velocity": 0
      },
      {
        "deltaTime": 0,
        "channel": 1,
        "type": "channel",
        "noteNumber": 102,
        "velocity": 22,
        "subtype": "noteOn"
      },
      {
        "deltaTime": 5,
        "channel": 1,
        "type": "channel",
        "noteNumber": 64,
        "velocity": 32,
        "subtype": "noteOn"
      },
      {
        "deltaTime": 26,
        "channel": 1,
        "type": "channel",
        "subtype": "noteOff",
        "noteNumber": 102,
        "velocity": 0
      },
      {
        "deltaTime": 12,
        "channel": 1,
        "type": "channel",
        "noteNumber": 59,
        "velocity": 37,
        "subtype": "noteOn"
      },
      {
        "deltaTime": 27,
        "channel": 1,
        "type": "channel",
        "subtype": "noteOff",
        "noteNumber": 64,
        "velocity": 0
      },
      {
        "deltaTime": 79,
        "channel": 1,
        "type": "channel",
        "subtype": "noteOff",
        "noteNumber": 59,
        "velocity": 0
      },
      {
        "deltaTime": 5,
        "channel": 1,
        "type": "channel",
        "noteNumber": 78,
        "velocity": 15,
        "subtype": "noteOn"
      },
      {
        "deltaTime": 24,
        "channel": 1,
        "type": "channel",
        "subtype": "noteOff",
        "noteNumber": 78,
        "velocity": 0
      },
      {
        "deltaTime": 12,
        "channel": 1,
        "type": "channel",
        "noteNumber": 36,
        "velocity": 34,
        "subtype": "noteOn"
      },
      {
        "deltaTime": 40,
        "channel": 1,
        "type": "channel",
        "subtype": "noteOff",
        "noteNumber": 36,
        "velocity": 0
      },
      {
        "deltaTime": 17,
        "channel": 1,
        "type": "channel",
        "noteNumber": 102,
        "velocity": 29,
        "subtype": "noteOn"
      },
      {
        "deltaTime": 111,
        "channel": 1,
        "type": "channel",
        "noteNumber": 74,
        "velocity": 39,
        "subtype": "noteOn"
      },
      {
        "deltaTime": 7,
        "channel": 1,
        "type": "channel",
        "subtype": "noteOff",
        "noteNumber": 102,
        "velocity": 0
      },
      {
        "deltaTime": 5,
        "channel": 1,
        "type": "channel",
        "noteNumber": 67,
        "velocity": 18,
        "subtype": "noteOn"
      },
      {
        "deltaTime": 31,
        "channel": 1,
        "type": "channel",
        "noteNumber": 50,
        "velocity": 41,
        "subtype": "noteOn"
      },
      {
        "deltaTime": 5,
        "channel": 1,
        "type": "channel",
        "subtype": "noteOff",
        "noteNumber": 67,
        "velocity": 0
      },
      {
        "deltaTime": 86,
        "channel": 1,
        "type": "channel",
        "subtype": "noteOff",
        "noteNumber": 74,
        "velocity": 0
      },
      {
        "deltaTime": 24,
        "channel": 1,
        "type": "channel",
        "subtype": "noteOff",
        "noteNumber": 50,
        "velocity": 0
      },
      {
        "deltaTime": 12,
        "channel": 1,
        "type": "channel",
        "noteNumber": 69,
        "velocity": 29,
        "subtype": "noteOn"
      },
      {
        "deltaTime": 103,
        "channel": 1,
        "type": "channel",
        "subtype": "noteOff",
        "noteNumber": 69,
        "velocity": 0
      },
      {
        "deltaTime": 10,
        "channel": 1,
        "type": "channel",
        "noteNumber": 69,
        "velocity": 23,
        "subtype": "noteOn"
      },
      {
        "deltaTime": 17,
        "channel": 1,
        "type": "channel",
        "noteNumber": 81,
        "velocity": 39,
        "subtype": "noteOn"
      },
      {
        "deltaTime": 7,
        "channel": 1,
        "type": "channel",
        "subtype": "noteOff",
        "noteNumber": 69,
        "velocity": 0
      },
      {
        "deltaTime": 108,
        "channel": 1,
        "type": "channel",
        "subtype": "noteOff",
        "noteNumber": 81,
        "velocity": 0
      },
      {
        "deltaTime": 21,
        "channel": 1,
        "type": "channel",
        "noteNumber": 88,
        "velocity": 39,
        "subtype": "noteOn"
      },
      {
        "deltaTime": 41,
        "channel": 1,
        "type": "channel",
        "subtype": "noteOff",
        "noteNumber": 88,
        "velocity": 0
      },
      {
        "deltaTime": 19,
        "channel": 1,
        "type": "channel",
        "noteNumber": 99,
        "velocity": 29,
        "subtype": "noteOn"
      },
      {
        "deltaTime": 27,
        "channel": 1,
        "type": "channel",
        "noteNumber": 59,
        "velocity": 27,
        "subtype": "noteOn"
      },
      {
        "deltaTime": 113,
        "channel": 1,
        "type": "channel",
        "subtype": "noteOff",
        "noteNumber": 99,
        "velocity": 0
      },
      {
        "deltaTime": 0,
        "channel": 1,
        "type": "channel",
        "subtype": "noteOff",
        "noteNumber": 59,
        "velocity": 0
      },
      {
        "deltaTime": 0,
        "channel": 1,
        "type": "channel",
        "noteNumber": 61,
        "velocity": 29,
        "subtype": "noteOn"
      },
      {
        "deltaTime": 57,
        "channel": 1,
        "type": "channel",
        "noteNumber": 35,
        "velocity": 42,
        "subtype": "noteOn"
      },
      {
        "deltaTime": 12,
        "channel": 1,
        "type": "channel",
        "subtype": "noteOff",
        "noteNumber": 61,
        "velocity": 0
      },
      {
        "deltaTime": 31,
        "channel": 1,
        "type": "channel",
        "noteNumber": 62,
        "velocity": 23,
        "subtype": "noteOn"
      },
      {
        "deltaTime": 39,
        "channel": 1,
        "type": "channel",
        "subtype": "noteOff",
        "noteNumber": 62,
        "velocity": 0
      },
      {
        "deltaTime": 175,
        "channel": 1,
        "type": "channel",
        "subtype": "noteOff",
        "noteNumber": 35,
        "velocity": 0
      },
      {
        "deltaTime": 5,
        "channel": 1,
        "type": "channel",
        "noteNumber": 47,
        "velocity": 41,
        "subtype": "noteOn"
      },
      {
        "deltaTime": 41,
        "channel": 1,
        "type": "channel",
        "subtype": "noteOff",
        "noteNumber": 47,
        "velocity": 0
      },
      {
        "deltaTime": 36,
        "channel": 1,
        "type": "channel",
        "noteNumber": 71,
        "velocity": 29,
        "subtype": "noteOn"
      },
      {
        "deltaTime": 26,
        "channel": 1,
        "type": "channel",
        "subtype": "noteOff",
        "noteNumber": 71,
        "velocity": 0
      },
      {
        "deltaTime": 65,
        "channel": 1,
        "type": "channel",
        "noteNumber": 61,
        "velocity": 15,
        "subtype": "noteOn"
      },
      {
        "deltaTime": 38,
        "channel": 1,
        "type": "channel",
        "subtype": "noteOff",
        "noteNumber": 61,
        "velocity": 0
      },
      {
        "deltaTime": 7,
        "channel": 1,
        "type": "channel",
        "noteNumber": 62,
        "velocity": 29,
        "subtype": "noteOn"
      },
      {
        "deltaTime": 108,
        "channel": 1,
        "type": "channel",
        "subtype": "noteOff",
        "noteNumber": 62,
        "velocity": 0
      },
      {
        "deltaTime": 0,
        "channel": 1,
        "type": "channel",
        "noteNumber": 81,
        "velocity": 16,
        "subtype": "noteOn"
      },
      {
        "deltaTime": 10,
        "channel": 1,
        "type": "channel",
        "subtype": "noteOff",
        "noteNumber": 81,
        "velocity": 0
      },
      {
        "deltaTime": 7,
        "channel": 1,
        "type": "channel",
        "noteNumber": 50,
        "velocity": 32,
        "subtype": "noteOn"
      },
      {
        "deltaTime": 31,
        "channel": 1,
        "type": "channel",
        "noteNumber": 74,
        "velocity": 31,
        "subtype": "noteOn"
      },
      {
        "deltaTime": 32,
        "channel": 1,
        "type": "channel",
        "subtype": "noteOff",
        "noteNumber": 74,
        "velocity": 0
      },
      {
        "deltaTime": 60,
        "channel": 1,
        "type": "channel",
        "subtype": "noteOff",
        "noteNumber": 50,
        "velocity": 0
      },
      {
        "deltaTime": 86,
        "channel": 1,
        "type": "channel",
        "noteNumber": 62,
        "velocity": 25,
        "subtype": "noteOn"
      },
      {
        "deltaTime": 96,
        "channel": 1,
        "type": "channel",
        "subtype": "noteOff",
        "noteNumber": 62,
        "velocity": 0
      },
      {
        "deltaTime": 122,
        "channel": 1,
        "type": "channel",
        "noteNumber": 76,
        "velocity": 21,
        "subtype": "noteOn"
      },
      {
        "deltaTime": 10,
        "channel": 1,
        "type": "channel",
        "subtype": "noteOff",
        "noteNumber": 76,
        "velocity": 0
      },
      {
        "deltaTime": 206,
        "channel": 1,
        "type": "channel",
        "noteNumber": 47,
        "velocity": 30,
        "subtype": "noteOn"
      },
      {
        "deltaTime": 29,
        "channel": 1,
        "type": "channel",
        "noteNumber": 74,
        "velocity": 29,
        "subtype": "noteOn"
      },
      {
        "deltaTime": 36,
        "channel": 1,
        "type": "channel",
        "noteNumber": 71,
        "velocity": 28,
        "subtype": "noteOn"
      },
      {
        "deltaTime": 5,
        "channel": 1,
        "type": "channel",
        "subtype": "noteOff",
        "noteNumber": 47,
        "velocity": 0
      },
      {
        "deltaTime": 2,
        "channel": 1,
        "type": "channel",
        "subtype": "noteOff",
        "noteNumber": 74,
        "velocity": 0
      },
      {
        "deltaTime": 68,
        "channel": 1,
        "type": "channel",
        "subtype": "noteOff",
        "noteNumber": 71,
        "velocity": 0
      },
      {
        "deltaTime": 57,
        "channel": 1,
        "type": "channel",
        "noteNumber": 66,
        "velocity": 24,
        "subtype": "noteOn"
      },
      {
        "deltaTime": 262,
        "channel": 1,
        "type": "channel",
        "subtype": "noteOff",
        "noteNumber": 66,
        "velocity": 0
      },
      {
        "deltaTime": 41,
        "channel": 1,
        "type": "channel",
        "noteNumber": 33,
        "velocity": 20,
        "subtype": "noteOn"
      },
      {
        "deltaTime": 124,
        "channel": 1,
        "type": "channel",
        "subtype": "noteOff",
        "noteNumber": 33,
        "velocity": 0
      },
      {
        "deltaTime": 120,
        "channel": 1,
        "type": "channel",
        "noteNumber": 62,
        "velocity": 22,
        "subtype": "noteOn"
      },
      {
        "deltaTime": 53,
        "channel": 1,
        "type": "channel",
        "subtype": "noteOff",
        "noteNumber": 62,
        "velocity": 0
      },
      {
        "deltaTime": 27,
        "channel": 1,
        "type": "channel",
        "noteNumber": 62,
        "velocity": 29,
        "subtype": "noteOn"
      },
      {
        "deltaTime": 249,
        "channel": 1,
        "type": "channel",
        "subtype": "noteOff",
        "noteNumber": 62,
        "velocity": 0
      },
      {
        "deltaTime": 202,
        "channel": 1,
        "type": "channel",
        "noteNumber": 64,
        "velocity": 15,
        "subtype": "noteOn"
      },
      {
        "deltaTime": 53,
        "channel": 1,
        "type": "channel",
        "subtype": "noteOff",
        "noteNumber": 64,
        "velocity": 0
      },
      {
        "deltaTime": 345,
        "channel": 1,
        "type": "channel",
        "noteNumber": 66,
        "velocity": 17,
        "subtype": "noteOn"
      },
      {
        "deltaTime": 65,
        "channel": 1,
        "type": "channel",
        "subtype": "noteOff",
        "noteNumber": 66,
        "velocity": 0
      },
      {
        "deltaTime": 7,
        "channel": 1,
        "type": "channel",
        "noteNumber": 74,
        "velocity": 26,
        "subtype": "noteOn"
      },
      {
        "deltaTime": 3,
        "channel": 1,
        "type": "channel",
        "noteNumber": 66,
        "velocity": 27,
        "subtype": "noteOn"
      },
      {
        "deltaTime": 69,
        "channel": 1,
        "type": "channel",
        "subtype": "noteOff",
        "noteNumber": 74,
        "velocity": 0
      },
      {
        "deltaTime": 84,
        "channel": 1,
        "type": "channel",
        "subtype": "noteOff",
        "noteNumber": 66,
        "velocity": 0
      },
      {
        "deltaTime": 24,
        "channel": 1,
        "type": "channel",
        "noteNumber": 43,
        "velocity": 39,
        "subtype": "noteOn"
      },
      {
        "deltaTime": 24,
        "channel": 1,
        "type": "channel",
        "noteNumber": 74,
        "velocity": 27,
        "subtype": "noteOn"
      },
      {
        "deltaTime": 36,
        "channel": 1,
        "type": "channel",
        "subtype": "noteOff",
        "noteNumber": 74,
        "velocity": 0
      },
      {
        "deltaTime": 204,
        "channel": 1,
        "type": "channel",
        "noteNumber": 74,
        "velocity": 39,
        "subtype": "noteOn"
      },
      {
        "deltaTime": 34,
        "channel": 1,
        "type": "channel",
        "subtype": "noteOff",
        "noteNumber": 43,
        "velocity": 0
      },
      {
        "deltaTime": 0,
        "channel": 1,
        "type": "channel",
        "subtype": "noteOff",
        "noteNumber": 74,
        "velocity": 0
      },
      {
        "deltaTime": 0,
        "channel": 1,
        "type": "channel",
        "noteNumber": 88,
        "velocity": 37,
        "subtype": "noteOn"
      },
      {
        "deltaTime": 48,
        "channel": 1,
        "type": "channel",
        "subtype": "noteOff",
        "noteNumber": 88,
        "velocity": 0
      },
      {
        "deltaTime": 69,
        "channel": 1,
        "type": "channel",
        "noteNumber": 64,
        "velocity": 18,
        "subtype": "noteOn"
      },
      {
        "deltaTime": 171,
        "channel": 1,
        "type": "channel",
        "subtype": "noteOff",
        "noteNumber": 64,
        "velocity": 0
      },
      {
        "deltaTime": 7,
        "channel": 1,
        "type": "channel",
        "noteNumber": 64,
        "velocity": 22,
        "subtype": "noteOn"
      },
      {
        "deltaTime": 67,
        "channel": 1,
        "type": "channel",
        "subtype": "noteOff",
        "noteNumber": 64,
        "velocity": 0
      },
      {
        "deltaTime": 231,
        "channel": 1,
        "type": "channel",
        "noteNumber": 35,
        "velocity": 14,
        "subtype": "noteOn"
      },
      {
        "deltaTime": 192,
        "channel": 1,
        "type": "channel",
        "subtype": "noteOff",
        "noteNumber": 35,
        "velocity": 0
      },
      {
        "deltaTime": 33,
        "channel": 1,
        "type": "channel",
        "noteNumber": 45,
        "velocity": 28,
        "subtype": "noteOn"
      },
      {
        "deltaTime": 127,
        "channel": 1,
        "type": "channel",
        "subtype": "noteOff",
        "noteNumber": 45,
        "velocity": 0
      },
      {
        "deltaTime": 63,
        "channel": 1,
        "type": "channel",
        "noteNumber": 50,
        "velocity": 14,
        "subtype": "noteOn"
      },
      {
        "deltaTime": 189,
        "channel": 1,
        "type": "channel",
        "subtype": "noteOff",
        "noteNumber": 50,
        "velocity": 0
      },
      {
        "deltaTime": 101,
        "channel": 1,
        "type": "channel",
        "noteNumber": 45,
        "velocity": 27,
        "subtype": "noteOn"
      },
      {
        "deltaTime": 223,
        "channel": 1,
        "type": "channel",
        "subtype": "noteOff",
        "noteNumber": 45,
        "velocity": 0
      },
      {
        "deltaTime": 116,
        "channel": 1,
        "type": "channel",
        "noteNumber": 35,
        "velocity": 37,
        "subtype": "noteOn"
      },
      {
        "deltaTime": 559,
        "channel": 1,
        "type": "channel",
        "subtype": "noteOff",
        "noteNumber": 35,
        "velocity": 0
      },
      {
        "deltaTime": 446,
        "channel": 1,
        "type": "channel",
        "noteNumber": 62,
        "velocity": 46,
        "subtype": "noteOn"
      },
      {
        "deltaTime": 48,
        "channel": 1,
        "type": "channel",
        "noteNumber": 60,
        "velocity": 35,
        "subtype": "noteOn"
      },
      {
        "deltaTime": 29,
        "channel": 1,
        "type": "channel",
        "subtype": "noteOff",
        "noteNumber": 62,
        "velocity": 0
      },
      {
        "deltaTime": 0,
        "channel": 1,
        "type": "channel",
        "subtype": "noteOff",
        "noteNumber": 60,
        "velocity": 0
      },
      {
        "deltaTime": 7,
        "channel": 1,
        "type": "channel",
        "noteNumber": 93,
        "velocity": 50,
        "subtype": "noteOn"
      },
      {
        "deltaTime": 12,
        "channel": 1,
        "type": "channel",
        "subtype": "noteOff",
        "noteNumber": 93,
        "velocity": 0
      },
      {
        "deltaTime": 31,
        "channel": 1,
        "type": "channel",
        "noteNumber": 60,
        "velocity": 29,
        "subtype": "noteOn"
      },
      {
        "deltaTime": 8,
        "channel": 1,
        "type": "channel",
        "noteNumber": 38,
        "velocity": 21,
        "subtype": "noteOn"
      },
      {
        "deltaTime": 21,
        "channel": 1,
        "type": "channel",
        "subtype": "noteOff",
        "noteNumber": 38,
        "velocity": 0
      },
      {
        "deltaTime": 3,
        "channel": 1,
        "type": "channel",
        "subtype": "noteOff",
        "noteNumber": 60,
        "velocity": 0
      },
      {
        "deltaTime": 0,
        "channel": 1,
        "type": "channel",
        "noteNumber": 98,
        "velocity": 40,
        "subtype": "noteOn"
      },
      {
        "deltaTime": 14,
        "channel": 1,
        "type": "channel",
        "subtype": "noteOff",
        "noteNumber": 98,
        "velocity": 0
      },
      {
        "deltaTime": 62,
        "channel": 1,
        "type": "channel",
        "noteNumber": 93,
        "velocity": 50,
        "subtype": "noteOn"
      },
      {
        "deltaTime": 60,
        "channel": 1,
        "type": "channel",
        "noteNumber": 95,
        "velocity": 48,
        "subtype": "noteOn"
      },
      {
        "deltaTime": 41,
        "channel": 1,
        "type": "channel",
        "subtype": "noteOff",
        "noteNumber": 93,
        "velocity": 0
      },
      {
        "deltaTime": 144,
        "channel": 1,
        "type": "channel",
        "subtype": "noteOff",
        "noteNumber": 95,
        "velocity": 0
      },
      {
        "deltaTime": 139,
        "channel": 1,
        "type": "channel",
        "noteNumber": 77,
        "velocity": 47,
        "subtype": "noteOn"
      },
      {
        "deltaTime": 29,
        "channel": 1,
        "type": "channel",
        "noteNumber": 89,
        "velocity": 50,
        "subtype": "noteOn"
      },
      {
        "deltaTime": 3,
        "channel": 1,
        "type": "channel",
        "subtype": "noteOff",
        "noteNumber": 77,
        "velocity": 0
      },
      {
        "deltaTime": 60,
        "channel": 1,
        "type": "channel",
        "subtype": "noteOff",
        "noteNumber": 89,
        "velocity": 0
      },
      {
        "deltaTime": 2,
        "channel": 1,
        "type": "channel",
        "noteNumber": 77,
        "velocity": 53,
        "subtype": "noteOn"
      },
      {
        "deltaTime": 17,
        "channel": 1,
        "type": "channel",
        "noteNumber": 89,
        "velocity": 40,
        "subtype": "noteOn"
      },
      {
        "deltaTime": 5,
        "channel": 1,
        "type": "channel",
        "subtype": "noteOff",
        "noteNumber": 77,
        "velocity": 0
      },
      {
        "deltaTime": 4,
        "channel": 1,
        "type": "channel",
        "subtype": "noteOff",
        "noteNumber": 89,
        "velocity": 0
      },
      {
        "deltaTime": 36,
        "channel": 1,
        "type": "channel",
        "noteNumber": 89,
        "velocity": 35,
        "subtype": "noteOn"
      },
      {
        "deltaTime": 17,
        "channel": 1,
        "type": "channel",
        "subtype": "noteOff",
        "noteNumber": 89,
        "velocity": 0
      },
      {
        "deltaTime": 96,
        "channel": 1,
        "type": "channel",
        "noteNumber": 38,
        "velocity": 35,
        "subtype": "noteOn"
      },
      {
        "deltaTime": 36,
        "channel": 1,
        "type": "channel",
        "subtype": "noteOff",
        "noteNumber": 38,
        "velocity": 0
      },
      {
        "deltaTime": 24,
        "channel": 1,
        "type": "channel",
        "noteNumber": 101,
        "velocity": 26,
        "subtype": "noteOn"
      },
      {
        "deltaTime": 15,
        "channel": 1,
        "type": "channel",
        "subtype": "noteOff",
        "noteNumber": 101,
        "velocity": 0
      },
      {
        "deltaTime": 7,
        "channel": 1,
        "type": "channel",
        "noteNumber": 105,
        "velocity": 34,
        "subtype": "noteOn"
      },
      {
        "deltaTime": 38,
        "channel": 1,
        "type": "channel",
        "subtype": "noteOff",
        "noteNumber": 105,
        "velocity": 0
      },
      {
        "deltaTime": 0,
        "channel": 1,
        "type": "channel",
        "noteNumber": 101,
        "velocity": 35,
        "subtype": "noteOn"
      },
      {
        "deltaTime": 22,
        "channel": 1,
        "type": "channel",
        "subtype": "noteOff",
        "noteNumber": 101,
        "velocity": 0
      },
      {
        "deltaTime": 19,
        "channel": 1,
        "type": "channel",
        "noteNumber": 96,
        "velocity": 33,
        "subtype": "noteOn"
      },
      {
        "deltaTime": 14,
        "channel": 1,
        "type": "channel",
        "subtype": "noteOff",
        "noteNumber": 96,
        "velocity": 0
      },
      {
        "deltaTime": 15,
        "channel": 1,
        "type": "channel",
        "noteNumber": 36,
        "velocity": 45,
        "subtype": "noteOn"
      },
      {
        "deltaTime": 125,
        "channel": 1,
        "type": "channel",
        "subtype": "noteOff",
        "noteNumber": 36,
        "velocity": 0
      },
      {
        "deltaTime": 4,
        "channel": 1,
        "type": "channel",
        "noteNumber": 35,
        "velocity": 22,
        "subtype": "noteOn"
      },
      {
        "deltaTime": 10,
        "channel": 1,
        "type": "channel",
        "subtype": "noteOff",
        "noteNumber": 35,
        "velocity": 0
      },
      {
        "deltaTime": 12,
        "channel": 1,
        "type": "channel",
        "noteNumber": 98,
        "velocity": 28,
        "subtype": "noteOn"
      },
      {
        "deltaTime": 19,
        "channel": 1,
        "type": "channel",
        "subtype": "noteOff",
        "noteNumber": 98,
        "velocity": 0
      },
      {
        "deltaTime": 36,
        "channel": 1,
        "type": "channel",
        "noteNumber": 62,
        "velocity": 53,
        "subtype": "noteOn"
      },
      {
        "deltaTime": 70,
        "channel": 1,
        "type": "channel",
        "subtype": "noteOff",
        "noteNumber": 62,
        "velocity": 0
      },
      {
        "deltaTime": 57,
        "channel": 1,
        "type": "channel",
        "noteNumber": 46,
        "velocity": 29,
        "subtype": "noteOn"
      },
      {
        "deltaTime": 29,
        "channel": 1,
        "type": "channel",
        "subtype": "noteOff",
        "noteNumber": 46,
        "velocity": 0
      },
      {
        "deltaTime": 0,
        "channel": 1,
        "type": "channel",
        "noteNumber": 98,
        "velocity": 40,
        "subtype": "noteOn"
      },
      {
        "deltaTime": 15,
        "channel": 1,
        "type": "channel",
        "subtype": "noteOff",
        "noteNumber": 98,
        "velocity": 0
      },
      {
        "deltaTime": 33,
        "channel": 1,
        "type": "channel",
        "noteNumber": 60,
        "velocity": 28,
        "subtype": "noteOn"
      },
      {
        "deltaTime": 29,
        "channel": 1,
        "type": "channel",
        "noteNumber": 93,
        "velocity": 51,
        "subtype": "noteOn"
      },
      {
        "deltaTime": 19,
        "channel": 1,
        "type": "channel",
        "noteNumber": 48,
        "velocity": 54,
        "subtype": "noteOn"
      },
      {
        "deltaTime": 5,
        "channel": 1,
        "type": "channel",
        "subtype": "noteOff",
        "noteNumber": 60,
        "velocity": 0
      },
      {
        "deltaTime": 2,
        "channel": 1,
        "type": "channel",
        "noteNumber": 35,
        "velocity": 21,
        "subtype": "noteOn"
      },
      {
        "deltaTime": 10,
        "channel": 1,
        "type": "channel",
        "subtype": "noteOff",
        "noteNumber": 35,
        "velocity": 0
      },
      {
        "deltaTime": 12,
        "channel": 1,
        "type": "channel",
        "noteNumber": 95,
        "velocity": 31,
        "subtype": "noteOn"
      },
      {
        "deltaTime": 22,
        "channel": 1,
        "type": "channel",
        "subtype": "noteOff",
        "noteNumber": 95,
        "velocity": 0
      },
      {
        "deltaTime": 28,
        "channel": 1,
        "type": "channel",
        "subtype": "noteOff",
        "noteNumber": 93,
        "velocity": 0
      },
      {
        "deltaTime": 214,
        "channel": 1,
        "type": "channel",
        "subtype": "noteOff",
        "noteNumber": 48,
        "velocity": 0
      },
      {
        "deltaTime": 7,
        "channel": 1,
        "type": "channel",
        "noteNumber": 93,
        "velocity": 47,
        "subtype": "noteOn"
      },
      {
        "deltaTime": 63,
        "channel": 1,
        "type": "channel",
        "noteNumber": 77,
        "velocity": 46,
        "subtype": "noteOn"
      },
      {
        "deltaTime": 2,
        "channel": 1,
        "type": "channel",
        "subtype": "noteOff",
        "noteNumber": 93,
        "velocity": 0
      },
      {
        "deltaTime": 26,
        "channel": 1,
        "type": "channel",
        "subtype": "noteOff",
        "noteNumber": 77,
        "velocity": 0
      },
      {
        "deltaTime": 10,
        "channel": 1,
        "type": "channel",
        "noteNumber": 89,
        "velocity": 53,
        "subtype": "noteOn"
      },
      {
        "deltaTime": 50,
        "channel": 1,
        "type": "channel",
        "subtype": "noteOff",
        "noteNumber": 89,
        "velocity": 0
      },
      {
        "deltaTime": 5,
        "channel": 1,
        "type": "channel",
        "noteNumber": 77,
        "velocity": 58,
        "subtype": "noteOn"
      },
      {
        "deltaTime": 15,
        "channel": 1,
        "type": "channel",
        "noteNumber": 89,
        "velocity": 56,
        "subtype": "noteOn"
      },
      {
        "deltaTime": 7,
        "channel": 1,
        "type": "channel",
        "subtype": "noteOff",
        "noteNumber": 77,
        "velocity": 0
      },
      {
        "deltaTime": 33,
        "channel": 1,
        "type": "channel",
        "subtype": "noteOff",
        "noteNumber": 89,
        "velocity": 0
      },
      {
        "deltaTime": 41,
        "channel": 1,
        "type": "channel",
        "noteNumber": 96,
        "velocity": 39,
        "subtype": "noteOn"
      },
      {
        "deltaTime": 31,
        "channel": 1,
        "type": "channel",
        "noteNumber": 77,
        "velocity": 24,
        "subtype": "noteOn"
      },
      {
        "deltaTime": 8,
        "channel": 1,
        "type": "channel",
        "subtype": "noteOff",
        "noteNumber": 96,
        "velocity": 0
      },
      {
        "deltaTime": 9,
        "channel": 1,
        "type": "channel",
        "subtype": "noteOff",
        "noteNumber": 77,
        "velocity": 0
      },
      {
        "deltaTime": 46,
        "channel": 1,
        "type": "channel",
        "noteNumber": 89,
        "velocity": 45,
        "subtype": "noteOn"
      },
      {
        "deltaTime": 50,
        "channel": 1,
        "type": "channel",
        "subtype": "noteOff",
        "noteNumber": 89,
        "velocity": 0
      },
      {
        "deltaTime": 19,
        "channel": 1,
        "type": "channel",
        "noteNumber": 38,
        "velocity": 38,
        "subtype": "noteOn"
      },
      {
        "deltaTime": 29,
        "channel": 1,
        "type": "channel",
        "subtype": "noteOff",
        "noteNumber": 38,
        "velocity": 0
      },
      {
        "deltaTime": 10,
        "channel": 1,
        "type": "channel",
        "noteNumber": 64,
        "velocity": 37,
        "subtype": "noteOn"
      },
      {
        "deltaTime": 57,
        "channel": 1,
        "type": "channel",
        "noteNumber": 88,
        "velocity": 36,
        "subtype": "noteOn"
      },
      {
        "deltaTime": 22,
        "channel": 1,
        "type": "channel",
        "subtype": "noteOff",
        "noteNumber": 64,
        "velocity": 0
      },
      {
        "deltaTime": 0,
        "channel": 1,
        "type": "channel",
        "subtype": "noteOff",
        "noteNumber": 88,
        "velocity": 0
      },
      {
        "deltaTime": 2,
        "channel": 1,
        "type": "channel",
        "noteNumber": 88,
        "velocity": 39,
        "subtype": "noteOn"
      },
      {
        "deltaTime": 0,
        "channel": 1,
        "type": "channel",
        "noteNumber": 77,
        "velocity": 28,
        "subtype": "noteOn"
      },
      {
        "deltaTime": 12,
        "channel": 1,
        "type": "channel",
        "subtype": "noteOff",
        "noteNumber": 77,
        "velocity": 0
      },
      {
        "deltaTime": 60,
        "channel": 1,
        "type": "channel",
        "noteNumber": 95,
        "velocity": 37,
        "subtype": "noteOn"
      },
      {
        "deltaTime": 29,
        "channel": 1,
        "type": "channel",
        "subtype": "noteOff",
        "noteNumber": 95,
        "velocity": 0
      },
      {
        "deltaTime": 27,
        "channel": 1,
        "type": "channel",
        "subtype": "noteOff",
        "noteNumber": 88,
        "velocity": 0
      },
      {
        "deltaTime": 45,
        "channel": 1,
        "type": "channel",
        "noteNumber": 34,
        "velocity": 38,
        "subtype": "noteOn"
      },
      {
        "deltaTime": 19,
        "channel": 1,
        "type": "channel",
        "noteNumber": 62,
        "velocity": 44,
        "subtype": "noteOn"
      },
      {
        "deltaTime": 48,
        "channel": 1,
        "type": "channel",
        "subtype": "noteOff",
        "noteNumber": 34,
        "velocity": 0
      },
      {
        "deltaTime": 22,
        "channel": 1,
        "type": "channel",
        "noteNumber": 46,
        "velocity": 47,
        "subtype": "noteOn"
      },
      {
        "deltaTime": 5,
        "channel": 1,
        "type": "channel",
        "subtype": "noteOff",
        "noteNumber": 62,
        "velocity": 0
      },
      {
        "deltaTime": 21,
        "channel": 1,
        "type": "channel",
        "noteNumber": 60,
        "velocity": 25,
        "subtype": "noteOn"
      },
      {
        "deltaTime": 15,
        "channel": 1,
        "type": "channel",
        "subtype": "noteOff",
        "noteNumber": 60,
        "velocity": 0
      },
      {
        "deltaTime": 14,
        "channel": 1,
        "type": "channel",
        "subtype": "noteOff",
        "noteNumber": 46,
        "velocity": 0
      },
      {
        "deltaTime": 0,
        "channel": 1,
        "type": "channel",
        "noteNumber": 60,
        "velocity": 27,
        "subtype": "noteOn"
      },
      {
        "deltaTime": 65,
        "channel": 1,
        "type": "channel",
        "subtype": "noteOff",
        "noteNumber": 60,
        "velocity": 0
      },
      {
        "deltaTime": 12,
        "channel": 1,
        "type": "channel",
        "noteNumber": 60,
        "velocity": 15,
        "subtype": "noteOn"
      },
      {
        "deltaTime": 36,
        "channel": 1,
        "type": "channel",
        "subtype": "noteOff",
        "noteNumber": 60,
        "velocity": 0
      },
      {
        "deltaTime": 7,
        "channel": 1,
        "type": "channel",
        "noteNumber": 36,
        "velocity": 55,
        "subtype": "noteOn"
      },
      {
        "deltaTime": 43,
        "channel": 1,
        "type": "channel",
        "subtype": "noteOff",
        "noteNumber": 36,
        "velocity": 0
      },
      {
        "deltaTime": 12,
        "channel": 1,
        "type": "channel",
        "noteNumber": 36,
        "velocity": 56,
        "subtype": "noteOn"
      },
      {
        "deltaTime": 56,
        "channel": 1,
        "type": "channel",
        "noteNumber": 62,
        "velocity": 51,
        "subtype": "noteOn"
      },
      {
        "deltaTime": 7,
        "channel": 1,
        "type": "channel",
        "subtype": "noteOff",
        "noteNumber": 36,
        "velocity": 0
      },
      {
        "deltaTime": 237,
        "channel": 1,
        "type": "channel",
        "subtype": "noteOff",
        "noteNumber": 62,
        "velocity": 0
      },
      {
        "deltaTime": 24,
        "channel": 1,
        "type": "channel",
        "noteNumber": 77,
        "velocity": 52,
        "subtype": "noteOn"
      },
      {
        "deltaTime": 60,
        "channel": 1,
        "type": "channel",
        "subtype": "noteOff",
        "noteNumber": 77,
        "velocity": 0
      },
      {
        "deltaTime": 15,
        "channel": 1,
        "type": "channel",
        "noteNumber": 101,
        "velocity": 42,
        "subtype": "noteOn"
      },
      {
        "deltaTime": 17,
        "channel": 1,
        "type": "channel",
        "subtype": "noteOff",
        "noteNumber": 101,
        "velocity": 0
      },
      {
        "deltaTime": 12,
        "channel": 1,
        "type": "channel",
        "noteNumber": 65,
        "velocity": 43,
        "subtype": "noteOn"
      },
      {
        "deltaTime": 19,
        "channel": 1,
        "type": "channel",
        "noteNumber": 77,
        "velocity": 31,
        "subtype": "noteOn"
      },
      {
        "deltaTime": 5,
        "channel": 1,
        "type": "channel",
        "subtype": "noteOff",
        "noteNumber": 65,
        "velocity": 0
      },
      {
        "deltaTime": 21,
        "channel": 1,
        "type": "channel",
        "subtype": "noteOff",
        "noteNumber": 77,
        "velocity": 0
      },
      {
        "deltaTime": 63,
        "channel": 1,
        "type": "channel",
        "noteNumber": 77,
        "velocity": 14,
        "subtype": "noteOn"
      },
      {
        "deltaTime": 16,
        "channel": 1,
        "type": "channel",
        "subtype": "noteOff",
        "noteNumber": 77,
        "velocity": 0
      },
      {
        "deltaTime": 58,
        "channel": 1,
        "type": "channel",
        "noteNumber": 77,
        "velocity": 40,
        "subtype": "noteOn"
      },
      {
        "deltaTime": 22,
        "channel": 1,
        "type": "channel",
        "subtype": "noteOff",
        "noteNumber": 77,
        "velocity": 0
      },
      {
        "deltaTime": 0,
        "channel": 1,
        "type": "channel",
        "noteNumber": 105,
        "velocity": 42,
        "subtype": "noteOn"
      },
      {
        "deltaTime": 26,
        "channel": 1,
        "type": "channel",
        "subtype": "noteOff",
        "noteNumber": 105,
        "velocity": 0
      },
      {
        "deltaTime": 5,
        "channel": 1,
        "type": "channel",
        "noteNumber": 105,
        "velocity": 43,
        "subtype": "noteOn"
      },
      {
        "deltaTime": 50,
        "channel": 1,
        "type": "channel",
        "subtype": "noteOff",
        "noteNumber": 105,
        "velocity": 0
      },
      {
        "deltaTime": 3,
        "channel": 1,
        "type": "channel",
        "noteNumber": 105,
        "velocity": 31,
        "subtype": "noteOn"
      },
      {
        "deltaTime": 12,
        "channel": 1,
        "type": "channel",
        "subtype": "noteOff",
        "noteNumber": 105,
        "velocity": 0
      },
      {
        "deltaTime": 26,
        "channel": 1,
        "type": "channel",
        "noteNumber": 81,
        "velocity": 34,
        "subtype": "noteOn"
      },
      {
        "deltaTime": 55,
        "channel": 1,
        "type": "channel",
        "subtype": "noteOff",
        "noteNumber": 81,
        "velocity": 0
      },
      {
        "deltaTime": 15,
        "channel": 1,
        "type": "channel",
        "noteNumber": 81,
        "velocity": 40,
        "subtype": "noteOn"
      },
      {
        "deltaTime": 67,
        "channel": 1,
        "type": "channel",
        "subtype": "noteOff",
        "noteNumber": 81,
        "velocity": 0
      },
      {
        "deltaTime": 9,
        "channel": 1,
        "type": "channel",
        "noteNumber": 81,
        "velocity": 23,
        "subtype": "noteOn"
      },
      {
        "deltaTime": 20,
        "channel": 1,
        "type": "channel",
        "subtype": "noteOff",
        "noteNumber": 81,
        "velocity": 0
      },
      {
        "deltaTime": 38,
        "channel": 1,
        "type": "channel",
        "noteNumber": 86,
        "velocity": 42,
        "subtype": "noteOn"
      },
      {
        "deltaTime": 14,
        "channel": 1,
        "type": "channel",
        "subtype": "noteOff",
        "noteNumber": 86,
        "velocity": 0
      },
      {
        "deltaTime": 10,
        "channel": 1,
        "type": "channel",
        "noteNumber": 62,
        "velocity": 56,
        "subtype": "noteOn"
      },
      {
        "deltaTime": 70,
        "channel": 1,
        "type": "channel",
        "subtype": "noteOff",
        "noteNumber": 62,
        "velocity": 0
      },
      {
        "deltaTime": 52,
        "channel": 1,
        "type": "channel",
        "noteNumber": 60,
        "velocity": 31,
        "subtype": "noteOn"
      },
      {
        "deltaTime": 60,
        "channel": 1,
        "type": "channel",
        "subtype": "noteOff",
        "noteNumber": 60,
        "velocity": 0
      },
      {
        "deltaTime": 10,
        "channel": 1,
        "type": "channel",
        "noteNumber": 98,
        "velocity": 23,
        "subtype": "noteOn"
      },
      {
        "deltaTime": 5,
        "channel": 1,
        "type": "channel",
        "noteNumber": 60,
        "velocity": 24,
        "subtype": "noteOn"
      },
      {
        "deltaTime": 26,
        "channel": 1,
        "type": "channel",
        "subtype": "noteOff",
        "noteNumber": 98,
        "velocity": 0
      },
      {
        "deltaTime": 31,
        "channel": 1,
        "type": "channel",
        "subtype": "noteOff",
        "noteNumber": 60,
        "velocity": 0
      },
      {
        "deltaTime": 24,
        "channel": 1,
        "type": "channel",
        "noteNumber": 55,
        "velocity": 22,
        "subtype": "noteOn"
      },
      {
        "deltaTime": 5,
        "channel": 1,
        "type": "channel",
        "noteNumber": 74,
        "velocity": 29,
        "subtype": "noteOn"
      },
      {
        "deltaTime": 24,
        "channel": 1,
        "type": "channel",
        "subtype": "noteOff",
        "noteNumber": 55,
        "velocity": 0
      },
      {
        "deltaTime": 7,
        "channel": 1,
        "type": "channel",
        "subtype": "noteOff",
        "noteNumber": 74,
        "velocity": 0
      },
      {
        "deltaTime": 24,
        "channel": 1,
        "type": "channel",
        "noteNumber": 100,
        "velocity": 45,
        "subtype": "noteOn"
      },
      {
        "deltaTime": 15,
        "channel": 1,
        "type": "channel",
        "subtype": "noteOff",
        "noteNumber": 100,
        "velocity": 0
      },
      {
        "deltaTime": 29,
        "channel": 1,
        "type": "channel",
        "noteNumber": 64,
        "velocity": 55,
        "subtype": "noteOn"
      },
      {
        "deltaTime": 45,
        "channel": 1,
        "type": "channel",
        "noteNumber": 62,
        "velocity": 53,
        "subtype": "noteOn"
      },
      {
        "deltaTime": 149,
        "channel": 1,
        "type": "channel",
        "subtype": "noteOff",
        "noteNumber": 64,
        "velocity": 0
      },
      {
        "deltaTime": 10,
        "channel": 1,
        "type": "channel",
        "noteNumber": 86,
        "velocity": 32,
        "subtype": "noteOn"
      },
      {
        "deltaTime": 14,
        "channel": 1,
        "type": "channel",
        "subtype": "noteOff",
        "noteNumber": 86,
        "velocity": 0
      },
      {
        "deltaTime": 67,
        "channel": 1,
        "type": "channel",
        "subtype": "noteOff",
        "noteNumber": 62,
        "velocity": 0
      },
      {
        "deltaTime": 27,
        "channel": 1,
        "type": "channel",
        "noteNumber": 86,
        "velocity": 51,
        "subtype": "noteOn"
      },
      {
        "deltaTime": 45,
        "channel": 1,
        "type": "channel",
        "subtype": "noteOff",
        "noteNumber": 86,
        "velocity": 0
      },
      {
        "deltaTime": 94,
        "channel": 1,
        "type": "channel",
        "noteNumber": 98,
        "velocity": 35,
        "subtype": "noteOn"
      },
      {
        "deltaTime": 26,
        "channel": 1,
        "type": "channel",
        "subtype": "noteOff",
        "noteNumber": 98,
        "velocity": 0
      },
      {
        "deltaTime": 5,
        "channel": 1,
        "type": "channel",
        "noteNumber": 86,
        "velocity": 34,
        "subtype": "noteOn"
      },
      {
        "deltaTime": 14,
        "channel": 1,
        "type": "channel",
        "subtype": "noteOff",
        "noteNumber": 86,
        "velocity": 0
      },
      {
        "deltaTime": 0,
        "channel": 1,
        "type": "channel",
        "noteNumber": 62,
        "velocity": 47,
        "subtype": "noteOn"
      },
      {
        "deltaTime": 39,
        "channel": 1,
        "type": "channel",
        "noteNumber": 98,
        "velocity": 35,
        "subtype": "noteOn"
      },
      {
        "deltaTime": 24,
        "channel": 1,
        "type": "channel",
        "subtype": "noteOff",
        "noteNumber": 98,
        "velocity": 0
      },
      {
        "deltaTime": 29,
        "channel": 1,
        "type": "channel",
        "noteNumber": 38,
        "velocity": 38,
        "subtype": "noteOn"
      },
      {
        "deltaTime": 26,
        "channel": 1,
        "type": "channel",
        "subtype": "noteOff",
        "noteNumber": 38,
        "velocity": 0
      },
      {
        "deltaTime": 2,
        "channel": 1,
        "type": "channel",
        "subtype": "noteOff",
        "noteNumber": 62,
        "velocity": 0
      },
      {
        "deltaTime": 12,
        "channel": 1,
        "type": "channel",
        "noteNumber": 38,
        "velocity": 29,
        "subtype": "noteOn"
      },
      {
        "deltaTime": 70,
        "channel": 1,
        "type": "channel",
        "subtype": "noteOff",
        "noteNumber": 38,
        "velocity": 0
      },
      {
        "deltaTime": 22,
        "channel": 1,
        "type": "channel",
        "noteNumber": 64,
        "velocity": 22,
        "subtype": "noteOn"
      },
      {
        "deltaTime": 79,
        "channel": 1,
        "type": "channel",
        "noteNumber": 74,
        "velocity": 18,
        "subtype": "noteOn"
      },
      {
        "deltaTime": 5,
        "channel": 1,
        "type": "channel",
        "subtype": "noteOff",
        "noteNumber": 64,
        "velocity": 0
      },
      {
        "deltaTime": 16,
        "channel": 1,
        "type": "channel",
        "subtype": "noteOff",
        "noteNumber": 74,
        "velocity": 0
      },
      {
        "deltaTime": 8,
        "channel": 1,
        "type": "channel",
        "noteNumber": 46,
        "velocity": 36,
        "subtype": "noteOn"
      },
      {
        "deltaTime": 14,
        "channel": 1,
        "type": "channel",
        "noteNumber": 98,
        "velocity": 32,
        "subtype": "noteOn"
      },
      {
        "deltaTime": 14,
        "channel": 1,
        "type": "channel",
        "subtype": "noteOff",
        "noteNumber": 98,
        "velocity": 0
      },
      {
        "deltaTime": 39,
        "channel": 1,
        "type": "channel",
        "noteNumber": 62,
        "velocity": 45,
        "subtype": "noteOn"
      },
      {
        "deltaTime": 33,
        "channel": 1,
        "type": "channel",
        "subtype": "noteOff",
        "noteNumber": 46,
        "velocity": 0
      },
      {
        "deltaTime": 36,
        "channel": 1,
        "type": "channel",
        "noteNumber": 46,
        "velocity": 46,
        "subtype": "noteOn"
      },
      {
        "deltaTime": 5,
        "channel": 1,
        "type": "channel",
        "subtype": "noteOff",
        "noteNumber": 62,
        "velocity": 0
      },
      {
        "deltaTime": 22,
        "channel": 1,
        "type": "channel",
        "noteNumber": 98,
        "velocity": 33,
        "subtype": "noteOn"
      },
      {
        "deltaTime": 19,
        "channel": 1,
        "type": "channel",
        "subtype": "noteOff",
        "noteNumber": 46,
        "velocity": 0
      },
      {
        "deltaTime": 2,
        "channel": 1,
        "type": "channel",
        "subtype": "noteOff",
        "noteNumber": 98,
        "velocity": 0
      },
      {
        "deltaTime": 8,
        "channel": 1,
        "type": "channel",
        "noteNumber": 60,
        "velocity": 31,
        "subtype": "noteOn"
      },
      {
        "deltaTime": 31,
        "channel": 1,
        "type": "channel",
        "subtype": "noteOff",
        "noteNumber": 60,
        "velocity": 0
      },
      {
        "deltaTime": 9,
        "channel": 1,
        "type": "channel",
        "noteNumber": 60,
        "velocity": 22,
        "subtype": "noteOn"
      },
      {
        "deltaTime": 5,
        "channel": 1,
        "type": "channel",
        "noteNumber": 46,
        "velocity": 21,
        "subtype": "noteOn"
      },
      {
        "deltaTime": 19,
        "channel": 1,
        "type": "channel",
        "subtype": "noteOff",
        "noteNumber": 60,
        "velocity": 0
      },
      {
        "deltaTime": 5,
        "channel": 1,
        "type": "channel",
        "subtype": "noteOff",
        "noteNumber": 46,
        "velocity": 0
      },
      {
        "deltaTime": 7,
        "channel": 1,
        "type": "channel",
        "noteNumber": 60,
        "velocity": 22,
        "subtype": "noteOn"
      },
      {
        "deltaTime": 32,
        "channel": 1,
        "type": "channel",
        "noteNumber": 93,
        "velocity": 49,
        "subtype": "noteOn"
      },
      {
        "deltaTime": 26,
        "channel": 1,
        "type": "channel",
        "subtype": "noteOff",
        "noteNumber": 60,
        "velocity": 0
      },
      {
        "deltaTime": 5,
        "channel": 1,
        "type": "channel",
        "noteNumber": 88,
        "velocity": 37,
        "subtype": "noteOn"
      },
      {
        "deltaTime": 24,
        "channel": 1,
        "type": "channel",
        "subtype": "noteOff",
        "noteNumber": 88,
        "velocity": 0
      },
      {
        "deltaTime": 45,
        "channel": 1,
        "type": "channel",
        "subtype": "noteOff",
        "noteNumber": 93,
        "velocity": 0
      },
      {
        "deltaTime": 8,
        "channel": 1,
        "type": "channel",
        "noteNumber": 100,
        "velocity": 44,
        "subtype": "noteOn"
      },
      {
        "deltaTime": 14,
        "channel": 1,
        "type": "channel",
        "subtype": "noteOff",
        "noteNumber": 100,
        "velocity": 0
      },
      {
        "deltaTime": 12,
        "channel": 1,
        "type": "channel",
        "noteNumber": 48,
        "velocity": 52,
        "subtype": "noteOn"
      },
      {
        "deltaTime": 2,
        "channel": 1,
        "type": "channel",
        "noteNumber": 100,
        "velocity": 45,
        "subtype": "noteOn"
      },
      {
        "deltaTime": 10,
        "channel": 1,
        "type": "channel",
        "subtype": "noteOff",
        "noteNumber": 100,
        "velocity": 0
      },
      {
        "deltaTime": 38,
        "channel": 1,
        "type": "channel",
        "noteNumber": 100,
        "velocity": 45,
        "subtype": "noteOn"
      },
      {
        "deltaTime": 20,
        "channel": 1,
        "type": "channel",
        "subtype": "noteOff",
        "noteNumber": 100,
        "velocity": 0
      },
      {
        "deltaTime": 2,
        "channel": 1,
        "type": "channel",
        "subtype": "noteOff",
        "noteNumber": 48,
        "velocity": 0
      },
      {
        "deltaTime": 166,
        "channel": 1,
        "type": "channel",
        "noteNumber": 38,
        "velocity": 43,
        "subtype": "noteOn"
      },
      {
        "deltaTime": 52,
        "channel": 1,
        "type": "channel",
        "noteNumber": 89,
        "velocity": 52,
        "subtype": "noteOn"
      },
      {
        "deltaTime": 27,
        "channel": 1,
        "type": "channel",
        "subtype": "noteOff",
        "noteNumber": 38,
        "velocity": 0
      },
      {
        "deltaTime": 12,
        "channel": 1,
        "type": "channel",
        "noteNumber": 101,
        "velocity": 53,
        "subtype": "noteOn"
      },
      {
        "deltaTime": 12,
        "channel": 1,
        "type": "channel",
        "subtype": "noteOff",
        "noteNumber": 89,
        "velocity": 0
      },
      {
        "deltaTime": 9,
        "channel": 1,
        "type": "channel",
        "subtype": "noteOff",
        "noteNumber": 101,
        "velocity": 0
      },
      {
        "deltaTime": 10,
        "channel": 1,
        "type": "channel",
        "noteNumber": 89,
        "velocity": 48,
        "subtype": "noteOn"
      },
      {
        "deltaTime": 7,
        "channel": 1,
        "type": "channel",
        "noteNumber": 101,
        "velocity": 42,
        "subtype": "noteOn"
      },
      {
        "deltaTime": 34,
        "channel": 1,
        "type": "channel",
        "subtype": "noteOff",
        "noteNumber": 89,
        "velocity": 0
      },
      {
        "deltaTime": 2,
        "channel": 1,
        "type": "channel",
        "subtype": "noteOff",
        "noteNumber": 101,
        "velocity": 0
      },
      {
        "deltaTime": 3,
        "channel": 1,
        "type": "channel",
        "noteNumber": 89,
        "velocity": 40,
        "subtype": "noteOn"
      },
      {
        "deltaTime": 19,
        "channel": 1,
        "type": "channel",
        "subtype": "noteOff",
        "noteNumber": 89,
        "velocity": 0
      },
      {
        "deltaTime": 110,
        "channel": 1,
        "type": "channel",
        "noteNumber": 89,
        "velocity": 42,
        "subtype": "noteOn"
      },
      {
        "deltaTime": 48,
        "channel": 1,
        "type": "channel",
        "subtype": "noteOff",
        "noteNumber": 89,
        "velocity": 0
      },
      {
        "deltaTime": 3,
        "channel": 1,
        "type": "channel",
        "noteNumber": 86,
        "velocity": 42,
        "subtype": "noteOn"
      },
      {
        "deltaTime": 9,
        "channel": 1,
        "type": "channel",
        "noteNumber": 89,
        "velocity": 28,
        "subtype": "noteOn"
      },
      {
        "deltaTime": 58,
        "channel": 1,
        "type": "channel",
        "subtype": "noteOff",
        "noteNumber": 89,
        "velocity": 0
      },
      {
        "deltaTime": 5,
        "channel": 1,
        "type": "channel",
        "noteNumber": 36,
        "velocity": 30,
        "subtype": "noteOn"
      },
      {
        "deltaTime": 16,
        "channel": 1,
        "type": "channel",
        "subtype": "noteOff",
        "noteNumber": 36,
        "velocity": 0
      },
      {
        "deltaTime": 12,
        "channel": 1,
        "type": "channel",
        "noteNumber": 100,
        "velocity": 37,
        "subtype": "noteOn"
      },
      {
        "deltaTime": 15,
        "channel": 1,
        "type": "channel",
        "noteNumber": 93,
        "velocity": 38,
        "subtype": "noteOn"
      },
      {
        "deltaTime": 2,
        "channel": 1,
        "type": "channel",
        "subtype": "noteOff",
        "noteNumber": 100,
        "velocity": 0
      },
      {
        "deltaTime": 12,
        "channel": 1,
        "type": "channel",
        "subtype": "noteOff",
        "noteNumber": 86,
        "velocity": 0
      },
      {
        "deltaTime": 3,
        "channel": 1,
        "type": "channel",
        "noteNumber": 100,
        "velocity": 36,
        "subtype": "noteOn"
      },
      {
        "deltaTime": 12,
        "channel": 1,
        "type": "channel",
        "subtype": "noteOff",
        "noteNumber": 93,
        "velocity": 0
      },
      {
        "deltaTime": 12,
        "channel": 1,
        "type": "channel",
        "subtype": "noteOff",
        "noteNumber": 100,
        "velocity": 0
      },
      {
        "deltaTime": 21,
        "channel": 1,
        "type": "channel",
        "noteNumber": 93,
        "velocity": 39,
        "subtype": "noteOn"
      },
      {
        "deltaTime": 53,
        "channel": 1,
        "type": "channel",
        "subtype": "noteOff",
        "noteNumber": 93,
        "velocity": 0
      },
      {
        "deltaTime": 22,
        "channel": 1,
        "type": "channel",
        "noteNumber": 35,
        "velocity": 22,
        "subtype": "noteOn"
      },
      {
        "deltaTime": 12,
        "channel": 1,
        "type": "channel",
        "subtype": "noteOff",
        "noteNumber": 35,
        "velocity": 0
      },
      {
        "deltaTime": 69,
        "channel": 1,
        "type": "channel",
        "noteNumber": 98,
        "velocity": 52,
        "subtype": "noteOn"
      },
      {
        "deltaTime": 72,
        "channel": 1,
        "type": "channel",
        "subtype": "noteOff",
        "noteNumber": 98,
        "velocity": 0
      },
      {
        "deltaTime": 41,
        "channel": 1,
        "type": "channel",
        "noteNumber": 86,
        "velocity": 38,
        "subtype": "noteOn"
      },
      {
        "deltaTime": 41,
        "channel": 1,
        "type": "channel",
        "subtype": "noteOff",
        "noteNumber": 86,
        "velocity": 0
      },
      {
        "deltaTime": 45,
        "channel": 1,
        "type": "channel",
        "noteNumber": 60,
        "velocity": 26,
        "subtype": "noteOn"
      },
      {
        "deltaTime": 51,
        "channel": 1,
        "type": "channel",
        "subtype": "noteOff",
        "noteNumber": 60,
        "velocity": 0
      },
      {
        "deltaTime": 26,
        "channel": 1,
        "type": "channel",
        "noteNumber": 55,
        "velocity": 25,
        "subtype": "noteOn"
      },
      {
        "deltaTime": 24,
        "channel": 1,
        "type": "channel",
        "subtype": "noteOff",
        "noteNumber": 55,
        "velocity": 0
      },
      {
        "deltaTime": 12,
        "channel": 1,
        "type": "channel",
        "noteNumber": 64,
        "velocity": 44,
        "subtype": "noteOn"
      },
      {
        "deltaTime": 31,
        "channel": 1,
        "type": "channel",
        "subtype": "noteOff",
        "noteNumber": 64,
        "velocity": 0
      },
      {
        "deltaTime": 15,
        "channel": 1,
        "type": "channel",
        "noteNumber": 93,
        "velocity": 49,
        "subtype": "noteOn"
      },
      {
        "deltaTime": 31,
        "channel": 1,
        "type": "channel",
        "subtype": "noteOff",
        "noteNumber": 93,
        "velocity": 0
      },
      {
        "deltaTime": 204,
        "channel": 1,
        "type": "channel",
        "noteNumber": 50,
        "velocity": 54,
        "subtype": "noteOn"
      },
      {
        "deltaTime": 38,
        "channel": 1,
        "type": "channel",
        "noteNumber": 98,
        "velocity": 48,
        "subtype": "noteOn"
      },
      {
        "deltaTime": 46,
        "channel": 1,
        "type": "channel",
        "subtype": "noteOff",
        "noteNumber": 98,
        "velocity": 0
      },
      {
        "deltaTime": 36,
        "channel": 1,
        "type": "channel",
        "noteNumber": 74,
        "velocity": 52,
        "subtype": "noteOn"
      },
      {
        "deltaTime": 14,
        "channel": 1,
        "type": "channel",
        "noteNumber": 65,
        "velocity": 45,
        "subtype": "noteOn"
      },
      {
        "deltaTime": 8,
        "channel": 1,
        "type": "channel",
        "subtype": "noteOff",
        "noteNumber": 50,
        "velocity": 0
      },
      {
        "deltaTime": 9,
        "channel": 1,
        "type": "channel",
        "subtype": "noteOff",
        "noteNumber": 65,
        "velocity": 0
      },
      {
        "deltaTime": 7,
        "channel": 1,
        "type": "channel",
        "subtype": "noteOff",
        "noteNumber": 74,
        "velocity": 0
      },
      {
        "deltaTime": 36,
        "channel": 1,
        "type": "channel",
        "noteNumber": 86,
        "velocity": 17,
        "subtype": "noteOn"
      },
      {
        "deltaTime": 20,
        "channel": 1,
        "type": "channel",
        "noteNumber": 74,
        "velocity": 14,
        "subtype": "noteOn"
      },
      {
        "deltaTime": 7,
        "channel": 1,
        "type": "channel",
        "subtype": "noteOff",
        "noteNumber": 86,
        "velocity": 0
      },
      {
        "deltaTime": 2,
        "channel": 1,
        "type": "channel",
        "noteNumber": 86,
        "velocity": 22,
        "subtype": "noteOn"
      },
      {
        "deltaTime": 5,
        "channel": 1,
        "type": "channel",
        "subtype": "noteOff",
        "noteNumber": 74,
        "velocity": 0
      },
      {
        "deltaTime": 10,
        "channel": 1,
        "type": "channel",
        "noteNumber": 98,
        "velocity": 24,
        "subtype": "noteOn"
      },
      {
        "deltaTime": 2,
        "channel": 1,
        "type": "channel",
        "noteNumber": 67,
        "velocity": 51,
        "subtype": "noteOn"
      },
      {
        "deltaTime": 7,
        "channel": 1,
        "type": "channel",
        "subtype": "noteOff",
        "noteNumber": 86,
        "velocity": 0
      },
      {
        "deltaTime": 22,
        "channel": 1,
        "type": "channel",
        "subtype": "noteOff",
        "noteNumber": 98,
        "velocity": 0
      },
      {
        "deltaTime": 84,
        "channel": 1,
        "type": "channel",
        "subtype": "noteOff",
        "noteNumber": 67,
        "velocity": 0
      },
      {
        "deltaTime": 7,
        "channel": 1,
        "type": "channel",
        "noteNumber": 98,
        "velocity": 51,
        "subtype": "noteOn"
      },
      {
        "deltaTime": 41,
        "channel": 1,
        "type": "channel",
        "subtype": "noteOff",
        "noteNumber": 98,
        "velocity": 0
      },
      {
        "deltaTime": 12,
        "channel": 1,
        "type": "channel",
        "noteNumber": 38,
        "velocity": 44,
        "subtype": "noteOn"
      },
      {
        "deltaTime": 29,
        "channel": 1,
        "type": "channel",
        "subtype": "noteOff",
        "noteNumber": 38,
        "velocity": 0
      },
      {
        "deltaTime": 2,
        "channel": 1,
        "type": "channel",
        "noteNumber": 72,
        "velocity": 54,
        "subtype": "noteOn"
      },
      {
        "deltaTime": 94,
        "channel": 1,
        "type": "channel",
        "noteNumber": 84,
        "velocity": 42,
        "subtype": "noteOn"
      },
      {
        "deltaTime": 14,
        "channel": 1,
        "type": "channel",
        "subtype": "noteOff",
        "noteNumber": 84,
        "velocity": 0
      },
      {
        "deltaTime": 17,
        "channel": 1,
        "type": "channel",
        "noteNumber": 96,
        "velocity": 34,
        "subtype": "noteOn"
      },
      {
        "deltaTime": 24,
        "channel": 1,
        "type": "channel",
        "subtype": "noteOff",
        "noteNumber": 96,
        "velocity": 0
      },
      {
        "deltaTime": 2,
        "channel": 1,
        "type": "channel",
        "noteNumber": 93,
        "velocity": 45,
        "subtype": "noteOn"
      },
      {
        "deltaTime": 12,
        "channel": 1,
        "type": "channel",
        "subtype": "noteOff",
        "noteNumber": 72,
        "velocity": 0
      },
      {
        "deltaTime": 22,
        "channel": 1,
        "type": "channel",
        "subtype": "noteOff",
        "noteNumber": 93,
        "velocity": 0
      },
      {
        "deltaTime": 12,
        "channel": 1,
        "type": "channel",
        "noteNumber": 86,
        "velocity": 32,
        "subtype": "noteOn"
      },
      {
        "deltaTime": 12,
        "channel": 1,
        "type": "channel",
        "subtype": "noteOff",
        "noteNumber": 86,
        "velocity": 0
      },
      {
        "deltaTime": 14,
        "channel": 1,
        "type": "channel",
        "noteNumber": 34,
        "velocity": 37,
        "subtype": "noteOn"
      },
      {
        "deltaTime": 63,
        "channel": 1,
        "type": "channel",
        "subtype": "noteOff",
        "noteNumber": 34,
        "velocity": 0
      },
      {
        "deltaTime": 19,
        "channel": 1,
        "type": "channel",
        "noteNumber": 46,
        "velocity": 47,
        "subtype": "noteOn"
      },
      {
        "deltaTime": 43,
        "channel": 1,
        "type": "channel",
        "noteNumber": 86,
        "velocity": 35,
        "subtype": "noteOn"
      },
      {
        "deltaTime": 7,
        "channel": 1,
        "type": "channel",
        "subtype": "noteOff",
        "noteNumber": 46,
        "velocity": 0
      },
      {
        "deltaTime": 17,
        "channel": 1,
        "type": "channel",
        "noteNumber": 46,
        "velocity": 19,
        "subtype": "noteOn"
      },
      {
        "deltaTime": 2,
        "channel": 1,
        "type": "channel",
        "subtype": "noteOff",
        "noteNumber": 86,
        "velocity": 0
      },
      {
        "deltaTime": 22,
        "channel": 1,
        "type": "channel",
        "noteNumber": 98,
        "velocity": 16,
        "subtype": "noteOn"
      },
      {
        "deltaTime": 19,
        "channel": 1,
        "type": "channel",
        "subtype": "noteOff",
        "noteNumber": 98,
        "velocity": 0
      },
      {
        "deltaTime": 17,
        "channel": 1,
        "type": "channel",
        "subtype": "noteOff",
        "noteNumber": 46,
        "velocity": 0
      },
      {
        "deltaTime": 24,
        "channel": 1,
        "type": "channel",
        "noteNumber": 74,
        "velocity": 23,
        "subtype": "noteOn"
      },
      {
        "deltaTime": 12,
        "channel": 1,
        "type": "channel",
        "subtype": "noteOff",
        "noteNumber": 74,
        "velocity": 0
      },
      {
        "deltaTime": 36,
        "channel": 1,
        "type": "channel",
        "noteNumber": 88,
        "velocity": 53,
        "subtype": "noteOn"
      },
      {
        "deltaTime": 22,
        "channel": 1,
        "type": "channel",
        "subtype": "noteOff",
        "noteNumber": 88,
        "velocity": 0
      },
      {
        "deltaTime": 12,
        "channel": 1,
        "type": "channel",
        "noteNumber": 36,
        "velocity": 55,
        "subtype": "noteOn"
      },
      {
        "deltaTime": 64,
        "channel": 1,
        "type": "channel",
        "subtype": "noteOff",
        "noteNumber": 36,
        "velocity": 0
      },
      {
        "deltaTime": 8,
        "channel": 1,
        "type": "channel",
        "noteNumber": 48,
        "velocity": 52,
        "subtype": "noteOn"
      },
      {
        "deltaTime": 67,
        "channel": 1,
        "type": "channel",
        "subtype": "noteOff",
        "noteNumber": 48,
        "velocity": 0
      },
      {
        "deltaTime": 158,
        "channel": 1,
        "type": "channel",
        "noteNumber": 38,
        "velocity": 49,
        "subtype": "noteOn"
      },
      {
        "deltaTime": 84,
        "channel": 1,
        "type": "channel",
        "noteNumber": 64,
        "velocity": 43,
        "subtype": "noteOn"
      },
      {
        "deltaTime": 31,
        "channel": 1,
        "type": "channel",
        "subtype": "noteOff",
        "noteNumber": 64,
        "velocity": 0
      },
      {
        "deltaTime": 41,
        "channel": 1,
        "type": "channel",
        "noteNumber": 89,
        "velocity": 26,
        "subtype": "noteOn"
      },
      {
        "deltaTime": 19,
        "channel": 1,
        "type": "channel",
        "subtype": "noteOff",
        "noteNumber": 89,
        "velocity": 0
      },
      {
        "deltaTime": 12,
        "channel": 1,
        "type": "channel",
        "noteNumber": 77,
        "velocity": 22,
        "subtype": "noteOn"
      },
      {
        "deltaTime": 15,
        "channel": 1,
        "type": "channel",
        "subtype": "noteOff",
        "noteNumber": 77,
        "velocity": 0
      },
      {
        "deltaTime": 41,
        "channel": 1,
        "type": "channel",
        "subtype": "noteOff",
        "noteNumber": 38,
        "velocity": 0
      },
      {
        "deltaTime": 24,
        "channel": 1,
        "type": "channel",
        "noteNumber": 77,
        "velocity": 17,
        "subtype": "noteOn"
      },
      {
        "deltaTime": 14,
        "channel": 1,
        "type": "channel",
        "subtype": "noteOff",
        "noteNumber": 77,
        "velocity": 0
      },
      {
        "deltaTime": 12,
        "channel": 1,
        "type": "channel",
        "noteNumber": 38,
        "velocity": 45,
        "subtype": "noteOn"
      },
      {
        "deltaTime": 108,
        "channel": 1,
        "type": "channel",
        "subtype": "noteOff",
        "noteNumber": 38,
        "velocity": 0
      },
      {
        "deltaTime": 14,
        "channel": 1,
        "type": "channel",
        "noteNumber": 89,
        "velocity": 26,
        "subtype": "noteOn"
      },
      {
        "deltaTime": 17,
        "channel": 1,
        "type": "channel",
        "subtype": "noteOff",
        "noteNumber": 89,
        "velocity": 0
      },
      {
        "deltaTime": 24,
        "channel": 1,
        "type": "channel",
        "noteNumber": 81,
        "velocity": 34,
        "subtype": "noteOn"
      },
      {
        "deltaTime": 55,
        "channel": 1,
        "type": "channel",
        "subtype": "noteOff",
        "noteNumber": 81,
        "velocity": 0
      },
      {
        "deltaTime": 15,
        "channel": 1,
        "type": "channel",
        "noteNumber": 81,
        "velocity": 40,
        "subtype": "noteOn"
      },
      {
        "deltaTime": 2,
        "channel": 1,
        "type": "channel",
        "noteNumber": 105,
        "velocity": 30,
        "subtype": "noteOn"
      },
      {
        "deltaTime": 10,
        "channel": 1,
        "type": "channel",
        "subtype": "noteOff",
        "noteNumber": 105,
        "velocity": 0
      },
      {
        "deltaTime": 55,
        "channel": 1,
        "type": "channel",
        "subtype": "noteOff",
        "noteNumber": 81,
        "velocity": 0
      },
      {
        "deltaTime": 10,
        "channel": 1,
        "type": "channel",
        "noteNumber": 81,
        "velocity": 18,
        "subtype": "noteOn"
      },
      {
        "deltaTime": 19,
        "channel": 1,
        "type": "channel",
        "subtype": "noteOff",
        "noteNumber": 81,
        "velocity": 0
      },
      {
        "deltaTime": 38,
        "channel": 1,
        "type": "channel",
        "noteNumber": 86,
        "velocity": 41,
        "subtype": "noteOn"
      },
      {
        "deltaTime": 15,
        "channel": 1,
        "type": "channel",
        "subtype": "noteOff",
        "noteNumber": 86,
        "velocity": 0
      },
      {
        "deltaTime": 9,
        "channel": 1,
        "type": "channel",
        "noteNumber": 62,
        "velocity": 54,
        "subtype": "noteOn"
      },
      {
        "deltaTime": 70,
        "channel": 1,
        "type": "channel",
        "subtype": "noteOff",
        "noteNumber": 62,
        "velocity": 0
      },
      {
        "deltaTime": 5,
        "channel": 1,
        "type": "channel",
        "noteNumber": 98,
        "velocity": 49,
        "subtype": "noteOn"
      },
      {
        "deltaTime": 9,
        "channel": 1,
        "type": "channel",
        "subtype": "noteOff",
        "noteNumber": 98,
        "velocity": 0
      },
      {
        "deltaTime": 19,
        "channel": 1,
        "type": "channel",
        "noteNumber": 34,
        "velocity": 32,
        "subtype": "noteOn"
      },
      {
        "deltaTime": 24,
        "channel": 1,
        "type": "channel",
        "subtype": "noteOff",
        "noteNumber": 34,
        "velocity": 0
      },
      {
        "deltaTime": 44,
        "channel": 1,
        "type": "channel",
        "noteNumber": 74,
        "velocity": 33,
        "subtype": "noteOn"
      },
      {
        "deltaTime": 16,
        "channel": 1,
        "type": "channel",
        "noteNumber": 86,
        "velocity": 12,
        "subtype": "noteOn"
      },
      {
        "deltaTime": 3,
        "channel": 1,
        "type": "channel",
        "subtype": "noteOff",
        "noteNumber": 74,
        "velocity": 0
      },
      {
        "deltaTime": 14,
        "channel": 1,
        "type": "channel",
        "noteNumber": 60,
        "velocity": 22,
        "subtype": "noteOn"
      },
      {
        "deltaTime": 7,
        "channel": 1,
        "type": "channel",
        "subtype": "noteOff",
        "noteNumber": 86,
        "velocity": 0
      },
      {
        "deltaTime": 36,
        "channel": 1,
        "type": "channel",
        "noteNumber": 35,
        "velocity": 16,
        "subtype": "noteOn"
      },
      {
        "deltaTime": 5,
        "channel": 1,
        "type": "channel",
        "noteNumber": 48,
        "velocity": 56,
        "subtype": "noteOn"
      },
      {
        "deltaTime": 5,
        "channel": 1,
        "type": "channel",
        "subtype": "noteOff",
        "noteNumber": 60,
        "velocity": 0
      },
      {
        "deltaTime": 7,
        "channel": 1,
        "type": "channel",
        "noteNumber": 88,
        "velocity": 38,
        "subtype": "noteOn"
      },
      {
        "deltaTime": 3,
        "channel": 1,
        "type": "channel",
        "subtype": "noteOff",
        "noteNumber": 35,
        "velocity": 0
      },
      {
        "deltaTime": 12,
        "channel": 1,
        "type": "channel",
        "noteNumber": 55,
        "velocity": 23,
        "subtype": "noteOn"
      },
      {
        "deltaTime": 24,
        "channel": 1,
        "type": "channel",
        "subtype": "noteOff",
        "noteNumber": 55,
        "velocity": 0
      },
      {
        "deltaTime": 33,
        "channel": 1,
        "type": "channel",
        "noteNumber": 36,
        "velocity": 42,
        "subtype": "noteOn"
      },
      {
        "deltaTime": 12,
        "channel": 1,
        "type": "channel",
        "subtype": "noteOff",
        "noteNumber": 88,
        "velocity": 0
      },
      {
        "deltaTime": 10,
        "channel": 1,
        "type": "channel",
        "subtype": "noteOff",
        "noteNumber": 36,
        "velocity": 0
      },
      {
        "deltaTime": 113,
        "channel": 1,
        "type": "channel",
        "noteNumber": 93,
        "velocity": 51,
        "subtype": "noteOn"
      },
      {
        "deltaTime": 74,
        "channel": 1,
        "type": "channel",
        "subtype": "noteOff",
        "noteNumber": 93,
        "velocity": 0
      },
      {
        "deltaTime": 2,
        "channel": 1,
        "type": "channel",
        "subtype": "noteOff",
        "noteNumber": 48,
        "velocity": 0
      },
      {
        "deltaTime": 34,
        "channel": 1,
        "type": "channel",
        "noteNumber": 86,
        "velocity": 34,
        "subtype": "noteOn"
      },
      {
        "deltaTime": 17,
        "channel": 1,
        "type": "channel",
        "noteNumber": 50,
        "velocity": 56,
        "subtype": "noteOn"
      },
      {
        "deltaTime": 2,
        "channel": 1,
        "type": "channel",
        "subtype": "noteOff",
        "noteNumber": 86,
        "velocity": 0
      },
      {
        "deltaTime": 132,
        "channel": 1,
        "type": "channel",
        "noteNumber": 65,
        "velocity": 42,
        "subtype": "noteOn"
      },
      {
        "deltaTime": 10,
        "channel": 1,
        "type": "channel",
        "subtype": "noteOff",
        "noteNumber": 50,
        "velocity": 0
      },
      {
        "deltaTime": 7,
        "channel": 1,
        "type": "channel",
        "subtype": "noteOff",
        "noteNumber": 65,
        "velocity": 0
      },
      {
        "deltaTime": 7,
        "channel": 1,
        "type": "channel",
        "noteNumber": 102,
        "velocity": 26,
        "subtype": "noteOn"
      },
      {
        "deltaTime": 0,
        "channel": 1,
        "type": "channel",
        "noteNumber": 64,
        "velocity": 45,
        "subtype": "noteOn"
      },
      {
        "deltaTime": 24,
        "channel": 1,
        "type": "channel",
        "subtype": "noteOff",
        "noteNumber": 102,
        "velocity": 0
      },
      {
        "deltaTime": 24,
        "channel": 1,
        "type": "channel",
        "subtype": "noteOff",
        "noteNumber": 64,
        "velocity": 0
      },
      {
        "deltaTime": 65,
        "channel": 1,
        "type": "channel",
        "noteNumber": 86,
        "velocity": 53,
        "subtype": "noteOn"
      },
      {
        "deltaTime": 14,
        "channel": 1,
        "type": "channel",
        "subtype": "noteOff",
        "noteNumber": 86,
        "velocity": 0
      },
      {
        "deltaTime": 36,
        "channel": 1,
        "type": "channel",
        "noteNumber": 98,
        "velocity": 58,
        "subtype": "noteOn"
      },
      {
        "deltaTime": 10,
        "channel": 1,
        "type": "channel",
        "subtype": "noteOff",
        "noteNumber": 98,
        "velocity": 0
      },
      {
        "deltaTime": 67,
        "channel": 1,
        "type": "channel",
        "noteNumber": 98,
        "velocity": 40,
        "subtype": "noteOn"
      },
      {
        "deltaTime": 10,
        "channel": 1,
        "type": "channel",
        "noteNumber": 64,
        "velocity": 52,
        "subtype": "noteOn"
      },
      {
        "deltaTime": 21,
        "channel": 1,
        "type": "channel",
        "subtype": "noteOff",
        "noteNumber": 98,
        "velocity": 0
      },
      {
        "deltaTime": 68,
        "channel": 1,
        "type": "channel",
        "subtype": "noteOff",
        "noteNumber": 64,
        "velocity": 0
      },
      {
        "deltaTime": 21,
        "channel": 1,
        "type": "channel",
        "noteNumber": 64,
        "velocity": 34,
        "subtype": "noteOn"
      },
      {
        "deltaTime": 139,
        "channel": 1,
        "type": "channel",
        "subtype": "noteOff",
        "noteNumber": 64,
        "velocity": 0
      },
      {
        "deltaTime": 284,
        "channel": 1,
        "type": "channel",
        "noteNumber": 89,
        "velocity": 41,
        "subtype": "noteOn"
      },
      {
        "deltaTime": 21,
        "channel": 1,
        "type": "channel",
        "noteNumber": 34,
        "velocity": 37,
        "subtype": "noteOn"
      },
      {
        "deltaTime": 12,
        "channel": 1,
        "type": "channel",
        "subtype": "noteOff",
        "noteNumber": 34,
        "velocity": 0
      },
      {
        "deltaTime": 17,
        "channel": 1,
        "type": "channel",
        "subtype": "noteOff",
        "noteNumber": 89,
        "velocity": 0
      },
      {
        "deltaTime": 77,
        "channel": 1,
        "type": "channel",
        "noteNumber": 77,
        "velocity": 54,
        "subtype": "noteOn"
      },
      {
        "deltaTime": 17,
        "channel": 1,
        "type": "channel",
        "noteNumber": 89,
        "velocity": 48,
        "subtype": "noteOn"
      },
      {
        "deltaTime": 7,
        "channel": 1,
        "type": "channel",
        "subtype": "noteOff",
        "noteNumber": 77,
        "velocity": 0
      },
      {
        "deltaTime": 0,
        "channel": 1,
        "type": "channel",
        "noteNumber": 101,
        "velocity": 38,
        "subtype": "noteOn"
      },
      {
        "deltaTime": 5,
        "channel": 1,
        "type": "channel",
        "subtype": "noteOff",
        "noteNumber": 89,
        "velocity": 0
      },
      {
        "deltaTime": 4,
        "channel": 1,
        "type": "channel",
        "noteNumber": 89,
        "velocity": 36,
        "subtype": "noteOn"
      },
      {
        "deltaTime": 27,
        "channel": 1,
        "type": "channel",
        "subtype": "noteOff",
        "noteNumber": 101,
        "velocity": 0
      },
      {
        "deltaTime": 24,
        "channel": 1,
        "type": "channel",
        "subtype": "noteOff",
        "noteNumber": 89,
        "velocity": 0
      },
      {
        "deltaTime": 65,
        "channel": 1,
        "type": "channel",
        "noteNumber": 91,
        "velocity": 11,
        "subtype": "noteOn"
      },
      {
        "deltaTime": 12,
        "channel": 1,
        "type": "channel",
        "subtype": "noteOff",
        "noteNumber": 91,
        "velocity": 0
      },
      {
        "deltaTime": 26,
        "channel": 1,
        "type": "channel",
        "noteNumber": 36,
        "velocity": 44,
        "subtype": "noteOn"
      },
      {
        "deltaTime": 34,
        "channel": 1,
        "type": "channel",
        "subtype": "noteOff",
        "noteNumber": 36,
        "velocity": 0
      },
      {
        "deltaTime": 33,
        "channel": 1,
        "type": "channel",
        "noteNumber": 39,
        "velocity": 56,
        "subtype": "noteOn"
      },
      {
        "deltaTime": 7,
        "channel": 1,
        "type": "channel",
        "noteNumber": 103,
        "velocity": 52,
        "subtype": "noteOn"
      },
      {
        "deltaTime": 15,
        "channel": 1,
        "type": "channel",
        "subtype": "noteOff",
        "noteNumber": 103,
        "velocity": 0
      },
      {
        "deltaTime": 53,
        "channel": 1,
        "type": "channel",
        "noteNumber": 79,
        "velocity": 44,
        "subtype": "noteOn"
      },
      {
        "deltaTime": 14,
        "channel": 1,
        "type": "channel",
        "subtype": "noteOff",
        "noteNumber": 79,
        "velocity": 0
      },
      {
        "deltaTime": 0,
        "channel": 1,
        "type": "channel",
        "noteNumber": 103,
        "velocity": 55,
        "subtype": "noteOn"
      },
      {
        "deltaTime": 14,
        "channel": 1,
        "type": "channel",
        "subtype": "noteOff",
        "noteNumber": 103,
        "velocity": 0
      },
      {
        "deltaTime": 20,
        "channel": 1,
        "type": "channel",
        "noteNumber": 79,
        "velocity": 51,
        "subtype": "noteOn"
      },
      {
        "deltaTime": 57,
        "channel": 1,
        "type": "channel",
        "subtype": "noteOff",
        "noteNumber": 79,
        "velocity": 0
      },
      {
        "deltaTime": 7,
        "channel": 1,
        "type": "channel",
        "noteNumber": 79,
        "velocity": 31,
        "subtype": "noteOn"
      },
      {
        "deltaTime": 22,
        "channel": 1,
        "type": "channel",
        "subtype": "noteOff",
        "noteNumber": 39,
        "velocity": 0
      },
      {
        "deltaTime": 12,
        "channel": 1,
        "type": "channel",
        "subtype": "noteOff",
        "noteNumber": 79,
        "velocity": 0
      },
      {
        "deltaTime": 72,
        "channel": 1,
        "type": "channel",
        "noteNumber": 80,
        "velocity": 41,
        "subtype": "noteOn"
      },
      {
        "deltaTime": 17,
        "channel": 1,
        "type": "channel",
        "subtype": "noteOff",
        "noteNumber": 80,
        "velocity": 0
      },
      {
        "deltaTime": 12,
        "channel": 1,
        "type": "channel",
        "noteNumber": 68,
        "velocity": 44,
        "subtype": "noteOn"
      },
      {
        "deltaTime": 36,
        "channel": 1,
        "type": "channel",
        "subtype": "noteOff",
        "noteNumber": 68,
        "velocity": 0
      },
      {
        "deltaTime": 12,
        "channel": 1,
        "type": "channel",
        "noteNumber": 104,
        "velocity": 57,
        "subtype": "noteOn"
      },
      {
        "deltaTime": 17,
        "channel": 1,
        "type": "channel",
        "subtype": "noteOff",
        "noteNumber": 104,
        "velocity": 0
      },
      {
        "deltaTime": 2,
        "channel": 1,
        "type": "channel",
        "noteNumber": 36,
        "velocity": 20,
        "subtype": "noteOn"
      },
      {
        "deltaTime": 22,
        "channel": 1,
        "type": "channel",
        "subtype": "noteOff",
        "noteNumber": 36,
        "velocity": 0
      },
      {
        "deltaTime": 2,
        "channel": 1,
        "type": "channel",
        "noteNumber": 92,
        "velocity": 39,
        "subtype": "noteOn"
      },
      {
        "deltaTime": 2,
        "channel": 1,
        "type": "channel",
        "noteNumber": 68,
        "velocity": 44,
        "subtype": "noteOn"
      },
      {
        "deltaTime": 10,
        "channel": 1,
        "type": "channel",
        "subtype": "noteOff",
        "noteNumber": 92,
        "velocity": 0
      },
      {
        "deltaTime": 22,
        "channel": 1,
        "type": "channel",
        "subtype": "noteOff",
        "noteNumber": 68,
        "velocity": 0
      },
      {
        "deltaTime": 12,
        "channel": 1,
        "type": "channel",
        "noteNumber": 67,
        "velocity": 32,
        "subtype": "noteOn"
      },
      {
        "deltaTime": 14,
        "channel": 1,
        "type": "channel",
        "noteNumber": 99,
        "velocity": 43,
        "subtype": "noteOn"
      },
      {
        "deltaTime": 5,
        "channel": 1,
        "type": "channel",
        "subtype": "noteOff",
        "noteNumber": 67,
        "velocity": 0
      },
      {
        "deltaTime": 98,
        "channel": 1,
        "type": "channel",
        "subtype": "noteOff",
        "noteNumber": 99,
        "velocity": 0
      },
      {
        "deltaTime": 3,
        "channel": 1,
        "type": "channel",
        "noteNumber": 99,
        "velocity": 52,
        "subtype": "noteOn"
      },
      {
        "deltaTime": 57,
        "channel": 1,
        "type": "channel",
        "subtype": "noteOff",
        "noteNumber": 99,
        "velocity": 0
      },
      {
        "deltaTime": 17,
        "channel": 1,
        "type": "channel",
        "noteNumber": 92,
        "velocity": 42,
        "subtype": "noteOn"
      },
      {
        "deltaTime": 55,
        "channel": 1,
        "type": "channel",
        "subtype": "noteOff",
        "noteNumber": 92,
        "velocity": 0
      },
      {
        "deltaTime": 10,
        "channel": 1,
        "type": "channel",
        "noteNumber": 79,
        "velocity": 36,
        "subtype": "noteOn"
      },
      {
        "deltaTime": 36,
        "channel": 1,
        "type": "channel",
        "subtype": "noteOff",
        "noteNumber": 79,
        "velocity": 0
      },
      {
        "deltaTime": 41,
        "channel": 1,
        "type": "channel",
        "noteNumber": 96,
        "velocity": 63,
        "subtype": "noteOn"
      },
      {
        "deltaTime": 12,
        "channel": 1,
        "type": "channel",
        "subtype": "noteOff",
        "noteNumber": 96,
        "velocity": 0
      },
      {
        "deltaTime": 16,
        "channel": 1,
        "type": "channel",
        "noteNumber": 96,
        "velocity": 68,
        "subtype": "noteOn"
      },
      {
        "deltaTime": 12,
        "channel": 1,
        "type": "channel",
        "subtype": "noteOff",
        "noteNumber": 96,
        "velocity": 0
      },
      {
        "deltaTime": 65,
        "channel": 1,
        "type": "channel",
        "noteNumber": 77,
        "velocity": 36,
        "subtype": "noteOn"
      },
      {
        "deltaTime": 29,
        "channel": 1,
        "type": "channel",
        "noteNumber": 105,
        "velocity": 41,
        "subtype": "noteOn"
      },
      {
        "deltaTime": 2,
        "channel": 1,
        "type": "channel",
        "subtype": "noteOff",
        "noteNumber": 77,
        "velocity": 0
      },
      {
        "deltaTime": 5,
        "channel": 1,
        "type": "channel",
        "noteNumber": 77,
        "velocity": 54,
        "subtype": "noteOn"
      },
      {
        "deltaTime": 22,
        "channel": 1,
        "type": "channel",
        "subtype": "noteOff",
        "noteNumber": 105,
        "velocity": 0
      },
      {
        "deltaTime": 2,
        "channel": 1,
        "type": "channel",
        "noteNumber": 65,
        "velocity": 60,
        "subtype": "noteOn"
      },
      {
        "deltaTime": 3,
        "channel": 1,
        "type": "channel",
        "subtype": "noteOff",
        "noteNumber": 77,
        "velocity": 0
      },
      {
        "deltaTime": 67,
        "channel": 1,
        "type": "channel",
        "subtype": "noteOff",
        "noteNumber": 65,
        "velocity": 0
      },
      {
        "deltaTime": 7,
        "channel": 1,
        "type": "channel",
        "noteNumber": 77,
        "velocity": 55,
        "subtype": "noteOn"
      },
      {
        "deltaTime": 12,
        "channel": 1,
        "type": "channel",
        "subtype": "noteOff",
        "noteNumber": 77,
        "velocity": 0
      },
      {
        "deltaTime": 0,
        "channel": 1,
        "type": "channel",
        "noteNumber": 65,
        "velocity": 53,
        "subtype": "noteOn"
      },
      {
        "deltaTime": 60,
        "channel": 1,
        "type": "channel",
        "subtype": "noteOff",
        "noteNumber": 65,
        "velocity": 0
      },
      {
        "deltaTime": 41,
        "channel": 1,
        "type": "channel",
        "noteNumber": 96,
        "velocity": 22,
        "subtype": "noteOn"
      },
      {
        "deltaTime": 17,
        "channel": 1,
        "type": "channel",
        "subtype": "noteOff",
        "noteNumber": 96,
        "velocity": 0
      },
      {
        "deltaTime": 50,
        "channel": 1,
        "type": "channel",
        "noteNumber": 91,
        "velocity": 35,
        "subtype": "noteOn"
      },
      {
        "deltaTime": 38,
        "channel": 1,
        "type": "channel",
        "subtype": "noteOff",
        "noteNumber": 91,
        "velocity": 0
      },
      {
        "deltaTime": 34,
        "channel": 1,
        "type": "channel",
        "noteNumber": 103,
        "velocity": 51,
        "subtype": "noteOn"
      },
      {
        "deltaTime": 12,
        "channel": 1,
        "type": "channel",
        "subtype": "noteOff",
        "noteNumber": 103,
        "velocity": 0
      },
      {
        "deltaTime": 29,
        "channel": 1,
        "type": "channel",
        "noteNumber": 79,
        "velocity": 53,
        "subtype": "noteOn"
      },
      {
        "deltaTime": 19,
        "channel": 1,
        "type": "channel",
        "subtype": "noteOff",
        "noteNumber": 79,
        "velocity": 0
      },
      {
        "deltaTime": 5,
        "channel": 1,
        "type": "channel",
        "noteNumber": 79,
        "velocity": 50,
        "subtype": "noteOn"
      },
      {
        "deltaTime": 17,
        "channel": 1,
        "type": "channel",
        "subtype": "noteOff",
        "noteNumber": 79,
        "velocity": 0
      },
      {
        "deltaTime": 36,
        "channel": 1,
        "type": "channel",
        "noteNumber": 65,
        "velocity": 46,
        "subtype": "noteOn"
      },
      {
        "deltaTime": 64,
        "channel": 1,
        "type": "channel",
        "subtype": "noteOff",
        "noteNumber": 65,
        "velocity": 0
      },
      {
        "deltaTime": 3,
        "channel": 1,
        "type": "channel",
        "noteNumber": 79,
        "velocity": 27,
        "subtype": "noteOn"
      },
      {
        "deltaTime": 29,
        "channel": 1,
        "type": "channel",
        "subtype": "noteOff",
        "noteNumber": 79,
        "velocity": 0
      },
      {
        "deltaTime": 21,
        "channel": 1,
        "type": "channel",
        "noteNumber": 53,
        "velocity": 14,
        "subtype": "noteOn"
      },
      {
        "deltaTime": 15,
        "channel": 1,
        "type": "channel",
        "subtype": "noteOff",
        "noteNumber": 53,
        "velocity": 0
      },
      {
        "deltaTime": 33,
        "channel": 1,
        "type": "channel",
        "noteNumber": 80,
        "velocity": 41,
        "subtype": "noteOn"
      },
      {
        "deltaTime": 17,
        "channel": 1,
        "type": "channel",
        "subtype": "noteOff",
        "noteNumber": 80,
        "velocity": 0
      },
      {
        "deltaTime": 10,
        "channel": 1,
        "type": "channel",
        "noteNumber": 68,
        "velocity": 45,
        "subtype": "noteOn"
      },
      {
        "deltaTime": 40,
        "channel": 1,
        "type": "channel",
        "subtype": "noteOff",
        "noteNumber": 68,
        "velocity": 0
      },
      {
        "deltaTime": 12,
        "channel": 1,
        "type": "channel",
        "noteNumber": 104,
        "velocity": 51,
        "subtype": "noteOn"
      },
      {
        "deltaTime": 17,
        "channel": 1,
        "type": "channel",
        "subtype": "noteOff",
        "noteNumber": 104,
        "velocity": 0
      },
      {
        "deltaTime": 0,
        "channel": 1,
        "type": "channel",
        "noteNumber": 36,
        "velocity": 11,
        "subtype": "noteOn"
      },
      {
        "deltaTime": 15,
        "channel": 1,
        "type": "channel",
        "noteNumber": 68,
        "velocity": 43,
        "subtype": "noteOn"
      },
      {
        "deltaTime": 2,
        "channel": 1,
        "type": "channel",
        "subtype": "noteOff",
        "noteNumber": 36,
        "velocity": 0
      },
      {
        "deltaTime": 38,
        "channel": 1,
        "type": "channel",
        "subtype": "noteOff",
        "noteNumber": 68,
        "velocity": 0
      },
      {
        "deltaTime": 113,
        "channel": 1,
        "type": "channel",
        "noteNumber": 65,
        "velocity": 52,
        "subtype": "noteOn"
      },
      {
        "deltaTime": 79,
        "channel": 1,
        "type": "channel",
        "subtype": "noteOff",
        "noteNumber": 65,
        "velocity": 0
      },
      {
        "deltaTime": 8,
        "channel": 1,
        "type": "channel",
        "noteNumber": 104,
        "velocity": 41,
        "subtype": "noteOn"
      },
      {
        "deltaTime": 9,
        "channel": 1,
        "type": "channel",
        "noteNumber": 41,
        "velocity": 43,
        "subtype": "noteOn"
      },
      {
        "deltaTime": 3,
        "channel": 1,
        "type": "channel",
        "subtype": "noteOff",
        "noteNumber": 104,
        "velocity": 0
      },
      {
        "deltaTime": 0,
        "channel": 1,
        "type": "channel",
        "noteNumber": 92,
        "velocity": 45,
        "subtype": "noteOn"
      },
      {
        "deltaTime": 16,
        "channel": 1,
        "type": "channel",
        "subtype": "noteOff",
        "noteNumber": 41,
        "velocity": 0
      },
      {
        "deltaTime": 44,
        "channel": 1,
        "type": "channel",
        "subtype": "noteOff",
        "noteNumber": 92,
        "velocity": 0
      },
      {
        "deltaTime": 21,
        "channel": 1,
        "type": "channel",
        "noteNumber": 99,
        "velocity": 38,
        "subtype": "noteOn"
      },
      {
        "deltaTime": 22,
        "channel": 1,
        "type": "channel",
        "subtype": "noteOff",
        "noteNumber": 99,
        "velocity": 0
      },
      {
        "deltaTime": 31,
        "channel": 1,
        "type": "channel",
        "noteNumber": 91,
        "velocity": 53,
        "subtype": "noteOn"
      },
      {
        "deltaTime": 19,
        "channel": 1,
        "type": "channel",
        "noteNumber": 103,
        "velocity": 51,
        "subtype": "noteOn"
      },
      {
        "deltaTime": 7,
        "channel": 1,
        "type": "channel",
        "subtype": "noteOff",
        "noteNumber": 91,
        "velocity": 0
      },
      {
        "deltaTime": 8,
        "channel": 1,
        "type": "channel",
        "subtype": "noteOff",
        "noteNumber": 103,
        "velocity": 0
      },
      {
        "deltaTime": 24,
        "channel": 1,
        "type": "channel",
        "noteNumber": 79,
        "velocity": 47,
        "subtype": "noteOn"
      },
      {
        "deltaTime": 26,
        "channel": 1,
        "type": "channel",
        "subtype": "noteOff",
        "noteNumber": 79,
        "velocity": 0
      },
      {
        "deltaTime": 26,
        "channel": 1,
        "type": "channel",
        "noteNumber": 77,
        "velocity": 39,
        "subtype": "noteOn"
      },
      {
        "deltaTime": 15,
        "channel": 1,
        "type": "channel",
        "noteNumber": 37,
        "velocity": 49,
        "subtype": "noteOn"
      },
      {
        "deltaTime": 19,
        "channel": 1,
        "type": "channel",
        "subtype": "noteOff",
        "noteNumber": 77,
        "velocity": 0
      },
      {
        "deltaTime": 70,
        "channel": 1,
        "type": "channel",
        "subtype": "noteOff",
        "noteNumber": 37,
        "velocity": 0
      },
      {
        "deltaTime": 24,
        "channel": 1,
        "type": "channel",
        "noteNumber": 77,
        "velocity": 52,
        "subtype": "noteOn"
      },
      {
        "deltaTime": 19,
        "channel": 1,
        "type": "channel",
        "noteNumber": 89,
        "velocity": 24,
        "subtype": "noteOn"
      },
      {
        "deltaTime": 5,
        "channel": 1,
        "type": "channel",
        "subtype": "noteOff",
        "noteNumber": 77,
        "velocity": 0
      },
      {
        "deltaTime": 4,
        "channel": 1,
        "type": "channel",
        "subtype": "noteOff",
        "noteNumber": 89,
        "velocity": 0
      },
      {
        "deltaTime": 0,
        "channel": 1,
        "type": "channel",
        "noteNumber": 101,
        "velocity": 34,
        "subtype": "noteOn"
      },
      {
        "deltaTime": 34,
        "channel": 1,
        "type": "channel",
        "subtype": "noteOff",
        "noteNumber": 101,
        "velocity": 0
      },
      {
        "deltaTime": 48,
        "channel": 1,
        "type": "channel",
        "noteNumber": 99,
        "velocity": 28,
        "subtype": "noteOn"
      },
      {
        "deltaTime": 12,
        "channel": 1,
        "type": "channel",
        "subtype": "noteOff",
        "noteNumber": 99,
        "velocity": 0
      },
      {
        "deltaTime": 60,
        "channel": 1,
        "type": "channel",
        "noteNumber": 51,
        "velocity": 53,
        "subtype": "noteOn"
      },
      {
        "deltaTime": 43,
        "channel": 1,
        "type": "channel",
        "noteNumber": 39,
        "velocity": 48,
        "subtype": "noteOn"
      },
      {
        "deltaTime": 15,
        "channel": 1,
        "type": "channel",
        "subtype": "noteOff",
        "noteNumber": 39,
        "velocity": 0
      },
      {
        "deltaTime": 12,
        "channel": 1,
        "type": "channel",
        "noteNumber": 39,
        "velocity": 56,
        "subtype": "noteOn"
      },
      {
        "deltaTime": 26,
        "channel": 1,
        "type": "channel",
        "subtype": "noteOff",
        "noteNumber": 51,
        "velocity": 0
      },
      {
        "deltaTime": 48,
        "channel": 1,
        "type": "channel",
        "noteNumber": 79,
        "velocity": 42,
        "subtype": "noteOn"
      },
      {
        "deltaTime": 14,
        "channel": 1,
        "type": "channel",
        "noteNumber": 91,
        "velocity": 44,
        "subtype": "noteOn"
      },
      {
        "deltaTime": 3,
        "channel": 1,
        "type": "channel",
        "subtype": "noteOff",
        "noteNumber": 79,
        "velocity": 0
      },
      {
        "deltaTime": 29,
        "channel": 1,
        "type": "channel",
        "noteNumber": 79,
        "velocity": 49,
        "subtype": "noteOn"
      },
      {
        "deltaTime": 4,
        "channel": 1,
        "type": "channel",
        "subtype": "noteOff",
        "noteNumber": 91,
        "velocity": 0
      },
      {
        "deltaTime": 77,
        "channel": 1,
        "type": "channel",
        "noteNumber": 65,
        "velocity": 51,
        "subtype": "noteOn"
      },
      {
        "deltaTime": 24,
        "channel": 1,
        "type": "channel",
        "subtype": "noteOff",
        "noteNumber": 79,
        "velocity": 0
      },
      {
        "deltaTime": 7,
        "channel": 1,
        "type": "channel",
        "subtype": "noteOff",
        "noteNumber": 39,
        "velocity": 0
      },
      {
        "deltaTime": 27,
        "channel": 1,
        "type": "channel",
        "noteNumber": 92,
        "velocity": 36,
        "subtype": "noteOn"
      },
      {
        "deltaTime": 33,
        "channel": 1,
        "type": "channel",
        "subtype": "noteOff",
        "noteNumber": 92,
        "velocity": 0
      },
      {
        "deltaTime": 8,
        "channel": 1,
        "type": "channel",
        "noteNumber": 92,
        "velocity": 44,
        "subtype": "noteOn"
      },
      {
        "deltaTime": 14,
        "channel": 1,
        "type": "channel",
        "subtype": "noteOff",
        "noteNumber": 92,
        "velocity": 0
      },
      {
        "deltaTime": 34,
        "channel": 1,
        "type": "channel",
        "subtype": "noteOff",
        "noteNumber": 65,
        "velocity": 0
      },
      {
        "deltaTime": 28,
        "channel": 1,
        "type": "channel",
        "noteNumber": 67,
        "velocity": 56,
        "subtype": "noteOn"
      },
      {
        "deltaTime": 15,
        "channel": 1,
        "type": "channel",
        "subtype": "noteOff",
        "noteNumber": 67,
        "velocity": 0
      },
      {
        "deltaTime": 24,
        "channel": 1,
        "type": "channel",
        "noteNumber": 68,
        "velocity": 46,
        "subtype": "noteOn"
      },
      {
        "deltaTime": 33,
        "channel": 1,
        "type": "channel",
        "subtype": "noteOff",
        "noteNumber": 68,
        "velocity": 0
      },
      {
        "deltaTime": 0,
        "channel": 1,
        "type": "channel",
        "noteNumber": 79,
        "velocity": 23,
        "subtype": "noteOn"
      },
      {
        "deltaTime": 22,
        "channel": 1,
        "type": "channel",
        "subtype": "noteOff",
        "noteNumber": 79,
        "velocity": 0
      },
      {
        "deltaTime": 14,
        "channel": 1,
        "type": "channel",
        "noteNumber": 68,
        "velocity": 40,
        "subtype": "noteOn"
      },
      {
        "deltaTime": 56,
        "channel": 1,
        "type": "channel",
        "subtype": "noteOff",
        "noteNumber": 68,
        "velocity": 0
      },
      {
        "deltaTime": 86,
        "channel": 1,
        "type": "channel",
        "noteNumber": 92,
        "velocity": 52,
        "subtype": "noteOn"
      },
      {
        "deltaTime": 12,
        "channel": 1,
        "type": "channel",
        "noteNumber": 104,
        "velocity": 49,
        "subtype": "noteOn"
      },
      {
        "deltaTime": 19,
        "channel": 1,
        "type": "channel",
        "subtype": "noteOff",
        "noteNumber": 104,
        "velocity": 0
      },
      {
        "deltaTime": 53,
        "channel": 1,
        "type": "channel",
        "subtype": "noteOff",
        "noteNumber": 92,
        "velocity": 0
      },
      {
        "deltaTime": 0,
        "channel": 1,
        "type": "channel",
        "noteNumber": 36,
        "velocity": 24,
        "subtype": "noteOn"
      },
      {
        "deltaTime": 12,
        "channel": 1,
        "type": "channel",
        "noteNumber": 39,
        "velocity": 61,
        "subtype": "noteOn"
      },
      {
        "deltaTime": 12,
        "channel": 1,
        "type": "channel",
        "subtype": "noteOff",
        "noteNumber": 36,
        "velocity": 0
      },
      {
        "deltaTime": 91,
        "channel": 1,
        "type": "channel",
        "noteNumber": 96,
        "velocity": 59,
        "subtype": "noteOn"
      },
      {
        "deltaTime": 17,
        "channel": 1,
        "type": "channel",
        "subtype": "noteOff",
        "noteNumber": 96,
        "velocity": 0
      },
      {
        "deltaTime": 70,
        "channel": 1,
        "type": "channel",
        "subtype": "noteOff",
        "noteNumber": 39,
        "velocity": 0
      },
      {
        "deltaTime": 26,
        "channel": 1,
        "type": "channel",
        "noteNumber": 77,
        "velocity": 53,
        "subtype": "noteOn"
      },
      {
        "deltaTime": 24,
        "channel": 1,
        "type": "channel",
        "noteNumber": 65,
        "velocity": 58,
        "subtype": "noteOn"
      },
      {
        "deltaTime": 2,
        "channel": 1,
        "type": "channel",
        "subtype": "noteOff",
        "noteNumber": 77,
        "velocity": 0
      },
      {
        "deltaTime": 68,
        "channel": 1,
        "type": "channel",
        "subtype": "noteOff",
        "noteNumber": 65,
        "velocity": 0
      },
      {
        "deltaTime": 7,
        "channel": 1,
        "type": "channel",
        "noteNumber": 77,
        "velocity": 54,
        "subtype": "noteOn"
      },
      {
        "deltaTime": 12,
        "channel": 1,
        "type": "channel",
        "subtype": "noteOff",
        "noteNumber": 77,
        "velocity": 0
      },
      {
        "deltaTime": 0,
        "channel": 1,
        "type": "channel",
        "noteNumber": 65,
        "velocity": 53,
        "subtype": "noteOn"
      },
      {
        "deltaTime": 57,
        "channel": 1,
        "type": "channel",
        "subtype": "noteOff",
        "noteNumber": 65,
        "velocity": 0
      },
      {
        "deltaTime": 68,
        "channel": 1,
        "type": "channel",
        "noteNumber": 89,
        "velocity": 18,
        "subtype": "noteOn"
      },
      {
        "deltaTime": 12,
        "channel": 1,
        "type": "channel",
        "subtype": "noteOff",
        "noteNumber": 89,
        "velocity": 0
      },
      {
        "deltaTime": 36,
        "channel": 1,
        "type": "channel",
        "noteNumber": 79,
        "velocity": 51,
        "subtype": "noteOn"
      },
      {
        "deltaTime": 84,
        "channel": 1,
        "type": "channel",
        "subtype": "noteOff",
        "noteNumber": 79,
        "velocity": 0
      },
      {
        "deltaTime": 98,
        "channel": 1,
        "type": "channel",
        "noteNumber": 65,
        "velocity": 44,
        "subtype": "noteOn"
      },
      {
        "deltaTime": 65,
        "channel": 1,
        "type": "channel",
        "subtype": "noteOff",
        "noteNumber": 65,
        "velocity": 0
      },
      {
        "deltaTime": 48,
        "channel": 1,
        "type": "channel",
        "noteNumber": 77,
        "velocity": 25,
        "subtype": "noteOn"
      },
      {
        "deltaTime": 7,
        "channel": 1,
        "type": "channel",
        "noteNumber": 65,
        "velocity": 52,
        "subtype": "noteOn"
      },
      {
        "deltaTime": 10,
        "channel": 1,
        "type": "channel",
        "subtype": "noteOff",
        "noteNumber": 77,
        "velocity": 0
      },
      {
        "deltaTime": 93,
        "channel": 1,
        "type": "channel",
        "subtype": "noteOff",
        "noteNumber": 65,
        "velocity": 0
      },
      {
        "deltaTime": 19,
        "channel": 1,
        "type": "channel",
        "noteNumber": 77,
        "velocity": 45,
        "subtype": "noteOn"
      },
      {
        "deltaTime": 60,
        "channel": 1,
        "type": "channel",
        "subtype": "noteOff",
        "noteNumber": 77,
        "velocity": 0
      },
      {
        "deltaTime": 92,
        "channel": 1,
        "type": "channel",
        "noteNumber": 70,
        "velocity": 50,
        "subtype": "noteOn"
      },
      {
        "deltaTime": 115,
        "channel": 1,
        "type": "channel",
        "subtype": "noteOff",
        "noteNumber": 70,
        "velocity": 0
      },
      {
        "deltaTime": 21,
        "channel": 1,
        "type": "channel",
        "noteNumber": 41,
        "velocity": 43,
        "subtype": "noteOn"
      },
      {
        "deltaTime": 17,
        "channel": 1,
        "type": "channel",
        "subtype": "noteOff",
        "noteNumber": 41,
        "velocity": 0
      },
      {
        "deltaTime": 48,
        "channel": 1,
        "type": "channel",
        "noteNumber": 41,
        "velocity": 26,
        "subtype": "noteOn"
      },
      {
        "deltaTime": 39,
        "channel": 1,
        "type": "channel",
        "subtype": "noteOff",
        "noteNumber": 41,
        "velocity": 0
      },
      {
        "deltaTime": 0,
        "channel": 1,
        "type": "channel",
        "noteNumber": 68,
        "velocity": 38,
        "subtype": "noteOn"
      },
      {
        "deltaTime": 2,
        "channel": 1,
        "type": "channel",
        "noteNumber": 77,
        "velocity": 17,
        "subtype": "noteOn"
      },
      {
        "deltaTime": 31,
        "channel": 1,
        "type": "channel",
        "subtype": "noteOff",
        "noteNumber": 77,
        "velocity": 0
      },
      {
        "deltaTime": 22,
        "channel": 1,
        "type": "channel",
        "subtype": "noteOff",
        "noteNumber": 68,
        "velocity": 0
      },
      {
        "deltaTime": 26,
        "channel": 1,
        "type": "channel",
        "noteNumber": 63,
        "velocity": 40,
        "subtype": "noteOn"
      },
      {
        "deltaTime": 10,
        "channel": 1,
        "type": "channel",
        "noteNumber": 99,
        "velocity": 39,
        "subtype": "noteOn"
      },
      {
        "deltaTime": 17,
        "channel": 1,
        "type": "channel",
        "subtype": "noteOff",
        "noteNumber": 99,
        "velocity": 0
      },
      {
        "deltaTime": 4,
        "channel": 1,
        "type": "channel",
        "subtype": "noteOff",
        "noteNumber": 63,
        "velocity": 0
      },
      {
        "deltaTime": 29,
        "channel": 1,
        "type": "channel",
        "noteNumber": 77,
        "velocity": 38,
        "subtype": "noteOn"
      },
      {
        "deltaTime": 29,
        "channel": 1,
        "type": "channel",
        "subtype": "noteOff",
        "noteNumber": 77,
        "velocity": 0
      },
      {
        "deltaTime": 5,
        "channel": 1,
        "type": "channel",
        "noteNumber": 77,
        "velocity": 54,
        "subtype": "noteOn"
      },
      {
        "deltaTime": 29,
        "channel": 1,
        "type": "channel",
        "subtype": "noteOff",
        "noteNumber": 77,
        "velocity": 0
      },
      {
        "deltaTime": 48,
        "channel": 1,
        "type": "channel",
        "noteNumber": 105,
        "velocity": 57,
        "subtype": "noteOn"
      },
      {
        "deltaTime": 91,
        "channel": 1,
        "type": "channel",
        "subtype": "noteOff",
        "noteNumber": 105,
        "velocity": 0
      },
      {
        "deltaTime": 65,
        "channel": 1,
        "type": "channel",
        "noteNumber": 96,
        "velocity": 12,
        "subtype": "noteOn"
      },
      {
        "deltaTime": 9,
        "channel": 1,
        "type": "channel",
        "subtype": "noteOff",
        "noteNumber": 96,
        "velocity": 0
      },
      {
        "deltaTime": 0,
        "channel": 1,
        "type": "channel",
        "noteNumber": 94,
        "velocity": 11,
        "subtype": "noteOn"
      },
      {
        "deltaTime": 12,
        "channel": 1,
        "type": "channel",
        "subtype": "noteOff",
        "noteNumber": 94,
        "velocity": 0
      },
      {
        "deltaTime": 19,
        "channel": 1,
        "type": "channel",
        "noteNumber": 51,
        "velocity": 57,
        "subtype": "noteOn"
      },
      {
        "deltaTime": 72,
        "channel": 1,
        "type": "channel",
        "noteNumber": 39,
        "velocity": 59,
        "subtype": "noteOn"
      },
      {
        "deltaTime": 27,
        "channel": 1,
        "type": "channel",
        "subtype": "noteOff",
        "noteNumber": 51,
        "velocity": 0
      },
      {
        "deltaTime": 48,
        "channel": 1,
        "type": "channel",
        "noteNumber": 79,
        "velocity": 42,
        "subtype": "noteOn"
      },
      {
        "deltaTime": 14,
        "channel": 1,
        "type": "channel",
        "subtype": "noteOff",
        "noteNumber": 79,
        "velocity": 0
      },
      {
        "deltaTime": 0,
        "channel": 1,
        "type": "channel",
        "noteNumber": 103,
        "velocity": 49,
        "subtype": "noteOn"
      },
      {
        "deltaTime": 15,
        "channel": 1,
        "type": "channel",
        "subtype": "noteOff",
        "noteNumber": 103,
        "velocity": 0
      },
      {
        "deltaTime": 19,
        "channel": 1,
        "type": "channel",
        "noteNumber": 79,
        "velocity": 49,
        "subtype": "noteOn"
      },
      {
        "deltaTime": 55,
        "channel": 1,
        "type": "channel",
        "subtype": "noteOff",
        "noteNumber": 79,
        "velocity": 0
      },
      {
        "deltaTime": 26,
        "channel": 1,
        "type": "channel",
        "subtype": "noteOff",
        "noteNumber": 39,
        "velocity": 0
      },
      {
        "deltaTime": 0,
        "channel": 1,
        "type": "channel",
        "noteNumber": 98,
        "velocity": 28,
        "subtype": "noteOn"
      },
      {
        "deltaTime": 10,
        "channel": 1,
        "type": "channel",
        "subtype": "noteOff",
        "noteNumber": 98,
        "velocity": 0
      },
      {
        "deltaTime": 48,
        "channel": 1,
        "type": "channel",
        "noteNumber": 92,
        "velocity": 19,
        "subtype": "noteOn"
      },
      {
        "deltaTime": 17,
        "channel": 1,
        "type": "channel",
        "subtype": "noteOff",
        "noteNumber": 92,
        "velocity": 0
      },
      {
        "deltaTime": 14,
        "channel": 1,
        "type": "channel",
        "noteNumber": 80,
        "velocity": 41,
        "subtype": "noteOn"
      },
      {
        "deltaTime": 17,
        "channel": 1,
        "type": "channel",
        "subtype": "noteOff",
        "noteNumber": 80,
        "velocity": 0
      },
      {
        "deltaTime": 12,
        "channel": 1,
        "type": "channel",
        "noteNumber": 68,
        "velocity": 44,
        "subtype": "noteOn"
      },
      {
        "deltaTime": 36,
        "channel": 1,
        "type": "channel",
        "subtype": "noteOff",
        "noteNumber": 68,
        "velocity": 0
      },
      {
        "deltaTime": 2,
        "channel": 1,
        "type": "channel",
        "noteNumber": 92,
        "velocity": 56,
        "subtype": "noteOn"
      },
      {
        "deltaTime": 17,
        "channel": 1,
        "type": "channel",
        "noteNumber": 67,
        "velocity": 58,
        "subtype": "noteOn"
      },
      {
        "deltaTime": 3,
        "channel": 1,
        "type": "channel",
        "subtype": "noteOff",
        "noteNumber": 92,
        "velocity": 0
      },
      {
        "deltaTime": 12,
        "channel": 1,
        "type": "channel",
        "subtype": "noteOff",
        "noteNumber": 67,
        "velocity": 0
      },
      {
        "deltaTime": 24,
        "channel": 1,
        "type": "channel",
        "noteNumber": 68,
        "velocity": 45,
        "subtype": "noteOn"
      },
      {
        "deltaTime": 31,
        "channel": 1,
        "type": "channel",
        "subtype": "noteOff",
        "noteNumber": 68,
        "velocity": 0
      },
      {
        "deltaTime": 7,
        "channel": 1,
        "type": "channel",
        "noteNumber": 104,
        "velocity": 40,
        "subtype": "noteOn"
      },
      {
        "deltaTime": 22,
        "channel": 1,
        "type": "channel",
        "noteNumber": 99,
        "velocity": 48,
        "subtype": "noteOn"
      },
      {
        "deltaTime": 7,
        "channel": 1,
        "type": "channel",
        "subtype": "noteOff",
        "noteNumber": 104,
        "velocity": 0
      },
      {
        "deltaTime": 96,
        "channel": 1,
        "type": "channel",
        "subtype": "noteOff",
        "noteNumber": 99,
        "velocity": 0
      },
      {
        "deltaTime": 29,
        "channel": 1,
        "type": "channel",
        "noteNumber": 80,
        "velocity": 52,
        "subtype": "noteOn"
      },
      {
        "deltaTime": 26,
        "channel": 1,
        "type": "channel",
        "subtype": "noteOff",
        "noteNumber": 80,
        "velocity": 0
      },
      {
        "deltaTime": 10,
        "channel": 1,
        "type": "channel",
        "noteNumber": 104,
        "velocity": 40,
        "subtype": "noteOn"
      },
      {
        "deltaTime": 9,
        "channel": 1,
        "type": "channel",
        "subtype": "noteOff",
        "noteNumber": 104,
        "velocity": 0
      },
      {
        "deltaTime": 0,
        "channel": 1,
        "type": "channel",
        "noteNumber": 92,
        "velocity": 41,
        "subtype": "noteOn"
      },
      {
        "deltaTime": 46,
        "channel": 1,
        "type": "channel",
        "subtype": "noteOff",
        "noteNumber": 92,
        "velocity": 0
      },
      {
        "deltaTime": 7,
        "channel": 1,
        "type": "channel",
        "noteNumber": 36,
        "velocity": 26,
        "subtype": "noteOn"
      },
      {
        "deltaTime": 24,
        "channel": 1,
        "type": "channel",
        "subtype": "noteOff",
        "noteNumber": 36,
        "velocity": 0
      },
      {
        "deltaTime": 10,
        "channel": 1,
        "type": "channel",
        "noteNumber": 84,
        "velocity": 62,
        "subtype": "noteOn"
      },
      {
        "deltaTime": 196,
        "channel": 1,
        "type": "channel",
        "noteNumber": 77,
        "velocity": 54,
        "subtype": "noteOn"
      },
      {
        "deltaTime": 5,
        "channel": 1,
        "type": "channel",
        "subtype": "noteOff",
        "noteNumber": 84,
        "velocity": 0
      },
      {
        "deltaTime": 22,
        "channel": 1,
        "type": "channel",
        "subtype": "noteOff",
        "noteNumber": 77,
        "velocity": 0
      },
      {
        "deltaTime": 50,
        "channel": 1,
        "type": "channel",
        "noteNumber": 105,
        "velocity": 56,
        "subtype": "noteOn"
      },
      {
        "deltaTime": 22,
        "channel": 1,
        "type": "channel",
        "subtype": "noteOff",
        "noteNumber": 105,
        "velocity": 0
      },
      {
        "deltaTime": 7,
        "channel": 1,
        "type": "channel",
        "noteNumber": 63,
        "velocity": 40,
        "subtype": "noteOn"
      },
      {
        "deltaTime": 82,
        "channel": 1,
        "type": "channel",
        "noteNumber": 65,
        "velocity": 36,
        "subtype": "noteOn"
      },
      {
        "deltaTime": 21,
        "channel": 1,
        "type": "channel",
        "subtype": "noteOff",
        "noteNumber": 63,
        "velocity": 0
      },
      {
        "deltaTime": 5,
        "channel": 1,
        "type": "channel",
        "noteNumber": 96,
        "velocity": 31,
        "subtype": "noteOn"
      },
      {
        "deltaTime": 29,
        "channel": 1,
        "type": "channel",
        "subtype": "noteOff",
        "noteNumber": 96,
        "velocity": 0
      },
      {
        "deltaTime": 12,
        "channel": 1,
        "type": "channel",
        "subtype": "noteOff",
        "noteNumber": 65,
        "velocity": 0
      },
      {
        "deltaTime": 19,
        "channel": 1,
        "type": "channel",
        "noteNumber": 51,
        "velocity": 33,
        "subtype": "noteOn"
      },
      {
        "deltaTime": 29,
        "channel": 1,
        "type": "channel",
        "subtype": "noteOff",
        "noteNumber": 51,
        "velocity": 0
      },
      {
        "deltaTime": 31,
        "channel": 1,
        "type": "channel",
        "noteNumber": 79,
        "velocity": 58,
        "subtype": "noteOn"
      },
      {
        "deltaTime": 48,
        "channel": 1,
        "type": "channel",
        "subtype": "noteOff",
        "noteNumber": 79,
        "velocity": 0
      },
      {
        "deltaTime": 70,
        "channel": 1,
        "type": "channel",
        "noteNumber": 98,
        "velocity": 41,
        "subtype": "noteOn"
      },
      {
        "deltaTime": 19,
        "channel": 1,
        "type": "channel",
        "subtype": "noteOff",
        "noteNumber": 98,
        "velocity": 0
      },
      {
        "deltaTime": 0,
        "channel": 1,
        "type": "channel",
        "noteNumber": 65,
        "velocity": 45,
        "subtype": "noteOn"
      },
      {
        "deltaTime": 36,
        "channel": 1,
        "type": "channel",
        "noteNumber": 79,
        "velocity": 43,
        "subtype": "noteOn"
      },
      {
        "deltaTime": 29,
        "channel": 1,
        "type": "channel",
        "subtype": "noteOff",
        "noteNumber": 65,
        "velocity": 0
      },
      {
        "deltaTime": 16,
        "channel": 1,
        "type": "channel",
        "subtype": "noteOff",
        "noteNumber": 79,
        "velocity": 0
      },
      {
        "deltaTime": 20,
        "channel": 1,
        "type": "channel",
        "noteNumber": 84,
        "velocity": 14,
        "subtype": "noteOn"
      },
      {
        "deltaTime": 19,
        "channel": 1,
        "type": "channel",
        "noteNumber": 53,
        "velocity": 13,
        "subtype": "noteOn"
      },
      {
        "deltaTime": 12,
        "channel": 1,
        "type": "channel",
        "subtype": "noteOff",
        "noteNumber": 84,
        "velocity": 0
      },
      {
        "deltaTime": 0,
        "channel": 1,
        "type": "channel",
        "subtype": "noteOff",
        "noteNumber": 53,
        "velocity": 0
      },
      {
        "deltaTime": 2,
        "channel": 1,
        "type": "channel",
        "noteNumber": 89,
        "velocity": 46,
        "subtype": "noteOn"
      },
      {
        "deltaTime": 94,
        "channel": 1,
        "type": "channel",
        "subtype": "noteOff",
        "noteNumber": 89,
        "velocity": 0
      },
      {
        "deltaTime": 21,
        "channel": 1,
        "type": "channel",
        "noteNumber": 67,
        "velocity": 52,
        "subtype": "noteOn"
      },
      {
        "deltaTime": 15,
        "channel": 1,
        "type": "channel",
        "subtype": "noteOff",
        "noteNumber": 67,
        "velocity": 0
      },
      {
        "deltaTime": 0,
        "channel": 1,
        "type": "channel",
        "noteNumber": 36,
        "velocity": 21,
        "subtype": "noteOn"
      },
      {
        "deltaTime": 14,
        "channel": 1,
        "type": "channel",
        "subtype": "noteOff",
        "noteNumber": 36,
        "velocity": 0
      },
      {
        "deltaTime": 113,
        "channel": 1,
        "type": "channel",
        "noteNumber": 77,
        "velocity": 19,
        "subtype": "noteOn"
      },
      {
        "deltaTime": 17,
        "channel": 1,
        "type": "channel",
        "noteNumber": 96,
        "velocity": 17,
        "subtype": "noteOn"
      },
      {
        "deltaTime": 2,
        "channel": 1,
        "type": "channel",
        "subtype": "noteOff",
        "noteNumber": 77,
        "velocity": 0
      },
      {
        "deltaTime": 15,
        "channel": 1,
        "type": "channel",
        "subtype": "noteOff",
        "noteNumber": 96,
        "velocity": 0
      },
      {
        "deltaTime": 33,
        "channel": 1,
        "type": "channel",
        "noteNumber": 77,
        "velocity": 56,
        "subtype": "noteOn"
      },
      {
        "deltaTime": 55,
        "channel": 1,
        "type": "channel",
        "subtype": "noteOff",
        "noteNumber": 77,
        "velocity": 0
      },
      {
        "deltaTime": 0,
        "channel": 1,
        "type": "channel",
        "noteNumber": 68,
        "velocity": 52,
        "subtype": "noteOn"
      },
      {
        "deltaTime": 39,
        "channel": 1,
        "type": "channel",
        "subtype": "noteOff",
        "noteNumber": 68,
        "velocity": 0
      },
      {
        "deltaTime": 17,
        "channel": 1,
        "type": "channel",
        "noteNumber": 105,
        "velocity": 43,
        "subtype": "noteOn"
      },
      {
        "deltaTime": 21,
        "channel": 1,
        "type": "channel",
        "subtype": "noteOff",
        "noteNumber": 105,
        "velocity": 0
      },
      {
        "deltaTime": 19,
        "channel": 1,
        "type": "channel",
        "noteNumber": 67,
        "velocity": 23,
        "subtype": "noteOn"
      },
      {
        "deltaTime": 0,
        "channel": 1,
        "type": "channel",
        "noteNumber": 44,
        "velocity": 69,
        "subtype": "noteOn"
      },
      {
        "deltaTime": 15,
        "channel": 1,
        "type": "channel",
        "subtype": "noteOff",
        "noteNumber": 67,
        "velocity": 0
      },
      {
        "deltaTime": 0,
        "channel": 1,
        "type": "channel",
        "noteNumber": 87,
        "velocity": 29,
        "subtype": "noteOn"
      },
      {
        "deltaTime": 9,
        "channel": 1,
        "type": "channel",
        "subtype": "noteOff",
        "noteNumber": 87,
        "velocity": 0
      },
      {
        "deltaTime": 123,
        "channel": 1,
        "type": "channel",
        "noteNumber": 89,
        "velocity": 42,
        "subtype": "noteOn"
      },
      {
        "deltaTime": 29,
        "channel": 1,
        "type": "channel",
        "subtype": "noteOff",
        "noteNumber": 44,
        "velocity": 0
      },
      {
        "deltaTime": 31,
        "channel": 1,
        "type": "channel",
        "noteNumber": 77,
        "velocity": 54,
        "subtype": "noteOn"
      },
      {
        "deltaTime": 2,
        "channel": 1,
        "type": "channel",
        "subtype": "noteOff",
        "noteNumber": 89,
        "velocity": 0
      },
      {
        "deltaTime": 58,
        "channel": 1,
        "type": "channel",
        "subtype": "noteOff",
        "noteNumber": 77,
        "velocity": 0
      },
      {
        "deltaTime": 21,
        "channel": 1,
        "type": "channel",
        "noteNumber": 77,
        "velocity": 55,
        "subtype": "noteOn"
      },
      {
        "deltaTime": 27,
        "channel": 1,
        "type": "channel",
        "noteNumber": 65,
        "velocity": 51,
        "subtype": "noteOn"
      },
      {
        "deltaTime": 5,
        "channel": 1,
        "type": "channel",
        "subtype": "noteOff",
        "noteNumber": 77,
        "velocity": 0
      },
      {
        "deltaTime": 16,
        "channel": 1,
        "type": "channel",
        "noteNumber": 63,
        "velocity": 28,
        "subtype": "noteOn"
      },
      {
        "deltaTime": 39,
        "channel": 1,
        "type": "channel",
        "subtype": "noteOff",
        "noteNumber": 65,
        "velocity": 0
      },
      {
        "deltaTime": 41,
        "channel": 1,
        "type": "channel",
        "subtype": "noteOff",
        "noteNumber": 63,
        "velocity": 0
      },
      {
        "deltaTime": 57,
        "channel": 1,
        "type": "channel",
        "noteNumber": 51,
        "velocity": 53,
        "subtype": "noteOn"
      },
      {
        "deltaTime": 70,
        "channel": 1,
        "type": "channel",
        "noteNumber": 39,
        "velocity": 59,
        "subtype": "noteOn"
      },
      {
        "deltaTime": 29,
        "channel": 1,
        "type": "channel",
        "subtype": "noteOff",
        "noteNumber": 51,
        "velocity": 0
      },
      {
        "deltaTime": 48,
        "channel": 1,
        "type": "channel",
        "noteNumber": 79,
        "velocity": 40,
        "subtype": "noteOn"
      },
      {
        "deltaTime": 16,
        "channel": 1,
        "type": "channel",
        "subtype": "noteOff",
        "noteNumber": 79,
        "velocity": 0
      },
      {
        "deltaTime": 0,
        "channel": 1,
        "type": "channel",
        "noteNumber": 98,
        "velocity": 50,
        "subtype": "noteOn"
      },
      {
        "deltaTime": 34,
        "channel": 1,
        "type": "channel",
        "noteNumber": 65,
        "velocity": 45,
        "subtype": "noteOn"
      },
      {
        "deltaTime": 31,
        "channel": 1,
        "type": "channel",
        "subtype": "noteOff",
        "noteNumber": 98,
        "velocity": 0
      },
      {
        "deltaTime": 34,
        "channel": 1,
        "type": "channel",
        "subtype": "noteOff",
        "noteNumber": 65,
        "velocity": 0
      },
      {
        "deltaTime": 12,
        "channel": 1,
        "type": "channel",
        "noteNumber": 65,
        "velocity": 51,
        "subtype": "noteOn"
      },
      {
        "deltaTime": 31,
        "channel": 1,
        "type": "channel",
        "subtype": "noteOff",
        "noteNumber": 39,
        "velocity": 0
      },
      {
        "deltaTime": 31,
        "channel": 1,
        "type": "channel",
        "noteNumber": 92,
        "velocity": 31,
        "subtype": "noteOn"
      },
      {
        "deltaTime": 10,
        "channel": 1,
        "type": "channel",
        "subtype": "noteOff",
        "noteNumber": 92,
        "velocity": 0
      },
      {
        "deltaTime": 72,
        "channel": 1,
        "type": "channel",
        "subtype": "noteOff",
        "noteNumber": 65,
        "velocity": 0
      },
      {
        "deltaTime": 29,
        "channel": 1,
        "type": "channel",
        "noteNumber": 67,
        "velocity": 53,
        "subtype": "noteOn"
      },
      {
        "deltaTime": 14,
        "channel": 1,
        "type": "channel",
        "subtype": "noteOff",
        "noteNumber": 67,
        "velocity": 0
      },
      {
        "deltaTime": 5,
        "channel": 1,
        "type": "channel",
        "noteNumber": 36,
        "velocity": 12,
        "subtype": "noteOn"
      },
      {
        "deltaTime": 14,
        "channel": 1,
        "type": "channel",
        "subtype": "noteOff",
        "noteNumber": 36,
        "velocity": 0
      },
      {
        "deltaTime": 7,
        "channel": 1,
        "type": "channel",
        "noteNumber": 99,
        "velocity": 47,
        "subtype": "noteOn"
      },
      {
        "deltaTime": 41,
        "channel": 1,
        "type": "channel",
        "noteNumber": 67,
        "velocity": 34,
        "subtype": "noteOn"
      },
      {
        "deltaTime": 7,
        "channel": 1,
        "type": "channel",
        "subtype": "noteOff",
        "noteNumber": 99,
        "velocity": 0
      },
      {
        "deltaTime": 15,
        "channel": 1,
        "type": "channel",
        "subtype": "noteOff",
        "noteNumber": 67,
        "velocity": 0
      },
      {
        "deltaTime": 36,
        "channel": 1,
        "type": "channel",
        "noteNumber": 87,
        "velocity": 32,
        "subtype": "noteOn"
      },
      {
        "deltaTime": 33,
        "channel": 1,
        "type": "channel",
        "subtype": "noteOff",
        "noteNumber": 87,
        "velocity": 0
      },
      {
        "deltaTime": 5,
        "channel": 1,
        "type": "channel",
        "noteNumber": 80,
        "velocity": 41,
        "subtype": "noteOn"
      },
      {
        "deltaTime": 7,
        "channel": 1,
        "type": "channel",
        "noteNumber": 65,
        "velocity": 51,
        "subtype": "noteOn"
      },
      {
        "deltaTime": 8,
        "channel": 1,
        "type": "channel",
        "subtype": "noteOff",
        "noteNumber": 80,
        "velocity": 0
      },
      {
        "deltaTime": 105,
        "channel": 1,
        "type": "channel",
        "subtype": "noteOff",
        "noteNumber": 65,
        "velocity": 0
      },
      {
        "deltaTime": 15,
        "channel": 1,
        "type": "channel",
        "noteNumber": 67,
        "velocity": 42,
        "subtype": "noteOn"
      },
      {
        "deltaTime": 19,
        "channel": 1,
        "type": "channel",
        "noteNumber": 89,
        "velocity": 61,
        "subtype": "noteOn"
      },
      {
        "deltaTime": 5,
        "channel": 1,
        "type": "channel",
        "subtype": "noteOff",
        "noteNumber": 67,
        "velocity": 0
      },
      {
        "deltaTime": 112,
        "channel": 1,
        "type": "channel",
        "noteNumber": 96,
        "velocity": 57,
        "subtype": "noteOn"
      },
      {
        "deltaTime": 17,
        "channel": 1,
        "type": "channel",
        "subtype": "noteOff",
        "noteNumber": 96,
        "velocity": 0
      },
      {
        "deltaTime": 29,
        "channel": 1,
        "type": "channel",
        "subtype": "noteOff",
        "noteNumber": 89,
        "velocity": 0
      },
      {
        "deltaTime": 17,
        "channel": 1,
        "type": "channel",
        "noteNumber": 77,
        "velocity": 31,
        "subtype": "noteOn"
      },
      {
        "deltaTime": 19,
        "channel": 1,
        "type": "channel",
        "noteNumber": 89,
        "velocity": 33,
        "subtype": "noteOn"
      },
      {
        "deltaTime": 19,
        "channel": 1,
        "type": "channel",
        "noteNumber": 37,
        "velocity": 64,
        "subtype": "noteOn"
      },
      {
        "deltaTime": 10,
        "channel": 1,
        "type": "channel",
        "subtype": "noteOff",
        "noteNumber": 77,
        "velocity": 0
      },
      {
        "deltaTime": 2,
        "channel": 1,
        "type": "channel",
        "noteNumber": 77,
        "velocity": 50,
        "subtype": "noteOn"
      },
      {
        "deltaTime": 12,
        "channel": 1,
        "type": "channel",
        "subtype": "noteOff",
        "noteNumber": 89,
        "velocity": 0
      },
      {
        "deltaTime": 15,
        "channel": 1,
        "type": "channel",
        "subtype": "noteOff",
        "noteNumber": 77,
        "velocity": 0
      },
      {
        "deltaTime": 24,
        "channel": 1,
        "type": "channel",
        "noteNumber": 96,
        "velocity": 58,
        "subtype": "noteOn"
      },
      {
        "deltaTime": 21,
        "channel": 1,
        "type": "channel",
        "subtype": "noteOff",
        "noteNumber": 96,
        "velocity": 0
      },
      {
        "deltaTime": 43,
        "channel": 1,
        "type": "channel",
        "noteNumber": 65,
        "velocity": 56,
        "subtype": "noteOn"
      },
      {
        "deltaTime": 58,
        "channel": 1,
        "type": "channel",
        "subtype": "noteOff",
        "noteNumber": 65,
        "velocity": 0
      },
      {
        "deltaTime": 58,
        "channel": 1,
        "type": "channel",
        "noteNumber": 77,
        "velocity": 15,
        "subtype": "noteOn"
      },
      {
        "deltaTime": 12,
        "channel": 1,
        "type": "channel",
        "subtype": "noteOff",
        "noteNumber": 37,
        "velocity": 0
      },
      {
        "deltaTime": 2,
        "channel": 1,
        "type": "channel",
        "subtype": "noteOff",
        "noteNumber": 77,
        "velocity": 0
      },
      {
        "deltaTime": 29,
        "channel": 1,
        "type": "channel",
        "noteNumber": 51,
        "velocity": 34,
        "subtype": "noteOn"
      },
      {
        "deltaTime": 26,
        "channel": 1,
        "type": "channel",
        "subtype": "noteOff",
        "noteNumber": 51,
        "velocity": 0
      },
      {
        "deltaTime": 41,
        "channel": 1,
        "type": "channel",
        "noteNumber": 67,
        "velocity": 53,
        "subtype": "noteOn"
      },
      {
        "deltaTime": 72,
        "channel": 1,
        "type": "channel",
        "subtype": "noteOff",
        "noteNumber": 67,
        "velocity": 0
      },
      {
        "deltaTime": 10,
        "channel": 1,
        "type": "channel",
        "noteNumber": 67,
        "velocity": 37,
        "subtype": "noteOn"
      },
      {
        "deltaTime": 40,
        "channel": 1,
        "type": "channel",
        "noteNumber": 79,
        "velocity": 42,
        "subtype": "noteOn"
      },
      {
        "deltaTime": 29,
        "channel": 1,
        "type": "channel",
        "subtype": "noteOff",
        "noteNumber": 67,
        "velocity": 0
      },
      {
        "deltaTime": 27,
        "channel": 1,
        "type": "channel",
        "subtype": "noteOff",
        "noteNumber": 79,
        "velocity": 0
      },
      {
        "deltaTime": 57,
        "channel": 1,
        "type": "channel",
        "noteNumber": 89,
        "velocity": 64,
        "subtype": "noteOn"
      },
      {
        "deltaTime": 5,
        "channel": 1,
        "type": "channel",
        "noteNumber": 77,
        "velocity": 26,
        "subtype": "noteOn"
      },
      {
        "deltaTime": 7,
        "channel": 1,
        "type": "channel",
        "noteNumber": 65,
        "velocity": 50,
        "subtype": "noteOn"
      },
      {
        "deltaTime": 12,
        "channel": 1,
        "type": "channel",
        "subtype": "noteOff",
        "noteNumber": 77,
        "velocity": 0
      },
      {
        "deltaTime": 91,
        "channel": 1,
        "type": "channel",
        "subtype": "noteOff",
        "noteNumber": 65,
        "velocity": 0
      },
      {
        "deltaTime": 41,
        "channel": 1,
        "type": "channel",
        "subtype": "noteOff",
        "noteNumber": 89,
        "velocity": 0
      },
      {
        "deltaTime": 17,
        "channel": 1,
        "type": "channel",
        "noteNumber": 101,
        "velocity": 57,
        "subtype": "noteOn"
      },
      {
        "deltaTime": 0,
        "channel": 1,
        "type": "channel",
        "noteNumber": 77,
        "velocity": 55,
        "subtype": "noteOn"
      },
      {
        "deltaTime": 17,
        "channel": 1,
        "type": "channel",
        "subtype": "noteOff",
        "noteNumber": 77,
        "velocity": 0
      },
      {
        "deltaTime": 2,
        "channel": 1,
        "type": "channel",
        "noteNumber": 77,
        "velocity": 60,
        "subtype": "noteOn"
      },
      {
        "deltaTime": 27,
        "channel": 1,
        "type": "channel",
        "subtype": "noteOff",
        "noteNumber": 101,
        "velocity": 0
      },
      {
        "deltaTime": 38,
        "channel": 1,
        "type": "channel",
        "subtype": "noteOff",
        "noteNumber": 77,
        "velocity": 0
      },
      {
        "deltaTime": 19,
        "channel": 1,
        "type": "channel",
        "noteNumber": 101,
        "velocity": 66,
        "subtype": "noteOn"
      },
      {
        "deltaTime": 63,
        "channel": 1,
        "type": "channel",
        "subtype": "noteOff",
        "noteNumber": 101,
        "velocity": 0
      },
      {
        "deltaTime": 14,
        "channel": 1,
        "type": "channel",
        "noteNumber": 77,
        "velocity": 68,
        "subtype": "noteOn"
      },
      {
        "deltaTime": 94,
        "channel": 1,
        "type": "channel",
        "subtype": "noteOff",
        "noteNumber": 77,
        "velocity": 0
      },
      {
        "deltaTime": 38,
        "channel": 1,
        "type": "channel",
        "noteNumber": 79,
        "velocity": 44,
        "subtype": "noteOn"
      },
      {
        "deltaTime": 19,
        "channel": 1,
        "type": "channel",
        "subtype": "noteOff",
        "noteNumber": 79,
        "velocity": 0
      },
      {
        "deltaTime": 0,
        "channel": 1,
        "type": "channel",
        "noteNumber": 101,
        "velocity": 50,
        "subtype": "noteOn"
      },
      {
        "deltaTime": 19,
        "channel": 1,
        "type": "channel",
        "subtype": "noteOff",
        "noteNumber": 101,
        "velocity": 0
      },
      {
        "deltaTime": 10,
        "channel": 1,
        "type": "channel",
        "noteNumber": 105,
        "velocity": 44,
        "subtype": "noteOn"
      },
      {
        "deltaTime": 12,
        "channel": 1,
        "type": "channel",
        "noteNumber": 77,
        "velocity": 48,
        "subtype": "noteOn"
      },
      {
        "deltaTime": 19,
        "channel": 1,
        "type": "channel",
        "subtype": "noteOff",
        "noteNumber": 105,
        "velocity": 0
      },
      {
        "deltaTime": 46,
        "channel": 1,
        "type": "channel",
        "subtype": "noteOff",
        "noteNumber": 77,
        "velocity": 0
      },
      {
        "deltaTime": 41,
        "channel": 1,
        "type": "channel",
        "noteNumber": 61,
        "velocity": 11,
        "subtype": "noteOn"
      },
      {
        "deltaTime": 69,
        "channel": 1,
        "type": "channel",
        "noteNumber": 99,
        "velocity": 13,
        "subtype": "noteOn"
      },
      {
        "deltaTime": 43,
        "channel": 1,
        "type": "channel",
        "subtype": "noteOff",
        "noteNumber": 61,
        "velocity": 0
      },
      {
        "deltaTime": 29,
        "channel": 1,
        "type": "channel",
        "subtype": "noteOff",
        "noteNumber": 99,
        "velocity": 0
      },
      {
        "deltaTime": 144,
        "channel": 1,
        "type": "channel",
        "noteNumber": 99,
        "velocity": 25,
        "subtype": "noteOn"
      },
      {
        "deltaTime": 19,
        "channel": 1,
        "type": "channel",
        "subtype": "noteOff",
        "noteNumber": 99,
        "velocity": 0
      },
      {
        "deltaTime": 56,
        "channel": 1,
        "type": "channel",
        "noteNumber": 58,
        "velocity": 13,
        "subtype": "noteOn"
      },
      {
        "deltaTime": 0,
        "channel": 1,
        "type": "channel",
        "noteNumber": 96,
        "velocity": 28,
        "subtype": "noteOn"
      },
      {
        "deltaTime": 74,
        "channel": 1,
        "type": "channel",
        "subtype": "noteOff",
        "noteNumber": 58,
        "velocity": 0
      },
      {
        "deltaTime": 53,
        "channel": 1,
        "type": "channel",
        "subtype": "noteOff",
        "noteNumber": 96,
        "velocity": 0
      },
      {
        "deltaTime": 65,
        "channel": 1,
        "type": "channel",
        "noteNumber": 79,
        "velocity": 23,
        "subtype": "noteOn"
      },
      {
        "deltaTime": 9,
        "channel": 1,
        "type": "channel",
        "subtype": "noteOff",
        "noteNumber": 79,
        "velocity": 0
      },
      {
        "deltaTime": 718,
        "channel": 1,
        "type": "channel",
        "noteNumber": 61,
        "velocity": 10,
        "subtype": "noteOn"
      },
      {
        "deltaTime": 67,
        "channel": 1,
        "type": "channel",
        "noteNumber": 99,
        "velocity": 12,
        "subtype": "noteOn"
      },
      {
        "deltaTime": 46,
        "channel": 1,
        "type": "channel",
        "subtype": "noteOff",
        "noteNumber": 61,
        "velocity": 0
      },
      {
        "deltaTime": 31,
        "channel": 1,
        "type": "channel",
        "subtype": "noteOff",
        "noteNumber": 99,
        "velocity": 0
      },
      {
        "deltaTime": 144,
        "channel": 1,
        "type": "channel",
        "noteNumber": 99,
        "velocity": 23,
        "subtype": "noteOn"
      },
      {
        "deltaTime": 17,
        "channel": 1,
        "type": "channel",
        "subtype": "noteOff",
        "noteNumber": 99,
        "velocity": 0
      },
      {
        "deltaTime": 52,
        "channel": 1,
        "type": "channel",
        "noteNumber": 96,
        "velocity": 28,
        "subtype": "noteOn"
      },
      {
        "deltaTime": 5,
        "channel": 1,
        "type": "channel",
        "noteNumber": 58,
        "velocity": 13,
        "subtype": "noteOn"
      },
      {
        "deltaTime": 72,
        "channel": 1,
        "type": "channel",
        "subtype": "noteOff",
        "noteNumber": 58,
        "velocity": 0
      },
      {
        "deltaTime": 53,
        "channel": 1,
        "type": "channel",
        "subtype": "noteOff",
        "noteNumber": 96,
        "velocity": 0
      },
      {
        "deltaTime": 862,
        "channel": 1,
        "type": "channel",
        "noteNumber": 99,
        "velocity": 12,
        "subtype": "noteOn"
      },
      {
        "deltaTime": 76,
        "channel": 1,
        "type": "channel",
        "subtype": "noteOff",
        "noteNumber": 99,
        "velocity": 0
      },
      {
        "deltaTime": 12,
        "channel": 1,
        "type": "channel",
        "noteNumber": 99,
        "velocity": 29,
        "subtype": "noteOn"
      },
      {
        "deltaTime": 108,
        "channel": 1,
        "type": "channel",
        "subtype": "noteOff",
        "noteNumber": 99,
        "velocity": 0
      },
      {
        "deltaTime": 82,
        "channel": 1,
        "type": "channel",
        "noteNumber": 96,
        "velocity": 18,
        "subtype": "noteOn"
      },
      {
        "deltaTime": 86,
        "channel": 1,
        "type": "channel",
        "subtype": "noteOff",
        "noteNumber": 96,
        "velocity": 0
      },
      {
        "deltaTime": 125,
        "channel": 1,
        "type": "channel",
        "noteNumber": 67,
        "velocity": 37,
        "subtype": "noteOn"
      },
      {
        "deltaTime": 75,
        "channel": 1,
        "type": "channel",
        "subtype": "noteOff",
        "noteNumber": 67,
        "velocity": 0
      },
      {
        "deltaTime": 319,
        "channel": 1,
        "type": "channel",
        "noteNumber": 77,
        "velocity": 39,
        "subtype": "noteOn"
      },
      {
        "deltaTime": 9,
        "channel": 1,
        "type": "channel",
        "subtype": "noteOff",
        "noteNumber": 77,
        "velocity": 0
      },
      {
        "deltaTime": 240,
        "channel": 1,
        "type": "channel",
        "noteNumber": 68,
        "velocity": 12,
        "subtype": "noteOn"
      },
      {
        "deltaTime": 10,
        "channel": 1,
        "type": "channel",
        "subtype": "noteOff",
        "noteNumber": 68,
        "velocity": 0
      },
      {
        "deltaTime": 348,
        "channel": 1,
        "type": "channel",
        "noteNumber": 97,
        "velocity": 30,
        "subtype": "noteOn"
      },
      {
        "deltaTime": 12,
        "channel": 1,
        "type": "channel",
        "subtype": "noteOff",
        "noteNumber": 97,
        "velocity": 0
      },
      {
        "deltaTime": 72,
        "channel": 1,
        "type": "channel",
        "noteNumber": 58,
        "velocity": 14,
        "subtype": "noteOn"
      },
      {
        "deltaTime": 67,
        "channel": 1,
        "type": "channel",
        "subtype": "noteOff",
        "noteNumber": 58,
        "velocity": 0
      },
      {
        "deltaTime": 0,
        "type": "meta",
        "subtype": "endOfTrack"
      }
    ],
    [
      {
        "deltaTime": 7720,
        "channel": 2,
        "type": "channel",
        "subtype": "programChange",
        "programNumber": 0
      },
      {
        "deltaTime": 0,
        "channel": 2,
        "type": "channel",
        "noteNumber": 81,
        "velocity": 11,
        "subtype": "noteOn"
      },
      {
        "deltaTime": 159,
        "channel": 2,
        "type": "channel",
        "subtype": "noteOff",
        "noteNumber": 81,
        "velocity": 0
      },
      {
        "deltaTime": 3688,
        "channel": 2,
        "type": "channel",
        "noteNumber": 67,
        "velocity": 14,
        "subtype": "noteOn"
      },
      {
        "deltaTime": 44,
        "channel": 2,
        "type": "channel",
        "subtype": "noteOff",
        "noteNumber": 67,
        "velocity": 0
      },
      {
        "deltaTime": 21,
        "channel": 2,
        "type": "channel",
        "noteNumber": 59,
        "velocity": 39,
        "subtype": "noteOn"
      },
      {
        "deltaTime": 19,
        "channel": 2,
        "type": "channel",
        "noteNumber": 50,
        "velocity": 38,
        "subtype": "noteOn"
      },
      {
        "deltaTime": 10,
        "channel": 2,
        "type": "channel",
        "subtype": "noteOff",
        "noteNumber": 50,
        "velocity": 0
      },
      {
        "deltaTime": 43,
        "channel": 2,
        "type": "channel",
        "noteNumber": 32,
        "velocity": 16,
        "subtype": "noteOn"
      },
      {
        "deltaTime": 12,
        "channel": 2,
        "type": "channel",
        "subtype": "noteOff",
        "noteNumber": 32,
        "velocity": 0
      },
      {
        "deltaTime": 7,
        "channel": 2,
        "type": "channel",
        "noteNumber": 31,
        "velocity": 16,
        "subtype": "noteOn"
      },
      {
        "deltaTime": 10,
        "channel": 2,
        "type": "channel",
        "noteNumber": 62,
        "velocity": 22,
        "subtype": "noteOn"
      },
      {
        "deltaTime": 24,
        "channel": 2,
        "type": "channel",
        "subtype": "noteOff",
        "noteNumber": 31,
        "velocity": 0
      },
      {
        "deltaTime": 2,
        "channel": 2,
        "type": "channel",
        "noteNumber": 38,
        "velocity": 13,
        "subtype": "noteOn"
      },
      {
        "deltaTime": 44,
        "channel": 2,
        "type": "channel",
        "subtype": "noteOff",
        "noteNumber": 38,
        "velocity": 0
      },
      {
        "deltaTime": 12,
        "channel": 2,
        "type": "channel",
        "subtype": "noteOff",
        "noteNumber": 62,
        "velocity": 0
      },
      {
        "deltaTime": 2,
        "channel": 2,
        "type": "channel",
        "subtype": "noteOff",
        "noteNumber": 59,
        "velocity": 0
      },
      {
        "deltaTime": 62,
        "channel": 2,
        "type": "channel",
        "noteNumber": 57,
        "velocity": 18,
        "subtype": "noteOn"
      },
      {
        "deltaTime": 17,
        "channel": 2,
        "type": "channel",
        "subtype": "noteOff",
        "noteNumber": 57,
        "velocity": 0
      },
      {
        "deltaTime": 27,
        "channel": 2,
        "type": "channel",
        "noteNumber": 52,
        "velocity": 25,
        "subtype": "noteOn"
      },
      {
        "deltaTime": 57,
        "channel": 2,
        "type": "channel",
        "subtype": "noteOff",
        "noteNumber": 52,
        "velocity": 0
      },
      {
        "deltaTime": 31,
        "channel": 2,
        "type": "channel",
        "noteNumber": 69,
        "velocity": 33,
        "subtype": "noteOn"
      },
      {
        "deltaTime": 12,
        "channel": 2,
        "type": "channel",
        "subtype": "noteOff",
        "noteNumber": 69,
        "velocity": 0
      },
      {
        "deltaTime": 168,
        "channel": 2,
        "type": "channel",
        "noteNumber": 71,
        "velocity": 21,
        "subtype": "noteOn"
      },
      {
        "deltaTime": 108,
        "channel": 2,
        "type": "channel",
        "subtype": "noteOff",
        "noteNumber": 71,
        "velocity": 0
      },
      {
        "deltaTime": 293,
        "channel": 2,
        "type": "channel",
        "noteNumber": 62,
        "velocity": 15,
        "subtype": "noteOn"
      },
      {
        "deltaTime": 27,
        "channel": 2,
        "type": "channel",
        "subtype": "noteOff",
        "noteNumber": 62,
        "velocity": 0
      },
      {
        "deltaTime": 240,
        "channel": 2,
        "type": "channel",
        "noteNumber": 36,
        "velocity": 10,
        "subtype": "noteOn"
      },
      {
        "deltaTime": 21,
        "channel": 2,
        "type": "channel",
        "subtype": "noteOff",
        "noteNumber": 36,
        "velocity": 0
      },
      {
        "deltaTime": 259,
        "channel": 2,
        "type": "channel",
        "noteNumber": 36,
        "velocity": 27,
        "subtype": "noteOn"
      },
      {
        "deltaTime": 39,
        "channel": 2,
        "type": "channel",
        "subtype": "noteOff",
        "noteNumber": 36,
        "velocity": 0
      },
      {
        "deltaTime": 60,
        "channel": 2,
        "type": "channel",
        "noteNumber": 61,
        "velocity": 20,
        "subtype": "noteOn"
      },
      {
        "deltaTime": 21,
        "channel": 2,
        "type": "channel",
        "subtype": "noteOff",
        "noteNumber": 61,
        "velocity": 0
      },
      {
        "deltaTime": 39,
        "channel": 2,
        "type": "channel",
        "noteNumber": 36,
        "velocity": 28,
        "subtype": "noteOn"
      },
      {
        "deltaTime": 31,
        "channel": 2,
        "type": "channel",
        "subtype": "noteOff",
        "noteNumber": 36,
        "velocity": 0
      },
      {
        "deltaTime": 475,
        "channel": 2,
        "type": "channel",
        "noteNumber": 59,
        "velocity": 27,
        "subtype": "noteOn"
      },
      {
        "deltaTime": 96,
        "channel": 2,
        "type": "channel",
        "subtype": "noteOff",
        "noteNumber": 59,
        "velocity": 0
      },
      {
        "deltaTime": 63,
        "channel": 2,
        "type": "channel",
        "noteNumber": 54,
        "velocity": 19,
        "subtype": "noteOn"
      },
      {
        "deltaTime": 31,
        "channel": 2,
        "type": "channel",
        "subtype": "noteOff",
        "noteNumber": 54,
        "velocity": 0
      },
      {
        "deltaTime": 187,
        "channel": 2,
        "type": "channel",
        "noteNumber": 38,
        "velocity": 21,
        "subtype": "noteOn"
      },
      {
        "deltaTime": 34,
        "channel": 2,
        "type": "channel",
        "subtype": "noteOff",
        "noteNumber": 38,
        "velocity": 0
      },
      {
        "deltaTime": 57,
        "channel": 2,
        "type": "channel",
        "noteNumber": 82,
        "velocity": 12,
        "subtype": "noteOn"
      },
      {
        "deltaTime": 12,
        "channel": 2,
        "type": "channel",
        "subtype": "noteOff",
        "noteNumber": 82,
        "velocity": 0
      },
      {
        "deltaTime": 231,
        "channel": 2,
        "type": "channel",
        "noteNumber": 61,
        "velocity": 20,
        "subtype": "noteOn"
      },
      {
        "deltaTime": 24,
        "channel": 2,
        "type": "channel",
        "subtype": "noteOff",
        "noteNumber": 61,
        "velocity": 0
      },
      {
        "deltaTime": 38,
        "channel": 2,
        "type": "channel",
        "noteNumber": 36,
        "velocity": 27,
        "subtype": "noteOn"
      },
      {
        "deltaTime": 26,
        "channel": 2,
        "type": "channel",
        "noteNumber": 52,
        "velocity": 19,
        "subtype": "noteOn"
      },
      {
        "deltaTime": 3,
        "channel": 2,
        "type": "channel",
        "subtype": "noteOff",
        "noteNumber": 36,
        "velocity": 0
      },
      {
        "deltaTime": 60,
        "channel": 2,
        "type": "channel",
        "subtype": "noteOff",
        "noteNumber": 52,
        "velocity": 0
      },
      {
        "deltaTime": 444,
        "channel": 2,
        "type": "channel",
        "noteNumber": 35,
        "velocity": 21,
        "subtype": "noteOn"
      },
      {
        "deltaTime": 79,
        "channel": 2,
        "type": "channel",
        "subtype": "noteOff",
        "noteNumber": 35,
        "velocity": 0
      },
      {
        "deltaTime": 326,
        "channel": 2,
        "type": "channel",
        "noteNumber": 59,
        "velocity": 15,
        "subtype": "noteOn"
      },
      {
        "deltaTime": 29,
        "channel": 2,
        "type": "channel",
        "subtype": "noteOff",
        "noteNumber": 59,
        "velocity": 0
      },
      {
        "deltaTime": 233,
        "channel": 2,
        "type": "channel",
        "noteNumber": 62,
        "velocity": 13,
        "subtype": "noteOn"
      },
      {
        "deltaTime": 12,
        "channel": 2,
        "type": "channel",
        "subtype": "noteOff",
        "noteNumber": 62,
        "velocity": 0
      },
      {
        "deltaTime": 2,
        "channel": 2,
        "type": "channel",
        "noteNumber": 33,
        "velocity": 25,
        "subtype": "noteOn"
      },
      {
        "deltaTime": 8,
        "channel": 2,
        "type": "channel",
        "noteNumber": 61,
        "velocity": 22,
        "subtype": "noteOn"
      },
      {
        "deltaTime": 19,
        "channel": 2,
        "type": "channel",
        "subtype": "noteOff",
        "noteNumber": 61,
        "velocity": 0
      },
      {
        "deltaTime": 7,
        "channel": 2,
        "type": "channel",
        "noteNumber": 61,
        "velocity": 30,
        "subtype": "noteOn"
      },
      {
        "deltaTime": 7,
        "channel": 2,
        "type": "channel",
        "subtype": "noteOff",
        "noteNumber": 33,
        "velocity": 0
      },
      {
        "deltaTime": 31,
        "channel": 2,
        "type": "channel",
        "subtype": "noteOff",
        "noteNumber": 61,
        "velocity": 0
      },
      {
        "deltaTime": 0,
        "channel": 2,
        "type": "channel",
        "noteNumber": 33,
        "velocity": 18,
        "subtype": "noteOn"
      },
      {
        "deltaTime": 82,
        "channel": 2,
        "type": "channel",
        "subtype": "noteOff",
        "noteNumber": 33,
        "velocity": 0
      },
      {
        "deltaTime": 773,
        "channel": 2,
        "type": "channel",
        "noteNumber": 32,
        "velocity": 10,
        "subtype": "noteOn"
      },
      {
        "deltaTime": 31,
        "channel": 2,
        "type": "channel",
        "subtype": "noteOff",
        "noteNumber": 32,
        "velocity": 0
      },
      {
        "deltaTime": 12,
        "channel": 2,
        "type": "channel",
        "noteNumber": 31,
        "velocity": 15,
        "subtype": "noteOn"
      },
      {
        "deltaTime": 34,
        "channel": 2,
        "type": "channel",
        "subtype": "noteOff",
        "noteNumber": 31,
        "velocity": 0
      },
      {
        "deltaTime": 261,
        "channel": 2,
        "type": "channel",
        "noteNumber": 36,
        "velocity": 16,
        "subtype": "noteOn"
      },
      {
        "deltaTime": 24,
        "channel": 2,
        "type": "channel",
        "subtype": "noteOff",
        "noteNumber": 36,
        "velocity": 0
      },
      {
        "deltaTime": 27,
        "channel": 2,
        "type": "channel",
        "noteNumber": 33,
        "velocity": 25,
        "subtype": "noteOn"
      },
      {
        "deltaTime": 93,
        "channel": 2,
        "type": "channel",
        "subtype": "noteOff",
        "noteNumber": 33,
        "velocity": 0
      },
      {
        "deltaTime": 497,
        "channel": 2,
        "type": "channel",
        "noteNumber": 47,
        "velocity": 17,
        "subtype": "noteOn"
      },
      {
        "deltaTime": 84,
        "channel": 2,
        "type": "channel",
        "subtype": "noteOff",
        "noteNumber": 47,
        "velocity": 0
      },
      {
        "deltaTime": 199,
        "channel": 2,
        "type": "channel",
        "noteNumber": 38,
        "velocity": 23,
        "subtype": "noteOn"
      },
      {
        "deltaTime": 27,
        "channel": 2,
        "type": "channel",
        "subtype": "noteOff",
        "noteNumber": 38,
        "velocity": 0
      },
      {
        "deltaTime": 235,
        "channel": 2,
        "type": "channel",
        "noteNumber": 62,
        "velocity": 13,
        "subtype": "noteOn"
      },
      {
        "deltaTime": 24,
        "channel": 2,
        "type": "channel",
        "subtype": "noteOff",
        "noteNumber": 62,
        "velocity": 0
      },
      {
        "deltaTime": 74,
        "channel": 2,
        "type": "channel",
        "noteNumber": 36,
        "velocity": 13,
        "subtype": "noteOn"
      },
      {
        "deltaTime": 12,
        "channel": 2,
        "type": "channel",
        "noteNumber": 61,
        "velocity": 28,
        "subtype": "noteOn"
      },
      {
        "deltaTime": 5,
        "channel": 2,
        "type": "channel",
        "subtype": "noteOff",
        "noteNumber": 36,
        "velocity": 0
      },
      {
        "deltaTime": 65,
        "channel": 2,
        "type": "channel",
        "subtype": "noteOff",
        "noteNumber": 61,
        "velocity": 0
      },
      {
        "deltaTime": 283,
        "channel": 2,
        "type": "channel",
        "noteNumber": 62,
        "velocity": 21,
        "subtype": "noteOn"
      },
      {
        "deltaTime": 36,
        "channel": 2,
        "type": "channel",
        "subtype": "noteOff",
        "noteNumber": 62,
        "velocity": 0
      },
      {
        "deltaTime": 254,
        "channel": 2,
        "type": "channel",
        "noteNumber": 47,
        "velocity": 11,
        "subtype": "noteOn"
      },
      {
        "deltaTime": 65,
        "channel": 2,
        "type": "channel",
        "subtype": "noteOff",
        "noteNumber": 47,
        "velocity": 0
      },
      {
        "deltaTime": 250,
        "channel": 2,
        "type": "channel",
        "noteNumber": 62,
        "velocity": 13,
        "subtype": "noteOn"
      },
      {
        "deltaTime": 24,
        "channel": 2,
        "type": "channel",
        "subtype": "noteOff",
        "noteNumber": 62,
        "velocity": 0
      },
      {
        "deltaTime": 189,
        "channel": 2,
        "type": "channel",
        "noteNumber": 59,
        "velocity": 15,
        "subtype": "noteOn"
      },
      {
        "deltaTime": 15,
        "channel": 2,
        "type": "channel",
        "noteNumber": 38,
        "velocity": 18,
        "subtype": "noteOn"
      },
      {
        "deltaTime": 5,
        "channel": 2,
        "type": "channel",
        "subtype": "noteOff",
        "noteNumber": 59,
        "velocity": 0
      },
      {
        "deltaTime": 31,
        "channel": 2,
        "type": "channel",
        "subtype": "noteOff",
        "noteNumber": 38,
        "velocity": 0
      },
      {
        "deltaTime": 605,
        "channel": 2,
        "type": "channel",
        "noteNumber": 36,
        "velocity": 25,
        "subtype": "noteOn"
      },
      {
        "deltaTime": 14,
        "channel": 2,
        "type": "channel",
        "noteNumber": 59,
        "velocity": 36,
        "subtype": "noteOn"
      },
      {
        "deltaTime": 10,
        "channel": 2,
        "type": "channel",
        "subtype": "noteOff",
        "noteNumber": 36,
        "velocity": 0
      },
      {
        "deltaTime": 69,
        "channel": 2,
        "type": "channel",
        "noteNumber": 62,
        "velocity": 25,
        "subtype": "noteOn"
      },
      {
        "deltaTime": 24,
        "channel": 2,
        "type": "channel",
        "subtype": "noteOff",
        "noteNumber": 59,
        "velocity": 0
      },
      {
        "deltaTime": 0,
        "channel": 2,
        "type": "channel",
        "subtype": "noteOff",
        "noteNumber": 62,
        "velocity": 0
      },
      {
        "deltaTime": 53,
        "channel": 2,
        "type": "channel",
        "noteNumber": 42,
        "velocity": 27,
        "subtype": "noteOn"
      },
      {
        "deltaTime": 19,
        "channel": 2,
        "type": "channel",
        "subtype": "noteOff",
        "noteNumber": 42,
        "velocity": 0
      },
      {
        "deltaTime": 43,
        "channel": 2,
        "type": "channel",
        "noteNumber": 78,
        "velocity": 19,
        "subtype": "noteOn"
      },
      {
        "deltaTime": 70,
        "channel": 2,
        "type": "channel",
        "subtype": "noteOff",
        "noteNumber": 78,
        "velocity": 0
      },
      {
        "deltaTime": 26,
        "channel": 2,
        "type": "channel",
        "noteNumber": 74,
        "velocity": 10,
        "subtype": "noteOn"
      },
      {
        "deltaTime": 154,
        "channel": 2,
        "type": "channel",
        "subtype": "noteOff",
        "noteNumber": 74,
        "velocity": 0
      },
      {
        "deltaTime": 149,
        "channel": 2,
        "type": "channel",
        "noteNumber": 59,
        "velocity": 10,
        "subtype": "noteOn"
      },
      {
        "deltaTime": 9,
        "channel": 2,
        "type": "channel",
        "noteNumber": 43,
        "velocity": 17,
        "subtype": "noteOn"
      },
      {
        "deltaTime": 3,
        "channel": 2,
        "type": "channel",
        "noteNumber": 38,
        "velocity": 22,
        "subtype": "noteOn"
      },
      {
        "deltaTime": 2,
        "channel": 2,
        "type": "channel",
        "subtype": "noteOff",
        "noteNumber": 59,
        "velocity": 0
      },
      {
        "deltaTime": 5,
        "channel": 2,
        "type": "channel",
        "subtype": "noteOff",
        "noteNumber": 43,
        "velocity": 0
      },
      {
        "deltaTime": 26,
        "channel": 2,
        "type": "channel",
        "subtype": "noteOff",
        "noteNumber": 38,
        "velocity": 0
      },
      {
        "deltaTime": 0,
        "channel": 2,
        "type": "channel",
        "noteNumber": 69,
        "velocity": 12,
        "subtype": "noteOn"
      },
      {
        "deltaTime": 84,
        "channel": 2,
        "type": "channel",
        "subtype": "noteOff",
        "noteNumber": 69,
        "velocity": 0
      },
      {
        "deltaTime": 24,
        "channel": 2,
        "type": "channel",
        "noteNumber": 64,
        "velocity": 32,
        "subtype": "noteOn"
      },
      {
        "deltaTime": 22,
        "channel": 2,
        "type": "channel",
        "subtype": "noteOff",
        "noteNumber": 64,
        "velocity": 0
      },
      {
        "deltaTime": 12,
        "channel": 2,
        "type": "channel",
        "noteNumber": 80,
        "velocity": 16,
        "subtype": "noteOn"
      },
      {
        "deltaTime": 10,
        "channel": 2,
        "type": "channel",
        "subtype": "noteOff",
        "noteNumber": 80,
        "velocity": 0
      },
      {
        "deltaTime": 782,
        "channel": 2,
        "type": "channel",
        "noteNumber": 74,
        "velocity": 19,
        "subtype": "noteOn"
      },
      {
        "deltaTime": 91,
        "channel": 2,
        "type": "channel",
        "subtype": "noteOff",
        "noteNumber": 74,
        "velocity": 0
      },
      {
        "deltaTime": 231,
        "channel": 2,
        "type": "channel",
        "noteNumber": 69,
        "velocity": 14,
        "subtype": "noteOn"
      },
      {
        "deltaTime": 31,
        "channel": 2,
        "type": "channel",
        "subtype": "noteOff",
        "noteNumber": 69,
        "velocity": 0
      },
      {
        "deltaTime": 41,
        "channel": 2,
        "type": "channel",
        "noteNumber": 33,
        "velocity": 24,
        "subtype": "noteOn"
      },
      {
        "deltaTime": 132,
        "channel": 2,
        "type": "channel",
        "subtype": "noteOff",
        "noteNumber": 33,
        "velocity": 0
      },
      {
        "deltaTime": 192,
        "channel": 2,
        "type": "channel",
        "noteNumber": 83,
        "velocity": 11,
        "subtype": "noteOn"
      },
      {
        "deltaTime": 9,
        "channel": 2,
        "type": "channel",
        "subtype": "noteOff",
        "noteNumber": 83,
        "velocity": 0
      },
      {
        "deltaTime": 36,
        "channel": 2,
        "type": "channel",
        "noteNumber": 106,
        "velocity": 21,
        "subtype": "noteOn"
      },
      {
        "deltaTime": 31,
        "channel": 2,
        "type": "channel",
        "subtype": "noteOff",
        "noteNumber": 106,
        "velocity": 0
      },
      {
        "deltaTime": 15,
        "channel": 2,
        "type": "channel",
        "noteNumber": 54,
        "velocity": 21,
        "subtype": "noteOn"
      },
      {
        "deltaTime": 9,
        "channel": 2,
        "type": "channel",
        "noteNumber": 35,
        "velocity": 35,
        "subtype": "noteOn"
      },
      {
        "deltaTime": 15,
        "channel": 2,
        "type": "channel",
        "subtype": "noteOff",
        "noteNumber": 54,
        "velocity": 0
      },
      {
        "deltaTime": 43,
        "channel": 2,
        "type": "channel",
        "noteNumber": 88,
        "velocity": 22,
        "subtype": "noteOn"
      },
      {
        "deltaTime": 36,
        "channel": 2,
        "type": "channel",
        "subtype": "noteOff",
        "noteNumber": 88,
        "velocity": 0
      },
      {
        "deltaTime": 5,
        "channel": 2,
        "type": "channel",
        "noteNumber": 86,
        "velocity": 34,
        "subtype": "noteOn"
      },
      {
        "deltaTime": 29,
        "channel": 2,
        "type": "channel",
        "subtype": "noteOff",
        "noteNumber": 86,
        "velocity": 0
      },
      {
        "deltaTime": 12,
        "channel": 2,
        "type": "channel",
        "noteNumber": 47,
        "velocity": 35,
        "subtype": "noteOn"
      },
      {
        "deltaTime": 36,
        "channel": 2,
        "type": "channel",
        "subtype": "noteOff",
        "noteNumber": 47,
        "velocity": 0
      },
      {
        "deltaTime": 12,
        "channel": 2,
        "type": "channel",
        "subtype": "noteOff",
        "noteNumber": 35,
        "velocity": 0
      },
      {
        "deltaTime": 28,
        "channel": 2,
        "type": "channel",
        "noteNumber": 47,
        "velocity": 21,
        "subtype": "noteOn"
      },
      {
        "deltaTime": 77,
        "channel": 2,
        "type": "channel",
        "subtype": "noteOff",
        "noteNumber": 47,
        "velocity": 0
      },
      {
        "deltaTime": 19,
        "channel": 2,
        "type": "channel",
        "noteNumber": 83,
        "velocity": 12,
        "subtype": "noteOn"
      },
      {
        "deltaTime": 22,
        "channel": 2,
        "type": "channel",
        "subtype": "noteOff",
        "noteNumber": 83,
        "velocity": 0
      },
      {
        "deltaTime": 166,
        "channel": 2,
        "type": "channel",
        "noteNumber": 38,
        "velocity": 15,
        "subtype": "noteOn"
      },
      {
        "deltaTime": 33,
        "channel": 2,
        "type": "channel",
        "subtype": "noteOff",
        "noteNumber": 38,
        "velocity": 0
      },
      {
        "deltaTime": 15,
        "channel": 2,
        "type": "channel",
        "noteNumber": 59,
        "velocity": 13,
        "subtype": "noteOn"
      },
      {
        "deltaTime": 26,
        "channel": 2,
        "type": "channel",
        "subtype": "noteOff",
        "noteNumber": 59,
        "velocity": 0
      },
      {
        "deltaTime": 2,
        "channel": 2,
        "type": "channel",
        "noteNumber": 71,
        "velocity": 10,
        "subtype": "noteOn"
      },
      {
        "deltaTime": 17,
        "channel": 2,
        "type": "channel",
        "subtype": "noteOff",
        "noteNumber": 71,
        "velocity": 0
      },
      {
        "deltaTime": 53,
        "channel": 2,
        "type": "channel",
        "noteNumber": 62,
        "velocity": 11,
        "subtype": "noteOn"
      },
      {
        "deltaTime": 84,
        "channel": 2,
        "type": "channel",
        "subtype": "noteOff",
        "noteNumber": 62,
        "velocity": 0
      },
      {
        "deltaTime": 58,
        "channel": 2,
        "type": "channel",
        "noteNumber": 57,
        "velocity": 16,
        "subtype": "noteOn"
      },
      {
        "deltaTime": 24,
        "channel": 2,
        "type": "channel",
        "subtype": "noteOff",
        "noteNumber": 57,
        "velocity": 0
      },
      {
        "deltaTime": 86,
        "channel": 2,
        "type": "channel",
        "noteNumber": 88,
        "velocity": 26,
        "subtype": "noteOn"
      },
      {
        "deltaTime": 34,
        "channel": 2,
        "type": "channel",
        "subtype": "noteOff",
        "noteNumber": 88,
        "velocity": 0
      },
      {
        "deltaTime": 496,
        "channel": 2,
        "type": "channel",
        "noteNumber": 59,
        "velocity": 34,
        "subtype": "noteOn"
      },
      {
        "deltaTime": 29,
        "channel": 2,
        "type": "channel",
        "noteNumber": 78,
        "velocity": 18,
        "subtype": "noteOn"
      },
      {
        "deltaTime": 24,
        "channel": 2,
        "type": "channel",
        "subtype": "noteOff",
        "noteNumber": 78,
        "velocity": 0
      },
      {
        "deltaTime": 5,
        "channel": 2,
        "type": "channel",
        "noteNumber": 78,
        "velocity": 19,
        "subtype": "noteOn"
      },
      {
        "deltaTime": 26,
        "channel": 2,
        "type": "channel",
        "subtype": "noteOff",
        "noteNumber": 78,
        "velocity": 0
      },
      {
        "deltaTime": 8,
        "channel": 2,
        "type": "channel",
        "noteNumber": 66,
        "velocity": 31,
        "subtype": "noteOn"
      },
      {
        "deltaTime": 55,
        "channel": 2,
        "type": "channel",
        "subtype": "noteOff",
        "noteNumber": 59,
        "velocity": 0
      },
      {
        "deltaTime": 0,
        "channel": 2,
        "type": "channel",
        "subtype": "noteOff",
        "noteNumber": 66,
        "velocity": 0
      },
      {
        "deltaTime": 201,
        "channel": 2,
        "type": "channel",
        "noteNumber": 86,
        "velocity": 14,
        "subtype": "noteOn"
      },
      {
        "deltaTime": 15,
        "channel": 2,
        "type": "channel",
        "subtype": "noteOff",
        "noteNumber": 86,
        "velocity": 0
      },
      {
        "deltaTime": 29,
        "channel": 2,
        "type": "channel",
        "noteNumber": 83,
        "velocity": 18,
        "subtype": "noteOn"
      },
      {
        "deltaTime": 16,
        "channel": 2,
        "type": "channel",
        "subtype": "noteOff",
        "noteNumber": 83,
        "velocity": 0
      },
      {
        "deltaTime": 32,
        "channel": 2,
        "type": "channel",
        "noteNumber": 106,
        "velocity": 10,
        "subtype": "noteOn"
      },
      {
        "deltaTime": 21,
        "channel": 2,
        "type": "channel",
        "subtype": "noteOff",
        "noteNumber": 106,
        "velocity": 0
      },
      {
        "deltaTime": 27,
        "channel": 2,
        "type": "channel",
        "noteNumber": 31,
        "velocity": 14,
        "subtype": "noteOn"
      },
      {
        "deltaTime": 148,
        "channel": 2,
        "type": "channel",
        "subtype": "noteOff",
        "noteNumber": 31,
        "velocity": 0
      },
      {
        "deltaTime": 80,
        "channel": 2,
        "type": "channel",
        "noteNumber": 61,
        "velocity": 23,
        "subtype": "noteOn"
      },
      {
        "deltaTime": 31,
        "channel": 2,
        "type": "channel",
        "subtype": "noteOff",
        "noteNumber": 61,
        "velocity": 0
      },
      {
        "deltaTime": 38,
        "channel": 2,
        "type": "channel",
        "noteNumber": 42,
        "velocity": 24,
        "subtype": "noteOn"
      },
      {
        "deltaTime": 34,
        "channel": 2,
        "type": "channel",
        "subtype": "noteOff",
        "noteNumber": 42,
        "velocity": 0
      },
      {
        "deltaTime": 175,
        "channel": 2,
        "type": "channel",
        "noteNumber": 73,
        "velocity": 17,
        "subtype": "noteOn"
      },
      {
        "deltaTime": 34,
        "channel": 2,
        "type": "channel",
        "subtype": "noteOff",
        "noteNumber": 73,
        "velocity": 0
      },
      {
        "deltaTime": 16,
        "channel": 2,
        "type": "channel",
        "noteNumber": 78,
        "velocity": 14,
        "subtype": "noteOn"
      },
      {
        "deltaTime": 32,
        "channel": 2,
        "type": "channel",
        "subtype": "noteOff",
        "noteNumber": 78,
        "velocity": 0
      },
      {
        "deltaTime": 4,
        "channel": 2,
        "type": "channel",
        "noteNumber": 62,
        "velocity": 23,
        "subtype": "noteOn"
      },
      {
        "deltaTime": 27,
        "channel": 2,
        "type": "channel",
        "noteNumber": 42,
        "velocity": 18,
        "subtype": "noteOn"
      },
      {
        "deltaTime": 5,
        "channel": 2,
        "type": "channel",
        "subtype": "noteOff",
        "noteNumber": 62,
        "velocity": 0
      },
      {
        "deltaTime": 28,
        "channel": 2,
        "type": "channel",
        "subtype": "noteOff",
        "noteNumber": 42,
        "velocity": 0
      },
      {
        "deltaTime": 56,
        "channel": 2,
        "type": "channel",
        "noteNumber": 66,
        "velocity": 19,
        "subtype": "noteOn"
      },
      {
        "deltaTime": 36,
        "channel": 2,
        "type": "channel",
        "noteNumber": 86,
        "velocity": 34,
        "subtype": "noteOn"
      },
      {
        "deltaTime": 4,
        "channel": 2,
        "type": "channel",
        "subtype": "noteOff",
        "noteNumber": 66,
        "velocity": 0
      },
      {
        "deltaTime": 22,
        "channel": 2,
        "type": "channel",
        "subtype": "noteOff",
        "noteNumber": 86,
        "velocity": 0
      },
      {
        "deltaTime": 2,
        "channel": 2,
        "type": "channel",
        "noteNumber": 86,
        "velocity": 36,
        "subtype": "noteOn"
      },
      {
        "deltaTime": 44,
        "channel": 2,
        "type": "channel",
        "subtype": "noteOff",
        "noteNumber": 86,
        "velocity": 0
      },
      {
        "deltaTime": 4,
        "channel": 2,
        "type": "channel",
        "noteNumber": 71,
        "velocity": 18,
        "subtype": "noteOn"
      },
      {
        "deltaTime": 15,
        "channel": 2,
        "type": "channel",
        "subtype": "noteOff",
        "noteNumber": 71,
        "velocity": 0
      },
      {
        "deltaTime": 2,
        "channel": 2,
        "type": "channel",
        "noteNumber": 59,
        "velocity": 22,
        "subtype": "noteOn"
      },
      {
        "deltaTime": 58,
        "channel": 2,
        "type": "channel",
        "subtype": "noteOff",
        "noteNumber": 59,
        "velocity": 0
      },
      {
        "deltaTime": 31,
        "channel": 2,
        "type": "channel",
        "noteNumber": 46,
        "velocity": 31,
        "subtype": "noteOn"
      },
      {
        "deltaTime": 12,
        "channel": 2,
        "type": "channel",
        "subtype": "noteOff",
        "noteNumber": 46,
        "velocity": 0
      },
      {
        "deltaTime": 5,
        "channel": 2,
        "type": "channel",
        "noteNumber": 33,
        "velocity": 23,
        "subtype": "noteOn"
      },
      {
        "deltaTime": 7,
        "channel": 2,
        "type": "channel",
        "noteNumber": 36,
        "velocity": 14,
        "subtype": "noteOn"
      },
      {
        "deltaTime": 14,
        "channel": 2,
        "type": "channel",
        "subtype": "noteOff",
        "noteNumber": 36,
        "velocity": 0
      },
      {
        "deltaTime": 96,
        "channel": 2,
        "type": "channel",
        "noteNumber": 86,
        "velocity": 21,
        "subtype": "noteOn"
      },
      {
        "deltaTime": 36,
        "channel": 2,
        "type": "channel",
        "subtype": "noteOff",
        "noteNumber": 86,
        "velocity": 0
      },
      {
        "deltaTime": 15,
        "channel": 2,
        "type": "channel",
        "subtype": "noteOff",
        "noteNumber": 33,
        "velocity": 0
      },
      {
        "deltaTime": 79,
        "channel": 2,
        "type": "channel",
        "noteNumber": 106,
        "velocity": 12,
        "subtype": "noteOn"
      },
      {
        "deltaTime": 24,
        "channel": 2,
        "type": "channel",
        "subtype": "noteOff",
        "noteNumber": 106,
        "velocity": 0
      },
      {
        "deltaTime": 26,
        "channel": 2,
        "type": "channel",
        "noteNumber": 106,
        "velocity": 16,
        "subtype": "noteOn"
      },
      {
        "deltaTime": 20,
        "channel": 2,
        "type": "channel",
        "subtype": "noteOff",
        "noteNumber": 106,
        "velocity": 0
      },
      {
        "deltaTime": 81,
        "channel": 2,
        "type": "channel",
        "noteNumber": 74,
        "velocity": 22,
        "subtype": "noteOn"
      },
      {
        "deltaTime": 24,
        "channel": 2,
        "type": "channel",
        "subtype": "noteOff",
        "noteNumber": 74,
        "velocity": 0
      },
      {
        "deltaTime": 60,
        "channel": 2,
        "type": "channel",
        "noteNumber": 74,
        "velocity": 20,
        "subtype": "noteOn"
      },
      {
        "deltaTime": 10,
        "channel": 2,
        "type": "channel",
        "noteNumber": 102,
        "velocity": 30,
        "subtype": "noteOn"
      },
      {
        "deltaTime": 14,
        "channel": 2,
        "type": "channel",
        "subtype": "noteOff",
        "noteNumber": 74,
        "velocity": 0
      },
      {
        "deltaTime": 48,
        "channel": 2,
        "type": "channel",
        "noteNumber": 36,
        "velocity": 17,
        "subtype": "noteOn"
      },
      {
        "deltaTime": 19,
        "channel": 2,
        "type": "channel",
        "subtype": "noteOff",
        "noteNumber": 36,
        "velocity": 0
      },
      {
        "deltaTime": 63,
        "channel": 2,
        "type": "channel",
        "subtype": "noteOff",
        "noteNumber": 102,
        "velocity": 0
      },
      {
        "deltaTime": 17,
        "channel": 2,
        "type": "channel",
        "noteNumber": 32,
        "velocity": 11,
        "subtype": "noteOn"
      },
      {
        "deltaTime": 9,
        "channel": 2,
        "type": "channel",
        "subtype": "noteOff",
        "noteNumber": 32,
        "velocity": 0
      },
      {
        "deltaTime": 327,
        "channel": 2,
        "type": "channel",
        "noteNumber": 99,
        "velocity": 20,
        "subtype": "noteOn"
      },
      {
        "deltaTime": 168,
        "channel": 2,
        "type": "channel",
        "subtype": "noteOff",
        "noteNumber": 99,
        "velocity": 0
      },
      {
        "deltaTime": 24,
        "channel": 2,
        "type": "channel",
        "noteNumber": 54,
        "velocity": 21,
        "subtype": "noteOn"
      },
      {
        "deltaTime": 52,
        "channel": 2,
        "type": "channel",
        "subtype": "noteOff",
        "noteNumber": 54,
        "velocity": 0
      },
      {
        "deltaTime": 53,
        "channel": 2,
        "type": "channel",
        "noteNumber": 62,
        "velocity": 17,
        "subtype": "noteOn"
      },
      {
        "deltaTime": 24,
        "channel": 2,
        "type": "channel",
        "subtype": "noteOff",
        "noteNumber": 62,
        "velocity": 0
      },
      {
        "deltaTime": 166,
        "channel": 2,
        "type": "channel",
        "noteNumber": 74,
        "velocity": 15,
        "subtype": "noteOn"
      },
      {
        "deltaTime": 115,
        "channel": 2,
        "type": "channel",
        "subtype": "noteOff",
        "noteNumber": 74,
        "velocity": 0
      },
      {
        "deltaTime": 60,
        "channel": 2,
        "type": "channel",
        "noteNumber": 67,
        "velocity": 12,
        "subtype": "noteOn"
      },
      {
        "deltaTime": 108,
        "channel": 2,
        "type": "channel",
        "subtype": "noteOff",
        "noteNumber": 67,
        "velocity": 0
      },
      {
        "deltaTime": 5,
        "channel": 2,
        "type": "channel",
        "noteNumber": 33,
        "velocity": 21,
        "subtype": "noteOn"
      },
      {
        "deltaTime": 36,
        "channel": 2,
        "type": "channel",
        "noteNumber": 86,
        "velocity": 21,
        "subtype": "noteOn"
      },
      {
        "deltaTime": 12,
        "channel": 2,
        "type": "channel",
        "subtype": "noteOff",
        "noteNumber": 33,
        "velocity": 0
      },
      {
        "deltaTime": 45,
        "channel": 2,
        "type": "channel",
        "subtype": "noteOff",
        "noteNumber": 86,
        "velocity": 0
      },
      {
        "deltaTime": 0,
        "channel": 2,
        "type": "channel",
        "noteNumber": 61,
        "velocity": 19,
        "subtype": "noteOn"
      },
      {
        "deltaTime": 15,
        "channel": 2,
        "type": "channel",
        "subtype": "noteOff",
        "noteNumber": 61,
        "velocity": 0
      },
      {
        "deltaTime": 14,
        "channel": 2,
        "type": "channel",
        "noteNumber": 61,
        "velocity": 26,
        "subtype": "noteOn"
      },
      {
        "deltaTime": 31,
        "channel": 2,
        "type": "channel",
        "subtype": "noteOff",
        "noteNumber": 61,
        "velocity": 0
      },
      {
        "deltaTime": 279,
        "channel": 2,
        "type": "channel",
        "noteNumber": 71,
        "velocity": 15,
        "subtype": "noteOn"
      },
      {
        "deltaTime": 41,
        "channel": 2,
        "type": "channel",
        "subtype": "noteOff",
        "noteNumber": 71,
        "velocity": 0
      },
      {
        "deltaTime": 64,
        "channel": 2,
        "type": "channel",
        "noteNumber": 35,
        "velocity": 15,
        "subtype": "noteOn"
      },
      {
        "deltaTime": 10,
        "channel": 2,
        "type": "channel",
        "subtype": "noteOff",
        "noteNumber": 35,
        "velocity": 0
      },
      {
        "deltaTime": 7,
        "channel": 2,
        "type": "channel",
        "noteNumber": 88,
        "velocity": 21,
        "subtype": "noteOn"
      },
      {
        "deltaTime": 36,
        "channel": 2,
        "type": "channel",
        "subtype": "noteOff",
        "noteNumber": 88,
        "velocity": 0
      },
      {
        "deltaTime": 36,
        "channel": 2,
        "type": "channel",
        "noteNumber": 36,
        "velocity": 19,
        "subtype": "noteOn"
      },
      {
        "deltaTime": 27,
        "channel": 2,
        "type": "channel",
        "subtype": "noteOff",
        "noteNumber": 36,
        "velocity": 0
      },
      {
        "deltaTime": 9,
        "channel": 2,
        "type": "channel",
        "noteNumber": 35,
        "velocity": 17,
        "subtype": "noteOn"
      },
      {
        "deltaTime": 22,
        "channel": 2,
        "type": "channel",
        "subtype": "noteOff",
        "noteNumber": 35,
        "velocity": 0
      },
      {
        "deltaTime": 38,
        "channel": 2,
        "type": "channel",
        "noteNumber": 62,
        "velocity": 22,
        "subtype": "noteOn"
      },
      {
        "deltaTime": 27,
        "channel": 2,
        "type": "channel",
        "subtype": "noteOff",
        "noteNumber": 62,
        "velocity": 0
      },
      {
        "deltaTime": 19,
        "channel": 2,
        "type": "channel",
        "noteNumber": 62,
        "velocity": 23,
        "subtype": "noteOn"
      },
      {
        "deltaTime": 26,
        "channel": 2,
        "type": "channel",
        "subtype": "noteOff",
        "noteNumber": 62,
        "velocity": 0
      },
      {
        "deltaTime": 17,
        "channel": 2,
        "type": "channel",
        "noteNumber": 45,
        "velocity": 21,
        "subtype": "noteOn"
      },
      {
        "deltaTime": 127,
        "channel": 2,
        "type": "channel",
        "subtype": "noteOff",
        "noteNumber": 45,
        "velocity": 0
      },
      {
        "deltaTime": 58,
        "channel": 2,
        "type": "channel",
        "noteNumber": 38,
        "velocity": 18,
        "subtype": "noteOn"
      },
      {
        "deltaTime": 33,
        "channel": 2,
        "type": "channel",
        "subtype": "noteOff",
        "noteNumber": 38,
        "velocity": 0
      },
      {
        "deltaTime": 17,
        "channel": 2,
        "type": "channel",
        "noteNumber": 59,
        "velocity": 23,
        "subtype": "noteOn"
      },
      {
        "deltaTime": 67,
        "channel": 2,
        "type": "channel",
        "subtype": "noteOff",
        "noteNumber": 59,
        "velocity": 0
      },
      {
        "deltaTime": 29,
        "channel": 2,
        "type": "channel",
        "noteNumber": 102,
        "velocity": 21,
        "subtype": "noteOn"
      },
      {
        "deltaTime": 125,
        "channel": 2,
        "type": "channel",
        "noteNumber": 36,
        "velocity": 16,
        "subtype": "noteOn"
      },
      {
        "deltaTime": 22,
        "channel": 2,
        "type": "channel",
        "subtype": "noteOff",
        "noteNumber": 36,
        "velocity": 0
      },
      {
        "deltaTime": 72,
        "channel": 2,
        "type": "channel",
        "noteNumber": 61,
        "velocity": 20,
        "subtype": "noteOn"
      },
      {
        "deltaTime": 26,
        "channel": 2,
        "type": "channel",
        "subtype": "noteOff",
        "noteNumber": 61,
        "velocity": 0
      },
      {
        "deltaTime": 41,
        "channel": 2,
        "type": "channel",
        "subtype": "noteOff",
        "noteNumber": 102,
        "velocity": 0
      },
      {
        "deltaTime": 242,
        "channel": 2,
        "type": "channel",
        "noteNumber": 78,
        "velocity": 10,
        "subtype": "noteOn"
      },
      {
        "deltaTime": 67,
        "channel": 2,
        "type": "channel",
        "subtype": "noteOff",
        "noteNumber": 78,
        "velocity": 0
      },
      {
        "deltaTime": 58,
        "channel": 2,
        "type": "channel",
        "noteNumber": 88,
        "velocity": 22,
        "subtype": "noteOn"
      },
      {
        "deltaTime": 67,
        "channel": 2,
        "type": "channel",
        "noteNumber": 66,
        "velocity": 24,
        "subtype": "noteOn"
      },
      {
        "deltaTime": 7,
        "channel": 2,
        "type": "channel",
        "subtype": "noteOff",
        "noteNumber": 88,
        "velocity": 0
      },
      {
        "deltaTime": 108,
        "channel": 2,
        "type": "channel",
        "subtype": "noteOff",
        "noteNumber": 66,
        "velocity": 0
      },
      {
        "deltaTime": 8,
        "channel": 2,
        "type": "channel",
        "noteNumber": 78,
        "velocity": 20,
        "subtype": "noteOn"
      },
      {
        "deltaTime": 64,
        "channel": 2,
        "type": "channel",
        "subtype": "noteOff",
        "noteNumber": 78,
        "velocity": 0
      },
      {
        "deltaTime": 41,
        "channel": 2,
        "type": "channel",
        "noteNumber": 66,
        "velocity": 32,
        "subtype": "noteOn"
      },
      {
        "deltaTime": 51,
        "channel": 2,
        "type": "channel",
        "subtype": "noteOff",
        "noteNumber": 66,
        "velocity": 0
      },
      {
        "deltaTime": 127,
        "channel": 2,
        "type": "channel",
        "noteNumber": 74,
        "velocity": 15,
        "subtype": "noteOn"
      },
      {
        "deltaTime": 65,
        "channel": 2,
        "type": "channel",
        "subtype": "noteOff",
        "noteNumber": 74,
        "velocity": 0
      },
      {
        "deltaTime": 38,
        "channel": 2,
        "type": "channel",
        "noteNumber": 66,
        "velocity": 20,
        "subtype": "noteOn"
      },
      {
        "deltaTime": 19,
        "channel": 2,
        "type": "channel",
        "subtype": "noteOff",
        "noteNumber": 66,
        "velocity": 0
      },
      {
        "deltaTime": 67,
        "channel": 2,
        "type": "channel",
        "noteNumber": 67,
        "velocity": 11,
        "subtype": "noteOn"
      },
      {
        "deltaTime": 96,
        "channel": 2,
        "type": "channel",
        "subtype": "noteOff",
        "noteNumber": 67,
        "velocity": 0
      },
      {
        "deltaTime": 3,
        "channel": 2,
        "type": "channel",
        "noteNumber": 33,
        "velocity": 20,
        "subtype": "noteOn"
      },
      {
        "deltaTime": 50,
        "channel": 2,
        "type": "channel",
        "subtype": "noteOff",
        "noteNumber": 33,
        "velocity": 0
      },
      {
        "deltaTime": 7,
        "channel": 2,
        "type": "channel",
        "noteNumber": 52,
        "velocity": 18,
        "subtype": "noteOn"
      },
      {
        "deltaTime": 58,
        "channel": 2,
        "type": "channel",
        "subtype": "noteOff",
        "noteNumber": 52,
        "velocity": 0
      },
      {
        "deltaTime": 36,
        "channel": 2,
        "type": "channel",
        "noteNumber": 36,
        "velocity": 23,
        "subtype": "noteOn"
      },
      {
        "deltaTime": 22,
        "channel": 2,
        "type": "channel",
        "subtype": "noteOff",
        "noteNumber": 36,
        "velocity": 0
      },
      {
        "deltaTime": 228,
        "channel": 2,
        "type": "channel",
        "noteNumber": 83,
        "velocity": 13,
        "subtype": "noteOn"
      },
      {
        "deltaTime": 9,
        "channel": 2,
        "type": "channel",
        "subtype": "noteOff",
        "noteNumber": 83,
        "velocity": 0
      },
      {
        "deltaTime": 27,
        "channel": 2,
        "type": "channel",
        "noteNumber": 71,
        "velocity": 15,
        "subtype": "noteOn"
      },
      {
        "deltaTime": 40,
        "channel": 2,
        "type": "channel",
        "subtype": "noteOff",
        "noteNumber": 71,
        "velocity": 0
      },
      {
        "deltaTime": 27,
        "channel": 2,
        "type": "channel",
        "noteNumber": 66,
        "velocity": 19,
        "subtype": "noteOn"
      },
      {
        "deltaTime": 33,
        "channel": 2,
        "type": "channel",
        "subtype": "noteOff",
        "noteNumber": 66,
        "velocity": 0
      },
      {
        "deltaTime": 24,
        "channel": 2,
        "type": "channel",
        "noteNumber": 85,
        "velocity": 22,
        "subtype": "noteOn"
      },
      {
        "deltaTime": 22,
        "channel": 2,
        "type": "channel",
        "subtype": "noteOff",
        "noteNumber": 85,
        "velocity": 0
      },
      {
        "deltaTime": 58,
        "channel": 2,
        "type": "channel",
        "noteNumber": 85,
        "velocity": 25,
        "subtype": "noteOn"
      },
      {
        "deltaTime": 19,
        "channel": 2,
        "type": "channel",
        "subtype": "noteOff",
        "noteNumber": 85,
        "velocity": 0
      },
      {
        "deltaTime": 7,
        "channel": 2,
        "type": "channel",
        "noteNumber": 35,
        "velocity": 19,
        "subtype": "noteOn"
      },
      {
        "deltaTime": 22,
        "channel": 2,
        "type": "channel",
        "subtype": "noteOff",
        "noteNumber": 35,
        "velocity": 0
      },
      {
        "deltaTime": 38,
        "channel": 2,
        "type": "channel",
        "noteNumber": 62,
        "velocity": 25,
        "subtype": "noteOn"
      },
      {
        "deltaTime": 26,
        "channel": 2,
        "type": "channel",
        "subtype": "noteOff",
        "noteNumber": 62,
        "velocity": 0
      },
      {
        "deltaTime": 48,
        "channel": 2,
        "type": "channel",
        "noteNumber": 33,
        "velocity": 21,
        "subtype": "noteOn"
      },
      {
        "deltaTime": 48,
        "channel": 2,
        "type": "channel",
        "subtype": "noteOff",
        "noteNumber": 33,
        "velocity": 0
      },
      {
        "deltaTime": 243,
        "channel": 2,
        "type": "channel",
        "noteNumber": 102,
        "velocity": 21,
        "subtype": "noteOn"
      },
      {
        "deltaTime": 24,
        "channel": 2,
        "type": "channel",
        "subtype": "noteOff",
        "noteNumber": 102,
        "velocity": 0
      },
      {
        "deltaTime": 29,
        "channel": 2,
        "type": "channel",
        "noteNumber": 102,
        "velocity": 30,
        "subtype": "noteOn"
      },
      {
        "deltaTime": 105,
        "channel": 2,
        "type": "channel",
        "noteNumber": 62,
        "velocity": 17,
        "subtype": "noteOn"
      },
      {
        "deltaTime": 58,
        "channel": 2,
        "type": "channel",
        "subtype": "noteOff",
        "noteNumber": 62,
        "velocity": 0
      },
      {
        "deltaTime": 43,
        "channel": 2,
        "type": "channel",
        "noteNumber": 36,
        "velocity": 17,
        "subtype": "noteOn"
      },
      {
        "deltaTime": 31,
        "channel": 2,
        "type": "channel",
        "subtype": "noteOff",
        "noteNumber": 36,
        "velocity": 0
      },
      {
        "deltaTime": 5,
        "channel": 2,
        "type": "channel",
        "noteNumber": 61,
        "velocity": 28,
        "subtype": "noteOn"
      },
      {
        "deltaTime": 10,
        "channel": 2,
        "type": "channel",
        "subtype": "noteOff",
        "noteNumber": 61,
        "velocity": 0
      },
      {
        "deltaTime": 36,
        "channel": 2,
        "type": "channel",
        "subtype": "noteOff",
        "noteNumber": 102,
        "velocity": 0
      },
      {
        "deltaTime": 223,
        "channel": 2,
        "type": "channel",
        "noteNumber": 32,
        "velocity": 12,
        "subtype": "noteOn"
      },
      {
        "deltaTime": 9,
        "channel": 2,
        "type": "channel",
        "subtype": "noteOff",
        "noteNumber": 32,
        "velocity": 0
      },
      {
        "deltaTime": 140,
        "channel": 2,
        "type": "channel",
        "noteNumber": 61,
        "velocity": 19,
        "subtype": "noteOn"
      },
      {
        "deltaTime": 38,
        "channel": 2,
        "type": "channel",
        "subtype": "noteOff",
        "noteNumber": 61,
        "velocity": 0
      },
      {
        "deltaTime": 146,
        "channel": 2,
        "type": "channel",
        "noteNumber": 36,
        "velocity": 17,
        "subtype": "noteOn"
      },
      {
        "deltaTime": 17,
        "channel": 2,
        "type": "channel",
        "noteNumber": 99,
        "velocity": 23,
        "subtype": "noteOn"
      },
      {
        "deltaTime": 22,
        "channel": 2,
        "type": "channel",
        "subtype": "noteOff",
        "noteNumber": 36,
        "velocity": 0
      },
      {
        "deltaTime": 33,
        "channel": 2,
        "type": "channel",
        "subtype": "noteOff",
        "noteNumber": 99,
        "velocity": 0
      },
      {
        "deltaTime": 75,
        "channel": 2,
        "type": "channel",
        "noteNumber": 99,
        "velocity": 28,
        "subtype": "noteOn"
      },
      {
        "deltaTime": 17,
        "channel": 2,
        "type": "channel",
        "subtype": "noteOff",
        "noteNumber": 99,
        "velocity": 0
      },
      {
        "deltaTime": 127,
        "channel": 2,
        "type": "channel",
        "noteNumber": 59,
        "velocity": 39,
        "subtype": "noteOn"
      },
      {
        "deltaTime": 48,
        "channel": 2,
        "type": "channel",
        "noteNumber": 43,
        "velocity": 31,
        "subtype": "noteOn"
      },
      {
        "deltaTime": 12,
        "channel": 2,
        "type": "channel",
        "subtype": "noteOff",
        "noteNumber": 43,
        "velocity": 0
      },
      {
        "deltaTime": 55,
        "channel": 2,
        "type": "channel",
        "subtype": "noteOff",
        "noteNumber": 59,
        "velocity": 0
      },
      {
        "deltaTime": 17,
        "channel": 2,
        "type": "channel",
        "noteNumber": 59,
        "velocity": 29,
        "subtype": "noteOn"
      },
      {
        "deltaTime": 65,
        "channel": 2,
        "type": "channel",
        "subtype": "noteOff",
        "noteNumber": 59,
        "velocity": 0
      },
      {
        "deltaTime": 9,
        "channel": 2,
        "type": "channel",
        "noteNumber": 71,
        "velocity": 25,
        "subtype": "noteOn"
      },
      {
        "deltaTime": 19,
        "channel": 2,
        "type": "channel",
        "subtype": "noteOff",
        "noteNumber": 71,
        "velocity": 0
      },
      {
        "deltaTime": 27,
        "channel": 2,
        "type": "channel",
        "noteNumber": 59,
        "velocity": 37,
        "subtype": "noteOn"
      },
      {
        "deltaTime": 2,
        "channel": 2,
        "type": "channel",
        "noteNumber": 62,
        "velocity": 25,
        "subtype": "noteOn"
      },
      {
        "deltaTime": 22,
        "channel": 2,
        "type": "channel",
        "subtype": "noteOff",
        "noteNumber": 59,
        "velocity": 0
      },
      {
        "deltaTime": 0,
        "channel": 2,
        "type": "channel",
        "subtype": "noteOff",
        "noteNumber": 62,
        "velocity": 0
      },
      {
        "deltaTime": 21,
        "channel": 2,
        "type": "channel",
        "noteNumber": 69,
        "velocity": 33,
        "subtype": "noteOn"
      },
      {
        "deltaTime": 41,
        "channel": 2,
        "type": "channel",
        "noteNumber": 52,
        "velocity": 40,
        "subtype": "noteOn"
      },
      {
        "deltaTime": 41,
        "channel": 2,
        "type": "channel",
        "subtype": "noteOff",
        "noteNumber": 69,
        "velocity": 0
      },
      {
        "deltaTime": 17,
        "channel": 2,
        "type": "channel",
        "subtype": "noteOff",
        "noteNumber": 52,
        "velocity": 0
      },
      {
        "deltaTime": 9,
        "channel": 2,
        "type": "channel",
        "noteNumber": 71,
        "velocity": 10,
        "subtype": "noteOn"
      },
      {
        "deltaTime": 17,
        "channel": 2,
        "type": "channel",
        "subtype": "noteOff",
        "noteNumber": 71,
        "velocity": 0
      },
      {
        "deltaTime": 0,
        "channel": 2,
        "type": "channel",
        "noteNumber": 90,
        "velocity": 34,
        "subtype": "noteOn"
      },
      {
        "deltaTime": 15,
        "channel": 2,
        "type": "channel",
        "subtype": "noteOff",
        "noteNumber": 90,
        "velocity": 0
      },
      {
        "deltaTime": 79,
        "channel": 2,
        "type": "channel",
        "noteNumber": 33,
        "velocity": 12,
        "subtype": "noteOn"
      },
      {
        "deltaTime": 62,
        "channel": 2,
        "type": "channel",
        "subtype": "noteOff",
        "noteNumber": 33,
        "velocity": 0
      },
      {
        "deltaTime": 27,
        "channel": 2,
        "type": "channel",
        "noteNumber": 78,
        "velocity": 11,
        "subtype": "noteOn"
      },
      {
        "deltaTime": 72,
        "channel": 2,
        "type": "channel",
        "subtype": "noteOff",
        "noteNumber": 78,
        "velocity": 0
      },
      {
        "deltaTime": 26,
        "channel": 2,
        "type": "channel",
        "noteNumber": 81,
        "velocity": 11,
        "subtype": "noteOn"
      },
      {
        "deltaTime": 31,
        "channel": 2,
        "type": "channel",
        "subtype": "noteOff",
        "noteNumber": 81,
        "velocity": 0
      },
      {
        "deltaTime": 41,
        "channel": 2,
        "type": "channel",
        "noteNumber": 54,
        "velocity": 36,
        "subtype": "noteOn"
      },
      {
        "deltaTime": 17,
        "channel": 2,
        "type": "channel",
        "subtype": "noteOff",
        "noteNumber": 54,
        "velocity": 0
      },
      {
        "deltaTime": 117,
        "channel": 2,
        "type": "channel",
        "noteNumber": 36,
        "velocity": 18,
        "subtype": "noteOn"
      },
      {
        "deltaTime": 27,
        "channel": 2,
        "type": "channel",
        "subtype": "noteOff",
        "noteNumber": 36,
        "velocity": 0
      },
      {
        "deltaTime": 7,
        "channel": 2,
        "type": "channel",
        "noteNumber": 81,
        "velocity": 26,
        "subtype": "noteOn"
      },
      {
        "deltaTime": 38,
        "channel": 2,
        "type": "channel",
        "noteNumber": 46,
        "velocity": 12,
        "subtype": "noteOn"
      },
      {
        "deltaTime": 3,
        "channel": 2,
        "type": "channel",
        "noteNumber": 66,
        "velocity": 13,
        "subtype": "noteOn"
      },
      {
        "deltaTime": 7,
        "channel": 2,
        "type": "channel",
        "subtype": "noteOff",
        "noteNumber": 46,
        "velocity": 0
      },
      {
        "deltaTime": 2,
        "channel": 2,
        "type": "channel",
        "subtype": "noteOff",
        "noteNumber": 81,
        "velocity": 0
      },
      {
        "deltaTime": 15,
        "channel": 2,
        "type": "channel",
        "subtype": "noteOff",
        "noteNumber": 66,
        "velocity": 0
      },
      {
        "deltaTime": 45,
        "channel": 2,
        "type": "channel",
        "noteNumber": 66,
        "velocity": 21,
        "subtype": "noteOn"
      },
      {
        "deltaTime": 22,
        "channel": 2,
        "type": "channel",
        "subtype": "noteOff",
        "noteNumber": 66,
        "velocity": 0
      },
      {
        "deltaTime": 26,
        "channel": 2,
        "type": "channel",
        "noteNumber": 66,
        "velocity": 19,
        "subtype": "noteOn"
      },
      {
        "deltaTime": 142,
        "channel": 2,
        "type": "channel",
        "subtype": "noteOff",
        "noteNumber": 66,
        "velocity": 0
      },
      {
        "deltaTime": 31,
        "channel": 2,
        "type": "channel",
        "noteNumber": 66,
        "velocity": 18,
        "subtype": "noteOn"
      },
      {
        "deltaTime": 12,
        "channel": 2,
        "type": "channel",
        "subtype": "noteOff",
        "noteNumber": 66,
        "velocity": 0
      },
      {
        "deltaTime": 31,
        "channel": 2,
        "type": "channel",
        "noteNumber": 66,
        "velocity": 21,
        "subtype": "noteOn"
      },
      {
        "deltaTime": 24,
        "channel": 2,
        "type": "channel",
        "subtype": "noteOff",
        "noteNumber": 66,
        "velocity": 0
      },
      {
        "deltaTime": 48,
        "channel": 2,
        "type": "channel",
        "noteNumber": 81,
        "velocity": 24,
        "subtype": "noteOn"
      },
      {
        "deltaTime": 10,
        "channel": 2,
        "type": "channel",
        "subtype": "noteOff",
        "noteNumber": 81,
        "velocity": 0
      },
      {
        "deltaTime": 14,
        "channel": 2,
        "type": "channel",
        "noteNumber": 57,
        "velocity": 30,
        "subtype": "noteOn"
      },
      {
        "deltaTime": 5,
        "channel": 2,
        "type": "channel",
        "noteNumber": 69,
        "velocity": 21,
        "subtype": "noteOn"
      },
      {
        "deltaTime": 10,
        "channel": 2,
        "type": "channel",
        "subtype": "noteOff",
        "noteNumber": 69,
        "velocity": 0
      },
      {
        "deltaTime": 2,
        "channel": 2,
        "type": "channel",
        "noteNumber": 69,
        "velocity": 35,
        "subtype": "noteOn"
      },
      {
        "deltaTime": 12,
        "channel": 2,
        "type": "channel",
        "subtype": "noteOff",
        "noteNumber": 57,
        "velocity": 0
      },
      {
        "deltaTime": 39,
        "channel": 2,
        "type": "channel",
        "subtype": "noteOff",
        "noteNumber": 69,
        "velocity": 0
      },
      {
        "deltaTime": 4,
        "channel": 2,
        "type": "channel",
        "noteNumber": 69,
        "velocity": 29,
        "subtype": "noteOn"
      },
      {
        "deltaTime": 32,
        "channel": 2,
        "type": "channel",
        "subtype": "noteOff",
        "noteNumber": 69,
        "velocity": 0
      },
      {
        "deltaTime": 40,
        "channel": 2,
        "type": "channel",
        "noteNumber": 81,
        "velocity": 31,
        "subtype": "noteOn"
      },
      {
        "deltaTime": 34,
        "channel": 2,
        "type": "channel",
        "noteNumber": 78,
        "velocity": 28,
        "subtype": "noteOn"
      },
      {
        "deltaTime": 31,
        "channel": 2,
        "type": "channel",
        "subtype": "noteOff",
        "noteNumber": 81,
        "velocity": 0
      },
      {
        "deltaTime": 27,
        "channel": 2,
        "type": "channel",
        "subtype": "noteOff",
        "noteNumber": 78,
        "velocity": 0
      },
      {
        "deltaTime": 0,
        "channel": 2,
        "type": "channel",
        "noteNumber": 61,
        "velocity": 24,
        "subtype": "noteOn"
      },
      {
        "deltaTime": 24,
        "channel": 2,
        "type": "channel",
        "subtype": "noteOff",
        "noteNumber": 61,
        "velocity": 0
      },
      {
        "deltaTime": 19,
        "channel": 2,
        "type": "channel",
        "noteNumber": 61,
        "velocity": 35,
        "subtype": "noteOn"
      },
      {
        "deltaTime": 24,
        "channel": 2,
        "type": "channel",
        "subtype": "noteOff",
        "noteNumber": 61,
        "velocity": 0
      },
      {
        "deltaTime": 43,
        "channel": 2,
        "type": "channel",
        "noteNumber": 59,
        "velocity": 34,
        "subtype": "noteOn"
      },
      {
        "deltaTime": 113,
        "channel": 2,
        "type": "channel",
        "subtype": "noteOff",
        "noteNumber": 59,
        "velocity": 0
      },
      {
        "deltaTime": 96,
        "channel": 2,
        "type": "channel",
        "noteNumber": 62,
        "velocity": 26,
        "subtype": "noteOn"
      },
      {
        "deltaTime": 36,
        "channel": 2,
        "type": "channel",
        "subtype": "noteOff",
        "noteNumber": 62,
        "velocity": 0
      },
      {
        "deltaTime": 89,
        "channel": 2,
        "type": "channel",
        "noteNumber": 66,
        "velocity": 43,
        "subtype": "noteOn"
      },
      {
        "deltaTime": 112,
        "channel": 2,
        "type": "channel",
        "noteNumber": 59,
        "velocity": 35,
        "subtype": "noteOn"
      },
      {
        "deltaTime": 12,
        "channel": 2,
        "type": "channel",
        "subtype": "noteOff",
        "noteNumber": 66,
        "velocity": 0
      },
      {
        "deltaTime": 20,
        "channel": 2,
        "type": "channel",
        "subtype": "noteOff",
        "noteNumber": 59,
        "velocity": 0
      },
      {
        "deltaTime": 43,
        "channel": 2,
        "type": "channel",
        "noteNumber": 83,
        "velocity": 32,
        "subtype": "noteOn"
      },
      {
        "deltaTime": 29,
        "channel": 2,
        "type": "channel",
        "subtype": "noteOff",
        "noteNumber": 83,
        "velocity": 0
      },
      {
        "deltaTime": 62,
        "channel": 2,
        "type": "channel",
        "noteNumber": 78,
        "velocity": 23,
        "subtype": "noteOn"
      },
      {
        "deltaTime": 34,
        "channel": 2,
        "type": "channel",
        "subtype": "noteOff",
        "noteNumber": 78,
        "velocity": 0
      },
      {
        "deltaTime": 0,
        "channel": 2,
        "type": "channel",
        "noteNumber": 66,
        "velocity": 32,
        "subtype": "noteOn"
      },
      {
        "deltaTime": 108,
        "channel": 2,
        "type": "channel",
        "subtype": "noteOff",
        "noteNumber": 66,
        "velocity": 0
      },
      {
        "deltaTime": 38,
        "channel": 2,
        "type": "channel",
        "noteNumber": 36,
        "velocity": 18,
        "subtype": "noteOn"
      },
      {
        "deltaTime": 12,
        "channel": 2,
        "type": "channel",
        "noteNumber": 50,
        "velocity": 36,
        "subtype": "noteOn"
      },
      {
        "deltaTime": 12,
        "channel": 2,
        "type": "channel",
        "subtype": "noteOff",
        "noteNumber": 36,
        "velocity": 0
      },
      {
        "deltaTime": 103,
        "channel": 2,
        "type": "channel",
        "subtype": "noteOff",
        "noteNumber": 50,
        "velocity": 0
      },
      {
        "deltaTime": 10,
        "channel": 2,
        "type": "channel",
        "noteNumber": 69,
        "velocity": 14,
        "subtype": "noteOn"
      },
      {
        "deltaTime": 17,
        "channel": 2,
        "type": "channel",
        "subtype": "noteOff",
        "noteNumber": 69,
        "velocity": 0
      },
      {
        "deltaTime": 132,
        "channel": 2,
        "type": "channel",
        "noteNumber": 88,
        "velocity": 37,
        "subtype": "noteOn"
      },
      {
        "deltaTime": 33,
        "channel": 2,
        "type": "channel",
        "subtype": "noteOff",
        "noteNumber": 88,
        "velocity": 0
      },
      {
        "deltaTime": 41,
        "channel": 2,
        "type": "channel",
        "noteNumber": 33,
        "velocity": 26,
        "subtype": "noteOn"
      },
      {
        "deltaTime": 22,
        "channel": 2,
        "type": "channel",
        "subtype": "noteOff",
        "noteNumber": 33,
        "velocity": 0
      },
      {
        "deltaTime": 9,
        "channel": 2,
        "type": "channel",
        "noteNumber": 33,
        "velocity": 26,
        "subtype": "noteOn"
      },
      {
        "deltaTime": 22,
        "channel": 2,
        "type": "channel",
        "subtype": "noteOff",
        "noteNumber": 33,
        "velocity": 0
      },
      {
        "deltaTime": 5,
        "channel": 2,
        "type": "channel",
        "noteNumber": 61,
        "velocity": 36,
        "subtype": "noteOn"
      },
      {
        "deltaTime": 33,
        "channel": 2,
        "type": "channel",
        "subtype": "noteOff",
        "noteNumber": 61,
        "velocity": 0
      },
      {
        "deltaTime": 10,
        "channel": 2,
        "type": "channel",
        "noteNumber": 32,
        "velocity": 12,
        "subtype": "noteOn"
      },
      {
        "deltaTime": 9,
        "channel": 2,
        "type": "channel",
        "noteNumber": 81,
        "velocity": 13,
        "subtype": "noteOn"
      },
      {
        "deltaTime": 3,
        "channel": 2,
        "type": "channel",
        "subtype": "noteOff",
        "noteNumber": 32,
        "velocity": 0
      },
      {
        "deltaTime": 48,
        "channel": 2,
        "type": "channel",
        "subtype": "noteOff",
        "noteNumber": 81,
        "velocity": 0
      },
      {
        "deltaTime": 5,
        "channel": 2,
        "type": "channel",
        "noteNumber": 45,
        "velocity": 24,
        "subtype": "noteOn"
      },
      {
        "deltaTime": 81,
        "channel": 2,
        "type": "channel",
        "subtype": "noteOff",
        "noteNumber": 45,
        "velocity": 0
      },
      {
        "deltaTime": 36,
        "channel": 2,
        "type": "channel",
        "noteNumber": 71,
        "velocity": 11,
        "subtype": "noteOn"
      },
      {
        "deltaTime": 89,
        "channel": 2,
        "type": "channel",
        "subtype": "noteOff",
        "noteNumber": 71,
        "velocity": 0
      },
      {
        "deltaTime": 106,
        "channel": 2,
        "type": "channel",
        "noteNumber": 66,
        "velocity": 29,
        "subtype": "noteOn"
      },
      {
        "deltaTime": 9,
        "channel": 2,
        "type": "channel",
        "subtype": "noteOff",
        "noteNumber": 66,
        "velocity": 0
      },
      {
        "deltaTime": 34,
        "channel": 2,
        "type": "channel",
        "noteNumber": 35,
        "velocity": 28,
        "subtype": "noteOn"
      },
      {
        "deltaTime": 9,
        "channel": 2,
        "type": "channel",
        "subtype": "noteOff",
        "noteNumber": 35,
        "velocity": 0
      },
      {
        "deltaTime": 12,
        "channel": 2,
        "type": "channel",
        "noteNumber": 47,
        "velocity": 26,
        "subtype": "noteOn"
      },
      {
        "deltaTime": 63,
        "channel": 2,
        "type": "channel",
        "subtype": "noteOff",
        "noteNumber": 47,
        "velocity": 0
      },
      {
        "deltaTime": 62,
        "channel": 2,
        "type": "channel",
        "noteNumber": 81,
        "velocity": 18,
        "subtype": "noteOn"
      },
      {
        "deltaTime": 58,
        "channel": 2,
        "type": "channel",
        "subtype": "noteOff",
        "noteNumber": 81,
        "velocity": 0
      },
      {
        "deltaTime": 7,
        "channel": 2,
        "type": "channel",
        "noteNumber": 33,
        "velocity": 14,
        "subtype": "noteOn"
      },
      {
        "deltaTime": 48,
        "channel": 2,
        "type": "channel",
        "subtype": "noteOff",
        "noteNumber": 33,
        "velocity": 0
      },
      {
        "deltaTime": 0,
        "channel": 2,
        "type": "channel",
        "noteNumber": 52,
        "velocity": 17,
        "subtype": "noteOn"
      },
      {
        "deltaTime": 62,
        "channel": 2,
        "type": "channel",
        "noteNumber": 33,
        "velocity": 12,
        "subtype": "noteOn"
      },
      {
        "deltaTime": 5,
        "channel": 2,
        "type": "channel",
        "subtype": "noteOff",
        "noteNumber": 52,
        "velocity": 0
      },
      {
        "deltaTime": 43,
        "channel": 2,
        "type": "channel",
        "noteNumber": 74,
        "velocity": 26,
        "subtype": "noteOn"
      },
      {
        "deltaTime": 8,
        "channel": 2,
        "type": "channel",
        "subtype": "noteOff",
        "noteNumber": 33,
        "velocity": 0
      },
      {
        "deltaTime": 141,
        "channel": 2,
        "type": "channel",
        "subtype": "noteOff",
        "noteNumber": 74,
        "velocity": 0
      },
      {
        "deltaTime": 29,
        "channel": 2,
        "type": "channel",
        "noteNumber": 106,
        "velocity": 26,
        "subtype": "noteOn"
      },
      {
        "deltaTime": 10,
        "channel": 2,
        "type": "channel",
        "noteNumber": 69,
        "velocity": 36,
        "subtype": "noteOn"
      },
      {
        "deltaTime": 48,
        "channel": 2,
        "type": "channel",
        "subtype": "noteOff",
        "noteNumber": 106,
        "velocity": 0
      },
      {
        "deltaTime": 4,
        "channel": 2,
        "type": "channel",
        "noteNumber": 106,
        "velocity": 39,
        "subtype": "noteOn"
      },
      {
        "deltaTime": 34,
        "channel": 2,
        "type": "channel",
        "subtype": "noteOff",
        "noteNumber": 69,
        "velocity": 0
      },
      {
        "deltaTime": 0,
        "channel": 2,
        "type": "channel",
        "noteNumber": 78,
        "velocity": 14,
        "subtype": "noteOn"
      },
      {
        "deltaTime": 7,
        "channel": 2,
        "type": "channel",
        "noteNumber": 59,
        "velocity": 36,
        "subtype": "noteOn"
      },
      {
        "deltaTime": 5,
        "channel": 2,
        "type": "channel",
        "subtype": "noteOff",
        "noteNumber": 78,
        "velocity": 0
      },
      {
        "deltaTime": 22,
        "channel": 2,
        "type": "channel",
        "noteNumber": 81,
        "velocity": 38,
        "subtype": "noteOn"
      },
      {
        "deltaTime": 4,
        "channel": 2,
        "type": "channel",
        "subtype": "noteOff",
        "noteNumber": 59,
        "velocity": 0
      },
      {
        "deltaTime": 36,
        "channel": 2,
        "type": "channel",
        "noteNumber": 78,
        "velocity": 26,
        "subtype": "noteOn"
      },
      {
        "deltaTime": 17,
        "channel": 2,
        "type": "channel",
        "noteNumber": 59,
        "velocity": 25,
        "subtype": "noteOn"
      },
      {
        "deltaTime": 7,
        "channel": 2,
        "type": "channel",
        "subtype": "noteOff",
        "noteNumber": 81,
        "velocity": 0
      },
      {
        "deltaTime": 24,
        "channel": 2,
        "type": "channel",
        "subtype": "noteOff",
        "noteNumber": 59,
        "velocity": 0
      },
      {
        "deltaTime": 15,
        "channel": 2,
        "type": "channel",
        "subtype": "noteOff",
        "noteNumber": 78,
        "velocity": 0
      },
      {
        "deltaTime": 60,
        "channel": 2,
        "type": "channel",
        "subtype": "noteOff",
        "noteNumber": 106,
        "velocity": 0
      },
      {
        "deltaTime": 69,
        "channel": 2,
        "type": "channel",
        "noteNumber": 33,
        "velocity": 29,
        "subtype": "noteOn"
      },
      {
        "deltaTime": 89,
        "channel": 2,
        "type": "channel",
        "noteNumber": 78,
        "velocity": 20,
        "subtype": "noteOn"
      },
      {
        "deltaTime": 22,
        "channel": 2,
        "type": "channel",
        "subtype": "noteOff",
        "noteNumber": 33,
        "velocity": 0
      },
      {
        "deltaTime": 9,
        "channel": 2,
        "type": "channel",
        "subtype": "noteOff",
        "noteNumber": 78,
        "velocity": 0
      },
      {
        "deltaTime": 39,
        "channel": 2,
        "type": "channel",
        "noteNumber": 106,
        "velocity": 13,
        "subtype": "noteOn"
      },
      {
        "deltaTime": 65,
        "channel": 2,
        "type": "channel",
        "subtype": "noteOff",
        "noteNumber": 106,
        "velocity": 0
      },
      {
        "deltaTime": 163,
        "channel": 2,
        "type": "channel",
        "noteNumber": 64,
        "velocity": 29,
        "subtype": "noteOn"
      },
      {
        "deltaTime": 5,
        "channel": 2,
        "type": "channel",
        "noteNumber": 59,
        "velocity": 12,
        "subtype": "noteOn"
      },
      {
        "deltaTime": 24,
        "channel": 2,
        "type": "channel",
        "subtype": "noteOff",
        "noteNumber": 59,
        "velocity": 0
      },
      {
        "deltaTime": 36,
        "channel": 2,
        "type": "channel",
        "subtype": "noteOff",
        "noteNumber": 64,
        "velocity": 0
      },
      {
        "deltaTime": 38,
        "channel": 2,
        "type": "channel",
        "noteNumber": 36,
        "velocity": 18,
        "subtype": "noteOn"
      },
      {
        "deltaTime": 38,
        "channel": 2,
        "type": "channel",
        "subtype": "noteOff",
        "noteNumber": 36,
        "velocity": 0
      },
      {
        "deltaTime": 240,
        "channel": 2,
        "type": "channel",
        "noteNumber": 39,
        "velocity": 20,
        "subtype": "noteOn"
      },
      {
        "deltaTime": 5,
        "channel": 2,
        "type": "channel",
        "noteNumber": 50,
        "velocity": 36,
        "subtype": "noteOn"
      },
      {
        "deltaTime": 10,
        "channel": 2,
        "type": "channel",
        "subtype": "noteOff",
        "noteNumber": 39,
        "velocity": 0
      },
      {
        "deltaTime": 101,
        "channel": 2,
        "type": "channel",
        "noteNumber": 81,
        "velocity": 22,
        "subtype": "noteOn"
      },
      {
        "deltaTime": 12,
        "channel": 2,
        "type": "channel",
        "subtype": "noteOff",
        "noteNumber": 50,
        "velocity": 0
      },
      {
        "deltaTime": 0,
        "channel": 2,
        "type": "channel",
        "subtype": "noteOff",
        "noteNumber": 81,
        "velocity": 0
      },
      {
        "deltaTime": 9,
        "channel": 2,
        "type": "channel",
        "noteNumber": 69,
        "velocity": 12,
        "subtype": "noteOn"
      },
      {
        "deltaTime": 19,
        "channel": 2,
        "type": "channel",
        "subtype": "noteOff",
        "noteNumber": 69,
        "velocity": 0
      },
      {
        "deltaTime": 53,
        "channel": 2,
        "type": "channel",
        "noteNumber": 88,
        "velocity": 34,
        "subtype": "noteOn"
      },
      {
        "deltaTime": 15,
        "channel": 2,
        "type": "channel",
        "subtype": "noteOff",
        "noteNumber": 88,
        "velocity": 0
      },
      {
        "deltaTime": 50,
        "channel": 2,
        "type": "channel",
        "noteNumber": 62,
        "velocity": 13,
        "subtype": "noteOn"
      },
      {
        "deltaTime": 12,
        "channel": 2,
        "type": "channel",
        "noteNumber": 81,
        "velocity": 37,
        "subtype": "noteOn"
      },
      {
        "deltaTime": 5,
        "channel": 2,
        "type": "channel",
        "subtype": "noteOff",
        "noteNumber": 62,
        "velocity": 0
      },
      {
        "deltaTime": 19,
        "channel": 2,
        "type": "channel",
        "noteNumber": 69,
        "velocity": 36,
        "subtype": "noteOn"
      },
      {
        "deltaTime": 10,
        "channel": 2,
        "type": "channel",
        "subtype": "noteOff",
        "noteNumber": 69,
        "velocity": 0
      },
      {
        "deltaTime": 28,
        "channel": 2,
        "type": "channel",
        "subtype": "noteOff",
        "noteNumber": 81,
        "velocity": 0
      },
      {
        "deltaTime": 29,
        "channel": 2,
        "type": "channel",
        "noteNumber": 61,
        "velocity": 28,
        "subtype": "noteOn"
      },
      {
        "deltaTime": 27,
        "channel": 2,
        "type": "channel",
        "subtype": "noteOff",
        "noteNumber": 61,
        "velocity": 0
      },
      {
        "deltaTime": 21,
        "channel": 2,
        "type": "channel",
        "noteNumber": 90,
        "velocity": 29,
        "subtype": "noteOn"
      },
      {
        "deltaTime": 22,
        "channel": 2,
        "type": "channel",
        "subtype": "noteOff",
        "noteNumber": 90,
        "velocity": 0
      },
      {
        "deltaTime": 17,
        "channel": 2,
        "type": "channel",
        "noteNumber": 32,
        "velocity": 13,
        "subtype": "noteOn"
      },
      {
        "deltaTime": 12,
        "channel": 2,
        "type": "channel",
        "subtype": "noteOff",
        "noteNumber": 32,
        "velocity": 0
      },
      {
        "deltaTime": 24,
        "channel": 2,
        "type": "channel",
        "noteNumber": 64,
        "velocity": 11,
        "subtype": "noteOn"
      },
      {
        "deltaTime": 105,
        "channel": 2,
        "type": "channel",
        "subtype": "noteOff",
        "noteNumber": 64,
        "velocity": 0
      },
      {
        "deltaTime": 12,
        "channel": 2,
        "type": "channel",
        "noteNumber": 71,
        "velocity": 23,
        "subtype": "noteOn"
      },
      {
        "deltaTime": 123,
        "channel": 2,
        "type": "channel",
        "subtype": "noteOff",
        "noteNumber": 71,
        "velocity": 0
      },
      {
        "deltaTime": 55,
        "channel": 2,
        "type": "channel",
        "noteNumber": 106,
        "velocity": 43,
        "subtype": "noteOn"
      },
      {
        "deltaTime": 14,
        "channel": 2,
        "type": "channel",
        "noteNumber": 66,
        "velocity": 25,
        "subtype": "noteOn"
      },
      {
        "deltaTime": 31,
        "channel": 2,
        "type": "channel",
        "noteNumber": 47,
        "velocity": 38,
        "subtype": "noteOn"
      },
      {
        "deltaTime": 3,
        "channel": 2,
        "type": "channel",
        "subtype": "noteOff",
        "noteNumber": 66,
        "velocity": 0
      },
      {
        "deltaTime": 45,
        "channel": 2,
        "type": "channel",
        "subtype": "noteOff",
        "noteNumber": 47,
        "velocity": 0
      },
      {
        "deltaTime": 48,
        "channel": 2,
        "type": "channel",
        "noteNumber": 59,
        "velocity": 32,
        "subtype": "noteOn"
      },
      {
        "deltaTime": 46,
        "channel": 2,
        "type": "channel",
        "noteNumber": 62,
        "velocity": 24,
        "subtype": "noteOn"
      },
      {
        "deltaTime": 60,
        "channel": 2,
        "type": "channel",
        "subtype": "noteOff",
        "noteNumber": 59,
        "velocity": 0
      },
      {
        "deltaTime": 0,
        "channel": 2,
        "type": "channel",
        "subtype": "noteOff",
        "noteNumber": 62,
        "velocity": 0
      },
      {
        "deltaTime": 17,
        "channel": 2,
        "type": "channel",
        "noteNumber": 83,
        "velocity": 13,
        "subtype": "noteOn"
      },
      {
        "deltaTime": 21,
        "channel": 2,
        "type": "channel",
        "subtype": "noteOff",
        "noteNumber": 106,
        "velocity": 0
      },
      {
        "deltaTime": 5,
        "channel": 2,
        "type": "channel",
        "subtype": "noteOff",
        "noteNumber": 83,
        "velocity": 0
      },
      {
        "deltaTime": 24,
        "channel": 2,
        "type": "channel",
        "noteNumber": 66,
        "velocity": 30,
        "subtype": "noteOn"
      },
      {
        "deltaTime": 101,
        "channel": 2,
        "type": "channel",
        "noteNumber": 106,
        "velocity": 18,
        "subtype": "noteOn"
      },
      {
        "deltaTime": 24,
        "channel": 2,
        "type": "channel",
        "subtype": "noteOff",
        "noteNumber": 106,
        "velocity": 0
      },
      {
        "deltaTime": 14,
        "channel": 2,
        "type": "channel",
        "subtype": "noteOff",
        "noteNumber": 66,
        "velocity": 0
      },
      {
        "deltaTime": 3,
        "channel": 2,
        "type": "channel",
        "noteNumber": 78,
        "velocity": 15,
        "subtype": "noteOn"
      },
      {
        "deltaTime": 21,
        "channel": 2,
        "type": "channel",
        "subtype": "noteOff",
        "noteNumber": 78,
        "velocity": 0
      },
      {
        "deltaTime": 12,
        "channel": 2,
        "type": "channel",
        "noteNumber": 36,
        "velocity": 10,
        "subtype": "noteOn"
      },
      {
        "deltaTime": 12,
        "channel": 2,
        "type": "channel",
        "noteNumber": 50,
        "velocity": 39,
        "subtype": "noteOn"
      },
      {
        "deltaTime": 10,
        "channel": 2,
        "type": "channel",
        "subtype": "noteOff",
        "noteNumber": 36,
        "velocity": 0
      },
      {
        "deltaTime": 103,
        "channel": 2,
        "type": "channel",
        "subtype": "noteOff",
        "noteNumber": 50,
        "velocity": 0
      },
      {
        "deltaTime": 55,
        "channel": 2,
        "type": "channel",
        "noteNumber": 57,
        "velocity": 33,
        "subtype": "noteOn"
      },
      {
        "deltaTime": 39,
        "channel": 2,
        "type": "channel",
        "noteNumber": 59,
        "velocity": 32,
        "subtype": "noteOn"
      },
      {
        "deltaTime": 12,
        "channel": 2,
        "type": "channel",
        "subtype": "noteOff",
        "noteNumber": 57,
        "velocity": 0
      },
      {
        "deltaTime": 12,
        "channel": 2,
        "type": "channel",
        "subtype": "noteOff",
        "noteNumber": 59,
        "velocity": 0
      },
      {
        "deltaTime": 9,
        "channel": 2,
        "type": "channel",
        "noteNumber": 69,
        "velocity": 23,
        "subtype": "noteOn"
      },
      {
        "deltaTime": 5,
        "channel": 2,
        "type": "channel",
        "noteNumber": 62,
        "velocity": 34,
        "subtype": "noteOn"
      },
      {
        "deltaTime": 24,
        "channel": 2,
        "type": "channel",
        "subtype": "noteOff",
        "noteNumber": 69,
        "velocity": 0
      },
      {
        "deltaTime": 36,
        "channel": 2,
        "type": "channel",
        "subtype": "noteOff",
        "noteNumber": 62,
        "velocity": 0
      },
      {
        "deltaTime": 31,
        "channel": 2,
        "type": "channel",
        "noteNumber": 52,
        "velocity": 26,
        "subtype": "noteOn"
      },
      {
        "deltaTime": 53,
        "channel": 2,
        "type": "channel",
        "subtype": "noteOff",
        "noteNumber": 52,
        "velocity": 0
      },
      {
        "deltaTime": 12,
        "channel": 2,
        "type": "channel",
        "noteNumber": 61,
        "velocity": 40,
        "subtype": "noteOn"
      },
      {
        "deltaTime": 29,
        "channel": 2,
        "type": "channel",
        "subtype": "noteOff",
        "noteNumber": 61,
        "velocity": 0
      },
      {
        "deltaTime": 125,
        "channel": 2,
        "type": "channel",
        "noteNumber": 64,
        "velocity": 14,
        "subtype": "noteOn"
      },
      {
        "deltaTime": 33,
        "channel": 2,
        "type": "channel",
        "subtype": "noteOff",
        "noteNumber": 64,
        "velocity": 0
      },
      {
        "deltaTime": 94,
        "channel": 2,
        "type": "channel",
        "noteNumber": 62,
        "velocity": 27,
        "subtype": "noteOn"
      },
      {
        "deltaTime": 34,
        "channel": 2,
        "type": "channel",
        "subtype": "noteOff",
        "noteNumber": 62,
        "velocity": 0
      },
      {
        "deltaTime": 182,
        "channel": 2,
        "type": "channel",
        "noteNumber": 66,
        "velocity": 33,
        "subtype": "noteOn"
      },
      {
        "deltaTime": 50,
        "channel": 2,
        "type": "channel",
        "subtype": "noteOff",
        "noteNumber": 66,
        "velocity": 0
      },
      {
        "deltaTime": 46,
        "channel": 2,
        "type": "channel",
        "noteNumber": 83,
        "velocity": 28,
        "subtype": "noteOn"
      },
      {
        "deltaTime": 34,
        "channel": 2,
        "type": "channel",
        "subtype": "noteOff",
        "noteNumber": 83,
        "velocity": 0
      },
      {
        "deltaTime": 52,
        "channel": 2,
        "type": "channel",
        "noteNumber": 42,
        "velocity": 11,
        "subtype": "noteOn"
      },
      {
        "deltaTime": 15,
        "channel": 2,
        "type": "channel",
        "noteNumber": 66,
        "velocity": 22,
        "subtype": "noteOn"
      },
      {
        "deltaTime": 2,
        "channel": 2,
        "type": "channel",
        "subtype": "noteOff",
        "noteNumber": 42,
        "velocity": 0
      },
      {
        "deltaTime": 55,
        "channel": 2,
        "type": "channel",
        "noteNumber": 78,
        "velocity": 16,
        "subtype": "noteOn"
      },
      {
        "deltaTime": 24,
        "channel": 2,
        "type": "channel",
        "subtype": "noteOff",
        "noteNumber": 66,
        "velocity": 0
      },
      {
        "deltaTime": 12,
        "channel": 2,
        "type": "channel",
        "subtype": "noteOff",
        "noteNumber": 78,
        "velocity": 0
      },
      {
        "deltaTime": 56,
        "channel": 2,
        "type": "channel",
        "noteNumber": 50,
        "velocity": 36,
        "subtype": "noteOn"
      },
      {
        "deltaTime": 19,
        "channel": 2,
        "type": "channel",
        "noteNumber": 38,
        "velocity": 32,
        "subtype": "noteOn"
      },
      {
        "deltaTime": 24,
        "channel": 2,
        "type": "channel",
        "subtype": "noteOff",
        "noteNumber": 38,
        "velocity": 0
      },
      {
        "deltaTime": 105,
        "channel": 2,
        "type": "channel",
        "subtype": "noteOff",
        "noteNumber": 50,
        "velocity": 0
      },
      {
        "deltaTime": 10,
        "channel": 2,
        "type": "channel",
        "noteNumber": 69,
        "velocity": 14,
        "subtype": "noteOn"
      },
      {
        "deltaTime": 17,
        "channel": 2,
        "type": "channel",
        "subtype": "noteOff",
        "noteNumber": 69,
        "velocity": 0
      },
      {
        "deltaTime": 0,
        "channel": 2,
        "type": "channel",
        "noteNumber": 62,
        "velocity": 14,
        "subtype": "noteOn"
      },
      {
        "deltaTime": 9,
        "channel": 2,
        "type": "channel",
        "subtype": "noteOff",
        "noteNumber": 62,
        "velocity": 0
      },
      {
        "deltaTime": 32,
        "channel": 2,
        "type": "channel",
        "noteNumber": 62,
        "velocity": 17,
        "subtype": "noteOn"
      },
      {
        "deltaTime": 43,
        "channel": 2,
        "type": "channel",
        "subtype": "noteOff",
        "noteNumber": 62,
        "velocity": 0
      },
      {
        "deltaTime": 53,
        "channel": 2,
        "type": "channel",
        "noteNumber": 88,
        "velocity": 42,
        "subtype": "noteOn"
      },
      {
        "deltaTime": 36,
        "channel": 2,
        "type": "channel",
        "subtype": "noteOff",
        "noteNumber": 88,
        "velocity": 0
      },
      {
        "deltaTime": 52,
        "channel": 2,
        "type": "channel",
        "noteNumber": 61,
        "velocity": 27,
        "subtype": "noteOn"
      },
      {
        "deltaTime": 22,
        "channel": 2,
        "type": "channel",
        "subtype": "noteOff",
        "noteNumber": 61,
        "velocity": 0
      },
      {
        "deltaTime": 12,
        "channel": 2,
        "type": "channel",
        "noteNumber": 71,
        "velocity": 11,
        "subtype": "noteOn"
      },
      {
        "deltaTime": 12,
        "channel": 2,
        "type": "channel",
        "noteNumber": 59,
        "velocity": 31,
        "subtype": "noteOn"
      },
      {
        "deltaTime": 5,
        "channel": 2,
        "type": "channel",
        "subtype": "noteOff",
        "noteNumber": 71,
        "velocity": 0
      },
      {
        "deltaTime": 14,
        "channel": 2,
        "type": "channel",
        "subtype": "noteOff",
        "noteNumber": 59,
        "velocity": 0
      },
      {
        "deltaTime": 17,
        "channel": 2,
        "type": "channel",
        "noteNumber": 32,
        "velocity": 12,
        "subtype": "noteOn"
      },
      {
        "deltaTime": 12,
        "channel": 2,
        "type": "channel",
        "subtype": "noteOff",
        "noteNumber": 32,
        "velocity": 0
      },
      {
        "deltaTime": 60,
        "channel": 2,
        "type": "channel",
        "noteNumber": 73,
        "velocity": 10,
        "subtype": "noteOn"
      },
      {
        "deltaTime": 19,
        "channel": 2,
        "type": "channel",
        "subtype": "noteOff",
        "noteNumber": 73,
        "velocity": 0
      },
      {
        "deltaTime": 5,
        "channel": 2,
        "type": "channel",
        "noteNumber": 61,
        "velocity": 10,
        "subtype": "noteOn"
      },
      {
        "deltaTime": 46,
        "channel": 2,
        "type": "channel",
        "subtype": "noteOff",
        "noteNumber": 61,
        "velocity": 0
      },
      {
        "deltaTime": 96,
        "channel": 2,
        "type": "channel",
        "noteNumber": 62,
        "velocity": 18,
        "subtype": "noteOn"
      },
      {
        "deltaTime": 36,
        "channel": 2,
        "type": "channel",
        "subtype": "noteOff",
        "noteNumber": 62,
        "velocity": 0
      },
      {
        "deltaTime": 88,
        "channel": 2,
        "type": "channel",
        "noteNumber": 102,
        "velocity": 11,
        "subtype": "noteOn"
      },
      {
        "deltaTime": 17,
        "channel": 2,
        "type": "channel",
        "subtype": "noteOff",
        "noteNumber": 102,
        "velocity": 0
      },
      {
        "deltaTime": 99,
        "channel": 2,
        "type": "channel",
        "noteNumber": 66,
        "velocity": 31,
        "subtype": "noteOn"
      },
      {
        "deltaTime": 31,
        "channel": 2,
        "type": "channel",
        "subtype": "noteOff",
        "noteNumber": 66,
        "velocity": 0
      },
      {
        "deltaTime": 43,
        "channel": 2,
        "type": "channel",
        "noteNumber": 102,
        "velocity": 30,
        "subtype": "noteOn"
      },
      {
        "deltaTime": 58,
        "channel": 2,
        "type": "channel",
        "noteNumber": 90,
        "velocity": 25,
        "subtype": "noteOn"
      },
      {
        "deltaTime": 14,
        "channel": 2,
        "type": "channel",
        "subtype": "noteOff",
        "noteNumber": 90,
        "velocity": 0
      },
      {
        "deltaTime": 2,
        "channel": 2,
        "type": "channel",
        "subtype": "noteOff",
        "noteNumber": 102,
        "velocity": 0
      },
      {
        "deltaTime": 12,
        "channel": 2,
        "type": "channel",
        "noteNumber": 102,
        "velocity": 26,
        "subtype": "noteOn"
      },
      {
        "deltaTime": 24,
        "channel": 2,
        "type": "channel",
        "subtype": "noteOff",
        "noteNumber": 102,
        "velocity": 0
      },
      {
        "deltaTime": 46,
        "channel": 2,
        "type": "channel",
        "noteNumber": 85,
        "velocity": 29,
        "subtype": "noteOn"
      },
      {
        "deltaTime": 17,
        "channel": 2,
        "type": "channel",
        "subtype": "noteOff",
        "noteNumber": 85,
        "velocity": 0
      },
      {
        "deltaTime": 41,
        "channel": 2,
        "type": "channel",
        "noteNumber": 57,
        "velocity": 26,
        "subtype": "noteOn"
      },
      {
        "deltaTime": 21,
        "channel": 2,
        "type": "channel",
        "subtype": "noteOff",
        "noteNumber": 57,
        "velocity": 0
      },
      {
        "deltaTime": 43,
        "channel": 2,
        "type": "channel",
        "noteNumber": 38,
        "velocity": 13,
        "subtype": "noteOn"
      },
      {
        "deltaTime": 15,
        "channel": 2,
        "type": "channel",
        "subtype": "noteOff",
        "noteNumber": 38,
        "velocity": 0
      },
      {
        "deltaTime": 21,
        "channel": 2,
        "type": "channel",
        "noteNumber": 62,
        "velocity": 15,
        "subtype": "noteOn"
      },
      {
        "deltaTime": 15,
        "channel": 2,
        "type": "channel",
        "subtype": "noteOff",
        "noteNumber": 62,
        "velocity": 0
      },
      {
        "deltaTime": 14,
        "channel": 2,
        "type": "channel",
        "noteNumber": 62,
        "velocity": 20,
        "subtype": "noteOn"
      },
      {
        "deltaTime": 51,
        "channel": 2,
        "type": "channel",
        "subtype": "noteOff",
        "noteNumber": 62,
        "velocity": 0
      },
      {
        "deltaTime": 21,
        "channel": 2,
        "type": "channel",
        "noteNumber": 50,
        "velocity": 28,
        "subtype": "noteOn"
      },
      {
        "deltaTime": 17,
        "channel": 2,
        "type": "channel",
        "subtype": "noteOff",
        "noteNumber": 50,
        "velocity": 0
      },
      {
        "deltaTime": 14,
        "channel": 2,
        "type": "channel",
        "noteNumber": 62,
        "velocity": 18,
        "subtype": "noteOn"
      },
      {
        "deltaTime": 3,
        "channel": 2,
        "type": "channel",
        "noteNumber": 57,
        "velocity": 28,
        "subtype": "noteOn"
      },
      {
        "deltaTime": 24,
        "channel": 2,
        "type": "channel",
        "subtype": "noteOff",
        "noteNumber": 62,
        "velocity": 0
      },
      {
        "deltaTime": 36,
        "channel": 2,
        "type": "channel",
        "subtype": "noteOff",
        "noteNumber": 57,
        "velocity": 0
      },
      {
        "deltaTime": 65,
        "channel": 2,
        "type": "channel",
        "noteNumber": 99,
        "velocity": 33,
        "subtype": "noteOn"
      },
      {
        "deltaTime": 98,
        "channel": 2,
        "type": "channel",
        "subtype": "noteOff",
        "noteNumber": 99,
        "velocity": 0
      },
      {
        "deltaTime": 12,
        "channel": 2,
        "type": "channel",
        "noteNumber": 61,
        "velocity": 35,
        "subtype": "noteOn"
      },
      {
        "deltaTime": 26,
        "channel": 2,
        "type": "channel",
        "subtype": "noteOff",
        "noteNumber": 61,
        "velocity": 0
      },
      {
        "deltaTime": 20,
        "channel": 2,
        "type": "channel",
        "noteNumber": 88,
        "velocity": 11,
        "subtype": "noteOn"
      },
      {
        "deltaTime": 21,
        "channel": 2,
        "type": "channel",
        "subtype": "noteOff",
        "noteNumber": 88,
        "velocity": 0
      },
      {
        "deltaTime": 29,
        "channel": 2,
        "type": "channel",
        "noteNumber": 33,
        "velocity": 27,
        "subtype": "noteOn"
      },
      {
        "deltaTime": 103,
        "channel": 2,
        "type": "channel",
        "noteNumber": 71,
        "velocity": 23,
        "subtype": "noteOn"
      },
      {
        "deltaTime": 5,
        "channel": 2,
        "type": "channel",
        "subtype": "noteOff",
        "noteNumber": 33,
        "velocity": 0
      },
      {
        "deltaTime": 24,
        "channel": 2,
        "type": "channel",
        "subtype": "noteOff",
        "noteNumber": 71,
        "velocity": 0
      },
      {
        "deltaTime": 10,
        "channel": 2,
        "type": "channel",
        "noteNumber": 71,
        "velocity": 27,
        "subtype": "noteOn"
      },
      {
        "deltaTime": 43,
        "channel": 2,
        "type": "channel",
        "subtype": "noteOff",
        "noteNumber": 71,
        "velocity": 0
      },
      {
        "deltaTime": 117,
        "channel": 2,
        "type": "channel",
        "noteNumber": 62,
        "velocity": 25,
        "subtype": "noteOn"
      },
      {
        "deltaTime": 5,
        "channel": 2,
        "type": "channel",
        "noteNumber": 59,
        "velocity": 27,
        "subtype": "noteOn"
      },
      {
        "deltaTime": 22,
        "channel": 2,
        "type": "channel",
        "subtype": "noteOff",
        "noteNumber": 62,
        "velocity": 0
      },
      {
        "deltaTime": 43,
        "channel": 2,
        "type": "channel",
        "subtype": "noteOff",
        "noteNumber": 59,
        "velocity": 0
      },
      {
        "deltaTime": 14,
        "channel": 2,
        "type": "channel",
        "noteNumber": 64,
        "velocity": 28,
        "subtype": "noteOn"
      },
      {
        "deltaTime": 8,
        "channel": 2,
        "type": "channel",
        "noteNumber": 47,
        "velocity": 21,
        "subtype": "noteOn"
      },
      {
        "deltaTime": 14,
        "channel": 2,
        "type": "channel",
        "subtype": "noteOff",
        "noteNumber": 47,
        "velocity": 0
      },
      {
        "deltaTime": 41,
        "channel": 2,
        "type": "channel",
        "subtype": "noteOff",
        "noteNumber": 64,
        "velocity": 0
      },
      {
        "deltaTime": 26,
        "channel": 2,
        "type": "channel",
        "noteNumber": 62,
        "velocity": 23,
        "subtype": "noteOn"
      },
      {
        "deltaTime": 87,
        "channel": 2,
        "type": "channel",
        "noteNumber": 83,
        "velocity": 16,
        "subtype": "noteOn"
      },
      {
        "deltaTime": 7,
        "channel": 2,
        "type": "channel",
        "subtype": "noteOff",
        "noteNumber": 62,
        "velocity": 0
      },
      {
        "deltaTime": 5,
        "channel": 2,
        "type": "channel",
        "subtype": "noteOff",
        "noteNumber": 83,
        "velocity": 0
      },
      {
        "deltaTime": 103,
        "channel": 2,
        "type": "channel",
        "noteNumber": 99,
        "velocity": 23,
        "subtype": "noteOn"
      },
      {
        "deltaTime": 5,
        "channel": 2,
        "type": "channel",
        "noteNumber": 59,
        "velocity": 27,
        "subtype": "noteOn"
      },
      {
        "deltaTime": 45,
        "channel": 2,
        "type": "channel",
        "subtype": "noteOff",
        "noteNumber": 99,
        "velocity": 0
      },
      {
        "deltaTime": 247,
        "channel": 2,
        "type": "channel",
        "subtype": "noteOff",
        "noteNumber": 59,
        "velocity": 0
      },
      {
        "deltaTime": 118,
        "channel": 2,
        "type": "channel",
        "noteNumber": 33,
        "velocity": 21,
        "subtype": "noteOn"
      },
      {
        "deltaTime": 271,
        "channel": 2,
        "type": "channel",
        "subtype": "noteOff",
        "noteNumber": 33,
        "velocity": 0
      },
      {
        "deltaTime": 77,
        "channel": 2,
        "type": "channel",
        "noteNumber": 64,
        "velocity": 10,
        "subtype": "noteOn"
      },
      {
        "deltaTime": 24,
        "channel": 2,
        "type": "channel",
        "subtype": "noteOff",
        "noteNumber": 64,
        "velocity": 0
      },
      {
        "deltaTime": 571,
        "channel": 2,
        "type": "channel",
        "noteNumber": 50,
        "velocity": 13,
        "subtype": "noteOn"
      },
      {
        "deltaTime": 166,
        "channel": 2,
        "type": "channel",
        "subtype": "noteOff",
        "noteNumber": 50,
        "velocity": 0
      },
      {
        "deltaTime": 156,
        "channel": 2,
        "type": "channel",
        "noteNumber": 45,
        "velocity": 26,
        "subtype": "noteOn"
      },
      {
        "deltaTime": 125,
        "channel": 2,
        "type": "channel",
        "noteNumber": 64,
        "velocity": 18,
        "subtype": "noteOn"
      },
      {
        "deltaTime": 67,
        "channel": 2,
        "type": "channel",
        "subtype": "noteOff",
        "noteNumber": 45,
        "velocity": 0
      },
      {
        "deltaTime": 72,
        "channel": 2,
        "type": "channel",
        "noteNumber": 74,
        "velocity": 10,
        "subtype": "noteOn"
      },
      {
        "deltaTime": 36,
        "channel": 2,
        "type": "channel",
        "subtype": "noteOff",
        "noteNumber": 74,
        "velocity": 0
      },
      {
        "deltaTime": 2,
        "channel": 2,
        "type": "channel",
        "subtype": "noteOff",
        "noteNumber": 64,
        "velocity": 0
      },
      {
        "deltaTime": 672,
        "channel": 2,
        "type": "channel",
        "noteNumber": 50,
        "velocity": 19,
        "subtype": "noteOn"
      },
      {
        "deltaTime": 70,
        "channel": 2,
        "type": "channel",
        "subtype": "noteOff",
        "noteNumber": 50,
        "velocity": 0
      },
      {
        "deltaTime": 233,
        "channel": 2,
        "type": "channel",
        "noteNumber": 45,
        "velocity": 25,
        "subtype": "noteOn"
      },
      {
        "deltaTime": 220,
        "channel": 2,
        "type": "channel",
        "subtype": "noteOff",
        "noteNumber": 45,
        "velocity": 0
      },
      {
        "deltaTime": 596,
        "channel": 2,
        "type": "channel",
        "noteNumber": 33,
        "velocity": 20,
        "subtype": "noteOn"
      },
      {
        "deltaTime": 141,
        "channel": 2,
        "type": "channel",
        "subtype": "noteOff",
        "noteNumber": 33,
        "velocity": 0
      },
      {
        "deltaTime": 319,
        "channel": 2,
        "type": "channel",
        "noteNumber": 62,
        "velocity": 14,
        "subtype": "noteOn"
      },
      {
        "deltaTime": 24,
        "channel": 2,
        "type": "channel",
        "noteNumber": 33,
        "velocity": 21,
        "subtype": "noteOn"
      },
      {
        "deltaTime": 22,
        "channel": 2,
        "type": "channel",
        "subtype": "noteOff",
        "noteNumber": 62,
        "velocity": 0
      },
      {
        "deltaTime": 182,
        "channel": 2,
        "type": "channel",
        "subtype": "noteOff",
        "noteNumber": 33,
        "velocity": 0
      },
      {
        "deltaTime": 75,
        "channel": 2,
        "type": "channel",
        "noteNumber": 95,
        "velocity": 18,
        "subtype": "noteOn"
      },
      {
        "deltaTime": 53,
        "channel": 2,
        "type": "channel",
        "subtype": "noteOff",
        "noteNumber": 95,
        "velocity": 0
      },
      {
        "deltaTime": 988,
        "channel": 2,
        "type": "channel",
        "noteNumber": 93,
        "velocity": 11,
        "subtype": "noteOn"
      },
      {
        "deltaTime": 27,
        "channel": 2,
        "type": "channel",
        "subtype": "noteOff",
        "noteNumber": 93,
        "velocity": 0
      },
      {
        "deltaTime": 7,
        "channel": 2,
        "type": "channel",
        "noteNumber": 41,
        "velocity": 39,
        "subtype": "noteOn"
      },
      {
        "deltaTime": 19,
        "channel": 2,
        "type": "channel",
        "subtype": "noteOff",
        "noteNumber": 41,
        "velocity": 0
      },
      {
        "deltaTime": 24,
        "channel": 2,
        "type": "channel",
        "noteNumber": 36,
        "velocity": 25,
        "subtype": "noteOn"
      },
      {
        "deltaTime": 17,
        "channel": 2,
        "type": "channel",
        "subtype": "noteOff",
        "noteNumber": 36,
        "velocity": 0
      },
      {
        "deltaTime": 0,
        "channel": 2,
        "type": "channel",
        "noteNumber": 39,
        "velocity": 42,
        "subtype": "noteOn"
      },
      {
        "deltaTime": 7,
        "channel": 2,
        "type": "channel",
        "noteNumber": 98,
        "velocity": 33,
        "subtype": "noteOn"
      },
      {
        "deltaTime": 22,
        "channel": 2,
        "type": "channel",
        "subtype": "noteOff",
        "noteNumber": 98,
        "velocity": 0
      },
      {
        "deltaTime": 5,
        "channel": 2,
        "type": "channel",
        "subtype": "noteOff",
        "noteNumber": 39,
        "velocity": 0
      },
      {
        "deltaTime": 45,
        "channel": 2,
        "type": "channel",
        "noteNumber": 60,
        "velocity": 24,
        "subtype": "noteOn"
      },
      {
        "deltaTime": 15,
        "channel": 2,
        "type": "channel",
        "noteNumber": 98,
        "velocity": 27,
        "subtype": "noteOn"
      },
      {
        "deltaTime": 9,
        "channel": 2,
        "type": "channel",
        "subtype": "noteOff",
        "noteNumber": 60,
        "velocity": 0
      },
      {
        "deltaTime": 7,
        "channel": 2,
        "type": "channel",
        "noteNumber": 60,
        "velocity": 28,
        "subtype": "noteOn"
      },
      {
        "deltaTime": 24,
        "channel": 2,
        "type": "channel",
        "subtype": "noteOff",
        "noteNumber": 98,
        "velocity": 0
      },
      {
        "deltaTime": 48,
        "channel": 2,
        "type": "channel",
        "subtype": "noteOff",
        "noteNumber": 60,
        "velocity": 0
      },
      {
        "deltaTime": 116,
        "channel": 2,
        "type": "channel",
        "noteNumber": 36,
        "velocity": 46,
        "subtype": "noteOn"
      },
      {
        "deltaTime": 67,
        "channel": 2,
        "type": "channel",
        "subtype": "noteOff",
        "noteNumber": 36,
        "velocity": 0
      },
      {
        "deltaTime": 153,
        "channel": 2,
        "type": "channel",
        "noteNumber": 38,
        "velocity": 46,
        "subtype": "noteOn"
      },
      {
        "deltaTime": 80,
        "channel": 2,
        "type": "channel",
        "subtype": "noteOff",
        "noteNumber": 38,
        "velocity": 0
      },
      {
        "deltaTime": 0,
        "channel": 2,
        "type": "channel",
        "noteNumber": 64,
        "velocity": 45,
        "subtype": "noteOn"
      },
      {
        "deltaTime": 31,
        "channel": 2,
        "type": "channel",
        "subtype": "noteOff",
        "noteNumber": 64,
        "velocity": 0
      },
      {
        "deltaTime": 12,
        "channel": 2,
        "type": "channel",
        "noteNumber": 38,
        "velocity": 39,
        "subtype": "noteOn"
      },
      {
        "deltaTime": 19,
        "channel": 2,
        "type": "channel",
        "noteNumber": 105,
        "velocity": 23,
        "subtype": "noteOn"
      },
      {
        "deltaTime": 10,
        "channel": 2,
        "type": "channel",
        "subtype": "noteOff",
        "noteNumber": 105,
        "velocity": 0
      },
      {
        "deltaTime": 2,
        "channel": 2,
        "type": "channel",
        "noteNumber": 77,
        "velocity": 25,
        "subtype": "noteOn"
      },
      {
        "deltaTime": 17,
        "channel": 2,
        "type": "channel",
        "subtype": "noteOff",
        "noteNumber": 77,
        "velocity": 0
      },
      {
        "deltaTime": 62,
        "channel": 2,
        "type": "channel",
        "subtype": "noteOff",
        "noteNumber": 38,
        "velocity": 0
      },
      {
        "deltaTime": 48,
        "channel": 2,
        "type": "channel",
        "noteNumber": 77,
        "velocity": 15,
        "subtype": "noteOn"
      },
      {
        "deltaTime": 15,
        "channel": 2,
        "type": "channel",
        "subtype": "noteOff",
        "noteNumber": 77,
        "velocity": 0
      },
      {
        "deltaTime": 2,
        "channel": 2,
        "type": "channel",
        "noteNumber": 77,
        "velocity": 27,
        "subtype": "noteOn"
      },
      {
        "deltaTime": 26,
        "channel": 2,
        "type": "channel",
        "noteNumber": 105,
        "velocity": 23,
        "subtype": "noteOn"
      },
      {
        "deltaTime": 3,
        "channel": 2,
        "type": "channel",
        "subtype": "noteOff",
        "noteNumber": 77,
        "velocity": 0
      },
      {
        "deltaTime": 19,
        "channel": 2,
        "type": "channel",
        "subtype": "noteOff",
        "noteNumber": 105,
        "velocity": 0
      },
      {
        "deltaTime": 12,
        "channel": 2,
        "type": "channel",
        "noteNumber": 65,
        "velocity": 27,
        "subtype": "noteOn"
      },
      {
        "deltaTime": 36,
        "channel": 2,
        "type": "channel",
        "subtype": "noteOff",
        "noteNumber": 65,
        "velocity": 0
      },
      {
        "deltaTime": 26,
        "channel": 2,
        "type": "channel",
        "noteNumber": 36,
        "velocity": 28,
        "subtype": "noteOn"
      },
      {
        "deltaTime": 17,
        "channel": 2,
        "type": "channel",
        "subtype": "noteOff",
        "noteNumber": 36,
        "velocity": 0
      },
      {
        "deltaTime": 12,
        "channel": 2,
        "type": "channel",
        "noteNumber": 81,
        "velocity": 43,
        "subtype": "noteOn"
      },
      {
        "deltaTime": 27,
        "channel": 2,
        "type": "channel",
        "noteNumber": 93,
        "velocity": 41,
        "subtype": "noteOn"
      },
      {
        "deltaTime": 28,
        "channel": 2,
        "type": "channel",
        "subtype": "noteOff",
        "noteNumber": 93,
        "velocity": 0
      },
      {
        "deltaTime": 106,
        "channel": 2,
        "type": "channel",
        "noteNumber": 46,
        "velocity": 41,
        "subtype": "noteOn"
      },
      {
        "deltaTime": 10,
        "channel": 2,
        "type": "channel",
        "subtype": "noteOff",
        "noteNumber": 81,
        "velocity": 0
      },
      {
        "deltaTime": 12,
        "channel": 2,
        "type": "channel",
        "noteNumber": 53,
        "velocity": 26,
        "subtype": "noteOn"
      },
      {
        "deltaTime": 74,
        "channel": 2,
        "type": "channel",
        "subtype": "noteOff",
        "noteNumber": 53,
        "velocity": 0
      },
      {
        "deltaTime": 77,
        "channel": 2,
        "type": "channel",
        "noteNumber": 34,
        "velocity": 31,
        "subtype": "noteOn"
      },
      {
        "deltaTime": 17,
        "channel": 2,
        "type": "channel",
        "subtype": "noteOff",
        "noteNumber": 46,
        "velocity": 0
      },
      {
        "deltaTime": 0,
        "channel": 2,
        "type": "channel",
        "noteNumber": 60,
        "velocity": 26,
        "subtype": "noteOn"
      },
      {
        "deltaTime": 2,
        "channel": 2,
        "type": "channel",
        "subtype": "noteOff",
        "noteNumber": 34,
        "velocity": 0
      },
      {
        "deltaTime": 31,
        "channel": 2,
        "type": "channel",
        "subtype": "noteOff",
        "noteNumber": 60,
        "velocity": 0
      },
      {
        "deltaTime": 10,
        "channel": 2,
        "type": "channel",
        "noteNumber": 60,
        "velocity": 21,
        "subtype": "noteOn"
      },
      {
        "deltaTime": 19,
        "channel": 2,
        "type": "channel",
        "subtype": "noteOff",
        "noteNumber": 60,
        "velocity": 0
      },
      {
        "deltaTime": 96,
        "channel": 2,
        "type": "channel",
        "noteNumber": 55,
        "velocity": 23,
        "subtype": "noteOn"
      },
      {
        "deltaTime": 24,
        "channel": 2,
        "type": "channel",
        "noteNumber": 95,
        "velocity": 42,
        "subtype": "noteOn"
      },
      {
        "deltaTime": 2,
        "channel": 2,
        "type": "channel",
        "subtype": "noteOff",
        "noteNumber": 55,
        "velocity": 0
      },
      {
        "deltaTime": 10,
        "channel": 2,
        "type": "channel",
        "noteNumber": 64,
        "velocity": 54,
        "subtype": "noteOn"
      },
      {
        "deltaTime": 10,
        "channel": 2,
        "type": "channel",
        "subtype": "noteOff",
        "noteNumber": 95,
        "velocity": 0
      },
      {
        "deltaTime": 2,
        "channel": 2,
        "type": "channel",
        "noteNumber": 95,
        "velocity": 49,
        "subtype": "noteOn"
      },
      {
        "deltaTime": 17,
        "channel": 2,
        "type": "channel",
        "noteNumber": 100,
        "velocity": 47,
        "subtype": "noteOn"
      },
      {
        "deltaTime": 2,
        "channel": 2,
        "type": "channel",
        "subtype": "noteOff",
        "noteNumber": 95,
        "velocity": 0
      },
      {
        "deltaTime": 7,
        "channel": 2,
        "type": "channel",
        "subtype": "noteOff",
        "noteNumber": 100,
        "velocity": 0
      },
      {
        "deltaTime": 60,
        "channel": 2,
        "type": "channel",
        "noteNumber": 100,
        "velocity": 37,
        "subtype": "noteOn"
      },
      {
        "deltaTime": 15,
        "channel": 2,
        "type": "channel",
        "noteNumber": 62,
        "velocity": 38,
        "subtype": "noteOn"
      },
      {
        "deltaTime": 14,
        "channel": 2,
        "type": "channel",
        "subtype": "noteOff",
        "noteNumber": 100,
        "velocity": 0
      },
      {
        "deltaTime": 111,
        "channel": 2,
        "type": "channel",
        "subtype": "noteOff",
        "noteNumber": 64,
        "velocity": 0
      },
      {
        "deltaTime": 50,
        "channel": 2,
        "type": "channel",
        "subtype": "noteOff",
        "noteNumber": 62,
        "velocity": 0
      },
      {
        "deltaTime": 41,
        "channel": 2,
        "type": "channel",
        "noteNumber": 105,
        "velocity": 40,
        "subtype": "noteOn"
      },
      {
        "deltaTime": 31,
        "channel": 2,
        "type": "channel",
        "subtype": "noteOff",
        "noteNumber": 105,
        "velocity": 0
      },
      {
        "deltaTime": 5,
        "channel": 2,
        "type": "channel",
        "noteNumber": 64,
        "velocity": 51,
        "subtype": "noteOn"
      },
      {
        "deltaTime": 24,
        "channel": 2,
        "type": "channel",
        "noteNumber": 50,
        "velocity": 54,
        "subtype": "noteOn"
      },
      {
        "deltaTime": 2,
        "channel": 2,
        "type": "channel",
        "subtype": "noteOff",
        "noteNumber": 64,
        "velocity": 0
      },
      {
        "deltaTime": 34,
        "channel": 2,
        "type": "channel",
        "subtype": "noteOff",
        "noteNumber": 50,
        "velocity": 0
      },
      {
        "deltaTime": 14,
        "channel": 2,
        "type": "channel",
        "noteNumber": 64,
        "velocity": 44,
        "subtype": "noteOn"
      },
      {
        "deltaTime": 39,
        "channel": 2,
        "type": "channel",
        "noteNumber": 89,
        "velocity": 12,
        "subtype": "noteOn"
      },
      {
        "deltaTime": 12,
        "channel": 2,
        "type": "channel",
        "subtype": "noteOff",
        "noteNumber": 64,
        "velocity": 0
      },
      {
        "deltaTime": 2,
        "channel": 2,
        "type": "channel",
        "subtype": "noteOff",
        "noteNumber": 89,
        "velocity": 0
      },
      {
        "deltaTime": 38,
        "channel": 2,
        "type": "channel",
        "noteNumber": 64,
        "velocity": 16,
        "subtype": "noteOn"
      },
      {
        "deltaTime": 15,
        "channel": 2,
        "type": "channel",
        "subtype": "noteOff",
        "noteNumber": 64,
        "velocity": 0
      },
      {
        "deltaTime": 53,
        "channel": 2,
        "type": "channel",
        "noteNumber": 77,
        "velocity": 40,
        "subtype": "noteOn"
      },
      {
        "deltaTime": 16,
        "channel": 2,
        "type": "channel",
        "subtype": "noteOff",
        "noteNumber": 77,
        "velocity": 0
      },
      {
        "deltaTime": 36,
        "channel": 2,
        "type": "channel",
        "noteNumber": 105,
        "velocity": 34,
        "subtype": "noteOn"
      },
      {
        "deltaTime": 24,
        "channel": 2,
        "type": "channel",
        "subtype": "noteOff",
        "noteNumber": 105,
        "velocity": 0
      },
      {
        "deltaTime": 20,
        "channel": 2,
        "type": "channel",
        "noteNumber": 38,
        "velocity": 36,
        "subtype": "noteOn"
      },
      {
        "deltaTime": 26,
        "channel": 2,
        "type": "channel",
        "subtype": "noteOff",
        "noteNumber": 38,
        "velocity": 0
      },
      {
        "deltaTime": 10,
        "channel": 2,
        "type": "channel",
        "noteNumber": 86,
        "velocity": 19,
        "subtype": "noteOn"
      },
      {
        "deltaTime": 19,
        "channel": 2,
        "type": "channel",
        "subtype": "noteOff",
        "noteNumber": 86,
        "velocity": 0
      },
      {
        "deltaTime": 17,
        "channel": 2,
        "type": "channel",
        "noteNumber": 104,
        "velocity": 25,
        "subtype": "noteOn"
      },
      {
        "deltaTime": 21,
        "channel": 2,
        "type": "channel",
        "subtype": "noteOff",
        "noteNumber": 104,
        "velocity": 0
      },
      {
        "deltaTime": 12,
        "channel": 2,
        "type": "channel",
        "noteNumber": 64,
        "velocity": 35,
        "subtype": "noteOn"
      },
      {
        "deltaTime": 79,
        "channel": 2,
        "type": "channel",
        "subtype": "noteOff",
        "noteNumber": 64,
        "velocity": 0
      },
      {
        "deltaTime": 17,
        "channel": 2,
        "type": "channel",
        "noteNumber": 46,
        "velocity": 32,
        "subtype": "noteOn"
      },
      {
        "deltaTime": 19,
        "channel": 2,
        "type": "channel",
        "noteNumber": 98,
        "velocity": 30,
        "subtype": "noteOn"
      },
      {
        "deltaTime": 10,
        "channel": 2,
        "type": "channel",
        "subtype": "noteOff",
        "noteNumber": 98,
        "velocity": 0
      },
      {
        "deltaTime": 36,
        "channel": 2,
        "type": "channel",
        "noteNumber": 86,
        "velocity": 27,
        "subtype": "noteOn"
      },
      {
        "deltaTime": 10,
        "channel": 2,
        "type": "channel",
        "subtype": "noteOff",
        "noteNumber": 86,
        "velocity": 0
      },
      {
        "deltaTime": 24,
        "channel": 2,
        "type": "channel",
        "subtype": "noteOff",
        "noteNumber": 46,
        "velocity": 0
      },
      {
        "deltaTime": 14,
        "channel": 2,
        "type": "channel",
        "noteNumber": 60,
        "velocity": 31,
        "subtype": "noteOn"
      },
      {
        "deltaTime": 29,
        "channel": 2,
        "type": "channel",
        "subtype": "noteOff",
        "noteNumber": 60,
        "velocity": 0
      },
      {
        "deltaTime": 14,
        "channel": 2,
        "type": "channel",
        "noteNumber": 98,
        "velocity": 20,
        "subtype": "noteOn"
      },
      {
        "deltaTime": 19,
        "channel": 2,
        "type": "channel",
        "subtype": "noteOff",
        "noteNumber": 98,
        "velocity": 0
      },
      {
        "deltaTime": 22,
        "channel": 2,
        "type": "channel",
        "noteNumber": 46,
        "velocity": 22,
        "subtype": "noteOn"
      },
      {
        "deltaTime": 65,
        "channel": 2,
        "type": "channel",
        "subtype": "noteOff",
        "noteNumber": 46,
        "velocity": 0
      },
      {
        "deltaTime": 2,
        "channel": 2,
        "type": "channel",
        "noteNumber": 98,
        "velocity": 11,
        "subtype": "noteOn"
      },
      {
        "deltaTime": 27,
        "channel": 2,
        "type": "channel",
        "subtype": "noteOff",
        "noteNumber": 98,
        "velocity": 0
      },
      {
        "deltaTime": 2,
        "channel": 2,
        "type": "channel",
        "noteNumber": 36,
        "velocity": 14,
        "subtype": "noteOn"
      },
      {
        "deltaTime": 2,
        "channel": 2,
        "type": "channel",
        "noteNumber": 86,
        "velocity": 21,
        "subtype": "noteOn"
      },
      {
        "deltaTime": 8,
        "channel": 2,
        "type": "channel",
        "subtype": "noteOff",
        "noteNumber": 36,
        "velocity": 0
      },
      {
        "deltaTime": 43,
        "channel": 2,
        "type": "channel",
        "subtype": "noteOff",
        "noteNumber": 86,
        "velocity": 0
      },
      {
        "deltaTime": 103,
        "channel": 2,
        "type": "channel",
        "noteNumber": 36,
        "velocity": 49,
        "subtype": "noteOn"
      },
      {
        "deltaTime": 65,
        "channel": 2,
        "type": "channel",
        "subtype": "noteOff",
        "noteNumber": 36,
        "velocity": 0
      },
      {
        "deltaTime": 14,
        "channel": 2,
        "type": "channel",
        "noteNumber": 36,
        "velocity": 36,
        "subtype": "noteOn"
      },
      {
        "deltaTime": 89,
        "channel": 2,
        "type": "channel",
        "subtype": "noteOff",
        "noteNumber": 36,
        "velocity": 0
      },
      {
        "deltaTime": 26,
        "channel": 2,
        "type": "channel",
        "noteNumber": 50,
        "velocity": 45,
        "subtype": "noteOn"
      },
      {
        "deltaTime": 29,
        "channel": 2,
        "type": "channel",
        "noteNumber": 36,
        "velocity": 19,
        "subtype": "noteOn"
      },
      {
        "deltaTime": 10,
        "channel": 2,
        "type": "channel",
        "subtype": "noteOff",
        "noteNumber": 36,
        "velocity": 0
      },
      {
        "deltaTime": 53,
        "channel": 2,
        "type": "channel",
        "subtype": "noteOff",
        "noteNumber": 50,
        "velocity": 0
      },
      {
        "deltaTime": 36,
        "channel": 2,
        "type": "channel",
        "noteNumber": 88,
        "velocity": 42,
        "subtype": "noteOn"
      },
      {
        "deltaTime": 9,
        "channel": 2,
        "type": "channel",
        "subtype": "noteOff",
        "noteNumber": 88,
        "velocity": 0
      },
      {
        "deltaTime": 24,
        "channel": 2,
        "type": "channel",
        "noteNumber": 101,
        "velocity": 23,
        "subtype": "noteOn"
      },
      {
        "deltaTime": 31,
        "channel": 2,
        "type": "channel",
        "subtype": "noteOff",
        "noteNumber": 101,
        "velocity": 0
      },
      {
        "deltaTime": 3,
        "channel": 2,
        "type": "channel",
        "noteNumber": 89,
        "velocity": 20,
        "subtype": "noteOn"
      },
      {
        "deltaTime": 14,
        "channel": 2,
        "type": "channel",
        "noteNumber": 36,
        "velocity": 10,
        "subtype": "noteOn"
      },
      {
        "deltaTime": 5,
        "channel": 2,
        "type": "channel",
        "subtype": "noteOff",
        "noteNumber": 89,
        "velocity": 0
      },
      {
        "deltaTime": 10,
        "channel": 2,
        "type": "channel",
        "subtype": "noteOff",
        "noteNumber": 36,
        "velocity": 0
      },
      {
        "deltaTime": 21,
        "channel": 2,
        "type": "channel",
        "noteNumber": 84,
        "velocity": 10,
        "subtype": "noteOn"
      },
      {
        "deltaTime": 43,
        "channel": 2,
        "type": "channel",
        "subtype": "noteOff",
        "noteNumber": 84,
        "velocity": 0
      },
      {
        "deltaTime": 27,
        "channel": 2,
        "type": "channel",
        "noteNumber": 38,
        "velocity": 31,
        "subtype": "noteOn"
      },
      {
        "deltaTime": 12,
        "channel": 2,
        "type": "channel",
        "noteNumber": 89,
        "velocity": 41,
        "subtype": "noteOn"
      },
      {
        "deltaTime": 17,
        "channel": 2,
        "type": "channel",
        "subtype": "noteOff",
        "noteNumber": 38,
        "velocity": 0
      },
      {
        "deltaTime": 28,
        "channel": 2,
        "type": "channel",
        "subtype": "noteOff",
        "noteNumber": 89,
        "velocity": 0
      },
      {
        "deltaTime": 12,
        "channel": 2,
        "type": "channel",
        "noteNumber": 65,
        "velocity": 41,
        "subtype": "noteOn"
      },
      {
        "deltaTime": 36,
        "channel": 2,
        "type": "channel",
        "subtype": "noteOff",
        "noteNumber": 65,
        "velocity": 0
      },
      {
        "deltaTime": 10,
        "channel": 2,
        "type": "channel",
        "noteNumber": 101,
        "velocity": 28,
        "subtype": "noteOn"
      },
      {
        "deltaTime": 26,
        "channel": 2,
        "type": "channel",
        "subtype": "noteOff",
        "noteNumber": 101,
        "velocity": 0
      },
      {
        "deltaTime": 58,
        "channel": 2,
        "type": "channel",
        "noteNumber": 93,
        "velocity": 33,
        "subtype": "noteOn"
      },
      {
        "deltaTime": 26,
        "channel": 2,
        "type": "channel",
        "subtype": "noteOff",
        "noteNumber": 93,
        "velocity": 0
      },
      {
        "deltaTime": 17,
        "channel": 2,
        "type": "channel",
        "noteNumber": 93,
        "velocity": 35,
        "subtype": "noteOn"
      },
      {
        "deltaTime": 12,
        "channel": 2,
        "type": "channel",
        "subtype": "noteOff",
        "noteNumber": 93,
        "velocity": 0
      },
      {
        "deltaTime": 5,
        "channel": 2,
        "type": "channel",
        "noteNumber": 93,
        "velocity": 30,
        "subtype": "noteOn"
      },
      {
        "deltaTime": 41,
        "channel": 2,
        "type": "channel",
        "subtype": "noteOff",
        "noteNumber": 93,
        "velocity": 0
      },
      {
        "deltaTime": 24,
        "channel": 2,
        "type": "channel",
        "noteNumber": 46,
        "velocity": 42,
        "subtype": "noteOn"
      },
      {
        "deltaTime": 158,
        "channel": 2,
        "type": "channel",
        "noteNumber": 98,
        "velocity": 33,
        "subtype": "noteOn"
      },
      {
        "deltaTime": 22,
        "channel": 2,
        "type": "channel",
        "subtype": "noteOff",
        "noteNumber": 98,
        "velocity": 0
      },
      {
        "deltaTime": 7,
        "channel": 2,
        "type": "channel",
        "subtype": "noteOff",
        "noteNumber": 46,
        "velocity": 0
      },
      {
        "deltaTime": 34,
        "channel": 2,
        "type": "channel",
        "noteNumber": 98,
        "velocity": 19,
        "subtype": "noteOn"
      },
      {
        "deltaTime": 14,
        "channel": 2,
        "type": "channel",
        "subtype": "noteOff",
        "noteNumber": 98,
        "velocity": 0
      },
      {
        "deltaTime": 79,
        "channel": 2,
        "type": "channel",
        "noteNumber": 35,
        "velocity": 14,
        "subtype": "noteOn"
      },
      {
        "deltaTime": 15,
        "channel": 2,
        "type": "channel",
        "noteNumber": 88,
        "velocity": 36,
        "subtype": "noteOn"
      },
      {
        "deltaTime": 4,
        "channel": 2,
        "type": "channel",
        "subtype": "noteOff",
        "noteNumber": 35,
        "velocity": 0
      },
      {
        "deltaTime": 48,
        "channel": 2,
        "type": "channel",
        "noteNumber": 64,
        "velocity": 49,
        "subtype": "noteOn"
      },
      {
        "deltaTime": 24,
        "channel": 2,
        "type": "channel",
        "noteNumber": 36,
        "velocity": 41,
        "subtype": "noteOn"
      },
      {
        "deltaTime": 10,
        "channel": 2,
        "type": "channel",
        "subtype": "noteOff",
        "noteNumber": 88,
        "velocity": 0
      },
      {
        "deltaTime": 7,
        "channel": 2,
        "type": "channel",
        "subtype": "noteOff",
        "noteNumber": 36,
        "velocity": 0
      },
      {
        "deltaTime": 5,
        "channel": 2,
        "type": "channel",
        "noteNumber": 88,
        "velocity": 54,
        "subtype": "noteOn"
      },
      {
        "deltaTime": 19,
        "channel": 2,
        "type": "channel",
        "subtype": "noteOff",
        "noteNumber": 64,
        "velocity": 0
      },
      {
        "deltaTime": 19,
        "channel": 2,
        "type": "channel",
        "subtype": "noteOff",
        "noteNumber": 88,
        "velocity": 0
      },
      {
        "deltaTime": 221,
        "channel": 2,
        "type": "channel",
        "noteNumber": 86,
        "velocity": 47,
        "subtype": "noteOn"
      },
      {
        "deltaTime": 10,
        "channel": 2,
        "type": "channel",
        "subtype": "noteOff",
        "noteNumber": 86,
        "velocity": 0
      },
      {
        "deltaTime": 5,
        "channel": 2,
        "type": "channel",
        "noteNumber": 98,
        "velocity": 46,
        "subtype": "noteOn"
      },
      {
        "deltaTime": 48,
        "channel": 2,
        "type": "channel",
        "noteNumber": 64,
        "velocity": 47,
        "subtype": "noteOn"
      },
      {
        "deltaTime": 12,
        "channel": 2,
        "type": "channel",
        "subtype": "noteOff",
        "noteNumber": 98,
        "velocity": 0
      },
      {
        "deltaTime": 14,
        "channel": 2,
        "type": "channel",
        "subtype": "noteOff",
        "noteNumber": 64,
        "velocity": 0
      },
      {
        "deltaTime": 24,
        "channel": 2,
        "type": "channel",
        "noteNumber": 65,
        "velocity": 42,
        "subtype": "noteOn"
      },
      {
        "deltaTime": 17,
        "channel": 2,
        "type": "channel",
        "subtype": "noteOff",
        "noteNumber": 65,
        "velocity": 0
      },
      {
        "deltaTime": 127,
        "channel": 2,
        "type": "channel",
        "noteNumber": 98,
        "velocity": 27,
        "subtype": "noteOn"
      },
      {
        "deltaTime": 5,
        "channel": 2,
        "type": "channel",
        "noteNumber": 86,
        "velocity": 41,
        "subtype": "noteOn"
      },
      {
        "deltaTime": 7,
        "channel": 2,
        "type": "channel",
        "subtype": "noteOff",
        "noteNumber": 98,
        "velocity": 0
      },
      {
        "deltaTime": 0,
        "channel": 2,
        "type": "channel",
        "noteNumber": 74,
        "velocity": 38,
        "subtype": "noteOn"
      },
      {
        "deltaTime": 17,
        "channel": 2,
        "type": "channel",
        "subtype": "noteOff",
        "noteNumber": 74,
        "velocity": 0
      },
      {
        "deltaTime": 7,
        "channel": 2,
        "type": "channel",
        "subtype": "noteOff",
        "noteNumber": 86,
        "velocity": 0
      },
      {
        "deltaTime": 5,
        "channel": 2,
        "type": "channel",
        "noteNumber": 86,
        "velocity": 26,
        "subtype": "noteOn"
      },
      {
        "deltaTime": 12,
        "channel": 2,
        "type": "channel",
        "subtype": "noteOff",
        "noteNumber": 86,
        "velocity": 0
      },
      {
        "deltaTime": 0,
        "channel": 2,
        "type": "channel",
        "noteNumber": 38,
        "velocity": 19,
        "subtype": "noteOn"
      },
      {
        "deltaTime": 24,
        "channel": 2,
        "type": "channel",
        "subtype": "noteOff",
        "noteNumber": 38,
        "velocity": 0
      },
      {
        "deltaTime": 7,
        "channel": 2,
        "type": "channel",
        "noteNumber": 65,
        "velocity": 31,
        "subtype": "noteOn"
      },
      {
        "deltaTime": 36,
        "channel": 2,
        "type": "channel",
        "subtype": "noteOff",
        "noteNumber": 65,
        "velocity": 0
      },
      {
        "deltaTime": 67,
        "channel": 2,
        "type": "channel",
        "noteNumber": 86,
        "velocity": 23,
        "subtype": "noteOn"
      },
      {
        "deltaTime": 10,
        "channel": 2,
        "type": "channel",
        "subtype": "noteOff",
        "noteNumber": 86,
        "velocity": 0
      },
      {
        "deltaTime": 144,
        "channel": 2,
        "type": "channel",
        "noteNumber": 96,
        "velocity": 31,
        "subtype": "noteOn"
      },
      {
        "deltaTime": 12,
        "channel": 2,
        "type": "channel",
        "subtype": "noteOff",
        "noteNumber": 96,
        "velocity": 0
      },
      {
        "deltaTime": 12,
        "channel": 2,
        "type": "channel",
        "noteNumber": 96,
        "velocity": 16,
        "subtype": "noteOn"
      },
      {
        "deltaTime": 12,
        "channel": 2,
        "type": "channel",
        "subtype": "noteOff",
        "noteNumber": 96,
        "velocity": 0
      },
      {
        "deltaTime": 5,
        "channel": 2,
        "type": "channel",
        "noteNumber": 34,
        "velocity": 29,
        "subtype": "noteOn"
      },
      {
        "deltaTime": 64,
        "channel": 2,
        "type": "channel",
        "subtype": "noteOff",
        "noteNumber": 34,
        "velocity": 0
      },
      {
        "deltaTime": 0,
        "channel": 2,
        "type": "channel",
        "noteNumber": 60,
        "velocity": 29,
        "subtype": "noteOn"
      },
      {
        "deltaTime": 29,
        "channel": 2,
        "type": "channel",
        "subtype": "noteOff",
        "noteNumber": 60,
        "velocity": 0
      },
      {
        "deltaTime": 7,
        "channel": 2,
        "type": "channel",
        "noteNumber": 93,
        "velocity": 41,
        "subtype": "noteOn"
      },
      {
        "deltaTime": 12,
        "channel": 2,
        "type": "channel",
        "subtype": "noteOff",
        "noteNumber": 93,
        "velocity": 0
      },
      {
        "deltaTime": 41,
        "channel": 2,
        "type": "channel",
        "noteNumber": 46,
        "velocity": 27,
        "subtype": "noteOn"
      },
      {
        "deltaTime": 24,
        "channel": 2,
        "type": "channel",
        "subtype": "noteOff",
        "noteNumber": 46,
        "velocity": 0
      },
      {
        "deltaTime": 15,
        "channel": 2,
        "type": "channel",
        "noteNumber": 86,
        "velocity": 20,
        "subtype": "noteOn"
      },
      {
        "deltaTime": 33,
        "channel": 2,
        "type": "channel",
        "subtype": "noteOff",
        "noteNumber": 86,
        "velocity": 0
      },
      {
        "deltaTime": 10,
        "channel": 2,
        "type": "channel",
        "noteNumber": 98,
        "velocity": 15,
        "subtype": "noteOn"
      },
      {
        "deltaTime": 14,
        "channel": 2,
        "type": "channel",
        "subtype": "noteOff",
        "noteNumber": 98,
        "velocity": 0
      },
      {
        "deltaTime": 0,
        "channel": 2,
        "type": "channel",
        "noteNumber": 38,
        "velocity": 15,
        "subtype": "noteOn"
      },
      {
        "deltaTime": 17,
        "channel": 2,
        "type": "channel",
        "subtype": "noteOff",
        "noteNumber": 38,
        "velocity": 0
      },
      {
        "deltaTime": 41,
        "channel": 2,
        "type": "channel",
        "noteNumber": 95,
        "velocity": 37,
        "subtype": "noteOn"
      },
      {
        "deltaTime": 21,
        "channel": 2,
        "type": "channel",
        "subtype": "noteOff",
        "noteNumber": 95,
        "velocity": 0
      },
      {
        "deltaTime": 3,
        "channel": 2,
        "type": "channel",
        "noteNumber": 95,
        "velocity": 49,
        "subtype": "noteOn"
      },
      {
        "deltaTime": 151,
        "channel": 2,
        "type": "channel",
        "noteNumber": 36,
        "velocity": 35,
        "subtype": "noteOn"
      },
      {
        "deltaTime": 7,
        "channel": 2,
        "type": "channel",
        "subtype": "noteOff",
        "noteNumber": 95,
        "velocity": 0
      },
      {
        "deltaTime": 58,
        "channel": 2,
        "type": "channel",
        "subtype": "noteOff",
        "noteNumber": 36,
        "velocity": 0
      },
      {
        "deltaTime": 115,
        "channel": 2,
        "type": "channel",
        "noteNumber": 65,
        "velocity": 39,
        "subtype": "noteOn"
      },
      {
        "deltaTime": 34,
        "channel": 2,
        "type": "channel",
        "subtype": "noteOff",
        "noteNumber": 65,
        "velocity": 0
      },
      {
        "deltaTime": 7,
        "channel": 2,
        "type": "channel",
        "noteNumber": 64,
        "velocity": 46,
        "subtype": "noteOn"
      },
      {
        "deltaTime": 31,
        "channel": 2,
        "type": "channel",
        "subtype": "noteOff",
        "noteNumber": 64,
        "velocity": 0
      },
      {
        "deltaTime": 12,
        "channel": 2,
        "type": "channel",
        "noteNumber": 38,
        "velocity": 41,
        "subtype": "noteOn"
      },
      {
        "deltaTime": 60,
        "channel": 2,
        "type": "channel",
        "noteNumber": 105,
        "velocity": 11,
        "subtype": "noteOn"
      },
      {
        "deltaTime": 12,
        "channel": 2,
        "type": "channel",
        "subtype": "noteOff",
        "noteNumber": 105,
        "velocity": 0
      },
      {
        "deltaTime": 41,
        "channel": 2,
        "type": "channel",
        "subtype": "noteOff",
        "noteNumber": 38,
        "velocity": 0
      },
      {
        "deltaTime": 43,
        "channel": 2,
        "type": "channel",
        "noteNumber": 62,
        "velocity": 26,
        "subtype": "noteOn"
      },
      {
        "deltaTime": 29,
        "channel": 2,
        "type": "channel",
        "subtype": "noteOff",
        "noteNumber": 62,
        "velocity": 0
      },
      {
        "deltaTime": 33,
        "channel": 2,
        "type": "channel",
        "noteNumber": 101,
        "velocity": 32,
        "subtype": "noteOn"
      },
      {
        "deltaTime": 15,
        "channel": 2,
        "type": "channel",
        "subtype": "noteOff",
        "noteNumber": 101,
        "velocity": 0
      },
      {
        "deltaTime": 5,
        "channel": 2,
        "type": "channel",
        "noteNumber": 101,
        "velocity": 26,
        "subtype": "noteOn"
      },
      {
        "deltaTime": 33,
        "channel": 2,
        "type": "channel",
        "subtype": "noteOff",
        "noteNumber": 101,
        "velocity": 0
      },
      {
        "deltaTime": 10,
        "channel": 2,
        "type": "channel",
        "noteNumber": 64,
        "velocity": 28,
        "subtype": "noteOn"
      },
      {
        "deltaTime": 21,
        "channel": 2,
        "type": "channel",
        "subtype": "noteOff",
        "noteNumber": 64,
        "velocity": 0
      },
      {
        "deltaTime": 20,
        "channel": 2,
        "type": "channel",
        "noteNumber": 81,
        "velocity": 36,
        "subtype": "noteOn"
      },
      {
        "deltaTime": 62,
        "channel": 2,
        "type": "channel",
        "subtype": "noteOff",
        "noteNumber": 81,
        "velocity": 0
      },
      {
        "deltaTime": 14,
        "channel": 2,
        "type": "channel",
        "noteNumber": 81,
        "velocity": 31,
        "subtype": "noteOn"
      },
      {
        "deltaTime": 68,
        "channel": 2,
        "type": "channel",
        "subtype": "noteOff",
        "noteNumber": 81,
        "velocity": 0
      },
      {
        "deltaTime": 21,
        "channel": 2,
        "type": "channel",
        "noteNumber": 46,
        "velocity": 43,
        "subtype": "noteOn"
      },
      {
        "deltaTime": 3,
        "channel": 2,
        "type": "channel",
        "noteNumber": 81,
        "velocity": 12,
        "subtype": "noteOn"
      },
      {
        "deltaTime": 19,
        "channel": 2,
        "type": "channel",
        "noteNumber": 53,
        "velocity": 26,
        "subtype": "noteOn"
      },
      {
        "deltaTime": 12,
        "channel": 2,
        "type": "channel",
        "subtype": "noteOff",
        "noteNumber": 81,
        "velocity": 0
      },
      {
        "deltaTime": 62,
        "channel": 2,
        "type": "channel",
        "subtype": "noteOff",
        "noteNumber": 53,
        "velocity": 0
      },
      {
        "deltaTime": 75,
        "channel": 2,
        "type": "channel",
        "noteNumber": 34,
        "velocity": 27,
        "subtype": "noteOn"
      },
      {
        "deltaTime": 21,
        "channel": 2,
        "type": "channel",
        "subtype": "noteOff",
        "noteNumber": 34,
        "velocity": 0
      },
      {
        "deltaTime": 0,
        "channel": 2,
        "type": "channel",
        "noteNumber": 60,
        "velocity": 19,
        "subtype": "noteOn"
      },
      {
        "deltaTime": 29,
        "channel": 2,
        "type": "channel",
        "subtype": "noteOff",
        "noteNumber": 60,
        "velocity": 0
      },
      {
        "deltaTime": 5,
        "channel": 2,
        "type": "channel",
        "subtype": "noteOff",
        "noteNumber": 46,
        "velocity": 0
      },
      {
        "deltaTime": 9,
        "channel": 2,
        "type": "channel",
        "noteNumber": 86,
        "velocity": 19,
        "subtype": "noteOn"
      },
      {
        "deltaTime": 0,
        "channel": 2,
        "type": "channel",
        "noteNumber": 60,
        "velocity": 18,
        "subtype": "noteOn"
      },
      {
        "deltaTime": 10,
        "channel": 2,
        "type": "channel",
        "noteNumber": 98,
        "velocity": 25,
        "subtype": "noteOn"
      },
      {
        "deltaTime": 7,
        "channel": 2,
        "type": "channel",
        "subtype": "noteOff",
        "noteNumber": 60,
        "velocity": 0
      },
      {
        "deltaTime": 19,
        "channel": 2,
        "type": "channel",
        "subtype": "noteOff",
        "noteNumber": 86,
        "velocity": 0
      },
      {
        "deltaTime": 17,
        "channel": 2,
        "type": "channel",
        "subtype": "noteOff",
        "noteNumber": 98,
        "velocity": 0
      },
      {
        "deltaTime": 3,
        "channel": 2,
        "type": "channel",
        "noteNumber": 36,
        "velocity": 11,
        "subtype": "noteOn"
      },
      {
        "deltaTime": 9,
        "channel": 2,
        "type": "channel",
        "subtype": "noteOff",
        "noteNumber": 36,
        "velocity": 0
      },
      {
        "deltaTime": 12,
        "channel": 2,
        "type": "channel",
        "noteNumber": 74,
        "velocity": 24,
        "subtype": "noteOn"
      },
      {
        "deltaTime": 10,
        "channel": 2,
        "type": "channel",
        "noteNumber": 35,
        "velocity": 18,
        "subtype": "noteOn"
      },
      {
        "deltaTime": 14,
        "channel": 2,
        "type": "channel",
        "subtype": "noteOff",
        "noteNumber": 35,
        "velocity": 0
      },
      {
        "deltaTime": 48,
        "channel": 2,
        "type": "channel",
        "subtype": "noteOff",
        "noteNumber": 74,
        "velocity": 0
      },
      {
        "deltaTime": 24,
        "channel": 2,
        "type": "channel",
        "noteNumber": 36,
        "velocity": 39,
        "subtype": "noteOn"
      },
      {
        "deltaTime": 17,
        "channel": 2,
        "type": "channel",
        "subtype": "noteOff",
        "noteNumber": 36,
        "velocity": 0
      },
      {
        "deltaTime": 2,
        "channel": 2,
        "type": "channel",
        "noteNumber": 100,
        "velocity": 46,
        "subtype": "noteOn"
      },
      {
        "deltaTime": 3,
        "channel": 2,
        "type": "channel",
        "noteNumber": 62,
        "velocity": 48,
        "subtype": "noteOn"
      },
      {
        "deltaTime": 12,
        "channel": 2,
        "type": "channel",
        "subtype": "noteOff",
        "noteNumber": 100,
        "velocity": 0
      },
      {
        "deltaTime": 19,
        "channel": 2,
        "type": "channel",
        "subtype": "noteOff",
        "noteNumber": 62,
        "velocity": 0
      },
      {
        "deltaTime": 22,
        "channel": 2,
        "type": "channel",
        "noteNumber": 88,
        "velocity": 30,
        "subtype": "noteOn"
      },
      {
        "deltaTime": 9,
        "channel": 2,
        "type": "channel",
        "noteNumber": 36,
        "velocity": 29,
        "subtype": "noteOn"
      },
      {
        "deltaTime": 5,
        "channel": 2,
        "type": "channel",
        "noteNumber": 62,
        "velocity": 47,
        "subtype": "noteOn"
      },
      {
        "deltaTime": 10,
        "channel": 2,
        "type": "channel",
        "subtype": "noteOff",
        "noteNumber": 36,
        "velocity": 0
      },
      {
        "deltaTime": 48,
        "channel": 2,
        "type": "channel",
        "subtype": "noteOff",
        "noteNumber": 88,
        "velocity": 0
      },
      {
        "deltaTime": 67,
        "channel": 2,
        "type": "channel",
        "noteNumber": 93,
        "velocity": 45,
        "subtype": "noteOn"
      },
      {
        "deltaTime": 55,
        "channel": 2,
        "type": "channel",
        "subtype": "noteOff",
        "noteNumber": 93,
        "velocity": 0
      },
      {
        "deltaTime": 0,
        "channel": 2,
        "type": "channel",
        "noteNumber": 98,
        "velocity": 30,
        "subtype": "noteOn"
      },
      {
        "deltaTime": 12,
        "channel": 2,
        "type": "channel",
        "subtype": "noteOff",
        "noteNumber": 98,
        "velocity": 0
      },
      {
        "deltaTime": 0,
        "channel": 2,
        "type": "channel",
        "noteNumber": 86,
        "velocity": 38,
        "subtype": "noteOn"
      },
      {
        "deltaTime": 10,
        "channel": 2,
        "type": "channel",
        "subtype": "noteOff",
        "noteNumber": 86,
        "velocity": 0
      },
      {
        "deltaTime": 36,
        "channel": 2,
        "type": "channel",
        "subtype": "noteOff",
        "noteNumber": 62,
        "velocity": 0
      },
      {
        "deltaTime": 16,
        "channel": 2,
        "type": "channel",
        "noteNumber": 86,
        "velocity": 36,
        "subtype": "noteOn"
      },
      {
        "deltaTime": 0,
        "channel": 2,
        "type": "channel",
        "noteNumber": 64,
        "velocity": 46,
        "subtype": "noteOn"
      },
      {
        "deltaTime": 22,
        "channel": 2,
        "type": "channel",
        "subtype": "noteOff",
        "noteNumber": 86,
        "velocity": 0
      },
      {
        "deltaTime": 5,
        "channel": 2,
        "type": "channel",
        "subtype": "noteOff",
        "noteNumber": 64,
        "velocity": 0
      },
      {
        "deltaTime": 5,
        "channel": 2,
        "type": "channel",
        "noteNumber": 36,
        "velocity": 19,
        "subtype": "noteOn"
      },
      {
        "deltaTime": 4,
        "channel": 2,
        "type": "channel",
        "noteNumber": 62,
        "velocity": 18,
        "subtype": "noteOn"
      },
      {
        "deltaTime": 5,
        "channel": 2,
        "type": "channel",
        "subtype": "noteOff",
        "noteNumber": 36,
        "velocity": 0
      },
      {
        "deltaTime": 22,
        "channel": 2,
        "type": "channel",
        "subtype": "noteOff",
        "noteNumber": 62,
        "velocity": 0
      },
      {
        "deltaTime": 122,
        "channel": 2,
        "type": "channel",
        "noteNumber": 98,
        "velocity": 31,
        "subtype": "noteOn"
      },
      {
        "deltaTime": 5,
        "channel": 2,
        "type": "channel",
        "noteNumber": 86,
        "velocity": 23,
        "subtype": "noteOn"
      },
      {
        "deltaTime": 7,
        "channel": 2,
        "type": "channel",
        "noteNumber": 62,
        "velocity": 45,
        "subtype": "noteOn"
      },
      {
        "deltaTime": 12,
        "channel": 2,
        "type": "channel",
        "subtype": "noteOff",
        "noteNumber": 86,
        "velocity": 0
      },
      {
        "deltaTime": 36,
        "channel": 2,
        "type": "channel",
        "subtype": "noteOff",
        "noteNumber": 98,
        "velocity": 0
      },
      {
        "deltaTime": 34,
        "channel": 2,
        "type": "channel",
        "noteNumber": 65,
        "velocity": 30,
        "subtype": "noteOn"
      },
      {
        "deltaTime": 33,
        "channel": 2,
        "type": "channel",
        "subtype": "noteOff",
        "noteNumber": 65,
        "velocity": 0
      },
      {
        "deltaTime": 3,
        "channel": 2,
        "type": "channel",
        "subtype": "noteOff",
        "noteNumber": 62,
        "velocity": 0
      },
      {
        "deltaTime": 7,
        "channel": 2,
        "type": "channel",
        "noteNumber": 64,
        "velocity": 39,
        "subtype": "noteOn"
      },
      {
        "deltaTime": 79,
        "channel": 2,
        "type": "channel",
        "subtype": "noteOff",
        "noteNumber": 64,
        "velocity": 0
      },
      {
        "deltaTime": 0,
        "channel": 2,
        "type": "channel",
        "noteNumber": 53,
        "velocity": 37,
        "subtype": "noteOn"
      },
      {
        "deltaTime": 12,
        "channel": 2,
        "type": "channel",
        "subtype": "noteOff",
        "noteNumber": 53,
        "velocity": 0
      },
      {
        "deltaTime": 19,
        "channel": 2,
        "type": "channel",
        "noteNumber": 64,
        "velocity": 26,
        "subtype": "noteOn"
      },
      {
        "deltaTime": 65,
        "channel": 2,
        "type": "channel",
        "noteNumber": 84,
        "velocity": 23,
        "subtype": "noteOn"
      },
      {
        "deltaTime": 10,
        "channel": 2,
        "type": "channel",
        "subtype": "noteOff",
        "noteNumber": 64,
        "velocity": 0
      },
      {
        "deltaTime": 19,
        "channel": 2,
        "type": "channel",
        "subtype": "noteOff",
        "noteNumber": 84,
        "velocity": 0
      },
      {
        "deltaTime": 2,
        "channel": 2,
        "type": "channel",
        "noteNumber": 46,
        "velocity": 35,
        "subtype": "noteOn"
      },
      {
        "deltaTime": 10,
        "channel": 2,
        "type": "channel",
        "noteNumber": 98,
        "velocity": 25,
        "subtype": "noteOn"
      },
      {
        "deltaTime": 26,
        "channel": 2,
        "type": "channel",
        "subtype": "noteOff",
        "noteNumber": 98,
        "velocity": 0
      },
      {
        "deltaTime": 65,
        "channel": 2,
        "type": "channel",
        "subtype": "noteOff",
        "noteNumber": 46,
        "velocity": 0
      },
      {
        "deltaTime": 12,
        "channel": 2,
        "type": "channel",
        "noteNumber": 60,
        "velocity": 32,
        "subtype": "noteOn"
      },
      {
        "deltaTime": 29,
        "channel": 2,
        "type": "channel",
        "subtype": "noteOff",
        "noteNumber": 60,
        "velocity": 0
      },
      {
        "deltaTime": 19,
        "channel": 2,
        "type": "channel",
        "noteNumber": 86,
        "velocity": 37,
        "subtype": "noteOn"
      },
      {
        "deltaTime": 12,
        "channel": 2,
        "type": "channel",
        "subtype": "noteOff",
        "noteNumber": 86,
        "velocity": 0
      },
      {
        "deltaTime": 39,
        "channel": 2,
        "type": "channel",
        "noteNumber": 86,
        "velocity": 16,
        "subtype": "noteOn"
      },
      {
        "deltaTime": 45,
        "channel": 2,
        "type": "channel",
        "subtype": "noteOff",
        "noteNumber": 86,
        "velocity": 0
      },
      {
        "deltaTime": 29,
        "channel": 2,
        "type": "channel",
        "noteNumber": 46,
        "velocity": 21,
        "subtype": "noteOn"
      },
      {
        "deltaTime": 14,
        "channel": 2,
        "type": "channel",
        "subtype": "noteOff",
        "noteNumber": 46,
        "velocity": 0
      },
      {
        "deltaTime": 20,
        "channel": 2,
        "type": "channel",
        "noteNumber": 76,
        "velocity": 10,
        "subtype": "noteOn"
      },
      {
        "deltaTime": 26,
        "channel": 2,
        "type": "channel",
        "subtype": "noteOff",
        "noteNumber": 76,
        "velocity": 0
      },
      {
        "deltaTime": 14,
        "channel": 2,
        "type": "channel",
        "noteNumber": 95,
        "velocity": 44,
        "subtype": "noteOn"
      },
      {
        "deltaTime": 17,
        "channel": 2,
        "type": "channel",
        "subtype": "noteOff",
        "noteNumber": 95,
        "velocity": 0
      },
      {
        "deltaTime": 3,
        "channel": 2,
        "type": "channel",
        "noteNumber": 95,
        "velocity": 54,
        "subtype": "noteOn"
      },
      {
        "deltaTime": 45,
        "channel": 2,
        "type": "channel",
        "noteNumber": 62,
        "velocity": 48,
        "subtype": "noteOn"
      },
      {
        "deltaTime": 106,
        "channel": 2,
        "type": "channel",
        "noteNumber": 36,
        "velocity": 30,
        "subtype": "noteOn"
      },
      {
        "deltaTime": 2,
        "channel": 2,
        "type": "channel",
        "subtype": "noteOff",
        "noteNumber": 95,
        "velocity": 0
      },
      {
        "deltaTime": 41,
        "channel": 2,
        "type": "channel",
        "noteNumber": 48,
        "velocity": 18,
        "subtype": "noteOn"
      },
      {
        "deltaTime": 38,
        "channel": 2,
        "type": "channel",
        "noteNumber": 77,
        "velocity": 26,
        "subtype": "noteOn"
      },
      {
        "deltaTime": 5,
        "channel": 2,
        "type": "channel",
        "subtype": "noteOff",
        "noteNumber": 48,
        "velocity": 0
      },
      {
        "deltaTime": 3,
        "channel": 2,
        "type": "channel",
        "subtype": "noteOff",
        "noteNumber": 36,
        "velocity": 0
      },
      {
        "deltaTime": 38,
        "channel": 2,
        "type": "channel",
        "subtype": "noteOff",
        "noteNumber": 77,
        "velocity": 0
      },
      {
        "deltaTime": 10,
        "channel": 2,
        "type": "channel",
        "subtype": "noteOff",
        "noteNumber": 62,
        "velocity": 0
      },
      {
        "deltaTime": 43,
        "channel": 2,
        "type": "channel",
        "noteNumber": 65,
        "velocity": 44,
        "subtype": "noteOn"
      },
      {
        "deltaTime": 31,
        "channel": 2,
        "type": "channel",
        "subtype": "noteOff",
        "noteNumber": 65,
        "velocity": 0
      },
      {
        "deltaTime": 5,
        "channel": 2,
        "type": "channel",
        "noteNumber": 105,
        "velocity": 42,
        "subtype": "noteOn"
      },
      {
        "deltaTime": 41,
        "channel": 2,
        "type": "channel",
        "subtype": "noteOff",
        "noteNumber": 105,
        "velocity": 0
      },
      {
        "deltaTime": 67,
        "channel": 2,
        "type": "channel",
        "noteNumber": 36,
        "velocity": 11,
        "subtype": "noteOn"
      },
      {
        "deltaTime": 12,
        "channel": 2,
        "type": "channel",
        "subtype": "noteOff",
        "noteNumber": 36,
        "velocity": 0
      },
      {
        "deltaTime": 81,
        "channel": 2,
        "type": "channel",
        "noteNumber": 77,
        "velocity": 30,
        "subtype": "noteOn"
      },
      {
        "deltaTime": 3,
        "channel": 2,
        "type": "channel",
        "noteNumber": 89,
        "velocity": 42,
        "subtype": "noteOn"
      },
      {
        "deltaTime": 9,
        "channel": 2,
        "type": "channel",
        "subtype": "noteOff",
        "noteNumber": 77,
        "velocity": 0
      },
      {
        "deltaTime": 56,
        "channel": 2,
        "type": "channel",
        "subtype": "noteOff",
        "noteNumber": 89,
        "velocity": 0
      },
      {
        "deltaTime": 12,
        "channel": 2,
        "type": "channel",
        "noteNumber": 65,
        "velocity": 44,
        "subtype": "noteOn"
      },
      {
        "deltaTime": 38,
        "channel": 2,
        "type": "channel",
        "subtype": "noteOff",
        "noteNumber": 65,
        "velocity": 0
      },
      {
        "deltaTime": 10,
        "channel": 2,
        "type": "channel",
        "noteNumber": 64,
        "velocity": 28,
        "subtype": "noteOn"
      },
      {
        "deltaTime": 24,
        "channel": 2,
        "type": "channel",
        "subtype": "noteOff",
        "noteNumber": 64,
        "velocity": 0
      },
      {
        "deltaTime": 16,
        "channel": 2,
        "type": "channel",
        "noteNumber": 96,
        "velocity": 24,
        "subtype": "noteOn"
      },
      {
        "deltaTime": 29,
        "channel": 2,
        "type": "channel",
        "subtype": "noteOff",
        "noteNumber": 96,
        "velocity": 0
      },
      {
        "deltaTime": 5,
        "channel": 2,
        "type": "channel",
        "noteNumber": 93,
        "velocity": 33,
        "subtype": "noteOn"
      },
      {
        "deltaTime": 36,
        "channel": 2,
        "type": "channel",
        "subtype": "noteOff",
        "noteNumber": 93,
        "velocity": 0
      },
      {
        "deltaTime": 24,
        "channel": 2,
        "type": "channel",
        "noteNumber": 100,
        "velocity": 31,
        "subtype": "noteOn"
      },
      {
        "deltaTime": 12,
        "channel": 2,
        "type": "channel",
        "subtype": "noteOff",
        "noteNumber": 100,
        "velocity": 0
      },
      {
        "deltaTime": 5,
        "channel": 2,
        "type": "channel",
        "noteNumber": 48,
        "velocity": 27,
        "subtype": "noteOn"
      },
      {
        "deltaTime": 36,
        "channel": 2,
        "type": "channel",
        "subtype": "noteOff",
        "noteNumber": 48,
        "velocity": 0
      },
      {
        "deltaTime": 19,
        "channel": 2,
        "type": "channel",
        "noteNumber": 46,
        "velocity": 43,
        "subtype": "noteOn"
      },
      {
        "deltaTime": 19,
        "channel": 2,
        "type": "channel",
        "noteNumber": 98,
        "velocity": 17,
        "subtype": "noteOn"
      },
      {
        "deltaTime": 15,
        "channel": 2,
        "type": "channel",
        "subtype": "noteOff",
        "noteNumber": 98,
        "velocity": 0
      },
      {
        "deltaTime": 28,
        "channel": 2,
        "type": "channel",
        "noteNumber": 86,
        "velocity": 39,
        "subtype": "noteOn"
      },
      {
        "deltaTime": 20,
        "channel": 2,
        "type": "channel",
        "subtype": "noteOff",
        "noteNumber": 86,
        "velocity": 0
      },
      {
        "deltaTime": 2,
        "channel": 2,
        "type": "channel",
        "noteNumber": 98,
        "velocity": 38,
        "subtype": "noteOn"
      },
      {
        "deltaTime": 19,
        "channel": 2,
        "type": "channel",
        "subtype": "noteOff",
        "noteNumber": 98,
        "velocity": 0
      },
      {
        "deltaTime": 5,
        "channel": 2,
        "type": "channel",
        "noteNumber": 86,
        "velocity": 39,
        "subtype": "noteOn"
      },
      {
        "deltaTime": 22,
        "channel": 2,
        "type": "channel",
        "subtype": "noteOff",
        "noteNumber": 86,
        "velocity": 0
      },
      {
        "deltaTime": 62,
        "channel": 2,
        "type": "channel",
        "noteNumber": 60,
        "velocity": 25,
        "subtype": "noteOn"
      },
      {
        "deltaTime": 17,
        "channel": 2,
        "type": "channel",
        "noteNumber": 86,
        "velocity": 22,
        "subtype": "noteOn"
      },
      {
        "deltaTime": 29,
        "channel": 2,
        "type": "channel",
        "subtype": "noteOff",
        "noteNumber": 86,
        "velocity": 0
      },
      {
        "deltaTime": 14,
        "channel": 2,
        "type": "channel",
        "subtype": "noteOff",
        "noteNumber": 60,
        "velocity": 0
      },
      {
        "deltaTime": 2,
        "channel": 2,
        "type": "channel",
        "subtype": "noteOff",
        "noteNumber": 46,
        "velocity": 0
      },
      {
        "deltaTime": 99,
        "channel": 2,
        "type": "channel",
        "noteNumber": 74,
        "velocity": 21,
        "subtype": "noteOn"
      },
      {
        "deltaTime": 29,
        "channel": 2,
        "type": "channel",
        "subtype": "noteOff",
        "noteNumber": 74,
        "velocity": 0
      },
      {
        "deltaTime": 0,
        "channel": 2,
        "type": "channel",
        "noteNumber": 64,
        "velocity": 36,
        "subtype": "noteOn"
      },
      {
        "deltaTime": 36,
        "channel": 2,
        "type": "channel",
        "subtype": "noteOff",
        "noteNumber": 64,
        "velocity": 0
      },
      {
        "deltaTime": 9,
        "channel": 2,
        "type": "channel",
        "noteNumber": 62,
        "velocity": 48,
        "subtype": "noteOn"
      },
      {
        "deltaTime": 31,
        "channel": 2,
        "type": "channel",
        "subtype": "noteOff",
        "noteNumber": 62,
        "velocity": 0
      },
      {
        "deltaTime": 24,
        "channel": 2,
        "type": "channel",
        "noteNumber": 62,
        "velocity": 53,
        "subtype": "noteOn"
      },
      {
        "deltaTime": 204,
        "channel": 2,
        "type": "channel",
        "noteNumber": 86,
        "velocity": 48,
        "subtype": "noteOn"
      },
      {
        "deltaTime": 10,
        "channel": 2,
        "type": "channel",
        "subtype": "noteOff",
        "noteNumber": 86,
        "velocity": 0
      },
      {
        "deltaTime": 38,
        "channel": 2,
        "type": "channel",
        "subtype": "noteOff",
        "noteNumber": 62,
        "velocity": 0
      },
      {
        "deltaTime": 15,
        "channel": 2,
        "type": "channel",
        "noteNumber": 64,
        "velocity": 47,
        "subtype": "noteOn"
      },
      {
        "deltaTime": 26,
        "channel": 2,
        "type": "channel",
        "subtype": "noteOff",
        "noteNumber": 64,
        "velocity": 0
      },
      {
        "deltaTime": 0,
        "channel": 2,
        "type": "channel",
        "noteNumber": 86,
        "velocity": 49,
        "subtype": "noteOn"
      },
      {
        "deltaTime": 7,
        "channel": 2,
        "type": "channel",
        "noteNumber": 77,
        "velocity": 41,
        "subtype": "noteOn"
      },
      {
        "deltaTime": 12,
        "channel": 2,
        "type": "channel",
        "subtype": "noteOff",
        "noteNumber": 86,
        "velocity": 0
      },
      {
        "deltaTime": 0,
        "channel": 2,
        "type": "channel",
        "subtype": "noteOff",
        "noteNumber": 77,
        "velocity": 0
      },
      {
        "deltaTime": 5,
        "channel": 2,
        "type": "channel",
        "noteNumber": 98,
        "velocity": 28,
        "subtype": "noteOn"
      },
      {
        "deltaTime": 24,
        "channel": 2,
        "type": "channel",
        "subtype": "noteOff",
        "noteNumber": 98,
        "velocity": 0
      },
      {
        "deltaTime": 5,
        "channel": 2,
        "type": "channel",
        "noteNumber": 98,
        "velocity": 18,
        "subtype": "noteOn"
      },
      {
        "deltaTime": 12,
        "channel": 2,
        "type": "channel",
        "subtype": "noteOff",
        "noteNumber": 98,
        "velocity": 0
      },
      {
        "deltaTime": 48,
        "channel": 2,
        "type": "channel",
        "noteNumber": 105,
        "velocity": 15,
        "subtype": "noteOn"
      },
      {
        "deltaTime": 17,
        "channel": 2,
        "type": "channel",
        "noteNumber": 67,
        "velocity": 53,
        "subtype": "noteOn"
      },
      {
        "deltaTime": 29,
        "channel": 2,
        "type": "channel",
        "subtype": "noteOff",
        "noteNumber": 105,
        "velocity": 0
      },
      {
        "deltaTime": 79,
        "channel": 2,
        "type": "channel",
        "subtype": "noteOff",
        "noteNumber": 67,
        "velocity": 0
      },
      {
        "deltaTime": 14,
        "channel": 2,
        "type": "channel",
        "noteNumber": 65,
        "velocity": 48,
        "subtype": "noteOn"
      },
      {
        "deltaTime": 19,
        "channel": 2,
        "type": "channel",
        "noteNumber": 38,
        "velocity": 46,
        "subtype": "noteOn"
      },
      {
        "deltaTime": 5,
        "channel": 2,
        "type": "channel",
        "noteNumber": 86,
        "velocity": 46,
        "subtype": "noteOn"
      },
      {
        "deltaTime": 12,
        "channel": 2,
        "type": "channel",
        "subtype": "noteOff",
        "noteNumber": 65,
        "velocity": 0
      },
      {
        "deltaTime": 0,
        "channel": 2,
        "type": "channel",
        "subtype": "noteOff",
        "noteNumber": 86,
        "velocity": 0
      },
      {
        "deltaTime": 29,
        "channel": 2,
        "type": "channel",
        "noteNumber": 36,
        "velocity": 22,
        "subtype": "noteOn"
      },
      {
        "deltaTime": 22,
        "channel": 2,
        "type": "channel",
        "subtype": "noteOff",
        "noteNumber": 36,
        "velocity": 0
      },
      {
        "deltaTime": 38,
        "channel": 2,
        "type": "channel",
        "noteNumber": 102,
        "velocity": 13,
        "subtype": "noteOn"
      },
      {
        "deltaTime": 48,
        "channel": 2,
        "type": "channel",
        "subtype": "noteOff",
        "noteNumber": 38,
        "velocity": 0
      },
      {
        "deltaTime": 7,
        "channel": 2,
        "type": "channel",
        "subtype": "noteOff",
        "noteNumber": 102,
        "velocity": 0
      },
      {
        "deltaTime": 473,
        "channel": 2,
        "type": "channel",
        "noteNumber": 89,
        "velocity": 52,
        "subtype": "noteOn"
      },
      {
        "deltaTime": 12,
        "channel": 2,
        "type": "channel",
        "noteNumber": 41,
        "velocity": 44,
        "subtype": "noteOn"
      },
      {
        "deltaTime": 19,
        "channel": 2,
        "type": "channel",
        "subtype": "noteOff",
        "noteNumber": 41,
        "velocity": 0
      },
      {
        "deltaTime": 10,
        "channel": 2,
        "type": "channel",
        "noteNumber": 101,
        "velocity": 52,
        "subtype": "noteOn"
      },
      {
        "deltaTime": 12,
        "channel": 2,
        "type": "channel",
        "subtype": "noteOff",
        "noteNumber": 89,
        "velocity": 0
      },
      {
        "deltaTime": 9,
        "channel": 2,
        "type": "channel",
        "subtype": "noteOff",
        "noteNumber": 101,
        "velocity": 0
      },
      {
        "deltaTime": 10,
        "channel": 2,
        "type": "channel",
        "noteNumber": 39,
        "velocity": 32,
        "subtype": "noteOn"
      },
      {
        "deltaTime": 31,
        "channel": 2,
        "type": "channel",
        "subtype": "noteOff",
        "noteNumber": 39,
        "velocity": 0
      },
      {
        "deltaTime": 12,
        "channel": 2,
        "type": "channel",
        "noteNumber": 38,
        "velocity": 17,
        "subtype": "noteOn"
      },
      {
        "deltaTime": 41,
        "channel": 2,
        "type": "channel",
        "subtype": "noteOff",
        "noteNumber": 38,
        "velocity": 0
      },
      {
        "deltaTime": 86,
        "channel": 2,
        "type": "channel",
        "noteNumber": 91,
        "velocity": 31,
        "subtype": "noteOn"
      },
      {
        "deltaTime": 8,
        "channel": 2,
        "type": "channel",
        "noteNumber": 79,
        "velocity": 49,
        "subtype": "noteOn"
      },
      {
        "deltaTime": 33,
        "channel": 2,
        "type": "channel",
        "subtype": "noteOff",
        "noteNumber": 91,
        "velocity": 0
      },
      {
        "deltaTime": 5,
        "channel": 2,
        "type": "channel",
        "noteNumber": 36,
        "velocity": 34,
        "subtype": "noteOn"
      },
      {
        "deltaTime": 17,
        "channel": 2,
        "type": "channel",
        "subtype": "noteOff",
        "noteNumber": 36,
        "velocity": 0
      },
      {
        "deltaTime": 33,
        "channel": 2,
        "type": "channel",
        "subtype": "noteOff",
        "noteNumber": 79,
        "velocity": 0
      },
      {
        "deltaTime": 17,
        "channel": 2,
        "type": "channel",
        "noteNumber": 79,
        "velocity": 53,
        "subtype": "noteOn"
      },
      {
        "deltaTime": 19,
        "channel": 2,
        "type": "channel",
        "subtype": "noteOff",
        "noteNumber": 79,
        "velocity": 0
      },
      {
        "deltaTime": 22,
        "channel": 2,
        "type": "channel",
        "noteNumber": 67,
        "velocity": 26,
        "subtype": "noteOn"
      },
      {
        "deltaTime": 31,
        "channel": 2,
        "type": "channel",
        "subtype": "noteOff",
        "noteNumber": 67,
        "velocity": 0
      },
      {
        "deltaTime": 5,
        "channel": 2,
        "type": "channel",
        "noteNumber": 65,
        "velocity": 45,
        "subtype": "noteOn"
      },
      {
        "deltaTime": 67,
        "channel": 2,
        "type": "channel",
        "subtype": "noteOff",
        "noteNumber": 65,
        "velocity": 0
      },
      {
        "deltaTime": 0,
        "channel": 2,
        "type": "channel",
        "noteNumber": 84,
        "velocity": 10,
        "subtype": "noteOn"
      },
      {
        "deltaTime": 10,
        "channel": 2,
        "type": "channel",
        "subtype": "noteOff",
        "noteNumber": 84,
        "velocity": 0
      },
      {
        "deltaTime": 17,
        "channel": 2,
        "type": "channel",
        "noteNumber": 91,
        "velocity": 16,
        "subtype": "noteOn"
      },
      {
        "deltaTime": 9,
        "channel": 2,
        "type": "channel",
        "subtype": "noteOff",
        "noteNumber": 91,
        "velocity": 0
      },
      {
        "deltaTime": 31,
        "channel": 2,
        "type": "channel",
        "noteNumber": 92,
        "velocity": 19,
        "subtype": "noteOn"
      },
      {
        "deltaTime": 20,
        "channel": 2,
        "type": "channel",
        "subtype": "noteOff",
        "noteNumber": 92,
        "velocity": 0
      },
      {
        "deltaTime": 43,
        "channel": 2,
        "type": "channel",
        "noteNumber": 104,
        "velocity": 41,
        "subtype": "noteOn"
      },
      {
        "deltaTime": 14,
        "channel": 2,
        "type": "channel",
        "subtype": "noteOff",
        "noteNumber": 104,
        "velocity": 0
      },
      {
        "deltaTime": 34,
        "channel": 2,
        "type": "channel",
        "noteNumber": 67,
        "velocity": 49,
        "subtype": "noteOn"
      },
      {
        "deltaTime": 19,
        "channel": 2,
        "type": "channel",
        "subtype": "noteOff",
        "noteNumber": 67,
        "velocity": 0
      },
      {
        "deltaTime": 43,
        "channel": 2,
        "type": "channel",
        "noteNumber": 104,
        "velocity": 36,
        "subtype": "noteOn"
      },
      {
        "deltaTime": 58,
        "channel": 2,
        "type": "channel",
        "subtype": "noteOff",
        "noteNumber": 104,
        "velocity": 0
      },
      {
        "deltaTime": 115,
        "channel": 2,
        "type": "channel",
        "noteNumber": 80,
        "velocity": 51,
        "subtype": "noteOn"
      },
      {
        "deltaTime": 29,
        "channel": 2,
        "type": "channel",
        "subtype": "noteOff",
        "noteNumber": 80,
        "velocity": 0
      },
      {
        "deltaTime": 5,
        "channel": 2,
        "type": "channel",
        "noteNumber": 68,
        "velocity": 40,
        "subtype": "noteOn"
      },
      {
        "deltaTime": 38,
        "channel": 2,
        "type": "channel",
        "subtype": "noteOff",
        "noteNumber": 68,
        "velocity": 0
      },
      {
        "deltaTime": 12,
        "channel": 2,
        "type": "channel",
        "noteNumber": 104,
        "velocity": 34,
        "subtype": "noteOn"
      },
      {
        "deltaTime": 19,
        "channel": 2,
        "type": "channel",
        "subtype": "noteOff",
        "noteNumber": 104,
        "velocity": 0
      },
      {
        "deltaTime": 19,
        "channel": 2,
        "type": "channel",
        "noteNumber": 67,
        "velocity": 26,
        "subtype": "noteOn"
      },
      {
        "deltaTime": 22,
        "channel": 2,
        "type": "channel",
        "subtype": "noteOff",
        "noteNumber": 67,
        "velocity": 0
      },
      {
        "deltaTime": 19,
        "channel": 2,
        "type": "channel",
        "noteNumber": 103,
        "velocity": 62,
        "subtype": "noteOn"
      },
      {
        "deltaTime": 46,
        "channel": 2,
        "type": "channel",
        "subtype": "noteOff",
        "noteNumber": 103,
        "velocity": 0
      },
      {
        "deltaTime": 86,
        "channel": 2,
        "type": "channel",
        "noteNumber": 89,
        "velocity": 34,
        "subtype": "noteOn"
      },
      {
        "deltaTime": 48,
        "channel": 2,
        "type": "channel",
        "subtype": "noteOff",
        "noteNumber": 89,
        "velocity": 0
      },
      {
        "deltaTime": 27,
        "channel": 2,
        "type": "channel",
        "noteNumber": 89,
        "velocity": 55,
        "subtype": "noteOn"
      },
      {
        "deltaTime": 50,
        "channel": 2,
        "type": "channel",
        "subtype": "noteOff",
        "noteNumber": 89,
        "velocity": 0
      },
      {
        "deltaTime": 22,
        "channel": 2,
        "type": "channel",
        "noteNumber": 101,
        "velocity": 47,
        "subtype": "noteOn"
      },
      {
        "deltaTime": 40,
        "channel": 2,
        "type": "channel",
        "subtype": "noteOff",
        "noteNumber": 101,
        "velocity": 0
      },
      {
        "deltaTime": 70,
        "channel": 2,
        "type": "channel",
        "noteNumber": 94,
        "velocity": 15,
        "subtype": "noteOn"
      },
      {
        "deltaTime": 31,
        "channel": 2,
        "type": "channel",
        "subtype": "noteOff",
        "noteNumber": 94,
        "velocity": 0
      },
      {
        "deltaTime": 22,
        "channel": 2,
        "type": "channel",
        "noteNumber": 51,
        "velocity": 33,
        "subtype": "noteOn"
      },
      {
        "deltaTime": 12,
        "channel": 2,
        "type": "channel",
        "noteNumber": 79,
        "velocity": 51,
        "subtype": "noteOn"
      },
      {
        "deltaTime": 14,
        "channel": 2,
        "type": "channel",
        "subtype": "noteOff",
        "noteNumber": 51,
        "velocity": 0
      },
      {
        "deltaTime": 0,
        "channel": 2,
        "type": "channel",
        "noteNumber": 96,
        "velocity": 32,
        "subtype": "noteOn"
      },
      {
        "deltaTime": 10,
        "channel": 2,
        "type": "channel",
        "subtype": "noteOff",
        "noteNumber": 96,
        "velocity": 0
      },
      {
        "deltaTime": 65,
        "channel": 2,
        "type": "channel",
        "subtype": "noteOff",
        "noteNumber": 79,
        "velocity": 0
      },
      {
        "deltaTime": 7,
        "channel": 2,
        "type": "channel",
        "noteNumber": 65,
        "velocity": 52,
        "subtype": "noteOn"
      },
      {
        "deltaTime": 36,
        "channel": 2,
        "type": "channel",
        "subtype": "noteOff",
        "noteNumber": 65,
        "velocity": 0
      },
      {
        "deltaTime": 7,
        "channel": 2,
        "type": "channel",
        "noteNumber": 67,
        "velocity": 46,
        "subtype": "noteOn"
      },
      {
        "deltaTime": 14,
        "channel": 2,
        "type": "channel",
        "noteNumber": 103,
        "velocity": 35,
        "subtype": "noteOn"
      },
      {
        "deltaTime": 10,
        "channel": 2,
        "type": "channel",
        "subtype": "noteOff",
        "noteNumber": 103,
        "velocity": 0
      },
      {
        "deltaTime": 46,
        "channel": 2,
        "type": "channel",
        "subtype": "noteOff",
        "noteNumber": 67,
        "velocity": 0
      },
      {
        "deltaTime": 12,
        "channel": 2,
        "type": "channel",
        "noteNumber": 67,
        "velocity": 41,
        "subtype": "noteOn"
      },
      {
        "deltaTime": 26,
        "channel": 2,
        "type": "channel",
        "noteNumber": 84,
        "velocity": 14,
        "subtype": "noteOn"
      },
      {
        "deltaTime": 14,
        "channel": 2,
        "type": "channel",
        "subtype": "noteOff",
        "noteNumber": 84,
        "velocity": 0
      },
      {
        "deltaTime": 15,
        "channel": 2,
        "type": "channel",
        "noteNumber": 91,
        "velocity": 19,
        "subtype": "noteOn"
      },
      {
        "deltaTime": 7,
        "channel": 2,
        "type": "channel",
        "subtype": "noteOff",
        "noteNumber": 67,
        "velocity": 0
      },
      {
        "deltaTime": 5,
        "channel": 2,
        "type": "channel",
        "subtype": "noteOff",
        "noteNumber": 91,
        "velocity": 0
      },
      {
        "deltaTime": 29,
        "channel": 2,
        "type": "channel",
        "noteNumber": 92,
        "velocity": 17,
        "subtype": "noteOn"
      },
      {
        "deltaTime": 31,
        "channel": 2,
        "type": "channel",
        "subtype": "noteOff",
        "noteNumber": 92,
        "velocity": 0
      },
      {
        "deltaTime": 31,
        "channel": 2,
        "type": "channel",
        "noteNumber": 104,
        "velocity": 40,
        "subtype": "noteOn"
      },
      {
        "deltaTime": 14,
        "channel": 2,
        "type": "channel",
        "subtype": "noteOff",
        "noteNumber": 104,
        "velocity": 0
      },
      {
        "deltaTime": 39,
        "channel": 2,
        "type": "channel",
        "noteNumber": 67,
        "velocity": 50,
        "subtype": "noteOn"
      },
      {
        "deltaTime": 14,
        "channel": 2,
        "type": "channel",
        "subtype": "noteOff",
        "noteNumber": 67,
        "velocity": 0
      },
      {
        "deltaTime": 10,
        "channel": 2,
        "type": "channel",
        "noteNumber": 92,
        "velocity": 32,
        "subtype": "noteOn"
      },
      {
        "deltaTime": 12,
        "channel": 2,
        "type": "channel",
        "noteNumber": 104,
        "velocity": 39,
        "subtype": "noteOn"
      },
      {
        "deltaTime": 12,
        "channel": 2,
        "type": "channel",
        "subtype": "noteOff",
        "noteNumber": 92,
        "velocity": 0
      },
      {
        "deltaTime": 33,
        "channel": 2,
        "type": "channel",
        "noteNumber": 67,
        "velocity": 32,
        "subtype": "noteOn"
      },
      {
        "deltaTime": 22,
        "channel": 2,
        "type": "channel",
        "subtype": "noteOff",
        "noteNumber": 67,
        "velocity": 0
      },
      {
        "deltaTime": 12,
        "channel": 2,
        "type": "channel",
        "noteNumber": 80,
        "velocity": 26,
        "subtype": "noteOn"
      },
      {
        "deltaTime": 12,
        "channel": 2,
        "type": "channel",
        "subtype": "noteOff",
        "noteNumber": 104,
        "velocity": 0
      },
      {
        "deltaTime": 0,
        "channel": 2,
        "type": "channel",
        "subtype": "noteOff",
        "noteNumber": 80,
        "velocity": 0
      },
      {
        "deltaTime": 38,
        "channel": 2,
        "type": "channel",
        "noteNumber": 92,
        "velocity": 15,
        "subtype": "noteOn"
      },
      {
        "deltaTime": 29,
        "channel": 2,
        "type": "channel",
        "subtype": "noteOff",
        "noteNumber": 92,
        "velocity": 0
      },
      {
        "deltaTime": 5,
        "channel": 2,
        "type": "channel",
        "noteNumber": 92,
        "velocity": 35,
        "subtype": "noteOn"
      },
      {
        "deltaTime": 17,
        "channel": 2,
        "type": "channel",
        "subtype": "noteOff",
        "noteNumber": 92,
        "velocity": 0
      },
      {
        "deltaTime": 7,
        "channel": 2,
        "type": "channel",
        "noteNumber": 92,
        "velocity": 30,
        "subtype": "noteOn"
      },
      {
        "deltaTime": 14,
        "channel": 2,
        "type": "channel",
        "subtype": "noteOff",
        "noteNumber": 92,
        "velocity": 0
      },
      {
        "deltaTime": 8,
        "channel": 2,
        "type": "channel",
        "noteNumber": 92,
        "velocity": 50,
        "subtype": "noteOn"
      },
      {
        "deltaTime": 12,
        "channel": 2,
        "type": "channel",
        "subtype": "noteOff",
        "noteNumber": 92,
        "velocity": 0
      },
      {
        "deltaTime": 9,
        "channel": 2,
        "type": "channel",
        "noteNumber": 68,
        "velocity": 40,
        "subtype": "noteOn"
      },
      {
        "deltaTime": 34,
        "channel": 2,
        "type": "channel",
        "noteNumber": 104,
        "velocity": 37,
        "subtype": "noteOn"
      },
      {
        "deltaTime": 5,
        "channel": 2,
        "type": "channel",
        "subtype": "noteOff",
        "noteNumber": 68,
        "velocity": 0
      },
      {
        "deltaTime": 4,
        "channel": 2,
        "type": "channel",
        "subtype": "noteOff",
        "noteNumber": 104,
        "velocity": 0
      },
      {
        "deltaTime": 8,
        "channel": 2,
        "type": "channel",
        "noteNumber": 104,
        "velocity": 13,
        "subtype": "noteOn"
      },
      {
        "deltaTime": 9,
        "channel": 2,
        "type": "channel",
        "subtype": "noteOff",
        "noteNumber": 104,
        "velocity": 0
      },
      {
        "deltaTime": 5,
        "channel": 2,
        "type": "channel",
        "noteNumber": 36,
        "velocity": 19,
        "subtype": "noteOn"
      },
      {
        "deltaTime": 10,
        "channel": 2,
        "type": "channel",
        "noteNumber": 79,
        "velocity": 49,
        "subtype": "noteOn"
      },
      {
        "deltaTime": 7,
        "channel": 2,
        "type": "channel",
        "subtype": "noteOff",
        "noteNumber": 36,
        "velocity": 0
      },
      {
        "deltaTime": 14,
        "channel": 2,
        "type": "channel",
        "noteNumber": 67,
        "velocity": 22,
        "subtype": "noteOn"
      },
      {
        "deltaTime": 15,
        "channel": 2,
        "type": "channel",
        "subtype": "noteOff",
        "noteNumber": 67,
        "velocity": 0
      },
      {
        "deltaTime": 79,
        "channel": 2,
        "type": "channel",
        "subtype": "noteOff",
        "noteNumber": 79,
        "velocity": 0
      },
      {
        "deltaTime": 14,
        "channel": 2,
        "type": "channel",
        "noteNumber": 103,
        "velocity": 39,
        "subtype": "noteOn"
      },
      {
        "deltaTime": 24,
        "channel": 2,
        "type": "channel",
        "subtype": "noteOff",
        "noteNumber": 103,
        "velocity": 0
      },
      {
        "deltaTime": 79,
        "channel": 2,
        "type": "channel",
        "noteNumber": 101,
        "velocity": 41,
        "subtype": "noteOn"
      },
      {
        "deltaTime": 29,
        "channel": 2,
        "type": "channel",
        "noteNumber": 89,
        "velocity": 51,
        "subtype": "noteOn"
      },
      {
        "deltaTime": 24,
        "channel": 2,
        "type": "channel",
        "subtype": "noteOff",
        "noteNumber": 101,
        "velocity": 0
      },
      {
        "deltaTime": 15,
        "channel": 2,
        "type": "channel",
        "noteNumber": 101,
        "velocity": 51,
        "subtype": "noteOn"
      },
      {
        "deltaTime": 12,
        "channel": 2,
        "type": "channel",
        "subtype": "noteOff",
        "noteNumber": 89,
        "velocity": 0
      },
      {
        "deltaTime": 9,
        "channel": 2,
        "type": "channel",
        "subtype": "noteOff",
        "noteNumber": 101,
        "velocity": 0
      },
      {
        "deltaTime": 36,
        "channel": 2,
        "type": "channel",
        "noteNumber": 63,
        "velocity": 26,
        "subtype": "noteOn"
      },
      {
        "deltaTime": 79,
        "channel": 2,
        "type": "channel",
        "subtype": "noteOff",
        "noteNumber": 63,
        "velocity": 0
      },
      {
        "deltaTime": 12,
        "channel": 2,
        "type": "channel",
        "noteNumber": 63,
        "velocity": 22,
        "subtype": "noteOn"
      },
      {
        "deltaTime": 51,
        "channel": 2,
        "type": "channel",
        "noteNumber": 79,
        "velocity": 51,
        "subtype": "noteOn"
      },
      {
        "deltaTime": 12,
        "channel": 2,
        "type": "channel",
        "subtype": "noteOff",
        "noteNumber": 63,
        "velocity": 0
      },
      {
        "deltaTime": 62,
        "channel": 2,
        "type": "channel",
        "noteNumber": 103,
        "velocity": 51,
        "subtype": "noteOn"
      },
      {
        "deltaTime": 5,
        "channel": 2,
        "type": "channel",
        "subtype": "noteOff",
        "noteNumber": 79,
        "velocity": 0
      },
      {
        "deltaTime": 7,
        "channel": 2,
        "type": "channel",
        "subtype": "noteOff",
        "noteNumber": 103,
        "velocity": 0
      },
      {
        "deltaTime": 29,
        "channel": 2,
        "type": "channel",
        "noteNumber": 79,
        "velocity": 50,
        "subtype": "noteOn"
      },
      {
        "deltaTime": 17,
        "channel": 2,
        "type": "channel",
        "subtype": "noteOff",
        "noteNumber": 79,
        "velocity": 0
      },
      {
        "deltaTime": 19,
        "channel": 2,
        "type": "channel",
        "noteNumber": 67,
        "velocity": 41,
        "subtype": "noteOn"
      },
      {
        "deltaTime": 7,
        "channel": 2,
        "type": "channel",
        "noteNumber": 103,
        "velocity": 37,
        "subtype": "noteOn"
      },
      {
        "deltaTime": 12,
        "channel": 2,
        "type": "channel",
        "subtype": "noteOff",
        "noteNumber": 103,
        "velocity": 0
      },
      {
        "deltaTime": 15,
        "channel": 2,
        "type": "channel",
        "subtype": "noteOff",
        "noteNumber": 67,
        "velocity": 0
      },
      {
        "deltaTime": 4,
        "channel": 2,
        "type": "channel",
        "noteNumber": 65,
        "velocity": 45,
        "subtype": "noteOn"
      },
      {
        "deltaTime": 68,
        "channel": 2,
        "type": "channel",
        "subtype": "noteOff",
        "noteNumber": 65,
        "velocity": 0
      },
      {
        "deltaTime": 100,
        "channel": 2,
        "type": "channel",
        "noteNumber": 80,
        "velocity": 39,
        "subtype": "noteOn"
      },
      {
        "deltaTime": 17,
        "channel": 2,
        "type": "channel",
        "subtype": "noteOff",
        "noteNumber": 80,
        "velocity": 0
      },
      {
        "deltaTime": 12,
        "channel": 2,
        "type": "channel",
        "noteNumber": 68,
        "velocity": 42,
        "subtype": "noteOn"
      },
      {
        "deltaTime": 36,
        "channel": 2,
        "type": "channel",
        "noteNumber": 79,
        "velocity": 41,
        "subtype": "noteOn"
      },
      {
        "deltaTime": 7,
        "channel": 2,
        "type": "channel",
        "subtype": "noteOff",
        "noteNumber": 68,
        "velocity": 0
      },
      {
        "deltaTime": 12,
        "channel": 2,
        "type": "channel",
        "subtype": "noteOff",
        "noteNumber": 79,
        "velocity": 0
      },
      {
        "deltaTime": 3,
        "channel": 2,
        "type": "channel",
        "noteNumber": 104,
        "velocity": 27,
        "subtype": "noteOn"
      },
      {
        "deltaTime": 9,
        "channel": 2,
        "type": "channel",
        "subtype": "noteOff",
        "noteNumber": 104,
        "velocity": 0
      },
      {
        "deltaTime": 0,
        "channel": 2,
        "type": "channel",
        "noteNumber": 36,
        "velocity": 19,
        "subtype": "noteOn"
      },
      {
        "deltaTime": 22,
        "channel": 2,
        "type": "channel",
        "subtype": "noteOff",
        "noteNumber": 36,
        "velocity": 0
      },
      {
        "deltaTime": 34,
        "channel": 2,
        "type": "channel",
        "noteNumber": 91,
        "velocity": 19,
        "subtype": "noteOn"
      },
      {
        "deltaTime": 26,
        "channel": 2,
        "type": "channel",
        "subtype": "noteOff",
        "noteNumber": 91,
        "velocity": 0
      },
      {
        "deltaTime": 38,
        "channel": 2,
        "type": "channel",
        "noteNumber": 99,
        "velocity": 19,
        "subtype": "noteOn"
      },
      {
        "deltaTime": 20,
        "channel": 2,
        "type": "channel",
        "subtype": "noteOff",
        "noteNumber": 99,
        "velocity": 0
      },
      {
        "deltaTime": 28,
        "channel": 2,
        "type": "channel",
        "noteNumber": 77,
        "velocity": 34,
        "subtype": "noteOn"
      },
      {
        "deltaTime": 10,
        "channel": 2,
        "type": "channel",
        "subtype": "noteOff",
        "noteNumber": 77,
        "velocity": 0
      },
      {
        "deltaTime": 46,
        "channel": 2,
        "type": "channel",
        "noteNumber": 80,
        "velocity": 52,
        "subtype": "noteOn"
      },
      {
        "deltaTime": 19,
        "channel": 2,
        "type": "channel",
        "subtype": "noteOff",
        "noteNumber": 80,
        "velocity": 0
      },
      {
        "deltaTime": 57,
        "channel": 2,
        "type": "channel",
        "noteNumber": 67,
        "velocity": 43,
        "subtype": "noteOn"
      },
      {
        "deltaTime": 22,
        "channel": 2,
        "type": "channel",
        "subtype": "noteOff",
        "noteNumber": 67,
        "velocity": 0
      },
      {
        "deltaTime": 60,
        "channel": 2,
        "type": "channel",
        "noteNumber": 103,
        "velocity": 37,
        "subtype": "noteOn"
      },
      {
        "deltaTime": 14,
        "channel": 2,
        "type": "channel",
        "subtype": "noteOff",
        "noteNumber": 103,
        "velocity": 0
      },
      {
        "deltaTime": 53,
        "channel": 2,
        "type": "channel",
        "noteNumber": 51,
        "velocity": 33,
        "subtype": "noteOn"
      },
      {
        "deltaTime": 39,
        "channel": 2,
        "type": "channel",
        "subtype": "noteOff",
        "noteNumber": 51,
        "velocity": 0
      },
      {
        "deltaTime": 12,
        "channel": 2,
        "type": "channel",
        "noteNumber": 77,
        "velocity": 31,
        "subtype": "noteOn"
      },
      {
        "deltaTime": 14,
        "channel": 2,
        "type": "channel",
        "noteNumber": 89,
        "velocity": 32,
        "subtype": "noteOn"
      },
      {
        "deltaTime": 31,
        "channel": 2,
        "type": "channel",
        "subtype": "noteOff",
        "noteNumber": 77,
        "velocity": 0
      },
      {
        "deltaTime": 17,
        "channel": 2,
        "type": "channel",
        "subtype": "noteOff",
        "noteNumber": 89,
        "velocity": 0
      },
      {
        "deltaTime": 17,
        "channel": 2,
        "type": "channel",
        "noteNumber": 89,
        "velocity": 52,
        "subtype": "noteOn"
      },
      {
        "deltaTime": 60,
        "channel": 2,
        "type": "channel",
        "subtype": "noteOff",
        "noteNumber": 89,
        "velocity": 0
      },
      {
        "deltaTime": 21,
        "channel": 2,
        "type": "channel",
        "noteNumber": 101,
        "velocity": 48,
        "subtype": "noteOn"
      },
      {
        "deltaTime": 15,
        "channel": 2,
        "type": "channel",
        "noteNumber": 89,
        "velocity": 44,
        "subtype": "noteOn"
      },
      {
        "deltaTime": 24,
        "channel": 2,
        "type": "channel",
        "subtype": "noteOff",
        "noteNumber": 101,
        "velocity": 0
      },
      {
        "deltaTime": 24,
        "channel": 2,
        "type": "channel",
        "subtype": "noteOff",
        "noteNumber": 89,
        "velocity": 0
      },
      {
        "deltaTime": 105,
        "channel": 2,
        "type": "channel",
        "noteNumber": 91,
        "velocity": 35,
        "subtype": "noteOn"
      },
      {
        "deltaTime": 39,
        "channel": 2,
        "type": "channel",
        "subtype": "noteOff",
        "noteNumber": 91,
        "velocity": 0
      },
      {
        "deltaTime": 33,
        "channel": 2,
        "type": "channel",
        "noteNumber": 103,
        "velocity": 51,
        "subtype": "noteOn"
      },
      {
        "deltaTime": 12,
        "channel": 2,
        "type": "channel",
        "subtype": "noteOff",
        "noteNumber": 103,
        "velocity": 0
      },
      {
        "deltaTime": 12,
        "channel": 2,
        "type": "channel",
        "noteNumber": 94,
        "velocity": 47,
        "subtype": "noteOn"
      },
      {
        "deltaTime": 41,
        "channel": 2,
        "type": "channel",
        "subtype": "noteOff",
        "noteNumber": 94,
        "velocity": 0
      },
      {
        "deltaTime": 22,
        "channel": 2,
        "type": "channel",
        "noteNumber": 103,
        "velocity": 25,
        "subtype": "noteOn"
      },
      {
        "deltaTime": 9,
        "channel": 2,
        "type": "channel",
        "subtype": "noteOff",
        "noteNumber": 103,
        "velocity": 0
      },
      {
        "deltaTime": 17,
        "channel": 2,
        "type": "channel",
        "noteNumber": 79,
        "velocity": 42,
        "subtype": "noteOn"
      },
      {
        "deltaTime": 39,
        "channel": 2,
        "type": "channel",
        "noteNumber": 67,
        "velocity": 37,
        "subtype": "noteOn"
      },
      {
        "deltaTime": 14,
        "channel": 2,
        "type": "channel",
        "subtype": "noteOff",
        "noteNumber": 79,
        "velocity": 0
      },
      {
        "deltaTime": 43,
        "channel": 2,
        "type": "channel",
        "noteNumber": 84,
        "velocity": 29,
        "subtype": "noteOn"
      },
      {
        "deltaTime": 7,
        "channel": 2,
        "type": "channel",
        "subtype": "noteOff",
        "noteNumber": 67,
        "velocity": 0
      },
      {
        "deltaTime": 27,
        "channel": 2,
        "type": "channel",
        "subtype": "noteOff",
        "noteNumber": 84,
        "velocity": 0
      },
      {
        "deltaTime": 12,
        "channel": 2,
        "type": "channel",
        "noteNumber": 77,
        "velocity": 17,
        "subtype": "noteOn"
      },
      {
        "deltaTime": 26,
        "channel": 2,
        "type": "channel",
        "subtype": "noteOff",
        "noteNumber": 77,
        "velocity": 0
      },
      {
        "deltaTime": 31,
        "channel": 2,
        "type": "channel",
        "noteNumber": 68,
        "velocity": 44,
        "subtype": "noteOn"
      },
      {
        "deltaTime": 41,
        "channel": 2,
        "type": "channel",
        "subtype": "noteOff",
        "noteNumber": 68,
        "velocity": 0
      },
      {
        "deltaTime": 29,
        "channel": 2,
        "type": "channel",
        "noteNumber": 36,
        "velocity": 18,
        "subtype": "noteOn"
      },
      {
        "deltaTime": 17,
        "channel": 2,
        "type": "channel",
        "subtype": "noteOff",
        "noteNumber": 36,
        "velocity": 0
      },
      {
        "deltaTime": 12,
        "channel": 2,
        "type": "channel",
        "noteNumber": 89,
        "velocity": 24,
        "subtype": "noteOn"
      },
      {
        "deltaTime": 24,
        "channel": 2,
        "type": "channel",
        "subtype": "noteOff",
        "noteNumber": 89,
        "velocity": 0
      },
      {
        "deltaTime": 60,
        "channel": 2,
        "type": "channel",
        "noteNumber": 96,
        "velocity": 10,
        "subtype": "noteOn"
      },
      {
        "deltaTime": 19,
        "channel": 2,
        "type": "channel",
        "subtype": "noteOff",
        "noteNumber": 96,
        "velocity": 0
      },
      {
        "deltaTime": 12,
        "channel": 2,
        "type": "channel",
        "noteNumber": 96,
        "velocity": 46,
        "subtype": "noteOn"
      },
      {
        "deltaTime": 24,
        "channel": 2,
        "type": "channel",
        "noteNumber": 89,
        "velocity": 45,
        "subtype": "noteOn"
      },
      {
        "deltaTime": 41,
        "channel": 2,
        "type": "channel",
        "subtype": "noteOff",
        "noteNumber": 89,
        "velocity": 0
      },
      {
        "deltaTime": 5,
        "channel": 2,
        "type": "channel",
        "noteNumber": 77,
        "velocity": 41,
        "subtype": "noteOn"
      },
      {
        "deltaTime": 14,
        "channel": 2,
        "type": "channel",
        "subtype": "noteOff",
        "noteNumber": 77,
        "velocity": 0
      },
      {
        "deltaTime": 50,
        "channel": 2,
        "type": "channel",
        "noteNumber": 105,
        "velocity": 17,
        "subtype": "noteOn"
      },
      {
        "deltaTime": 12,
        "channel": 2,
        "type": "channel",
        "subtype": "noteOff",
        "noteNumber": 96,
        "velocity": 0
      },
      {
        "deltaTime": 27,
        "channel": 2,
        "type": "channel",
        "noteNumber": 36,
        "velocity": 16,
        "subtype": "noteOn"
      },
      {
        "deltaTime": 2,
        "channel": 2,
        "type": "channel",
        "subtype": "noteOff",
        "noteNumber": 105,
        "velocity": 0
      },
      {
        "deltaTime": 22,
        "channel": 2,
        "type": "channel",
        "subtype": "noteOff",
        "noteNumber": 36,
        "velocity": 0
      },
      {
        "deltaTime": 7,
        "channel": 2,
        "type": "channel",
        "noteNumber": 67,
        "velocity": 21,
        "subtype": "noteOn"
      },
      {
        "deltaTime": 17,
        "channel": 2,
        "type": "channel",
        "subtype": "noteOff",
        "noteNumber": 67,
        "velocity": 0
      },
      {
        "deltaTime": 14,
        "channel": 2,
        "type": "channel",
        "noteNumber": 41,
        "velocity": 14,
        "subtype": "noteOn"
      },
      {
        "deltaTime": 19,
        "channel": 2,
        "type": "channel",
        "subtype": "noteOff",
        "noteNumber": 41,
        "velocity": 0
      },
      {
        "deltaTime": 22,
        "channel": 2,
        "type": "channel",
        "noteNumber": 96,
        "velocity": 12,
        "subtype": "noteOn"
      },
      {
        "deltaTime": 10,
        "channel": 2,
        "type": "channel",
        "subtype": "noteOff",
        "noteNumber": 96,
        "velocity": 0
      },
      {
        "deltaTime": 69,
        "channel": 2,
        "type": "channel",
        "noteNumber": 49,
        "velocity": 40,
        "subtype": "noteOn"
      },
      {
        "deltaTime": 103,
        "channel": 2,
        "type": "channel",
        "subtype": "noteOff",
        "noteNumber": 49,
        "velocity": 0
      },
      {
        "deltaTime": 10,
        "channel": 2,
        "type": "channel",
        "noteNumber": 63,
        "velocity": 56,
        "subtype": "noteOn"
      },
      {
        "deltaTime": 48,
        "channel": 2,
        "type": "channel",
        "noteNumber": 65,
        "velocity": 46,
        "subtype": "noteOn"
      },
      {
        "deltaTime": 60,
        "channel": 2,
        "type": "channel",
        "subtype": "noteOff",
        "noteNumber": 65,
        "velocity": 0
      },
      {
        "deltaTime": 14,
        "channel": 2,
        "type": "channel",
        "noteNumber": 65,
        "velocity": 40,
        "subtype": "noteOn"
      },
      {
        "deltaTime": 22,
        "channel": 2,
        "type": "channel",
        "subtype": "noteOff",
        "noteNumber": 63,
        "velocity": 0
      },
      {
        "deltaTime": 5,
        "channel": 2,
        "type": "channel",
        "noteNumber": 63,
        "velocity": 31,
        "subtype": "noteOn"
      },
      {
        "deltaTime": 38,
        "channel": 2,
        "type": "channel",
        "subtype": "noteOff",
        "noteNumber": 65,
        "velocity": 0
      },
      {
        "deltaTime": 29,
        "channel": 2,
        "type": "channel",
        "noteNumber": 91,
        "velocity": 34,
        "subtype": "noteOn"
      },
      {
        "deltaTime": 7,
        "channel": 2,
        "type": "channel",
        "subtype": "noteOff",
        "noteNumber": 63,
        "velocity": 0
      },
      {
        "deltaTime": 31,
        "channel": 2,
        "type": "channel",
        "subtype": "noteOff",
        "noteNumber": 91,
        "velocity": 0
      },
      {
        "deltaTime": 32,
        "channel": 2,
        "type": "channel",
        "noteNumber": 103,
        "velocity": 52,
        "subtype": "noteOn"
      },
      {
        "deltaTime": 12,
        "channel": 2,
        "type": "channel",
        "subtype": "noteOff",
        "noteNumber": 103,
        "velocity": 0
      },
      {
        "deltaTime": 31,
        "channel": 2,
        "type": "channel",
        "noteNumber": 79,
        "velocity": 51,
        "subtype": "noteOn"
      },
      {
        "deltaTime": 17,
        "channel": 2,
        "type": "channel",
        "subtype": "noteOff",
        "noteNumber": 79,
        "velocity": 0
      },
      {
        "deltaTime": 57,
        "channel": 2,
        "type": "channel",
        "noteNumber": 65,
        "velocity": 44,
        "subtype": "noteOn"
      },
      {
        "deltaTime": 67,
        "channel": 2,
        "type": "channel",
        "subtype": "noteOff",
        "noteNumber": 65,
        "velocity": 0
      },
      {
        "deltaTime": 0,
        "channel": 2,
        "type": "channel",
        "noteNumber": 79,
        "velocity": 27,
        "subtype": "noteOn"
      },
      {
        "deltaTime": 32,
        "channel": 2,
        "type": "channel",
        "subtype": "noteOff",
        "noteNumber": 79,
        "velocity": 0
      },
      {
        "deltaTime": 98,
        "channel": 2,
        "type": "channel",
        "noteNumber": 104,
        "velocity": 40,
        "subtype": "noteOn"
      },
      {
        "deltaTime": 14,
        "channel": 2,
        "type": "channel",
        "subtype": "noteOff",
        "noteNumber": 104,
        "velocity": 0
      },
      {
        "deltaTime": 15,
        "channel": 2,
        "type": "channel",
        "noteNumber": 96,
        "velocity": 14,
        "subtype": "noteOn"
      },
      {
        "deltaTime": 14,
        "channel": 2,
        "type": "channel",
        "subtype": "noteOff",
        "noteNumber": 96,
        "velocity": 0
      },
      {
        "deltaTime": 12,
        "channel": 2,
        "type": "channel",
        "noteNumber": 104,
        "velocity": 54,
        "subtype": "noteOn"
      },
      {
        "deltaTime": 10,
        "channel": 2,
        "type": "channel",
        "subtype": "noteOff",
        "noteNumber": 104,
        "velocity": 0
      },
      {
        "deltaTime": 2,
        "channel": 2,
        "type": "channel",
        "noteNumber": 36,
        "velocity": 23,
        "subtype": "noteOn"
      },
      {
        "deltaTime": 31,
        "channel": 2,
        "type": "channel",
        "subtype": "noteOff",
        "noteNumber": 36,
        "velocity": 0
      },
      {
        "deltaTime": 0,
        "channel": 2,
        "type": "channel",
        "noteNumber": 104,
        "velocity": 38,
        "subtype": "noteOn"
      },
      {
        "deltaTime": 32,
        "channel": 2,
        "type": "channel",
        "subtype": "noteOff",
        "noteNumber": 104,
        "velocity": 0
      },
      {
        "deltaTime": 7,
        "channel": 2,
        "type": "channel",
        "noteNumber": 67,
        "velocity": 35,
        "subtype": "noteOn"
      },
      {
        "deltaTime": 21,
        "channel": 2,
        "type": "channel",
        "subtype": "noteOff",
        "noteNumber": 67,
        "velocity": 0
      },
      {
        "deltaTime": 20,
        "channel": 2,
        "type": "channel",
        "noteNumber": 92,
        "velocity": 10,
        "subtype": "noteOn"
      },
      {
        "deltaTime": 21,
        "channel": 2,
        "type": "channel",
        "noteNumber": 70,
        "velocity": 48,
        "subtype": "noteOn"
      },
      {
        "deltaTime": 7,
        "channel": 2,
        "type": "channel",
        "subtype": "noteOff",
        "noteNumber": 92,
        "velocity": 0
      },
      {
        "deltaTime": 12,
        "channel": 2,
        "type": "channel",
        "noteNumber": 92,
        "velocity": 10,
        "subtype": "noteOn"
      },
      {
        "deltaTime": 32,
        "channel": 2,
        "type": "channel",
        "subtype": "noteOff",
        "noteNumber": 92,
        "velocity": 0
      },
      {
        "deltaTime": 4,
        "channel": 2,
        "type": "channel",
        "noteNumber": 92,
        "velocity": 31,
        "subtype": "noteOn"
      },
      {
        "deltaTime": 15,
        "channel": 2,
        "type": "channel",
        "subtype": "noteOff",
        "noteNumber": 92,
        "velocity": 0
      },
      {
        "deltaTime": 43,
        "channel": 2,
        "type": "channel",
        "subtype": "noteOff",
        "noteNumber": 70,
        "velocity": 0
      },
      {
        "deltaTime": 5,
        "channel": 2,
        "type": "channel",
        "noteNumber": 68,
        "velocity": 41,
        "subtype": "noteOn"
      },
      {
        "deltaTime": 38,
        "channel": 2,
        "type": "channel",
        "subtype": "noteOff",
        "noteNumber": 68,
        "velocity": 0
      },
      {
        "deltaTime": 12,
        "channel": 2,
        "type": "channel",
        "noteNumber": 104,
        "velocity": 15,
        "subtype": "noteOn"
      },
      {
        "deltaTime": 12,
        "channel": 2,
        "type": "channel",
        "subtype": "noteOff",
        "noteNumber": 104,
        "velocity": 0
      },
      {
        "deltaTime": 17,
        "channel": 2,
        "type": "channel",
        "noteNumber": 79,
        "velocity": 34,
        "subtype": "noteOn"
      },
      {
        "deltaTime": 2,
        "channel": 2,
        "type": "channel",
        "noteNumber": 39,
        "velocity": 60,
        "subtype": "noteOn"
      },
      {
        "deltaTime": 34,
        "channel": 2,
        "type": "channel",
        "subtype": "noteOff",
        "noteNumber": 79,
        "velocity": 0
      },
      {
        "deltaTime": 0,
        "channel": 2,
        "type": "channel",
        "noteNumber": 103,
        "velocity": 58,
        "subtype": "noteOn"
      },
      {
        "deltaTime": 41,
        "channel": 2,
        "type": "channel",
        "subtype": "noteOff",
        "noteNumber": 103,
        "velocity": 0
      },
      {
        "deltaTime": 96,
        "channel": 2,
        "type": "channel",
        "subtype": "noteOff",
        "noteNumber": 39,
        "velocity": 0
      },
      {
        "deltaTime": 125,
        "channel": 2,
        "type": "channel",
        "noteNumber": 101,
        "velocity": 55,
        "subtype": "noteOn"
      },
      {
        "deltaTime": 16,
        "channel": 2,
        "type": "channel",
        "subtype": "noteOff",
        "noteNumber": 101,
        "velocity": 0
      },
      {
        "deltaTime": 32,
        "channel": 2,
        "type": "channel",
        "noteNumber": 89,
        "velocity": 24,
        "subtype": "noteOn"
      },
      {
        "deltaTime": 31,
        "channel": 2,
        "type": "channel",
        "subtype": "noteOff",
        "noteNumber": 89,
        "velocity": 0
      },
      {
        "deltaTime": 5,
        "channel": 2,
        "type": "channel",
        "noteNumber": 77,
        "velocity": 21,
        "subtype": "noteOn"
      },
      {
        "deltaTime": 19,
        "channel": 2,
        "type": "channel",
        "subtype": "noteOff",
        "noteNumber": 77,
        "velocity": 0
      },
      {
        "deltaTime": 122,
        "channel": 2,
        "type": "channel",
        "noteNumber": 91,
        "velocity": 30,
        "subtype": "noteOn"
      },
      {
        "deltaTime": 31,
        "channel": 2,
        "type": "channel",
        "subtype": "noteOff",
        "noteNumber": 91,
        "velocity": 0
      },
      {
        "deltaTime": 15,
        "channel": 2,
        "type": "channel",
        "noteNumber": 103,
        "velocity": 55,
        "subtype": "noteOn"
      },
      {
        "deltaTime": 17,
        "channel": 2,
        "type": "channel",
        "noteNumber": 91,
        "velocity": 55,
        "subtype": "noteOn"
      },
      {
        "deltaTime": 21,
        "channel": 2,
        "type": "channel",
        "subtype": "noteOff",
        "noteNumber": 103,
        "velocity": 0
      },
      {
        "deltaTime": 29,
        "channel": 2,
        "type": "channel",
        "subtype": "noteOff",
        "noteNumber": 91,
        "velocity": 0
      },
      {
        "deltaTime": 7,
        "channel": 2,
        "type": "channel",
        "noteNumber": 67,
        "velocity": 41,
        "subtype": "noteOn"
      },
      {
        "deltaTime": 22,
        "channel": 2,
        "type": "channel",
        "noteNumber": 103,
        "velocity": 23,
        "subtype": "noteOn"
      },
      {
        "deltaTime": 31,
        "channel": 2,
        "type": "channel",
        "subtype": "noteOff",
        "noteNumber": 103,
        "velocity": 0
      },
      {
        "deltaTime": 5,
        "channel": 2,
        "type": "channel",
        "noteNumber": 91,
        "velocity": 25,
        "subtype": "noteOn"
      },
      {
        "deltaTime": 9,
        "channel": 2,
        "type": "channel",
        "subtype": "noteOff",
        "noteNumber": 91,
        "velocity": 0
      },
      {
        "deltaTime": 3,
        "channel": 2,
        "type": "channel",
        "subtype": "noteOff",
        "noteNumber": 67,
        "velocity": 0
      },
      {
        "deltaTime": 12,
        "channel": 2,
        "type": "channel",
        "noteNumber": 67,
        "velocity": 40,
        "subtype": "noteOn"
      },
      {
        "deltaTime": 29,
        "channel": 2,
        "type": "channel",
        "noteNumber": 84,
        "velocity": 16,
        "subtype": "noteOn"
      },
      {
        "deltaTime": 9,
        "channel": 2,
        "type": "channel",
        "subtype": "noteOff",
        "noteNumber": 84,
        "velocity": 0
      },
      {
        "deltaTime": 0,
        "channel": 2,
        "type": "channel",
        "noteNumber": 91,
        "velocity": 29,
        "subtype": "noteOn"
      },
      {
        "deltaTime": 27,
        "channel": 2,
        "type": "channel",
        "subtype": "noteOff",
        "noteNumber": 67,
        "velocity": 0
      },
      {
        "deltaTime": 2,
        "channel": 2,
        "type": "channel",
        "subtype": "noteOff",
        "noteNumber": 91,
        "velocity": 0
      },
      {
        "deltaTime": 91,
        "channel": 2,
        "type": "channel",
        "noteNumber": 68,
        "velocity": 41,
        "subtype": "noteOn"
      },
      {
        "deltaTime": 43,
        "channel": 2,
        "type": "channel",
        "subtype": "noteOff",
        "noteNumber": 68,
        "velocity": 0
      },
      {
        "deltaTime": 192,
        "channel": 2,
        "type": "channel",
        "noteNumber": 96,
        "velocity": 47,
        "subtype": "noteOn"
      },
      {
        "deltaTime": 0,
        "channel": 2,
        "type": "channel",
        "noteNumber": 65,
        "velocity": 54,
        "subtype": "noteOn"
      },
      {
        "deltaTime": 41,
        "channel": 2,
        "type": "channel",
        "subtype": "noteOff",
        "noteNumber": 96,
        "velocity": 0
      },
      {
        "deltaTime": 51,
        "channel": 2,
        "type": "channel",
        "noteNumber": 105,
        "velocity": 47,
        "subtype": "noteOn"
      },
      {
        "deltaTime": 21,
        "channel": 2,
        "type": "channel",
        "subtype": "noteOff",
        "noteNumber": 65,
        "velocity": 0
      },
      {
        "deltaTime": 19,
        "channel": 2,
        "type": "channel",
        "subtype": "noteOff",
        "noteNumber": 105,
        "velocity": 0
      },
      {
        "deltaTime": 5,
        "channel": 2,
        "type": "channel",
        "noteNumber": 77,
        "velocity": 26,
        "subtype": "noteOn"
      },
      {
        "deltaTime": 15,
        "channel": 2,
        "type": "channel",
        "subtype": "noteOff",
        "noteNumber": 77,
        "velocity": 0
      },
      {
        "deltaTime": 16,
        "channel": 2,
        "type": "channel",
        "noteNumber": 63,
        "velocity": 16,
        "subtype": "noteOn"
      },
      {
        "deltaTime": 12,
        "channel": 2,
        "type": "channel",
        "subtype": "noteOff",
        "noteNumber": 63,
        "velocity": 0
      },
      {
        "deltaTime": 8,
        "channel": 2,
        "type": "channel",
        "noteNumber": 79,
        "velocity": 19,
        "subtype": "noteOn"
      },
      {
        "deltaTime": 9,
        "channel": 2,
        "type": "channel",
        "subtype": "noteOff",
        "noteNumber": 79,
        "velocity": 0
      },
      {
        "deltaTime": 10,
        "channel": 2,
        "type": "channel",
        "noteNumber": 56,
        "velocity": 44,
        "subtype": "noteOn"
      },
      {
        "deltaTime": 2,
        "channel": 2,
        "type": "channel",
        "noteNumber": 99,
        "velocity": 42,
        "subtype": "noteOn"
      },
      {
        "deltaTime": 17,
        "channel": 2,
        "type": "channel",
        "subtype": "noteOff",
        "noteNumber": 99,
        "velocity": 0
      },
      {
        "deltaTime": 17,
        "channel": 2,
        "type": "channel",
        "noteNumber": 87,
        "velocity": 42,
        "subtype": "noteOn"
      },
      {
        "deltaTime": 12,
        "channel": 2,
        "type": "channel",
        "subtype": "noteOff",
        "noteNumber": 87,
        "velocity": 0
      },
      {
        "deltaTime": 21,
        "channel": 2,
        "type": "channel",
        "subtype": "noteOff",
        "noteNumber": 56,
        "velocity": 0
      },
      {
        "deltaTime": 10,
        "channel": 2,
        "type": "channel",
        "noteNumber": 63,
        "velocity": 10,
        "subtype": "noteOn"
      },
      {
        "deltaTime": 14,
        "channel": 2,
        "type": "channel",
        "noteNumber": 87,
        "velocity": 17,
        "subtype": "noteOn"
      },
      {
        "deltaTime": 5,
        "channel": 2,
        "type": "channel",
        "subtype": "noteOff",
        "noteNumber": 63,
        "velocity": 0
      },
      {
        "deltaTime": 7,
        "channel": 2,
        "type": "channel",
        "subtype": "noteOff",
        "noteNumber": 87,
        "velocity": 0
      },
      {
        "deltaTime": 48,
        "channel": 2,
        "type": "channel",
        "noteNumber": 77,
        "velocity": 39,
        "subtype": "noteOn"
      },
      {
        "deltaTime": 22,
        "channel": 2,
        "type": "channel",
        "subtype": "noteOff",
        "noteNumber": 77,
        "velocity": 0
      },
      {
        "deltaTime": 12,
        "channel": 2,
        "type": "channel",
        "noteNumber": 101,
        "velocity": 45,
        "subtype": "noteOn"
      },
      {
        "deltaTime": 53,
        "channel": 2,
        "type": "channel",
        "noteNumber": 63,
        "velocity": 53,
        "subtype": "noteOn"
      },
      {
        "deltaTime": 14,
        "channel": 2,
        "type": "channel",
        "subtype": "noteOff",
        "noteNumber": 101,
        "velocity": 0
      },
      {
        "deltaTime": 24,
        "channel": 2,
        "type": "channel",
        "subtype": "noteOff",
        "noteNumber": 63,
        "velocity": 0
      },
      {
        "deltaTime": 10,
        "channel": 2,
        "type": "channel",
        "noteNumber": 63,
        "velocity": 26,
        "subtype": "noteOn"
      },
      {
        "deltaTime": 17,
        "channel": 2,
        "type": "channel",
        "subtype": "noteOff",
        "noteNumber": 63,
        "velocity": 0
      },
      {
        "deltaTime": 57,
        "channel": 2,
        "type": "channel",
        "noteNumber": 99,
        "velocity": 28,
        "subtype": "noteOn"
      },
      {
        "deltaTime": 24,
        "channel": 2,
        "type": "channel",
        "subtype": "noteOff",
        "noteNumber": 99,
        "velocity": 0
      },
      {
        "deltaTime": 15,
        "channel": 2,
        "type": "channel",
        "noteNumber": 63,
        "velocity": 24,
        "subtype": "noteOn"
      },
      {
        "deltaTime": 62,
        "channel": 2,
        "type": "channel",
        "subtype": "noteOff",
        "noteNumber": 63,
        "velocity": 0
      },
      {
        "deltaTime": 26,
        "channel": 2,
        "type": "channel",
        "noteNumber": 39,
        "velocity": 48,
        "subtype": "noteOn"
      },
      {
        "deltaTime": 17,
        "channel": 2,
        "type": "channel",
        "subtype": "noteOff",
        "noteNumber": 39,
        "velocity": 0
      },
      {
        "deltaTime": 19,
        "channel": 2,
        "type": "channel",
        "noteNumber": 103,
        "velocity": 50,
        "subtype": "noteOn"
      },
      {
        "deltaTime": 12,
        "channel": 2,
        "type": "channel",
        "subtype": "noteOff",
        "noteNumber": 103,
        "velocity": 0
      },
      {
        "deltaTime": 32,
        "channel": 2,
        "type": "channel",
        "noteNumber": 79,
        "velocity": 51,
        "subtype": "noteOn"
      },
      {
        "deltaTime": 16,
        "channel": 2,
        "type": "channel",
        "subtype": "noteOff",
        "noteNumber": 79,
        "velocity": 0
      },
      {
        "deltaTime": 22,
        "channel": 2,
        "type": "channel",
        "noteNumber": 67,
        "velocity": 42,
        "subtype": "noteOn"
      },
      {
        "deltaTime": 60,
        "channel": 2,
        "type": "channel",
        "subtype": "noteOff",
        "noteNumber": 67,
        "velocity": 0
      },
      {
        "deltaTime": 10,
        "channel": 2,
        "type": "channel",
        "noteNumber": 67,
        "velocity": 38,
        "subtype": "noteOn"
      },
      {
        "deltaTime": 21,
        "channel": 2,
        "type": "channel",
        "noteNumber": 98,
        "velocity": 31,
        "subtype": "noteOn"
      },
      {
        "deltaTime": 10,
        "channel": 2,
        "type": "channel",
        "noteNumber": 77,
        "velocity": 23,
        "subtype": "noteOn"
      },
      {
        "deltaTime": 9,
        "channel": 2,
        "type": "channel",
        "subtype": "noteOff",
        "noteNumber": 77,
        "velocity": 0
      },
      {
        "deltaTime": 8,
        "channel": 2,
        "type": "channel",
        "subtype": "noteOff",
        "noteNumber": 98,
        "velocity": 0
      },
      {
        "deltaTime": 21,
        "channel": 2,
        "type": "channel",
        "subtype": "noteOff",
        "noteNumber": 67,
        "velocity": 0
      },
      {
        "deltaTime": 51,
        "channel": 2,
        "type": "channel",
        "noteNumber": 104,
        "velocity": 39,
        "subtype": "noteOn"
      },
      {
        "deltaTime": 26,
        "channel": 2,
        "type": "channel",
        "noteNumber": 92,
        "velocity": 39,
        "subtype": "noteOn"
      },
      {
        "deltaTime": 10,
        "channel": 2,
        "type": "channel",
        "subtype": "noteOff",
        "noteNumber": 92,
        "velocity": 0
      },
      {
        "deltaTime": 4,
        "channel": 2,
        "type": "channel",
        "noteNumber": 68,
        "velocity": 47,
        "subtype": "noteOn"
      },
      {
        "deltaTime": 3,
        "channel": 2,
        "type": "channel",
        "subtype": "noteOff",
        "noteNumber": 104,
        "velocity": 0
      },
      {
        "deltaTime": 31,
        "channel": 2,
        "type": "channel",
        "noteNumber": 79,
        "velocity": 49,
        "subtype": "noteOn"
      },
      {
        "deltaTime": 10,
        "channel": 2,
        "type": "channel",
        "subtype": "noteOff",
        "noteNumber": 68,
        "velocity": 0
      },
      {
        "deltaTime": 14,
        "channel": 2,
        "type": "channel",
        "subtype": "noteOff",
        "noteNumber": 79,
        "velocity": 0
      },
      {
        "deltaTime": 36,
        "channel": 2,
        "type": "channel",
        "noteNumber": 68,
        "velocity": 44,
        "subtype": "noteOn"
      },
      {
        "deltaTime": 22,
        "channel": 2,
        "type": "channel",
        "noteNumber": 79,
        "velocity": 36,
        "subtype": "noteOn"
      },
      {
        "deltaTime": 9,
        "channel": 2,
        "type": "channel",
        "subtype": "noteOff",
        "noteNumber": 68,
        "velocity": 0
      },
      {
        "deltaTime": 5,
        "channel": 2,
        "type": "channel",
        "noteNumber": 91,
        "velocity": 14,
        "subtype": "noteOn"
      },
      {
        "deltaTime": 17,
        "channel": 2,
        "type": "channel",
        "subtype": "noteOff",
        "noteNumber": 91,
        "velocity": 0
      },
      {
        "deltaTime": 5,
        "channel": 2,
        "type": "channel",
        "subtype": "noteOff",
        "noteNumber": 79,
        "velocity": 0
      },
      {
        "deltaTime": 48,
        "channel": 2,
        "type": "channel",
        "noteNumber": 70,
        "velocity": 47,
        "subtype": "noteOn"
      },
      {
        "deltaTime": 2,
        "channel": 2,
        "type": "channel",
        "noteNumber": 92,
        "velocity": 14,
        "subtype": "noteOn"
      },
      {
        "deltaTime": 22,
        "channel": 2,
        "type": "channel",
        "subtype": "noteOff",
        "noteNumber": 92,
        "velocity": 0
      },
      {
        "deltaTime": 12,
        "channel": 2,
        "type": "channel",
        "noteNumber": 77,
        "velocity": 36,
        "subtype": "noteOn"
      },
      {
        "deltaTime": 9,
        "channel": 2,
        "type": "channel",
        "subtype": "noteOff",
        "noteNumber": 77,
        "velocity": 0
      },
      {
        "deltaTime": 5,
        "channel": 2,
        "type": "channel",
        "noteNumber": 41,
        "velocity": 47,
        "subtype": "noteOn"
      },
      {
        "deltaTime": 29,
        "channel": 2,
        "type": "channel",
        "noteNumber": 92,
        "velocity": 47,
        "subtype": "noteOn"
      },
      {
        "deltaTime": 19,
        "channel": 2,
        "type": "channel",
        "subtype": "noteOff",
        "noteNumber": 92,
        "velocity": 0
      },
      {
        "deltaTime": 17,
        "channel": 2,
        "type": "channel",
        "subtype": "noteOff",
        "noteNumber": 70,
        "velocity": 0
      },
      {
        "deltaTime": 48,
        "channel": 2,
        "type": "channel",
        "subtype": "noteOff",
        "noteNumber": 41,
        "velocity": 0
      },
      {
        "deltaTime": 26,
        "channel": 2,
        "type": "channel",
        "noteNumber": 36,
        "velocity": 20,
        "subtype": "noteOn"
      },
      {
        "deltaTime": 15,
        "channel": 2,
        "type": "channel",
        "noteNumber": 39,
        "velocity": 60,
        "subtype": "noteOn"
      },
      {
        "deltaTime": 24,
        "channel": 2,
        "type": "channel",
        "noteNumber": 103,
        "velocity": 25,
        "subtype": "noteOn"
      },
      {
        "deltaTime": 2,
        "channel": 2,
        "type": "channel",
        "subtype": "noteOff",
        "noteNumber": 36,
        "velocity": 0
      },
      {
        "deltaTime": 12,
        "channel": 2,
        "type": "channel",
        "subtype": "noteOff",
        "noteNumber": 103,
        "velocity": 0
      },
      {
        "deltaTime": 7,
        "channel": 2,
        "type": "channel",
        "noteNumber": 103,
        "velocity": 40,
        "subtype": "noteOn"
      },
      {
        "deltaTime": 15,
        "channel": 2,
        "type": "channel",
        "subtype": "noteOff",
        "noteNumber": 103,
        "velocity": 0
      },
      {
        "deltaTime": 24,
        "channel": 2,
        "type": "channel",
        "noteNumber": 84,
        "velocity": 56,
        "subtype": "noteOn"
      },
      {
        "deltaTime": 62,
        "channel": 2,
        "type": "channel",
        "subtype": "noteOff",
        "noteNumber": 84,
        "velocity": 0
      },
      {
        "deltaTime": 41,
        "channel": 2,
        "type": "channel",
        "subtype": "noteOff",
        "noteNumber": 39,
        "velocity": 0
      },
      {
        "deltaTime": 108,
        "channel": 2,
        "type": "channel",
        "noteNumber": 92,
        "velocity": 55,
        "subtype": "noteOn"
      },
      {
        "deltaTime": 24,
        "channel": 2,
        "type": "channel",
        "subtype": "noteOff",
        "noteNumber": 92,
        "velocity": 0
      },
      {
        "deltaTime": 7,
        "channel": 2,
        "type": "channel",
        "noteNumber": 96,
        "velocity": 46,
        "subtype": "noteOn"
      },
      {
        "deltaTime": 14,
        "channel": 2,
        "type": "channel",
        "noteNumber": 89,
        "velocity": 32,
        "subtype": "noteOn"
      },
      {
        "deltaTime": 22,
        "channel": 2,
        "type": "channel",
        "subtype": "noteOff",
        "noteNumber": 96,
        "velocity": 0
      },
      {
        "deltaTime": 26,
        "channel": 2,
        "type": "channel",
        "subtype": "noteOff",
        "noteNumber": 89,
        "velocity": 0
      },
      {
        "deltaTime": 48,
        "channel": 2,
        "type": "channel",
        "noteNumber": 97,
        "velocity": 11,
        "subtype": "noteOn"
      },
      {
        "deltaTime": 12,
        "channel": 2,
        "type": "channel",
        "subtype": "noteOff",
        "noteNumber": 97,
        "velocity": 0
      },
      {
        "deltaTime": 46,
        "channel": 2,
        "type": "channel",
        "noteNumber": 91,
        "velocity": 34,
        "subtype": "noteOn"
      },
      {
        "deltaTime": 36,
        "channel": 2,
        "type": "channel",
        "subtype": "noteOff",
        "noteNumber": 91,
        "velocity": 0
      },
      {
        "deltaTime": 34,
        "channel": 2,
        "type": "channel",
        "noteNumber": 103,
        "velocity": 52,
        "subtype": "noteOn"
      },
      {
        "deltaTime": 12,
        "channel": 2,
        "type": "channel",
        "subtype": "noteOff",
        "noteNumber": 103,
        "velocity": 0
      },
      {
        "deltaTime": 12,
        "channel": 2,
        "type": "channel",
        "noteNumber": 94,
        "velocity": 42,
        "subtype": "noteOn"
      },
      {
        "deltaTime": 43,
        "channel": 2,
        "type": "channel",
        "subtype": "noteOff",
        "noteNumber": 94,
        "velocity": 0
      },
      {
        "deltaTime": 2,
        "channel": 2,
        "type": "channel",
        "noteNumber": 79,
        "velocity": 24,
        "subtype": "noteOn"
      },
      {
        "deltaTime": 15,
        "channel": 2,
        "type": "channel",
        "subtype": "noteOff",
        "noteNumber": 79,
        "velocity": 0
      },
      {
        "deltaTime": 48,
        "channel": 2,
        "type": "channel",
        "noteNumber": 91,
        "velocity": 36,
        "subtype": "noteOn"
      },
      {
        "deltaTime": 9,
        "channel": 2,
        "type": "channel",
        "subtype": "noteOff",
        "noteNumber": 91,
        "velocity": 0
      },
      {
        "deltaTime": 10,
        "channel": 2,
        "type": "channel",
        "noteNumber": 67,
        "velocity": 39,
        "subtype": "noteOn"
      },
      {
        "deltaTime": 29,
        "channel": 2,
        "type": "channel",
        "noteNumber": 96,
        "velocity": 35,
        "subtype": "noteOn"
      },
      {
        "deltaTime": 28,
        "channel": 2,
        "type": "channel",
        "noteNumber": 84,
        "velocity": 31,
        "subtype": "noteOn"
      },
      {
        "deltaTime": 10,
        "channel": 2,
        "type": "channel",
        "subtype": "noteOff",
        "noteNumber": 67,
        "velocity": 0
      },
      {
        "deltaTime": 5,
        "channel": 2,
        "type": "channel",
        "subtype": "noteOff",
        "noteNumber": 96,
        "velocity": 0
      },
      {
        "deltaTime": 19,
        "channel": 2,
        "type": "channel",
        "subtype": "noteOff",
        "noteNumber": 84,
        "velocity": 0
      },
      {
        "deltaTime": 12,
        "channel": 2,
        "type": "channel",
        "noteNumber": 77,
        "velocity": 17,
        "subtype": "noteOn"
      },
      {
        "deltaTime": 24,
        "channel": 2,
        "type": "channel",
        "subtype": "noteOff",
        "noteNumber": 77,
        "velocity": 0
      },
      {
        "deltaTime": 17,
        "channel": 2,
        "type": "channel",
        "noteNumber": 77,
        "velocity": 41,
        "subtype": "noteOn"
      },
      {
        "deltaTime": 14,
        "channel": 2,
        "type": "channel",
        "subtype": "noteOff",
        "noteNumber": 77,
        "velocity": 0
      },
      {
        "deltaTime": 5,
        "channel": 2,
        "type": "channel",
        "noteNumber": 68,
        "velocity": 41,
        "subtype": "noteOn"
      },
      {
        "deltaTime": 38,
        "channel": 2,
        "type": "channel",
        "subtype": "noteOff",
        "noteNumber": 68,
        "velocity": 0
      },
      {
        "deltaTime": 15,
        "channel": 2,
        "type": "channel",
        "noteNumber": 67,
        "velocity": 54,
        "subtype": "noteOn"
      },
      {
        "deltaTime": 14,
        "channel": 2,
        "type": "channel",
        "subtype": "noteOff",
        "noteNumber": 67,
        "velocity": 0
      },
      {
        "deltaTime": 3,
        "channel": 2,
        "type": "channel",
        "noteNumber": 38,
        "velocity": 25,
        "subtype": "noteOn"
      },
      {
        "deltaTime": 9,
        "channel": 2,
        "type": "channel",
        "subtype": "noteOff",
        "noteNumber": 38,
        "velocity": 0
      },
      {
        "deltaTime": 5,
        "channel": 2,
        "type": "channel",
        "noteNumber": 68,
        "velocity": 50,
        "subtype": "noteOn"
      },
      {
        "deltaTime": 41,
        "channel": 2,
        "type": "channel",
        "subtype": "noteOff",
        "noteNumber": 68,
        "velocity": 0
      },
      {
        "deltaTime": 21,
        "channel": 2,
        "type": "channel",
        "noteNumber": 101,
        "velocity": 57,
        "subtype": "noteOn"
      },
      {
        "deltaTime": 22,
        "channel": 2,
        "type": "channel",
        "subtype": "noteOff",
        "noteNumber": 101,
        "velocity": 0
      },
      {
        "deltaTime": 2,
        "channel": 2,
        "type": "channel",
        "noteNumber": 77,
        "velocity": 63,
        "subtype": "noteOn"
      },
      {
        "deltaTime": 75,
        "channel": 2,
        "type": "channel",
        "subtype": "noteOff",
        "noteNumber": 77,
        "velocity": 0
      },
      {
        "deltaTime": 86,
        "channel": 2,
        "type": "channel",
        "noteNumber": 105,
        "velocity": 52,
        "subtype": "noteOn"
      },
      {
        "deltaTime": 41,
        "channel": 2,
        "type": "channel",
        "noteNumber": 77,
        "velocity": 31,
        "subtype": "noteOn"
      },
      {
        "deltaTime": 12,
        "channel": 2,
        "type": "channel",
        "subtype": "noteOff",
        "noteNumber": 77,
        "velocity": 0
      },
      {
        "deltaTime": 0,
        "channel": 2,
        "type": "channel",
        "noteNumber": 36,
        "velocity": 18,
        "subtype": "noteOn"
      },
      {
        "deltaTime": 14,
        "channel": 2,
        "type": "channel",
        "subtype": "noteOff",
        "noteNumber": 105,
        "velocity": 0
      },
      {
        "deltaTime": 3,
        "channel": 2,
        "type": "channel",
        "subtype": "noteOff",
        "noteNumber": 36,
        "velocity": 0
      },
      {
        "deltaTime": 9,
        "channel": 2,
        "type": "channel",
        "noteNumber": 105,
        "velocity": 36,
        "subtype": "noteOn"
      },
      {
        "deltaTime": 27,
        "channel": 2,
        "type": "channel",
        "subtype": "noteOff",
        "noteNumber": 105,
        "velocity": 0
      },
      {
        "deltaTime": 48,
        "channel": 2,
        "type": "channel",
        "noteNumber": 101,
        "velocity": 47,
        "subtype": "noteOn"
      },
      {
        "deltaTime": 17,
        "channel": 2,
        "type": "channel",
        "subtype": "noteOff",
        "noteNumber": 101,
        "velocity": 0
      },
      {
        "deltaTime": 16,
        "channel": 2,
        "type": "channel",
        "noteNumber": 63,
        "velocity": 15,
        "subtype": "noteOn"
      },
      {
        "deltaTime": 32,
        "channel": 2,
        "type": "channel",
        "subtype": "noteOff",
        "noteNumber": 63,
        "velocity": 0
      },
      {
        "deltaTime": 55,
        "channel": 2,
        "type": "channel",
        "noteNumber": 56,
        "velocity": 10,
        "subtype": "noteOn"
      },
      {
        "deltaTime": 141,
        "channel": 2,
        "type": "channel",
        "subtype": "noteOff",
        "noteNumber": 56,
        "velocity": 0
      },
      {
        "deltaTime": 2736,
        "channel": 2,
        "type": "channel",
        "noteNumber": 58,
        "velocity": 12,
        "subtype": "noteOn"
      },
      {
        "deltaTime": 75,
        "channel": 2,
        "type": "channel",
        "subtype": "noteOff",
        "noteNumber": 58,
        "velocity": 0
      },
      {
        "deltaTime": 0,
        "type": "meta",
        "subtype": "endOfTrack"
      }
    ],
    [
      {
        "deltaTime": 11954,
        "channel": 2,
        "type": "channel",
        "noteNumber": 61,
        "velocity": 22,
        "subtype": "noteOn"
      },
      {
        "deltaTime": 24,
        "channel": 2,
        "type": "channel",
        "subtype": "noteOff",
        "noteNumber": 61,
        "velocity": 0
      },
      {
        "deltaTime": 36,
        "channel": 2,
        "type": "channel",
        "noteNumber": 36,
        "velocity": 28,
        "subtype": "noteOn"
      },
      {
        "deltaTime": 21,
        "channel": 2,
        "type": "channel",
        "subtype": "noteOff",
        "noteNumber": 36,
        "velocity": 0
      },
      {
        "deltaTime": 536,
        "channel": 2,
        "type": "channel",
        "noteNumber": 59,
        "velocity": 10,
        "subtype": "noteOn"
      },
      {
        "deltaTime": 36,
        "channel": 2,
        "type": "channel",
        "noteNumber": 35,
        "velocity": 10,
        "subtype": "noteOn"
      },
      {
        "deltaTime": 14,
        "channel": 2,
        "type": "channel",
        "subtype": "noteOff",
        "noteNumber": 59,
        "velocity": 0
      },
      {
        "deltaTime": 7,
        "channel": 2,
        "type": "channel",
        "subtype": "noteOff",
        "noteNumber": 35,
        "velocity": 0
      },
      {
        "deltaTime": 516,
        "channel": 2,
        "type": "channel",
        "noteNumber": 38,
        "velocity": 15,
        "subtype": "noteOn"
      },
      {
        "deltaTime": 27,
        "channel": 2,
        "type": "channel",
        "subtype": "noteOff",
        "noteNumber": 38,
        "velocity": 0
      },
      {
        "deltaTime": 0,
        "channel": 2,
        "type": "channel",
        "noteNumber": 52,
        "velocity": 23,
        "subtype": "noteOn"
      },
      {
        "deltaTime": 9,
        "channel": 2,
        "type": "channel",
        "subtype": "noteOff",
        "noteNumber": 52,
        "velocity": 0
      },
      {
        "deltaTime": 34,
        "channel": 2,
        "type": "channel",
        "noteNumber": 36,
        "velocity": 18,
        "subtype": "noteOn"
      },
      {
        "deltaTime": 33,
        "channel": 2,
        "type": "channel",
        "subtype": "noteOff",
        "noteNumber": 36,
        "velocity": 0
      },
      {
        "deltaTime": 600,
        "channel": 2,
        "type": "channel",
        "noteNumber": 35,
        "velocity": 19,
        "subtype": "noteOn"
      },
      {
        "deltaTime": 63,
        "channel": 2,
        "type": "channel",
        "subtype": "noteOff",
        "noteNumber": 35,
        "velocity": 0
      },
      {
        "deltaTime": 53,
        "channel": 2,
        "type": "channel",
        "noteNumber": 50,
        "velocity": 13,
        "subtype": "noteOn"
      },
      {
        "deltaTime": 26,
        "channel": 2,
        "type": "channel",
        "subtype": "noteOff",
        "noteNumber": 50,
        "velocity": 0
      },
      {
        "deltaTime": 187,
        "channel": 2,
        "type": "channel",
        "noteNumber": 36,
        "velocity": 14,
        "subtype": "noteOn"
      },
      {
        "deltaTime": 22,
        "channel": 2,
        "type": "channel",
        "subtype": "noteOff",
        "noteNumber": 36,
        "velocity": 0
      },
      {
        "deltaTime": 240,
        "channel": 2,
        "type": "channel",
        "noteNumber": 69,
        "velocity": 10,
        "subtype": "noteOn"
      },
      {
        "deltaTime": 101,
        "channel": 2,
        "type": "channel",
        "subtype": "noteOff",
        "noteNumber": 69,
        "velocity": 0
      },
      {
        "deltaTime": 31,
        "channel": 2,
        "type": "channel",
        "noteNumber": 64,
        "velocity": 22,
        "subtype": "noteOn"
      },
      {
        "deltaTime": 12,
        "channel": 2,
        "type": "channel",
        "subtype": "noteOff",
        "noteNumber": 64,
        "velocity": 0
      },
      {
        "deltaTime": 540,
        "channel": 2,
        "type": "channel",
        "noteNumber": 81,
        "velocity": 12,
        "subtype": "noteOn"
      },
      {
        "deltaTime": 98,
        "channel": 2,
        "type": "channel",
        "subtype": "noteOff",
        "noteNumber": 81,
        "velocity": 0
      },
      {
        "deltaTime": 533,
        "channel": 2,
        "type": "channel",
        "noteNumber": 90,
        "velocity": 13,
        "subtype": "noteOn"
      },
      {
        "deltaTime": 101,
        "channel": 2,
        "type": "channel",
        "subtype": "noteOff",
        "noteNumber": 90,
        "velocity": 0
      },
      {
        "deltaTime": 1848,
        "channel": 2,
        "type": "channel",
        "noteNumber": 66,
        "velocity": 15,
        "subtype": "noteOn"
      },
      {
        "deltaTime": 81,
        "channel": 2,
        "type": "channel",
        "subtype": "noteOff",
        "noteNumber": 66,
        "velocity": 0
      },
      {
        "deltaTime": 512,
        "channel": 2,
        "type": "channel",
        "noteNumber": 69,
        "velocity": 12,
        "subtype": "noteOn"
      },
      {
        "deltaTime": 84,
        "channel": 2,
        "type": "channel",
        "noteNumber": 33,
        "velocity": 24,
        "subtype": "noteOn"
      },
      {
        "deltaTime": 24,
        "channel": 2,
        "type": "channel",
        "subtype": "noteOff",
        "noteNumber": 69,
        "velocity": 0
      },
      {
        "deltaTime": 180,
        "channel": 2,
        "type": "channel",
        "subtype": "noteOff",
        "noteNumber": 33,
        "velocity": 0
      },
      {
        "deltaTime": 967,
        "channel": 2,
        "type": "channel",
        "noteNumber": 90,
        "velocity": 15,
        "subtype": "noteOn"
      },
      {
        "deltaTime": 98,
        "channel": 2,
        "type": "channel",
        "subtype": "noteOff",
        "noteNumber": 90,
        "velocity": 0
      },
      {
        "deltaTime": 550,
        "channel": 2,
        "type": "channel",
        "noteNumber": 81,
        "velocity": 15,
        "subtype": "noteOn"
      },
      {
        "deltaTime": 33,
        "channel": 2,
        "type": "channel",
        "subtype": "noteOff",
        "noteNumber": 81,
        "velocity": 0
      },
      {
        "deltaTime": 60,
        "channel": 2,
        "type": "channel",
        "noteNumber": 78,
        "velocity": 18,
        "subtype": "noteOn"
      },
      {
        "deltaTime": 20,
        "channel": 2,
        "type": "channel",
        "subtype": "noteOff",
        "noteNumber": 78,
        "velocity": 0
      },
      {
        "deltaTime": 43,
        "channel": 2,
        "type": "channel",
        "noteNumber": 32,
        "velocity": 16,
        "subtype": "noteOn"
      },
      {
        "deltaTime": 24,
        "channel": 2,
        "type": "channel",
        "subtype": "noteOff",
        "noteNumber": 32,
        "velocity": 0
      },
      {
        "deltaTime": 597,
        "channel": 2,
        "type": "channel",
        "noteNumber": 36,
        "velocity": 23,
        "subtype": "noteOn"
      },
      {
        "deltaTime": 29,
        "channel": 2,
        "type": "channel",
        "noteNumber": 52,
        "velocity": 13,
        "subtype": "noteOn"
      },
      {
        "deltaTime": 12,
        "channel": 2,
        "type": "channel",
        "subtype": "noteOff",
        "noteNumber": 36,
        "velocity": 0
      },
      {
        "deltaTime": 7,
        "channel": 2,
        "type": "channel",
        "subtype": "noteOff",
        "noteNumber": 52,
        "velocity": 0
      },
      {
        "deltaTime": 804,
        "channel": 2,
        "type": "channel",
        "noteNumber": 38,
        "velocity": 14,
        "subtype": "noteOn"
      },
      {
        "deltaTime": 17,
        "channel": 2,
        "type": "channel",
        "subtype": "noteOff",
        "noteNumber": 38,
        "velocity": 0
      },
      {
        "deltaTime": 29,
        "channel": 2,
        "type": "channel",
        "noteNumber": 62,
        "velocity": 19,
        "subtype": "noteOn"
      },
      {
        "deltaTime": 26,
        "channel": 2,
        "type": "channel",
        "subtype": "noteOff",
        "noteNumber": 62,
        "velocity": 0
      },
      {
        "deltaTime": 207,
        "channel": 2,
        "type": "channel",
        "noteNumber": 38,
        "velocity": 13,
        "subtype": "noteOn"
      },
      {
        "deltaTime": 29,
        "channel": 2,
        "type": "channel",
        "subtype": "noteOff",
        "noteNumber": 38,
        "velocity": 0
      },
      {
        "deltaTime": 110,
        "channel": 2,
        "type": "channel",
        "noteNumber": 71,
        "velocity": 15,
        "subtype": "noteOn"
      },
      {
        "deltaTime": 14,
        "channel": 2,
        "type": "channel",
        "subtype": "noteOff",
        "noteNumber": 71,
        "velocity": 0
      },
      {
        "deltaTime": 264,
        "channel": 2,
        "type": "channel",
        "noteNumber": 78,
        "velocity": 10,
        "subtype": "noteOn"
      },
      {
        "deltaTime": 58,
        "channel": 2,
        "type": "channel",
        "subtype": "noteOff",
        "noteNumber": 78,
        "velocity": 0
      },
      {
        "deltaTime": 238,
        "channel": 2,
        "type": "channel",
        "noteNumber": 36,
        "velocity": 11,
        "subtype": "noteOn"
      },
      {
        "deltaTime": 40,
        "channel": 2,
        "type": "channel",
        "subtype": "noteOff",
        "noteNumber": 36,
        "velocity": 0
      },
      {
        "deltaTime": 8,
        "channel": 2,
        "type": "channel",
        "noteNumber": 83,
        "velocity": 17,
        "subtype": "noteOn"
      },
      {
        "deltaTime": 26,
        "channel": 2,
        "type": "channel",
        "subtype": "noteOff",
        "noteNumber": 83,
        "velocity": 0
      },
      {
        "deltaTime": 206,
        "channel": 2,
        "type": "channel",
        "noteNumber": 36,
        "velocity": 11,
        "subtype": "noteOn"
      },
      {
        "deltaTime": 22,
        "channel": 2,
        "type": "channel",
        "subtype": "noteOff",
        "noteNumber": 36,
        "velocity": 0
      },
      {
        "deltaTime": 17,
        "channel": 2,
        "type": "channel",
        "noteNumber": 31,
        "velocity": 13,
        "subtype": "noteOn"
      },
      {
        "deltaTime": 57,
        "channel": 2,
        "type": "channel",
        "subtype": "noteOff",
        "noteNumber": 31,
        "velocity": 0
      },
      {
        "deltaTime": 202,
        "channel": 2,
        "type": "channel",
        "noteNumber": 32,
        "velocity": 15,
        "subtype": "noteOn"
      },
      {
        "deltaTime": 24,
        "channel": 2,
        "type": "channel",
        "subtype": "noteOff",
        "noteNumber": 32,
        "velocity": 0
      },
      {
        "deltaTime": 82,
        "channel": 2,
        "type": "channel",
        "noteNumber": 33,
        "velocity": 24,
        "subtype": "noteOn"
      },
      {
        "deltaTime": 91,
        "channel": 2,
        "type": "channel",
        "subtype": "noteOff",
        "noteNumber": 33,
        "velocity": 0
      },
      {
        "deltaTime": 285,
        "channel": 2,
        "type": "channel",
        "noteNumber": 78,
        "velocity": 13,
        "subtype": "noteOn"
      },
      {
        "deltaTime": 89,
        "channel": 2,
        "type": "channel",
        "subtype": "noteOff",
        "noteNumber": 78,
        "velocity": 0
      },
      {
        "deltaTime": 46,
        "channel": 2,
        "type": "channel",
        "noteNumber": 78,
        "velocity": 24,
        "subtype": "noteOn"
      },
      {
        "deltaTime": 33,
        "channel": 2,
        "type": "channel",
        "subtype": "noteOff",
        "noteNumber": 78,
        "velocity": 0
      },
      {
        "deltaTime": 58,
        "channel": 2,
        "type": "channel",
        "noteNumber": 88,
        "velocity": 29,
        "subtype": "noteOn"
      },
      {
        "deltaTime": 72,
        "channel": 2,
        "type": "channel",
        "subtype": "noteOff",
        "noteNumber": 88,
        "velocity": 0
      },
      {
        "deltaTime": 245,
        "channel": 2,
        "type": "channel",
        "noteNumber": 62,
        "velocity": 11,
        "subtype": "noteOn"
      },
      {
        "deltaTime": 19,
        "channel": 2,
        "type": "channel",
        "subtype": "noteOff",
        "noteNumber": 62,
        "velocity": 0
      },
      {
        "deltaTime": 377,
        "channel": 2,
        "type": "channel",
        "noteNumber": 36,
        "velocity": 24,
        "subtype": "noteOn"
      },
      {
        "deltaTime": 24,
        "channel": 2,
        "type": "channel",
        "subtype": "noteOff",
        "noteNumber": 36,
        "velocity": 0
      },
      {
        "deltaTime": 221,
        "channel": 2,
        "type": "channel",
        "noteNumber": 71,
        "velocity": 11,
        "subtype": "noteOn"
      },
      {
        "deltaTime": 19,
        "channel": 2,
        "type": "channel",
        "subtype": "noteOff",
        "noteNumber": 71,
        "velocity": 0
      },
      {
        "deltaTime": 81,
        "channel": 2,
        "type": "channel",
        "noteNumber": 54,
        "velocity": 16,
        "subtype": "noteOn"
      },
      {
        "deltaTime": 24,
        "channel": 2,
        "type": "channel",
        "noteNumber": 66,
        "velocity": 15,
        "subtype": "noteOn"
      },
      {
        "deltaTime": 10,
        "channel": 2,
        "type": "channel",
        "subtype": "noteOff",
        "noteNumber": 54,
        "velocity": 0
      },
      {
        "deltaTime": 19,
        "channel": 2,
        "type": "channel",
        "subtype": "noteOff",
        "noteNumber": 66,
        "velocity": 0
      },
      {
        "deltaTime": 99,
        "channel": 2,
        "type": "channel",
        "noteNumber": 59,
        "velocity": 28,
        "subtype": "noteOn"
      },
      {
        "deltaTime": 24,
        "channel": 2,
        "type": "channel",
        "subtype": "noteOff",
        "noteNumber": 59,
        "velocity": 0
      },
      {
        "deltaTime": 26,
        "channel": 2,
        "type": "channel",
        "noteNumber": 54,
        "velocity": 10,
        "subtype": "noteOn"
      },
      {
        "deltaTime": 24,
        "channel": 2,
        "type": "channel",
        "subtype": "noteOff",
        "noteNumber": 54,
        "velocity": 0
      },
      {
        "deltaTime": 2,
        "channel": 2,
        "type": "channel",
        "noteNumber": 62,
        "velocity": 21,
        "subtype": "noteOn"
      },
      {
        "deltaTime": 27,
        "channel": 2,
        "type": "channel",
        "subtype": "noteOff",
        "noteNumber": 62,
        "velocity": 0
      },
      {
        "deltaTime": 7,
        "channel": 2,
        "type": "channel",
        "noteNumber": 83,
        "velocity": 15,
        "subtype": "noteOn"
      },
      {
        "deltaTime": 29,
        "channel": 2,
        "type": "channel",
        "subtype": "noteOff",
        "noteNumber": 83,
        "velocity": 0
      },
      {
        "deltaTime": 36,
        "channel": 2,
        "type": "channel",
        "noteNumber": 52,
        "velocity": 11,
        "subtype": "noteOn"
      },
      {
        "deltaTime": 12,
        "channel": 2,
        "type": "channel",
        "subtype": "noteOff",
        "noteNumber": 52,
        "velocity": 0
      },
      {
        "deltaTime": 96,
        "channel": 2,
        "type": "channel",
        "noteNumber": 52,
        "velocity": 10,
        "subtype": "noteOn"
      },
      {
        "deltaTime": 9,
        "channel": 2,
        "type": "channel",
        "subtype": "noteOff",
        "noteNumber": 52,
        "velocity": 0
      },
      {
        "deltaTime": 490,
        "channel": 2,
        "type": "channel",
        "noteNumber": 36,
        "velocity": 23,
        "subtype": "noteOn"
      },
      {
        "deltaTime": 26,
        "channel": 2,
        "type": "channel",
        "subtype": "noteOff",
        "noteNumber": 36,
        "velocity": 0
      },
      {
        "deltaTime": 533,
        "channel": 2,
        "type": "channel",
        "noteNumber": 36,
        "velocity": 19,
        "subtype": "noteOn"
      },
      {
        "deltaTime": 41,
        "channel": 2,
        "type": "channel",
        "subtype": "noteOff",
        "noteNumber": 36,
        "velocity": 0
      },
      {
        "deltaTime": 41,
        "channel": 2,
        "type": "channel",
        "noteNumber": 38,
        "velocity": 13,
        "subtype": "noteOn"
      },
      {
        "deltaTime": 48,
        "channel": 2,
        "type": "channel",
        "subtype": "noteOff",
        "noteNumber": 38,
        "velocity": 0
      },
      {
        "deltaTime": 153,
        "channel": 2,
        "type": "channel",
        "noteNumber": 36,
        "velocity": 10,
        "subtype": "noteOn"
      },
      {
        "deltaTime": 17,
        "channel": 2,
        "type": "channel",
        "subtype": "noteOff",
        "noteNumber": 36,
        "velocity": 0
      },
      {
        "deltaTime": 262,
        "channel": 2,
        "type": "channel",
        "noteNumber": 36,
        "velocity": 19,
        "subtype": "noteOn"
      },
      {
        "deltaTime": 33,
        "channel": 2,
        "type": "channel",
        "noteNumber": 52,
        "velocity": 15,
        "subtype": "noteOn"
      },
      {
        "deltaTime": 3,
        "channel": 2,
        "type": "channel",
        "subtype": "noteOff",
        "noteNumber": 36,
        "velocity": 0
      },
      {
        "deltaTime": 9,
        "channel": 2,
        "type": "channel",
        "subtype": "noteOff",
        "noteNumber": 52,
        "velocity": 0
      },
      {
        "deltaTime": 118,
        "channel": 2,
        "type": "channel",
        "noteNumber": 42,
        "velocity": 24,
        "subtype": "noteOn"
      },
      {
        "deltaTime": 36,
        "channel": 2,
        "type": "channel",
        "subtype": "noteOff",
        "noteNumber": 42,
        "velocity": 0
      },
      {
        "deltaTime": 223,
        "channel": 2,
        "type": "channel",
        "noteNumber": 78,
        "velocity": 12,
        "subtype": "noteOn"
      },
      {
        "deltaTime": 43,
        "channel": 2,
        "type": "channel",
        "subtype": "noteOff",
        "noteNumber": 78,
        "velocity": 0
      },
      {
        "deltaTime": 183,
        "channel": 2,
        "type": "channel",
        "noteNumber": 85,
        "velocity": 17,
        "subtype": "noteOn"
      },
      {
        "deltaTime": 24,
        "channel": 2,
        "type": "channel",
        "subtype": "noteOff",
        "noteNumber": 85,
        "velocity": 0
      },
      {
        "deltaTime": 60,
        "channel": 2,
        "type": "channel",
        "noteNumber": 54,
        "velocity": 18,
        "subtype": "noteOn"
      },
      {
        "deltaTime": 31,
        "channel": 2,
        "type": "channel",
        "subtype": "noteOff",
        "noteNumber": 54,
        "velocity": 0
      },
      {
        "deltaTime": 46,
        "channel": 2,
        "type": "channel",
        "noteNumber": 33,
        "velocity": 20,
        "subtype": "noteOn"
      },
      {
        "deltaTime": 48,
        "channel": 2,
        "type": "channel",
        "subtype": "noteOff",
        "noteNumber": 33,
        "velocity": 0
      },
      {
        "deltaTime": 115,
        "channel": 2,
        "type": "channel",
        "noteNumber": 74,
        "velocity": 16,
        "subtype": "noteOn"
      },
      {
        "deltaTime": 84,
        "channel": 2,
        "type": "channel",
        "noteNumber": 62,
        "velocity": 15,
        "subtype": "noteOn"
      },
      {
        "deltaTime": 7,
        "channel": 2,
        "type": "channel",
        "subtype": "noteOff",
        "noteNumber": 74,
        "velocity": 0
      },
      {
        "deltaTime": 24,
        "channel": 2,
        "type": "channel",
        "subtype": "noteOff",
        "noteNumber": 62,
        "velocity": 0
      },
      {
        "deltaTime": 211,
        "channel": 2,
        "type": "channel",
        "noteNumber": 32,
        "velocity": 15,
        "subtype": "noteOn"
      },
      {
        "deltaTime": 17,
        "channel": 2,
        "type": "channel",
        "subtype": "noteOff",
        "noteNumber": 32,
        "velocity": 0
      },
      {
        "deltaTime": 43,
        "channel": 2,
        "type": "channel",
        "noteNumber": 36,
        "velocity": 19,
        "subtype": "noteOn"
      },
      {
        "deltaTime": 29,
        "channel": 2,
        "type": "channel",
        "subtype": "noteOff",
        "noteNumber": 36,
        "velocity": 0
      },
      {
        "deltaTime": 547,
        "channel": 2,
        "type": "channel",
        "noteNumber": 35,
        "velocity": 20,
        "subtype": "noteOn"
      },
      {
        "deltaTime": 39,
        "channel": 2,
        "type": "channel",
        "subtype": "noteOff",
        "noteNumber": 35,
        "velocity": 0
      },
      {
        "deltaTime": 16,
        "channel": 2,
        "type": "channel",
        "noteNumber": 54,
        "velocity": 19,
        "subtype": "noteOn"
      },
      {
        "deltaTime": 22,
        "channel": 2,
        "type": "channel",
        "subtype": "noteOff",
        "noteNumber": 54,
        "velocity": 0
      },
      {
        "deltaTime": 269,
        "channel": 2,
        "type": "channel",
        "noteNumber": 36,
        "velocity": 12,
        "subtype": "noteOn"
      },
      {
        "deltaTime": 21,
        "channel": 2,
        "type": "channel",
        "subtype": "noteOff",
        "noteNumber": 36,
        "velocity": 0
      },
      {
        "deltaTime": 63,
        "channel": 2,
        "type": "channel",
        "noteNumber": 74,
        "velocity": 15,
        "subtype": "noteOn"
      },
      {
        "deltaTime": 38,
        "channel": 2,
        "type": "channel",
        "subtype": "noteOff",
        "noteNumber": 74,
        "velocity": 0
      },
      {
        "deltaTime": 185,
        "channel": 2,
        "type": "channel",
        "noteNumber": 69,
        "velocity": 19,
        "subtype": "noteOn"
      },
      {
        "deltaTime": 122,
        "channel": 2,
        "type": "channel",
        "subtype": "noteOff",
        "noteNumber": 69,
        "velocity": 0
      },
      {
        "deltaTime": 490,
        "channel": 2,
        "type": "channel",
        "noteNumber": 36,
        "velocity": 20,
        "subtype": "noteOn"
      },
      {
        "deltaTime": 29,
        "channel": 2,
        "type": "channel",
        "subtype": "noteOff",
        "noteNumber": 36,
        "velocity": 0
      },
      {
        "deltaTime": 69,
        "channel": 2,
        "type": "channel",
        "noteNumber": 54,
        "velocity": 17,
        "subtype": "noteOn"
      },
      {
        "deltaTime": 27,
        "channel": 2,
        "type": "channel",
        "subtype": "noteOff",
        "noteNumber": 54,
        "velocity": 0
      },
      {
        "deltaTime": 43,
        "channel": 2,
        "type": "channel",
        "noteNumber": 38,
        "velocity": 18,
        "subtype": "noteOn"
      },
      {
        "deltaTime": 10,
        "channel": 2,
        "type": "channel",
        "noteNumber": 82,
        "velocity": 18,
        "subtype": "noteOn"
      },
      {
        "deltaTime": 9,
        "channel": 2,
        "type": "channel",
        "subtype": "noteOff",
        "noteNumber": 82,
        "velocity": 0
      },
      {
        "deltaTime": 7,
        "channel": 2,
        "type": "channel",
        "subtype": "noteOff",
        "noteNumber": 38,
        "velocity": 0
      },
      {
        "deltaTime": 238,
        "channel": 2,
        "type": "channel",
        "noteNumber": 66,
        "velocity": 20,
        "subtype": "noteOn"
      },
      {
        "deltaTime": 53,
        "channel": 2,
        "type": "channel",
        "subtype": "noteOff",
        "noteNumber": 66,
        "velocity": 0
      },
      {
        "deltaTime": 163,
        "channel": 2,
        "type": "channel",
        "noteNumber": 85,
        "velocity": 16,
        "subtype": "noteOn"
      },
      {
        "deltaTime": 26,
        "channel": 2,
        "type": "channel",
        "subtype": "noteOff",
        "noteNumber": 85,
        "velocity": 0
      },
      {
        "deltaTime": 17,
        "channel": 2,
        "type": "channel",
        "noteNumber": 74,
        "velocity": 14,
        "subtype": "noteOn"
      },
      {
        "deltaTime": 36,
        "channel": 2,
        "type": "channel",
        "subtype": "noteOff",
        "noteNumber": 74,
        "velocity": 0
      },
      {
        "deltaTime": 622,
        "channel": 2,
        "type": "channel",
        "noteNumber": 54,
        "velocity": 17,
        "subtype": "noteOn"
      },
      {
        "deltaTime": 93,
        "channel": 2,
        "type": "channel",
        "subtype": "noteOff",
        "noteNumber": 54,
        "velocity": 0
      },
      {
        "deltaTime": 192,
        "channel": 2,
        "type": "channel",
        "noteNumber": 39,
        "velocity": 28,
        "subtype": "noteOn"
      },
      {
        "deltaTime": 3,
        "channel": 2,
        "type": "channel",
        "noteNumber": 50,
        "velocity": 34,
        "subtype": "noteOn"
      },
      {
        "deltaTime": 21,
        "channel": 2,
        "type": "channel",
        "subtype": "noteOff",
        "noteNumber": 39,
        "velocity": 0
      },
      {
        "deltaTime": 17,
        "channel": 2,
        "type": "channel",
        "noteNumber": 62,
        "velocity": 35,
        "subtype": "noteOn"
      },
      {
        "deltaTime": 58,
        "channel": 2,
        "type": "channel",
        "subtype": "noteOff",
        "noteNumber": 50,
        "velocity": 0
      },
      {
        "deltaTime": 31,
        "channel": 2,
        "type": "channel",
        "subtype": "noteOff",
        "noteNumber": 62,
        "velocity": 0
      },
      {
        "deltaTime": 10,
        "channel": 2,
        "type": "channel",
        "noteNumber": 71,
        "velocity": 25,
        "subtype": "noteOn"
      },
      {
        "deltaTime": 9,
        "channel": 2,
        "type": "channel",
        "subtype": "noteOff",
        "noteNumber": 71,
        "velocity": 0
      },
      {
        "deltaTime": 31,
        "channel": 2,
        "type": "channel",
        "noteNumber": 71,
        "velocity": 17,
        "subtype": "noteOn"
      },
      {
        "deltaTime": 20,
        "channel": 2,
        "type": "channel",
        "subtype": "noteOff",
        "noteNumber": 71,
        "velocity": 0
      },
      {
        "deltaTime": 28,
        "channel": 2,
        "type": "channel",
        "noteNumber": 59,
        "velocity": 23,
        "subtype": "noteOn"
      },
      {
        "deltaTime": 24,
        "channel": 2,
        "type": "channel",
        "subtype": "noteOff",
        "noteNumber": 59,
        "velocity": 0
      },
      {
        "deltaTime": 10,
        "channel": 2,
        "type": "channel",
        "noteNumber": 71,
        "velocity": 22,
        "subtype": "noteOn"
      },
      {
        "deltaTime": 48,
        "channel": 2,
        "type": "channel",
        "subtype": "noteOff",
        "noteNumber": 71,
        "velocity": 0
      },
      {
        "deltaTime": 2,
        "channel": 2,
        "type": "channel",
        "noteNumber": 52,
        "velocity": 24,
        "subtype": "noteOn"
      },
      {
        "deltaTime": 20,
        "channel": 2,
        "type": "channel",
        "subtype": "noteOff",
        "noteNumber": 52,
        "velocity": 0
      },
      {
        "deltaTime": 33,
        "channel": 2,
        "type": "channel",
        "noteNumber": 39,
        "velocity": 12,
        "subtype": "noteOn"
      },
      {
        "deltaTime": 10,
        "channel": 2,
        "type": "channel",
        "subtype": "noteOff",
        "noteNumber": 39,
        "velocity": 0
      },
      {
        "deltaTime": 24,
        "channel": 2,
        "type": "channel",
        "noteNumber": 33,
        "velocity": 32,
        "subtype": "noteOn"
      },
      {
        "deltaTime": 21,
        "channel": 2,
        "type": "channel",
        "subtype": "noteOff",
        "noteNumber": 33,
        "velocity": 0
      },
      {
        "deltaTime": 5,
        "channel": 2,
        "type": "channel",
        "noteNumber": 61,
        "velocity": 30,
        "subtype": "noteOn"
      },
      {
        "deltaTime": 65,
        "channel": 2,
        "type": "channel",
        "subtype": "noteOff",
        "noteNumber": 61,
        "velocity": 0
      },
      {
        "deltaTime": 82,
        "channel": 2,
        "type": "channel",
        "noteNumber": 61,
        "velocity": 11,
        "subtype": "noteOn"
      },
      {
        "deltaTime": 38,
        "channel": 2,
        "type": "channel",
        "subtype": "noteOff",
        "noteNumber": 61,
        "velocity": 0
      },
      {
        "deltaTime": 24,
        "channel": 2,
        "type": "channel",
        "noteNumber": 59,
        "velocity": 10,
        "subtype": "noteOn"
      },
      {
        "deltaTime": 10,
        "channel": 2,
        "type": "channel",
        "subtype": "noteOff",
        "noteNumber": 59,
        "velocity": 0
      },
      {
        "deltaTime": 288,
        "channel": 2,
        "type": "channel",
        "noteNumber": 81,
        "velocity": 18,
        "subtype": "noteOn"
      },
      {
        "deltaTime": 24,
        "channel": 2,
        "type": "channel",
        "subtype": "noteOff",
        "noteNumber": 81,
        "velocity": 0
      },
      {
        "deltaTime": 4,
        "channel": 2,
        "type": "channel",
        "noteNumber": 35,
        "velocity": 23,
        "subtype": "noteOn"
      },
      {
        "deltaTime": 22,
        "channel": 2,
        "type": "channel",
        "subtype": "noteOff",
        "noteNumber": 35,
        "velocity": 0
      },
      {
        "deltaTime": 127,
        "channel": 2,
        "type": "channel",
        "noteNumber": 81,
        "velocity": 18,
        "subtype": "noteOn"
      },
      {
        "deltaTime": 53,
        "channel": 2,
        "type": "channel",
        "subtype": "noteOff",
        "noteNumber": 81,
        "velocity": 0
      },
      {
        "deltaTime": 46,
        "channel": 2,
        "type": "channel",
        "noteNumber": 33,
        "velocity": 14,
        "subtype": "noteOn"
      },
      {
        "deltaTime": 50,
        "channel": 2,
        "type": "channel",
        "subtype": "noteOff",
        "noteNumber": 33,
        "velocity": 0
      },
      {
        "deltaTime": 113,
        "channel": 2,
        "type": "channel",
        "noteNumber": 74,
        "velocity": 16,
        "subtype": "noteOn"
      },
      {
        "deltaTime": 12,
        "channel": 2,
        "type": "channel",
        "noteNumber": 66,
        "velocity": 10,
        "subtype": "noteOn"
      },
      {
        "deltaTime": 21,
        "channel": 2,
        "type": "channel",
        "subtype": "noteOff",
        "noteNumber": 66,
        "velocity": 0
      },
      {
        "deltaTime": 8,
        "channel": 2,
        "type": "channel",
        "subtype": "noteOff",
        "noteNumber": 74,
        "velocity": 0
      },
      {
        "deltaTime": 14,
        "channel": 2,
        "type": "channel",
        "noteNumber": 83,
        "velocity": 19,
        "subtype": "noteOn"
      },
      {
        "deltaTime": 17,
        "channel": 2,
        "type": "channel",
        "subtype": "noteOff",
        "noteNumber": 83,
        "velocity": 0
      },
      {
        "deltaTime": 24,
        "channel": 2,
        "type": "channel",
        "noteNumber": 57,
        "velocity": 33,
        "subtype": "noteOn"
      },
      {
        "deltaTime": 53,
        "channel": 2,
        "type": "channel",
        "subtype": "noteOff",
        "noteNumber": 57,
        "velocity": 0
      },
      {
        "deltaTime": 52,
        "channel": 2,
        "type": "channel",
        "noteNumber": 78,
        "velocity": 27,
        "subtype": "noteOn"
      },
      {
        "deltaTime": 32,
        "channel": 2,
        "type": "channel",
        "subtype": "noteOff",
        "noteNumber": 78,
        "velocity": 0
      },
      {
        "deltaTime": 28,
        "channel": 2,
        "type": "channel",
        "noteNumber": 59,
        "velocity": 23,
        "subtype": "noteOn"
      },
      {
        "deltaTime": 22,
        "channel": 2,
        "type": "channel",
        "subtype": "noteOff",
        "noteNumber": 59,
        "velocity": 0
      },
      {
        "deltaTime": 53,
        "channel": 2,
        "type": "channel",
        "noteNumber": 59,
        "velocity": 31,
        "subtype": "noteOn"
      },
      {
        "deltaTime": 26,
        "channel": 2,
        "type": "channel",
        "subtype": "noteOff",
        "noteNumber": 59,
        "velocity": 0
      },
      {
        "deltaTime": 39,
        "channel": 2,
        "type": "channel",
        "noteNumber": 61,
        "velocity": 14,
        "subtype": "noteOn"
      },
      {
        "deltaTime": 26,
        "channel": 2,
        "type": "channel",
        "noteNumber": 33,
        "velocity": 27,
        "subtype": "noteOn"
      },
      {
        "deltaTime": 14,
        "channel": 2,
        "type": "channel",
        "subtype": "noteOff",
        "noteNumber": 61,
        "velocity": 0
      },
      {
        "deltaTime": 12,
        "channel": 2,
        "type": "channel",
        "noteNumber": 78,
        "velocity": 15,
        "subtype": "noteOn"
      },
      {
        "deltaTime": 15,
        "channel": 2,
        "type": "channel",
        "subtype": "noteOff",
        "noteNumber": 78,
        "velocity": 0
      },
      {
        "deltaTime": 50,
        "channel": 2,
        "type": "channel",
        "subtype": "noteOff",
        "noteNumber": 33,
        "velocity": 0
      },
      {
        "deltaTime": 10,
        "channel": 2,
        "type": "channel",
        "noteNumber": 71,
        "velocity": 24,
        "subtype": "noteOn"
      },
      {
        "deltaTime": 9,
        "channel": 2,
        "type": "channel",
        "noteNumber": 59,
        "velocity": 15,
        "subtype": "noteOn"
      },
      {
        "deltaTime": 22,
        "channel": 2,
        "type": "channel",
        "subtype": "noteOff",
        "noteNumber": 59,
        "velocity": 0
      },
      {
        "deltaTime": 7,
        "channel": 2,
        "type": "channel",
        "noteNumber": 90,
        "velocity": 13,
        "subtype": "noteOn"
      },
      {
        "deltaTime": 24,
        "channel": 2,
        "type": "channel",
        "subtype": "noteOff",
        "noteNumber": 90,
        "velocity": 0
      },
      {
        "deltaTime": 58,
        "channel": 2,
        "type": "channel",
        "subtype": "noteOff",
        "noteNumber": 71,
        "velocity": 0
      },
      {
        "deltaTime": 48,
        "channel": 2,
        "type": "channel",
        "noteNumber": 78,
        "velocity": 25,
        "subtype": "noteOn"
      },
      {
        "deltaTime": 48,
        "channel": 2,
        "type": "channel",
        "subtype": "noteOff",
        "noteNumber": 78,
        "velocity": 0
      },
      {
        "deltaTime": 84,
        "channel": 2,
        "type": "channel",
        "noteNumber": 64,
        "velocity": 26,
        "subtype": "noteOn"
      },
      {
        "deltaTime": 48,
        "channel": 2,
        "type": "channel",
        "subtype": "noteOff",
        "noteNumber": 64,
        "velocity": 0
      },
      {
        "deltaTime": 24,
        "channel": 2,
        "type": "channel",
        "noteNumber": 62,
        "velocity": 21,
        "subtype": "noteOn"
      },
      {
        "deltaTime": 5,
        "channel": 2,
        "type": "channel",
        "noteNumber": 54,
        "velocity": 11,
        "subtype": "noteOn"
      },
      {
        "deltaTime": 16,
        "channel": 2,
        "type": "channel",
        "subtype": "noteOff",
        "noteNumber": 54,
        "velocity": 0
      },
      {
        "deltaTime": 36,
        "channel": 2,
        "type": "channel",
        "subtype": "noteOff",
        "noteNumber": 62,
        "velocity": 0
      },
      {
        "deltaTime": 221,
        "channel": 2,
        "type": "channel",
        "noteNumber": 106,
        "velocity": 12,
        "subtype": "noteOn"
      },
      {
        "deltaTime": 46,
        "channel": 2,
        "type": "channel",
        "subtype": "noteOff",
        "noteNumber": 106,
        "velocity": 0
      },
      {
        "deltaTime": 9,
        "channel": 2,
        "type": "channel",
        "noteNumber": 66,
        "velocity": 25,
        "subtype": "noteOn"
      },
      {
        "deltaTime": 87,
        "channel": 2,
        "type": "channel",
        "subtype": "noteOff",
        "noteNumber": 66,
        "velocity": 0
      },
      {
        "deltaTime": 91,
        "channel": 2,
        "type": "channel",
        "noteNumber": 62,
        "velocity": 11,
        "subtype": "noteOn"
      },
      {
        "deltaTime": 24,
        "channel": 2,
        "type": "channel",
        "subtype": "noteOff",
        "noteNumber": 62,
        "velocity": 0
      },
      {
        "deltaTime": 19,
        "channel": 2,
        "type": "channel",
        "noteNumber": 71,
        "velocity": 15,
        "subtype": "noteOn"
      },
      {
        "deltaTime": 15,
        "channel": 2,
        "type": "channel",
        "subtype": "noteOff",
        "noteNumber": 71,
        "velocity": 0
      },
      {
        "deltaTime": 7,
        "channel": 2,
        "type": "channel",
        "noteNumber": 36,
        "velocity": 25,
        "subtype": "noteOn"
      },
      {
        "deltaTime": 7,
        "channel": 2,
        "type": "channel",
        "noteNumber": 33,
        "velocity": 25,
        "subtype": "noteOn"
      },
      {
        "deltaTime": 26,
        "channel": 2,
        "type": "channel",
        "subtype": "noteOff",
        "noteNumber": 36,
        "velocity": 0
      },
      {
        "deltaTime": 24,
        "channel": 2,
        "type": "channel",
        "subtype": "noteOff",
        "noteNumber": 33,
        "velocity": 0
      },
      {
        "deltaTime": 22,
        "channel": 2,
        "type": "channel",
        "noteNumber": 36,
        "velocity": 18,
        "subtype": "noteOn"
      },
      {
        "deltaTime": 26,
        "channel": 2,
        "type": "channel",
        "subtype": "noteOff",
        "noteNumber": 36,
        "velocity": 0
      },
      {
        "deltaTime": 48,
        "channel": 2,
        "type": "channel",
        "noteNumber": 71,
        "velocity": 34,
        "subtype": "noteOn"
      },
      {
        "deltaTime": 10,
        "channel": 2,
        "type": "channel",
        "subtype": "noteOff",
        "noteNumber": 71,
        "velocity": 0
      },
      {
        "deltaTime": 14,
        "channel": 2,
        "type": "channel",
        "noteNumber": 42,
        "velocity": 10,
        "subtype": "noteOn"
      },
      {
        "deltaTime": 20,
        "channel": 2,
        "type": "channel",
        "subtype": "noteOff",
        "noteNumber": 42,
        "velocity": 0
      },
      {
        "deltaTime": 62,
        "channel": 2,
        "type": "channel",
        "noteNumber": 81,
        "velocity": 15,
        "subtype": "noteOn"
      },
      {
        "deltaTime": 48,
        "channel": 2,
        "type": "channel",
        "noteNumber": 40,
        "velocity": 12,
        "subtype": "noteOn"
      },
      {
        "deltaTime": 14,
        "channel": 2,
        "type": "channel",
        "subtype": "noteOff",
        "noteNumber": 81,
        "velocity": 0
      },
      {
        "deltaTime": 3,
        "channel": 2,
        "type": "channel",
        "subtype": "noteOff",
        "noteNumber": 40,
        "velocity": 0
      },
      {
        "deltaTime": 331,
        "channel": 2,
        "type": "channel",
        "noteNumber": 59,
        "velocity": 26,
        "subtype": "noteOn"
      },
      {
        "deltaTime": 31,
        "channel": 2,
        "type": "channel",
        "noteNumber": 66,
        "velocity": 18,
        "subtype": "noteOn"
      },
      {
        "deltaTime": 75,
        "channel": 2,
        "type": "channel",
        "subtype": "noteOff",
        "noteNumber": 59,
        "velocity": 0
      },
      {
        "deltaTime": 0,
        "channel": 2,
        "type": "channel",
        "subtype": "noteOff",
        "noteNumber": 66,
        "velocity": 0
      },
      {
        "deltaTime": 62,
        "channel": 2,
        "type": "channel",
        "noteNumber": 52,
        "velocity": 14,
        "subtype": "noteOn"
      },
      {
        "deltaTime": 24,
        "channel": 2,
        "type": "channel",
        "subtype": "noteOff",
        "noteNumber": 52,
        "velocity": 0
      },
      {
        "deltaTime": 180,
        "channel": 2,
        "type": "channel",
        "noteNumber": 81,
        "velocity": 15,
        "subtype": "noteOn"
      },
      {
        "deltaTime": 55,
        "channel": 2,
        "type": "channel",
        "noteNumber": 106,
        "velocity": 22,
        "subtype": "noteOn"
      },
      {
        "deltaTime": 3,
        "channel": 2,
        "type": "channel",
        "subtype": "noteOff",
        "noteNumber": 81,
        "velocity": 0
      },
      {
        "deltaTime": 40,
        "channel": 2,
        "type": "channel",
        "subtype": "noteOff",
        "noteNumber": 106,
        "velocity": 0
      },
      {
        "deltaTime": 17,
        "channel": 2,
        "type": "channel",
        "noteNumber": 69,
        "velocity": 15,
        "subtype": "noteOn"
      },
      {
        "deltaTime": 3,
        "channel": 2,
        "type": "channel",
        "noteNumber": 50,
        "velocity": 21,
        "subtype": "noteOn"
      },
      {
        "deltaTime": 9,
        "channel": 2,
        "type": "channel",
        "subtype": "noteOff",
        "noteNumber": 69,
        "velocity": 0
      },
      {
        "deltaTime": 7,
        "channel": 2,
        "type": "channel",
        "subtype": "noteOff",
        "noteNumber": 50,
        "velocity": 0
      },
      {
        "deltaTime": 12,
        "channel": 2,
        "type": "channel",
        "noteNumber": 62,
        "velocity": 16,
        "subtype": "noteOn"
      },
      {
        "deltaTime": 8,
        "channel": 2,
        "type": "channel",
        "noteNumber": 57,
        "velocity": 34,
        "subtype": "noteOn"
      },
      {
        "deltaTime": 9,
        "channel": 2,
        "type": "channel",
        "subtype": "noteOff",
        "noteNumber": 62,
        "velocity": 0
      },
      {
        "deltaTime": 41,
        "channel": 2,
        "type": "channel",
        "subtype": "noteOff",
        "noteNumber": 57,
        "velocity": 0
      },
      {
        "deltaTime": 22,
        "channel": 2,
        "type": "channel",
        "noteNumber": 69,
        "velocity": 15,
        "subtype": "noteOn"
      },
      {
        "deltaTime": 19,
        "channel": 2,
        "type": "channel",
        "subtype": "noteOff",
        "noteNumber": 69,
        "velocity": 0
      },
      {
        "deltaTime": 5,
        "channel": 2,
        "type": "channel",
        "noteNumber": 78,
        "velocity": 30,
        "subtype": "noteOn"
      },
      {
        "deltaTime": 36,
        "channel": 2,
        "type": "channel",
        "subtype": "noteOff",
        "noteNumber": 78,
        "velocity": 0
      },
      {
        "deltaTime": 38,
        "channel": 2,
        "type": "channel",
        "noteNumber": 52,
        "velocity": 23,
        "subtype": "noteOn"
      },
      {
        "deltaTime": 50,
        "channel": 2,
        "type": "channel",
        "subtype": "noteOff",
        "noteNumber": 52,
        "velocity": 0
      },
      {
        "deltaTime": 5,
        "channel": 2,
        "type": "channel",
        "noteNumber": 88,
        "velocity": 39,
        "subtype": "noteOn"
      },
      {
        "deltaTime": 34,
        "channel": 2,
        "type": "channel",
        "noteNumber": 36,
        "velocity": 33,
        "subtype": "noteOn"
      },
      {
        "deltaTime": 7,
        "channel": 2,
        "type": "channel",
        "subtype": "noteOff",
        "noteNumber": 88,
        "velocity": 0
      },
      {
        "deltaTime": 12,
        "channel": 2,
        "type": "channel",
        "subtype": "noteOff",
        "noteNumber": 36,
        "velocity": 0
      },
      {
        "deltaTime": 67,
        "channel": 2,
        "type": "channel",
        "noteNumber": 78,
        "velocity": 25,
        "subtype": "noteOn"
      },
      {
        "deltaTime": 24,
        "channel": 2,
        "type": "channel",
        "noteNumber": 83,
        "velocity": 18,
        "subtype": "noteOn"
      },
      {
        "deltaTime": 3,
        "channel": 2,
        "type": "channel",
        "subtype": "noteOff",
        "noteNumber": 78,
        "velocity": 0
      },
      {
        "deltaTime": 55,
        "channel": 2,
        "type": "channel",
        "noteNumber": 71,
        "velocity": 10,
        "subtype": "noteOn"
      },
      {
        "deltaTime": 9,
        "channel": 2,
        "type": "channel",
        "subtype": "noteOff",
        "noteNumber": 83,
        "velocity": 0
      },
      {
        "deltaTime": 17,
        "channel": 2,
        "type": "channel",
        "subtype": "noteOff",
        "noteNumber": 71,
        "velocity": 0
      },
      {
        "deltaTime": 646,
        "channel": 2,
        "type": "channel",
        "noteNumber": 36,
        "velocity": 18,
        "subtype": "noteOn"
      },
      {
        "deltaTime": 21,
        "channel": 2,
        "type": "channel",
        "subtype": "noteOff",
        "noteNumber": 36,
        "velocity": 0
      },
      {
        "deltaTime": 63,
        "channel": 2,
        "type": "channel",
        "noteNumber": 62,
        "velocity": 21,
        "subtype": "noteOn"
      },
      {
        "deltaTime": 38,
        "channel": 2,
        "type": "channel",
        "subtype": "noteOff",
        "noteNumber": 62,
        "velocity": 0
      },
      {
        "deltaTime": 75,
        "channel": 2,
        "type": "channel",
        "noteNumber": 62,
        "velocity": 15,
        "subtype": "noteOn"
      },
      {
        "deltaTime": 43,
        "channel": 2,
        "type": "channel",
        "subtype": "noteOff",
        "noteNumber": 62,
        "velocity": 0
      },
      {
        "deltaTime": 41,
        "channel": 2,
        "type": "channel",
        "noteNumber": 36,
        "velocity": 26,
        "subtype": "noteOn"
      },
      {
        "deltaTime": 43,
        "channel": 2,
        "type": "channel",
        "subtype": "noteOff",
        "noteNumber": 36,
        "velocity": 0
      },
      {
        "deltaTime": 38,
        "channel": 2,
        "type": "channel",
        "noteNumber": 33,
        "velocity": 28,
        "subtype": "noteOn"
      },
      {
        "deltaTime": 51,
        "channel": 2,
        "type": "channel",
        "subtype": "noteOff",
        "noteNumber": 33,
        "velocity": 0
      },
      {
        "deltaTime": 28,
        "channel": 2,
        "type": "channel",
        "noteNumber": 36,
        "velocity": 26,
        "subtype": "noteOn"
      },
      {
        "deltaTime": 22,
        "channel": 2,
        "type": "channel",
        "subtype": "noteOff",
        "noteNumber": 36,
        "velocity": 0
      },
      {
        "deltaTime": 2,
        "channel": 2,
        "type": "channel",
        "noteNumber": 69,
        "velocity": 10,
        "subtype": "noteOn"
      },
      {
        "deltaTime": 46,
        "channel": 2,
        "type": "channel",
        "subtype": "noteOff",
        "noteNumber": 69,
        "velocity": 0
      },
      {
        "deltaTime": 46,
        "channel": 2,
        "type": "channel",
        "noteNumber": 61,
        "velocity": 10,
        "subtype": "noteOn"
      },
      {
        "deltaTime": 48,
        "channel": 2,
        "type": "channel",
        "subtype": "noteOff",
        "noteNumber": 61,
        "velocity": 0
      },
      {
        "deltaTime": 69,
        "channel": 2,
        "type": "channel",
        "noteNumber": 35,
        "velocity": 41,
        "subtype": "noteOn"
      },
      {
        "deltaTime": 216,
        "channel": 2,
        "type": "channel",
        "subtype": "noteOff",
        "noteNumber": 35,
        "velocity": 0
      },
      {
        "deltaTime": 7,
        "channel": 2,
        "type": "channel",
        "noteNumber": 64,
        "velocity": 25,
        "subtype": "noteOn"
      },
      {
        "deltaTime": 63,
        "channel": 2,
        "type": "channel",
        "subtype": "noteOff",
        "noteNumber": 64,
        "velocity": 0
      },
      {
        "deltaTime": 60,
        "channel": 2,
        "type": "channel",
        "noteNumber": 54,
        "velocity": 16,
        "subtype": "noteOn"
      },
      {
        "deltaTime": 21,
        "channel": 2,
        "type": "channel",
        "subtype": "noteOff",
        "noteNumber": 54,
        "velocity": 0
      },
      {
        "deltaTime": 46,
        "channel": 2,
        "type": "channel",
        "noteNumber": 33,
        "velocity": 15,
        "subtype": "noteOn"
      },
      {
        "deltaTime": 17,
        "channel": 2,
        "type": "channel",
        "noteNumber": 52,
        "velocity": 14,
        "subtype": "noteOn"
      },
      {
        "deltaTime": 21,
        "channel": 2,
        "type": "channel",
        "subtype": "noteOff",
        "noteNumber": 52,
        "velocity": 0
      },
      {
        "deltaTime": 10,
        "channel": 2,
        "type": "channel",
        "noteNumber": 62,
        "velocity": 18,
        "subtype": "noteOn"
      },
      {
        "deltaTime": 2,
        "channel": 2,
        "type": "channel",
        "subtype": "noteOff",
        "noteNumber": 33,
        "velocity": 0
      },
      {
        "deltaTime": 96,
        "channel": 2,
        "type": "channel",
        "noteNumber": 106,
        "velocity": 23,
        "subtype": "noteOn"
      },
      {
        "deltaTime": 8,
        "channel": 2,
        "type": "channel",
        "subtype": "noteOff",
        "noteNumber": 62,
        "velocity": 0
      },
      {
        "deltaTime": 38,
        "channel": 2,
        "type": "channel",
        "subtype": "noteOff",
        "noteNumber": 106,
        "velocity": 0
      },
      {
        "deltaTime": 156,
        "channel": 2,
        "type": "channel",
        "noteNumber": 102,
        "velocity": 14,
        "subtype": "noteOn"
      },
      {
        "deltaTime": 24,
        "channel": 2,
        "type": "channel",
        "subtype": "noteOff",
        "noteNumber": 102,
        "velocity": 0
      },
      {
        "deltaTime": 12,
        "channel": 2,
        "type": "channel",
        "noteNumber": 102,
        "velocity": 26,
        "subtype": "noteOn"
      },
      {
        "deltaTime": 48,
        "channel": 2,
        "type": "channel",
        "noteNumber": 71,
        "velocity": 17,
        "subtype": "noteOn"
      },
      {
        "deltaTime": 26,
        "channel": 2,
        "type": "channel",
        "subtype": "noteOff",
        "noteNumber": 71,
        "velocity": 0
      },
      {
        "deltaTime": 12,
        "channel": 2,
        "type": "channel",
        "subtype": "noteOff",
        "noteNumber": 102,
        "velocity": 0
      },
      {
        "deltaTime": 12,
        "channel": 2,
        "type": "channel",
        "noteNumber": 76,
        "velocity": 22,
        "subtype": "noteOn"
      },
      {
        "deltaTime": 94,
        "channel": 2,
        "type": "channel",
        "subtype": "noteOff",
        "noteNumber": 76,
        "velocity": 0
      },
      {
        "deltaTime": 36,
        "channel": 2,
        "type": "channel",
        "noteNumber": 59,
        "velocity": 34,
        "subtype": "noteOn"
      },
      {
        "deltaTime": 24,
        "channel": 2,
        "type": "channel",
        "subtype": "noteOff",
        "noteNumber": 59,
        "velocity": 0
      },
      {
        "deltaTime": 170,
        "channel": 2,
        "type": "channel",
        "noteNumber": 71,
        "velocity": 26,
        "subtype": "noteOn"
      },
      {
        "deltaTime": 120,
        "channel": 2,
        "type": "channel",
        "subtype": "noteOff",
        "noteNumber": 71,
        "velocity": 0
      },
      {
        "deltaTime": 202,
        "channel": 2,
        "type": "channel",
        "noteNumber": 59,
        "velocity": 32,
        "subtype": "noteOn"
      },
      {
        "deltaTime": 29,
        "channel": 2,
        "type": "channel",
        "subtype": "noteOff",
        "noteNumber": 59,
        "velocity": 0
      },
      {
        "deltaTime": 31,
        "channel": 2,
        "type": "channel",
        "noteNumber": 62,
        "velocity": 21,
        "subtype": "noteOn"
      },
      {
        "deltaTime": 46,
        "channel": 2,
        "type": "channel",
        "subtype": "noteOff",
        "noteNumber": 62,
        "velocity": 0
      },
      {
        "deltaTime": 237,
        "channel": 2,
        "type": "channel",
        "noteNumber": 106,
        "velocity": 16,
        "subtype": "noteOn"
      },
      {
        "deltaTime": 19,
        "channel": 2,
        "type": "channel",
        "subtype": "noteOff",
        "noteNumber": 106,
        "velocity": 0
      },
      {
        "deltaTime": 92,
        "channel": 2,
        "type": "channel",
        "noteNumber": 62,
        "velocity": 34,
        "subtype": "noteOn"
      },
      {
        "deltaTime": 14,
        "channel": 2,
        "type": "channel",
        "subtype": "noteOff",
        "noteNumber": 62,
        "velocity": 0
      },
      {
        "deltaTime": 137,
        "channel": 2,
        "type": "channel",
        "noteNumber": 71,
        "velocity": 12,
        "subtype": "noteOn"
      },
      {
        "deltaTime": 14,
        "channel": 2,
        "type": "channel",
        "subtype": "noteOff",
        "noteNumber": 71,
        "velocity": 0
      },
      {
        "deltaTime": 7,
        "channel": 2,
        "type": "channel",
        "noteNumber": 36,
        "velocity": 28,
        "subtype": "noteOn"
      },
      {
        "deltaTime": 34,
        "channel": 2,
        "type": "channel",
        "subtype": "noteOff",
        "noteNumber": 36,
        "velocity": 0
      },
      {
        "deltaTime": 46,
        "channel": 2,
        "type": "channel",
        "noteNumber": 33,
        "velocity": 27,
        "subtype": "noteOn"
      },
      {
        "deltaTime": 52,
        "channel": 2,
        "type": "channel",
        "subtype": "noteOff",
        "noteNumber": 33,
        "velocity": 0
      },
      {
        "deltaTime": 27,
        "channel": 2,
        "type": "channel",
        "noteNumber": 36,
        "velocity": 26,
        "subtype": "noteOn"
      },
      {
        "deltaTime": 17,
        "channel": 2,
        "type": "channel",
        "noteNumber": 42,
        "velocity": 12,
        "subtype": "noteOn"
      },
      {
        "deltaTime": 4,
        "channel": 2,
        "type": "channel",
        "subtype": "noteOff",
        "noteNumber": 36,
        "velocity": 0
      },
      {
        "deltaTime": 15,
        "channel": 2,
        "type": "channel",
        "subtype": "noteOff",
        "noteNumber": 42,
        "velocity": 0
      },
      {
        "deltaTime": 105,
        "channel": 2,
        "type": "channel",
        "noteNumber": 85,
        "velocity": 10,
        "subtype": "noteOn"
      },
      {
        "deltaTime": 20,
        "channel": 2,
        "type": "channel",
        "subtype": "noteOff",
        "noteNumber": 85,
        "velocity": 0
      },
      {
        "deltaTime": 300,
        "channel": 2,
        "type": "channel",
        "noteNumber": 47,
        "velocity": 28,
        "subtype": "noteOn"
      },
      {
        "deltaTime": 64,
        "channel": 2,
        "type": "channel",
        "subtype": "noteOff",
        "noteNumber": 47,
        "velocity": 0
      },
      {
        "deltaTime": 17,
        "channel": 2,
        "type": "channel",
        "noteNumber": 48,
        "velocity": 16,
        "subtype": "noteOn"
      },
      {
        "deltaTime": 12,
        "channel": 2,
        "type": "channel",
        "subtype": "noteOff",
        "noteNumber": 48,
        "velocity": 0
      },
      {
        "deltaTime": 17,
        "channel": 2,
        "type": "channel",
        "noteNumber": 54,
        "velocity": 18,
        "subtype": "noteOn"
      },
      {
        "deltaTime": 31,
        "channel": 2,
        "type": "channel",
        "subtype": "noteOff",
        "noteNumber": 54,
        "velocity": 0
      },
      {
        "deltaTime": 46,
        "channel": 2,
        "type": "channel",
        "noteNumber": 33,
        "velocity": 21,
        "subtype": "noteOn"
      },
      {
        "deltaTime": 33,
        "channel": 2,
        "type": "channel",
        "noteNumber": 90,
        "velocity": 17,
        "subtype": "noteOn"
      },
      {
        "deltaTime": 20,
        "channel": 2,
        "type": "channel",
        "subtype": "noteOff",
        "noteNumber": 33,
        "velocity": 0
      },
      {
        "deltaTime": 21,
        "channel": 2,
        "type": "channel",
        "subtype": "noteOff",
        "noteNumber": 90,
        "velocity": 0
      },
      {
        "deltaTime": 15,
        "channel": 2,
        "type": "channel",
        "noteNumber": 78,
        "velocity": 20,
        "subtype": "noteOn"
      },
      {
        "deltaTime": 62,
        "channel": 2,
        "type": "channel",
        "subtype": "noteOff",
        "noteNumber": 78,
        "velocity": 0
      },
      {
        "deltaTime": 43,
        "channel": 2,
        "type": "channel",
        "noteNumber": 36,
        "velocity": 11,
        "subtype": "noteOn"
      },
      {
        "deltaTime": 19,
        "channel": 2,
        "type": "channel",
        "subtype": "noteOff",
        "noteNumber": 36,
        "velocity": 0
      },
      {
        "deltaTime": 120,
        "channel": 2,
        "type": "channel",
        "noteNumber": 83,
        "velocity": 17,
        "subtype": "noteOn"
      },
      {
        "deltaTime": 17,
        "channel": 2,
        "type": "channel",
        "subtype": "noteOff",
        "noteNumber": 83,
        "velocity": 0
      },
      {
        "deltaTime": 7,
        "channel": 2,
        "type": "channel",
        "noteNumber": 71,
        "velocity": 18,
        "subtype": "noteOn"
      },
      {
        "deltaTime": 20,
        "channel": 2,
        "type": "channel",
        "subtype": "noteOff",
        "noteNumber": 71,
        "velocity": 0
      },
      {
        "deltaTime": 19,
        "channel": 2,
        "type": "channel",
        "noteNumber": 83,
        "velocity": 26,
        "subtype": "noteOn"
      },
      {
        "deltaTime": 38,
        "channel": 2,
        "type": "channel",
        "subtype": "noteOff",
        "noteNumber": 83,
        "velocity": 0
      },
      {
        "deltaTime": 41,
        "channel": 2,
        "type": "channel",
        "noteNumber": 71,
        "velocity": 13,
        "subtype": "noteOn"
      },
      {
        "deltaTime": 14,
        "channel": 2,
        "type": "channel",
        "subtype": "noteOff",
        "noteNumber": 71,
        "velocity": 0
      },
      {
        "deltaTime": 3,
        "channel": 2,
        "type": "channel",
        "noteNumber": 62,
        "velocity": 19,
        "subtype": "noteOn"
      },
      {
        "deltaTime": 19,
        "channel": 2,
        "type": "channel",
        "subtype": "noteOff",
        "noteNumber": 62,
        "velocity": 0
      },
      {
        "deltaTime": 60,
        "channel": 2,
        "type": "channel",
        "noteNumber": 61,
        "velocity": 29,
        "subtype": "noteOn"
      },
      {
        "deltaTime": 22,
        "channel": 2,
        "type": "channel",
        "subtype": "noteOff",
        "noteNumber": 61,
        "velocity": 0
      },
      {
        "deltaTime": 16,
        "channel": 2,
        "type": "channel",
        "noteNumber": 59,
        "velocity": 35,
        "subtype": "noteOn"
      },
      {
        "deltaTime": 27,
        "channel": 2,
        "type": "channel",
        "subtype": "noteOff",
        "noteNumber": 59,
        "velocity": 0
      },
      {
        "deltaTime": 67,
        "channel": 2,
        "type": "channel",
        "noteNumber": 45,
        "velocity": 24,
        "subtype": "noteOn"
      },
      {
        "deltaTime": 94,
        "channel": 2,
        "type": "channel",
        "subtype": "noteOff",
        "noteNumber": 45,
        "velocity": 0
      },
      {
        "deltaTime": 175,
        "channel": 2,
        "type": "channel",
        "noteNumber": 71,
        "velocity": 14,
        "subtype": "noteOn"
      },
      {
        "deltaTime": 41,
        "channel": 2,
        "type": "channel",
        "subtype": "noteOff",
        "noteNumber": 71,
        "velocity": 0
      },
      {
        "deltaTime": 110,
        "channel": 2,
        "type": "channel",
        "noteNumber": 35,
        "velocity": 25,
        "subtype": "noteOn"
      },
      {
        "deltaTime": 41,
        "channel": 2,
        "type": "channel",
        "subtype": "noteOff",
        "noteNumber": 35,
        "velocity": 0
      },
      {
        "deltaTime": 38,
        "channel": 2,
        "type": "channel",
        "noteNumber": 47,
        "velocity": 19,
        "subtype": "noteOn"
      },
      {
        "deltaTime": 75,
        "channel": 2,
        "type": "channel",
        "subtype": "noteOff",
        "noteNumber": 47,
        "velocity": 0
      },
      {
        "deltaTime": 540,
        "channel": 2,
        "type": "channel",
        "noteNumber": 52,
        "velocity": 17,
        "subtype": "noteOn"
      },
      {
        "deltaTime": 115,
        "channel": 2,
        "type": "channel",
        "subtype": "noteOff",
        "noteNumber": 52,
        "velocity": 0
      },
      {
        "deltaTime": 1142,
        "channel": 2,
        "type": "channel",
        "noteNumber": 33,
        "velocity": 21,
        "subtype": "noteOn"
      },
      {
        "deltaTime": 204,
        "channel": 2,
        "type": "channel",
        "subtype": "noteOff",
        "noteNumber": 33,
        "velocity": 0
      },
      {
        "deltaTime": 1054,
        "channel": 2,
        "type": "channel",
        "noteNumber": 52,
        "velocity": 23,
        "subtype": "noteOn"
      },
      {
        "deltaTime": 67,
        "channel": 2,
        "type": "channel",
        "subtype": "noteOff",
        "noteNumber": 52,
        "velocity": 0
      },
      {
        "deltaTime": 794,
        "channel": 2,
        "type": "channel",
        "noteNumber": 78,
        "velocity": 20,
        "subtype": "noteOn"
      },
      {
        "deltaTime": 72,
        "channel": 2,
        "type": "channel",
        "subtype": "noteOff",
        "noteNumber": 78,
        "velocity": 0
      },
      {
        "deltaTime": 1628,
        "channel": 2,
        "type": "channel",
        "noteNumber": 58,
        "velocity": 13,
        "subtype": "noteOn"
      },
      {
        "deltaTime": 100,
        "channel": 2,
        "type": "channel",
        "subtype": "noteOff",
        "noteNumber": 58,
        "velocity": 0
      },
      {
        "deltaTime": 10,
        "channel": 2,
        "type": "channel",
        "noteNumber": 105,
        "velocity": 16,
        "subtype": "noteOn"
      },
      {
        "deltaTime": 29,
        "channel": 2,
        "type": "channel",
        "subtype": "noteOff",
        "noteNumber": 105,
        "velocity": 0
      },
      {
        "deltaTime": 19,
        "channel": 2,
        "type": "channel",
        "noteNumber": 32,
        "velocity": 20,
        "subtype": "noteOn"
      },
      {
        "deltaTime": 34,
        "channel": 2,
        "type": "channel",
        "subtype": "noteOff",
        "noteNumber": 32,
        "velocity": 0
      },
      {
        "deltaTime": 168,
        "channel": 2,
        "type": "channel",
        "noteNumber": 74,
        "velocity": 16,
        "subtype": "noteOn"
      },
      {
        "deltaTime": 24,
        "channel": 2,
        "type": "channel",
        "subtype": "noteOff",
        "noteNumber": 74,
        "velocity": 0
      },
      {
        "deltaTime": 55,
        "channel": 2,
        "type": "channel",
        "noteNumber": 48,
        "velocity": 45,
        "subtype": "noteOn"
      },
      {
        "deltaTime": 48,
        "channel": 2,
        "type": "channel",
        "noteNumber": 88,
        "velocity": 44,
        "subtype": "noteOn"
      },
      {
        "deltaTime": 65,
        "channel": 2,
        "type": "channel",
        "subtype": "noteOff",
        "noteNumber": 88,
        "velocity": 0
      },
      {
        "deltaTime": 12,
        "channel": 2,
        "type": "channel",
        "noteNumber": 88,
        "velocity": 15,
        "subtype": "noteOn"
      },
      {
        "deltaTime": 21,
        "channel": 2,
        "type": "channel",
        "subtype": "noteOff",
        "noteNumber": 48,
        "velocity": 0
      },
      {
        "deltaTime": 7,
        "channel": 2,
        "type": "channel",
        "subtype": "noteOff",
        "noteNumber": 88,
        "velocity": 0
      },
      {
        "deltaTime": 58,
        "channel": 2,
        "type": "channel",
        "noteNumber": 50,
        "velocity": 40,
        "subtype": "noteOn"
      },
      {
        "deltaTime": 98,
        "channel": 2,
        "type": "channel",
        "subtype": "noteOff",
        "noteNumber": 50,
        "velocity": 0
      },
      {
        "deltaTime": 10,
        "channel": 2,
        "type": "channel",
        "noteNumber": 50,
        "velocity": 42,
        "subtype": "noteOn"
      },
      {
        "deltaTime": 31,
        "channel": 2,
        "type": "channel",
        "subtype": "noteOff",
        "noteNumber": 50,
        "velocity": 0
      },
      {
        "deltaTime": 0,
        "channel": 2,
        "type": "channel",
        "noteNumber": 42,
        "velocity": 25,
        "subtype": "noteOn"
      },
      {
        "deltaTime": 27,
        "channel": 2,
        "type": "channel",
        "subtype": "noteOff",
        "noteNumber": 42,
        "velocity": 0
      },
      {
        "deltaTime": 136,
        "channel": 2,
        "type": "channel",
        "noteNumber": 62,
        "velocity": 24,
        "subtype": "noteOn"
      },
      {
        "deltaTime": 29,
        "channel": 2,
        "type": "channel",
        "subtype": "noteOff",
        "noteNumber": 62,
        "velocity": 0
      },
      {
        "deltaTime": 55,
        "channel": 2,
        "type": "channel",
        "noteNumber": 101,
        "velocity": 27,
        "subtype": "noteOn"
      },
      {
        "deltaTime": 36,
        "channel": 2,
        "type": "channel",
        "subtype": "noteOff",
        "noteNumber": 101,
        "velocity": 0
      },
      {
        "deltaTime": 8,
        "channel": 2,
        "type": "channel",
        "noteNumber": 64,
        "velocity": 28,
        "subtype": "noteOn"
      },
      {
        "deltaTime": 21,
        "channel": 2,
        "type": "channel",
        "subtype": "noteOff",
        "noteNumber": 64,
        "velocity": 0
      },
      {
        "deltaTime": 19,
        "channel": 2,
        "type": "channel",
        "noteNumber": 35,
        "velocity": 19,
        "subtype": "noteOn"
      },
      {
        "deltaTime": 0,
        "channel": 2,
        "type": "channel",
        "noteNumber": 64,
        "velocity": 26,
        "subtype": "noteOn"
      },
      {
        "deltaTime": 17,
        "channel": 2,
        "type": "channel",
        "subtype": "noteOff",
        "noteNumber": 35,
        "velocity": 0
      },
      {
        "deltaTime": 27,
        "channel": 2,
        "type": "channel",
        "subtype": "noteOff",
        "noteNumber": 64,
        "velocity": 0
      },
      {
        "deltaTime": 43,
        "channel": 2,
        "type": "channel",
        "noteNumber": 93,
        "velocity": 36,
        "subtype": "noteOn"
      },
      {
        "deltaTime": 9,
        "channel": 2,
        "type": "channel",
        "subtype": "noteOff",
        "noteNumber": 93,
        "velocity": 0
      },
      {
        "deltaTime": 5,
        "channel": 2,
        "type": "channel",
        "noteNumber": 93,
        "velocity": 37,
        "subtype": "noteOn"
      },
      {
        "deltaTime": 29,
        "channel": 2,
        "type": "channel",
        "subtype": "noteOff",
        "noteNumber": 93,
        "velocity": 0
      },
      {
        "deltaTime": 106,
        "channel": 2,
        "type": "channel",
        "noteNumber": 86,
        "velocity": 21,
        "subtype": "noteOn"
      },
      {
        "deltaTime": 12,
        "channel": 2,
        "type": "channel",
        "subtype": "noteOff",
        "noteNumber": 86,
        "velocity": 0
      },
      {
        "deltaTime": 21,
        "channel": 2,
        "type": "channel",
        "noteNumber": 102,
        "velocity": 14,
        "subtype": "noteOn"
      },
      {
        "deltaTime": 12,
        "channel": 2,
        "type": "channel",
        "subtype": "noteOff",
        "noteNumber": 102,
        "velocity": 0
      },
      {
        "deltaTime": 17,
        "channel": 2,
        "type": "channel",
        "noteNumber": 36,
        "velocity": 34,
        "subtype": "noteOn"
      },
      {
        "deltaTime": 5,
        "channel": 2,
        "type": "channel",
        "noteNumber": 38,
        "velocity": 10,
        "subtype": "noteOn"
      },
      {
        "deltaTime": 14,
        "channel": 2,
        "type": "channel",
        "subtype": "noteOff",
        "noteNumber": 36,
        "velocity": 0
      },
      {
        "deltaTime": 7,
        "channel": 2,
        "type": "channel",
        "noteNumber": 98,
        "velocity": 27,
        "subtype": "noteOn"
      },
      {
        "deltaTime": 3,
        "channel": 2,
        "type": "channel",
        "subtype": "noteOff",
        "noteNumber": 38,
        "velocity": 0
      },
      {
        "deltaTime": 21,
        "channel": 2,
        "type": "channel",
        "subtype": "noteOff",
        "noteNumber": 98,
        "velocity": 0
      },
      {
        "deltaTime": 53,
        "channel": 2,
        "type": "channel",
        "noteNumber": 46,
        "velocity": 16,
        "subtype": "noteOn"
      },
      {
        "deltaTime": 19,
        "channel": 2,
        "type": "channel",
        "subtype": "noteOff",
        "noteNumber": 46,
        "velocity": 0
      },
      {
        "deltaTime": 39,
        "channel": 2,
        "type": "channel",
        "noteNumber": 86,
        "velocity": 11,
        "subtype": "noteOn"
      },
      {
        "deltaTime": 41,
        "channel": 2,
        "type": "channel",
        "subtype": "noteOff",
        "noteNumber": 86,
        "velocity": 0
      },
      {
        "deltaTime": 74,
        "channel": 2,
        "type": "channel",
        "noteNumber": 36,
        "velocity": 38,
        "subtype": "noteOn"
      },
      {
        "deltaTime": 17,
        "channel": 2,
        "type": "channel",
        "subtype": "noteOff",
        "noteNumber": 36,
        "velocity": 0
      },
      {
        "deltaTime": 21,
        "channel": 2,
        "type": "channel",
        "noteNumber": 93,
        "velocity": 47,
        "subtype": "noteOn"
      },
      {
        "deltaTime": 15,
        "channel": 2,
        "type": "channel",
        "subtype": "noteOff",
        "noteNumber": 93,
        "velocity": 0
      },
      {
        "deltaTime": 0,
        "channel": 2,
        "type": "channel",
        "noteNumber": 42,
        "velocity": 22,
        "subtype": "noteOn"
      },
      {
        "deltaTime": 26,
        "channel": 2,
        "type": "channel",
        "subtype": "noteOff",
        "noteNumber": 42,
        "velocity": 0
      },
      {
        "deltaTime": 3,
        "channel": 2,
        "type": "channel",
        "noteNumber": 88,
        "velocity": 33,
        "subtype": "noteOn"
      },
      {
        "deltaTime": 103,
        "channel": 2,
        "type": "channel",
        "subtype": "noteOff",
        "noteNumber": 88,
        "velocity": 0
      },
      {
        "deltaTime": 57,
        "channel": 2,
        "type": "channel",
        "noteNumber": 89,
        "velocity": 37,
        "subtype": "noteOn"
      },
      {
        "deltaTime": 12,
        "channel": 2,
        "type": "channel",
        "noteNumber": 50,
        "velocity": 51,
        "subtype": "noteOn"
      },
      {
        "deltaTime": 32,
        "channel": 2,
        "type": "channel",
        "subtype": "noteOff",
        "noteNumber": 89,
        "velocity": 0
      },
      {
        "deltaTime": 14,
        "channel": 2,
        "type": "channel",
        "noteNumber": 65,
        "velocity": 39,
        "subtype": "noteOn"
      },
      {
        "deltaTime": 34,
        "channel": 2,
        "type": "channel",
        "subtype": "noteOff",
        "noteNumber": 65,
        "velocity": 0
      },
      {
        "deltaTime": 28,
        "channel": 2,
        "type": "channel",
        "subtype": "noteOff",
        "noteNumber": 50,
        "velocity": 0
      },
      {
        "deltaTime": 22,
        "channel": 2,
        "type": "channel",
        "noteNumber": 101,
        "velocity": 54,
        "subtype": "noteOn"
      },
      {
        "deltaTime": 7,
        "channel": 2,
        "type": "channel",
        "noteNumber": 65,
        "velocity": 48,
        "subtype": "noteOn"
      },
      {
        "deltaTime": 17,
        "channel": 2,
        "type": "channel",
        "subtype": "noteOff",
        "noteNumber": 65,
        "velocity": 0
      },
      {
        "deltaTime": 0,
        "channel": 2,
        "type": "channel",
        "noteNumber": 77,
        "velocity": 36,
        "subtype": "noteOn"
      },
      {
        "deltaTime": 19,
        "channel": 2,
        "type": "channel",
        "subtype": "noteOff",
        "noteNumber": 101,
        "velocity": 0
      },
      {
        "deltaTime": 5,
        "channel": 2,
        "type": "channel",
        "subtype": "noteOff",
        "noteNumber": 77,
        "velocity": 0
      },
      {
        "deltaTime": 106,
        "channel": 2,
        "type": "channel",
        "noteNumber": 105,
        "velocity": 10,
        "subtype": "noteOn"
      },
      {
        "deltaTime": 31,
        "channel": 2,
        "type": "channel",
        "subtype": "noteOff",
        "noteNumber": 105,
        "velocity": 0
      },
      {
        "deltaTime": 33,
        "channel": 2,
        "type": "channel",
        "noteNumber": 101,
        "velocity": 25,
        "subtype": "noteOn"
      },
      {
        "deltaTime": 15,
        "channel": 2,
        "type": "channel",
        "subtype": "noteOff",
        "noteNumber": 101,
        "velocity": 0
      },
      {
        "deltaTime": 5,
        "channel": 2,
        "type": "channel",
        "noteNumber": 101,
        "velocity": 28,
        "subtype": "noteOn"
      },
      {
        "deltaTime": 36,
        "channel": 2,
        "type": "channel",
        "subtype": "noteOff",
        "noteNumber": 101,
        "velocity": 0
      },
      {
        "deltaTime": 21,
        "channel": 2,
        "type": "channel",
        "noteNumber": 105,
        "velocity": 34,
        "subtype": "noteOn"
      },
      {
        "deltaTime": 19,
        "channel": 2,
        "type": "channel",
        "subtype": "noteOff",
        "noteNumber": 105,
        "velocity": 0
      },
      {
        "deltaTime": 48,
        "channel": 2,
        "type": "channel",
        "noteNumber": 95,
        "velocity": 20,
        "subtype": "noteOn"
      },
      {
        "deltaTime": 20,
        "channel": 2,
        "type": "channel",
        "subtype": "noteOff",
        "noteNumber": 95,
        "velocity": 0
      },
      {
        "deltaTime": 28,
        "channel": 2,
        "type": "channel",
        "noteNumber": 104,
        "velocity": 27,
        "subtype": "noteOn"
      },
      {
        "deltaTime": 48,
        "channel": 2,
        "type": "channel",
        "subtype": "noteOff",
        "noteNumber": 104,
        "velocity": 0
      },
      {
        "deltaTime": 58,
        "channel": 2,
        "type": "channel",
        "noteNumber": 53,
        "velocity": 25,
        "subtype": "noteOn"
      },
      {
        "deltaTime": 67,
        "channel": 2,
        "type": "channel",
        "subtype": "noteOff",
        "noteNumber": 53,
        "velocity": 0
      },
      {
        "deltaTime": 41,
        "channel": 2,
        "type": "channel",
        "noteNumber": 36,
        "velocity": 16,
        "subtype": "noteOn"
      },
      {
        "deltaTime": 26,
        "channel": 2,
        "type": "channel",
        "subtype": "noteOff",
        "noteNumber": 36,
        "velocity": 0
      },
      {
        "deltaTime": 56,
        "channel": 2,
        "type": "channel",
        "noteNumber": 86,
        "velocity": 19,
        "subtype": "noteOn"
      },
      {
        "deltaTime": 38,
        "channel": 2,
        "type": "channel",
        "subtype": "noteOff",
        "noteNumber": 86,
        "velocity": 0
      },
      {
        "deltaTime": 60,
        "channel": 2,
        "type": "channel",
        "noteNumber": 62,
        "velocity": 14,
        "subtype": "noteOn"
      },
      {
        "deltaTime": 19,
        "channel": 2,
        "type": "channel",
        "subtype": "noteOff",
        "noteNumber": 62,
        "velocity": 0
      },
      {
        "deltaTime": 10,
        "channel": 2,
        "type": "channel",
        "noteNumber": 55,
        "velocity": 23,
        "subtype": "noteOn"
      },
      {
        "deltaTime": 29,
        "channel": 2,
        "type": "channel",
        "subtype": "noteOff",
        "noteNumber": 55,
        "velocity": 0
      },
      {
        "deltaTime": 31,
        "channel": 2,
        "type": "channel",
        "noteNumber": 100,
        "velocity": 46,
        "subtype": "noteOn"
      },
      {
        "deltaTime": 14,
        "channel": 2,
        "type": "channel",
        "subtype": "noteOff",
        "noteNumber": 100,
        "velocity": 0
      },
      {
        "deltaTime": 12,
        "channel": 2,
        "type": "channel",
        "noteNumber": 48,
        "velocity": 48,
        "subtype": "noteOn"
      },
      {
        "deltaTime": 3,
        "channel": 2,
        "type": "channel",
        "noteNumber": 100,
        "velocity": 43,
        "subtype": "noteOn"
      },
      {
        "deltaTime": 9,
        "channel": 2,
        "type": "channel",
        "subtype": "noteOff",
        "noteNumber": 100,
        "velocity": 0
      },
      {
        "deltaTime": 31,
        "channel": 2,
        "type": "channel",
        "noteNumber": 64,
        "velocity": 42,
        "subtype": "noteOn"
      },
      {
        "deltaTime": 142,
        "channel": 2,
        "type": "channel",
        "subtype": "noteOff",
        "noteNumber": 48,
        "velocity": 0
      },
      {
        "deltaTime": 0,
        "channel": 2,
        "type": "channel",
        "subtype": "noteOff",
        "noteNumber": 64,
        "velocity": 0
      },
      {
        "deltaTime": 19,
        "channel": 2,
        "type": "channel",
        "noteNumber": 77,
        "velocity": 18,
        "subtype": "noteOn"
      },
      {
        "deltaTime": 43,
        "channel": 2,
        "type": "channel",
        "subtype": "noteOff",
        "noteNumber": 77,
        "velocity": 0
      },
      {
        "deltaTime": 3,
        "channel": 2,
        "type": "channel",
        "noteNumber": 105,
        "velocity": 34,
        "subtype": "noteOn"
      },
      {
        "deltaTime": 24,
        "channel": 2,
        "type": "channel",
        "subtype": "noteOff",
        "noteNumber": 105,
        "velocity": 0
      },
      {
        "deltaTime": 2,
        "channel": 2,
        "type": "channel",
        "noteNumber": 65,
        "velocity": 43,
        "subtype": "noteOn"
      },
      {
        "deltaTime": 34,
        "channel": 2,
        "type": "channel",
        "subtype": "noteOff",
        "noteNumber": 65,
        "velocity": 0
      },
      {
        "deltaTime": 5,
        "channel": 2,
        "type": "channel",
        "noteNumber": 88,
        "velocity": 28,
        "subtype": "noteOn"
      },
      {
        "deltaTime": 12,
        "channel": 2,
        "type": "channel",
        "subtype": "noteOff",
        "noteNumber": 88,
        "velocity": 0
      },
      {
        "deltaTime": 2,
        "channel": 2,
        "type": "channel",
        "noteNumber": 105,
        "velocity": 37,
        "subtype": "noteOn"
      },
      {
        "deltaTime": 19,
        "channel": 2,
        "type": "channel",
        "subtype": "noteOff",
        "noteNumber": 105,
        "velocity": 0
      },
      {
        "deltaTime": 161,
        "channel": 2,
        "type": "channel",
        "noteNumber": 42,
        "velocity": 17,
        "subtype": "noteOn"
      },
      {
        "deltaTime": 7,
        "channel": 2,
        "type": "channel",
        "noteNumber": 62,
        "velocity": 23,
        "subtype": "noteOn"
      },
      {
        "deltaTime": 10,
        "channel": 2,
        "type": "channel",
        "noteNumber": 96,
        "velocity": 24,
        "subtype": "noteOn"
      },
      {
        "deltaTime": 9,
        "channel": 2,
        "type": "channel",
        "subtype": "noteOff",
        "noteNumber": 42,
        "velocity": 0
      },
      {
        "deltaTime": 10,
        "channel": 2,
        "type": "channel",
        "subtype": "noteOff",
        "noteNumber": 62,
        "velocity": 0
      },
      {
        "deltaTime": 10,
        "channel": 2,
        "type": "channel",
        "subtype": "noteOff",
        "noteNumber": 96,
        "velocity": 0
      },
      {
        "deltaTime": 26,
        "channel": 2,
        "type": "channel",
        "noteNumber": 101,
        "velocity": 27,
        "subtype": "noteOn"
      },
      {
        "deltaTime": 14,
        "channel": 2,
        "type": "channel",
        "subtype": "noteOff",
        "noteNumber": 101,
        "velocity": 0
      },
      {
        "deltaTime": 5,
        "channel": 2,
        "type": "channel",
        "noteNumber": 101,
        "velocity": 39,
        "subtype": "noteOn"
      },
      {
        "deltaTime": 36,
        "channel": 2,
        "type": "channel",
        "subtype": "noteOff",
        "noteNumber": 101,
        "velocity": 0
      },
      {
        "deltaTime": 7,
        "channel": 2,
        "type": "channel",
        "noteNumber": 64,
        "velocity": 26,
        "subtype": "noteOn"
      },
      {
        "deltaTime": 24,
        "channel": 2,
        "type": "channel",
        "subtype": "noteOff",
        "noteNumber": 64,
        "velocity": 0
      },
      {
        "deltaTime": 17,
        "channel": 2,
        "type": "channel",
        "noteNumber": 64,
        "velocity": 23,
        "subtype": "noteOn"
      },
      {
        "deltaTime": 46,
        "channel": 2,
        "type": "channel",
        "subtype": "noteOff",
        "noteNumber": 64,
        "velocity": 0
      },
      {
        "deltaTime": 26,
        "channel": 2,
        "type": "channel",
        "noteNumber": 105,
        "velocity": 20,
        "subtype": "noteOn"
      },
      {
        "deltaTime": 15,
        "channel": 2,
        "type": "channel",
        "subtype": "noteOff",
        "noteNumber": 105,
        "velocity": 0
      },
      {
        "deltaTime": 7,
        "channel": 2,
        "type": "channel",
        "noteNumber": 100,
        "velocity": 29,
        "subtype": "noteOn"
      },
      {
        "deltaTime": 12,
        "channel": 2,
        "type": "channel",
        "subtype": "noteOff",
        "noteNumber": 100,
        "velocity": 0
      },
      {
        "deltaTime": 122,
        "channel": 2,
        "type": "channel",
        "noteNumber": 86,
        "velocity": 34,
        "subtype": "noteOn"
      },
      {
        "deltaTime": 19,
        "channel": 2,
        "type": "channel",
        "subtype": "noteOff",
        "noteNumber": 86,
        "velocity": 0
      },
      {
        "deltaTime": 48,
        "channel": 2,
        "type": "channel",
        "noteNumber": 36,
        "velocity": 34,
        "subtype": "noteOn"
      },
      {
        "deltaTime": 20,
        "channel": 2,
        "type": "channel",
        "subtype": "noteOff",
        "noteNumber": 36,
        "velocity": 0
      },
      {
        "deltaTime": 21,
        "channel": 2,
        "type": "channel",
        "noteNumber": 34,
        "velocity": 32,
        "subtype": "noteOn"
      },
      {
        "deltaTime": 19,
        "channel": 2,
        "type": "channel",
        "subtype": "noteOff",
        "noteNumber": 34,
        "velocity": 0
      },
      {
        "deltaTime": 128,
        "channel": 2,
        "type": "channel",
        "noteNumber": 48,
        "velocity": 53,
        "subtype": "noteOn"
      },
      {
        "deltaTime": 55,
        "channel": 2,
        "type": "channel",
        "noteNumber": 76,
        "velocity": 15,
        "subtype": "noteOn"
      },
      {
        "deltaTime": 5,
        "channel": 2,
        "type": "channel",
        "noteNumber": 104,
        "velocity": 31,
        "subtype": "noteOn"
      },
      {
        "deltaTime": 4,
        "channel": 2,
        "type": "channel",
        "subtype": "noteOff",
        "noteNumber": 76,
        "velocity": 0
      },
      {
        "deltaTime": 27,
        "channel": 2,
        "type": "channel",
        "subtype": "noteOff",
        "noteNumber": 104,
        "velocity": 0
      },
      {
        "deltaTime": 26,
        "channel": 2,
        "type": "channel",
        "noteNumber": 100,
        "velocity": 47,
        "subtype": "noteOn"
      },
      {
        "deltaTime": 10,
        "channel": 2,
        "type": "channel",
        "subtype": "noteOff",
        "noteNumber": 100,
        "velocity": 0
      },
      {
        "deltaTime": 36,
        "channel": 2,
        "type": "channel",
        "noteNumber": 100,
        "velocity": 38,
        "subtype": "noteOn"
      },
      {
        "deltaTime": 29,
        "channel": 2,
        "type": "channel",
        "subtype": "noteOff",
        "noteNumber": 100,
        "velocity": 0
      },
      {
        "deltaTime": 105,
        "channel": 2,
        "type": "channel",
        "subtype": "noteOff",
        "noteNumber": 48,
        "velocity": 0
      },
      {
        "deltaTime": 94,
        "channel": 2,
        "type": "channel",
        "noteNumber": 65,
        "velocity": 38,
        "subtype": "noteOn"
      },
      {
        "deltaTime": 33,
        "channel": 2,
        "type": "channel",
        "subtype": "noteOff",
        "noteNumber": 65,
        "velocity": 0
      },
      {
        "deltaTime": 22,
        "channel": 2,
        "type": "channel",
        "noteNumber": 98,
        "velocity": 45,
        "subtype": "noteOn"
      },
      {
        "deltaTime": 22,
        "channel": 2,
        "type": "channel",
        "noteNumber": 62,
        "velocity": 21,
        "subtype": "noteOn"
      },
      {
        "deltaTime": 2,
        "channel": 2,
        "type": "channel",
        "subtype": "noteOff",
        "noteNumber": 98,
        "velocity": 0
      },
      {
        "deltaTime": 26,
        "channel": 2,
        "type": "channel",
        "subtype": "noteOff",
        "noteNumber": 62,
        "velocity": 0
      },
      {
        "deltaTime": 188,
        "channel": 2,
        "type": "channel",
        "noteNumber": 57,
        "velocity": 16,
        "subtype": "noteOn"
      },
      {
        "deltaTime": 48,
        "channel": 2,
        "type": "channel",
        "subtype": "noteOff",
        "noteNumber": 57,
        "velocity": 0
      },
      {
        "deltaTime": 223,
        "channel": 2,
        "type": "channel",
        "noteNumber": 72,
        "velocity": 28,
        "subtype": "noteOn"
      },
      {
        "deltaTime": 26,
        "channel": 2,
        "type": "channel",
        "noteNumber": 53,
        "velocity": 25,
        "subtype": "noteOn"
      },
      {
        "deltaTime": 17,
        "channel": 2,
        "type": "channel",
        "subtype": "noteOff",
        "noteNumber": 72,
        "velocity": 0
      },
      {
        "deltaTime": 58,
        "channel": 2,
        "type": "channel",
        "subtype": "noteOff",
        "noteNumber": 53,
        "velocity": 0
      },
      {
        "deltaTime": 40,
        "channel": 2,
        "type": "channel",
        "noteNumber": 36,
        "velocity": 15,
        "subtype": "noteOn"
      },
      {
        "deltaTime": 24,
        "channel": 2,
        "type": "channel",
        "noteNumber": 54,
        "velocity": 14,
        "subtype": "noteOn"
      },
      {
        "deltaTime": 3,
        "channel": 2,
        "type": "channel",
        "subtype": "noteOff",
        "noteNumber": 36,
        "velocity": 0
      },
      {
        "deltaTime": 9,
        "channel": 2,
        "type": "channel",
        "subtype": "noteOff",
        "noteNumber": 54,
        "velocity": 0
      },
      {
        "deltaTime": 142,
        "channel": 2,
        "type": "channel",
        "noteNumber": 62,
        "velocity": 10,
        "subtype": "noteOn"
      },
      {
        "deltaTime": 22,
        "channel": 2,
        "type": "channel",
        "subtype": "noteOff",
        "noteNumber": 62,
        "velocity": 0
      },
      {
        "deltaTime": 115,
        "channel": 2,
        "type": "channel",
        "noteNumber": 36,
        "velocity": 44,
        "subtype": "noteOn"
      },
      {
        "deltaTime": 17,
        "channel": 2,
        "type": "channel",
        "noteNumber": 38,
        "velocity": 15,
        "subtype": "noteOn"
      },
      {
        "deltaTime": 9,
        "channel": 2,
        "type": "channel",
        "subtype": "noteOff",
        "noteNumber": 38,
        "velocity": 0
      },
      {
        "deltaTime": 5,
        "channel": 2,
        "type": "channel",
        "noteNumber": 88,
        "velocity": 44,
        "subtype": "noteOn"
      },
      {
        "deltaTime": 31,
        "channel": 2,
        "type": "channel",
        "subtype": "noteOff",
        "noteNumber": 36,
        "velocity": 0
      },
      {
        "deltaTime": 3,
        "channel": 2,
        "type": "channel",
        "noteNumber": 48,
        "velocity": 30,
        "subtype": "noteOn"
      },
      {
        "deltaTime": 33,
        "channel": 2,
        "type": "channel",
        "subtype": "noteOff",
        "noteNumber": 88,
        "velocity": 0
      },
      {
        "deltaTime": 12,
        "channel": 2,
        "type": "channel",
        "noteNumber": 88,
        "velocity": 14,
        "subtype": "noteOn"
      },
      {
        "deltaTime": 19,
        "channel": 2,
        "type": "channel",
        "subtype": "noteOff",
        "noteNumber": 48,
        "velocity": 0
      },
      {
        "deltaTime": 10,
        "channel": 2,
        "type": "channel",
        "subtype": "noteOff",
        "noteNumber": 88,
        "velocity": 0
      },
      {
        "deltaTime": 125,
        "channel": 2,
        "type": "channel",
        "noteNumber": 105,
        "velocity": 38,
        "subtype": "noteOn"
      },
      {
        "deltaTime": 31,
        "channel": 2,
        "type": "channel",
        "subtype": "noteOff",
        "noteNumber": 105,
        "velocity": 0
      },
      {
        "deltaTime": 10,
        "channel": 2,
        "type": "channel",
        "noteNumber": 50,
        "velocity": 37,
        "subtype": "noteOn"
      },
      {
        "deltaTime": 28,
        "channel": 2,
        "type": "channel",
        "subtype": "noteOff",
        "noteNumber": 50,
        "velocity": 0
      },
      {
        "deltaTime": 24,
        "channel": 2,
        "type": "channel",
        "noteNumber": 105,
        "velocity": 31,
        "subtype": "noteOn"
      },
      {
        "deltaTime": 15,
        "channel": 2,
        "type": "channel",
        "noteNumber": 77,
        "velocity": 35,
        "subtype": "noteOn"
      },
      {
        "deltaTime": 2,
        "channel": 2,
        "type": "channel",
        "subtype": "noteOff",
        "noteNumber": 105,
        "velocity": 0
      },
      {
        "deltaTime": 17,
        "channel": 2,
        "type": "channel",
        "subtype": "noteOff",
        "noteNumber": 77,
        "velocity": 0
      },
      {
        "deltaTime": 14,
        "channel": 2,
        "type": "channel",
        "noteNumber": 36,
        "velocity": 10,
        "subtype": "noteOn"
      },
      {
        "deltaTime": 10,
        "channel": 2,
        "type": "channel",
        "subtype": "noteOff",
        "noteNumber": 36,
        "velocity": 0
      },
      {
        "deltaTime": 139,
        "channel": 2,
        "type": "channel",
        "noteNumber": 105,
        "velocity": 20,
        "subtype": "noteOn"
      },
      {
        "deltaTime": 12,
        "channel": 2,
        "type": "channel",
        "subtype": "noteOff",
        "noteNumber": 105,
        "velocity": 0
      },
      {
        "deltaTime": 17,
        "channel": 2,
        "type": "channel",
        "noteNumber": 105,
        "velocity": 25,
        "subtype": "noteOn"
      },
      {
        "deltaTime": 24,
        "channel": 2,
        "type": "channel",
        "subtype": "noteOff",
        "noteNumber": 105,
        "velocity": 0
      },
      {
        "deltaTime": 14,
        "channel": 2,
        "type": "channel",
        "noteNumber": 101,
        "velocity": 16,
        "subtype": "noteOn"
      },
      {
        "deltaTime": 15,
        "channel": 2,
        "type": "channel",
        "subtype": "noteOff",
        "noteNumber": 101,
        "velocity": 0
      },
      {
        "deltaTime": 29,
        "channel": 2,
        "type": "channel",
        "noteNumber": 35,
        "velocity": 18,
        "subtype": "noteOn"
      },
      {
        "deltaTime": 16,
        "channel": 2,
        "type": "channel",
        "subtype": "noteOff",
        "noteNumber": 35,
        "velocity": 0
      },
      {
        "deltaTime": 58,
        "channel": 2,
        "type": "channel",
        "noteNumber": 100,
        "velocity": 31,
        "subtype": "noteOn"
      },
      {
        "deltaTime": 43,
        "channel": 2,
        "type": "channel",
        "noteNumber": 96,
        "velocity": 24,
        "subtype": "noteOn"
      },
      {
        "deltaTime": 3,
        "channel": 2,
        "type": "channel",
        "subtype": "noteOff",
        "noteNumber": 100,
        "velocity": 0
      },
      {
        "deltaTime": 21,
        "channel": 2,
        "type": "channel",
        "subtype": "noteOff",
        "noteNumber": 96,
        "velocity": 0
      },
      {
        "deltaTime": 89,
        "channel": 2,
        "type": "channel",
        "noteNumber": 86,
        "velocity": 25,
        "subtype": "noteOn"
      },
      {
        "deltaTime": 10,
        "channel": 2,
        "type": "channel",
        "subtype": "noteOff",
        "noteNumber": 86,
        "velocity": 0
      },
      {
        "deltaTime": 7,
        "channel": 2,
        "type": "channel",
        "noteNumber": 102,
        "velocity": 22,
        "subtype": "noteOn"
      },
      {
        "deltaTime": 33,
        "channel": 2,
        "type": "channel",
        "subtype": "noteOff",
        "noteNumber": 102,
        "velocity": 0
      },
      {
        "deltaTime": 17,
        "channel": 2,
        "type": "channel",
        "noteNumber": 36,
        "velocity": 36,
        "subtype": "noteOn"
      },
      {
        "deltaTime": 5,
        "channel": 2,
        "type": "channel",
        "noteNumber": 38,
        "velocity": 12,
        "subtype": "noteOn"
      },
      {
        "deltaTime": 14,
        "channel": 2,
        "type": "channel",
        "subtype": "noteOff",
        "noteNumber": 36,
        "velocity": 0
      },
      {
        "deltaTime": 10,
        "channel": 2,
        "type": "channel",
        "subtype": "noteOff",
        "noteNumber": 38,
        "velocity": 0
      },
      {
        "deltaTime": 74,
        "channel": 2,
        "type": "channel",
        "noteNumber": 46,
        "velocity": 12,
        "subtype": "noteOn"
      },
      {
        "deltaTime": 20,
        "channel": 2,
        "type": "channel",
        "subtype": "noteOff",
        "noteNumber": 46,
        "velocity": 0
      },
      {
        "deltaTime": 33,
        "channel": 2,
        "type": "channel",
        "noteNumber": 86,
        "velocity": 15,
        "subtype": "noteOn"
      },
      {
        "deltaTime": 31,
        "channel": 2,
        "type": "channel",
        "subtype": "noteOff",
        "noteNumber": 86,
        "velocity": 0
      },
      {
        "deltaTime": 56,
        "channel": 2,
        "type": "channel",
        "noteNumber": 76,
        "velocity": 21,
        "subtype": "noteOn"
      },
      {
        "deltaTime": 24,
        "channel": 2,
        "type": "channel",
        "subtype": "noteOff",
        "noteNumber": 76,
        "velocity": 0
      },
      {
        "deltaTime": 19,
        "channel": 2,
        "type": "channel",
        "noteNumber": 64,
        "velocity": 45,
        "subtype": "noteOn"
      },
      {
        "deltaTime": 48,
        "channel": 2,
        "type": "channel",
        "noteNumber": 42,
        "velocity": 16,
        "subtype": "noteOn"
      },
      {
        "deltaTime": 12,
        "channel": 2,
        "type": "channel",
        "noteNumber": 95,
        "velocity": 20,
        "subtype": "noteOn"
      },
      {
        "deltaTime": 9,
        "channel": 2,
        "type": "channel",
        "subtype": "noteOff",
        "noteNumber": 42,
        "velocity": 0
      },
      {
        "deltaTime": 44,
        "channel": 2,
        "type": "channel",
        "subtype": "noteOff",
        "noteNumber": 95,
        "velocity": 0
      },
      {
        "deltaTime": 26,
        "channel": 2,
        "type": "channel",
        "noteNumber": 88,
        "velocity": 28,
        "subtype": "noteOn"
      },
      {
        "deltaTime": 0,
        "channel": 2,
        "type": "channel",
        "noteNumber": 104,
        "velocity": 11,
        "subtype": "noteOn"
      },
      {
        "deltaTime": 48,
        "channel": 2,
        "type": "channel",
        "subtype": "noteOff",
        "noteNumber": 104,
        "velocity": 0
      },
      {
        "deltaTime": 14,
        "channel": 2,
        "type": "channel",
        "subtype": "noteOff",
        "noteNumber": 64,
        "velocity": 0
      },
      {
        "deltaTime": 58,
        "channel": 2,
        "type": "channel",
        "subtype": "noteOff",
        "noteNumber": 88,
        "velocity": 0
      },
      {
        "deltaTime": 34,
        "channel": 2,
        "type": "channel",
        "noteNumber": 65,
        "velocity": 40,
        "subtype": "noteOn"
      },
      {
        "deltaTime": 33,
        "channel": 2,
        "type": "channel",
        "subtype": "noteOff",
        "noteNumber": 65,
        "velocity": 0
      },
      {
        "deltaTime": 41,
        "channel": 2,
        "type": "channel",
        "noteNumber": 42,
        "velocity": 12,
        "subtype": "noteOn"
      },
      {
        "deltaTime": 17,
        "channel": 2,
        "type": "channel",
        "subtype": "noteOff",
        "noteNumber": 42,
        "velocity": 0
      },
      {
        "deltaTime": 199,
        "channel": 2,
        "type": "channel",
        "noteNumber": 57,
        "velocity": 11,
        "subtype": "noteOn"
      },
      {
        "deltaTime": 24,
        "channel": 2,
        "type": "channel",
        "subtype": "noteOff",
        "noteNumber": 57,
        "velocity": 0
      },
      {
        "deltaTime": 0,
        "channel": 2,
        "type": "channel",
        "noteNumber": 36,
        "velocity": 11,
        "subtype": "noteOn"
      },
      {
        "deltaTime": 34,
        "channel": 2,
        "type": "channel",
        "subtype": "noteOff",
        "noteNumber": 36,
        "velocity": 0
      },
      {
        "deltaTime": 93,
        "channel": 2,
        "type": "channel",
        "noteNumber": 96,
        "velocity": 34,
        "subtype": "noteOn"
      },
      {
        "deltaTime": 17,
        "channel": 2,
        "type": "channel",
        "subtype": "noteOff",
        "noteNumber": 96,
        "velocity": 0
      },
      {
        "deltaTime": 26,
        "channel": 2,
        "type": "channel",
        "noteNumber": 86,
        "velocity": 19,
        "subtype": "noteOn"
      },
      {
        "deltaTime": 32,
        "channel": 2,
        "type": "channel",
        "subtype": "noteOff",
        "noteNumber": 86,
        "velocity": 0
      },
      {
        "deltaTime": 14,
        "channel": 2,
        "type": "channel",
        "noteNumber": 98,
        "velocity": 12,
        "subtype": "noteOn"
      },
      {
        "deltaTime": 12,
        "channel": 2,
        "type": "channel",
        "subtype": "noteOff",
        "noteNumber": 98,
        "velocity": 0
      },
      {
        "deltaTime": 31,
        "channel": 2,
        "type": "channel",
        "noteNumber": 96,
        "velocity": 12,
        "subtype": "noteOn"
      },
      {
        "deltaTime": 15,
        "channel": 2,
        "type": "channel",
        "subtype": "noteOff",
        "noteNumber": 96,
        "velocity": 0
      },
      {
        "deltaTime": 9,
        "channel": 2,
        "type": "channel",
        "noteNumber": 53,
        "velocity": 23,
        "subtype": "noteOn"
      },
      {
        "deltaTime": 67,
        "channel": 2,
        "type": "channel",
        "subtype": "noteOff",
        "noteNumber": 53,
        "velocity": 0
      },
      {
        "deltaTime": 39,
        "channel": 2,
        "type": "channel",
        "noteNumber": 36,
        "velocity": 17,
        "subtype": "noteOn"
      },
      {
        "deltaTime": 31,
        "channel": 2,
        "type": "channel",
        "subtype": "noteOff",
        "noteNumber": 36,
        "velocity": 0
      },
      {
        "deltaTime": 106,
        "channel": 2,
        "type": "channel",
        "noteNumber": 60,
        "velocity": 19,
        "subtype": "noteOn"
      },
      {
        "deltaTime": 48,
        "channel": 2,
        "type": "channel",
        "subtype": "noteOff",
        "noteNumber": 60,
        "velocity": 0
      },
      {
        "deltaTime": 26,
        "channel": 2,
        "type": "channel",
        "noteNumber": 55,
        "velocity": 20,
        "subtype": "noteOn"
      },
      {
        "deltaTime": 29,
        "channel": 2,
        "type": "channel",
        "subtype": "noteOff",
        "noteNumber": 55,
        "velocity": 0
      },
      {
        "deltaTime": 33,
        "channel": 2,
        "type": "channel",
        "noteNumber": 100,
        "velocity": 47,
        "subtype": "noteOn"
      },
      {
        "deltaTime": 15,
        "channel": 2,
        "type": "channel",
        "subtype": "noteOff",
        "noteNumber": 100,
        "velocity": 0
      },
      {
        "deltaTime": 14,
        "channel": 2,
        "type": "channel",
        "noteNumber": 100,
        "velocity": 47,
        "subtype": "noteOn"
      },
      {
        "deltaTime": 10,
        "channel": 2,
        "type": "channel",
        "subtype": "noteOff",
        "noteNumber": 100,
        "velocity": 0
      },
      {
        "deltaTime": 5,
        "channel": 2,
        "type": "channel",
        "noteNumber": 36,
        "velocity": 46,
        "subtype": "noteOn"
      },
      {
        "deltaTime": 16,
        "channel": 2,
        "type": "channel",
        "noteNumber": 38,
        "velocity": 16,
        "subtype": "noteOn"
      },
      {
        "deltaTime": 10,
        "channel": 2,
        "type": "channel",
        "subtype": "noteOff",
        "noteNumber": 38,
        "velocity": 0
      },
      {
        "deltaTime": 0,
        "channel": 2,
        "type": "channel",
        "noteNumber": 64,
        "velocity": 38,
        "subtype": "noteOn"
      },
      {
        "deltaTime": 36,
        "channel": 2,
        "type": "channel",
        "subtype": "noteOff",
        "noteNumber": 36,
        "velocity": 0
      },
      {
        "deltaTime": 2,
        "channel": 2,
        "type": "channel",
        "noteNumber": 48,
        "velocity": 29,
        "subtype": "noteOn"
      },
      {
        "deltaTime": 53,
        "channel": 2,
        "type": "channel",
        "subtype": "noteOff",
        "noteNumber": 48,
        "velocity": 0
      },
      {
        "deltaTime": 51,
        "channel": 2,
        "type": "channel",
        "subtype": "noteOff",
        "noteNumber": 64,
        "velocity": 0
      },
      {
        "deltaTime": 24,
        "channel": 2,
        "type": "channel",
        "noteNumber": 50,
        "velocity": 42,
        "subtype": "noteOn"
      },
      {
        "deltaTime": 21,
        "channel": 2,
        "type": "channel",
        "noteNumber": 77,
        "velocity": 33,
        "subtype": "noteOn"
      },
      {
        "deltaTime": 22,
        "channel": 2,
        "type": "channel",
        "subtype": "noteOff",
        "noteNumber": 77,
        "velocity": 0
      },
      {
        "deltaTime": 50,
        "channel": 2,
        "type": "channel",
        "subtype": "noteOff",
        "noteNumber": 50,
        "velocity": 0
      },
      {
        "deltaTime": 5,
        "channel": 2,
        "type": "channel",
        "noteNumber": 88,
        "velocity": 42,
        "subtype": "noteOn"
      },
      {
        "deltaTime": 10,
        "channel": 2,
        "type": "channel",
        "subtype": "noteOff",
        "noteNumber": 88,
        "velocity": 0
      },
      {
        "deltaTime": 2,
        "channel": 2,
        "type": "channel",
        "noteNumber": 50,
        "velocity": 27,
        "subtype": "noteOn"
      },
      {
        "deltaTime": 29,
        "channel": 2,
        "type": "channel",
        "subtype": "noteOff",
        "noteNumber": 50,
        "velocity": 0
      },
      {
        "deltaTime": 122,
        "channel": 2,
        "type": "channel",
        "noteNumber": 67,
        "velocity": 38,
        "subtype": "noteOn"
      },
      {
        "deltaTime": 75,
        "channel": 2,
        "type": "channel",
        "subtype": "noteOff",
        "noteNumber": 67,
        "velocity": 0
      },
      {
        "deltaTime": 2,
        "channel": 2,
        "type": "channel",
        "noteNumber": 105,
        "velocity": 31,
        "subtype": "noteOn"
      },
      {
        "deltaTime": 22,
        "channel": 2,
        "type": "channel",
        "subtype": "noteOff",
        "noteNumber": 105,
        "velocity": 0
      },
      {
        "deltaTime": 14,
        "channel": 2,
        "type": "channel",
        "noteNumber": 101,
        "velocity": 43,
        "subtype": "noteOn"
      },
      {
        "deltaTime": 53,
        "channel": 2,
        "type": "channel",
        "noteNumber": 105,
        "velocity": 18,
        "subtype": "noteOn"
      },
      {
        "deltaTime": 12,
        "channel": 2,
        "type": "channel",
        "subtype": "noteOff",
        "noteNumber": 105,
        "velocity": 0
      },
      {
        "deltaTime": 9,
        "channel": 2,
        "type": "channel",
        "subtype": "noteOff",
        "noteNumber": 101,
        "velocity": 0
      },
      {
        "deltaTime": 27,
        "channel": 2,
        "type": "channel",
        "noteNumber": 48,
        "velocity": 17,
        "subtype": "noteOn"
      },
      {
        "deltaTime": 2,
        "channel": 2,
        "type": "channel",
        "noteNumber": 35,
        "velocity": 10,
        "subtype": "noteOn"
      },
      {
        "deltaTime": 12,
        "channel": 2,
        "type": "channel",
        "subtype": "noteOff",
        "noteNumber": 35,
        "velocity": 0
      },
      {
        "deltaTime": 17,
        "channel": 2,
        "type": "channel",
        "subtype": "noteOff",
        "noteNumber": 48,
        "velocity": 0
      },
      {
        "deltaTime": 31,
        "channel": 2,
        "type": "channel",
        "noteNumber": 48,
        "velocity": 11,
        "subtype": "noteOn"
      },
      {
        "deltaTime": 19,
        "channel": 2,
        "type": "channel",
        "subtype": "noteOff",
        "noteNumber": 48,
        "velocity": 0
      },
      {
        "deltaTime": 3,
        "channel": 2,
        "type": "channel",
        "noteNumber": 93,
        "velocity": 31,
        "subtype": "noteOn"
      },
      {
        "deltaTime": 9,
        "channel": 2,
        "type": "channel",
        "subtype": "noteOff",
        "noteNumber": 93,
        "velocity": 0
      },
      {
        "deltaTime": 89,
        "channel": 2,
        "type": "channel",
        "noteNumber": 36,
        "velocity": 11,
        "subtype": "noteOn"
      },
      {
        "deltaTime": 3,
        "channel": 2,
        "type": "channel",
        "noteNumber": 53,
        "velocity": 32,
        "subtype": "noteOn"
      },
      {
        "deltaTime": 12,
        "channel": 2,
        "type": "channel",
        "subtype": "noteOff",
        "noteNumber": 36,
        "velocity": 0
      },
      {
        "deltaTime": 2,
        "channel": 2,
        "type": "channel",
        "noteNumber": 98,
        "velocity": 28,
        "subtype": "noteOn"
      },
      {
        "deltaTime": 10,
        "channel": 2,
        "type": "channel",
        "subtype": "noteOff",
        "noteNumber": 98,
        "velocity": 0
      },
      {
        "deltaTime": 50,
        "channel": 2,
        "type": "channel",
        "subtype": "noteOff",
        "noteNumber": 53,
        "velocity": 0
      },
      {
        "deltaTime": 34,
        "channel": 2,
        "type": "channel",
        "noteNumber": 36,
        "velocity": 35,
        "subtype": "noteOn"
      },
      {
        "deltaTime": 19,
        "channel": 2,
        "type": "channel",
        "subtype": "noteOff",
        "noteNumber": 36,
        "velocity": 0
      },
      {
        "deltaTime": 36,
        "channel": 2,
        "type": "channel",
        "noteNumber": 98,
        "velocity": 15,
        "subtype": "noteOn"
      },
      {
        "deltaTime": 19,
        "channel": 2,
        "type": "channel",
        "subtype": "noteOff",
        "noteNumber": 98,
        "velocity": 0
      },
      {
        "deltaTime": 110,
        "channel": 2,
        "type": "channel",
        "noteNumber": 76,
        "velocity": 14,
        "subtype": "noteOn"
      },
      {
        "deltaTime": 63,
        "channel": 2,
        "type": "channel",
        "noteNumber": 104,
        "velocity": 36,
        "subtype": "noteOn"
      },
      {
        "deltaTime": 5,
        "channel": 2,
        "type": "channel",
        "subtype": "noteOff",
        "noteNumber": 76,
        "velocity": 0
      },
      {
        "deltaTime": 28,
        "channel": 2,
        "type": "channel",
        "subtype": "noteOff",
        "noteNumber": 104,
        "velocity": 0
      },
      {
        "deltaTime": 17,
        "channel": 2,
        "type": "channel",
        "noteNumber": 64,
        "velocity": 44,
        "subtype": "noteOn"
      },
      {
        "deltaTime": 65,
        "channel": 2,
        "type": "channel",
        "noteNumber": 36,
        "velocity": 31,
        "subtype": "noteOn"
      },
      {
        "deltaTime": 12,
        "channel": 2,
        "type": "channel",
        "subtype": "noteOff",
        "noteNumber": 36,
        "velocity": 0
      },
      {
        "deltaTime": 36,
        "channel": 2,
        "type": "channel",
        "noteNumber": 81,
        "velocity": 20,
        "subtype": "noteOn"
      },
      {
        "deltaTime": 10,
        "channel": 2,
        "type": "channel",
        "subtype": "noteOff",
        "noteNumber": 81,
        "velocity": 0
      },
      {
        "deltaTime": 69,
        "channel": 2,
        "type": "channel",
        "subtype": "noteOff",
        "noteNumber": 64,
        "velocity": 0
      },
      {
        "deltaTime": 99,
        "channel": 2,
        "type": "channel",
        "noteNumber": 105,
        "velocity": 46,
        "subtype": "noteOn"
      },
      {
        "deltaTime": 57,
        "channel": 2,
        "type": "channel",
        "subtype": "noteOff",
        "noteNumber": 105,
        "velocity": 0
      },
      {
        "deltaTime": 5,
        "channel": 2,
        "type": "channel",
        "noteNumber": 36,
        "velocity": 16,
        "subtype": "noteOn"
      },
      {
        "deltaTime": 12,
        "channel": 2,
        "type": "channel",
        "subtype": "noteOff",
        "noteNumber": 36,
        "velocity": 0
      },
      {
        "deltaTime": 2,
        "channel": 2,
        "type": "channel",
        "noteNumber": 62,
        "velocity": 10,
        "subtype": "noteOn"
      },
      {
        "deltaTime": 20,
        "channel": 2,
        "type": "channel",
        "subtype": "noteOff",
        "noteNumber": 62,
        "velocity": 0
      },
      {
        "deltaTime": 19,
        "channel": 2,
        "type": "channel",
        "noteNumber": 105,
        "velocity": 17,
        "subtype": "noteOn"
      },
      {
        "deltaTime": 17,
        "channel": 2,
        "type": "channel",
        "subtype": "noteOff",
        "noteNumber": 105,
        "velocity": 0
      },
      {
        "deltaTime": 98,
        "channel": 2,
        "type": "channel",
        "noteNumber": 62,
        "velocity": 49,
        "subtype": "noteOn"
      },
      {
        "deltaTime": 65,
        "channel": 2,
        "type": "channel",
        "noteNumber": 102,
        "velocity": 22,
        "subtype": "noteOn"
      },
      {
        "deltaTime": 17,
        "channel": 2,
        "type": "channel",
        "subtype": "noteOff",
        "noteNumber": 102,
        "velocity": 0
      },
      {
        "deltaTime": 19,
        "channel": 2,
        "type": "channel",
        "noteNumber": 98,
        "velocity": 38,
        "subtype": "noteOn"
      },
      {
        "deltaTime": 9,
        "channel": 2,
        "type": "channel",
        "subtype": "noteOff",
        "noteNumber": 98,
        "velocity": 0
      },
      {
        "deltaTime": 8,
        "channel": 2,
        "type": "channel",
        "subtype": "noteOff",
        "noteNumber": 62,
        "velocity": 0
      },
      {
        "deltaTime": 4,
        "channel": 2,
        "type": "channel",
        "noteNumber": 102,
        "velocity": 18,
        "subtype": "noteOn"
      },
      {
        "deltaTime": 27,
        "channel": 2,
        "type": "channel",
        "subtype": "noteOff",
        "noteNumber": 102,
        "velocity": 0
      },
      {
        "deltaTime": 545,
        "channel": 2,
        "type": "channel",
        "noteNumber": 105,
        "velocity": 42,
        "subtype": "noteOn"
      },
      {
        "deltaTime": 24,
        "channel": 2,
        "type": "channel",
        "noteNumber": 65,
        "velocity": 48,
        "subtype": "noteOn"
      },
      {
        "deltaTime": 48,
        "channel": 2,
        "type": "channel",
        "subtype": "noteOff",
        "noteNumber": 105,
        "velocity": 0
      },
      {
        "deltaTime": 21,
        "channel": 2,
        "type": "channel",
        "subtype": "noteOff",
        "noteNumber": 65,
        "velocity": 0
      },
      {
        "deltaTime": 0,
        "channel": 2,
        "type": "channel",
        "noteNumber": 36,
        "velocity": 29,
        "subtype": "noteOn"
      },
      {
        "deltaTime": 17,
        "channel": 2,
        "type": "channel",
        "subtype": "noteOff",
        "noteNumber": 36,
        "velocity": 0
      },
      {
        "deltaTime": 5,
        "channel": 2,
        "type": "channel",
        "noteNumber": 63,
        "velocity": 28,
        "subtype": "noteOn"
      },
      {
        "deltaTime": 96,
        "channel": 2,
        "type": "channel",
        "subtype": "noteOff",
        "noteNumber": 63,
        "velocity": 0
      },
      {
        "deltaTime": 5,
        "channel": 2,
        "type": "channel",
        "noteNumber": 63,
        "velocity": 30,
        "subtype": "noteOn"
      },
      {
        "deltaTime": 74,
        "channel": 2,
        "type": "channel",
        "subtype": "noteOff",
        "noteNumber": 63,
        "velocity": 0
      },
      {
        "deltaTime": 14,
        "channel": 2,
        "type": "channel",
        "noteNumber": 94,
        "velocity": 15,
        "subtype": "noteOn"
      },
      {
        "deltaTime": 34,
        "channel": 2,
        "type": "channel",
        "subtype": "noteOff",
        "noteNumber": 94,
        "velocity": 0
      },
      {
        "deltaTime": 5,
        "channel": 2,
        "type": "channel",
        "noteNumber": 67,
        "velocity": 48,
        "subtype": "noteOn"
      },
      {
        "deltaTime": 72,
        "channel": 2,
        "type": "channel",
        "subtype": "noteOff",
        "noteNumber": 67,
        "velocity": 0
      },
      {
        "deltaTime": 48,
        "channel": 2,
        "type": "channel",
        "noteNumber": 103,
        "velocity": 44,
        "subtype": "noteOn"
      },
      {
        "deltaTime": 45,
        "channel": 2,
        "type": "channel",
        "noteNumber": 67,
        "velocity": 27,
        "subtype": "noteOn"
      },
      {
        "deltaTime": 24,
        "channel": 2,
        "type": "channel",
        "subtype": "noteOff",
        "noteNumber": 103,
        "velocity": 0
      },
      {
        "deltaTime": 39,
        "channel": 2,
        "type": "channel",
        "subtype": "noteOff",
        "noteNumber": 67,
        "velocity": 0
      },
      {
        "deltaTime": 19,
        "channel": 2,
        "type": "channel",
        "noteNumber": 65,
        "velocity": 32,
        "subtype": "noteOn"
      },
      {
        "deltaTime": 106,
        "channel": 2,
        "type": "channel",
        "subtype": "noteOff",
        "noteNumber": 65,
        "velocity": 0
      },
      {
        "deltaTime": 168,
        "channel": 2,
        "type": "channel",
        "noteNumber": 70,
        "velocity": 50,
        "subtype": "noteOn"
      },
      {
        "deltaTime": 52,
        "channel": 2,
        "type": "channel",
        "noteNumber": 80,
        "velocity": 32,
        "subtype": "noteOn"
      },
      {
        "deltaTime": 3,
        "channel": 2,
        "type": "channel",
        "noteNumber": 92,
        "velocity": 29,
        "subtype": "noteOn"
      },
      {
        "deltaTime": 17,
        "channel": 2,
        "type": "channel",
        "subtype": "noteOff",
        "noteNumber": 92,
        "velocity": 0
      },
      {
        "deltaTime": 4,
        "channel": 2,
        "type": "channel",
        "noteNumber": 92,
        "velocity": 33,
        "subtype": "noteOn"
      },
      {
        "deltaTime": 5,
        "channel": 2,
        "type": "channel",
        "subtype": "noteOff",
        "noteNumber": 80,
        "velocity": 0
      },
      {
        "deltaTime": 10,
        "channel": 2,
        "type": "channel",
        "subtype": "noteOff",
        "noteNumber": 92,
        "velocity": 0
      },
      {
        "deltaTime": 24,
        "channel": 2,
        "type": "channel",
        "subtype": "noteOff",
        "noteNumber": 70,
        "velocity": 0
      },
      {
        "deltaTime": 33,
        "channel": 2,
        "type": "channel",
        "noteNumber": 36,
        "velocity": 18,
        "subtype": "noteOn"
      },
      {
        "deltaTime": 10,
        "channel": 2,
        "type": "channel",
        "subtype": "noteOff",
        "noteNumber": 36,
        "velocity": 0
      },
      {
        "deltaTime": 29,
        "channel": 2,
        "type": "channel",
        "noteNumber": 36,
        "velocity": 27,
        "subtype": "noteOn"
      },
      {
        "deltaTime": 12,
        "channel": 2,
        "type": "channel",
        "noteNumber": 39,
        "velocity": 61,
        "subtype": "noteOn"
      },
      {
        "deltaTime": 12,
        "channel": 2,
        "type": "channel",
        "subtype": "noteOff",
        "noteNumber": 36,
        "velocity": 0
      },
      {
        "deltaTime": 5,
        "channel": 2,
        "type": "channel",
        "noteNumber": 99,
        "velocity": 39,
        "subtype": "noteOn"
      },
      {
        "deltaTime": 38,
        "channel": 2,
        "type": "channel",
        "subtype": "noteOff",
        "noteNumber": 99,
        "velocity": 0
      },
      {
        "deltaTime": 48,
        "channel": 2,
        "type": "channel",
        "noteNumber": 103,
        "velocity": 51,
        "subtype": "noteOn"
      },
      {
        "deltaTime": 14,
        "channel": 2,
        "type": "channel",
        "noteNumber": 51,
        "velocity": 23,
        "subtype": "noteOn"
      },
      {
        "deltaTime": 29,
        "channel": 2,
        "type": "channel",
        "subtype": "noteOff",
        "noteNumber": 103,
        "velocity": 0
      },
      {
        "deltaTime": 5,
        "channel": 2,
        "type": "channel",
        "subtype": "noteOff",
        "noteNumber": 51,
        "velocity": 0
      },
      {
        "deltaTime": 22,
        "channel": 2,
        "type": "channel",
        "subtype": "noteOff",
        "noteNumber": 39,
        "velocity": 0
      },
      {
        "deltaTime": 12,
        "channel": 2,
        "type": "channel",
        "noteNumber": 105,
        "velocity": 26,
        "subtype": "noteOn"
      },
      {
        "deltaTime": 24,
        "channel": 2,
        "type": "channel",
        "subtype": "noteOff",
        "noteNumber": 105,
        "velocity": 0
      },
      {
        "deltaTime": 19,
        "channel": 2,
        "type": "channel",
        "noteNumber": 101,
        "velocity": 40,
        "subtype": "noteOn"
      },
      {
        "deltaTime": 14,
        "channel": 2,
        "type": "channel",
        "noteNumber": 105,
        "velocity": 43,
        "subtype": "noteOn"
      },
      {
        "deltaTime": 41,
        "channel": 2,
        "type": "channel",
        "subtype": "noteOff",
        "noteNumber": 101,
        "velocity": 0
      },
      {
        "deltaTime": 10,
        "channel": 2,
        "type": "channel",
        "subtype": "noteOff",
        "noteNumber": 105,
        "velocity": 0
      },
      {
        "deltaTime": 2,
        "channel": 2,
        "type": "channel",
        "noteNumber": 105,
        "velocity": 49,
        "subtype": "noteOn"
      },
      {
        "deltaTime": 17,
        "channel": 2,
        "type": "channel",
        "subtype": "noteOff",
        "noteNumber": 105,
        "velocity": 0
      },
      {
        "deltaTime": 12,
        "channel": 2,
        "type": "channel",
        "noteNumber": 63,
        "velocity": 36,
        "subtype": "noteOn"
      },
      {
        "deltaTime": 65,
        "channel": 2,
        "type": "channel",
        "noteNumber": 77,
        "velocity": 35,
        "subtype": "noteOn"
      },
      {
        "deltaTime": 16,
        "channel": 2,
        "type": "channel",
        "subtype": "noteOff",
        "noteNumber": 77,
        "velocity": 0
      },
      {
        "deltaTime": 24,
        "channel": 2,
        "type": "channel",
        "subtype": "noteOff",
        "noteNumber": 63,
        "velocity": 0
      },
      {
        "deltaTime": 3,
        "channel": 2,
        "type": "channel",
        "noteNumber": 63,
        "velocity": 28,
        "subtype": "noteOn"
      },
      {
        "deltaTime": 91,
        "channel": 2,
        "type": "channel",
        "noteNumber": 94,
        "velocity": 16,
        "subtype": "noteOn"
      },
      {
        "deltaTime": 31,
        "channel": 2,
        "type": "channel",
        "subtype": "noteOff",
        "noteNumber": 94,
        "velocity": 0
      },
      {
        "deltaTime": 7,
        "channel": 2,
        "type": "channel",
        "noteNumber": 67,
        "velocity": 47,
        "subtype": "noteOn"
      },
      {
        "deltaTime": 12,
        "channel": 2,
        "type": "channel",
        "subtype": "noteOff",
        "noteNumber": 63,
        "velocity": 0
      },
      {
        "deltaTime": 58,
        "channel": 2,
        "type": "channel",
        "subtype": "noteOff",
        "noteNumber": 67,
        "velocity": 0
      },
      {
        "deltaTime": 2,
        "channel": 2,
        "type": "channel",
        "noteNumber": 36,
        "velocity": 24,
        "subtype": "noteOn"
      },
      {
        "deltaTime": 20,
        "channel": 2,
        "type": "channel",
        "subtype": "noteOff",
        "noteNumber": 36,
        "velocity": 0
      },
      {
        "deltaTime": 7,
        "channel": 2,
        "type": "channel",
        "noteNumber": 65,
        "velocity": 21,
        "subtype": "noteOn"
      },
      {
        "deltaTime": 14,
        "channel": 2,
        "type": "channel",
        "subtype": "noteOff",
        "noteNumber": 65,
        "velocity": 0
      },
      {
        "deltaTime": 7,
        "channel": 2,
        "type": "channel",
        "noteNumber": 79,
        "velocity": 45,
        "subtype": "noteOn"
      },
      {
        "deltaTime": 56,
        "channel": 2,
        "type": "channel",
        "subtype": "noteOff",
        "noteNumber": 79,
        "velocity": 0
      },
      {
        "deltaTime": 67,
        "channel": 2,
        "type": "channel",
        "noteNumber": 65,
        "velocity": 29,
        "subtype": "noteOn"
      },
      {
        "deltaTime": 48,
        "channel": 2,
        "type": "channel",
        "noteNumber": 104,
        "velocity": 16,
        "subtype": "noteOn"
      },
      {
        "deltaTime": 12,
        "channel": 2,
        "type": "channel",
        "subtype": "noteOff",
        "noteNumber": 104,
        "velocity": 0
      },
      {
        "deltaTime": 45,
        "channel": 2,
        "type": "channel",
        "subtype": "noteOff",
        "noteNumber": 65,
        "velocity": 0
      },
      {
        "deltaTime": 152,
        "channel": 2,
        "type": "channel",
        "noteNumber": 92,
        "velocity": 10,
        "subtype": "noteOn"
      },
      {
        "deltaTime": 19,
        "channel": 2,
        "type": "channel",
        "noteNumber": 70,
        "velocity": 47,
        "subtype": "noteOn"
      },
      {
        "deltaTime": 5,
        "channel": 2,
        "type": "channel",
        "subtype": "noteOff",
        "noteNumber": 92,
        "velocity": 0
      },
      {
        "deltaTime": 52,
        "channel": 2,
        "type": "channel",
        "noteNumber": 80,
        "velocity": 30,
        "subtype": "noteOn"
      },
      {
        "deltaTime": 24,
        "channel": 2,
        "type": "channel",
        "subtype": "noteOff",
        "noteNumber": 80,
        "velocity": 0
      },
      {
        "deltaTime": 34,
        "channel": 2,
        "type": "channel",
        "subtype": "noteOff",
        "noteNumber": 70,
        "velocity": 0
      },
      {
        "deltaTime": 125,
        "channel": 2,
        "type": "channel",
        "noteNumber": 68,
        "velocity": 32,
        "subtype": "noteOn"
      },
      {
        "deltaTime": 7,
        "channel": 2,
        "type": "channel",
        "noteNumber": 103,
        "velocity": 22,
        "subtype": "noteOn"
      },
      {
        "deltaTime": 10,
        "channel": 2,
        "type": "channel",
        "subtype": "noteOff",
        "noteNumber": 103,
        "velocity": 0
      },
      {
        "deltaTime": 36,
        "channel": 2,
        "type": "channel",
        "noteNumber": 89,
        "velocity": 23,
        "subtype": "noteOn"
      },
      {
        "deltaTime": 14,
        "channel": 2,
        "type": "channel",
        "subtype": "noteOff",
        "noteNumber": 89,
        "velocity": 0
      },
      {
        "deltaTime": 38,
        "channel": 2,
        "type": "channel",
        "subtype": "noteOff",
        "noteNumber": 68,
        "velocity": 0
      },
      {
        "deltaTime": 15,
        "channel": 2,
        "type": "channel",
        "noteNumber": 91,
        "velocity": 24,
        "subtype": "noteOn"
      },
      {
        "deltaTime": 12,
        "channel": 2,
        "type": "channel",
        "noteNumber": 49,
        "velocity": 41,
        "subtype": "noteOn"
      },
      {
        "deltaTime": 9,
        "channel": 2,
        "type": "channel",
        "noteNumber": 89,
        "velocity": 37,
        "subtype": "noteOn"
      },
      {
        "deltaTime": 32,
        "channel": 2,
        "type": "channel",
        "subtype": "noteOff",
        "noteNumber": 91,
        "velocity": 0
      },
      {
        "deltaTime": 16,
        "channel": 2,
        "type": "channel",
        "subtype": "noteOff",
        "noteNumber": 89,
        "velocity": 0
      },
      {
        "deltaTime": 46,
        "channel": 2,
        "type": "channel",
        "subtype": "noteOff",
        "noteNumber": 49,
        "velocity": 0
      },
      {
        "deltaTime": 19,
        "channel": 2,
        "type": "channel",
        "noteNumber": 105,
        "velocity": 49,
        "subtype": "noteOn"
      },
      {
        "deltaTime": 34,
        "channel": 2,
        "type": "channel",
        "subtype": "noteOff",
        "noteNumber": 105,
        "velocity": 0
      },
      {
        "deltaTime": 5,
        "channel": 2,
        "type": "channel",
        "noteNumber": 63,
        "velocity": 14,
        "subtype": "noteOn"
      },
      {
        "deltaTime": 14,
        "channel": 2,
        "type": "channel",
        "noteNumber": 89,
        "velocity": 23,
        "subtype": "noteOn"
      },
      {
        "deltaTime": 2,
        "channel": 2,
        "type": "channel",
        "subtype": "noteOff",
        "noteNumber": 63,
        "velocity": 0
      },
      {
        "deltaTime": 41,
        "channel": 2,
        "type": "channel",
        "subtype": "noteOff",
        "noteNumber": 89,
        "velocity": 0
      },
      {
        "deltaTime": 7,
        "channel": 2,
        "type": "channel",
        "noteNumber": 93,
        "velocity": 11,
        "subtype": "noteOn"
      },
      {
        "deltaTime": 34,
        "channel": 2,
        "type": "channel",
        "subtype": "noteOff",
        "noteNumber": 93,
        "velocity": 0
      },
      {
        "deltaTime": 43,
        "channel": 2,
        "type": "channel",
        "noteNumber": 94,
        "velocity": 48,
        "subtype": "noteOn"
      },
      {
        "deltaTime": 15,
        "channel": 2,
        "type": "channel",
        "noteNumber": 91,
        "velocity": 26,
        "subtype": "noteOn"
      },
      {
        "deltaTime": 50,
        "channel": 2,
        "type": "channel",
        "subtype": "noteOff",
        "noteNumber": 91,
        "velocity": 0
      },
      {
        "deltaTime": 43,
        "channel": 2,
        "type": "channel",
        "subtype": "noteOff",
        "noteNumber": 94,
        "velocity": 0
      },
      {
        "deltaTime": 91,
        "channel": 2,
        "type": "channel",
        "noteNumber": 103,
        "velocity": 38,
        "subtype": "noteOn"
      },
      {
        "deltaTime": 32,
        "channel": 2,
        "type": "channel",
        "subtype": "noteOff",
        "noteNumber": 103,
        "velocity": 0
      },
      {
        "deltaTime": 60,
        "channel": 2,
        "type": "channel",
        "noteNumber": 98,
        "velocity": 25,
        "subtype": "noteOn"
      },
      {
        "deltaTime": 26,
        "channel": 2,
        "type": "channel",
        "subtype": "noteOff",
        "noteNumber": 98,
        "velocity": 0
      },
      {
        "deltaTime": 67,
        "channel": 2,
        "type": "channel",
        "noteNumber": 104,
        "velocity": 17,
        "subtype": "noteOn"
      },
      {
        "deltaTime": 15,
        "channel": 2,
        "type": "channel",
        "subtype": "noteOff",
        "noteNumber": 104,
        "velocity": 0
      },
      {
        "deltaTime": 4,
        "channel": 2,
        "type": "channel",
        "noteNumber": 104,
        "velocity": 34,
        "subtype": "noteOn"
      },
      {
        "deltaTime": 22,
        "channel": 2,
        "type": "channel",
        "subtype": "noteOff",
        "noteNumber": 104,
        "velocity": 0
      },
      {
        "deltaTime": 221,
        "channel": 2,
        "type": "channel",
        "noteNumber": 65,
        "velocity": 48,
        "subtype": "noteOn"
      },
      {
        "deltaTime": 17,
        "channel": 2,
        "type": "channel",
        "noteNumber": 80,
        "velocity": 26,
        "subtype": "noteOn"
      },
      {
        "deltaTime": 4,
        "channel": 2,
        "type": "channel",
        "noteNumber": 92,
        "velocity": 22,
        "subtype": "noteOn"
      },
      {
        "deltaTime": 12,
        "channel": 2,
        "type": "channel",
        "subtype": "noteOff",
        "noteNumber": 92,
        "velocity": 0
      },
      {
        "deltaTime": 10,
        "channel": 2,
        "type": "channel",
        "subtype": "noteOff",
        "noteNumber": 80,
        "velocity": 0
      },
      {
        "deltaTime": 38,
        "channel": 2,
        "type": "channel",
        "noteNumber": 68,
        "velocity": 48,
        "subtype": "noteOn"
      },
      {
        "deltaTime": 20,
        "channel": 2,
        "type": "channel",
        "subtype": "noteOff",
        "noteNumber": 65,
        "velocity": 0
      },
      {
        "deltaTime": 19,
        "channel": 2,
        "type": "channel",
        "subtype": "noteOff",
        "noteNumber": 68,
        "velocity": 0
      },
      {
        "deltaTime": 12,
        "channel": 2,
        "type": "channel",
        "noteNumber": 104,
        "velocity": 19,
        "subtype": "noteOn"
      },
      {
        "deltaTime": 21,
        "channel": 2,
        "type": "channel",
        "subtype": "noteOff",
        "noteNumber": 104,
        "velocity": 0
      },
      {
        "deltaTime": 20,
        "channel": 2,
        "type": "channel",
        "noteNumber": 67,
        "velocity": 17,
        "subtype": "noteOn"
      },
      {
        "deltaTime": 19,
        "channel": 2,
        "type": "channel",
        "subtype": "noteOff",
        "noteNumber": 67,
        "velocity": 0
      },
      {
        "deltaTime": 5,
        "channel": 2,
        "type": "channel",
        "noteNumber": 68,
        "velocity": 35,
        "subtype": "noteOn"
      },
      {
        "deltaTime": 40,
        "channel": 2,
        "type": "channel",
        "subtype": "noteOff",
        "noteNumber": 68,
        "velocity": 0
      },
      {
        "deltaTime": 0,
        "channel": 2,
        "type": "channel",
        "noteNumber": 79,
        "velocity": 31,
        "subtype": "noteOn"
      },
      {
        "deltaTime": 10,
        "channel": 2,
        "type": "channel",
        "noteNumber": 68,
        "velocity": 25,
        "subtype": "noteOn"
      },
      {
        "deltaTime": 10,
        "channel": 2,
        "type": "channel",
        "subtype": "noteOff",
        "noteNumber": 68,
        "velocity": 0
      },
      {
        "deltaTime": 36,
        "channel": 2,
        "type": "channel",
        "subtype": "noteOff",
        "noteNumber": 79,
        "velocity": 0
      },
      {
        "deltaTime": 84,
        "channel": 2,
        "type": "channel",
        "noteNumber": 105,
        "velocity": 31,
        "subtype": "noteOn"
      },
      {
        "deltaTime": 24,
        "channel": 2,
        "type": "channel",
        "subtype": "noteOff",
        "noteNumber": 105,
        "velocity": 0
      },
      {
        "deltaTime": 2,
        "channel": 2,
        "type": "channel",
        "noteNumber": 105,
        "velocity": 40,
        "subtype": "noteOn"
      },
      {
        "deltaTime": 50,
        "channel": 2,
        "type": "channel",
        "subtype": "noteOff",
        "noteNumber": 105,
        "velocity": 0
      },
      {
        "deltaTime": 5,
        "channel": 2,
        "type": "channel",
        "noteNumber": 92,
        "velocity": 51,
        "subtype": "noteOn"
      },
      {
        "deltaTime": 27,
        "channel": 2,
        "type": "channel",
        "subtype": "noteOff",
        "noteNumber": 92,
        "velocity": 0
      },
      {
        "deltaTime": 165,
        "channel": 2,
        "type": "channel",
        "noteNumber": 51,
        "velocity": 33,
        "subtype": "noteOn"
      },
      {
        "deltaTime": 27,
        "channel": 2,
        "type": "channel",
        "subtype": "noteOff",
        "noteNumber": 51,
        "velocity": 0
      },
      {
        "deltaTime": 28,
        "channel": 2,
        "type": "channel",
        "noteNumber": 36,
        "velocity": 16,
        "subtype": "noteOn"
      },
      {
        "deltaTime": 10,
        "channel": 2,
        "type": "channel",
        "subtype": "noteOff",
        "noteNumber": 36,
        "velocity": 0
      },
      {
        "deltaTime": 5,
        "channel": 2,
        "type": "channel",
        "noteNumber": 67,
        "velocity": 48,
        "subtype": "noteOn"
      },
      {
        "deltaTime": 29,
        "channel": 2,
        "type": "channel",
        "noteNumber": 77,
        "velocity": 27,
        "subtype": "noteOn"
      },
      {
        "deltaTime": 9,
        "channel": 2,
        "type": "channel",
        "subtype": "noteOff",
        "noteNumber": 77,
        "velocity": 0
      },
      {
        "deltaTime": 10,
        "channel": 2,
        "type": "channel",
        "noteNumber": 79,
        "velocity": 45,
        "subtype": "noteOn"
      },
      {
        "deltaTime": 21,
        "channel": 2,
        "type": "channel",
        "subtype": "noteOff",
        "noteNumber": 67,
        "velocity": 0
      },
      {
        "deltaTime": 22,
        "channel": 2,
        "type": "channel",
        "subtype": "noteOff",
        "noteNumber": 79,
        "velocity": 0
      },
      {
        "deltaTime": 22,
        "channel": 2,
        "type": "channel",
        "noteNumber": 103,
        "velocity": 35,
        "subtype": "noteOn"
      },
      {
        "deltaTime": 76,
        "channel": 2,
        "type": "channel",
        "subtype": "noteOff",
        "noteNumber": 103,
        "velocity": 0
      },
      {
        "deltaTime": 3,
        "channel": 2,
        "type": "channel",
        "noteNumber": 84,
        "velocity": 21,
        "subtype": "noteOn"
      },
      {
        "deltaTime": 2,
        "channel": 2,
        "type": "channel",
        "noteNumber": 79,
        "velocity": 29,
        "subtype": "noteOn"
      },
      {
        "deltaTime": 17,
        "channel": 2,
        "type": "channel",
        "subtype": "noteOff",
        "noteNumber": 84,
        "velocity": 0
      },
      {
        "deltaTime": 12,
        "channel": 2,
        "type": "channel",
        "subtype": "noteOff",
        "noteNumber": 79,
        "velocity": 0
      },
      {
        "deltaTime": 74,
        "channel": 2,
        "type": "channel",
        "noteNumber": 105,
        "velocity": 41,
        "subtype": "noteOn"
      },
      {
        "deltaTime": 8,
        "channel": 2,
        "type": "channel",
        "noteNumber": 77,
        "velocity": 40,
        "subtype": "noteOn"
      },
      {
        "deltaTime": 14,
        "channel": 2,
        "type": "channel",
        "subtype": "noteOff",
        "noteNumber": 77,
        "velocity": 0
      },
      {
        "deltaTime": 53,
        "channel": 2,
        "type": "channel",
        "subtype": "noteOff",
        "noteNumber": 105,
        "velocity": 0
      },
      {
        "deltaTime": 91,
        "channel": 2,
        "type": "channel",
        "noteNumber": 77,
        "velocity": 30,
        "subtype": "noteOn"
      },
      {
        "deltaTime": 62,
        "channel": 2,
        "type": "channel",
        "noteNumber": 101,
        "velocity": 27,
        "subtype": "noteOn"
      },
      {
        "deltaTime": 34,
        "channel": 2,
        "type": "channel",
        "subtype": "noteOff",
        "noteNumber": 101,
        "velocity": 0
      },
      {
        "deltaTime": 10,
        "channel": 2,
        "type": "channel",
        "subtype": "noteOff",
        "noteNumber": 77,
        "velocity": 0
      },
      {
        "deltaTime": 177,
        "channel": 2,
        "type": "channel",
        "noteNumber": 79,
        "velocity": 15,
        "subtype": "noteOn"
      },
      {
        "deltaTime": 15,
        "channel": 2,
        "type": "channel",
        "subtype": "noteOff",
        "noteNumber": 79,
        "velocity": 0
      },
      {
        "deltaTime": 141,
        "channel": 2,
        "type": "channel",
        "noteNumber": 105,
        "velocity": 26,
        "subtype": "noteOn"
      },
      {
        "deltaTime": 0,
        "channel": 2,
        "type": "channel",
        "noteNumber": 89,
        "velocity": 34,
        "subtype": "noteOn"
      },
      {
        "deltaTime": 27,
        "channel": 2,
        "type": "channel",
        "subtype": "noteOff",
        "noteNumber": 105,
        "velocity": 0
      },
      {
        "deltaTime": 19,
        "channel": 2,
        "type": "channel",
        "subtype": "noteOff",
        "noteNumber": 89,
        "velocity": 0
      },
      {
        "deltaTime": 0,
        "channel": 2,
        "type": "channel",
        "noteNumber": 101,
        "velocity": 40,
        "subtype": "noteOn"
      },
      {
        "deltaTime": 53,
        "channel": 2,
        "type": "channel",
        "subtype": "noteOff",
        "noteNumber": 101,
        "velocity": 0
      },
      {
        "deltaTime": 14,
        "channel": 2,
        "type": "channel",
        "noteNumber": 101,
        "velocity": 55,
        "subtype": "noteOn"
      },
      {
        "deltaTime": 22,
        "channel": 2,
        "type": "channel",
        "subtype": "noteOff",
        "noteNumber": 101,
        "velocity": 0
      },
      {
        "deltaTime": 14,
        "channel": 2,
        "type": "channel",
        "noteNumber": 101,
        "velocity": 43,
        "subtype": "noteOn"
      },
      {
        "deltaTime": 36,
        "channel": 2,
        "type": "channel",
        "subtype": "noteOff",
        "noteNumber": 101,
        "velocity": 0
      },
      {
        "deltaTime": 14,
        "channel": 2,
        "type": "channel",
        "noteNumber": 77,
        "velocity": 44,
        "subtype": "noteOn"
      },
      {
        "deltaTime": 44,
        "channel": 2,
        "type": "channel",
        "subtype": "noteOff",
        "noteNumber": 77,
        "velocity": 0
      },
      {
        "deltaTime": 79,
        "channel": 2,
        "type": "channel",
        "noteNumber": 79,
        "velocity": 48,
        "subtype": "noteOn"
      },
      {
        "deltaTime": 55,
        "channel": 2,
        "type": "channel",
        "noteNumber": 67,
        "velocity": 49,
        "subtype": "noteOn"
      },
      {
        "deltaTime": 17,
        "channel": 2,
        "type": "channel",
        "subtype": "noteOff",
        "noteNumber": 79,
        "velocity": 0
      },
      {
        "deltaTime": 5,
        "channel": 2,
        "type": "channel",
        "noteNumber": 79,
        "velocity": 17,
        "subtype": "noteOn"
      },
      {
        "deltaTime": 14,
        "channel": 2,
        "type": "channel",
        "subtype": "noteOff",
        "noteNumber": 79,
        "velocity": 0
      },
      {
        "deltaTime": 34,
        "channel": 2,
        "type": "channel",
        "noteNumber": 36,
        "velocity": 32,
        "subtype": "noteOn"
      },
      {
        "deltaTime": 2,
        "channel": 2,
        "type": "channel",
        "subtype": "noteOff",
        "noteNumber": 67,
        "velocity": 0
      },
      {
        "deltaTime": 26,
        "channel": 2,
        "type": "channel",
        "subtype": "noteOff",
        "noteNumber": 36,
        "velocity": 0
      },
      {
        "deltaTime": 22,
        "channel": 2,
        "type": "channel",
        "noteNumber": 103,
        "velocity": 39,
        "subtype": "noteOn"
      },
      {
        "deltaTime": 46,
        "channel": 2,
        "type": "channel",
        "noteNumber": 67,
        "velocity": 31,
        "subtype": "noteOn"
      },
      {
        "deltaTime": 33,
        "channel": 2,
        "type": "channel",
        "subtype": "noteOff",
        "noteNumber": 103,
        "velocity": 0
      },
      {
        "deltaTime": 31,
        "channel": 2,
        "type": "channel",
        "subtype": "noteOff",
        "noteNumber": 67,
        "velocity": 0
      },
      {
        "deltaTime": 17,
        "channel": 2,
        "type": "channel",
        "noteNumber": 65,
        "velocity": 33,
        "subtype": "noteOn"
      },
      {
        "deltaTime": 106,
        "channel": 2,
        "type": "channel",
        "subtype": "noteOff",
        "noteNumber": 65,
        "velocity": 0
      },
      {
        "deltaTime": 225,
        "channel": 2,
        "type": "channel",
        "noteNumber": 80,
        "velocity": 30,
        "subtype": "noteOn"
      },
      {
        "deltaTime": 22,
        "channel": 2,
        "type": "channel",
        "noteNumber": 92,
        "velocity": 36,
        "subtype": "noteOn"
      },
      {
        "deltaTime": 7,
        "channel": 2,
        "type": "channel",
        "subtype": "noteOff",
        "noteNumber": 80,
        "velocity": 0
      },
      {
        "deltaTime": 10,
        "channel": 2,
        "type": "channel",
        "subtype": "noteOff",
        "noteNumber": 92,
        "velocity": 0
      },
      {
        "deltaTime": 53,
        "channel": 2,
        "type": "channel",
        "noteNumber": 36,
        "velocity": 24,
        "subtype": "noteOn"
      },
      {
        "deltaTime": 12,
        "channel": 2,
        "type": "channel",
        "subtype": "noteOff",
        "noteNumber": 36,
        "velocity": 0
      },
      {
        "deltaTime": 57,
        "channel": 2,
        "type": "channel",
        "noteNumber": 99,
        "velocity": 28,
        "subtype": "noteOn"
      },
      {
        "deltaTime": 29,
        "channel": 2,
        "type": "channel",
        "subtype": "noteOff",
        "noteNumber": 99,
        "velocity": 0
      },
      {
        "deltaTime": 41,
        "channel": 2,
        "type": "channel",
        "noteNumber": 103,
        "velocity": 43,
        "subtype": "noteOn"
      },
      {
        "deltaTime": 29,
        "channel": 2,
        "type": "channel",
        "noteNumber": 51,
        "velocity": 35,
        "subtype": "noteOn"
      },
      {
        "deltaTime": 31,
        "channel": 2,
        "type": "channel",
        "subtype": "noteOff",
        "noteNumber": 103,
        "velocity": 0
      },
      {
        "deltaTime": 7,
        "channel": 2,
        "type": "channel",
        "subtype": "noteOff",
        "noteNumber": 51,
        "velocity": 0
      },
      {
        "deltaTime": 26,
        "channel": 2,
        "type": "channel",
        "noteNumber": 77,
        "velocity": 34,
        "subtype": "noteOn"
      },
      {
        "deltaTime": 0,
        "channel": 2,
        "type": "channel",
        "noteNumber": 89,
        "velocity": 39,
        "subtype": "noteOn"
      },
      {
        "deltaTime": 29,
        "channel": 2,
        "type": "channel",
        "noteNumber": 105,
        "velocity": 41,
        "subtype": "noteOn"
      },
      {
        "deltaTime": 3,
        "channel": 2,
        "type": "channel",
        "subtype": "noteOff",
        "noteNumber": 77,
        "velocity": 0
      },
      {
        "deltaTime": 14,
        "channel": 2,
        "type": "channel",
        "noteNumber": 101,
        "velocity": 38,
        "subtype": "noteOn"
      },
      {
        "deltaTime": 2,
        "channel": 2,
        "type": "channel",
        "subtype": "noteOff",
        "noteNumber": 89,
        "velocity": 0
      },
      {
        "deltaTime": 27,
        "channel": 2,
        "type": "channel",
        "noteNumber": 89,
        "velocity": 53,
        "subtype": "noteOn"
      },
      {
        "deltaTime": 26,
        "channel": 2,
        "type": "channel",
        "subtype": "noteOff",
        "noteNumber": 101,
        "velocity": 0
      },
      {
        "deltaTime": 10,
        "channel": 2,
        "type": "channel",
        "subtype": "noteOff",
        "noteNumber": 105,
        "velocity": 0
      },
      {
        "deltaTime": 14,
        "channel": 2,
        "type": "channel",
        "subtype": "noteOff",
        "noteNumber": 89,
        "velocity": 0
      },
      {
        "deltaTime": 34,
        "channel": 2,
        "type": "channel",
        "noteNumber": 105,
        "velocity": 14,
        "subtype": "noteOn"
      },
      {
        "deltaTime": 26,
        "channel": 2,
        "type": "channel",
        "subtype": "noteOff",
        "noteNumber": 105,
        "velocity": 0
      },
      {
        "deltaTime": 65,
        "channel": 2,
        "type": "channel",
        "noteNumber": 63,
        "velocity": 31,
        "subtype": "noteOn"
      },
      {
        "deltaTime": 5,
        "channel": 2,
        "type": "channel",
        "noteNumber": 82,
        "velocity": 11,
        "subtype": "noteOn"
      },
      {
        "deltaTime": 17,
        "channel": 2,
        "type": "channel",
        "noteNumber": 89,
        "velocity": 25,
        "subtype": "noteOn"
      },
      {
        "deltaTime": 14,
        "channel": 2,
        "type": "channel",
        "subtype": "noteOff",
        "noteNumber": 82,
        "velocity": 0
      },
      {
        "deltaTime": 50,
        "channel": 2,
        "type": "channel",
        "subtype": "noteOff",
        "noteNumber": 89,
        "velocity": 0
      },
      {
        "deltaTime": 5,
        "channel": 2,
        "type": "channel",
        "noteNumber": 96,
        "velocity": 29,
        "subtype": "noteOn"
      },
      {
        "deltaTime": 34,
        "channel": 2,
        "type": "channel",
        "subtype": "noteOff",
        "noteNumber": 96,
        "velocity": 0
      },
      {
        "deltaTime": 24,
        "channel": 2,
        "type": "channel",
        "subtype": "noteOff",
        "noteNumber": 63,
        "velocity": 0
      },
      {
        "deltaTime": 21,
        "channel": 2,
        "type": "channel",
        "noteNumber": 65,
        "velocity": 53,
        "subtype": "noteOn"
      },
      {
        "deltaTime": 29,
        "channel": 2,
        "type": "channel",
        "noteNumber": 79,
        "velocity": 48,
        "subtype": "noteOn"
      },
      {
        "deltaTime": 5,
        "channel": 2,
        "type": "channel",
        "subtype": "noteOff",
        "noteNumber": 65,
        "velocity": 0
      },
      {
        "deltaTime": 10,
        "channel": 2,
        "type": "channel",
        "noteNumber": 42,
        "velocity": 12,
        "subtype": "noteOn"
      },
      {
        "deltaTime": 9,
        "channel": 2,
        "type": "channel",
        "subtype": "noteOff",
        "noteNumber": 42,
        "velocity": 0
      },
      {
        "deltaTime": 0,
        "channel": 2,
        "type": "channel",
        "subtype": "noteOff",
        "noteNumber": 79,
        "velocity": 0
      },
      {
        "deltaTime": 7,
        "channel": 2,
        "type": "channel",
        "noteNumber": 65,
        "velocity": 16,
        "subtype": "noteOn"
      },
      {
        "deltaTime": 12,
        "channel": 2,
        "type": "channel",
        "subtype": "noteOff",
        "noteNumber": 65,
        "velocity": 0
      },
      {
        "deltaTime": 65,
        "channel": 2,
        "type": "channel",
        "noteNumber": 103,
        "velocity": 10,
        "subtype": "noteOn"
      },
      {
        "deltaTime": 12,
        "channel": 2,
        "type": "channel",
        "subtype": "noteOff",
        "noteNumber": 103,
        "velocity": 0
      },
      {
        "deltaTime": 106,
        "channel": 2,
        "type": "channel",
        "noteNumber": 105,
        "velocity": 38,
        "subtype": "noteOn"
      },
      {
        "deltaTime": 12,
        "channel": 2,
        "type": "channel",
        "noteNumber": 77,
        "velocity": 37,
        "subtype": "noteOn"
      },
      {
        "deltaTime": 12,
        "channel": 2,
        "type": "channel",
        "subtype": "noteOff",
        "noteNumber": 77,
        "velocity": 0
      },
      {
        "deltaTime": 38,
        "channel": 2,
        "type": "channel",
        "noteNumber": 89,
        "velocity": 10,
        "subtype": "noteOn"
      },
      {
        "deltaTime": 19,
        "channel": 2,
        "type": "channel",
        "subtype": "noteOff",
        "noteNumber": 89,
        "velocity": 0
      },
      {
        "deltaTime": 3,
        "channel": 2,
        "type": "channel",
        "subtype": "noteOff",
        "noteNumber": 105,
        "velocity": 0
      },
      {
        "deltaTime": 141,
        "channel": 2,
        "type": "channel",
        "noteNumber": 70,
        "velocity": 49,
        "subtype": "noteOn"
      },
      {
        "deltaTime": 113,
        "channel": 2,
        "type": "channel",
        "subtype": "noteOff",
        "noteNumber": 70,
        "velocity": 0
      },
      {
        "deltaTime": 24,
        "channel": 2,
        "type": "channel",
        "noteNumber": 41,
        "velocity": 45,
        "subtype": "noteOn"
      },
      {
        "deltaTime": 15,
        "channel": 2,
        "type": "channel",
        "subtype": "noteOff",
        "noteNumber": 41,
        "velocity": 0
      },
      {
        "deltaTime": 14,
        "channel": 2,
        "type": "channel",
        "noteNumber": 48,
        "velocity": 20,
        "subtype": "noteOn"
      },
      {
        "deltaTime": 14,
        "channel": 2,
        "type": "channel",
        "subtype": "noteOff",
        "noteNumber": 48,
        "velocity": 0
      },
      {
        "deltaTime": 5,
        "channel": 2,
        "type": "channel",
        "noteNumber": 36,
        "velocity": 22,
        "subtype": "noteOn"
      },
      {
        "deltaTime": 5,
        "channel": 2,
        "type": "channel",
        "noteNumber": 38,
        "velocity": 11,
        "subtype": "noteOn"
      },
      {
        "deltaTime": 24,
        "channel": 2,
        "type": "channel",
        "subtype": "noteOff",
        "noteNumber": 36,
        "velocity": 0
      },
      {
        "deltaTime": 5,
        "channel": 2,
        "type": "channel",
        "subtype": "noteOff",
        "noteNumber": 38,
        "velocity": 0
      },
      {
        "deltaTime": 12,
        "channel": 2,
        "type": "channel",
        "noteNumber": 96,
        "velocity": 10,
        "subtype": "noteOn"
      },
      {
        "deltaTime": 7,
        "channel": 2,
        "type": "channel",
        "noteNumber": 68,
        "velocity": 17,
        "subtype": "noteOn"
      },
      {
        "deltaTime": 7,
        "channel": 2,
        "type": "channel",
        "subtype": "noteOff",
        "noteNumber": 96,
        "velocity": 0
      },
      {
        "deltaTime": 12,
        "channel": 2,
        "type": "channel",
        "subtype": "noteOff",
        "noteNumber": 68,
        "velocity": 0
      },
      {
        "deltaTime": 29,
        "channel": 2,
        "type": "channel",
        "noteNumber": 103,
        "velocity": 19,
        "subtype": "noteOn"
      },
      {
        "deltaTime": 10,
        "channel": 2,
        "type": "channel",
        "subtype": "noteOff",
        "noteNumber": 103,
        "velocity": 0
      },
      {
        "deltaTime": 93,
        "channel": 2,
        "type": "channel",
        "noteNumber": 105,
        "velocity": 41,
        "subtype": "noteOn"
      },
      {
        "deltaTime": 79,
        "channel": 2,
        "type": "channel",
        "subtype": "noteOff",
        "noteNumber": 105,
        "velocity": 0
      },
      {
        "deltaTime": 10,
        "channel": 2,
        "type": "channel",
        "noteNumber": 105,
        "velocity": 44,
        "subtype": "noteOn"
      },
      {
        "deltaTime": 34,
        "channel": 2,
        "type": "channel",
        "subtype": "noteOff",
        "noteNumber": 105,
        "velocity": 0
      },
      {
        "deltaTime": 19,
        "channel": 2,
        "type": "channel",
        "noteNumber": 89,
        "velocity": 25,
        "subtype": "noteOn"
      },
      {
        "deltaTime": 9,
        "channel": 2,
        "type": "channel",
        "noteNumber": 77,
        "velocity": 23,
        "subtype": "noteOn"
      },
      {
        "deltaTime": 12,
        "channel": 2,
        "type": "channel",
        "subtype": "noteOff",
        "noteNumber": 89,
        "velocity": 0
      },
      {
        "deltaTime": 17,
        "channel": 2,
        "type": "channel",
        "subtype": "noteOff",
        "noteNumber": 77,
        "velocity": 0
      },
      {
        "deltaTime": 118,
        "channel": 2,
        "type": "channel",
        "noteNumber": 91,
        "velocity": 30,
        "subtype": "noteOn"
      },
      {
        "deltaTime": 0,
        "channel": 2,
        "type": "channel",
        "noteNumber": 79,
        "velocity": 49,
        "subtype": "noteOn"
      },
      {
        "deltaTime": 50,
        "channel": 2,
        "type": "channel",
        "subtype": "noteOff",
        "noteNumber": 91,
        "velocity": 0
      },
      {
        "deltaTime": 24,
        "channel": 2,
        "type": "channel",
        "noteNumber": 67,
        "velocity": 50,
        "subtype": "noteOn"
      },
      {
        "deltaTime": 15,
        "channel": 2,
        "type": "channel",
        "subtype": "noteOff",
        "noteNumber": 79,
        "velocity": 0
      },
      {
        "deltaTime": 55,
        "channel": 2,
        "type": "channel",
        "subtype": "noteOff",
        "noteNumber": 67,
        "velocity": 0
      },
      {
        "deltaTime": 0,
        "channel": 2,
        "type": "channel",
        "noteNumber": 36,
        "velocity": 32,
        "subtype": "noteOn"
      },
      {
        "deltaTime": 19,
        "channel": 2,
        "type": "channel",
        "noteNumber": 65,
        "velocity": 22,
        "subtype": "noteOn"
      },
      {
        "deltaTime": 5,
        "channel": 2,
        "type": "channel",
        "subtype": "noteOff",
        "noteNumber": 36,
        "velocity": 0
      },
      {
        "deltaTime": 19,
        "channel": 2,
        "type": "channel",
        "subtype": "noteOff",
        "noteNumber": 65,
        "velocity": 0
      },
      {
        "deltaTime": 24,
        "channel": 2,
        "type": "channel",
        "noteNumber": 79,
        "velocity": 38,
        "subtype": "noteOn"
      },
      {
        "deltaTime": 34,
        "channel": 2,
        "type": "channel",
        "subtype": "noteOff",
        "noteNumber": 79,
        "velocity": 0
      },
      {
        "deltaTime": 103,
        "channel": 2,
        "type": "channel",
        "noteNumber": 80,
        "velocity": 34,
        "subtype": "noteOn"
      },
      {
        "deltaTime": 5,
        "channel": 2,
        "type": "channel",
        "noteNumber": 92,
        "velocity": 28,
        "subtype": "noteOn"
      },
      {
        "deltaTime": 9,
        "channel": 2,
        "type": "channel",
        "subtype": "noteOff",
        "noteNumber": 92,
        "velocity": 0
      },
      {
        "deltaTime": 27,
        "channel": 2,
        "type": "channel",
        "subtype": "noteOff",
        "noteNumber": 80,
        "velocity": 0
      },
      {
        "deltaTime": 184,
        "channel": 2,
        "type": "channel",
        "noteNumber": 99,
        "velocity": 10,
        "subtype": "noteOn"
      },
      {
        "deltaTime": 24,
        "channel": 2,
        "type": "channel",
        "subtype": "noteOff",
        "noteNumber": 99,
        "velocity": 0
      },
      {
        "deltaTime": 68,
        "channel": 2,
        "type": "channel",
        "noteNumber": 89,
        "velocity": 44,
        "subtype": "noteOn"
      },
      {
        "deltaTime": 110,
        "channel": 2,
        "type": "channel",
        "subtype": "noteOff",
        "noteNumber": 89,
        "velocity": 0
      },
      {
        "deltaTime": 31,
        "channel": 2,
        "type": "channel",
        "noteNumber": 67,
        "velocity": 13,
        "subtype": "noteOn"
      },
      {
        "deltaTime": 17,
        "channel": 2,
        "type": "channel",
        "subtype": "noteOff",
        "noteNumber": 67,
        "velocity": 0
      },
      {
        "deltaTime": 7,
        "channel": 2,
        "type": "channel",
        "noteNumber": 68,
        "velocity": 40,
        "subtype": "noteOn"
      },
      {
        "deltaTime": 39,
        "channel": 2,
        "type": "channel",
        "subtype": "noteOff",
        "noteNumber": 68,
        "velocity": 0
      },
      {
        "deltaTime": 40,
        "channel": 2,
        "type": "channel",
        "noteNumber": 51,
        "velocity": 31,
        "subtype": "noteOn"
      },
      {
        "deltaTime": 39,
        "channel": 2,
        "type": "channel",
        "subtype": "noteOff",
        "noteNumber": 51,
        "velocity": 0
      },
      {
        "deltaTime": 17,
        "channel": 2,
        "type": "channel",
        "noteNumber": 49,
        "velocity": 28,
        "subtype": "noteOn"
      },
      {
        "deltaTime": 96,
        "channel": 2,
        "type": "channel",
        "subtype": "noteOff",
        "noteNumber": 49,
        "velocity": 0
      },
      {
        "deltaTime": 14,
        "channel": 2,
        "type": "channel",
        "noteNumber": 63,
        "velocity": 46,
        "subtype": "noteOn"
      },
      {
        "deltaTime": 29,
        "channel": 2,
        "type": "channel",
        "subtype": "noteOff",
        "noteNumber": 63,
        "velocity": 0
      },
      {
        "deltaTime": 14,
        "channel": 2,
        "type": "channel",
        "noteNumber": 63,
        "velocity": 33,
        "subtype": "noteOn"
      },
      {
        "deltaTime": 101,
        "channel": 2,
        "type": "channel",
        "subtype": "noteOff",
        "noteNumber": 63,
        "velocity": 0
      },
      {
        "deltaTime": 82,
        "channel": 2,
        "type": "channel",
        "noteNumber": 79,
        "velocity": 50,
        "subtype": "noteOn"
      },
      {
        "deltaTime": 14,
        "channel": 2,
        "type": "channel",
        "noteNumber": 103,
        "velocity": 18,
        "subtype": "noteOn"
      },
      {
        "deltaTime": 29,
        "channel": 2,
        "type": "channel",
        "subtype": "noteOff",
        "noteNumber": 103,
        "velocity": 0
      },
      {
        "deltaTime": 36,
        "channel": 2,
        "type": "channel",
        "subtype": "noteOff",
        "noteNumber": 79,
        "velocity": 0
      },
      {
        "deltaTime": 12,
        "channel": 2,
        "type": "channel",
        "noteNumber": 65,
        "velocity": 42,
        "subtype": "noteOn"
      },
      {
        "deltaTime": 33,
        "channel": 2,
        "type": "channel",
        "subtype": "noteOff",
        "noteNumber": 65,
        "velocity": 0
      },
      {
        "deltaTime": 17,
        "channel": 2,
        "type": "channel",
        "noteNumber": 94,
        "velocity": 19,
        "subtype": "noteOn"
      },
      {
        "deltaTime": 15,
        "channel": 2,
        "type": "channel",
        "noteNumber": 103,
        "velocity": 28,
        "subtype": "noteOn"
      },
      {
        "deltaTime": 26,
        "channel": 2,
        "type": "channel",
        "subtype": "noteOff",
        "noteNumber": 94,
        "velocity": 0
      },
      {
        "deltaTime": 58,
        "channel": 2,
        "type": "channel",
        "subtype": "noteOff",
        "noteNumber": 103,
        "velocity": 0
      },
      {
        "deltaTime": 0,
        "channel": 2,
        "type": "channel",
        "noteNumber": 79,
        "velocity": 27,
        "subtype": "noteOn"
      },
      {
        "deltaTime": 40,
        "channel": 2,
        "type": "channel",
        "subtype": "noteOff",
        "noteNumber": 79,
        "velocity": 0
      },
      {
        "deltaTime": 68,
        "channel": 2,
        "type": "channel",
        "noteNumber": 105,
        "velocity": 35,
        "subtype": "noteOn"
      },
      {
        "deltaTime": 21,
        "channel": 2,
        "type": "channel",
        "subtype": "noteOff",
        "noteNumber": 105,
        "velocity": 0
      },
      {
        "deltaTime": 5,
        "channel": 2,
        "type": "channel",
        "noteNumber": 105,
        "velocity": 39,
        "subtype": "noteOn"
      },
      {
        "deltaTime": 46,
        "channel": 2,
        "type": "channel",
        "subtype": "noteOff",
        "noteNumber": 105,
        "velocity": 0
      },
      {
        "deltaTime": 9,
        "channel": 2,
        "type": "channel",
        "noteNumber": 105,
        "velocity": 49,
        "subtype": "noteOn"
      },
      {
        "deltaTime": 12,
        "channel": 2,
        "type": "channel",
        "noteNumber": 36,
        "velocity": 20,
        "subtype": "noteOn"
      },
      {
        "deltaTime": 5,
        "channel": 2,
        "type": "channel",
        "subtype": "noteOff",
        "noteNumber": 105,
        "velocity": 0
      },
      {
        "deltaTime": 12,
        "channel": 2,
        "type": "channel",
        "subtype": "noteOff",
        "noteNumber": 36,
        "velocity": 0
      },
      {
        "deltaTime": 50,
        "channel": 2,
        "type": "channel",
        "noteNumber": 67,
        "velocity": 34,
        "subtype": "noteOn"
      },
      {
        "deltaTime": 12,
        "channel": 2,
        "type": "channel",
        "subtype": "noteOff",
        "noteNumber": 67,
        "velocity": 0
      },
      {
        "deltaTime": 92,
        "channel": 2,
        "type": "channel",
        "noteNumber": 65,
        "velocity": 56,
        "subtype": "noteOn"
      },
      {
        "deltaTime": 38,
        "channel": 2,
        "type": "channel",
        "noteNumber": 101,
        "velocity": 51,
        "subtype": "noteOn"
      },
      {
        "deltaTime": 29,
        "channel": 2,
        "type": "channel",
        "subtype": "noteOff",
        "noteNumber": 101,
        "velocity": 0
      },
      {
        "deltaTime": 14,
        "channel": 2,
        "type": "channel",
        "noteNumber": 68,
        "velocity": 42,
        "subtype": "noteOn"
      },
      {
        "deltaTime": 27,
        "channel": 2,
        "type": "channel",
        "subtype": "noteOff",
        "noteNumber": 65,
        "velocity": 0
      },
      {
        "deltaTime": 14,
        "channel": 2,
        "type": "channel",
        "subtype": "noteOff",
        "noteNumber": 68,
        "velocity": 0
      },
      {
        "deltaTime": 41,
        "channel": 2,
        "type": "channel",
        "noteNumber": 41,
        "velocity": 24,
        "subtype": "noteOn"
      },
      {
        "deltaTime": 36,
        "channel": 2,
        "type": "channel",
        "subtype": "noteOff",
        "noteNumber": 41,
        "velocity": 0
      },
      {
        "deltaTime": 0,
        "channel": 2,
        "type": "channel",
        "noteNumber": 68,
        "velocity": 39,
        "subtype": "noteOn"
      },
      {
        "deltaTime": 55,
        "channel": 2,
        "type": "channel",
        "subtype": "noteOff",
        "noteNumber": 68,
        "velocity": 0
      },
      {
        "deltaTime": 0,
        "type": "meta",
        "subtype": "endOfTrack"
      }
    ],
    [
      {
        "deltaTime": 11889,
        "channel": 3,
        "type": "channel",
        "subtype": "programChange",
        "programNumber": 0
      },
      {
        "deltaTime": 0,
        "channel": 3,
        "type": "channel",
        "noteNumber": 69,
        "velocity": 14,
        "subtype": "noteOn"
      },
      {
        "deltaTime": 65,
        "channel": 3,
        "type": "channel",
        "noteNumber": 32,
        "velocity": 12,
        "subtype": "noteOn"
      },
      {
        "deltaTime": 9,
        "channel": 3,
        "type": "channel",
        "subtype": "noteOff",
        "noteNumber": 32,
        "velocity": 0
      },
      {
        "deltaTime": 15,
        "channel": 3,
        "type": "channel",
        "subtype": "noteOff",
        "noteNumber": 69,
        "velocity": 0
      },
      {
        "deltaTime": 14,
        "channel": 3,
        "type": "channel",
        "noteNumber": 61,
        "velocity": 26,
        "subtype": "noteOn"
      },
      {
        "deltaTime": 31,
        "channel": 3,
        "type": "channel",
        "subtype": "noteOff",
        "noteNumber": 61,
        "velocity": 0
      },
      {
        "deltaTime": 1148,
        "channel": 3,
        "type": "channel",
        "noteNumber": 69,
        "velocity": 15,
        "subtype": "noteOn"
      },
      {
        "deltaTime": 88,
        "channel": 3,
        "type": "channel",
        "subtype": "noteOff",
        "noteNumber": 69,
        "velocity": 0
      },
      {
        "deltaTime": 6310,
        "channel": 3,
        "type": "channel",
        "noteNumber": 69,
        "velocity": 14,
        "subtype": "noteOn"
      },
      {
        "deltaTime": 89,
        "channel": 3,
        "type": "channel",
        "subtype": "noteOff",
        "noteNumber": 69,
        "velocity": 0
      },
      {
        "deltaTime": 701,
        "channel": 3,
        "type": "channel",
        "noteNumber": 52,
        "velocity": 11,
        "subtype": "noteOn"
      },
      {
        "deltaTime": 24,
        "channel": 3,
        "type": "channel",
        "subtype": "noteOff",
        "noteNumber": 52,
        "velocity": 0
      },
      {
        "deltaTime": 621,
        "channel": 3,
        "type": "channel",
        "noteNumber": 61,
        "velocity": 13,
        "subtype": "noteOn"
      },
      {
        "deltaTime": 15,
        "channel": 3,
        "type": "channel",
        "subtype": "noteOff",
        "noteNumber": 61,
        "velocity": 0
      },
      {
        "deltaTime": 2364,
        "channel": 3,
        "type": "channel",
        "noteNumber": 38,
        "velocity": 13,
        "subtype": "noteOn"
      },
      {
        "deltaTime": 28,
        "channel": 3,
        "type": "channel",
        "subtype": "noteOff",
        "noteNumber": 38,
        "velocity": 0
      },
      {
        "deltaTime": 111,
        "channel": 3,
        "type": "channel",
        "noteNumber": 64,
        "velocity": 21,
        "subtype": "noteOn"
      },
      {
        "deltaTime": 17,
        "channel": 3,
        "type": "channel",
        "subtype": "noteOff",
        "noteNumber": 64,
        "velocity": 0
      },
      {
        "deltaTime": 403,
        "channel": 3,
        "type": "channel",
        "noteNumber": 66,
        "velocity": 23,
        "subtype": "noteOn"
      },
      {
        "deltaTime": 101,
        "channel": 3,
        "type": "channel",
        "subtype": "noteOff",
        "noteNumber": 66,
        "velocity": 0
      },
      {
        "deltaTime": 74,
        "channel": 3,
        "type": "channel",
        "noteNumber": 35,
        "velocity": 27,
        "subtype": "noteOn"
      },
      {
        "deltaTime": 70,
        "channel": 3,
        "type": "channel",
        "subtype": "noteOff",
        "noteNumber": 35,
        "velocity": 0
      },
      {
        "deltaTime": 1188,
        "channel": 3,
        "type": "channel",
        "noteNumber": 36,
        "velocity": 18,
        "subtype": "noteOn"
      },
      {
        "deltaTime": 19,
        "channel": 3,
        "type": "channel",
        "noteNumber": 54,
        "velocity": 20,
        "subtype": "noteOn"
      },
      {
        "deltaTime": 2,
        "channel": 3,
        "type": "channel",
        "subtype": "noteOff",
        "noteNumber": 36,
        "velocity": 0
      },
      {
        "deltaTime": 22,
        "channel": 3,
        "type": "channel",
        "subtype": "noteOff",
        "noteNumber": 54,
        "velocity": 0
      },
      {
        "deltaTime": 1958,
        "channel": 3,
        "type": "channel",
        "noteNumber": 36,
        "velocity": 22,
        "subtype": "noteOn"
      },
      {
        "deltaTime": 24,
        "channel": 3,
        "type": "channel",
        "subtype": "noteOff",
        "noteNumber": 36,
        "velocity": 0
      },
      {
        "deltaTime": 624,
        "channel": 3,
        "type": "channel",
        "noteNumber": 38,
        "velocity": 13,
        "subtype": "noteOn"
      },
      {
        "deltaTime": 19,
        "channel": 3,
        "type": "channel",
        "noteNumber": 52,
        "velocity": 13,
        "subtype": "noteOn"
      },
      {
        "deltaTime": 8,
        "channel": 3,
        "type": "channel",
        "subtype": "noteOff",
        "noteNumber": 38,
        "velocity": 0
      },
      {
        "deltaTime": 14,
        "channel": 3,
        "type": "channel",
        "subtype": "noteOff",
        "noteNumber": 52,
        "velocity": 0
      },
      {
        "deltaTime": 427,
        "channel": 3,
        "type": "channel",
        "noteNumber": 74,
        "velocity": 18,
        "subtype": "noteOn"
      },
      {
        "deltaTime": 103,
        "channel": 3,
        "type": "channel",
        "subtype": "noteOff",
        "noteNumber": 74,
        "velocity": 0
      },
      {
        "deltaTime": 622,
        "channel": 3,
        "type": "channel",
        "noteNumber": 36,
        "velocity": 18,
        "subtype": "noteOn"
      },
      {
        "deltaTime": 43,
        "channel": 3,
        "type": "channel",
        "subtype": "noteOff",
        "noteNumber": 36,
        "velocity": 0
      },
      {
        "deltaTime": 238,
        "channel": 3,
        "type": "channel",
        "noteNumber": 106,
        "velocity": 11,
        "subtype": "noteOn"
      },
      {
        "deltaTime": 24,
        "channel": 3,
        "type": "channel",
        "subtype": "noteOff",
        "noteNumber": 106,
        "velocity": 0
      },
      {
        "deltaTime": 247,
        "channel": 3,
        "type": "channel",
        "noteNumber": 74,
        "velocity": 13,
        "subtype": "noteOn"
      },
      {
        "deltaTime": 65,
        "channel": 3,
        "type": "channel",
        "subtype": "noteOff",
        "noteNumber": 74,
        "velocity": 0
      },
      {
        "deltaTime": 765,
        "channel": 3,
        "type": "channel",
        "noteNumber": 78,
        "velocity": 15,
        "subtype": "noteOn"
      },
      {
        "deltaTime": 12,
        "channel": 3,
        "type": "channel",
        "subtype": "noteOff",
        "noteNumber": 78,
        "velocity": 0
      },
      {
        "deltaTime": 257,
        "channel": 3,
        "type": "channel",
        "noteNumber": 106,
        "velocity": 15,
        "subtype": "noteOn"
      },
      {
        "deltaTime": 34,
        "channel": 3,
        "type": "channel",
        "subtype": "noteOff",
        "noteNumber": 106,
        "velocity": 0
      },
      {
        "deltaTime": 153,
        "channel": 3,
        "type": "channel",
        "noteNumber": 36,
        "velocity": 14,
        "subtype": "noteOn"
      },
      {
        "deltaTime": 24,
        "channel": 3,
        "type": "channel",
        "subtype": "noteOff",
        "noteNumber": 36,
        "velocity": 0
      },
      {
        "deltaTime": 17,
        "channel": 3,
        "type": "channel",
        "noteNumber": 69,
        "velocity": 10,
        "subtype": "noteOn"
      },
      {
        "deltaTime": 79,
        "channel": 3,
        "type": "channel",
        "subtype": "noteOff",
        "noteNumber": 69,
        "velocity": 0
      },
      {
        "deltaTime": 620,
        "channel": 3,
        "type": "channel",
        "noteNumber": 61,
        "velocity": 16,
        "subtype": "noteOn"
      },
      {
        "deltaTime": 14,
        "channel": 3,
        "type": "channel",
        "noteNumber": 71,
        "velocity": 11,
        "subtype": "noteOn"
      },
      {
        "deltaTime": 19,
        "channel": 3,
        "type": "channel",
        "subtype": "noteOff",
        "noteNumber": 61,
        "velocity": 0
      },
      {
        "deltaTime": 10,
        "channel": 3,
        "type": "channel",
        "subtype": "noteOff",
        "noteNumber": 71,
        "velocity": 0
      },
      {
        "deltaTime": 192,
        "channel": 3,
        "type": "channel",
        "noteNumber": 74,
        "velocity": 11,
        "subtype": "noteOn"
      },
      {
        "deltaTime": 60,
        "channel": 3,
        "type": "channel",
        "subtype": "noteOff",
        "noteNumber": 74,
        "velocity": 0
      },
      {
        "deltaTime": 55,
        "channel": 3,
        "type": "channel",
        "noteNumber": 41,
        "velocity": 22,
        "subtype": "noteOn"
      },
      {
        "deltaTime": 12,
        "channel": 3,
        "type": "channel",
        "subtype": "noteOff",
        "noteNumber": 41,
        "velocity": 0
      },
      {
        "deltaTime": 29,
        "channel": 3,
        "type": "channel",
        "noteNumber": 32,
        "velocity": 24,
        "subtype": "noteOn"
      },
      {
        "deltaTime": 21,
        "channel": 3,
        "type": "channel",
        "subtype": "noteOff",
        "noteNumber": 32,
        "velocity": 0
      },
      {
        "deltaTime": 128,
        "channel": 3,
        "type": "channel",
        "noteNumber": 39,
        "velocity": 16,
        "subtype": "noteOn"
      },
      {
        "deltaTime": 12,
        "channel": 3,
        "type": "channel",
        "subtype": "noteOff",
        "noteNumber": 39,
        "velocity": 0
      },
      {
        "deltaTime": 14,
        "channel": 3,
        "type": "channel",
        "noteNumber": 81,
        "velocity": 23,
        "subtype": "noteOn"
      },
      {
        "deltaTime": 48,
        "channel": 3,
        "type": "channel",
        "subtype": "noteOff",
        "noteNumber": 81,
        "velocity": 0
      },
      {
        "deltaTime": 24,
        "channel": 3,
        "type": "channel",
        "noteNumber": 61,
        "velocity": 29,
        "subtype": "noteOn"
      },
      {
        "deltaTime": 24,
        "channel": 3,
        "type": "channel",
        "subtype": "noteOff",
        "noteNumber": 61,
        "velocity": 0
      },
      {
        "deltaTime": 22,
        "channel": 3,
        "type": "channel",
        "noteNumber": 59,
        "velocity": 30,
        "subtype": "noteOn"
      },
      {
        "deltaTime": 24,
        "channel": 3,
        "type": "channel",
        "subtype": "noteOff",
        "noteNumber": 59,
        "velocity": 0
      },
      {
        "deltaTime": 508,
        "channel": 3,
        "type": "channel",
        "noteNumber": 40,
        "velocity": 19,
        "subtype": "noteOn"
      },
      {
        "deltaTime": 15,
        "channel": 3,
        "type": "channel",
        "subtype": "noteOff",
        "noteNumber": 40,
        "velocity": 0
      },
      {
        "deltaTime": 120,
        "channel": 3,
        "type": "channel",
        "noteNumber": 33,
        "velocity": 16,
        "subtype": "noteOn"
      },
      {
        "deltaTime": 50,
        "channel": 3,
        "type": "channel",
        "subtype": "noteOff",
        "noteNumber": 33,
        "velocity": 0
      },
      {
        "deltaTime": 0,
        "channel": 3,
        "type": "channel",
        "noteNumber": 52,
        "velocity": 14,
        "subtype": "noteOn"
      },
      {
        "deltaTime": 77,
        "channel": 3,
        "type": "channel",
        "subtype": "noteOff",
        "noteNumber": 52,
        "velocity": 0
      },
      {
        "deltaTime": 322,
        "channel": 3,
        "type": "channel",
        "noteNumber": 62,
        "velocity": 23,
        "subtype": "noteOn"
      },
      {
        "deltaTime": 62,
        "channel": 3,
        "type": "channel",
        "subtype": "noteOff",
        "noteNumber": 62,
        "velocity": 0
      },
      {
        "deltaTime": 77,
        "channel": 3,
        "type": "channel",
        "noteNumber": 78,
        "velocity": 14,
        "subtype": "noteOn"
      },
      {
        "deltaTime": 43,
        "channel": 3,
        "type": "channel",
        "subtype": "noteOff",
        "noteNumber": 78,
        "velocity": 0
      },
      {
        "deltaTime": 58,
        "channel": 3,
        "type": "channel",
        "noteNumber": 64,
        "velocity": 14,
        "subtype": "noteOn"
      },
      {
        "deltaTime": 103,
        "channel": 3,
        "type": "channel",
        "subtype": "noteOff",
        "noteNumber": 64,
        "velocity": 0
      },
      {
        "deltaTime": 62,
        "channel": 3,
        "type": "channel",
        "noteNumber": 32,
        "velocity": 13,
        "subtype": "noteOn"
      },
      {
        "deltaTime": 10,
        "channel": 3,
        "type": "channel",
        "subtype": "noteOff",
        "noteNumber": 32,
        "velocity": 0
      },
      {
        "deltaTime": 31,
        "channel": 3,
        "type": "channel",
        "noteNumber": 90,
        "velocity": 15,
        "subtype": "noteOn"
      },
      {
        "deltaTime": 17,
        "channel": 3,
        "type": "channel",
        "subtype": "noteOff",
        "noteNumber": 90,
        "velocity": 0
      },
      {
        "deltaTime": 216,
        "channel": 3,
        "type": "channel",
        "noteNumber": 35,
        "velocity": 24,
        "subtype": "noteOn"
      },
      {
        "deltaTime": 36,
        "channel": 3,
        "type": "channel",
        "subtype": "noteOff",
        "noteNumber": 35,
        "velocity": 0
      },
      {
        "deltaTime": 26,
        "channel": 3,
        "type": "channel",
        "noteNumber": 36,
        "velocity": 17,
        "subtype": "noteOn"
      },
      {
        "deltaTime": 36,
        "channel": 3,
        "type": "channel",
        "subtype": "noteOff",
        "noteNumber": 36,
        "velocity": 0
      },
      {
        "deltaTime": 247,
        "channel": 3,
        "type": "channel",
        "noteNumber": 90,
        "velocity": 21,
        "subtype": "noteOn"
      },
      {
        "deltaTime": 118,
        "channel": 3,
        "type": "channel",
        "subtype": "noteOff",
        "noteNumber": 90,
        "velocity": 0
      },
      {
        "deltaTime": 149,
        "channel": 3,
        "type": "channel",
        "noteNumber": 81,
        "velocity": 21,
        "subtype": "noteOn"
      },
      {
        "deltaTime": 79,
        "channel": 3,
        "type": "channel",
        "subtype": "noteOff",
        "noteNumber": 81,
        "velocity": 0
      },
      {
        "deltaTime": 70,
        "channel": 3,
        "type": "channel",
        "noteNumber": 59,
        "velocity": 30,
        "subtype": "noteOn"
      },
      {
        "deltaTime": 26,
        "channel": 3,
        "type": "channel",
        "subtype": "noteOff",
        "noteNumber": 59,
        "velocity": 0
      },
      {
        "deltaTime": 492,
        "channel": 3,
        "type": "channel",
        "noteNumber": 81,
        "velocity": 24,
        "subtype": "noteOn"
      },
      {
        "deltaTime": 22,
        "channel": 3,
        "type": "channel",
        "noteNumber": 35,
        "velocity": 24,
        "subtype": "noteOn"
      },
      {
        "deltaTime": 19,
        "channel": 3,
        "type": "channel",
        "subtype": "noteOff",
        "noteNumber": 35,
        "velocity": 0
      },
      {
        "deltaTime": 33,
        "channel": 3,
        "type": "channel",
        "subtype": "noteOff",
        "noteNumber": 81,
        "velocity": 0
      },
      {
        "deltaTime": 360,
        "channel": 3,
        "type": "channel",
        "noteNumber": 81,
        "velocity": 14,
        "subtype": "noteOn"
      },
      {
        "deltaTime": 32,
        "channel": 3,
        "type": "channel",
        "subtype": "noteOff",
        "noteNumber": 81,
        "velocity": 0
      },
      {
        "deltaTime": 134,
        "channel": 3,
        "type": "channel",
        "noteNumber": 62,
        "velocity": 29,
        "subtype": "noteOn"
      },
      {
        "deltaTime": 62,
        "channel": 3,
        "type": "channel",
        "subtype": "noteOff",
        "noteNumber": 62,
        "velocity": 0
      },
      {
        "deltaTime": 41,
        "channel": 3,
        "type": "channel",
        "noteNumber": 36,
        "velocity": 19,
        "subtype": "noteOn"
      },
      {
        "deltaTime": 31,
        "channel": 3,
        "type": "channel",
        "subtype": "noteOff",
        "noteNumber": 36,
        "velocity": 0
      },
      {
        "deltaTime": 29,
        "channel": 3,
        "type": "channel",
        "noteNumber": 59,
        "velocity": 33,
        "subtype": "noteOn"
      },
      {
        "deltaTime": 24,
        "channel": 3,
        "type": "channel",
        "subtype": "noteOff",
        "noteNumber": 59,
        "velocity": 0
      },
      {
        "deltaTime": 82,
        "channel": 3,
        "type": "channel",
        "noteNumber": 45,
        "velocity": 21,
        "subtype": "noteOn"
      },
      {
        "deltaTime": 12,
        "channel": 3,
        "type": "channel",
        "subtype": "noteOff",
        "noteNumber": 45,
        "velocity": 0
      },
      {
        "deltaTime": 5,
        "channel": 3,
        "type": "channel",
        "noteNumber": 106,
        "velocity": 18,
        "subtype": "noteOn"
      },
      {
        "deltaTime": 98,
        "channel": 3,
        "type": "channel",
        "subtype": "noteOff",
        "noteNumber": 106,
        "velocity": 0
      },
      {
        "deltaTime": 727,
        "channel": 3,
        "type": "channel",
        "noteNumber": 85,
        "velocity": 16,
        "subtype": "noteOn"
      },
      {
        "deltaTime": 36,
        "channel": 3,
        "type": "channel",
        "subtype": "noteOff",
        "noteNumber": 85,
        "velocity": 0
      },
      {
        "deltaTime": 91,
        "channel": 3,
        "type": "channel",
        "noteNumber": 71,
        "velocity": 13,
        "subtype": "noteOn"
      },
      {
        "deltaTime": 15,
        "channel": 3,
        "type": "channel",
        "subtype": "noteOff",
        "noteNumber": 71,
        "velocity": 0
      },
      {
        "deltaTime": 62,
        "channel": 3,
        "type": "channel",
        "noteNumber": 33,
        "velocity": 25,
        "subtype": "noteOn"
      },
      {
        "deltaTime": 46,
        "channel": 3,
        "type": "channel",
        "subtype": "noteOff",
        "noteNumber": 33,
        "velocity": 0
      },
      {
        "deltaTime": 21,
        "channel": 3,
        "type": "channel",
        "noteNumber": 36,
        "velocity": 27,
        "subtype": "noteOn"
      },
      {
        "deltaTime": 29,
        "channel": 3,
        "type": "channel",
        "subtype": "noteOff",
        "noteNumber": 36,
        "velocity": 0
      },
      {
        "deltaTime": 531,
        "channel": 3,
        "type": "channel",
        "noteNumber": 36,
        "velocity": 20,
        "subtype": "noteOn"
      },
      {
        "deltaTime": 28,
        "channel": 3,
        "type": "channel",
        "subtype": "noteOff",
        "noteNumber": 36,
        "velocity": 0
      },
      {
        "deltaTime": 8,
        "channel": 3,
        "type": "channel",
        "noteNumber": 35,
        "velocity": 21,
        "subtype": "noteOn"
      },
      {
        "deltaTime": 21,
        "channel": 3,
        "type": "channel",
        "subtype": "noteOff",
        "noteNumber": 35,
        "velocity": 0
      },
      {
        "deltaTime": 226,
        "channel": 3,
        "type": "channel",
        "noteNumber": 33,
        "velocity": 14,
        "subtype": "noteOn"
      },
      {
        "deltaTime": 48,
        "channel": 3,
        "type": "channel",
        "subtype": "noteOff",
        "noteNumber": 33,
        "velocity": 0
      },
      {
        "deltaTime": 177,
        "channel": 3,
        "type": "channel",
        "noteNumber": 74,
        "velocity": 16,
        "subtype": "noteOn"
      },
      {
        "deltaTime": 113,
        "channel": 3,
        "type": "channel",
        "subtype": "noteOff",
        "noteNumber": 74,
        "velocity": 0
      },
      {
        "deltaTime": 41,
        "channel": 3,
        "type": "channel",
        "noteNumber": 32,
        "velocity": 20,
        "subtype": "noteOn"
      },
      {
        "deltaTime": 17,
        "channel": 3,
        "type": "channel",
        "subtype": "noteOff",
        "noteNumber": 32,
        "velocity": 0
      },
      {
        "deltaTime": 43,
        "channel": 3,
        "type": "channel",
        "noteNumber": 36,
        "velocity": 21,
        "subtype": "noteOn"
      },
      {
        "deltaTime": 31,
        "channel": 3,
        "type": "channel",
        "subtype": "noteOff",
        "noteNumber": 36,
        "velocity": 0
      },
      {
        "deltaTime": 51,
        "channel": 3,
        "type": "channel",
        "noteNumber": 36,
        "velocity": 33,
        "subtype": "noteOn"
      },
      {
        "deltaTime": 19,
        "channel": 3,
        "type": "channel",
        "subtype": "noteOff",
        "noteNumber": 36,
        "velocity": 0
      },
      {
        "deltaTime": 475,
        "channel": 3,
        "type": "channel",
        "noteNumber": 35,
        "velocity": 22,
        "subtype": "noteOn"
      },
      {
        "deltaTime": 36,
        "channel": 3,
        "type": "channel",
        "subtype": "noteOff",
        "noteNumber": 35,
        "velocity": 0
      },
      {
        "deltaTime": 17,
        "channel": 3,
        "type": "channel",
        "noteNumber": 54,
        "velocity": 18,
        "subtype": "noteOn"
      },
      {
        "deltaTime": 55,
        "channel": 3,
        "type": "channel",
        "subtype": "noteOff",
        "noteNumber": 54,
        "velocity": 0
      },
      {
        "deltaTime": 235,
        "channel": 3,
        "type": "channel",
        "noteNumber": 36,
        "velocity": 15,
        "subtype": "noteOn"
      },
      {
        "deltaTime": 24,
        "channel": 3,
        "type": "channel",
        "subtype": "noteOff",
        "noteNumber": 36,
        "velocity": 0
      },
      {
        "deltaTime": 89,
        "channel": 3,
        "type": "channel",
        "noteNumber": 81,
        "velocity": 33,
        "subtype": "noteOn"
      },
      {
        "deltaTime": 10,
        "channel": 3,
        "type": "channel",
        "subtype": "noteOff",
        "noteNumber": 81,
        "velocity": 0
      },
      {
        "deltaTime": 170,
        "channel": 3,
        "type": "channel",
        "noteNumber": 33,
        "velocity": 26,
        "subtype": "noteOn"
      },
      {
        "deltaTime": 48,
        "channel": 3,
        "type": "channel",
        "subtype": "noteOff",
        "noteNumber": 33,
        "velocity": 0
      },
      {
        "deltaTime": 22,
        "channel": 3,
        "type": "channel",
        "noteNumber": 36,
        "velocity": 23,
        "subtype": "noteOn"
      },
      {
        "deltaTime": 24,
        "channel": 3,
        "type": "channel",
        "subtype": "noteOff",
        "noteNumber": 36,
        "velocity": 0
      },
      {
        "deltaTime": 40,
        "channel": 3,
        "type": "channel",
        "noteNumber": 90,
        "velocity": 17,
        "subtype": "noteOn"
      },
      {
        "deltaTime": 17,
        "channel": 3,
        "type": "channel",
        "subtype": "noteOff",
        "noteNumber": 90,
        "velocity": 0
      },
      {
        "deltaTime": 475,
        "channel": 3,
        "type": "channel",
        "noteNumber": 36,
        "velocity": 21,
        "subtype": "noteOn"
      },
      {
        "deltaTime": 34,
        "channel": 3,
        "type": "channel",
        "subtype": "noteOff",
        "noteNumber": 36,
        "velocity": 0
      },
      {
        "deltaTime": 12,
        "channel": 3,
        "type": "channel",
        "noteNumber": 90,
        "velocity": 17,
        "subtype": "noteOn"
      },
      {
        "deltaTime": 55,
        "channel": 3,
        "type": "channel",
        "subtype": "noteOff",
        "noteNumber": 90,
        "velocity": 0
      },
      {
        "deltaTime": 84,
        "channel": 3,
        "type": "channel",
        "noteNumber": 52,
        "velocity": 20,
        "subtype": "noteOn"
      },
      {
        "deltaTime": 24,
        "channel": 3,
        "type": "channel",
        "subtype": "noteOff",
        "noteNumber": 52,
        "velocity": 0
      },
      {
        "deltaTime": 12,
        "channel": 3,
        "type": "channel",
        "noteNumber": 52,
        "velocity": 17,
        "subtype": "noteOn"
      },
      {
        "deltaTime": 63,
        "channel": 3,
        "type": "channel",
        "noteNumber": 33,
        "velocity": 11,
        "subtype": "noteOn"
      },
      {
        "deltaTime": 4,
        "channel": 3,
        "type": "channel",
        "subtype": "noteOff",
        "noteNumber": 52,
        "velocity": 0
      },
      {
        "deltaTime": 51,
        "channel": 3,
        "type": "channel",
        "subtype": "noteOff",
        "noteNumber": 33,
        "velocity": 0
      },
      {
        "deltaTime": 187,
        "channel": 3,
        "type": "channel",
        "noteNumber": 99,
        "velocity": 10,
        "subtype": "noteOn"
      },
      {
        "deltaTime": 38,
        "channel": 3,
        "type": "channel",
        "subtype": "noteOff",
        "noteNumber": 99,
        "velocity": 0
      },
      {
        "deltaTime": 10,
        "channel": 3,
        "type": "channel",
        "noteNumber": 99,
        "velocity": 16,
        "subtype": "noteOn"
      },
      {
        "deltaTime": 74,
        "channel": 3,
        "type": "channel",
        "subtype": "noteOff",
        "noteNumber": 99,
        "velocity": 0
      },
      {
        "deltaTime": 12,
        "channel": 3,
        "type": "channel",
        "noteNumber": 32,
        "velocity": 19,
        "subtype": "noteOn"
      },
      {
        "deltaTime": 17,
        "channel": 3,
        "type": "channel",
        "subtype": "noteOff",
        "noteNumber": 32,
        "velocity": 0
      },
      {
        "deltaTime": 36,
        "channel": 3,
        "type": "channel",
        "noteNumber": 52,
        "velocity": 26,
        "subtype": "noteOn"
      },
      {
        "deltaTime": 46,
        "channel": 3,
        "type": "channel",
        "noteNumber": 71,
        "velocity": 25,
        "subtype": "noteOn"
      },
      {
        "deltaTime": 5,
        "channel": 3,
        "type": "channel",
        "subtype": "noteOff",
        "noteNumber": 52,
        "velocity": 0
      },
      {
        "deltaTime": 12,
        "channel": 3,
        "type": "channel",
        "subtype": "noteOff",
        "noteNumber": 71,
        "velocity": 0
      },
      {
        "deltaTime": 26,
        "channel": 3,
        "type": "channel",
        "noteNumber": 36,
        "velocity": 32,
        "subtype": "noteOn"
      },
      {
        "deltaTime": 19,
        "channel": 3,
        "type": "channel",
        "subtype": "noteOff",
        "noteNumber": 36,
        "velocity": 0
      },
      {
        "deltaTime": 101,
        "channel": 3,
        "type": "channel",
        "noteNumber": 71,
        "velocity": 18,
        "subtype": "noteOn"
      },
      {
        "deltaTime": 38,
        "channel": 3,
        "type": "channel",
        "subtype": "noteOff",
        "noteNumber": 71,
        "velocity": 0
      },
      {
        "deltaTime": 401,
        "channel": 3,
        "type": "channel",
        "noteNumber": 36,
        "velocity": 13,
        "subtype": "noteOn"
      },
      {
        "deltaTime": 39,
        "channel": 3,
        "type": "channel",
        "subtype": "noteOff",
        "noteNumber": 36,
        "velocity": 0
      },
      {
        "deltaTime": 597,
        "channel": 3,
        "type": "channel",
        "noteNumber": 62,
        "velocity": 14,
        "subtype": "noteOn"
      },
      {
        "deltaTime": 84,
        "channel": 3,
        "type": "channel",
        "subtype": "noteOff",
        "noteNumber": 62,
        "velocity": 0
      },
      {
        "deltaTime": 2448,
        "channel": 3,
        "type": "channel",
        "noteNumber": 33,
        "velocity": 21,
        "subtype": "noteOn"
      },
      {
        "deltaTime": 286,
        "channel": 3,
        "type": "channel",
        "subtype": "noteOff",
        "noteNumber": 33,
        "velocity": 0
      },
      {
        "deltaTime": 487,
        "channel": 3,
        "type": "channel",
        "noteNumber": 52,
        "velocity": 12,
        "subtype": "noteOn"
      },
      {
        "deltaTime": 79,
        "channel": 3,
        "type": "channel",
        "subtype": "noteOff",
        "noteNumber": 52,
        "velocity": 0
      },
      {
        "deltaTime": 2059,
        "channel": 3,
        "type": "channel",
        "noteNumber": 76,
        "velocity": 13,
        "subtype": "noteOn"
      },
      {
        "deltaTime": 15,
        "channel": 3,
        "type": "channel",
        "subtype": "noteOff",
        "noteNumber": 76,
        "velocity": 0
      },
      {
        "deltaTime": 2,
        "channel": 3,
        "type": "channel",
        "noteNumber": 48,
        "velocity": 33,
        "subtype": "noteOn"
      },
      {
        "deltaTime": 36,
        "channel": 3,
        "type": "channel",
        "subtype": "noteOff",
        "noteNumber": 48,
        "velocity": 0
      },
      {
        "deltaTime": 0,
        "channel": 3,
        "type": "channel",
        "noteNumber": 62,
        "velocity": 43,
        "subtype": "noteOn"
      },
      {
        "deltaTime": 103,
        "channel": 3,
        "type": "channel",
        "noteNumber": 36,
        "velocity": 40,
        "subtype": "noteOn"
      },
      {
        "deltaTime": 63,
        "channel": 3,
        "type": "channel",
        "subtype": "noteOff",
        "noteNumber": 36,
        "velocity": 0
      },
      {
        "deltaTime": 67,
        "channel": 3,
        "type": "channel",
        "noteNumber": 89,
        "velocity": 34,
        "subtype": "noteOn"
      },
      {
        "deltaTime": 14,
        "channel": 3,
        "type": "channel",
        "subtype": "noteOff",
        "noteNumber": 62,
        "velocity": 0
      },
      {
        "deltaTime": 27,
        "channel": 3,
        "type": "channel",
        "subtype": "noteOff",
        "noteNumber": 89,
        "velocity": 0
      },
      {
        "deltaTime": 12,
        "channel": 3,
        "type": "channel",
        "noteNumber": 65,
        "velocity": 40,
        "subtype": "noteOn"
      },
      {
        "deltaTime": 5,
        "channel": 3,
        "type": "channel",
        "noteNumber": 105,
        "velocity": 37,
        "subtype": "noteOn"
      },
      {
        "deltaTime": 28,
        "channel": 3,
        "type": "channel",
        "subtype": "noteOff",
        "noteNumber": 65,
        "velocity": 0
      },
      {
        "deltaTime": 0,
        "channel": 3,
        "type": "channel",
        "noteNumber": 77,
        "velocity": 23,
        "subtype": "noteOn"
      },
      {
        "deltaTime": 3,
        "channel": 3,
        "type": "channel",
        "subtype": "noteOff",
        "noteNumber": 105,
        "velocity": 0
      },
      {
        "deltaTime": 26,
        "channel": 3,
        "type": "channel",
        "subtype": "noteOff",
        "noteNumber": 77,
        "velocity": 0
      },
      {
        "deltaTime": 22,
        "channel": 3,
        "type": "channel",
        "noteNumber": 50,
        "velocity": 12,
        "subtype": "noteOn"
      },
      {
        "deltaTime": 19,
        "channel": 3,
        "type": "channel",
        "subtype": "noteOff",
        "noteNumber": 50,
        "velocity": 0
      },
      {
        "deltaTime": 192,
        "channel": 3,
        "type": "channel",
        "noteNumber": 57,
        "velocity": 20,
        "subtype": "noteOn"
      },
      {
        "deltaTime": 48,
        "channel": 3,
        "type": "channel",
        "subtype": "noteOff",
        "noteNumber": 57,
        "velocity": 0
      },
      {
        "deltaTime": 34,
        "channel": 3,
        "type": "channel",
        "noteNumber": 105,
        "velocity": 26,
        "subtype": "noteOn"
      },
      {
        "deltaTime": 9,
        "channel": 3,
        "type": "channel",
        "subtype": "noteOff",
        "noteNumber": 105,
        "velocity": 0
      },
      {
        "deltaTime": 22,
        "channel": 3,
        "type": "channel",
        "noteNumber": 48,
        "velocity": 17,
        "subtype": "noteOn"
      },
      {
        "deltaTime": 24,
        "channel": 3,
        "type": "channel",
        "subtype": "noteOff",
        "noteNumber": 48,
        "velocity": 0
      },
      {
        "deltaTime": 0,
        "channel": 3,
        "type": "channel",
        "noteNumber": 105,
        "velocity": 10,
        "subtype": "noteOn"
      },
      {
        "deltaTime": 26,
        "channel": 3,
        "type": "channel",
        "subtype": "noteOff",
        "noteNumber": 105,
        "velocity": 0
      },
      {
        "deltaTime": 3,
        "channel": 3,
        "type": "channel",
        "noteNumber": 64,
        "velocity": 25,
        "subtype": "noteOn"
      },
      {
        "deltaTime": 84,
        "channel": 3,
        "type": "channel",
        "subtype": "noteOff",
        "noteNumber": 64,
        "velocity": 0
      },
      {
        "deltaTime": 62,
        "channel": 3,
        "type": "channel",
        "noteNumber": 34,
        "velocity": 20,
        "subtype": "noteOn"
      },
      {
        "deltaTime": 62,
        "channel": 3,
        "type": "channel",
        "noteNumber": 105,
        "velocity": 12,
        "subtype": "noteOn"
      },
      {
        "deltaTime": 10,
        "channel": 3,
        "type": "channel",
        "subtype": "noteOff",
        "noteNumber": 34,
        "velocity": 0
      },
      {
        "deltaTime": 5,
        "channel": 3,
        "type": "channel",
        "noteNumber": 60,
        "velocity": 25,
        "subtype": "noteOn"
      },
      {
        "deltaTime": 14,
        "channel": 3,
        "type": "channel",
        "subtype": "noteOff",
        "noteNumber": 105,
        "velocity": 0
      },
      {
        "deltaTime": 10,
        "channel": 3,
        "type": "channel",
        "subtype": "noteOff",
        "noteNumber": 60,
        "velocity": 0
      },
      {
        "deltaTime": 230,
        "channel": 3,
        "type": "channel",
        "noteNumber": 76,
        "velocity": 14,
        "subtype": "noteOn"
      },
      {
        "deltaTime": 12,
        "channel": 3,
        "type": "channel",
        "noteNumber": 104,
        "velocity": 32,
        "subtype": "noteOn"
      },
      {
        "deltaTime": 5,
        "channel": 3,
        "type": "channel",
        "subtype": "noteOff",
        "noteNumber": 76,
        "velocity": 0
      },
      {
        "deltaTime": 38,
        "channel": 3,
        "type": "channel",
        "noteNumber": 76,
        "velocity": 12,
        "subtype": "noteOn"
      },
      {
        "deltaTime": 5,
        "channel": 3,
        "type": "channel",
        "noteNumber": 62,
        "velocity": 45,
        "subtype": "noteOn"
      },
      {
        "deltaTime": 7,
        "channel": 3,
        "type": "channel",
        "subtype": "noteOff",
        "noteNumber": 104,
        "velocity": 0
      },
      {
        "deltaTime": 10,
        "channel": 3,
        "type": "channel",
        "subtype": "noteOff",
        "noteNumber": 76,
        "velocity": 0
      },
      {
        "deltaTime": 17,
        "channel": 3,
        "type": "channel",
        "subtype": "noteOff",
        "noteNumber": 62,
        "velocity": 0
      },
      {
        "deltaTime": 0,
        "channel": 3,
        "type": "channel",
        "noteNumber": 35,
        "velocity": 11,
        "subtype": "noteOn"
      },
      {
        "deltaTime": 9,
        "channel": 3,
        "type": "channel",
        "subtype": "noteOff",
        "noteNumber": 35,
        "velocity": 0
      },
      {
        "deltaTime": 22,
        "channel": 3,
        "type": "channel",
        "noteNumber": 36,
        "velocity": 28,
        "subtype": "noteOn"
      },
      {
        "deltaTime": 14,
        "channel": 3,
        "type": "channel",
        "subtype": "noteOff",
        "noteNumber": 36,
        "velocity": 0
      },
      {
        "deltaTime": 125,
        "channel": 3,
        "type": "channel",
        "noteNumber": 77,
        "velocity": 25,
        "subtype": "noteOn"
      },
      {
        "deltaTime": 46,
        "channel": 3,
        "type": "channel",
        "subtype": "noteOff",
        "noteNumber": 77,
        "velocity": 0
      },
      {
        "deltaTime": 17,
        "channel": 3,
        "type": "channel",
        "noteNumber": 101,
        "velocity": 38,
        "subtype": "noteOn"
      },
      {
        "deltaTime": 14,
        "channel": 3,
        "type": "channel",
        "noteNumber": 89,
        "velocity": 29,
        "subtype": "noteOn"
      },
      {
        "deltaTime": 10,
        "channel": 3,
        "type": "channel",
        "subtype": "noteOff",
        "noteNumber": 89,
        "velocity": 0
      },
      {
        "deltaTime": 28,
        "channel": 3,
        "type": "channel",
        "subtype": "noteOff",
        "noteNumber": 101,
        "velocity": 0
      },
      {
        "deltaTime": 5,
        "channel": 3,
        "type": "channel",
        "noteNumber": 93,
        "velocity": 45,
        "subtype": "noteOn"
      },
      {
        "deltaTime": 24,
        "channel": 3,
        "type": "channel",
        "subtype": "noteOff",
        "noteNumber": 93,
        "velocity": 0
      },
      {
        "deltaTime": 15,
        "channel": 3,
        "type": "channel",
        "noteNumber": 93,
        "velocity": 40,
        "subtype": "noteOn"
      },
      {
        "deltaTime": 19,
        "channel": 3,
        "type": "channel",
        "subtype": "noteOff",
        "noteNumber": 93,
        "velocity": 0
      },
      {
        "deltaTime": 137,
        "channel": 3,
        "type": "channel",
        "noteNumber": 62,
        "velocity": 27,
        "subtype": "noteOn"
      },
      {
        "deltaTime": 48,
        "channel": 3,
        "type": "channel",
        "noteNumber": 38,
        "velocity": 25,
        "subtype": "noteOn"
      },
      {
        "deltaTime": 26,
        "channel": 3,
        "type": "channel",
        "subtype": "noteOff",
        "noteNumber": 38,
        "velocity": 0
      },
      {
        "deltaTime": 29,
        "channel": 3,
        "type": "channel",
        "subtype": "noteOff",
        "noteNumber": 62,
        "velocity": 0
      },
      {
        "deltaTime": 24,
        "channel": 3,
        "type": "channel",
        "noteNumber": 101,
        "velocity": 29,
        "subtype": "noteOn"
      },
      {
        "deltaTime": 21,
        "channel": 3,
        "type": "channel",
        "subtype": "noteOff",
        "noteNumber": 101,
        "velocity": 0
      },
      {
        "deltaTime": 96,
        "channel": 3,
        "type": "channel",
        "noteNumber": 86,
        "velocity": 14,
        "subtype": "noteOn"
      },
      {
        "deltaTime": 32,
        "channel": 3,
        "type": "channel",
        "subtype": "noteOff",
        "noteNumber": 86,
        "velocity": 0
      },
      {
        "deltaTime": 148,
        "channel": 3,
        "type": "channel",
        "noteNumber": 105,
        "velocity": 12,
        "subtype": "noteOn"
      },
      {
        "deltaTime": 15,
        "channel": 3,
        "type": "channel",
        "noteNumber": 102,
        "velocity": 10,
        "subtype": "noteOn"
      },
      {
        "deltaTime": 9,
        "channel": 3,
        "type": "channel",
        "subtype": "noteOff",
        "noteNumber": 102,
        "velocity": 0
      },
      {
        "deltaTime": 10,
        "channel": 3,
        "type": "channel",
        "subtype": "noteOff",
        "noteNumber": 105,
        "velocity": 0
      },
      {
        "deltaTime": 230,
        "channel": 3,
        "type": "channel",
        "noteNumber": 74,
        "velocity": 21,
        "subtype": "noteOn"
      },
      {
        "deltaTime": 5,
        "channel": 3,
        "type": "channel",
        "noteNumber": 95,
        "velocity": 46,
        "subtype": "noteOn"
      },
      {
        "deltaTime": 19,
        "channel": 3,
        "type": "channel",
        "subtype": "noteOff",
        "noteNumber": 74,
        "velocity": 0
      },
      {
        "deltaTime": 104,
        "channel": 3,
        "type": "channel",
        "noteNumber": 100,
        "velocity": 30,
        "subtype": "noteOn"
      },
      {
        "deltaTime": 14,
        "channel": 3,
        "type": "channel",
        "noteNumber": 88,
        "velocity": 25,
        "subtype": "noteOn"
      },
      {
        "deltaTime": 10,
        "channel": 3,
        "type": "channel",
        "subtype": "noteOff",
        "noteNumber": 88,
        "velocity": 0
      },
      {
        "deltaTime": 2,
        "channel": 3,
        "type": "channel",
        "subtype": "noteOff",
        "noteNumber": 100,
        "velocity": 0
      },
      {
        "deltaTime": 19,
        "channel": 3,
        "type": "channel",
        "subtype": "noteOff",
        "noteNumber": 95,
        "velocity": 0
      },
      {
        "deltaTime": 180,
        "channel": 3,
        "type": "channel",
        "noteNumber": 105,
        "velocity": 42,
        "subtype": "noteOn"
      },
      {
        "deltaTime": 41,
        "channel": 3,
        "type": "channel",
        "noteNumber": 64,
        "velocity": 37,
        "subtype": "noteOn"
      },
      {
        "deltaTime": 2,
        "channel": 3,
        "type": "channel",
        "subtype": "noteOff",
        "noteNumber": 105,
        "velocity": 0
      },
      {
        "deltaTime": 29,
        "channel": 3,
        "type": "channel",
        "subtype": "noteOff",
        "noteNumber": 64,
        "velocity": 0
      },
      {
        "deltaTime": 19,
        "channel": 3,
        "type": "channel",
        "noteNumber": 88,
        "velocity": 18,
        "subtype": "noteOn"
      },
      {
        "deltaTime": 12,
        "channel": 3,
        "type": "channel",
        "subtype": "noteOff",
        "noteNumber": 88,
        "velocity": 0
      },
      {
        "deltaTime": 0,
        "channel": 3,
        "type": "channel",
        "noteNumber": 105,
        "velocity": 10,
        "subtype": "noteOn"
      },
      {
        "deltaTime": 12,
        "channel": 3,
        "type": "channel",
        "subtype": "noteOff",
        "noteNumber": 105,
        "velocity": 0
      },
      {
        "deltaTime": 178,
        "channel": 3,
        "type": "channel",
        "noteNumber": 38,
        "velocity": 25,
        "subtype": "noteOn"
      },
      {
        "deltaTime": 62,
        "channel": 3,
        "type": "channel",
        "subtype": "noteOff",
        "noteNumber": 38,
        "velocity": 0
      },
      {
        "deltaTime": 51,
        "channel": 3,
        "type": "channel",
        "noteNumber": 96,
        "velocity": 21,
        "subtype": "noteOn"
      },
      {
        "deltaTime": 50,
        "channel": 3,
        "type": "channel",
        "subtype": "noteOff",
        "noteNumber": 96,
        "velocity": 0
      },
      {
        "deltaTime": 7,
        "channel": 3,
        "type": "channel",
        "noteNumber": 64,
        "velocity": 26,
        "subtype": "noteOn"
      },
      {
        "deltaTime": 51,
        "channel": 3,
        "type": "channel",
        "noteNumber": 48,
        "velocity": 23,
        "subtype": "noteOn"
      },
      {
        "deltaTime": 33,
        "channel": 3,
        "type": "channel",
        "subtype": "noteOff",
        "noteNumber": 64,
        "velocity": 0
      },
      {
        "deltaTime": 5,
        "channel": 3,
        "type": "channel",
        "subtype": "noteOff",
        "noteNumber": 48,
        "velocity": 0
      },
      {
        "deltaTime": 41,
        "channel": 3,
        "type": "channel",
        "noteNumber": 53,
        "velocity": 29,
        "subtype": "noteOn"
      },
      {
        "deltaTime": 0,
        "channel": 3,
        "type": "channel",
        "noteNumber": 98,
        "velocity": 24,
        "subtype": "noteOn"
      },
      {
        "deltaTime": 0,
        "channel": 3,
        "type": "channel",
        "noteNumber": 36,
        "velocity": 13,
        "subtype": "noteOn"
      },
      {
        "deltaTime": 14,
        "channel": 3,
        "type": "channel",
        "subtype": "noteOff",
        "noteNumber": 36,
        "velocity": 0
      },
      {
        "deltaTime": 12,
        "channel": 3,
        "type": "channel",
        "subtype": "noteOff",
        "noteNumber": 98,
        "velocity": 0
      },
      {
        "deltaTime": 51,
        "channel": 3,
        "type": "channel",
        "subtype": "noteOff",
        "noteNumber": 53,
        "velocity": 0
      },
      {
        "deltaTime": 17,
        "channel": 3,
        "type": "channel",
        "noteNumber": 60,
        "velocity": 26,
        "subtype": "noteOn"
      },
      {
        "deltaTime": 24,
        "channel": 3,
        "type": "channel",
        "subtype": "noteOff",
        "noteNumber": 60,
        "velocity": 0
      },
      {
        "deltaTime": 240,
        "channel": 3,
        "type": "channel",
        "noteNumber": 95,
        "velocity": 24,
        "subtype": "noteOn"
      },
      {
        "deltaTime": 31,
        "channel": 3,
        "type": "channel",
        "noteNumber": 74,
        "velocity": 14,
        "subtype": "noteOn"
      },
      {
        "deltaTime": 7,
        "channel": 3,
        "type": "channel",
        "subtype": "noteOff",
        "noteNumber": 95,
        "velocity": 0
      },
      {
        "deltaTime": 5,
        "channel": 3,
        "type": "channel",
        "subtype": "noteOff",
        "noteNumber": 74,
        "velocity": 0
      },
      {
        "deltaTime": 5,
        "channel": 3,
        "type": "channel",
        "noteNumber": 62,
        "velocity": 44,
        "subtype": "noteOn"
      },
      {
        "deltaTime": 33,
        "channel": 3,
        "type": "channel",
        "subtype": "noteOff",
        "noteNumber": 62,
        "velocity": 0
      },
      {
        "deltaTime": 29,
        "channel": 3,
        "type": "channel",
        "noteNumber": 88,
        "velocity": 36,
        "subtype": "noteOn"
      },
      {
        "deltaTime": 127,
        "channel": 3,
        "type": "channel",
        "subtype": "noteOff",
        "noteNumber": 88,
        "velocity": 0
      },
      {
        "deltaTime": 151,
        "channel": 3,
        "type": "channel",
        "noteNumber": 62,
        "velocity": 38,
        "subtype": "noteOn"
      },
      {
        "deltaTime": 10,
        "channel": 3,
        "type": "channel",
        "subtype": "noteOff",
        "noteNumber": 62,
        "velocity": 0
      },
      {
        "deltaTime": 252,
        "channel": 3,
        "type": "channel",
        "noteNumber": 36,
        "velocity": 10,
        "subtype": "noteOn"
      },
      {
        "deltaTime": 31,
        "channel": 3,
        "type": "channel",
        "subtype": "noteOff",
        "noteNumber": 36,
        "velocity": 0
      },
      {
        "deltaTime": 233,
        "channel": 3,
        "type": "channel",
        "noteNumber": 36,
        "velocity": 10,
        "subtype": "noteOn"
      },
      {
        "deltaTime": 43,
        "channel": 3,
        "type": "channel",
        "subtype": "noteOff",
        "noteNumber": 36,
        "velocity": 0
      },
      {
        "deltaTime": 36,
        "channel": 3,
        "type": "channel",
        "noteNumber": 105,
        "velocity": 14,
        "subtype": "noteOn"
      },
      {
        "deltaTime": 43,
        "channel": 3,
        "type": "channel",
        "subtype": "noteOff",
        "noteNumber": 105,
        "velocity": 0
      },
      {
        "deltaTime": 240,
        "channel": 3,
        "type": "channel",
        "noteNumber": 48,
        "velocity": 32,
        "subtype": "noteOn"
      },
      {
        "deltaTime": 46,
        "channel": 3,
        "type": "channel",
        "subtype": "noteOff",
        "noteNumber": 48,
        "velocity": 0
      },
      {
        "deltaTime": 2,
        "channel": 3,
        "type": "channel",
        "noteNumber": 62,
        "velocity": 43,
        "subtype": "noteOn"
      },
      {
        "deltaTime": 221,
        "channel": 3,
        "type": "channel",
        "noteNumber": 50,
        "velocity": 37,
        "subtype": "noteOn"
      },
      {
        "deltaTime": 12,
        "channel": 3,
        "type": "channel",
        "noteNumber": 89,
        "velocity": 33,
        "subtype": "noteOn"
      },
      {
        "deltaTime": 10,
        "channel": 3,
        "type": "channel",
        "subtype": "noteOff",
        "noteNumber": 62,
        "velocity": 0
      },
      {
        "deltaTime": 31,
        "channel": 3,
        "type": "channel",
        "subtype": "noteOff",
        "noteNumber": 89,
        "velocity": 0
      },
      {
        "deltaTime": 46,
        "channel": 3,
        "type": "channel",
        "subtype": "noteOff",
        "noteNumber": 50,
        "velocity": 0
      },
      {
        "deltaTime": 40,
        "channel": 3,
        "type": "channel",
        "noteNumber": 42,
        "velocity": 28,
        "subtype": "noteOn"
      },
      {
        "deltaTime": 29,
        "channel": 3,
        "type": "channel",
        "subtype": "noteOff",
        "noteNumber": 42,
        "velocity": 0
      },
      {
        "deltaTime": 197,
        "channel": 3,
        "type": "channel",
        "noteNumber": 57,
        "velocity": 13,
        "subtype": "noteOn"
      },
      {
        "deltaTime": 17,
        "channel": 3,
        "type": "channel",
        "subtype": "noteOff",
        "noteNumber": 57,
        "velocity": 0
      },
      {
        "deltaTime": 2,
        "channel": 3,
        "type": "channel",
        "noteNumber": 65,
        "velocity": 25,
        "subtype": "noteOn"
      },
      {
        "deltaTime": 34,
        "channel": 3,
        "type": "channel",
        "subtype": "noteOff",
        "noteNumber": 65,
        "velocity": 0
      },
      {
        "deltaTime": 19,
        "channel": 3,
        "type": "channel",
        "noteNumber": 81,
        "velocity": 12,
        "subtype": "noteOn"
      },
      {
        "deltaTime": 12,
        "channel": 3,
        "type": "channel",
        "subtype": "noteOff",
        "noteNumber": 81,
        "velocity": 0
      },
      {
        "deltaTime": 22,
        "channel": 3,
        "type": "channel",
        "noteNumber": 64,
        "velocity": 26,
        "subtype": "noteOn"
      },
      {
        "deltaTime": 2,
        "channel": 3,
        "type": "channel",
        "noteNumber": 48,
        "velocity": 18,
        "subtype": "noteOn"
      },
      {
        "deltaTime": 24,
        "channel": 3,
        "type": "channel",
        "subtype": "noteOff",
        "noteNumber": 48,
        "velocity": 0
      },
      {
        "deltaTime": 84,
        "channel": 3,
        "type": "channel",
        "noteNumber": 48,
        "velocity": 23,
        "subtype": "noteOn"
      },
      {
        "deltaTime": 29,
        "channel": 3,
        "type": "channel",
        "subtype": "noteOff",
        "noteNumber": 64,
        "velocity": 0
      },
      {
        "deltaTime": 5,
        "channel": 3,
        "type": "channel",
        "subtype": "noteOff",
        "noteNumber": 48,
        "velocity": 0
      },
      {
        "deltaTime": 55,
        "channel": 3,
        "type": "channel",
        "noteNumber": 34,
        "velocity": 18,
        "subtype": "noteOn"
      },
      {
        "deltaTime": 74,
        "channel": 3,
        "type": "channel",
        "subtype": "noteOff",
        "noteNumber": 34,
        "velocity": 0
      },
      {
        "deltaTime": 5,
        "channel": 3,
        "type": "channel",
        "noteNumber": 60,
        "velocity": 25,
        "subtype": "noteOn"
      },
      {
        "deltaTime": 24,
        "channel": 3,
        "type": "channel",
        "subtype": "noteOff",
        "noteNumber": 60,
        "velocity": 0
      },
      {
        "deltaTime": 178,
        "channel": 3,
        "type": "channel",
        "noteNumber": 91,
        "velocity": 15,
        "subtype": "noteOn"
      },
      {
        "deltaTime": 31,
        "channel": 3,
        "type": "channel",
        "noteNumber": 76,
        "velocity": 12,
        "subtype": "noteOn"
      },
      {
        "deltaTime": 17,
        "channel": 3,
        "type": "channel",
        "subtype": "noteOff",
        "noteNumber": 76,
        "velocity": 0
      },
      {
        "deltaTime": 12,
        "channel": 3,
        "type": "channel",
        "noteNumber": 95,
        "velocity": 43,
        "subtype": "noteOn"
      },
      {
        "deltaTime": 38,
        "channel": 3,
        "type": "channel",
        "subtype": "noteOff",
        "noteNumber": 91,
        "velocity": 0
      },
      {
        "deltaTime": 50,
        "channel": 3,
        "type": "channel",
        "subtype": "noteOff",
        "noteNumber": 95,
        "velocity": 0
      },
      {
        "deltaTime": 24,
        "channel": 3,
        "type": "channel",
        "noteNumber": 104,
        "velocity": 19,
        "subtype": "noteOn"
      },
      {
        "deltaTime": 46,
        "channel": 3,
        "type": "channel",
        "subtype": "noteOff",
        "noteNumber": 104,
        "velocity": 0
      },
      {
        "deltaTime": 710,
        "channel": 3,
        "type": "channel",
        "noteNumber": 86,
        "velocity": 10,
        "subtype": "noteOn"
      },
      {
        "deltaTime": 10,
        "channel": 3,
        "type": "channel",
        "subtype": "noteOff",
        "noteNumber": 86,
        "velocity": 0
      },
      {
        "deltaTime": 110,
        "channel": 3,
        "type": "channel",
        "noteNumber": 105,
        "velocity": 15,
        "subtype": "noteOn"
      },
      {
        "deltaTime": 27,
        "channel": 3,
        "type": "channel",
        "subtype": "noteOff",
        "noteNumber": 105,
        "velocity": 0
      },
      {
        "deltaTime": 247,
        "channel": 3,
        "type": "channel",
        "noteNumber": 76,
        "velocity": 18,
        "subtype": "noteOn"
      },
      {
        "deltaTime": 29,
        "channel": 3,
        "type": "channel",
        "subtype": "noteOff",
        "noteNumber": 76,
        "velocity": 0
      },
      {
        "deltaTime": 0,
        "channel": 3,
        "type": "channel",
        "noteNumber": 64,
        "velocity": 38,
        "subtype": "noteOn"
      },
      {
        "deltaTime": 74,
        "channel": 3,
        "type": "channel",
        "subtype": "noteOff",
        "noteNumber": 64,
        "velocity": 0
      },
      {
        "deltaTime": 34,
        "channel": 3,
        "type": "channel",
        "noteNumber": 100,
        "velocity": 24,
        "subtype": "noteOn"
      },
      {
        "deltaTime": 9,
        "channel": 3,
        "type": "channel",
        "subtype": "noteOff",
        "noteNumber": 100,
        "velocity": 0
      },
      {
        "deltaTime": 159,
        "channel": 3,
        "type": "channel",
        "noteNumber": 105,
        "velocity": 31,
        "subtype": "noteOn"
      },
      {
        "deltaTime": 9,
        "channel": 3,
        "type": "channel",
        "noteNumber": 36,
        "velocity": 19,
        "subtype": "noteOn"
      },
      {
        "deltaTime": 10,
        "channel": 3,
        "type": "channel",
        "subtype": "noteOff",
        "noteNumber": 36,
        "velocity": 0
      },
      {
        "deltaTime": 5,
        "channel": 3,
        "type": "channel",
        "subtype": "noteOff",
        "noteNumber": 105,
        "velocity": 0
      },
      {
        "deltaTime": 2,
        "channel": 3,
        "type": "channel",
        "noteNumber": 105,
        "velocity": 39,
        "subtype": "noteOn"
      },
      {
        "deltaTime": 43,
        "channel": 3,
        "type": "channel",
        "subtype": "noteOff",
        "noteNumber": 105,
        "velocity": 0
      },
      {
        "deltaTime": 216,
        "channel": 3,
        "type": "channel",
        "noteNumber": 62,
        "velocity": 23,
        "subtype": "noteOn"
      },
      {
        "deltaTime": 29,
        "channel": 3,
        "type": "channel",
        "subtype": "noteOff",
        "noteNumber": 62,
        "velocity": 0
      },
      {
        "deltaTime": 17,
        "channel": 3,
        "type": "channel",
        "noteNumber": 101,
        "velocity": 18,
        "subtype": "noteOn"
      },
      {
        "deltaTime": 10,
        "channel": 3,
        "type": "channel",
        "subtype": "noteOff",
        "noteNumber": 101,
        "velocity": 0
      },
      {
        "deltaTime": 9,
        "channel": 3,
        "type": "channel",
        "noteNumber": 77,
        "velocity": 43,
        "subtype": "noteOn"
      },
      {
        "deltaTime": 65,
        "channel": 3,
        "type": "channel",
        "subtype": "noteOff",
        "noteNumber": 77,
        "velocity": 0
      },
      {
        "deltaTime": 38,
        "channel": 3,
        "type": "channel",
        "noteNumber": 64,
        "velocity": 27,
        "subtype": "noteOn"
      },
      {
        "deltaTime": 39,
        "channel": 3,
        "type": "channel",
        "noteNumber": 105,
        "velocity": 18,
        "subtype": "noteOn"
      },
      {
        "deltaTime": 12,
        "channel": 3,
        "type": "channel",
        "subtype": "noteOff",
        "noteNumber": 105,
        "velocity": 0
      },
      {
        "deltaTime": 50,
        "channel": 3,
        "type": "channel",
        "noteNumber": 93,
        "velocity": 26,
        "subtype": "noteOn"
      },
      {
        "deltaTime": 39,
        "channel": 3,
        "type": "channel",
        "subtype": "noteOff",
        "noteNumber": 64,
        "velocity": 0
      },
      {
        "deltaTime": 2,
        "channel": 3,
        "type": "channel",
        "subtype": "noteOff",
        "noteNumber": 93,
        "velocity": 0
      },
      {
        "deltaTime": 62,
        "channel": 3,
        "type": "channel",
        "noteNumber": 34,
        "velocity": 24,
        "subtype": "noteOn"
      },
      {
        "deltaTime": 70,
        "channel": 3,
        "type": "channel",
        "subtype": "noteOff",
        "noteNumber": 34,
        "velocity": 0
      },
      {
        "deltaTime": 5,
        "channel": 3,
        "type": "channel",
        "noteNumber": 60,
        "velocity": 28,
        "subtype": "noteOn"
      },
      {
        "deltaTime": 0,
        "channel": 3,
        "type": "channel",
        "noteNumber": 33,
        "velocity": 13,
        "subtype": "noteOn"
      },
      {
        "deltaTime": 9,
        "channel": 3,
        "type": "channel",
        "subtype": "noteOff",
        "noteNumber": 33,
        "velocity": 0
      },
      {
        "deltaTime": 15,
        "channel": 3,
        "type": "channel",
        "subtype": "noteOff",
        "noteNumber": 60,
        "velocity": 0
      },
      {
        "deltaTime": 240,
        "channel": 3,
        "type": "channel",
        "noteNumber": 95,
        "velocity": 25,
        "subtype": "noteOn"
      },
      {
        "deltaTime": 38,
        "channel": 3,
        "type": "channel",
        "subtype": "noteOff",
        "noteNumber": 95,
        "velocity": 0
      },
      {
        "deltaTime": 15,
        "channel": 3,
        "type": "channel",
        "noteNumber": 95,
        "velocity": 20,
        "subtype": "noteOn"
      },
      {
        "deltaTime": 28,
        "channel": 3,
        "type": "channel",
        "subtype": "noteOff",
        "noteNumber": 95,
        "velocity": 0
      },
      {
        "deltaTime": 24,
        "channel": 3,
        "type": "channel",
        "noteNumber": 95,
        "velocity": 19,
        "subtype": "noteOn"
      },
      {
        "deltaTime": 51,
        "channel": 3,
        "type": "channel",
        "subtype": "noteOff",
        "noteNumber": 95,
        "velocity": 0
      },
      {
        "deltaTime": 175,
        "channel": 3,
        "type": "channel",
        "noteNumber": 65,
        "velocity": 37,
        "subtype": "noteOn"
      },
      {
        "deltaTime": 34,
        "channel": 3,
        "type": "channel",
        "subtype": "noteOff",
        "noteNumber": 65,
        "velocity": 0
      },
      {
        "deltaTime": 9,
        "channel": 3,
        "type": "channel",
        "noteNumber": 62,
        "velocity": 40,
        "subtype": "noteOn"
      },
      {
        "deltaTime": 24,
        "channel": 3,
        "type": "channel",
        "subtype": "noteOff",
        "noteNumber": 62,
        "velocity": 0
      },
      {
        "deltaTime": 283,
        "channel": 3,
        "type": "channel",
        "noteNumber": 105,
        "velocity": 18,
        "subtype": "noteOn"
      },
      {
        "deltaTime": 36,
        "channel": 3,
        "type": "channel",
        "subtype": "noteOff",
        "noteNumber": 105,
        "velocity": 0
      },
      {
        "deltaTime": 500,
        "channel": 3,
        "type": "channel",
        "noteNumber": 61,
        "velocity": 12,
        "subtype": "noteOn"
      },
      {
        "deltaTime": 60,
        "channel": 3,
        "type": "channel",
        "noteNumber": 101,
        "velocity": 37,
        "subtype": "noteOn"
      },
      {
        "deltaTime": 36,
        "channel": 3,
        "type": "channel",
        "subtype": "noteOff",
        "noteNumber": 61,
        "velocity": 0
      },
      {
        "deltaTime": 16,
        "channel": 3,
        "type": "channel",
        "subtype": "noteOff",
        "noteNumber": 101,
        "velocity": 0
      },
      {
        "deltaTime": 46,
        "channel": 3,
        "type": "channel",
        "noteNumber": 32,
        "velocity": 19,
        "subtype": "noteOn"
      },
      {
        "deltaTime": 36,
        "channel": 3,
        "type": "channel",
        "subtype": "noteOff",
        "noteNumber": 32,
        "velocity": 0
      },
      {
        "deltaTime": 242,
        "channel": 3,
        "type": "channel",
        "noteNumber": 103,
        "velocity": 43,
        "subtype": "noteOn"
      },
      {
        "deltaTime": 27,
        "channel": 3,
        "type": "channel",
        "subtype": "noteOff",
        "noteNumber": 103,
        "velocity": 0
      },
      {
        "deltaTime": 19,
        "channel": 3,
        "type": "channel",
        "noteNumber": 65,
        "velocity": 20,
        "subtype": "noteOn"
      },
      {
        "deltaTime": 12,
        "channel": 3,
        "type": "channel",
        "noteNumber": 33,
        "velocity": 23,
        "subtype": "noteOn"
      },
      {
        "deltaTime": 12,
        "channel": 3,
        "type": "channel",
        "subtype": "noteOff",
        "noteNumber": 65,
        "velocity": 0
      },
      {
        "deltaTime": 38,
        "channel": 3,
        "type": "channel",
        "subtype": "noteOff",
        "noteNumber": 33,
        "velocity": 0
      },
      {
        "deltaTime": 15,
        "channel": 3,
        "type": "channel",
        "noteNumber": 98,
        "velocity": 21,
        "subtype": "noteOn"
      },
      {
        "deltaTime": 24,
        "channel": 3,
        "type": "channel",
        "subtype": "noteOff",
        "noteNumber": 98,
        "velocity": 0
      },
      {
        "deltaTime": 101,
        "channel": 3,
        "type": "channel",
        "noteNumber": 104,
        "velocity": 13,
        "subtype": "noteOn"
      },
      {
        "deltaTime": 7,
        "channel": 3,
        "type": "channel",
        "noteNumber": 96,
        "velocity": 28,
        "subtype": "noteOn"
      },
      {
        "deltaTime": 5,
        "channel": 3,
        "type": "channel",
        "subtype": "noteOff",
        "noteNumber": 104,
        "velocity": 0
      },
      {
        "deltaTime": 36,
        "channel": 3,
        "type": "channel",
        "subtype": "noteOff",
        "noteNumber": 96,
        "velocity": 0
      },
      {
        "deltaTime": 415,
        "channel": 3,
        "type": "channel",
        "noteNumber": 92,
        "velocity": 12,
        "subtype": "noteOn"
      },
      {
        "deltaTime": 0,
        "channel": 3,
        "type": "channel",
        "noteNumber": 68,
        "velocity": 33,
        "subtype": "noteOn"
      },
      {
        "deltaTime": 9,
        "channel": 3,
        "type": "channel",
        "subtype": "noteOff",
        "noteNumber": 92,
        "velocity": 0
      },
      {
        "deltaTime": 48,
        "channel": 3,
        "type": "channel",
        "subtype": "noteOff",
        "noteNumber": 68,
        "velocity": 0
      },
      {
        "deltaTime": 27,
        "channel": 3,
        "type": "channel",
        "noteNumber": 63,
        "velocity": 10,
        "subtype": "noteOn"
      },
      {
        "deltaTime": 29,
        "channel": 3,
        "type": "channel",
        "subtype": "noteOff",
        "noteNumber": 63,
        "velocity": 0
      },
      {
        "deltaTime": 16,
        "channel": 3,
        "type": "channel",
        "noteNumber": 84,
        "velocity": 26,
        "subtype": "noteOn"
      },
      {
        "deltaTime": 8,
        "channel": 3,
        "type": "channel",
        "noteNumber": 49,
        "velocity": 33,
        "subtype": "noteOn"
      },
      {
        "deltaTime": 9,
        "channel": 3,
        "type": "channel",
        "noteNumber": 39,
        "velocity": 17,
        "subtype": "noteOn"
      },
      {
        "deltaTime": 10,
        "channel": 3,
        "type": "channel",
        "subtype": "noteOff",
        "noteNumber": 39,
        "velocity": 0
      },
      {
        "deltaTime": 43,
        "channel": 3,
        "type": "channel",
        "subtype": "noteOff",
        "noteNumber": 84,
        "velocity": 0
      },
      {
        "deltaTime": 10,
        "channel": 3,
        "type": "channel",
        "noteNumber": 89,
        "velocity": 19,
        "subtype": "noteOn"
      },
      {
        "deltaTime": 9,
        "channel": 3,
        "type": "channel",
        "subtype": "noteOff",
        "noteNumber": 89,
        "velocity": 0
      },
      {
        "deltaTime": 12,
        "channel": 3,
        "type": "channel",
        "subtype": "noteOff",
        "noteNumber": 49,
        "velocity": 0
      },
      {
        "deltaTime": 5,
        "channel": 3,
        "type": "channel",
        "noteNumber": 77,
        "velocity": 26,
        "subtype": "noteOn"
      },
      {
        "deltaTime": 12,
        "channel": 3,
        "type": "channel",
        "noteNumber": 63,
        "velocity": 48,
        "subtype": "noteOn"
      },
      {
        "deltaTime": 2,
        "channel": 3,
        "type": "channel",
        "subtype": "noteOff",
        "noteNumber": 77,
        "velocity": 0
      },
      {
        "deltaTime": 27,
        "channel": 3,
        "type": "channel",
        "subtype": "noteOff",
        "noteNumber": 63,
        "velocity": 0
      },
      {
        "deltaTime": 19,
        "channel": 3,
        "type": "channel",
        "noteNumber": 105,
        "velocity": 18,
        "subtype": "noteOn"
      },
      {
        "deltaTime": 43,
        "channel": 3,
        "type": "channel",
        "subtype": "noteOff",
        "noteNumber": 105,
        "velocity": 0
      },
      {
        "deltaTime": 192,
        "channel": 3,
        "type": "channel",
        "noteNumber": 96,
        "velocity": 21,
        "subtype": "noteOn"
      },
      {
        "deltaTime": 10,
        "channel": 3,
        "type": "channel",
        "subtype": "noteOff",
        "noteNumber": 96,
        "velocity": 0
      },
      {
        "deltaTime": 31,
        "channel": 3,
        "type": "channel",
        "noteNumber": 103,
        "velocity": 45,
        "subtype": "noteOn"
      },
      {
        "deltaTime": 24,
        "channel": 3,
        "type": "channel",
        "subtype": "noteOff",
        "noteNumber": 103,
        "velocity": 0
      },
      {
        "deltaTime": 12,
        "channel": 3,
        "type": "channel",
        "noteNumber": 42,
        "velocity": 15,
        "subtype": "noteOn"
      },
      {
        "deltaTime": 10,
        "channel": 3,
        "type": "channel",
        "subtype": "noteOff",
        "noteNumber": 42,
        "velocity": 0
      },
      {
        "deltaTime": 21,
        "channel": 3,
        "type": "channel",
        "noteNumber": 103,
        "velocity": 37,
        "subtype": "noteOn"
      },
      {
        "deltaTime": 0,
        "channel": 3,
        "type": "channel",
        "noteNumber": 84,
        "velocity": 12,
        "subtype": "noteOn"
      },
      {
        "deltaTime": 12,
        "channel": 3,
        "type": "channel",
        "subtype": "noteOff",
        "noteNumber": 84,
        "velocity": 0
      },
      {
        "deltaTime": 29,
        "channel": 3,
        "type": "channel",
        "subtype": "noteOff",
        "noteNumber": 103,
        "velocity": 0
      },
      {
        "deltaTime": 77,
        "channel": 3,
        "type": "channel",
        "noteNumber": 84,
        "velocity": 15,
        "subtype": "noteOn"
      },
      {
        "deltaTime": 69,
        "channel": 3,
        "type": "channel",
        "noteNumber": 96,
        "velocity": 28,
        "subtype": "noteOn"
      },
      {
        "deltaTime": 10,
        "channel": 3,
        "type": "channel",
        "subtype": "noteOff",
        "noteNumber": 84,
        "velocity": 0
      },
      {
        "deltaTime": 26,
        "channel": 3,
        "type": "channel",
        "subtype": "noteOff",
        "noteNumber": 96,
        "velocity": 0
      },
      {
        "deltaTime": 255,
        "channel": 3,
        "type": "channel",
        "noteNumber": 104,
        "velocity": 14,
        "subtype": "noteOn"
      },
      {
        "deltaTime": 12,
        "channel": 3,
        "type": "channel",
        "subtype": "noteOff",
        "noteNumber": 104,
        "velocity": 0
      },
      {
        "deltaTime": 7,
        "channel": 3,
        "type": "channel",
        "noteNumber": 104,
        "velocity": 17,
        "subtype": "noteOn"
      },
      {
        "deltaTime": 24,
        "channel": 3,
        "type": "channel",
        "subtype": "noteOff",
        "noteNumber": 104,
        "velocity": 0
      },
      {
        "deltaTime": 295,
        "channel": 3,
        "type": "channel",
        "noteNumber": 98,
        "velocity": 16,
        "subtype": "noteOn"
      },
      {
        "deltaTime": 7,
        "channel": 3,
        "type": "channel",
        "noteNumber": 105,
        "velocity": 37,
        "subtype": "noteOn"
      },
      {
        "deltaTime": 8,
        "channel": 3,
        "type": "channel",
        "subtype": "noteOff",
        "noteNumber": 98,
        "velocity": 0
      },
      {
        "deltaTime": 16,
        "channel": 3,
        "type": "channel",
        "noteNumber": 65,
        "velocity": 49,
        "subtype": "noteOn"
      },
      {
        "deltaTime": 51,
        "channel": 3,
        "type": "channel",
        "subtype": "noteOff",
        "noteNumber": 105,
        "velocity": 0
      },
      {
        "deltaTime": 19,
        "channel": 3,
        "type": "channel",
        "subtype": "noteOff",
        "noteNumber": 65,
        "velocity": 0
      },
      {
        "deltaTime": 58,
        "channel": 3,
        "type": "channel",
        "noteNumber": 77,
        "velocity": 16,
        "subtype": "noteOn"
      },
      {
        "deltaTime": 9,
        "channel": 3,
        "type": "channel",
        "subtype": "noteOff",
        "noteNumber": 77,
        "velocity": 0
      },
      {
        "deltaTime": 132,
        "channel": 3,
        "type": "channel",
        "noteNumber": 96,
        "velocity": 15,
        "subtype": "noteOn"
      },
      {
        "deltaTime": 29,
        "channel": 3,
        "type": "channel",
        "subtype": "noteOff",
        "noteNumber": 96,
        "velocity": 0
      },
      {
        "deltaTime": 14,
        "channel": 3,
        "type": "channel",
        "noteNumber": 36,
        "velocity": 15,
        "subtype": "noteOn"
      },
      {
        "deltaTime": 10,
        "channel": 3,
        "type": "channel",
        "subtype": "noteOff",
        "noteNumber": 36,
        "velocity": 0
      },
      {
        "deltaTime": 0,
        "channel": 3,
        "type": "channel",
        "noteNumber": 67,
        "velocity": 47,
        "subtype": "noteOn"
      },
      {
        "deltaTime": 46,
        "channel": 3,
        "type": "channel",
        "noteNumber": 63,
        "velocity": 43,
        "subtype": "noteOn"
      },
      {
        "deltaTime": 21,
        "channel": 3,
        "type": "channel",
        "subtype": "noteOff",
        "noteNumber": 67,
        "velocity": 0
      },
      {
        "deltaTime": 3,
        "channel": 3,
        "type": "channel",
        "subtype": "noteOff",
        "noteNumber": 63,
        "velocity": 0
      },
      {
        "deltaTime": 16,
        "channel": 3,
        "type": "channel",
        "noteNumber": 65,
        "velocity": 23,
        "subtype": "noteOn"
      },
      {
        "deltaTime": 24,
        "channel": 3,
        "type": "channel",
        "subtype": "noteOff",
        "noteNumber": 65,
        "velocity": 0
      },
      {
        "deltaTime": 24,
        "channel": 3,
        "type": "channel",
        "noteNumber": 67,
        "velocity": 38,
        "subtype": "noteOn"
      },
      {
        "deltaTime": 92,
        "channel": 3,
        "type": "channel",
        "subtype": "noteOff",
        "noteNumber": 67,
        "velocity": 0
      },
      {
        "deltaTime": 292,
        "channel": 3,
        "type": "channel",
        "noteNumber": 70,
        "velocity": 47,
        "subtype": "noteOn"
      },
      {
        "deltaTime": 77,
        "channel": 3,
        "type": "channel",
        "noteNumber": 92,
        "velocity": 25,
        "subtype": "noteOn"
      },
      {
        "deltaTime": 15,
        "channel": 3,
        "type": "channel",
        "subtype": "noteOff",
        "noteNumber": 92,
        "velocity": 0
      },
      {
        "deltaTime": 24,
        "channel": 3,
        "type": "channel",
        "subtype": "noteOff",
        "noteNumber": 70,
        "velocity": 0
      },
      {
        "deltaTime": 14,
        "channel": 3,
        "type": "channel",
        "noteNumber": 41,
        "velocity": 46,
        "subtype": "noteOn"
      },
      {
        "deltaTime": 60,
        "channel": 3,
        "type": "channel",
        "subtype": "noteOff",
        "noteNumber": 41,
        "velocity": 0
      },
      {
        "deltaTime": 26,
        "channel": 3,
        "type": "channel",
        "noteNumber": 99,
        "velocity": 30,
        "subtype": "noteOn"
      },
      {
        "deltaTime": 12,
        "channel": 3,
        "type": "channel",
        "noteNumber": 103,
        "velocity": 21,
        "subtype": "noteOn"
      },
      {
        "deltaTime": 15,
        "channel": 3,
        "type": "channel",
        "subtype": "noteOff",
        "noteNumber": 103,
        "velocity": 0
      },
      {
        "deltaTime": 14,
        "channel": 3,
        "type": "channel",
        "subtype": "noteOff",
        "noteNumber": 99,
        "velocity": 0
      },
      {
        "deltaTime": 29,
        "channel": 3,
        "type": "channel",
        "noteNumber": 89,
        "velocity": 23,
        "subtype": "noteOn"
      },
      {
        "deltaTime": 65,
        "channel": 3,
        "type": "channel",
        "subtype": "noteOff",
        "noteNumber": 89,
        "velocity": 0
      },
      {
        "deltaTime": 21,
        "channel": 3,
        "type": "channel",
        "noteNumber": 49,
        "velocity": 31,
        "subtype": "noteOn"
      },
      {
        "deltaTime": 56,
        "channel": 3,
        "type": "channel",
        "noteNumber": 101,
        "velocity": 38,
        "subtype": "noteOn"
      },
      {
        "deltaTime": 38,
        "channel": 3,
        "type": "channel",
        "subtype": "noteOff",
        "noteNumber": 49,
        "velocity": 0
      },
      {
        "deltaTime": 19,
        "channel": 3,
        "type": "channel",
        "subtype": "noteOff",
        "noteNumber": 101,
        "velocity": 0
      },
      {
        "deltaTime": 10,
        "channel": 3,
        "type": "channel",
        "noteNumber": 105,
        "velocity": 48,
        "subtype": "noteOn"
      },
      {
        "deltaTime": 17,
        "channel": 3,
        "type": "channel",
        "subtype": "noteOff",
        "noteNumber": 105,
        "velocity": 0
      },
      {
        "deltaTime": 12,
        "channel": 3,
        "type": "channel",
        "noteNumber": 63,
        "velocity": 36,
        "subtype": "noteOn"
      },
      {
        "deltaTime": 4,
        "channel": 3,
        "type": "channel",
        "noteNumber": 105,
        "velocity": 28,
        "subtype": "noteOn"
      },
      {
        "deltaTime": 56,
        "channel": 3,
        "type": "channel",
        "subtype": "noteOff",
        "noteNumber": 105,
        "velocity": 0
      },
      {
        "deltaTime": 194,
        "channel": 3,
        "type": "channel",
        "subtype": "noteOff",
        "noteNumber": 63,
        "velocity": 0
      },
      {
        "deltaTime": 22,
        "channel": 3,
        "type": "channel",
        "noteNumber": 65,
        "velocity": 42,
        "subtype": "noteOn"
      },
      {
        "deltaTime": 33,
        "channel": 3,
        "type": "channel",
        "subtype": "noteOff",
        "noteNumber": 65,
        "velocity": 0
      },
      {
        "deltaTime": 7,
        "channel": 3,
        "type": "channel",
        "noteNumber": 67,
        "velocity": 33,
        "subtype": "noteOn"
      },
      {
        "deltaTime": 8,
        "channel": 3,
        "type": "channel",
        "noteNumber": 94,
        "velocity": 21,
        "subtype": "noteOn"
      },
      {
        "deltaTime": 9,
        "channel": 3,
        "type": "channel",
        "noteNumber": 65,
        "velocity": 16,
        "subtype": "noteOn"
      },
      {
        "deltaTime": 15,
        "channel": 3,
        "type": "channel",
        "subtype": "noteOff",
        "noteNumber": 65,
        "velocity": 0
      },
      {
        "deltaTime": 14,
        "channel": 3,
        "type": "channel",
        "subtype": "noteOff",
        "noteNumber": 94,
        "velocity": 0
      },
      {
        "deltaTime": 24,
        "channel": 3,
        "type": "channel",
        "subtype": "noteOff",
        "noteNumber": 67,
        "velocity": 0
      },
      {
        "deltaTime": 55,
        "channel": 3,
        "type": "channel",
        "noteNumber": 98,
        "velocity": 15,
        "subtype": "noteOn"
      },
      {
        "deltaTime": 22,
        "channel": 3,
        "type": "channel",
        "subtype": "noteOff",
        "noteNumber": 98,
        "velocity": 0
      },
      {
        "deltaTime": 105,
        "channel": 3,
        "type": "channel",
        "noteNumber": 77,
        "velocity": 27,
        "subtype": "noteOn"
      },
      {
        "deltaTime": 20,
        "channel": 3,
        "type": "channel",
        "subtype": "noteOff",
        "noteNumber": 77,
        "velocity": 0
      },
      {
        "deltaTime": 175,
        "channel": 3,
        "type": "channel",
        "noteNumber": 105,
        "velocity": 23,
        "subtype": "noteOn"
      },
      {
        "deltaTime": 81,
        "channel": 3,
        "type": "channel",
        "noteNumber": 48,
        "velocity": 14,
        "subtype": "noteOn"
      },
      {
        "deltaTime": 10,
        "channel": 3,
        "type": "channel",
        "subtype": "noteOff",
        "noteNumber": 48,
        "velocity": 0
      },
      {
        "deltaTime": 12,
        "channel": 3,
        "type": "channel",
        "subtype": "noteOff",
        "noteNumber": 105,
        "velocity": 0
      },
      {
        "deltaTime": 103,
        "channel": 3,
        "type": "channel",
        "noteNumber": 54,
        "velocity": 14,
        "subtype": "noteOn"
      },
      {
        "deltaTime": 15,
        "channel": 3,
        "type": "channel",
        "subtype": "noteOff",
        "noteNumber": 54,
        "velocity": 0
      },
      {
        "deltaTime": 146,
        "channel": 3,
        "type": "channel",
        "noteNumber": 87,
        "velocity": 10,
        "subtype": "noteOn"
      },
      {
        "deltaTime": 10,
        "channel": 3,
        "type": "channel",
        "subtype": "noteOff",
        "noteNumber": 87,
        "velocity": 0
      },
      {
        "deltaTime": 0,
        "channel": 3,
        "type": "channel",
        "noteNumber": 99,
        "velocity": 21,
        "subtype": "noteOn"
      },
      {
        "deltaTime": 16,
        "channel": 3,
        "type": "channel",
        "subtype": "noteOff",
        "noteNumber": 99,
        "velocity": 0
      },
      {
        "deltaTime": 10,
        "channel": 3,
        "type": "channel",
        "noteNumber": 105,
        "velocity": 39,
        "subtype": "noteOn"
      },
      {
        "deltaTime": 34,
        "channel": 3,
        "type": "channel",
        "noteNumber": 89,
        "velocity": 22,
        "subtype": "noteOn"
      },
      {
        "deltaTime": 9,
        "channel": 3,
        "type": "channel",
        "subtype": "noteOff",
        "noteNumber": 89,
        "velocity": 0
      },
      {
        "deltaTime": 3,
        "channel": 3,
        "type": "channel",
        "noteNumber": 89,
        "velocity": 53,
        "subtype": "noteOn"
      },
      {
        "deltaTime": 33,
        "channel": 3,
        "type": "channel",
        "subtype": "noteOff",
        "noteNumber": 105,
        "velocity": 0
      },
      {
        "deltaTime": 17,
        "channel": 3,
        "type": "channel",
        "subtype": "noteOff",
        "noteNumber": 89,
        "velocity": 0
      },
      {
        "deltaTime": 2,
        "channel": 3,
        "type": "channel",
        "noteNumber": 77,
        "velocity": 52,
        "subtype": "noteOn"
      },
      {
        "deltaTime": 17,
        "channel": 3,
        "type": "channel",
        "noteNumber": 89,
        "velocity": 39,
        "subtype": "noteOn"
      },
      {
        "deltaTime": 5,
        "channel": 3,
        "type": "channel",
        "subtype": "noteOff",
        "noteNumber": 77,
        "velocity": 0
      },
      {
        "deltaTime": 53,
        "channel": 3,
        "type": "channel",
        "noteNumber": 101,
        "velocity": 31,
        "subtype": "noteOn"
      },
      {
        "deltaTime": 2,
        "channel": 3,
        "type": "channel",
        "subtype": "noteOff",
        "noteNumber": 89,
        "velocity": 0
      },
      {
        "deltaTime": 7,
        "channel": 3,
        "type": "channel",
        "subtype": "noteOff",
        "noteNumber": 101,
        "velocity": 0
      },
      {
        "deltaTime": 132,
        "channel": 3,
        "type": "channel",
        "noteNumber": 94,
        "velocity": 15,
        "subtype": "noteOn"
      },
      {
        "deltaTime": 12,
        "channel": 3,
        "type": "channel",
        "noteNumber": 96,
        "velocity": 36,
        "subtype": "noteOn"
      },
      {
        "deltaTime": 17,
        "channel": 3,
        "type": "channel",
        "subtype": "noteOff",
        "noteNumber": 94,
        "velocity": 0
      },
      {
        "deltaTime": 22,
        "channel": 3,
        "type": "channel",
        "subtype": "noteOff",
        "noteNumber": 96,
        "velocity": 0
      },
      {
        "deltaTime": 31,
        "channel": 3,
        "type": "channel",
        "noteNumber": 103,
        "velocity": 40,
        "subtype": "noteOn"
      },
      {
        "deltaTime": 22,
        "channel": 3,
        "type": "channel",
        "subtype": "noteOff",
        "noteNumber": 103,
        "velocity": 0
      },
      {
        "deltaTime": 21,
        "channel": 3,
        "type": "channel",
        "noteNumber": 67,
        "velocity": 30,
        "subtype": "noteOn"
      },
      {
        "deltaTime": 0,
        "channel": 3,
        "type": "channel",
        "noteNumber": 65,
        "velocity": 21,
        "subtype": "noteOn"
      },
      {
        "deltaTime": 24,
        "channel": 3,
        "type": "channel",
        "subtype": "noteOff",
        "noteNumber": 65,
        "velocity": 0
      },
      {
        "deltaTime": 0,
        "channel": 3,
        "type": "channel",
        "noteNumber": 84,
        "velocity": 13,
        "subtype": "noteOn"
      },
      {
        "deltaTime": 12,
        "channel": 3,
        "type": "channel",
        "subtype": "noteOff",
        "noteNumber": 84,
        "velocity": 0
      },
      {
        "deltaTime": 24,
        "channel": 3,
        "type": "channel",
        "subtype": "noteOff",
        "noteNumber": 67,
        "velocity": 0
      },
      {
        "deltaTime": 17,
        "channel": 3,
        "type": "channel",
        "noteNumber": 98,
        "velocity": 16,
        "subtype": "noteOn"
      },
      {
        "deltaTime": 24,
        "channel": 3,
        "type": "channel",
        "subtype": "noteOff",
        "noteNumber": 98,
        "velocity": 0
      },
      {
        "deltaTime": 38,
        "channel": 3,
        "type": "channel",
        "noteNumber": 84,
        "velocity": 16,
        "subtype": "noteOn"
      },
      {
        "deltaTime": 56,
        "channel": 3,
        "type": "channel",
        "noteNumber": 96,
        "velocity": 24,
        "subtype": "noteOn"
      },
      {
        "deltaTime": 26,
        "channel": 3,
        "type": "channel",
        "subtype": "noteOff",
        "noteNumber": 84,
        "velocity": 0
      },
      {
        "deltaTime": 29,
        "channel": 3,
        "type": "channel",
        "subtype": "noteOff",
        "noteNumber": 96,
        "velocity": 0
      },
      {
        "deltaTime": 391,
        "channel": 3,
        "type": "channel",
        "noteNumber": 67,
        "velocity": 20,
        "subtype": "noteOn"
      },
      {
        "deltaTime": 19,
        "channel": 3,
        "type": "channel",
        "subtype": "noteOff",
        "noteNumber": 67,
        "velocity": 0
      },
      {
        "deltaTime": 5,
        "channel": 3,
        "type": "channel",
        "noteNumber": 92,
        "velocity": 17,
        "subtype": "noteOn"
      },
      {
        "deltaTime": 0,
        "channel": 3,
        "type": "channel",
        "noteNumber": 68,
        "velocity": 34,
        "subtype": "noteOn"
      },
      {
        "deltaTime": 10,
        "channel": 3,
        "type": "channel",
        "subtype": "noteOff",
        "noteNumber": 92,
        "velocity": 0
      },
      {
        "deltaTime": 52,
        "channel": 3,
        "type": "channel",
        "subtype": "noteOff",
        "noteNumber": 68,
        "velocity": 0
      },
      {
        "deltaTime": 77,
        "channel": 3,
        "type": "channel",
        "noteNumber": 49,
        "velocity": 30,
        "subtype": "noteOn"
      },
      {
        "deltaTime": 10,
        "channel": 3,
        "type": "channel",
        "noteNumber": 105,
        "velocity": 23,
        "subtype": "noteOn"
      },
      {
        "deltaTime": 21,
        "channel": 3,
        "type": "channel",
        "subtype": "noteOff",
        "noteNumber": 105,
        "velocity": 0
      },
      {
        "deltaTime": 60,
        "channel": 3,
        "type": "channel",
        "subtype": "noteOff",
        "noteNumber": 49,
        "velocity": 0
      },
      {
        "deltaTime": 17,
        "channel": 3,
        "type": "channel",
        "noteNumber": 63,
        "velocity": 44,
        "subtype": "noteOn"
      },
      {
        "deltaTime": 29,
        "channel": 3,
        "type": "channel",
        "subtype": "noteOff",
        "noteNumber": 63,
        "velocity": 0
      },
      {
        "deltaTime": 235,
        "channel": 3,
        "type": "channel",
        "noteNumber": 36,
        "velocity": 16,
        "subtype": "noteOn"
      },
      {
        "deltaTime": 27,
        "channel": 3,
        "type": "channel",
        "subtype": "noteOff",
        "noteNumber": 36,
        "velocity": 0
      },
      {
        "deltaTime": 40,
        "channel": 3,
        "type": "channel",
        "noteNumber": 79,
        "velocity": 25,
        "subtype": "noteOn"
      },
      {
        "deltaTime": 12,
        "channel": 3,
        "type": "channel",
        "noteNumber": 103,
        "velocity": 47,
        "subtype": "noteOn"
      },
      {
        "deltaTime": 3,
        "channel": 3,
        "type": "channel",
        "subtype": "noteOff",
        "noteNumber": 79,
        "velocity": 0
      },
      {
        "deltaTime": 7,
        "channel": 3,
        "type": "channel",
        "subtype": "noteOff",
        "noteNumber": 103,
        "velocity": 0
      },
      {
        "deltaTime": 259,
        "channel": 3,
        "type": "channel",
        "noteNumber": 101,
        "velocity": 17,
        "subtype": "noteOn"
      },
      {
        "deltaTime": 39,
        "channel": 3,
        "type": "channel",
        "subtype": "noteOff",
        "noteNumber": 101,
        "velocity": 0
      },
      {
        "deltaTime": 206,
        "channel": 3,
        "type": "channel",
        "noteNumber": 105,
        "velocity": 41,
        "subtype": "noteOn"
      },
      {
        "deltaTime": 55,
        "channel": 3,
        "type": "channel",
        "subtype": "noteOff",
        "noteNumber": 105,
        "velocity": 0
      },
      {
        "deltaTime": 17,
        "channel": 3,
        "type": "channel",
        "noteNumber": 77,
        "velocity": 30,
        "subtype": "noteOn"
      },
      {
        "deltaTime": 22,
        "channel": 3,
        "type": "channel",
        "subtype": "noteOff",
        "noteNumber": 77,
        "velocity": 0
      },
      {
        "deltaTime": 259,
        "channel": 3,
        "type": "channel",
        "noteNumber": 75,
        "velocity": 15,
        "subtype": "noteOn"
      },
      {
        "deltaTime": 19,
        "channel": 3,
        "type": "channel",
        "subtype": "noteOff",
        "noteNumber": 75,
        "velocity": 0
      },
      {
        "deltaTime": 19,
        "channel": 3,
        "type": "channel",
        "noteNumber": 89,
        "velocity": 37,
        "subtype": "noteOn"
      },
      {
        "deltaTime": 41,
        "channel": 3,
        "type": "channel",
        "subtype": "noteOff",
        "noteNumber": 89,
        "velocity": 0
      },
      {
        "deltaTime": 2,
        "channel": 3,
        "type": "channel",
        "noteNumber": 89,
        "velocity": 41,
        "subtype": "noteOn"
      },
      {
        "deltaTime": 15,
        "channel": 3,
        "type": "channel",
        "subtype": "noteOff",
        "noteNumber": 89,
        "velocity": 0
      },
      {
        "deltaTime": 165,
        "channel": 3,
        "type": "channel",
        "noteNumber": 94,
        "velocity": 46,
        "subtype": "noteOn"
      },
      {
        "deltaTime": 53,
        "channel": 3,
        "type": "channel",
        "noteNumber": 103,
        "velocity": 11,
        "subtype": "noteOn"
      },
      {
        "deltaTime": 27,
        "channel": 3,
        "type": "channel",
        "subtype": "noteOff",
        "noteNumber": 103,
        "velocity": 0
      },
      {
        "deltaTime": 0,
        "channel": 3,
        "type": "channel",
        "noteNumber": 36,
        "velocity": 14,
        "subtype": "noteOn"
      },
      {
        "deltaTime": 9,
        "channel": 3,
        "type": "channel",
        "subtype": "noteOff",
        "noteNumber": 36,
        "velocity": 0
      },
      {
        "deltaTime": 19,
        "channel": 3,
        "type": "channel",
        "noteNumber": 79,
        "velocity": 13,
        "subtype": "noteOn"
      },
      {
        "deltaTime": 3,
        "channel": 3,
        "type": "channel",
        "subtype": "noteOff",
        "noteNumber": 94,
        "velocity": 0
      },
      {
        "deltaTime": 12,
        "channel": 3,
        "type": "channel",
        "subtype": "noteOff",
        "noteNumber": 79,
        "velocity": 0
      },
      {
        "deltaTime": 12,
        "channel": 3,
        "type": "channel",
        "noteNumber": 103,
        "velocity": 42,
        "subtype": "noteOn"
      },
      {
        "deltaTime": 21,
        "channel": 3,
        "type": "channel",
        "subtype": "noteOff",
        "noteNumber": 103,
        "velocity": 0
      },
      {
        "deltaTime": 63,
        "channel": 3,
        "type": "channel",
        "noteNumber": 103,
        "velocity": 28,
        "subtype": "noteOn"
      },
      {
        "deltaTime": 14,
        "channel": 3,
        "type": "channel",
        "subtype": "noteOff",
        "noteNumber": 103,
        "velocity": 0
      },
      {
        "deltaTime": 418,
        "channel": 3,
        "type": "channel",
        "noteNumber": 92,
        "velocity": 30,
        "subtype": "noteOn"
      },
      {
        "deltaTime": 24,
        "channel": 3,
        "type": "channel",
        "noteNumber": 80,
        "velocity": 39,
        "subtype": "noteOn"
      },
      {
        "deltaTime": 7,
        "channel": 3,
        "type": "channel",
        "subtype": "noteOff",
        "noteNumber": 92,
        "velocity": 0
      },
      {
        "deltaTime": 43,
        "channel": 3,
        "type": "channel",
        "subtype": "noteOff",
        "noteNumber": 80,
        "velocity": 0
      },
      {
        "deltaTime": 3,
        "channel": 3,
        "type": "channel",
        "noteNumber": 87,
        "velocity": 24,
        "subtype": "noteOn"
      },
      {
        "deltaTime": 43,
        "channel": 3,
        "type": "channel",
        "subtype": "noteOff",
        "noteNumber": 87,
        "velocity": 0
      },
      {
        "deltaTime": 55,
        "channel": 3,
        "type": "channel",
        "noteNumber": 99,
        "velocity": 11,
        "subtype": "noteOn"
      },
      {
        "deltaTime": 17,
        "channel": 3,
        "type": "channel",
        "subtype": "noteOff",
        "noteNumber": 99,
        "velocity": 0
      },
      {
        "deltaTime": 41,
        "channel": 3,
        "type": "channel",
        "noteNumber": 79,
        "velocity": 30,
        "subtype": "noteOn"
      },
      {
        "deltaTime": 9,
        "channel": 3,
        "type": "channel",
        "noteNumber": 68,
        "velocity": 15,
        "subtype": "noteOn"
      },
      {
        "deltaTime": 15,
        "channel": 3,
        "type": "channel",
        "subtype": "noteOff",
        "noteNumber": 68,
        "velocity": 0
      },
      {
        "deltaTime": 33,
        "channel": 3,
        "type": "channel",
        "subtype": "noteOff",
        "noteNumber": 79,
        "velocity": 0
      },
      {
        "deltaTime": 29,
        "channel": 3,
        "type": "channel",
        "noteNumber": 84,
        "velocity": 19,
        "subtype": "noteOn"
      },
      {
        "deltaTime": 53,
        "channel": 3,
        "type": "channel",
        "noteNumber": 105,
        "velocity": 31,
        "subtype": "noteOn"
      },
      {
        "deltaTime": 19,
        "channel": 3,
        "type": "channel",
        "subtype": "noteOff",
        "noteNumber": 84,
        "velocity": 0
      },
      {
        "deltaTime": 12,
        "channel": 3,
        "type": "channel",
        "noteNumber": 89,
        "velocity": 24,
        "subtype": "noteOn"
      },
      {
        "deltaTime": 48,
        "channel": 3,
        "type": "channel",
        "subtype": "noteOff",
        "noteNumber": 89,
        "velocity": 0
      },
      {
        "deltaTime": 12,
        "channel": 3,
        "type": "channel",
        "subtype": "noteOff",
        "noteNumber": 105,
        "velocity": 0
      },
      {
        "deltaTime": 29,
        "channel": 3,
        "type": "channel",
        "noteNumber": 105,
        "velocity": 14,
        "subtype": "noteOn"
      },
      {
        "deltaTime": 50,
        "channel": 3,
        "type": "channel",
        "subtype": "noteOff",
        "noteNumber": 105,
        "velocity": 0
      },
      {
        "deltaTime": 46,
        "channel": 3,
        "type": "channel",
        "noteNumber": 63,
        "velocity": 31,
        "subtype": "noteOn"
      },
      {
        "deltaTime": 113,
        "channel": 3,
        "type": "channel",
        "noteNumber": 36,
        "velocity": 16,
        "subtype": "noteOn"
      },
      {
        "deltaTime": 9,
        "channel": 3,
        "type": "channel",
        "subtype": "noteOff",
        "noteNumber": 36,
        "velocity": 0
      },
      {
        "deltaTime": 24,
        "channel": 3,
        "type": "channel",
        "subtype": "noteOff",
        "noteNumber": 63,
        "velocity": 0
      },
      {
        "deltaTime": 31,
        "channel": 3,
        "type": "channel",
        "noteNumber": 79,
        "velocity": 18,
        "subtype": "noteOn"
      },
      {
        "deltaTime": 17,
        "channel": 3,
        "type": "channel",
        "subtype": "noteOff",
        "noteNumber": 79,
        "velocity": 0
      },
      {
        "deltaTime": 31,
        "channel": 3,
        "type": "channel",
        "noteNumber": 65,
        "velocity": 17,
        "subtype": "noteOn"
      },
      {
        "deltaTime": 17,
        "channel": 3,
        "type": "channel",
        "subtype": "noteOff",
        "noteNumber": 65,
        "velocity": 0
      },
      {
        "deltaTime": 77,
        "channel": 3,
        "type": "channel",
        "noteNumber": 84,
        "velocity": 19,
        "subtype": "noteOn"
      },
      {
        "deltaTime": 12,
        "channel": 3,
        "type": "channel",
        "noteNumber": 98,
        "velocity": 22,
        "subtype": "noteOn"
      },
      {
        "deltaTime": 10,
        "channel": 3,
        "type": "channel",
        "subtype": "noteOff",
        "noteNumber": 84,
        "velocity": 0
      },
      {
        "deltaTime": 14,
        "channel": 3,
        "type": "channel",
        "subtype": "noteOff",
        "noteNumber": 98,
        "velocity": 0
      },
      {
        "deltaTime": 106,
        "channel": 3,
        "type": "channel",
        "noteNumber": 77,
        "velocity": 27,
        "subtype": "noteOn"
      },
      {
        "deltaTime": 21,
        "channel": 3,
        "type": "channel",
        "subtype": "noteOff",
        "noteNumber": 77,
        "velocity": 0
      },
      {
        "deltaTime": 15,
        "channel": 3,
        "type": "channel",
        "noteNumber": 77,
        "velocity": 37,
        "subtype": "noteOn"
      },
      {
        "deltaTime": 19,
        "channel": 3,
        "type": "channel",
        "subtype": "noteOff",
        "noteNumber": 77,
        "velocity": 0
      },
      {
        "deltaTime": 33,
        "channel": 3,
        "type": "channel",
        "noteNumber": 89,
        "velocity": 47,
        "subtype": "noteOn"
      },
      {
        "deltaTime": 17,
        "channel": 3,
        "type": "channel",
        "subtype": "noteOff",
        "noteNumber": 89,
        "velocity": 0
      },
      {
        "deltaTime": 84,
        "channel": 3,
        "type": "channel",
        "noteNumber": 70,
        "velocity": 51,
        "subtype": "noteOn"
      },
      {
        "deltaTime": 113,
        "channel": 3,
        "type": "channel",
        "subtype": "noteOff",
        "noteNumber": 70,
        "velocity": 0
      },
      {
        "deltaTime": 31,
        "channel": 3,
        "type": "channel",
        "noteNumber": 41,
        "velocity": 36,
        "subtype": "noteOn"
      },
      {
        "deltaTime": 10,
        "channel": 3,
        "type": "channel",
        "subtype": "noteOff",
        "noteNumber": 41,
        "velocity": 0
      },
      {
        "deltaTime": 62,
        "channel": 3,
        "type": "channel",
        "noteNumber": 67,
        "velocity": 22,
        "subtype": "noteOn"
      },
      {
        "deltaTime": 17,
        "channel": 3,
        "type": "channel",
        "subtype": "noteOff",
        "noteNumber": 67,
        "velocity": 0
      },
      {
        "deltaTime": 53,
        "channel": 3,
        "type": "channel",
        "noteNumber": 105,
        "velocity": 14,
        "subtype": "noteOn"
      },
      {
        "deltaTime": 26,
        "channel": 3,
        "type": "channel",
        "subtype": "noteOff",
        "noteNumber": 105,
        "velocity": 0
      },
      {
        "deltaTime": 0,
        "type": "meta",
        "subtype": "endOfTrack"
      }
    ],
    [
      {
        "deltaTime": 24124,
        "channel": 3,
        "type": "channel",
        "noteNumber": 47,
        "velocity": 19,
        "subtype": "noteOn"
      },
      {
        "deltaTime": 60,
        "channel": 3,
        "type": "channel",
        "subtype": "noteOff",
        "noteNumber": 47,
        "velocity": 0
      },
      {
        "deltaTime": 6418,
        "channel": 3,
        "type": "channel",
        "noteNumber": 52,
        "velocity": 13,
        "subtype": "noteOn"
      },
      {
        "deltaTime": 21,
        "channel": 3,
        "type": "channel",
        "subtype": "noteOff",
        "noteNumber": 52,
        "velocity": 0
      },
      {
        "deltaTime": 238,
        "channel": 3,
        "type": "channel",
        "noteNumber": 74,
        "velocity": 14,
        "subtype": "noteOn"
      },
      {
        "deltaTime": 41,
        "channel": 3,
        "type": "channel",
        "subtype": "noteOff",
        "noteNumber": 74,
        "velocity": 0
      },
      {
        "deltaTime": 1243,
        "channel": 3,
        "type": "channel",
        "noteNumber": 85,
        "velocity": 13,
        "subtype": "noteOn"
      },
      {
        "deltaTime": 36,
        "channel": 3,
        "type": "channel",
        "subtype": "noteOff",
        "noteNumber": 85,
        "velocity": 0
      },
      {
        "deltaTime": 14,
        "channel": 3,
        "type": "channel",
        "noteNumber": 83,
        "velocity": 13,
        "subtype": "noteOn"
      },
      {
        "deltaTime": 27,
        "channel": 3,
        "type": "channel",
        "subtype": "noteOff",
        "noteNumber": 83,
        "velocity": 0
      },
      {
        "deltaTime": 55,
        "channel": 3,
        "type": "channel",
        "noteNumber": 32,
        "velocity": 12,
        "subtype": "noteOn"
      },
      {
        "deltaTime": 31,
        "channel": 3,
        "type": "channel",
        "subtype": "noteOff",
        "noteNumber": 32,
        "velocity": 0
      },
      {
        "deltaTime": 46,
        "channel": 3,
        "type": "channel",
        "noteNumber": 76,
        "velocity": 17,
        "subtype": "noteOn"
      },
      {
        "deltaTime": 50,
        "channel": 3,
        "type": "channel",
        "subtype": "noteOff",
        "noteNumber": 76,
        "velocity": 0
      },
      {
        "deltaTime": 7,
        "channel": 3,
        "type": "channel",
        "noteNumber": 59,
        "velocity": 11,
        "subtype": "noteOn"
      },
      {
        "deltaTime": 53,
        "channel": 3,
        "type": "channel",
        "subtype": "noteOff",
        "noteNumber": 59,
        "velocity": 0
      },
      {
        "deltaTime": 36,
        "channel": 3,
        "type": "channel",
        "noteNumber": 36,
        "velocity": 25,
        "subtype": "noteOn"
      },
      {
        "deltaTime": 15,
        "channel": 3,
        "type": "channel",
        "subtype": "noteOff",
        "noteNumber": 36,
        "velocity": 0
      },
      {
        "deltaTime": 756,
        "channel": 3,
        "type": "channel",
        "noteNumber": 69,
        "velocity": 11,
        "subtype": "noteOn"
      },
      {
        "deltaTime": 31,
        "channel": 3,
        "type": "channel",
        "subtype": "noteOff",
        "noteNumber": 69,
        "velocity": 0
      },
      {
        "deltaTime": 314,
        "channel": 3,
        "type": "channel",
        "noteNumber": 36,
        "velocity": 12,
        "subtype": "noteOn"
      },
      {
        "deltaTime": 22,
        "channel": 3,
        "type": "channel",
        "subtype": "noteOff",
        "noteNumber": 36,
        "velocity": 0
      },
      {
        "deltaTime": 0,
        "channel": 3,
        "type": "channel",
        "noteNumber": 32,
        "velocity": 21,
        "subtype": "noteOn"
      },
      {
        "deltaTime": 17,
        "channel": 3,
        "type": "channel",
        "subtype": "noteOff",
        "noteNumber": 32,
        "velocity": 0
      },
      {
        "deltaTime": 43,
        "channel": 3,
        "type": "channel",
        "noteNumber": 36,
        "velocity": 19,
        "subtype": "noteOn"
      },
      {
        "deltaTime": 31,
        "channel": 3,
        "type": "channel",
        "subtype": "noteOff",
        "noteNumber": 36,
        "velocity": 0
      },
      {
        "deltaTime": 629,
        "channel": 3,
        "type": "channel",
        "noteNumber": 54,
        "velocity": 15,
        "subtype": "noteOn"
      },
      {
        "deltaTime": 24,
        "channel": 3,
        "type": "channel",
        "subtype": "noteOff",
        "noteNumber": 54,
        "velocity": 0
      },
      {
        "deltaTime": 331,
        "channel": 3,
        "type": "channel",
        "noteNumber": 81,
        "velocity": 16,
        "subtype": "noteOn"
      },
      {
        "deltaTime": 26,
        "channel": 3,
        "type": "channel",
        "subtype": "noteOff",
        "noteNumber": 81,
        "velocity": 0
      },
      {
        "deltaTime": 185,
        "channel": 3,
        "type": "channel",
        "noteNumber": 59,
        "velocity": 15,
        "subtype": "noteOn"
      },
      {
        "deltaTime": 17,
        "channel": 3,
        "type": "channel",
        "subtype": "noteOff",
        "noteNumber": 59,
        "velocity": 0
      },
      {
        "deltaTime": 103,
        "channel": 3,
        "type": "channel",
        "noteNumber": 90,
        "velocity": 28,
        "subtype": "noteOn"
      },
      {
        "deltaTime": 17,
        "channel": 3,
        "type": "channel",
        "subtype": "noteOff",
        "noteNumber": 90,
        "velocity": 0
      },
      {
        "deltaTime": 475,
        "channel": 3,
        "type": "channel",
        "noteNumber": 36,
        "velocity": 18,
        "subtype": "noteOn"
      },
      {
        "deltaTime": 29,
        "channel": 3,
        "type": "channel",
        "subtype": "noteOff",
        "noteNumber": 36,
        "velocity": 0
      },
      {
        "deltaTime": 7,
        "channel": 3,
        "type": "channel",
        "noteNumber": 40,
        "velocity": 15,
        "subtype": "noteOn"
      },
      {
        "deltaTime": 15,
        "channel": 3,
        "type": "channel",
        "subtype": "noteOff",
        "noteNumber": 40,
        "velocity": 0
      },
      {
        "deltaTime": 616,
        "channel": 3,
        "type": "channel",
        "noteNumber": 59,
        "velocity": 19,
        "subtype": "noteOn"
      },
      {
        "deltaTime": 22,
        "channel": 3,
        "type": "channel",
        "subtype": "noteOff",
        "noteNumber": 59,
        "velocity": 0
      },
      {
        "deltaTime": 2,
        "channel": 3,
        "type": "channel",
        "noteNumber": 69,
        "velocity": 18,
        "subtype": "noteOn"
      },
      {
        "deltaTime": 53,
        "channel": 3,
        "type": "channel",
        "noteNumber": 81,
        "velocity": 13,
        "subtype": "noteOn"
      },
      {
        "deltaTime": 12,
        "channel": 3,
        "type": "channel",
        "noteNumber": 78,
        "velocity": 14,
        "subtype": "noteOn"
      },
      {
        "deltaTime": 7,
        "channel": 3,
        "type": "channel",
        "subtype": "noteOff",
        "noteNumber": 69,
        "velocity": 0
      },
      {
        "deltaTime": 3,
        "channel": 3,
        "type": "channel",
        "subtype": "noteOff",
        "noteNumber": 81,
        "velocity": 0
      },
      {
        "deltaTime": 33,
        "channel": 3,
        "type": "channel",
        "subtype": "noteOff",
        "noteNumber": 78,
        "velocity": 0
      },
      {
        "deltaTime": 108,
        "channel": 3,
        "type": "channel",
        "noteNumber": 45,
        "velocity": 10,
        "subtype": "noteOn"
      },
      {
        "deltaTime": 58,
        "channel": 3,
        "type": "channel",
        "subtype": "noteOff",
        "noteNumber": 45,
        "velocity": 0
      },
      {
        "deltaTime": 979,
        "channel": 3,
        "type": "channel",
        "noteNumber": 57,
        "velocity": 21,
        "subtype": "noteOn"
      },
      {
        "deltaTime": 19,
        "channel": 3,
        "type": "channel",
        "subtype": "noteOff",
        "noteNumber": 57,
        "velocity": 0
      },
      {
        "deltaTime": 605,
        "channel": 3,
        "type": "channel",
        "noteNumber": 54,
        "velocity": 13,
        "subtype": "noteOn"
      },
      {
        "deltaTime": 34,
        "channel": 3,
        "type": "channel",
        "subtype": "noteOff",
        "noteNumber": 54,
        "velocity": 0
      },
      {
        "deltaTime": 590,
        "channel": 3,
        "type": "channel",
        "noteNumber": 71,
        "velocity": 16,
        "subtype": "noteOn"
      },
      {
        "deltaTime": 43,
        "channel": 3,
        "type": "channel",
        "subtype": "noteOff",
        "noteNumber": 71,
        "velocity": 0
      },
      {
        "deltaTime": 0,
        "channel": 3,
        "type": "channel",
        "noteNumber": 69,
        "velocity": 19,
        "subtype": "noteOn"
      },
      {
        "deltaTime": 41,
        "channel": 3,
        "type": "channel",
        "noteNumber": 59,
        "velocity": 13,
        "subtype": "noteOn"
      },
      {
        "deltaTime": 15,
        "channel": 3,
        "type": "channel",
        "subtype": "noteOff",
        "noteNumber": 59,
        "velocity": 0
      },
      {
        "deltaTime": 31,
        "channel": 3,
        "type": "channel",
        "subtype": "noteOff",
        "noteNumber": 69,
        "velocity": 0
      },
      {
        "deltaTime": 540,
        "channel": 3,
        "type": "channel",
        "noteNumber": 54,
        "velocity": 16,
        "subtype": "noteOn"
      },
      {
        "deltaTime": 21,
        "channel": 3,
        "type": "channel",
        "subtype": "noteOff",
        "noteNumber": 54,
        "velocity": 0
      },
      {
        "deltaTime": 36,
        "channel": 3,
        "type": "channel",
        "noteNumber": 36,
        "velocity": 12,
        "subtype": "noteOn"
      },
      {
        "deltaTime": 36,
        "channel": 3,
        "type": "channel",
        "subtype": "noteOff",
        "noteNumber": 36,
        "velocity": 0
      },
      {
        "deltaTime": 516,
        "channel": 3,
        "type": "channel",
        "noteNumber": 81,
        "velocity": 21,
        "subtype": "noteOn"
      },
      {
        "deltaTime": 82,
        "channel": 3,
        "type": "channel",
        "subtype": "noteOff",
        "noteNumber": 81,
        "velocity": 0
      },
      {
        "deltaTime": 79,
        "channel": 3,
        "type": "channel",
        "noteNumber": 76,
        "velocity": 14,
        "subtype": "noteOn"
      },
      {
        "deltaTime": 12,
        "channel": 3,
        "type": "channel",
        "subtype": "noteOff",
        "noteNumber": 76,
        "velocity": 0
      },
      {
        "deltaTime": 497,
        "channel": 3,
        "type": "channel",
        "noteNumber": 81,
        "velocity": 20,
        "subtype": "noteOn"
      },
      {
        "deltaTime": 19,
        "channel": 3,
        "type": "channel",
        "noteNumber": 35,
        "velocity": 19,
        "subtype": "noteOn"
      },
      {
        "deltaTime": 19,
        "channel": 3,
        "type": "channel",
        "subtype": "noteOff",
        "noteNumber": 35,
        "velocity": 0
      },
      {
        "deltaTime": 27,
        "channel": 3,
        "type": "channel",
        "subtype": "noteOff",
        "noteNumber": 81,
        "velocity": 0
      },
      {
        "deltaTime": 554,
        "channel": 3,
        "type": "channel",
        "noteNumber": 36,
        "velocity": 12,
        "subtype": "noteOn"
      },
      {
        "deltaTime": 5,
        "channel": 3,
        "type": "channel",
        "noteNumber": 78,
        "velocity": 17,
        "subtype": "noteOn"
      },
      {
        "deltaTime": 17,
        "channel": 3,
        "type": "channel",
        "subtype": "noteOff",
        "noteNumber": 36,
        "velocity": 0
      },
      {
        "deltaTime": 19,
        "channel": 3,
        "type": "channel",
        "subtype": "noteOff",
        "noteNumber": 78,
        "velocity": 0
      },
      {
        "deltaTime": 38,
        "channel": 3,
        "type": "channel",
        "noteNumber": 36,
        "velocity": 20,
        "subtype": "noteOn"
      },
      {
        "deltaTime": 32,
        "channel": 3,
        "type": "channel",
        "subtype": "noteOff",
        "noteNumber": 36,
        "velocity": 0
      },
      {
        "deltaTime": 204,
        "channel": 3,
        "type": "channel",
        "noteNumber": 80,
        "velocity": 10,
        "subtype": "noteOn"
      },
      {
        "deltaTime": 14,
        "channel": 3,
        "type": "channel",
        "subtype": "noteOff",
        "noteNumber": 80,
        "velocity": 0
      },
      {
        "deltaTime": 6410,
        "channel": 3,
        "type": "channel",
        "noteNumber": 91,
        "velocity": 17,
        "subtype": "noteOn"
      },
      {
        "deltaTime": 68,
        "channel": 3,
        "type": "channel",
        "noteNumber": 104,
        "velocity": 39,
        "subtype": "noteOn"
      },
      {
        "deltaTime": 36,
        "channel": 3,
        "type": "channel",
        "subtype": "noteOff",
        "noteNumber": 91,
        "velocity": 0
      },
      {
        "deltaTime": 9,
        "channel": 3,
        "type": "channel",
        "noteNumber": 76,
        "velocity": 15,
        "subtype": "noteOn"
      },
      {
        "deltaTime": 19,
        "channel": 3,
        "type": "channel",
        "subtype": "noteOff",
        "noteNumber": 76,
        "velocity": 0
      },
      {
        "deltaTime": 17,
        "channel": 3,
        "type": "channel",
        "subtype": "noteOff",
        "noteNumber": 104,
        "velocity": 0
      },
      {
        "deltaTime": 22,
        "channel": 3,
        "type": "channel",
        "noteNumber": 104,
        "velocity": 34,
        "subtype": "noteOn"
      },
      {
        "deltaTime": 45,
        "channel": 3,
        "type": "channel",
        "subtype": "noteOff",
        "noteNumber": 104,
        "velocity": 0
      },
      {
        "deltaTime": 104,
        "channel": 3,
        "type": "channel",
        "noteNumber": 91,
        "velocity": 10,
        "subtype": "noteOn"
      },
      {
        "deltaTime": 64,
        "channel": 3,
        "type": "channel",
        "noteNumber": 101,
        "velocity": 35,
        "subtype": "noteOn"
      },
      {
        "deltaTime": 3,
        "channel": 3,
        "type": "channel",
        "subtype": "noteOff",
        "noteNumber": 91,
        "velocity": 0
      },
      {
        "deltaTime": 50,
        "channel": 3,
        "type": "channel",
        "subtype": "noteOff",
        "noteNumber": 101,
        "velocity": 0
      },
      {
        "deltaTime": 252,
        "channel": 3,
        "type": "channel",
        "noteNumber": 38,
        "velocity": 18,
        "subtype": "noteOn"
      },
      {
        "deltaTime": 55,
        "channel": 3,
        "type": "channel",
        "noteNumber": 36,
        "velocity": 17,
        "subtype": "noteOn"
      },
      {
        "deltaTime": 8,
        "channel": 3,
        "type": "channel",
        "subtype": "noteOff",
        "noteNumber": 38,
        "velocity": 0
      },
      {
        "deltaTime": 2,
        "channel": 3,
        "type": "channel",
        "subtype": "noteOff",
        "noteNumber": 36,
        "velocity": 0
      },
      {
        "deltaTime": 14,
        "channel": 3,
        "type": "channel",
        "noteNumber": 69,
        "velocity": 12,
        "subtype": "noteOn"
      },
      {
        "deltaTime": 15,
        "channel": 3,
        "type": "channel",
        "subtype": "noteOff",
        "noteNumber": 69,
        "velocity": 0
      },
      {
        "deltaTime": 14,
        "channel": 3,
        "type": "channel",
        "noteNumber": 42,
        "velocity": 12,
        "subtype": "noteOn"
      },
      {
        "deltaTime": 22,
        "channel": 3,
        "type": "channel",
        "subtype": "noteOff",
        "noteNumber": 42,
        "velocity": 0
      },
      {
        "deltaTime": 60,
        "channel": 3,
        "type": "channel",
        "noteNumber": 86,
        "velocity": 21,
        "subtype": "noteOn"
      },
      {
        "deltaTime": 31,
        "channel": 3,
        "type": "channel",
        "noteNumber": 48,
        "velocity": 21,
        "subtype": "noteOn"
      },
      {
        "deltaTime": 29,
        "channel": 3,
        "type": "channel",
        "subtype": "noteOff",
        "noteNumber": 86,
        "velocity": 0
      },
      {
        "deltaTime": 9,
        "channel": 3,
        "type": "channel",
        "subtype": "noteOff",
        "noteNumber": 48,
        "velocity": 0
      },
      {
        "deltaTime": 89,
        "channel": 3,
        "type": "channel",
        "noteNumber": 93,
        "velocity": 11,
        "subtype": "noteOn"
      },
      {
        "deltaTime": 17,
        "channel": 3,
        "type": "channel",
        "subtype": "noteOff",
        "noteNumber": 93,
        "velocity": 0
      },
      {
        "deltaTime": 228,
        "channel": 3,
        "type": "channel",
        "noteNumber": 91,
        "velocity": 15,
        "subtype": "noteOn"
      },
      {
        "deltaTime": 41,
        "channel": 3,
        "type": "channel",
        "noteNumber": 74,
        "velocity": 11,
        "subtype": "noteOn"
      },
      {
        "deltaTime": 31,
        "channel": 3,
        "type": "channel",
        "subtype": "noteOff",
        "noteNumber": 74,
        "velocity": 0
      },
      {
        "deltaTime": 31,
        "channel": 3,
        "type": "channel",
        "subtype": "noteOff",
        "noteNumber": 91,
        "velocity": 0
      },
      {
        "deltaTime": 22,
        "channel": 3,
        "type": "channel",
        "noteNumber": 104,
        "velocity": 35,
        "subtype": "noteOn"
      },
      {
        "deltaTime": 21,
        "channel": 3,
        "type": "channel",
        "subtype": "noteOff",
        "noteNumber": 104,
        "velocity": 0
      },
      {
        "deltaTime": 27,
        "channel": 3,
        "type": "channel",
        "noteNumber": 104,
        "velocity": 12,
        "subtype": "noteOn"
      },
      {
        "deltaTime": 36,
        "channel": 3,
        "type": "channel",
        "subtype": "noteOff",
        "noteNumber": 104,
        "velocity": 0
      },
      {
        "deltaTime": 177,
        "channel": 3,
        "type": "channel",
        "noteNumber": 93,
        "velocity": 29,
        "subtype": "noteOn"
      },
      {
        "deltaTime": 22,
        "channel": 3,
        "type": "channel",
        "subtype": "noteOff",
        "noteNumber": 93,
        "velocity": 0
      },
      {
        "deltaTime": 31,
        "channel": 3,
        "type": "channel",
        "noteNumber": 77,
        "velocity": 14,
        "subtype": "noteOn"
      },
      {
        "deltaTime": 19,
        "channel": 3,
        "type": "channel",
        "subtype": "noteOff",
        "noteNumber": 77,
        "velocity": 0
      },
      {
        "deltaTime": 27,
        "channel": 3,
        "type": "channel",
        "noteNumber": 105,
        "velocity": 35,
        "subtype": "noteOn"
      },
      {
        "deltaTime": 26,
        "channel": 3,
        "type": "channel",
        "subtype": "noteOff",
        "noteNumber": 105,
        "velocity": 0
      },
      {
        "deltaTime": 178,
        "channel": 3,
        "type": "channel",
        "noteNumber": 105,
        "velocity": 21,
        "subtype": "noteOn"
      },
      {
        "deltaTime": 14,
        "channel": 3,
        "type": "channel",
        "subtype": "noteOff",
        "noteNumber": 105,
        "velocity": 0
      },
      {
        "deltaTime": 15,
        "channel": 3,
        "type": "channel",
        "noteNumber": 65,
        "velocity": 23,
        "subtype": "noteOn"
      },
      {
        "deltaTime": 33,
        "channel": 3,
        "type": "channel",
        "subtype": "noteOff",
        "noteNumber": 65,
        "velocity": 0
      },
      {
        "deltaTime": 588,
        "channel": 3,
        "type": "channel",
        "noteNumber": 76,
        "velocity": 16,
        "subtype": "noteOn"
      },
      {
        "deltaTime": 15,
        "channel": 3,
        "type": "channel",
        "subtype": "noteOff",
        "noteNumber": 76,
        "velocity": 0
      },
      {
        "deltaTime": 0,
        "channel": 3,
        "type": "channel",
        "noteNumber": 64,
        "velocity": 39,
        "subtype": "noteOn"
      },
      {
        "deltaTime": 19,
        "channel": 3,
        "type": "channel",
        "noteNumber": 104,
        "velocity": 34,
        "subtype": "noteOn"
      },
      {
        "deltaTime": 12,
        "channel": 3,
        "type": "channel",
        "subtype": "noteOff",
        "noteNumber": 104,
        "velocity": 0
      },
      {
        "deltaTime": 41,
        "channel": 3,
        "type": "channel",
        "subtype": "noteOff",
        "noteNumber": 64,
        "velocity": 0
      },
      {
        "deltaTime": 14,
        "channel": 3,
        "type": "channel",
        "noteNumber": 91,
        "velocity": 22,
        "subtype": "noteOn"
      },
      {
        "deltaTime": 26,
        "channel": 3,
        "type": "channel",
        "subtype": "noteOff",
        "noteNumber": 91,
        "velocity": 0
      },
      {
        "deltaTime": 214,
        "channel": 3,
        "type": "channel",
        "noteNumber": 81,
        "velocity": 13,
        "subtype": "noteOn"
      },
      {
        "deltaTime": 22,
        "channel": 3,
        "type": "channel",
        "subtype": "noteOff",
        "noteNumber": 81,
        "velocity": 0
      },
      {
        "deltaTime": 16,
        "channel": 3,
        "type": "channel",
        "noteNumber": 50,
        "velocity": 23,
        "subtype": "noteOn"
      },
      {
        "deltaTime": 68,
        "channel": 3,
        "type": "channel",
        "subtype": "noteOff",
        "noteNumber": 50,
        "velocity": 0
      },
      {
        "deltaTime": 300,
        "channel": 3,
        "type": "channel",
        "noteNumber": 48,
        "velocity": 19,
        "subtype": "noteOn"
      },
      {
        "deltaTime": 45,
        "channel": 3,
        "type": "channel",
        "subtype": "noteOff",
        "noteNumber": 48,
        "velocity": 0
      },
      {
        "deltaTime": 111,
        "channel": 3,
        "type": "channel",
        "noteNumber": 70,
        "velocity": 17,
        "subtype": "noteOn"
      },
      {
        "deltaTime": 9,
        "channel": 3,
        "type": "channel",
        "noteNumber": 105,
        "velocity": 10,
        "subtype": "noteOn"
      },
      {
        "deltaTime": 34,
        "channel": 3,
        "type": "channel",
        "noteNumber": 34,
        "velocity": 25,
        "subtype": "noteOn"
      },
      {
        "deltaTime": 2,
        "channel": 3,
        "type": "channel",
        "subtype": "noteOff",
        "noteNumber": 105,
        "velocity": 0
      },
      {
        "deltaTime": 22,
        "channel": 3,
        "type": "channel",
        "subtype": "noteOff",
        "noteNumber": 70,
        "velocity": 0
      },
      {
        "deltaTime": 26,
        "channel": 3,
        "type": "channel",
        "noteNumber": 105,
        "velocity": 18,
        "subtype": "noteOn"
      },
      {
        "deltaTime": 22,
        "channel": 3,
        "type": "channel",
        "subtype": "noteOff",
        "noteNumber": 34,
        "velocity": 0
      },
      {
        "deltaTime": 5,
        "channel": 3,
        "type": "channel",
        "noteNumber": 33,
        "velocity": 16,
        "subtype": "noteOn"
      },
      {
        "deltaTime": 9,
        "channel": 3,
        "type": "channel",
        "subtype": "noteOff",
        "noteNumber": 33,
        "velocity": 0
      },
      {
        "deltaTime": 5,
        "channel": 3,
        "type": "channel",
        "subtype": "noteOff",
        "noteNumber": 105,
        "velocity": 0
      },
      {
        "deltaTime": 7,
        "channel": 3,
        "type": "channel",
        "noteNumber": 38,
        "velocity": 16,
        "subtype": "noteOn"
      },
      {
        "deltaTime": 29,
        "channel": 3,
        "type": "channel",
        "subtype": "noteOff",
        "noteNumber": 38,
        "velocity": 0
      },
      {
        "deltaTime": 283,
        "channel": 3,
        "type": "channel",
        "noteNumber": 104,
        "velocity": 25,
        "subtype": "noteOn"
      },
      {
        "deltaTime": 12,
        "channel": 3,
        "type": "channel",
        "subtype": "noteOff",
        "noteNumber": 104,
        "velocity": 0
      },
      {
        "deltaTime": 34,
        "channel": 3,
        "type": "channel",
        "noteNumber": 36,
        "velocity": 26,
        "subtype": "noteOn"
      },
      {
        "deltaTime": 12,
        "channel": 3,
        "type": "channel",
        "subtype": "noteOff",
        "noteNumber": 36,
        "velocity": 0
      },
      {
        "deltaTime": 1085,
        "channel": 3,
        "type": "channel",
        "noteNumber": 91,
        "velocity": 15,
        "subtype": "noteOn"
      },
      {
        "deltaTime": 48,
        "channel": 3,
        "type": "channel",
        "noteNumber": 76,
        "velocity": 15,
        "subtype": "noteOn"
      },
      {
        "deltaTime": 26,
        "channel": 3,
        "type": "channel",
        "subtype": "noteOff",
        "noteNumber": 76,
        "velocity": 0
      },
      {
        "deltaTime": 0,
        "channel": 3,
        "type": "channel",
        "noteNumber": 64,
        "velocity": 38,
        "subtype": "noteOn"
      },
      {
        "deltaTime": 31,
        "channel": 3,
        "type": "channel",
        "subtype": "noteOff",
        "noteNumber": 91,
        "velocity": 0
      },
      {
        "deltaTime": 7,
        "channel": 3,
        "type": "channel",
        "noteNumber": 76,
        "velocity": 17,
        "subtype": "noteOn"
      },
      {
        "deltaTime": 20,
        "channel": 3,
        "type": "channel",
        "subtype": "noteOff",
        "noteNumber": 76,
        "velocity": 0
      },
      {
        "deltaTime": 16,
        "channel": 3,
        "type": "channel",
        "subtype": "noteOff",
        "noteNumber": 64,
        "velocity": 0
      },
      {
        "deltaTime": 24,
        "channel": 3,
        "type": "channel",
        "noteNumber": 104,
        "velocity": 27,
        "subtype": "noteOn"
      },
      {
        "deltaTime": 44,
        "channel": 3,
        "type": "channel",
        "subtype": "noteOff",
        "noteNumber": 104,
        "velocity": 0
      },
      {
        "deltaTime": 168,
        "channel": 3,
        "type": "channel",
        "noteNumber": 101,
        "velocity": 36,
        "subtype": "noteOn"
      },
      {
        "deltaTime": 16,
        "channel": 3,
        "type": "channel",
        "noteNumber": 89,
        "velocity": 33,
        "subtype": "noteOn"
      },
      {
        "deltaTime": 10,
        "channel": 3,
        "type": "channel",
        "subtype": "noteOff",
        "noteNumber": 89,
        "velocity": 0
      },
      {
        "deltaTime": 19,
        "channel": 3,
        "type": "channel",
        "noteNumber": 77,
        "velocity": 25,
        "subtype": "noteOn"
      },
      {
        "deltaTime": 7,
        "channel": 3,
        "type": "channel",
        "subtype": "noteOff",
        "noteNumber": 101,
        "velocity": 0
      },
      {
        "deltaTime": 24,
        "channel": 3,
        "type": "channel",
        "subtype": "noteOff",
        "noteNumber": 77,
        "velocity": 0
      },
      {
        "deltaTime": 255,
        "channel": 3,
        "type": "channel",
        "noteNumber": 36,
        "velocity": 14,
        "subtype": "noteOn"
      },
      {
        "deltaTime": 17,
        "channel": 3,
        "type": "channel",
        "subtype": "noteOff",
        "noteNumber": 36,
        "velocity": 0
      },
      {
        "deltaTime": 9,
        "channel": 3,
        "type": "channel",
        "noteNumber": 36,
        "velocity": 18,
        "subtype": "noteOn"
      },
      {
        "deltaTime": 15,
        "channel": 3,
        "type": "channel",
        "subtype": "noteOff",
        "noteNumber": 36,
        "velocity": 0
      },
      {
        "deltaTime": 40,
        "channel": 3,
        "type": "channel",
        "noteNumber": 42,
        "velocity": 12,
        "subtype": "noteOn"
      },
      {
        "deltaTime": 22,
        "channel": 3,
        "type": "channel",
        "subtype": "noteOff",
        "noteNumber": 42,
        "velocity": 0
      },
      {
        "deltaTime": 60,
        "channel": 3,
        "type": "channel",
        "noteNumber": 86,
        "velocity": 14,
        "subtype": "noteOn"
      },
      {
        "deltaTime": 60,
        "channel": 3,
        "type": "channel",
        "subtype": "noteOff",
        "noteNumber": 86,
        "velocity": 0
      },
      {
        "deltaTime": 122,
        "channel": 3,
        "type": "channel",
        "noteNumber": 105,
        "velocity": 14,
        "subtype": "noteOn"
      },
      {
        "deltaTime": 39,
        "channel": 3,
        "type": "channel",
        "subtype": "noteOff",
        "noteNumber": 105,
        "velocity": 0
      },
      {
        "deltaTime": 269,
        "channel": 3,
        "type": "channel",
        "noteNumber": 104,
        "velocity": 37,
        "subtype": "noteOn"
      },
      {
        "deltaTime": 48,
        "channel": 3,
        "type": "channel",
        "noteNumber": 76,
        "velocity": 13,
        "subtype": "noteOn"
      },
      {
        "deltaTime": 9,
        "channel": 3,
        "type": "channel",
        "subtype": "noteOff",
        "noteNumber": 76,
        "velocity": 0
      },
      {
        "deltaTime": 0,
        "channel": 3,
        "type": "channel",
        "subtype": "noteOff",
        "noteNumber": 104,
        "velocity": 0
      },
      {
        "deltaTime": 3,
        "channel": 3,
        "type": "channel",
        "noteNumber": 35,
        "velocity": 17,
        "subtype": "noteOn"
      },
      {
        "deltaTime": 14,
        "channel": 3,
        "type": "channel",
        "subtype": "noteOff",
        "noteNumber": 35,
        "velocity": 0
      },
      {
        "deltaTime": 1164,
        "channel": 3,
        "type": "channel",
        "noteNumber": 74,
        "velocity": 17,
        "subtype": "noteOn"
      },
      {
        "deltaTime": 22,
        "channel": 3,
        "type": "channel",
        "subtype": "noteOff",
        "noteNumber": 74,
        "velocity": 0
      },
      {
        "deltaTime": 28,
        "channel": 3,
        "type": "channel",
        "noteNumber": 104,
        "velocity": 32,
        "subtype": "noteOn"
      },
      {
        "deltaTime": 53,
        "channel": 3,
        "type": "channel",
        "subtype": "noteOff",
        "noteNumber": 104,
        "velocity": 0
      },
      {
        "deltaTime": 17,
        "channel": 3,
        "type": "channel",
        "noteNumber": 91,
        "velocity": 15,
        "subtype": "noteOn"
      },
      {
        "deltaTime": 24,
        "channel": 3,
        "type": "channel",
        "subtype": "noteOff",
        "noteNumber": 91,
        "velocity": 0
      },
      {
        "deltaTime": 442,
        "channel": 3,
        "type": "channel",
        "noteNumber": 42,
        "velocity": 14,
        "subtype": "noteOn"
      },
      {
        "deltaTime": 24,
        "channel": 3,
        "type": "channel",
        "subtype": "noteOff",
        "noteNumber": 42,
        "velocity": 0
      },
      {
        "deltaTime": 43,
        "channel": 3,
        "type": "channel",
        "noteNumber": 105,
        "velocity": 41,
        "subtype": "noteOn"
      },
      {
        "deltaTime": 31,
        "channel": 3,
        "type": "channel",
        "subtype": "noteOff",
        "noteNumber": 105,
        "velocity": 0
      },
      {
        "deltaTime": 235,
        "channel": 3,
        "type": "channel",
        "noteNumber": 70,
        "velocity": 11,
        "subtype": "noteOn"
      },
      {
        "deltaTime": 89,
        "channel": 3,
        "type": "channel",
        "subtype": "noteOff",
        "noteNumber": 70,
        "velocity": 0
      },
      {
        "deltaTime": 50,
        "channel": 3,
        "type": "channel",
        "noteNumber": 38,
        "velocity": 17,
        "subtype": "noteOn"
      },
      {
        "deltaTime": 29,
        "channel": 3,
        "type": "channel",
        "subtype": "noteOff",
        "noteNumber": 38,
        "velocity": 0
      },
      {
        "deltaTime": 245,
        "channel": 3,
        "type": "channel",
        "noteNumber": 74,
        "velocity": 12,
        "subtype": "noteOn"
      },
      {
        "deltaTime": 12,
        "channel": 3,
        "type": "channel",
        "subtype": "noteOff",
        "noteNumber": 74,
        "velocity": 0
      },
      {
        "deltaTime": 26,
        "channel": 3,
        "type": "channel",
        "noteNumber": 104,
        "velocity": 14,
        "subtype": "noteOn"
      },
      {
        "deltaTime": 10,
        "channel": 3,
        "type": "channel",
        "subtype": "noteOff",
        "noteNumber": 104,
        "velocity": 0
      },
      {
        "deltaTime": 288,
        "channel": 3,
        "type": "channel",
        "noteNumber": 102,
        "velocity": 12,
        "subtype": "noteOn"
      },
      {
        "deltaTime": 10,
        "channel": 3,
        "type": "channel",
        "subtype": "noteOff",
        "noteNumber": 102,
        "velocity": 0
      },
      {
        "deltaTime": 873,
        "channel": 3,
        "type": "channel",
        "noteNumber": 56,
        "velocity": 11,
        "subtype": "noteOn"
      },
      {
        "deltaTime": 67,
        "channel": 3,
        "type": "channel",
        "subtype": "noteOff",
        "noteNumber": 56,
        "velocity": 0
      },
      {
        "deltaTime": 0,
        "channel": 3,
        "type": "channel",
        "noteNumber": 77,
        "velocity": 25,
        "subtype": "noteOn"
      },
      {
        "deltaTime": 36,
        "channel": 3,
        "type": "channel",
        "subtype": "noteOff",
        "noteNumber": 77,
        "velocity": 0
      },
      {
        "deltaTime": 51,
        "channel": 3,
        "type": "channel",
        "noteNumber": 77,
        "velocity": 17,
        "subtype": "noteOn"
      },
      {
        "deltaTime": 21,
        "channel": 3,
        "type": "channel",
        "subtype": "noteOff",
        "noteNumber": 77,
        "velocity": 0
      },
      {
        "deltaTime": 221,
        "channel": 3,
        "type": "channel",
        "noteNumber": 63,
        "velocity": 43,
        "subtype": "noteOn"
      },
      {
        "deltaTime": 36,
        "channel": 3,
        "type": "channel",
        "subtype": "noteOff",
        "noteNumber": 63,
        "velocity": 0
      },
      {
        "deltaTime": 58,
        "channel": 3,
        "type": "channel",
        "noteNumber": 67,
        "velocity": 17,
        "subtype": "noteOn"
      },
      {
        "deltaTime": 19,
        "channel": 3,
        "type": "channel",
        "subtype": "noteOff",
        "noteNumber": 67,
        "velocity": 0
      },
      {
        "deltaTime": 859,
        "channel": 3,
        "type": "channel",
        "noteNumber": 77,
        "velocity": 18,
        "subtype": "noteOn"
      },
      {
        "deltaTime": 15,
        "channel": 3,
        "type": "channel",
        "subtype": "noteOff",
        "noteNumber": 77,
        "velocity": 0
      },
      {
        "deltaTime": 57,
        "channel": 3,
        "type": "channel",
        "noteNumber": 77,
        "velocity": 15,
        "subtype": "noteOn"
      },
      {
        "deltaTime": 17,
        "channel": 3,
        "type": "channel",
        "subtype": "noteOff",
        "noteNumber": 77,
        "velocity": 0
      },
      {
        "deltaTime": 187,
        "channel": 3,
        "type": "channel",
        "noteNumber": 51,
        "velocity": 19,
        "subtype": "noteOn"
      },
      {
        "deltaTime": 24,
        "channel": 3,
        "type": "channel",
        "subtype": "noteOff",
        "noteNumber": 51,
        "velocity": 0
      },
      {
        "deltaTime": 595,
        "channel": 3,
        "type": "channel",
        "noteNumber": 36,
        "velocity": 13,
        "subtype": "noteOn"
      },
      {
        "deltaTime": 10,
        "channel": 3,
        "type": "channel",
        "subtype": "noteOff",
        "noteNumber": 36,
        "velocity": 0
      },
      {
        "deltaTime": 355,
        "channel": 3,
        "type": "channel",
        "noteNumber": 77,
        "velocity": 31,
        "subtype": "noteOn"
      },
      {
        "deltaTime": 36,
        "channel": 3,
        "type": "channel",
        "subtype": "noteOff",
        "noteNumber": 77,
        "velocity": 0
      },
      {
        "deltaTime": 3,
        "channel": 3,
        "type": "channel",
        "noteNumber": 35,
        "velocity": 23,
        "subtype": "noteOn"
      },
      {
        "deltaTime": 9,
        "channel": 3,
        "type": "channel",
        "subtype": "noteOff",
        "noteNumber": 35,
        "velocity": 0
      },
      {
        "deltaTime": 262,
        "channel": 3,
        "type": "channel",
        "noteNumber": 79,
        "velocity": 12,
        "subtype": "noteOn"
      },
      {
        "deltaTime": 12,
        "channel": 3,
        "type": "channel",
        "subtype": "noteOff",
        "noteNumber": 79,
        "velocity": 0
      },
      {
        "deltaTime": 9,
        "channel": 3,
        "type": "channel",
        "noteNumber": 94,
        "velocity": 41,
        "subtype": "noteOn"
      },
      {
        "deltaTime": 27,
        "channel": 3,
        "type": "channel",
        "noteNumber": 36,
        "velocity": 33,
        "subtype": "noteOn"
      },
      {
        "deltaTime": 2,
        "channel": 3,
        "type": "channel",
        "subtype": "noteOff",
        "noteNumber": 94,
        "velocity": 0
      },
      {
        "deltaTime": 24,
        "channel": 3,
        "type": "channel",
        "subtype": "noteOff",
        "noteNumber": 36,
        "velocity": 0
      },
      {
        "deltaTime": 516,
        "channel": 3,
        "type": "channel",
        "noteNumber": 104,
        "velocity": 15,
        "subtype": "noteOn"
      },
      {
        "deltaTime": 24,
        "channel": 3,
        "type": "channel",
        "subtype": "noteOff",
        "noteNumber": 104,
        "velocity": 0
      },
      {
        "deltaTime": 7,
        "channel": 3,
        "type": "channel",
        "noteNumber": 87,
        "velocity": 30,
        "subtype": "noteOn"
      },
      {
        "deltaTime": 36,
        "channel": 3,
        "type": "channel",
        "subtype": "noteOff",
        "noteNumber": 87,
        "velocity": 0
      },
      {
        "deltaTime": 207,
        "channel": 3,
        "type": "channel",
        "noteNumber": 84,
        "velocity": 19,
        "subtype": "noteOn"
      },
      {
        "deltaTime": 72,
        "channel": 3,
        "type": "channel",
        "subtype": "noteOff",
        "noteNumber": 84,
        "velocity": 0
      },
      {
        "deltaTime": 48,
        "channel": 3,
        "type": "channel",
        "noteNumber": 63,
        "velocity": 47,
        "subtype": "noteOn"
      },
      {
        "deltaTime": 2,
        "channel": 3,
        "type": "channel",
        "noteNumber": 49,
        "velocity": 14,
        "subtype": "noteOn"
      },
      {
        "deltaTime": 10,
        "channel": 3,
        "type": "channel",
        "subtype": "noteOff",
        "noteNumber": 49,
        "velocity": 0
      },
      {
        "deltaTime": 17,
        "channel": 3,
        "type": "channel",
        "subtype": "noteOff",
        "noteNumber": 63,
        "velocity": 0
      },
      {
        "deltaTime": 48,
        "channel": 3,
        "type": "channel",
        "noteNumber": 77,
        "velocity": 25,
        "subtype": "noteOn"
      },
      {
        "deltaTime": 24,
        "channel": 3,
        "type": "channel",
        "subtype": "noteOff",
        "noteNumber": 77,
        "velocity": 0
      },
      {
        "deltaTime": 187,
        "channel": 3,
        "type": "channel",
        "noteNumber": 51,
        "velocity": 17,
        "subtype": "noteOn"
      },
      {
        "deltaTime": 12,
        "channel": 3,
        "type": "channel",
        "subtype": "noteOff",
        "noteNumber": 51,
        "velocity": 0
      },
      {
        "deltaTime": 24,
        "channel": 3,
        "type": "channel",
        "noteNumber": 103,
        "velocity": 24,
        "subtype": "noteOn"
      },
      {
        "deltaTime": 21,
        "channel": 3,
        "type": "channel",
        "subtype": "noteOff",
        "noteNumber": 103,
        "velocity": 0
      },
      {
        "deltaTime": 3,
        "channel": 3,
        "type": "channel",
        "noteNumber": 36,
        "velocity": 10,
        "subtype": "noteOn"
      },
      {
        "deltaTime": 14,
        "channel": 3,
        "type": "channel",
        "noteNumber": 51,
        "velocity": 11,
        "subtype": "noteOn"
      },
      {
        "deltaTime": 5,
        "channel": 3,
        "type": "channel",
        "subtype": "noteOff",
        "noteNumber": 36,
        "velocity": 0
      },
      {
        "deltaTime": 14,
        "channel": 3,
        "type": "channel",
        "subtype": "noteOff",
        "noteNumber": 51,
        "velocity": 0
      },
      {
        "deltaTime": 8,
        "channel": 3,
        "type": "channel",
        "noteNumber": 84,
        "velocity": 10,
        "subtype": "noteOn"
      },
      {
        "deltaTime": 14,
        "channel": 3,
        "type": "channel",
        "subtype": "noteOff",
        "noteNumber": 84,
        "velocity": 0
      },
      {
        "deltaTime": 612,
        "channel": 3,
        "type": "channel",
        "noteNumber": 105,
        "velocity": 12,
        "subtype": "noteOn"
      },
      {
        "deltaTime": 53,
        "channel": 3,
        "type": "channel",
        "subtype": "noteOff",
        "noteNumber": 105,
        "velocity": 0
      },
      {
        "deltaTime": 197,
        "channel": 3,
        "type": "channel",
        "noteNumber": 77,
        "velocity": 31,
        "subtype": "noteOn"
      },
      {
        "deltaTime": 36,
        "channel": 3,
        "type": "channel",
        "subtype": "noteOff",
        "noteNumber": 77,
        "velocity": 0
      },
      {
        "deltaTime": 48,
        "channel": 3,
        "type": "channel",
        "noteNumber": 77,
        "velocity": 33,
        "subtype": "noteOn"
      },
      {
        "deltaTime": 12,
        "channel": 3,
        "type": "channel",
        "subtype": "noteOff",
        "noteNumber": 77,
        "velocity": 0
      },
      {
        "deltaTime": 187,
        "channel": 3,
        "type": "channel",
        "noteNumber": 36,
        "velocity": 21,
        "subtype": "noteOn"
      },
      {
        "deltaTime": 12,
        "channel": 3,
        "type": "channel",
        "subtype": "noteOff",
        "noteNumber": 36,
        "velocity": 0
      },
      {
        "deltaTime": 288,
        "channel": 3,
        "type": "channel",
        "noteNumber": 104,
        "velocity": 12,
        "subtype": "noteOn"
      },
      {
        "deltaTime": 12,
        "channel": 3,
        "type": "channel",
        "subtype": "noteOff",
        "noteNumber": 104,
        "velocity": 0
      },
      {
        "deltaTime": 686,
        "channel": 3,
        "type": "channel",
        "noteNumber": 77,
        "velocity": 26,
        "subtype": "noteOn"
      },
      {
        "deltaTime": 34,
        "channel": 3,
        "type": "channel",
        "subtype": "noteOff",
        "noteNumber": 77,
        "velocity": 0
      },
      {
        "deltaTime": 218,
        "channel": 3,
        "type": "channel",
        "noteNumber": 94,
        "velocity": 13,
        "subtype": "noteOn"
      },
      {
        "deltaTime": 34,
        "channel": 3,
        "type": "channel",
        "subtype": "noteOff",
        "noteNumber": 94,
        "velocity": 0
      },
      {
        "deltaTime": 69,
        "channel": 3,
        "type": "channel",
        "noteNumber": 36,
        "velocity": 25,
        "subtype": "noteOn"
      },
      {
        "deltaTime": 27,
        "channel": 3,
        "type": "channel",
        "subtype": "noteOff",
        "noteNumber": 36,
        "velocity": 0
      },
      {
        "deltaTime": 249,
        "channel": 3,
        "type": "channel",
        "noteNumber": 77,
        "velocity": 13,
        "subtype": "noteOn"
      },
      {
        "deltaTime": 12,
        "channel": 3,
        "type": "channel",
        "subtype": "noteOff",
        "noteNumber": 77,
        "velocity": 0
      },
      {
        "deltaTime": 192,
        "channel": 3,
        "type": "channel",
        "noteNumber": 101,
        "velocity": 28,
        "subtype": "noteOn"
      },
      {
        "deltaTime": 80,
        "channel": 3,
        "type": "channel",
        "subtype": "noteOff",
        "noteNumber": 101,
        "velocity": 0
      },
      {
        "deltaTime": 0,
        "channel": 3,
        "type": "channel",
        "noteNumber": 36,
        "velocity": 14,
        "subtype": "noteOn"
      },
      {
        "deltaTime": 9,
        "channel": 3,
        "type": "channel",
        "subtype": "noteOff",
        "noteNumber": 36,
        "velocity": 0
      },
      {
        "deltaTime": 267,
        "channel": 3,
        "type": "channel",
        "noteNumber": 49,
        "velocity": 32,
        "subtype": "noteOn"
      },
      {
        "deltaTime": 76,
        "channel": 3,
        "type": "channel",
        "subtype": "noteOff",
        "noteNumber": 49,
        "velocity": 0
      },
      {
        "deltaTime": 346,
        "channel": 3,
        "type": "channel",
        "noteNumber": 94,
        "velocity": 40,
        "subtype": "noteOn"
      },
      {
        "deltaTime": 31,
        "channel": 3,
        "type": "channel",
        "subtype": "noteOff",
        "noteNumber": 94,
        "velocity": 0
      },
      {
        "deltaTime": 598,
        "channel": 3,
        "type": "channel",
        "noteNumber": 104,
        "velocity": 19,
        "subtype": "noteOn"
      },
      {
        "deltaTime": 9,
        "channel": 3,
        "type": "channel",
        "subtype": "noteOff",
        "noteNumber": 104,
        "velocity": 0
      },
      {
        "deltaTime": 324,
        "channel": 3,
        "type": "channel",
        "noteNumber": 101,
        "velocity": 16,
        "subtype": "noteOn"
      },
      {
        "deltaTime": 27,
        "channel": 3,
        "type": "channel",
        "subtype": "noteOff",
        "noteNumber": 101,
        "velocity": 0
      },
      {
        "deltaTime": 660,
        "channel": 3,
        "type": "channel",
        "noteNumber": 105,
        "velocity": 47,
        "subtype": "noteOn"
      },
      {
        "deltaTime": 24,
        "channel": 3,
        "type": "channel",
        "noteNumber": 79,
        "velocity": 19,
        "subtype": "noteOn"
      },
      {
        "deltaTime": 38,
        "channel": 3,
        "type": "channel",
        "subtype": "noteOff",
        "noteNumber": 79,
        "velocity": 0
      },
      {
        "deltaTime": 12,
        "channel": 3,
        "type": "channel",
        "noteNumber": 68,
        "velocity": 47,
        "subtype": "noteOn"
      },
      {
        "deltaTime": 60,
        "channel": 3,
        "type": "channel",
        "subtype": "noteOff",
        "noteNumber": 68,
        "velocity": 0
      },
      {
        "deltaTime": 91,
        "channel": 3,
        "type": "channel",
        "subtype": "noteOff",
        "noteNumber": 105,
        "velocity": 0
      },
      {
        "deltaTime": 106,
        "channel": 3,
        "type": "channel",
        "noteNumber": 79,
        "velocity": 16,
        "subtype": "noteOn"
      },
      {
        "deltaTime": 14,
        "channel": 3,
        "type": "channel",
        "subtype": "noteOff",
        "noteNumber": 79,
        "velocity": 0
      },
      {
        "deltaTime": 0,
        "type": "meta",
        "subtype": "endOfTrack"
      }
    ],
    [
      {
        "deltaTime": 32344,
        "channel": 4,
        "type": "channel",
        "subtype": "programChange",
        "programNumber": 0
      },
      {
        "deltaTime": 0,
        "channel": 4,
        "type": "channel",
        "noteNumber": 30,
        "velocity": 15,
        "subtype": "noteOn"
      },
      {
        "deltaTime": 24,
        "channel": 4,
        "type": "channel",
        "subtype": "noteOff",
        "noteNumber": 30,
        "velocity": 0
      },
      {
        "deltaTime": 1284,
        "channel": 4,
        "type": "channel",
        "noteNumber": 69,
        "velocity": 20,
        "subtype": "noteOn"
      },
      {
        "deltaTime": 87,
        "channel": 4,
        "type": "channel",
        "subtype": "noteOff",
        "noteNumber": 69,
        "velocity": 0
      },
      {
        "deltaTime": 967,
        "channel": 4,
        "type": "channel",
        "noteNumber": 85,
        "velocity": 13,
        "subtype": "noteOn"
      },
      {
        "deltaTime": 36,
        "channel": 4,
        "type": "channel",
        "subtype": "noteOff",
        "noteNumber": 85,
        "velocity": 0
      },
      {
        "deltaTime": 165,
        "channel": 4,
        "type": "channel",
        "noteNumber": 90,
        "velocity": 14,
        "subtype": "noteOn"
      },
      {
        "deltaTime": 116,
        "channel": 4,
        "type": "channel",
        "subtype": "noteOff",
        "noteNumber": 90,
        "velocity": 0
      },
      {
        "deltaTime": 33,
        "channel": 4,
        "type": "channel",
        "noteNumber": 36,
        "velocity": 26,
        "subtype": "noteOn"
      },
      {
        "deltaTime": 22,
        "channel": 4,
        "type": "channel",
        "subtype": "noteOff",
        "noteNumber": 36,
        "velocity": 0
      },
      {
        "deltaTime": 1118,
        "channel": 4,
        "type": "channel",
        "noteNumber": 32,
        "velocity": 18,
        "subtype": "noteOn"
      },
      {
        "deltaTime": 17,
        "channel": 4,
        "type": "channel",
        "subtype": "noteOff",
        "noteNumber": 32,
        "velocity": 0
      },
      {
        "deltaTime": 1258,
        "channel": 4,
        "type": "channel",
        "noteNumber": 76,
        "velocity": 16,
        "subtype": "noteOn"
      },
      {
        "deltaTime": 74,
        "channel": 4,
        "type": "channel",
        "subtype": "noteOff",
        "noteNumber": 76,
        "velocity": 0
      },
      {
        "deltaTime": 586,
        "channel": 4,
        "type": "channel",
        "noteNumber": 40,
        "velocity": 13,
        "subtype": "noteOn"
      },
      {
        "deltaTime": 14,
        "channel": 4,
        "type": "channel",
        "subtype": "noteOff",
        "noteNumber": 40,
        "velocity": 0
      },
      {
        "deltaTime": 557,
        "channel": 4,
        "type": "channel",
        "noteNumber": 85,
        "velocity": 13,
        "subtype": "noteOn"
      },
      {
        "deltaTime": 33,
        "channel": 4,
        "type": "channel",
        "noteNumber": 36,
        "velocity": 13,
        "subtype": "noteOn"
      },
      {
        "deltaTime": 24,
        "channel": 4,
        "type": "channel",
        "subtype": "noteOff",
        "noteNumber": 36,
        "velocity": 0
      },
      {
        "deltaTime": 46,
        "channel": 4,
        "type": "channel",
        "noteNumber": 41,
        "velocity": 12,
        "subtype": "noteOn"
      },
      {
        "deltaTime": 12,
        "channel": 4,
        "type": "channel",
        "subtype": "noteOff",
        "noteNumber": 41,
        "velocity": 0
      },
      {
        "deltaTime": 12,
        "channel": 4,
        "type": "channel",
        "subtype": "noteOff",
        "noteNumber": 85,
        "velocity": 0
      },
      {
        "deltaTime": 1217,
        "channel": 4,
        "type": "channel",
        "noteNumber": 59,
        "velocity": 18,
        "subtype": "noteOn"
      },
      {
        "deltaTime": 17,
        "channel": 4,
        "type": "channel",
        "subtype": "noteOff",
        "noteNumber": 59,
        "velocity": 0
      },
      {
        "deltaTime": 631,
        "channel": 4,
        "type": "channel",
        "noteNumber": 40,
        "velocity": 12,
        "subtype": "noteOn"
      },
      {
        "deltaTime": 12,
        "channel": 4,
        "type": "channel",
        "subtype": "noteOff",
        "noteNumber": 40,
        "velocity": 0
      },
      {
        "deltaTime": 645,
        "channel": 4,
        "type": "channel",
        "noteNumber": 69,
        "velocity": 19,
        "subtype": "noteOn"
      },
      {
        "deltaTime": 20,
        "channel": 4,
        "type": "channel",
        "noteNumber": 59,
        "velocity": 19,
        "subtype": "noteOn"
      },
      {
        "deltaTime": 14,
        "channel": 4,
        "type": "channel",
        "subtype": "noteOff",
        "noteNumber": 59,
        "velocity": 0
      },
      {
        "deltaTime": 34,
        "channel": 4,
        "type": "channel",
        "subtype": "noteOff",
        "noteNumber": 69,
        "velocity": 0
      },
      {
        "deltaTime": 6691,
        "channel": 4,
        "type": "channel",
        "noteNumber": 64,
        "velocity": 37,
        "subtype": "noteOn"
      },
      {
        "deltaTime": 74,
        "channel": 4,
        "type": "channel",
        "subtype": "noteOff",
        "noteNumber": 64,
        "velocity": 0
      },
      {
        "deltaTime": 31,
        "channel": 4,
        "type": "channel",
        "noteNumber": 33,
        "velocity": 21,
        "subtype": "noteOn"
      },
      {
        "deltaTime": 48,
        "channel": 4,
        "type": "channel",
        "subtype": "noteOff",
        "noteNumber": 33,
        "velocity": 0
      },
      {
        "deltaTime": 444,
        "channel": 4,
        "type": "channel",
        "noteNumber": 62,
        "velocity": 12,
        "subtype": "noteOn"
      },
      {
        "deltaTime": 72,
        "channel": 4,
        "type": "channel",
        "subtype": "noteOff",
        "noteNumber": 62,
        "velocity": 0
      },
      {
        "deltaTime": 1006,
        "channel": 4,
        "type": "channel",
        "noteNumber": 36,
        "velocity": 17,
        "subtype": "noteOn"
      },
      {
        "deltaTime": 2,
        "channel": 4,
        "type": "channel",
        "noteNumber": 42,
        "velocity": 18,
        "subtype": "noteOn"
      },
      {
        "deltaTime": 12,
        "channel": 4,
        "type": "channel",
        "subtype": "noteOff",
        "noteNumber": 36,
        "velocity": 0
      },
      {
        "deltaTime": 17,
        "channel": 4,
        "type": "channel",
        "subtype": "noteOff",
        "noteNumber": 42,
        "velocity": 0
      },
      {
        "deltaTime": 190,
        "channel": 4,
        "type": "channel",
        "noteNumber": 57,
        "velocity": 16,
        "subtype": "noteOn"
      },
      {
        "deltaTime": 48,
        "channel": 4,
        "type": "channel",
        "subtype": "noteOff",
        "noteNumber": 57,
        "velocity": 0
      },
      {
        "deltaTime": 583,
        "channel": 4,
        "type": "channel",
        "noteNumber": 62,
        "velocity": 11,
        "subtype": "noteOn"
      },
      {
        "deltaTime": 34,
        "channel": 4,
        "type": "channel",
        "subtype": "noteOff",
        "noteNumber": 62,
        "velocity": 0
      },
      {
        "deltaTime": 33,
        "channel": 4,
        "type": "channel",
        "noteNumber": 104,
        "velocity": 36,
        "subtype": "noteOn"
      },
      {
        "deltaTime": 5,
        "channel": 4,
        "type": "channel",
        "noteNumber": 76,
        "velocity": 12,
        "subtype": "noteOn"
      },
      {
        "deltaTime": 17,
        "channel": 4,
        "type": "channel",
        "subtype": "noteOff",
        "noteNumber": 76,
        "velocity": 0
      },
      {
        "deltaTime": 17,
        "channel": 4,
        "type": "channel",
        "subtype": "noteOff",
        "noteNumber": 104,
        "velocity": 0
      },
      {
        "deltaTime": 2479,
        "channel": 4,
        "type": "channel",
        "noteNumber": 104,
        "velocity": 34,
        "subtype": "noteOn"
      },
      {
        "deltaTime": 81,
        "channel": 4,
        "type": "channel",
        "subtype": "noteOff",
        "noteNumber": 104,
        "velocity": 0
      },
      {
        "deltaTime": 533,
        "channel": 4,
        "type": "channel",
        "noteNumber": 62,
        "velocity": 12,
        "subtype": "noteOn"
      },
      {
        "deltaTime": 63,
        "channel": 4,
        "type": "channel",
        "subtype": "noteOff",
        "noteNumber": 62,
        "velocity": 0
      },
      {
        "deltaTime": 1869,
        "channel": 4,
        "type": "channel",
        "noteNumber": 62,
        "velocity": 10,
        "subtype": "noteOn"
      },
      {
        "deltaTime": 22,
        "channel": 4,
        "type": "channel",
        "subtype": "noteOff",
        "noteNumber": 62,
        "velocity": 0
      },
      {
        "deltaTime": 41,
        "channel": 4,
        "type": "channel",
        "noteNumber": 76,
        "velocity": 12,
        "subtype": "noteOn"
      },
      {
        "deltaTime": 16,
        "channel": 4,
        "type": "channel",
        "subtype": "noteOff",
        "noteNumber": 76,
        "velocity": 0
      },
      {
        "deltaTime": 41,
        "channel": 4,
        "type": "channel",
        "noteNumber": 104,
        "velocity": 12,
        "subtype": "noteOn"
      },
      {
        "deltaTime": 36,
        "channel": 4,
        "type": "channel",
        "subtype": "noteOff",
        "noteNumber": 104,
        "velocity": 0
      },
      {
        "deltaTime": 2537,
        "channel": 4,
        "type": "channel",
        "noteNumber": 105,
        "velocity": 17,
        "subtype": "noteOn"
      },
      {
        "deltaTime": 26,
        "channel": 4,
        "type": "channel",
        "subtype": "noteOff",
        "noteNumber": 105,
        "velocity": 0
      },
      {
        "deltaTime": 188,
        "channel": 4,
        "type": "channel",
        "noteNumber": 35,
        "velocity": 40,
        "subtype": "noteOn"
      },
      {
        "deltaTime": 50,
        "channel": 4,
        "type": "channel",
        "subtype": "noteOff",
        "noteNumber": 35,
        "velocity": 0
      },
      {
        "deltaTime": 2551,
        "channel": 4,
        "type": "channel",
        "noteNumber": 103,
        "velocity": 41,
        "subtype": "noteOn"
      },
      {
        "deltaTime": 22,
        "channel": 4,
        "type": "channel",
        "subtype": "noteOff",
        "noteNumber": 103,
        "velocity": 0
      },
      {
        "deltaTime": 561,
        "channel": 4,
        "type": "channel",
        "noteNumber": 36,
        "velocity": 10,
        "subtype": "noteOn"
      },
      {
        "deltaTime": 22,
        "channel": 4,
        "type": "channel",
        "subtype": "noteOff",
        "noteNumber": 36,
        "velocity": 0
      },
      {
        "deltaTime": 338,
        "channel": 4,
        "type": "channel",
        "noteNumber": 77,
        "velocity": 29,
        "subtype": "noteOn"
      },
      {
        "deltaTime": 39,
        "channel": 4,
        "type": "channel",
        "subtype": "noteOff",
        "noteNumber": 77,
        "velocity": 0
      },
      {
        "deltaTime": 6105,
        "channel": 4,
        "type": "channel",
        "noteNumber": 54,
        "velocity": 12,
        "subtype": "noteOn"
      },
      {
        "deltaTime": 15,
        "channel": 4,
        "type": "channel",
        "subtype": "noteOff",
        "noteNumber": 54,
        "velocity": 0
      },
      {
        "deltaTime": 0,
        "type": "meta",
        "subtype": "endOfTrack"
      }
    ]
  ]
}